<svg width="64" height="64" viewBox="0 0 64 64" fill="none" xmlns="http://www.w3.org/2000/svg">
<rect width="64" height="64" rx="8" fill="white"/>
<g clip-path="url(#clip0_352_10108)">
<path d="M32 48C40.8366 48 48 40.8366 48 32C48 23.1634 40.8366 16 32 16C23.1634 16 16 23.1634 16 32C16 40.8366 23.1634 48 32 48Z" fill="#0098EA"/>
<path d="M37.4629 24.9302H26.5363C24.5272 24.9302 23.2539 27.0973 24.2646 28.8493L31.0082 40.5377C31.4482 41.3009 32.551 41.3009 32.9911 40.5377L39.736 28.8493C40.7454 27.1001 39.472 24.9302 37.4643 24.9302H37.4629ZM31.0027 37.0325L29.534 34.1902L25.9904 27.8523C25.7566 27.4466 26.0453 26.9268 26.5349 26.9268H31.0013V37.0339L31.0027 37.0325ZM38.0061 27.8509L34.4638 34.1915L32.9952 37.0325V26.9254H37.4616C37.9511 26.9254 38.2399 27.4453 38.0061 27.8509Z" fill="white"/>
</g>
<defs>
<clipPath id="clip0_352_10108">
<rect width="32" height="32" fill="white" transform="translate(16 16)"/>
</clipPath>
</defs>
</svg>
