<svg width="64" height="64" viewBox="0 0 64 64" fill="none" xmlns="http://www.w3.org/2000/svg">
<rect width="64" height="64" rx="8" fill="white"/>
<g clip-path="url(#clip0_352_10116)">
<path d="M32 48C40.8366 48 48 40.8366 48 32C48 23.1634 40.8366 16 32 16C23.1634 16 16 23.1634 16 32C16 40.8366 23.1634 48 32 48Z" fill="#26A17B"/>
<path fill-rule="evenodd" clip-rule="evenodd" d="M33.9218 33.3828V33.3808C33.8118 33.3888 33.2448 33.4228 31.9798 33.4228C30.9698 33.4228 30.2588 33.3928 30.0088 33.3808V33.3838C26.1208 33.2128 23.2188 32.5358 23.2188 31.7258C23.2188 30.9168 26.1208 30.2398 30.0088 30.0658V32.7098C30.2628 32.7278 30.9908 32.7708 31.9968 32.7708C33.2038 32.7708 33.8088 32.7208 33.9218 32.7108V30.0678C37.8018 30.2408 40.6968 30.9178 40.6968 31.7258C40.6968 32.5358 37.8018 33.2108 33.9218 33.3828ZM33.9218 29.7928V27.4268H39.3358V23.8188H24.5948V27.4268H30.0088V29.7918C25.6088 29.9938 22.2998 30.8658 22.2998 31.9098C22.2998 32.9538 25.6088 33.8248 30.0088 34.0278V41.6098H33.9218V34.0258C38.3148 33.8238 41.6158 32.9528 41.6158 31.9098C41.6158 30.8668 38.3148 29.9958 33.9218 29.7928Z" fill="white"/>
</g>
<defs>
<clipPath id="clip0_352_10116">
<rect width="32" height="32" fill="white" transform="translate(16 16)"/>
</clipPath>
</defs>
</svg>
