<svg width="64" height="64" viewBox="0 0 64 64" fill="none" xmlns="http://www.w3.org/2000/svg">
<rect width="64" height="64" rx="8" fill="white"/>
<g clip-path="url(#clip0_349_10098)">
<path d="M27.1979 38.002V38.005C27.1951 38.005 26.2992 38.002 26.0603 38.9219C25.8414 39.7655 25.2242 42.0934 25.2072 42.1575H25.0365C25.0365 42.1575 24.4052 39.7777 24.1833 38.9189C23.9444 37.9989 23.0457 38.002 23.0457 38.002H21V44.9989H23.0467V40.8433H23.2173L24.4118 44.9989H25.8328L27.0273 40.8463H27.1979V44.9989H29.2446V38.002H27.1979ZM34.6747 38.002C34.6747 38.002 34.0746 38.06 33.793 38.7355L32.3436 42.1575H32.1729V38.002H30.1262V44.9989H32.0592C32.0592 44.9989 32.6877 44.9378 32.9693 44.2654L34.3903 40.8433H34.5609V44.9989H36.6076V38.002H34.6747ZM37.5177 41.1795V44.9989H39.5644V42.7688H41.7817C42.7487 42.7688 43.5668 42.1056 43.8711 41.1805H37.5177V41.1795Z" fill="#4DB45E"/>
<path d="M41.7827 38.0015H37.2305C37.458 39.334 38.3879 40.4027 39.59 40.7511C39.869 40.8324 40.1569 40.8735 40.446 40.8734H43.9545C43.9858 40.7145 44 40.5525 44 40.3844C44 39.0681 43.0075 38.0015 41.7827 38.0015Z" fill="url(#paint0_linear_349_10098)"/>
</g>
<path d="M35.4502 18C37.963 18 40 20.0127 40 22.4951C39.9998 24.9773 37.9629 26.9893 35.4502 26.9893C34.3242 26.9892 33.2944 26.5845 32.5 25.915C31.7055 26.5844 30.6758 26.9893 29.5498 26.9893C27.0371 26.9892 25.0002 24.9773 25 22.4951C25 20.0128 27.037 18.0001 29.5498 18C30.6758 18 31.7056 18.4049 32.5 19.0742C33.2944 18.4049 34.3242 18.0001 35.4502 18Z" fill="#ED0006"/>
<path d="M35.4502 18C37.9631 18 40 20.0127 40 22.4951C39.9998 24.9773 37.9629 26.9893 35.4502 26.9893C34.3242 26.9892 33.2944 26.5845 32.5 25.915C33.4784 25.0907 34.0995 23.865 34.0996 22.4951C34.0996 21.125 33.4786 19.8986 32.5 19.0742C33.2944 18.4049 34.3242 18.0001 35.4502 18Z" fill="#F9A000"/>
<path d="M32.5 19.0742C33.4786 19.8986 34.0996 21.125 34.0996 22.4951C34.0995 23.865 33.4784 25.0907 32.5 25.915C31.5217 25.0907 30.9005 23.8649 30.9004 22.4951C30.9004 21.1252 31.5216 19.8986 32.5 19.0742Z" fill="#FF5E00"/>
<path fill-rule="evenodd" clip-rule="evenodd" d="M26.0003 35.9373H23.9232L22.3657 29.7311C22.2917 29.4456 22.1348 29.1932 21.9039 29.0743C21.3277 28.7754 20.6927 28.5375 20 28.4175V28.1785H23.346C23.8078 28.1785 24.1541 28.5375 24.2118 28.9543L25.02 33.431L27.096 28.1785H29.1153L26.0003 35.9373ZM30.2693 35.9373H28.3077L29.9229 28.1785H31.8845L30.2693 35.9373ZM34.4232 30.3283C34.481 29.9105 34.8273 29.6715 35.2314 29.6715C35.8663 29.6115 36.558 29.7315 37.1352 30.0294L37.4816 28.3589C36.9044 28.12 36.2694 28 35.6932 28C33.7893 28 32.4039 29.0747 32.4039 30.5663C32.4039 31.7009 33.3852 32.2967 34.0779 32.6557C34.8273 33.0136 35.1159 33.2525 35.0582 33.6104C35.0582 34.1472 34.481 34.3862 33.9047 34.3862C33.212 34.3862 32.5194 34.2072 31.8854 33.9083L31.5391 35.5798C32.2317 35.8777 32.9811 35.9977 33.6738 35.9977C35.8086 36.0566 37.1352 34.983 37.1352 33.3714C37.1352 31.342 34.4232 31.2231 34.4232 30.3283ZM43.9998 35.9373L42.4423 28.1785H40.7693C40.4229 28.1785 40.0766 28.4175 39.9611 28.7754L37.077 35.9373H39.0963L39.4994 34.8036H41.9805L42.2114 35.9373H43.9998ZM41.0579 30.2687L41.6341 33.1929H40.0188L41.0579 30.2687Z" fill="#172B85"/>
<defs>
<linearGradient id="paint0_linear_349_10098" x1="37.2305" y1="39.4374" x2="44" y2="39.4374" gradientUnits="userSpaceOnUse">
<stop offset="0.3" stop-color="#00B4E6"/>
<stop offset="1" stop-color="#088CCB"/>
</linearGradient>
<clipPath id="clip0_349_10098">
<rect width="23" height="7" fill="white" transform="translate(21 38)"/>
</clipPath>
</defs>
</svg>
