<svg width="64" height="64" viewBox="0 0 64 64" fill="none" xmlns="http://www.w3.org/2000/svg">
<rect width="64" height="64" rx="8" fill="white"/>
<path d="M31.9236 16.7998C34.4206 16.7998 36.7953 17.3546 38.9273 18.347C39.2616 18.4933 39.5979 18.6684 39.9312 18.8436L38.4698 20.0994L36.2785 17.9096L32.5035 21.1209L30.2797 18.8141L23.3381 24.7996L27.7827 29.5002L26.0471 30.9597L30.4325 35.6604L28.6969 37.1193L34.9698 43.8053L38.6818 40.5352L41.9114 44.0397C41.2714 44.5069 40.5712 44.975 39.8109 45.3831C37.4964 46.6383 34.816 47.3669 31.9552 47.3669C23.1547 47.3669 16.0001 40.5071 16.0001 32.0703C15.9695 23.6903 23.1241 16.7998 31.9236 16.7998ZM29.0007 31.1353L32.8063 27.8651L36.2173 31.5145L32.4108 34.7843L29.0007 31.1353ZM31.7106 37.4418L35.4866 34.1427L38.9273 37.7918L35.1208 41.0621L31.7106 37.4418ZM26.2926 24.9168L30.0973 21.6466L33.5074 25.296L29.7008 28.566L26.2926 24.9168ZM33.2638 23.1644L36.0951 20.7121L38.6532 23.4274L35.8219 25.9088L33.2638 23.1644ZM38.3179 34.4049L41.1492 31.9525L43.7072 34.6962L40.875 37.1502L38.3179 34.4049ZM40.8148 39.9236L43.6471 37.4706L46.2032 40.1858L43.372 42.6668L40.8148 39.9236ZM41.9716 27.3103L43.8591 25.6751L45.5642 27.486L43.6767 29.1205L41.9716 27.3103ZM39.5358 21.909L41.4233 20.2452L43.1293 22.0842L41.2409 23.7192L39.5358 21.909ZM44.3768 32.7121L46.2644 31.077L48 32.8873L46.0829 34.5218L44.3768 32.7121ZM35.8821 28.6536L38.7143 26.2011L41.2714 28.9159L38.4402 31.3688L35.8821 28.6536Z" fill="#006CB4"/>
</svg>
