<svg width="64" height="64" viewBox="0 0 64 64" fill="none" xmlns="http://www.w3.org/2000/svg">
<rect width="64" height="64" rx="8" fill="white"/>
<path d="M36.6062 20.7998C30.2896 20.7998 25.2144 25.9097 25.2144 32.1548C25.2144 38.4514 30.3397 43.5098 36.6049 43.5098C42.87 43.5098 48 38.3999 48 32.1548C48 25.9097 42.8714 20.7998 36.6062 20.7998ZM36.6062 36.3871C34.2764 36.3871 32.3612 34.4773 32.3612 32.1548C32.3612 29.8323 34.2764 27.9225 36.6062 27.9225C38.9361 27.9225 40.8519 29.8323 40.8519 32.1548C40.7997 34.4773 38.9361 36.3871 36.6062 36.3871ZM25.2144 24.0989V40.6153H21.1781L16 24.0989H25.2144Z" fill="#8B3FFD"/>
</svg>
