<svg width="16" height="16" viewBox="0 0 16 16" fill="none" xmlns="http://www.w3.org/2000/svg">
<path d="M1.33337 14C1.33345 13.1606 1.53164 12.3331 1.91181 11.5848C2.29199 10.8365 2.84342 10.1885 3.52126 9.69344C4.1991 9.19841 4.9842 8.87036 5.81273 8.73596C6.64126 8.60156 7.48981 8.66461 8.28937 8.91999" stroke="black" stroke-width="1.5" stroke-linecap="round" stroke-linejoin="round"/>
<path d="M6.66671 8.66667C8.50766 8.66667 10 7.17428 10 5.33333C10 3.49238 8.50766 2 6.66671 2C4.82576 2 3.33337 3.49238 3.33337 5.33333C3.33337 7.17428 4.82576 8.66667 6.66671 8.66667Z" stroke="black" stroke-width="1.5" stroke-linecap="round" stroke-linejoin="round"/>
<path d="M12 14C13.1046 14 14 13.1046 14 12C14 10.8954 13.1046 10 12 10C10.8954 10 10 10.8954 10 12C10 13.1046 10.8954 14 12 14Z" stroke="black" stroke-width="1.5" stroke-linecap="round" stroke-linejoin="round"/>
<path d="M12.9999 9.53333L12.7333 10.1333" stroke="black" stroke-width="1.5" stroke-linecap="round" stroke-linejoin="round"/>
<path d="M11.2667 13.8667L11 14.4667" stroke="black" stroke-width="1.5" stroke-linecap="round" stroke-linejoin="round"/>
<path d="M14.4667 13L13.8667 12.7333" stroke="black" stroke-width="1.5" stroke-linecap="round" stroke-linejoin="round"/>
<path d="M10.1333 11.2667L9.53333 11" stroke="black" stroke-width="1.5" stroke-linecap="round" stroke-linejoin="round"/>
<path d="M14.4667 11L13.8667 11.2667" stroke="black" stroke-width="1.5" stroke-linecap="round" stroke-linejoin="round"/>
<path d="M10.1333 12.7333L9.53333 13" stroke="black" stroke-width="1.5" stroke-linecap="round" stroke-linejoin="round"/>
<path d="M12.9999 14.4667L12.7333 13.8667" stroke="black" stroke-width="1.5" stroke-linecap="round" stroke-linejoin="round"/>
<path d="M11.2667 10.1333L11 9.53333" stroke="black" stroke-width="1.5" stroke-linecap="round" stroke-linejoin="round"/>
</svg>
