<svg width="19" height="18" viewBox="0 0 19 18" fill="none" xmlns="http://www.w3.org/2000/svg">
<path d="M11.3356 3.33996C11.0153 3.00159 10.4958 3.00159 10.1754 3.33996C9.85504 3.67834 9.85504 4.22696 10.1754 4.56534L13.3297 7.89673H1.84383C1.39074 7.89673 1.02344 8.28466 1.02344 8.7632C1.02344 9.24174 1.39074 9.62967 1.84383 9.62967H13.496L10.1754 13.1366C9.85504 13.475 9.85504 14.0236 10.1754 14.362C10.4958 14.7004 11.0153 14.7004 11.3356 14.362L15.9735 9.46366C16.2939 9.12528 16.2939 8.57666 15.9735 8.23828L15.896 8.15638C15.8923 8.15245 15.8886 8.14855 15.8849 8.14469L11.3356 3.33996Z" fill="#404145"/>
</svg>
