<svg width="16" height="16" viewBox="0 0 16 16" fill="none" xmlns="http://www.w3.org/2000/svg">
<g clip-path="url(#clip0_466_13044)">
<g clip-path="url(#clip1_466_13044)">
<g clip-path="url(#clip2_466_13044)">
<path d="M0.333008 4C0.333008 3.73478 0.438365 3.48043 0.625901 3.29289C0.813437 3.10536 1.06779 3 1.33301 3H14.666C14.9312 3 15.1856 3.10536 15.3731 3.29289C15.5607 3.48043 15.666 3.73478 15.666 4V12C15.666 12.2652 15.5607 12.5196 15.3731 12.7071C15.1856 12.8946 14.9312 13 14.666 13H1.33301C1.06779 13 0.813437 12.8946 0.625901 12.7071C0.438365 12.5196 0.333008 12.2652 0.333008 12V4Z" fill="#CCF4CC" stroke="#00C900" stroke-width="0.667" stroke-linejoin="round"/>
<path d="M0.666992 4.00001C0.666992 3.63201 0.964992 3.33301 1.33399 3.33301H14.667C15.035 3.33301 15.334 3.63101 15.334 4.00001V4.66701H0.666992V4.00001Z" fill="white"/>
<path d="M6.267 9.33301H2.4C2.17909 9.33301 2 9.51209 2 9.73301V10.266C2 10.4869 2.17909 10.666 2.4 10.666H6.267C6.48791 10.666 6.667 10.4869 6.667 10.266V9.73301C6.667 9.51209 6.48791 9.33301 6.267 9.33301Z" fill="#00C900"/>
<path d="M0.666992 4.66699H15.334V6.66699H0.666992V4.66699Z" fill="#00C900"/>
</g>
</g>
</g>
<defs>
<clipPath id="clip0_466_13044">
<rect width="16" height="16" fill="white"/>
</clipPath>
<clipPath id="clip1_466_13044">
<rect width="16" height="16" fill="white"/>
</clipPath>
<clipPath id="clip2_466_13044">
<rect width="16" height="16" fill="white"/>
</clipPath>
</defs>
</svg>
