<svg width="16" height="16" viewBox="0 0 16 16" fill="none" xmlns="http://www.w3.org/2000/svg">
<g clip-path="url(#clip0_466_13088)">
<g clip-path="url(#clip1_466_13088)">
<mask id="mask0_466_13088" style="mask-type:luminance" maskUnits="userSpaceOnUse" x="0" y="0" width="16" height="16">
<path d="M0 0H16V16H0V0Z" fill="white"/>
</mask>
<g mask="url(#mask0_466_13088)">
<path d="M12.5424 0.666992H3.79139C3.57585 0.666861 3.36241 0.709217 3.16325 0.791638C2.9641 0.87406 2.78314 0.99493 2.63074 1.14734C2.47833 1.29974 2.35746 1.4807 2.27504 1.67985C2.19262 1.87901 2.15026 2.09246 2.15039 2.30799V14.894C2.15039 15.075 2.19539 15.254 2.28139 15.413C2.36739 15.572 2.49139 15.708 2.64239 15.808C2.79339 15.908 2.96739 15.968 3.14839 15.984C3.32939 16 3.51039 15.971 3.67739 15.899L5.56639 15.086L7.68939 16.102C7.84063 16.1738 8.00626 16.2101 8.17366 16.2082C8.34107 16.2063 8.50583 16.1662 8.65539 16.091L10.9024 14.953L12.5974 15.811C12.7644 15.895 12.9494 15.935 13.1364 15.927C13.3234 15.919 13.5044 15.864 13.6634 15.766C13.8224 15.668 13.9534 15.531 14.0444 15.368C14.1354 15.205 14.1834 15.022 14.1834 14.835V2.30699C14.1834 2.09154 14.1409 1.8782 14.0585 1.67916C13.976 1.48012 13.8551 1.29928 13.7027 1.14698C13.5503 0.994682 13.3694 0.873902 13.1703 0.791543C12.9712 0.709184 12.7578 0.666861 12.5424 0.666992ZM13.0894 14.835L11.3934 13.977C11.2404 13.899 11.0714 13.859 10.8994 13.859C10.7274 13.859 10.5584 13.899 10.4054 13.977L8.15739 15.115L6.03539 14.1C5.89484 14.0323 5.74141 13.9956 5.58545 13.9923C5.4295 13.9891 5.27466 14.0193 5.13139 14.081L3.24439 14.894V2.30699C3.24439 2.16199 3.30239 2.02299 3.40439 1.91999C3.50639 1.81699 3.64639 1.75999 3.79139 1.75999H12.5424C12.6874 1.75999 12.8264 1.81799 12.9294 1.91999C13.0324 2.02199 13.0894 2.16199 13.0894 2.30699V14.835Z" fill="#333333"/>
<path d="M10.9017 3.94775H5.43274C5.28774 3.94775 5.14874 4.00575 5.04574 4.10775C4.94274 4.20975 4.88574 4.34975 4.88574 4.49475C4.88574 4.63975 4.94374 4.77875 5.04574 4.88175C5.14774 4.98475 5.28774 5.04175 5.43274 5.04175H10.9017C11.0467 5.04175 11.1857 4.98375 11.2887 4.88175C11.3917 4.77975 11.4487 4.63975 11.4487 4.49475C11.4487 4.34975 11.3907 4.21075 11.2887 4.10775C11.1867 4.00475 11.0467 3.94775 10.9017 3.94775Z" fill="#333333"/>
<path d="M10.9017 6.68311H5.43274C5.28769 6.68332 5.1486 6.74083 5.04574 6.84311C4.94274 6.94511 4.88574 7.08511 4.88574 7.23011C4.88596 7.37516 4.94346 7.51425 5.04574 7.61711C5.14774 7.72011 5.28774 7.77711 5.43274 7.77711H10.9017C11.0468 7.77689 11.1859 7.71938 11.2887 7.61711C11.3917 7.51511 11.4487 7.37511 11.4487 7.23011C11.4485 7.08505 11.391 6.94596 11.2887 6.84311C11.1867 6.74011 11.0467 6.68311 10.9017 6.68311ZM8.50974 9.41711H5.43274C5.28769 9.41732 5.1486 9.47483 5.04574 9.57711C4.94274 9.67911 4.88574 9.81911 4.88574 9.96411C4.88596 10.1092 4.94346 10.2483 5.04574 10.3511C5.14774 10.4541 5.28774 10.5111 5.43274 10.5111H8.50874C8.65379 10.5109 8.79289 10.4534 8.89574 10.3511C8.99874 10.2491 9.05574 10.1091 9.05574 9.96411C9.05553 9.81905 8.99802 9.67996 8.89574 9.57711C8.79374 9.47411 8.65474 9.41711 8.50974 9.41711Z" fill="#333333"/>
</g>
</g>
</g>
<defs>
<clipPath id="clip0_466_13088">
<rect width="16" height="16" fill="white"/>
</clipPath>
<clipPath id="clip1_466_13088">
<rect width="16" height="16" fill="white"/>
</clipPath>
</defs>
</svg>
