<svg width="18" height="18" viewBox="0 0 18 18" fill="none" xmlns="http://www.w3.org/2000/svg">
<g clip-path="url(#clip0_44_22199)">
<path d="M11.1637 3.33996C10.8434 3.00159 10.3239 3.00159 10.0035 3.33996C9.68313 3.67834 9.68313 4.22696 10.0035 4.56534L13.1578 7.89673H1.67193C1.21884 7.89673 0.851532 8.28466 0.851532 8.7632C0.851532 9.24174 1.21884 9.62967 1.67193 9.62967H13.324L10.0035 13.1366C9.68313 13.475 9.68313 14.0236 10.0035 14.362C10.3239 14.7004 10.8434 14.7004 11.1637 14.362L15.8016 9.46366C16.122 9.12528 16.122 8.57666 15.8016 8.23828L15.7241 8.15638C15.7204 8.15245 15.7167 8.14855 15.713 8.14469L11.1637 3.33996Z" fill="#111111"/>
</g>
<defs>
<clipPath id="clip0_44_22199">
<rect width="18" height="18" fill="white"/>
</clipPath>
</defs>
</svg>
