<svg width="14" height="14" viewBox="0 0 14 14" fill="none" xmlns="http://www.w3.org/2000/svg">
<g clip-path="url(#clip0_15_4023)">
<path d="M0.291626 5.3725L6.5508 12.88C6.60555 12.9455 6.67402 12.9982 6.75138 13.0344C6.82874 13.0706 6.9131 13.0894 6.99851 13.0894C7.08391 13.0894 7.16827 13.0706 7.24563 13.0344C7.323 12.9982 7.39147 12.9455 7.44622 12.88L13.7083 5.3725H0.291626Z" fill="#299ACC"/>
<path d="M10.675 0.997498H3.32496C3.11371 0.997251 2.90635 1.05437 2.72502 1.16276C2.54369 1.27114 2.3952 1.42673 2.29538 1.61292L0.291626 5.3725H13.7083L11.7046 1.61292C11.6047 1.42673 11.4562 1.27114 11.2749 1.16276C11.0936 1.05437 10.8862 0.997251 10.675 0.997498Z" fill="#38B1E7"/>
<path d="M6.44 12.6525L4.375 5.3725H9.625L7.56 12.6642C7.52342 12.785 7.44863 12.8907 7.34686 12.9654C7.2451 13.0401 7.12185 13.0797 6.99562 13.0784C6.8694 13.0771 6.747 13.0349 6.64682 12.9581C6.54663 12.8813 6.47406 12.7741 6.44 12.6525Z" fill="#61C0EA"/>
<path d="M9.62504 5.37249H4.37504L4.08337 0.997498H9.91671L9.62504 5.37249Z" fill="#89D0EF"/>
</g>
<defs>
<clipPath id="clip0_15_4023">
<rect width="14" height="14" fill="white"/>
</clipPath>
</defs>
</svg>
