<svg width="24" height="25" viewBox="0 0 24 25" fill="none" xmlns="http://www.w3.org/2000/svg">
<g clip-path="url(#clip0_2_1403)">
<mask id="mask0_2_1403" style="mask-type:luminance" maskUnits="userSpaceOnUse" x="0" y="0" width="20" height="25">
<path d="M0 0.5H20V24.5H0V0.5Z" fill="white"/>
</mask>
<g mask="url(#mask0_2_1403)">
<mask id="mask1_2_1403" style="mask-type:luminance" maskUnits="userSpaceOnUse" x="-1" y="2" width="20" height="20">
<path d="M-1 2.5H18.305V21.805H-1V2.5Z" fill="white"/>
</mask>
<g mask="url(#mask1_2_1403)">
<path d="M12.1621 7.54401V16.827C12.1621 18.661 10.8201 20.293 8.99512 20.468C6.89812 20.67 5.14313 19.029 5.14313 16.976V6.13201C5.14313 4.98301 5.96812 3.93901 7.10812 3.82401C8.42412 3.69201 9.53012 4.71901 9.53012 6.00901V15.222C9.52933 15.4544 9.43668 15.677 9.27238 15.8413C9.10809 16.0056 8.88548 16.0982 8.65312 16.099C8.42077 16.0982 8.19816 16.0056 8.03387 15.8413C7.86957 15.677 7.77692 15.4544 7.77612 15.222V7.54401C7.77612 7.18401 7.47813 6.88601 7.11812 6.88601C6.75812 6.88601 6.46012 7.18401 6.46012 7.54401V15.098C6.46012 16.247 7.28513 17.291 8.42513 17.405C9.74113 17.537 10.8471 16.51 10.8471 15.22V6.15801C10.8471 4.32401 9.50513 2.69201 7.68012 2.51701C7.19278 2.4693 6.70085 2.52408 6.23595 2.67784C5.77105 2.8316 5.34346 3.08094 4.98067 3.40982C4.61789 3.7387 4.32793 4.13985 4.12944 4.58749C3.93094 5.03512 3.82831 5.51934 3.82812 6.00901V16.775C3.82812 19.293 5.67113 21.548 8.18013 21.785C8.85084 21.8504 9.52783 21.7748 10.1676 21.5629C10.8073 21.3511 11.3956 21.0077 11.8947 20.5549C12.3938 20.102 12.7926 19.5498 13.0655 18.9336C13.3383 18.3174 13.4792 17.6509 13.4791 16.977V7.54401C13.4791 7.18401 13.1811 6.88601 12.8211 6.88601C12.4611 6.88601 12.1631 7.18401 12.1631 7.54401H12.1621Z" fill="#177DE6"/>
</g>
</g>
</g>
<defs>
<clipPath id="clip0_2_1403">
<rect width="20" height="24" fill="white" transform="translate(0 0.5)"/>
</clipPath>
</defs>
</svg>
