<svg width="9" height="15" viewBox="0 0 9 15" fill="none" xmlns="http://www.w3.org/2000/svg">
<path d="M1.16211 0C1.48584 0 1.75146 0.116211 1.96729 0.332031L8.33398 6.54932C8.61621 6.83154 8.75732 7.12207 8.75732 7.479C8.75732 7.83594 8.62451 8.13477 8.33398 8.40869L1.96729 14.6343C1.74316 14.8501 1.47754 14.9663 1.16211 14.9663C0.522949 14.9663 0 14.4517 0 13.8125C0 13.4971 0.132812 13.1982 0.365234 12.9658L6.00977 7.479L0.365234 2.00049C0.132812 1.76807 0 1.46924 0 1.15381C0 0.514648 0.522949 0 1.16211 0Z" fill="#0C7BF5"/>
</svg>
