<svg width="16" height="17" viewBox="0 0 16 17" fill="none" xmlns="http://www.w3.org/2000/svg">
<path d="M0.887703 16.6135L15.9287 8.40948C15.9807 8.38148 15.9807 8.30648 15.9287 8.27748L0.887703 0.0734772C0.781952 0.0156927 0.661252 -0.00890876 0.541321 0.00287665C0.421391 0.0146621 0.307788 0.0622882 0.215308 0.139552C0.122829 0.216817 0.0557578 0.320138 0.022831 0.436061C-0.0100957 0.551984 -0.00735228 0.675136 0.0307036 0.789477L0.650703 2.65048C1.1127 4.03748 1.4017 5.46648 1.5167 6.90648L8.9257 7.91648C9.02792 7.93138 9.12135 7.98258 9.18891 8.06071C9.25648 8.13884 9.29366 8.23868 9.29366 8.34198C9.29366 8.44527 9.25648 8.54511 9.18891 8.62324C9.12135 8.70137 9.02792 8.75257 8.9257 8.76748L1.5167 9.77748C1.40088 11.2259 1.11009 12.655 0.650703 14.0335L0.0307036 15.8945C-0.00735228 16.0088 -0.0100957 16.132 0.022831 16.2479C0.0557578 16.3638 0.122829 16.4671 0.215308 16.5444C0.307788 16.6217 0.421391 16.6693 0.541321 16.6811C0.661252 16.6929 0.781952 16.6683 0.887703 16.6105V16.6135Z" fill="#2196F3"/>
</svg>
