<svg width="12" height="7" viewBox="0 0 12 7" fill="none" xmlns="http://www.w3.org/2000/svg">
<path d="M10.2807 0.280712C10.4693 0.0985537 10.7219 -0.00224062 10.9841 3.78026e-05C11.2463 0.00231622 11.4971 0.107485 11.6825 0.292893C11.8679 0.478301 11.9731 0.729114 11.9754 0.991311C11.9777 1.25351 11.8769 1.50611 11.6947 1.69471L6.69471 6.69471C6.50718 6.88218 6.25288 6.9875 5.98771 6.9875C5.72255 6.9875 5.46824 6.88218 5.28071 6.69471L0.280712 1.69471C0.0985542 1.50611 -0.00224062 1.25351 3.78025e-05 0.991311C0.00231622 0.729114 0.107485 0.478301 0.292894 0.292893C0.478302 0.107485 0.729114 0.00231622 0.991311 3.78026e-05C1.25351 -0.00224062 1.50611 0.0985537 1.69471 0.280712L5.98771 4.57371L10.2807 0.280712Z" fill="black"/>
</svg>
