<svg width="10" height="16" viewBox="0 0 10 16" fill="none" xmlns="http://www.w3.org/2000/svg">
<path d="M1.94336 0.516846C2.26709 0.516846 2.53271 0.633057 2.74854 0.848877L9.11523 7.06616C9.39746 7.34839 9.53857 7.63892 9.53857 7.99585C9.53857 8.35278 9.40576 8.65161 9.11523 8.92554L2.74854 15.1511C2.52441 15.3669 2.25879 15.4832 1.94336 15.4832C1.3042 15.4832 0.78125 14.9685 0.78125 14.3293C0.78125 14.0139 0.914062 13.7151 1.14648 13.4827L6.79102 7.99585L1.14648 2.51733C0.914062 2.28491 0.78125 1.98608 0.78125 1.67065C0.78125 1.03149 1.3042 0.516846 1.94336 0.516846Z" fill="#D7D7D7"/>
</svg>
