<svg width="40" height="40" viewBox="0 0 40 40" fill="none" xmlns="http://www.w3.org/2000/svg">
<g clip-path="url(#clip0_2_1361)">
<path d="M28.1482 11.8518C27.6792 11.3827 26.9188 11.3827 26.4498 11.8518L20 18.3015L13.5502 11.8518C13.0812 11.3827 12.3208 11.3827 11.8518 11.8518C11.3827 12.3208 11.3827 13.0812 11.8518 13.5502L18.3015 20L11.8518 26.4498C11.3827 26.9188 11.3827 27.6792 11.8518 28.1482C12.3208 28.6173 13.0812 28.6173 13.5502 28.1482L20 21.6985L26.4498 28.1482C26.9188 28.6173 27.6792 28.6173 28.1482 28.1482C28.6173 27.6792 28.6173 26.9188 28.1482 26.4498L21.6985 20L28.1482 13.5502C28.6173 13.0812 28.6173 12.3208 28.1482 11.8518Z" fill="#A3A3A3"/>
</g>
<defs>
<clipPath id="clip0_2_1361">
<rect width="18" height="18" fill="white" transform="translate(11 11)"/>
</clipPath>
</defs>
</svg>
