<svg width="11" height="11" viewBox="0 0 11 11" fill="none" xmlns="http://www.w3.org/2000/svg">
<path d="M10.2463 5.12005C10.2463 5.79561 10.1218 6.45339 9.87294 7.09339C9.62405 7.73339 9.25072 8.30228 8.75294 8.80005C8.11294 9.44005 7.35739 9.87561 6.48627 10.1067C5.61516 10.3378 4.73516 10.3467 3.84627 10.1334C2.95739 9.92005 2.19294 9.49339 1.55294 8.85339C0.806275 8.10672 0.326275 7.21783 0.112941 6.18672C-0.100392 5.15561 -0.0115033 4.16005 0.379608 3.20005C0.770719 2.24005 1.40183 1.46672 2.27294 0.880054C3.14405 0.293386 4.11294 5.34058e-05 5.17961 5.34058e-05C5.21516 5.34058e-05 5.2685 0.0178308 5.33961 0.0533867C5.41072 0.0889425 5.46405 0.124498 5.49961 0.160053C5.53516 0.195609 5.56183 0.248942 5.57961 0.320053C5.59739 0.391165 5.5885 0.462276 5.55294 0.533387C5.51739 0.782276 5.52627 1.03116 5.57961 1.28005C5.63294 1.52894 5.73961 1.75116 5.89961 1.94672C6.05961 2.14228 6.25516 2.30228 6.48627 2.42672C6.71739 2.55116 6.95739 2.61339 7.20627 2.61339C7.3485 2.61339 7.45516 2.65783 7.52627 2.74672C7.59739 2.83561 7.63294 2.93339 7.63294 3.04005C7.63294 3.28894 7.69516 3.52894 7.81961 3.76005C7.94405 3.99117 8.10405 4.18672 8.29961 4.34672C8.49516 4.50672 8.71739 4.62228 8.96627 4.69339C9.21516 4.7645 9.48183 4.7645 9.76627 4.69339C9.80183 4.69339 9.85516 4.69339 9.92627 4.69339C9.99739 4.69339 10.0596 4.72005 10.1129 4.77339C10.1663 4.82672 10.2018 4.88005 10.2196 4.93339C10.2374 4.98672 10.2463 5.04894 10.2463 5.12005ZM6.61961 8.16005C6.79739 8.16005 6.9485 8.09783 7.07294 7.97339C7.19739 7.84894 7.25961 7.69783 7.25961 7.52005C7.25961 7.34228 7.19739 7.19116 7.07294 7.06672C6.9485 6.94228 6.79739 6.88005 6.61961 6.88005C6.44183 6.88005 6.29072 6.94228 6.16627 7.06672C6.04183 7.19116 5.97961 7.34228 5.97961 7.52005C5.97961 7.69783 6.04183 7.84894 6.16627 7.97339C6.29072 8.09783 6.44183 8.16005 6.61961 8.16005ZM3.20627 7.94672C3.31294 7.94672 3.41072 7.90228 3.49961 7.81339C3.5885 7.7245 3.63294 7.61783 3.63294 7.49339C3.63294 7.36894 3.5885 7.27116 3.49961 7.20005C3.41072 7.12894 3.30405 7.09339 3.17961 7.09339C3.05516 7.09339 2.95739 7.12894 2.88627 7.20005C2.81516 7.27116 2.77961 7.36894 2.77961 7.49339C2.77961 7.61783 2.81516 7.7245 2.88627 7.81339C2.95739 7.90228 3.06405 7.94672 3.20627 7.94672ZM2.77961 5.12005C3.06405 5.12005 3.31294 5.02228 3.52627 4.82672C3.73961 4.63117 3.84627 4.38228 3.84627 4.08005C3.84627 3.77783 3.73961 3.52005 3.52627 3.30672C3.31294 3.09339 3.05516 2.98672 2.75294 2.98672C2.45072 2.98672 2.20183 3.09339 2.00627 3.30672C1.81072 3.52005 1.71294 3.77783 1.71294 4.08005C1.71294 4.38228 1.81072 4.63117 2.00627 4.82672C2.20183 5.02228 2.45961 5.12005 2.77961 5.12005ZM5.97961 5.12005C6.15739 5.12005 6.3085 5.05783 6.43294 4.93339C6.55739 4.80894 6.61961 4.65783 6.61961 4.48005C6.61961 4.30228 6.55739 4.15117 6.43294 4.02672C6.3085 3.90228 6.15739 3.84005 5.97961 3.84005C5.80183 3.84005 5.65072 3.90228 5.52627 4.02672C5.40183 4.15117 5.33961 4.30228 5.33961 4.48005C5.33961 4.65783 5.40183 4.80894 5.52627 4.93339C5.65072 5.05783 5.80183 5.12005 5.97961 5.12005Z" fill="white"/>
</svg>
