<svg width="14" height="14" viewBox="0 0 14 14" fill="none" xmlns="http://www.w3.org/2000/svg">
<path d="M4.43286 11.9004H9.4662C10.7233 11.9004 11.3519 11.9004 11.7424 11.5099C12.1329 11.1193 12.1329 10.4908 12.1329 9.23372V4.20039" stroke="#73798C" stroke-width="1.33333"/>
<path d="M10.0333 8.46646C10.0333 9.095 10.0333 9.40927 9.83799 9.60453C9.64273 9.79979 9.32846 9.79979 8.69992 9.79979H3.66659C3.03805 9.79979 2.72378 9.79979 2.52851 9.60453C2.33325 9.40927 2.33325 9.095 2.33325 8.46646V2.03313C2.33325 1.40459 2.33325 1.09032 2.52852 0.895061C2.72378 0.699799 3.03805 0.699799 3.66659 0.699799H8.69992C9.32846 0.699799 9.64273 0.699799 9.83799 0.895061C10.0333 1.09032 10.0333 1.40459 10.0333 2.03313V8.46646Z" fill="#73798C"/>
</svg>
