<?xml version="1.0" encoding="UTF-8"?>
<!DOCTYPE svg PUBLIC "-//W3C//DTD SVG 1.1//EN" "http://www.w3.org/Graphics/SVG/1.1/DTD/svg11.dtd">
<svg xmlns="http://www.w3.org/2000/svg" version="1.1" width="512px" height="512px" style="shape-rendering:geometricPrecision; text-rendering:geometricPrecision; image-rendering:optimizeQuality; fill-rule:evenodd; clip-rule:evenodd" xmlns:xlink="http://www.w3.org/1999/xlink">
<g><path style="opacity:0.989" fill="#eb4f4c" d="M 186.5,49.5 C 184.708,50.3091 182.708,50.8091 180.5,51C 143.299,88.0346 106.299,125.201 69.5,162.5C 66.6433,159.454 64.81,155.787 64,151.5C 61.4398,130.775 69.9398,116.942 89.5,110C 77.3234,98.7861 74.1567,85.2861 80,69.5C 87.6867,54.9015 99.8533,47.9015 116.5,48.5C 139.822,49.4257 163.155,49.7591 186.5,49.5 Z"/></g>
<g><path style="opacity:0.996" fill="#e84b49" d="M 186.5,49.5 C 197.167,49.5 207.833,49.5 218.5,49.5C 162.86,104.473 107.527,159.806 52.5,215.5C 47.2528,200.323 50.5861,187.156 62.5,176C 66.4432,173.196 70.7766,171.196 75.5,170C 72.8823,167.894 70.8823,165.394 69.5,162.5C 106.299,125.201 143.299,88.0346 180.5,51C 182.708,50.8091 184.708,50.3091 186.5,49.5 Z"/></g>
<g><path style="opacity:0.997" fill="#e44846" d="M 218.5,49.5 C 237.424,50.4867 256.424,50.82 275.5,50.5C 274.048,51.3019 272.382,51.8019 270.5,52C 193.965,128.368 117.632,204.868 41.5,281.5C 39.2217,278.603 37.7217,275.27 37,271.5C 34.046,250.886 42.2127,237.052 61.5,230C 57.0172,226.032 54.0172,221.198 52.5,215.5C 107.527,159.806 162.86,104.473 218.5,49.5 Z"/></g>
<g><path style="opacity:0.998" fill="#e14543" d="M 275.5,50.5 C 286.505,50.3335 297.505,50.5002 308.5,51C 310.382,51.1981 312.048,51.6981 313.5,52.5C 312.127,52.3433 310.793,52.51 309.5,53C 227.965,134.368 146.632,215.868 65.5,297.5C 54.7212,296.125 46.7212,290.792 41.5,281.5C 117.632,204.868 193.965,128.368 270.5,52C 272.382,51.8019 274.048,51.3019 275.5,50.5 Z"/></g>
<g><path style="opacity:0.996" fill="#d83b3a" d="M 454.5,51.5 C 421.527,84.1395 388.527,116.806 355.5,149.5C 355.333,122.831 355.5,96.1646 356,69.5C 359.269,60.5636 365.435,54.7303 374.5,52C 401.165,51.5 427.831,51.3334 454.5,51.5 Z"/></g>
<g><path style="opacity:0.999" fill="#de4240" d="M 313.5,52.5 C 324.498,56.1239 330.498,63.7906 331.5,75.5C 330.681,78.3054 330.181,81.3054 330,84.5C 259.167,155.333 188.333,226.167 117.5,297C 111.652,297.173 105.985,297.673 100.5,298.5C 88.7956,298.77 77.1289,298.436 65.5,297.5C 146.632,215.868 227.965,134.368 309.5,53C 310.793,52.51 312.127,52.3433 313.5,52.5 Z"/></g>
<g><path style="opacity:0.998" fill="#d53837" d="M 454.5,51.5 C 463.647,53.9778 469.98,59.6444 473.5,68.5C 434.167,107.5 394.833,146.5 355.5,185.5C 355.5,173.5 355.5,161.5 355.5,149.5C 388.527,116.806 421.527,84.1395 454.5,51.5 Z"/></g>
<g><path style="opacity:0.997" fill="#d23433" d="M 473.5,68.5 C 474.474,86.7867 474.807,105.12 474.5,123.5C 473.673,128.651 473.173,133.984 473,139.5C 433.965,178.701 394.799,217.701 355.5,256.5C 355.5,232.833 355.5,209.167 355.5,185.5C 394.833,146.5 434.167,107.5 473.5,68.5 Z"/></g>
<g><path style="opacity:0.997" fill="#db3f3d" d="M 331.5,75.5 C 331.5,100.5 331.5,125.5 331.5,150.5C 330.67,141.342 330.17,132.009 330,122.5C 271.833,180.667 213.667,238.833 155.5,297C 145.325,297.17 135.325,297.67 125.5,298.5C 117.167,298.5 108.833,298.5 100.5,298.5C 105.985,297.673 111.652,297.173 117.5,297C 188.333,226.167 259.167,155.333 330,84.5C 330.181,81.3054 330.681,78.3054 331.5,75.5 Z"/></g>
<g><path style="opacity:0.988" fill="#d83b3a" d="M 331.5,150.5 C 331.5,163.5 331.5,176.5 331.5,189.5C 330.674,185.018 330.174,180.351 330,175.5C 279.632,226.035 229.132,276.368 178.5,326.5C 181.571,317.295 185.237,308.295 189.5,299.5C 168.177,298.5 146.844,298.167 125.5,298.5C 135.325,297.67 145.325,297.17 155.5,297C 213.667,238.833 271.833,180.667 330,122.5C 330.17,132.009 330.67,141.342 331.5,150.5 Z"/></g>
<g><path style="opacity:1" fill="#cf3130" d="M 474.5,123.5 C 474.5,134.5 474.5,145.5 474.5,156.5C 434.833,195.833 395.167,235.167 355.5,274.5C 355.5,268.5 355.5,262.5 355.5,256.5C 394.799,217.701 433.965,178.701 473,139.5C 473.173,133.984 473.673,128.651 474.5,123.5 Z"/></g>
<g><path style="opacity:0.988" fill="#cc2e2e" d="M 474.5,156.5 C 474.5,180.833 474.5,205.167 474.5,229.5C 451.701,251.798 429.035,274.298 406.5,297C 416.675,297.17 426.675,297.67 436.5,298.5C 415.127,298.93 393.794,298.43 372.5,297C 361.723,293.386 356.056,285.886 355.5,274.5C 395.167,235.167 434.833,195.833 474.5,156.5 Z"/></g>
<g><path style="opacity:0.979" fill="#d53837" d="M 331.5,189.5 C 331.5,216.5 331.5,243.5 331.5,270.5C 330.668,251.004 330.168,231.338 330,211.5C 274.632,267.035 219.132,322.368 163.5,377.5C 166.502,359.81 171.502,342.81 178.5,326.5C 229.132,276.368 279.632,226.035 330,175.5C 330.174,180.351 330.674,185.018 331.5,189.5 Z"/></g>
<g><path style="opacity:0.996" fill="#d23433" d="M 331.5,270.5 C 330.281,280.604 326.114,289.271 319,296.5C 297.829,317.151 275.996,336.984 253.5,356C 244.421,364.397 236.421,373.563 229.5,383.5C 209.833,402.833 190.167,422.167 170.5,441.5C 165.99,433.805 163.157,425.472 162,416.5C 161.036,403.41 161.536,390.41 163.5,377.5C 219.132,322.368 274.632,267.035 330,211.5C 330.168,231.338 330.668,251.004 331.5,270.5 Z"/></g>
<g><path style="opacity:0.992" fill="#c82a2a" d="M 474.5,229.5 C 474.667,245.837 474.5,262.17 474,278.5C 470.717,289.743 463.217,296.243 451.5,298C 446.511,298.499 441.511,298.666 436.5,298.5C 426.675,297.67 416.675,297.17 406.5,297C 429.035,274.298 451.701,251.798 474.5,229.5 Z"/></g>
<g><path style="opacity:0.974" fill="#cd302f" d="M 229.5,383.5 C 228.394,386.054 227.561,388.721 227,391.5C 225.999,410.193 224.666,428.86 223,447.5C 222.529,452.586 220.695,457.086 217.5,461C 197.803,463.724 182.136,457.224 170.5,441.5C 190.167,422.167 209.833,402.833 229.5,383.5 Z"/></g>
</svg>
