<svg width="20" height="20" viewBox="0 0 20 20" fill="none" xmlns="http://www.w3.org/2000/svg">
<g clip-path="url(#clip0_1_986)">
<mask id="mask0_1_986" style="mask-type:luminance" maskUnits="userSpaceOnUse" x="0" y="0" width="20" height="20">
<path d="M19.93 0H0.0436401V19.8864H19.93V0Z" fill="white"/>
</mask>
<g mask="url(#mask0_1_986)">
<path d="M9.94483 19.8828H10.0241C13.9726 19.8828 16.2644 19.4853 17.8878 17.9092C19.5431 16.2374 19.9253 13.9301 19.9253 9.99703V9.88581C19.9253 5.95396 19.5431 3.66207 17.8878 1.97361C16.2656 0.397562 13.9572 0 10.0253 0H9.94601C5.99761 0 3.70452 0.397562 2.08115 1.97361C0.425821 3.6455 0.0436401 5.95396 0.0436401 9.88581V9.99703C0.0436401 13.9289 0.425821 16.2208 2.08115 17.9092C3.68915 19.4853 5.99761 19.8828 9.94483 19.8828Z" fill="#B5B6BA"/>
<path d="M17.5585 9.79066C17.5585 9.71494 17.4969 9.65225 17.4212 9.64869C14.7037 9.54576 13.0498 9.19913 11.8928 8.04209C10.7334 6.8827 10.3879 5.22758 10.285 2.50417C10.2826 2.42846 10.2199 2.36694 10.143 2.36694H9.82595C9.75024 2.36694 9.68753 2.42846 9.68399 2.50417C9.58106 5.2264 9.2356 6.8827 8.0762 8.04209C6.91799 9.20032 5.26524 9.54576 2.54775 9.64869C2.47204 9.65106 2.41052 9.71376 2.41052 9.79066V10.1077C2.41052 10.1834 2.47204 10.2461 2.54775 10.2497C5.26524 10.3526 6.91916 10.6993 8.0762 11.8563C9.23323 13.0133 9.57869 14.6637 9.68281 17.3764C9.68516 17.4522 9.74787 17.5137 9.82477 17.5137H10.143C10.2187 17.5137 10.2814 17.4522 10.285 17.3764C10.3891 14.6637 10.7345 13.0133 11.8916 11.8563C13.0498 10.6981 14.7025 10.3526 17.42 10.2497C17.4958 10.2473 17.5573 10.1846 17.5573 10.1077V9.79066H17.5585Z" fill="white"/>
</g>
</g>
<defs>
<clipPath id="clip0_1_986">
<rect width="20" height="20" fill="white"/>
</clipPath>
</defs>
</svg>
