<svg width="15" height="16" viewBox="0 0 15 16" fill="none" xmlns="http://www.w3.org/2000/svg">
<g clip-path="url(#clip0_1_1806)">
<g clip-path="url(#clip1_1_1806)">
<g clip-path="url(#clip2_1_1806)">
<path fill-rule="evenodd" clip-rule="evenodd" d="M7.52444 15.5C4.64632 15.5 2.30444 13.1469 2.30444 10.2519C2.30444 8.24 3.76319 5.74719 5.12632 4.32125C4.80757 5.67406 4.72038 7.10562 5.66726 8.23625C5.60913 7.17687 5.71788 6.15688 5.99163 5.19125C6.27851 4.17875 6.73976 3.24594 7.36038 2.41625C8.30163 1.16375 9.57194 0.5 10.8151 0.5C9.96569 0.879687 9.26257 1.89688 9.26257 2.82781C9.26257 3.86375 9.89819 4.60906 10.6341 5.45094C11.1057 5.99656 11.641 6.61531 12.046 7.37563C12.5148 8.255 12.7426 9.19625 12.7426 10.2519C12.7426 13.1459 10.4007 15.5019 7.52257 15.5019L7.52444 15.5ZM3.17444 10.2519C3.17444 9.19625 3.54288 8.47062 4.00882 7.53031L4.01819 7.51156L4.17569 7.19656C4.55069 8.52031 5.48819 9.36031 6.74444 9.87969L6.63007 9.12031C6.23819 6.52344 6.97694 4.64094 7.66319 3.51969C7.88221 3.16155 8.1319 2.82309 8.40944 2.50813C8.39819 2.615 8.39257 2.72375 8.39257 2.83156C8.39257 4.19094 9.16132 5.08156 9.97694 6.02375C10.9098 7.10188 11.8735 8.2175 11.8735 10.2556C11.8735 12.6697 9.92351 14.6337 7.52351 14.6337C5.12351 14.6337 3.17351 12.6697 3.17351 10.2556L3.17444 10.2519Z" fill="#FF7600"/>
</g>
</g>
</g>
<defs>
<clipPath id="clip0_1_1806">
<rect width="15" height="15" fill="white" transform="translate(0 0.5)"/>
</clipPath>
<clipPath id="clip1_1_1806">
<rect width="15" height="15" fill="white" transform="translate(0 0.5)"/>
</clipPath>
<clipPath id="clip2_1_1806">
<rect width="12.1875" height="15" fill="white" transform="translate(1.40625 0.5)"/>
</clipPath>
</defs>
</svg>
