<svg width="18" height="23" viewBox="0 0 18 23" fill="none" xmlns="http://www.w3.org/2000/svg">
<path d="M9 0.599976L0 4.59998V10.6C0 16.15 3.84 21.34 9 22.6C14.16 21.34 18 16.15 18 10.6V4.59998L9 0.599976Z" fill="#77C226"/>
<path d="M9 12.07C12.29 12.07 15 13.39 15 15.07C14.76 15.6 14.47 16.1 14.13 16.6C12.9184 18.4546 11.1078 19.8381 9 20.52C6.89217 19.8381 5.08162 18.4546 3.87 16.6C3.53 16.1 3.24 15.6 3 15.07C3 13.42 5.71 12.07 9 12.07ZM9 4.59998C9.79565 4.59998 10.5587 4.91605 11.1213 5.47866C11.6839 6.04126 12 6.80433 12 7.59998C12 8.39563 11.6839 9.15869 11.1213 9.7213C10.5587 10.2839 9.79565 10.6 9 10.6C8.20435 10.6 7.44129 10.2839 6.87868 9.7213C6.31607 9.15869 6 8.39563 6 7.59998C6 6.80433 6.31607 6.04126 6.87868 5.47866C7.44129 4.91605 8.20435 4.59998 9 4.59998Z" fill="white"/>
</svg>
