<svg width="72" height="72" viewBox="0 0 72 72" fill="none" xmlns="http://www.w3.org/2000/svg">
<g clip-path="url(#clip0_487_3694)">
<g clip-path="url(#clip1_487_3694)">
<path fill-rule="evenodd" clip-rule="evenodd" d="M69 36C69 54.2254 54.2254 69 36 69C17.7746 69 3 54.2254 3 36C3 17.7746 17.7746 3 36 3C54.2254 3 69 17.7746 69 36ZM72 36C72 55.8823 55.8823 72 36 72C16.1177 72 0 55.8823 0 36C0 16.1177 16.1177 0 36 0C55.8823 0 72 16.1177 72 36ZM31.2615 43.7385C31.924 44.4009 32.9471 44.483 33.6989 43.9848C33.8055 43.9142 33.9066 43.832 34.0004 43.7381L34.0153 43.7231L47.4329 30.3055C48.189 29.5494 48.189 28.3233 47.4329 27.5671C46.6767 26.811 45.4506 26.811 44.6945 27.5671L32.6311 39.6305L27.3055 34.3049C26.5494 33.5487 25.3233 33.5487 24.5671 34.3049C23.811 35.0611 23.811 36.2871 24.5671 37.0433L31.2288 43.7049C31.2395 43.7162 31.2505 43.7274 31.2615 43.7385Z" fill="#009900"/>
</g>
</g>
<defs>
<clipPath id="clip0_487_3694">
<rect width="72" height="72" fill="white"/>
</clipPath>
<clipPath id="clip1_487_3694">
<rect width="72" height="72" fill="white"/>
</clipPath>
</defs>
</svg>
