<svg width="16" height="17" viewBox="0 0 16 17" fill="none" xmlns="http://www.w3.org/2000/svg">
<path d="M0 6.97998V14.98C0 15.5322 0.447693 15.98 1 15.98H4V5.97998H1C0.447693 5.97998 0 6.42767 0 6.97998Z" fill="#27AE60"/>
<path d="M14.1533 6.97967H11.1992C10.9409 6.97967 10.8115 6.8073 10.7681 6.73308C10.7246 6.65935 10.6367 6.46258 10.7617 6.23699L11.8032 4.3615C12.0317 3.95086 12.0552 3.46795 11.8682 3.03679C11.6812 2.60515 11.312 2.29216 10.8555 2.17839L10.1211 1.9948C9.94238 1.94988 9.75292 2.00701 9.62841 2.14519L5.64111 6.57488C5.22754 7.03533 5 7.62908 5 8.24724V13.4797C5 14.8581 6.12158 15.9797 7.5 15.9797L12.4741 15.9792C13.5972 15.9792 14.5889 15.2228 14.8852 14.1403L15.9526 9.24186C15.9839 9.10563 16 8.96598 16 8.82633C16 7.80826 15.1714 6.97965 14.1533 6.97965L14.1533 6.97967Z" fill="#27AE60"/>
</svg>
