<svg width="18" height="18" viewBox="0 0 18 18" fill="none" xmlns="http://www.w3.org/2000/svg">
<g clip-path="url(#clip0_640_80838)">
<path d="M6.249 10.701L8.48 9.028V5.62C8.48 5.45557 8.54532 5.29787 8.66159 5.18159C8.77787 5.06532 8.93557 5 9.1 5C9.26443 5 9.42213 5.06532 9.53841 5.18159C9.65468 5.29787 9.72 5.45557 9.72 5.62V9.338C9.72 9.43425 9.69759 9.52918 9.65454 9.61527C9.6115 9.70136 9.549 9.77625 9.472 9.834L6.993 11.693C6.881 11.777 6.751 11.817 6.622 11.817C6.433 11.817 6.247 11.732 6.126 11.569C6.02765 11.4375 5.98548 11.2724 6.00872 11.1099C6.03197 10.9473 6.11874 10.8006 6.25 10.702L6.249 10.701ZM8 1C5.87908 1.00265 3.84579 1.84635 2.34607 3.34607C0.846351 4.84579 0.00264619 6.87908 0 9C0.00264619 11.1209 0.846351 13.1542 2.34607 14.6539C3.84579 16.1536 5.87908 16.9974 8 17C10.1209 16.9974 12.1542 16.1536 13.6539 14.6539C15.1536 13.1542 15.9974 11.1209 16 9C15.9974 6.87908 15.1536 4.84579 13.6539 3.34607C12.1542 1.84635 10.1209 1.00265 8 1ZM8 15.761C6.2076 15.7586 4.4893 15.0455 3.22188 13.7781C1.95446 12.5107 1.24138 10.7924 1.239 9C1.24138 7.2076 1.95446 5.4893 3.22188 4.22188C4.4893 2.95446 6.2076 2.24138 8 2.239C9.7924 2.24138 11.5107 2.95446 12.7781 4.22188C14.0455 5.4893 14.7586 7.2076 14.761 9C14.7586 10.7924 14.0455 12.5107 12.7781 13.7781C11.5107 15.0455 9.7924 15.7586 8 15.761Z" fill="#8A8A8A"/>
</g>
<defs>
<clipPath id="clip0_640_80838">
<rect width="16" height="16" fill="white" transform="translate(0 1)"/>
</clipPath>
</defs>
</svg>
