<?xml version="1.0" standalone="no"?>
<!DOCTYPE svg PUBLIC "-//W3C//DTD SVG 20010904//EN"
 "http://www.w3.org/TR/2001/REC-SVG-20010904/DTD/svg10.dtd">
<svg version="1.0" xmlns="http://www.w3.org/2000/svg"
 width="512.000000pt" height="512.000000pt" viewBox="0 0 512.000000 512.000000"
 preserveAspectRatio="xMidYMid meet">

<g transform="translate(0.000000,512.000000) scale(0.100000,-0.100000)"
fill="#8A8A8A" stroke="none">
<path d="M710 4484 c-107 -46 -159 -174 -115 -282 19 -45 3436 -3469 3500
-3507 54 -32 106 -40 159 -25 128 35 196 183 138 295 -31 59 -3476 3500 -3524
3520 -47 19 -113 19 -158 -1z"/>
<path d="M2957 4485 c-20 -8 -267 -170 -548 -362 l-510 -347 150 -150 149
-149 307 202 c168 110 308 201 311 201 2 0 4 -231 4 -513 l0 -512 210 -210
210 -210 0 955 c0 907 -1 957 -19 995 -45 97 -156 139 -264 100z"/>
<path d="M3943 4081 c-76 -19 -114 -67 -133 -167 -10 -49 -9 -74 0 -114 11
-47 20 -58 110 -135 270 -234 437 -519 496 -845 23 -127 23 -346 0 -463 -44
-228 -158 -469 -304 -644 -29 -34 -52 -66 -52 -70 0 -5 65 -73 145 -153 l144
-144 27 24 c44 41 170 214 228 312 123 210 203 444 242 708 21 145 14 379 -15
522 -78 384 -288 749 -597 1036 -49 46 -107 94 -129 107 -45 27 -115 38 -162
26z"/>
<path d="M400 3488 c-51 -14 -100 -55 -121 -102 -18 -39 -19 -81 -19 -836 0
-750 1 -797 19 -835 22 -50 69 -91 119 -105 23 -6 240 -10 588 -10 l550 0 690
-473 c379 -261 708 -481 732 -490 109 -43 223 2 267 105 12 30 15 80 15 245
l0 208 -210 210 -210 209 -2 -177 -3 -178 -150 104 c-694 478 -954 652 -996
668 -45 18 -85 19 -519 19 l-470 0 0 510 0 510 342 0 343 0 -215 215 -215 215
-250 -1 c-137 0 -266 -5 -285 -11z"/>
<path d="M3580 3389 c-14 -6 -40 -24 -58 -42 -100 -95 -99 -232 3 -327 40 -38
90 -126 121 -215 26 -73 28 -92 28 -220 -1 -123 -4 -151 -28 -230 -15 -49 -44
-125 -65 -167 l-38 -76 146 -146 c81 -80 149 -146 152 -146 11 0 76 104 117
186 70 141 105 267 121 434 24 253 -41 534 -175 760 -92 155 -149 201 -246
199 -29 0 -64 -5 -78 -10z"/>
</g>
</svg>
