<svg width="20" height="20" viewBox="0 0 20 20" fill="none" xmlns="http://www.w3.org/2000/svg">
<path d="M10.823 0.525561C10.7501 0.368783 10.6339 0.236092 10.4882 0.143111C10.3424 0.0501309 10.1731 0.000732422 10.0002 0.000732422C9.82734 0.000732422 9.65806 0.0501309 9.5123 0.143111C9.36654 0.236092 9.25038 0.368783 9.17751 0.525561L6.73296 5.50374C6.66946 5.63682 6.57514 5.75284 6.45783 5.84217C6.34052 5.9315 6.20359 5.99156 6.05841 6.01738L0.778415 6.91102C0.0347783 7.03738 -0.260676 7.99102 0.269324 8.5492L4.03932 12.5201C4.2466 12.7383 4.34205 13.0474 4.2966 13.351L3.47841 18.8819C3.36296 19.6601 4.13751 20.2492 4.80932 19.8937L9.58296 17.3701C9.71149 17.302 9.85476 17.2663 10.0002 17.2663C10.1457 17.2663 10.289 17.302 10.4175 17.3701L15.1902 19.8937C15.863 20.2492 16.6375 19.6601 16.5221 18.8819L15.7039 13.351C15.6584 13.0465 15.7539 12.7383 15.9611 12.5201L19.7302 8.5492C20.2611 7.99011 19.9657 7.03738 19.2211 6.91102L13.9421 6.01738C13.7969 5.99156 13.66 5.9315 13.5426 5.84217C13.4253 5.75284 13.331 5.63682 13.2675 5.50374L10.823 0.525561Z" fill="url(#paint0_linear_670_111438)"/>
<defs>
<linearGradient id="paint0_linear_670_111438" x1="0" y1="0.000732422" x2="20.0002" y2="0.000732422" gradientUnits="userSpaceOnUse">
<stop offset="0.3" stop-color="#FFCD5C"/>
<stop offset="0.7" stop-color="#CCCCCC"/>
</linearGradient>
</defs>
</svg>
