<svg width="14" height="16" viewBox="0 0 14 16" fill="none" xmlns="http://www.w3.org/2000/svg">
<path d="M0 10.513C0 11.188 0.128 11.808 0.385 12.373C0.641 12.937 0.992 13.387 1.437 13.725C1.882 14.062 2.386 14.231 2.948 14.231H4.156C3.56975 13.8117 3.10611 13.2434 2.813 12.585C2.52098 11.9107 2.38067 11.1805 2.402 10.446C2.40432 9.9231 2.47458 9.40274 2.611 8.89797C2.82321 8.12253 3.19063 7.39824 3.691 6.76897H2.699C2.19 6.76897 1.733 6.93597 1.326 7.26897C0.919 7.60097 0.596 8.05097 0.358 8.61797C0.119 9.18397 0 9.81597 0 10.513ZM11.32 14.73C11.582 14.667 11.822 14.547 12.043 14.37C12.263 14.192 12.373 13.94 12.373 13.617C12.3776 13.4056 12.3214 13.1973 12.211 13.017C12.157 12.927 12.168 12.864 12.245 12.827C12.4585 12.7312 12.6468 12.587 12.795 12.406C12.95 12.219 13.028 11.989 13.028 11.714C13.028 11.399 12.948 11.141 12.791 10.938C12.711 10.835 12.731 10.75 12.852 10.682C13.0128 10.5882 13.142 10.4486 13.223 10.281C13.318 10.099 13.365 9.89497 13.365 9.67097C13.365 9.51297 13.34 9.35797 13.291 9.20497C13.2519 9.06864 13.1774 8.94511 13.075 8.84697C12.989 8.76697 13.003 8.68097 13.115 8.59097C13.34 8.41497 13.453 8.12297 13.453 7.71397C13.453 7.38497 13.339 7.10397 13.112 6.86997C13.0041 6.75635 12.8736 6.66652 12.729 6.60625C12.5843 6.54598 12.4287 6.51659 12.272 6.51997H9.863C9.558 6.51997 9.311 6.44497 9.125 6.29697C9.03457 6.22726 8.96202 6.13704 8.91334 6.03375C8.86465 5.93047 8.84123 5.81709 8.845 5.70297C8.845 5.46897 8.902 5.19697 9.017 4.88697C9.131 4.57697 9.264 4.24797 9.415 3.90197C9.565 3.55597 9.699 3.20897 9.816 2.86197C9.933 2.51697 9.992 2.19197 9.992 1.89197C9.992 1.57697 9.901 1.32997 9.718 1.15197C9.62981 1.06505 9.52507 0.996711 9.40998 0.951019C9.29489 0.905327 9.1718 0.883208 9.048 0.885973C8.804 0.885973 8.611 0.963973 8.467 1.11897C8.30153 1.30567 8.16102 1.51307 8.049 1.73597C7.72616 2.38008 7.36103 3.00211 6.956 3.59797C6.56 4.17797 6.163 4.72397 5.765 5.23397C5.367 5.74397 4.995 6.22897 4.648 6.68797C4.37506 7.04918 4.13161 7.43174 3.92 7.83197C3.726 8.20197 3.58 8.59997 3.481 9.02197C3.37608 9.49622 3.32178 9.98026 3.319 10.466C3.315 11.086 3.431 11.664 3.667 12.196C3.903 12.73 4.247 13.196 4.699 13.596C5.151 13.996 5.695 14.309 6.332 14.534C6.968 14.759 7.682 14.874 8.474 14.879L9.411 14.885C9.852 14.89 10.233 14.877 10.555 14.848C10.877 14.818 11.132 14.78 11.321 14.73H11.32Z" fill="#666666"/>
</svg>
