<svg width="20" height="18" viewBox="0 0 20 18" fill="none" xmlns="http://www.w3.org/2000/svg">
<g clip-path="url(#clip0_640_82915)">
<path d="M14.83 4.68005C12.031 4.68005 10.635 6.76205 9.403 8.59905C8.221 10.3601 7.201 11.8801 5.17 11.8801C3.665 11.8801 2.44 10.5881 2.44 9.00005C2.44 7.41205 3.664 6.12005 5.169 6.12005C6.091 6.12005 6.855 6.42405 7.575 7.08005C7.74121 7.2301 7.89785 7.39041 8.044 7.56005C8.16905 7.7046 8.3464 7.79354 8.53703 7.80733C8.72766 7.82111 8.91596 7.7586 9.0605 7.63355C9.20504 7.5085 9.29399 7.33116 9.30777 7.14053C9.32156 6.9499 9.25905 6.7616 9.134 6.61705C8.946 6.40105 8.745 6.19505 8.541 6.01205C7.556 5.11505 6.453 4.68005 5.17 4.68005C2.871 4.68005 1 6.61705 1 9.00005C1 11.3831 2.871 13.3201 5.17 13.3201C7.969 13.3201 9.365 11.2381 10.597 9.40105C11.779 7.64005 12.799 6.12005 14.83 6.12005C16.336 6.12005 17.56 7.41205 17.56 9.00005C17.56 10.5881 16.336 11.8801 14.831 11.8801C13.909 11.8801 13.145 11.5761 12.425 10.9201C12.261 10.7721 12.103 10.6101 11.956 10.4401C11.8941 10.3685 11.8188 10.3098 11.7343 10.2673C11.6497 10.2249 11.5577 10.1995 11.4633 10.1926C11.369 10.1858 11.2742 10.1975 11.1844 10.2273C11.0946 10.2571 11.0116 10.3042 10.94 10.3661C10.8684 10.4279 10.8097 10.5033 10.7673 10.5878C10.7248 10.6723 10.6995 10.7644 10.6926 10.8587C10.6857 10.9531 10.6975 11.0478 10.7272 11.1376C10.757 11.2274 10.8041 11.3105 10.866 11.3821C11.051 11.5958 11.249 11.7978 11.459 11.9871C12.444 12.8841 13.546 13.3191 14.829 13.3191C17.129 13.3201 19 11.3821 19 9.00005C19 6.61805 17.129 4.68005 14.83 4.68005Z" fill="black"/>
</g>
<defs>
<clipPath id="clip0_640_82915">
<rect width="18" height="10" fill="white" transform="translate(1 4)"/>
</clipPath>
</defs>
</svg>
