<svg width="32" height="32" viewBox="0 0 32 32" fill="none" xmlns="http://www.w3.org/2000/svg">
<path d="M0 16C0 7.16344 7.16344 0 16 0C24.8366 0 32 7.16344 32 16C32 24.8366 24.8366 32 16 32C7.16344 32 0 24.8366 0 16Z" fill="#F7F7F7"/>
<path d="M16.5738 10.5267L16 11.1432L15.4262 10.5267C13.8417 8.82443 11.2728 8.82443 9.68835 10.5267C8.10388 12.229 8.10388 14.989 9.68835 16.6912L14.8524 22.2393C15.4862 22.9202 16.5138 22.9202 17.1476 22.2393L22.3116 16.6912C23.8961 14.989 23.8961 12.229 22.3116 10.5267C20.7272 8.82443 18.1583 8.82443 16.5738 10.5267Z" stroke="#0A0614" stroke-width="1.5" stroke-linejoin="round"/>
</svg>
