<svg width="40" height="40" viewBox="0 0 40 40" fill="none" xmlns="http://www.w3.org/2000/svg">
<path d="M20 40C31.0457 40 40 31.0457 40 20C40 8.9543 31.0457 0 20 0C8.9543 0 0 8.9543 0 20C0 31.0457 8.9543 40 20 40Z" fill="url(#paint0_linear_2_1560)"/>
<path d="M25.0665 21.9687H19.672C19.5283 21.9696 19.3867 21.9344 19.2601 21.8663C19.1335 21.7983 19.026 21.6996 18.9475 21.5793C18.8689 21.459 18.8218 21.3209 18.8103 21.1777C18.7989 21.0344 18.8236 20.8906 18.8821 20.7594L24.1228 8.79765C24.1901 8.6442 24.3006 8.51367 24.4409 8.42197C24.5811 8.33027 24.745 8.28137 24.9126 8.28124H30.3071C30.4509 8.28028 30.5926 8.31539 30.7193 8.38337C30.8459 8.45135 30.9535 8.55002 31.0322 8.67035C31.1109 8.79068 31.1581 8.92882 31.1695 9.07213C31.181 9.21543 31.1563 9.35932 31.0978 9.49061L25.8595 21.4515C25.7925 21.6059 25.6816 21.7372 25.5406 21.8292C25.3997 21.9211 25.2348 21.9697 25.0665 21.9687Z" fill="url(#paint1_linear_2_1560)"/>
<path d="M14.9339 21.9688H20.3245C20.4682 21.9696 20.6098 21.9344 20.7364 21.8663C20.8629 21.7983 20.9704 21.6996 21.049 21.5793C21.1276 21.459 21.1747 21.3209 21.1861 21.1777C21.1976 21.0344 21.1729 20.8906 21.1143 20.7594L15.8776 8.79766C15.8103 8.64421 15.6998 8.51368 15.5595 8.42198C15.4193 8.33028 15.2554 8.28138 15.0878 8.28125H9.69325C9.54983 8.28094 9.4086 8.31654 9.28245 8.38479C9.15631 8.45305 9.04925 8.55179 8.97104 8.67201C8.89283 8.79224 8.84595 8.93013 8.83469 9.07312C8.82342 9.2161 8.84812 9.35963 8.90653 9.49063L14.1409 21.4516C14.2079 21.6059 14.3188 21.7373 14.4598 21.8292C14.6007 21.9211 14.7656 21.9697 14.9339 21.9688Z" fill="url(#paint2_linear_2_1560)"/>
<path d="M20 31.7188C24.6772 31.7188 28.4688 27.9272 28.4688 23.25C28.4688 18.5728 24.6772 14.7812 20 14.7812C15.3228 14.7812 11.5312 18.5728 11.5312 23.25C11.5312 27.9272 15.3228 31.7188 20 31.7188Z" fill="url(#paint3_linear_2_1560)"/>
<path d="M20.7027 18.768L21.8621 21.118L24.4558 21.4945C24.6011 21.5158 24.7376 21.5772 24.8498 21.672C24.9621 21.7667 25.0456 21.8909 25.0909 22.0306C25.1363 22.1703 25.1416 22.3199 25.1064 22.4625C25.0712 22.6051 24.9969 22.735 24.8917 22.8375L23.0167 24.6664L23.4597 27.2492C23.4844 27.394 23.4681 27.5427 23.4127 27.6787C23.3573 27.8146 23.265 27.9324 23.1462 28.0187C23.0274 28.105 22.8869 28.1564 22.7405 28.167C22.594 28.1776 22.4475 28.1471 22.3175 28.0789L19.9996 26.8594L17.68 28.0789C17.55 28.1471 17.4035 28.1776 17.2571 28.167C17.1107 28.1564 16.9701 28.105 16.8513 28.0187C16.7325 27.9324 16.6402 27.8146 16.5848 27.6787C16.5294 27.5427 16.5132 27.394 16.5378 27.2492L16.9808 24.6664L15.1058 22.8375C15.0007 22.735 14.9263 22.6051 14.8911 22.4625C14.8559 22.3199 14.8613 22.1703 14.9066 22.0306C14.952 21.8909 15.0355 21.7667 15.1477 21.672C15.2599 21.5772 15.3964 21.5158 15.5417 21.4945L18.1355 21.118L19.2964 18.768C19.3621 18.6378 19.4626 18.5284 19.5867 18.452C19.7109 18.3756 19.8538 18.3351 19.9996 18.3351C20.1453 18.3351 20.2883 18.3756 20.4124 18.452C20.5365 18.5284 20.637 18.6378 20.7027 18.768Z" fill="url(#paint4_linear_2_1560)"/>
<defs>
<linearGradient id="paint0_linear_2_1560" x1="5.85781" y1="5.85781" x2="34.1422" y2="34.1422" gradientUnits="userSpaceOnUse">
<stop stop-color="#AE71FD"/>
<stop offset="1" stop-color="#974DF5"/>
</linearGradient>
<linearGradient id="paint1_linear_2_1560" x1="21.3509" y1="11.4859" x2="28.629" y2="18.7641" gradientUnits="userSpaceOnUse">
<stop stop-color="#FD7F60"/>
<stop offset="1" stop-color="#FA262A"/>
</linearGradient>
<linearGradient id="paint2_linear_2_1560" x1="8.75107" y1="8.86563" x2="21.2698" y2="21.3844" gradientUnits="userSpaceOnUse">
<stop stop-color="#FD7F60"/>
<stop offset="1" stop-color="#FA262A"/>
</linearGradient>
<linearGradient id="paint3_linear_2_1560" x1="14.0117" y1="17.2617" x2="25.9883" y2="29.2383" gradientUnits="userSpaceOnUse">
<stop stop-color="#F8DA30"/>
<stop offset="1" stop-color="#FDAB22"/>
</linearGradient>
<linearGradient id="paint4_linear_2_1560" x1="16.4074" y1="20.4047" x2="23.5917" y2="27.5898" gradientUnits="userSpaceOnUse">
<stop stop-color="#FEF8D7"/>
<stop offset="1" stop-color="#FDE670"/>
</linearGradient>
</defs>
</svg>
