<svg width="40" height="40" viewBox="0 0 40 40" fill="none" xmlns="http://www.w3.org/2000/svg">
<g clip-path="url(#clip0_2_1527)">
<path d="M19.9998 40.0002C31.0454 40.0002 39.9997 31.046 39.9997 20.0004C39.9997 8.95475 31.0454 0.000518799 19.9998 0.000518799C8.95423 0.000518799 0 8.95475 0 20.0004C0 31.046 8.95423 40.0002 19.9998 40.0002Z" fill="#5C5560"/>
<path d="M40.0007 20.0006C40.0007 27.9859 35.3207 34.8781 28.5543 38.0837C26.7298 38.9482 24.7543 39.545 22.6775 39.8225C21.8016 39.9401 20.9078 40.0005 20.0008 40.0005C16.9396 40.0005 14.04 39.3131 11.4466 38.0837C4.68012 34.8773 0.000976562 27.9859 0.000976562 20.0005C0.000976562 8.95492 8.95519 0.000701904 20.0008 0.000701904C31.0464 0.000701904 40.0007 8.95492 40.0007 20.0006Z" fill="#4083F7"/>
<path d="M28.5539 38.0832C25.9605 39.3126 23.0609 39.9999 20.0005 39.9999C16.9393 39.9999 14.0397 39.3126 11.4463 38.0832C11.8055 36.9273 12.8846 36.0873 14.1581 36.0873H17.4936V31.3183H22.3841V36.0873H25.8421C27.1164 36.0873 28.1948 36.9273 28.5539 38.0832Z" fill="#C0C3C8"/>
<path d="M2.88184 13.1002V18.5058C2.88184 23.4884 6.92176 27.5283 11.9043 27.5283H28.0956C33.0782 27.5283 37.1181 23.4884 37.1181 18.5058V13.1002H2.88184ZM33.6943 19.3336C33.6943 22.0358 30.4627 24.227 26.4766 24.227H13.5232C9.53707 24.227 6.30543 22.0359 6.30543 19.3336V16.4016H33.6943V19.3336Z" fill="#C0C3C8"/>
<path d="M6.30551 16.4015V19.3336C6.30551 22.0358 9.53715 24.2269 13.5232 24.2269H15.5982V27.5283H11.9043C6.92176 27.5283 2.88184 23.4884 2.88184 18.5058V13.1002H15.5981V16.4016L6.30551 16.4015Z" fill="#DBDDDC"/>
<path d="M21.1608 32.7859H18.716C13.3474 32.7859 8.99512 28.4338 8.99512 23.065V9.43204H30.8818V23.065C30.8817 28.4338 26.5295 32.7859 21.1608 32.7859Z" fill="#EFEFEF"/>
<path d="M19.939 13.8745L21.5425 18.8096H26.7315L22.5335 21.8596L24.1369 26.7946L19.939 23.7446L15.7409 26.7946L17.3444 21.8596L13.1465 18.8096H18.3355L19.939 13.8745Z" fill="#3D6EDB"/>
<path d="M37.1185 13.1002V15.6679L34.5508 13.1002H37.1185Z" fill="#DBDDDC"/>
<path d="M22.6772 39.822C21.8013 39.9395 20.9075 39.9999 20.0005 39.9999C16.9393 39.9999 14.0397 39.3126 11.4463 38.0832C11.8055 36.9273 12.8846 36.0873 14.1581 36.0873H17.4936V34.6383L22.6772 39.822Z" fill="#DBDDDC"/>
</g>
<defs>
<clipPath id="clip0_2_1527">
<rect width="40" height="40" fill="white"/>
</clipPath>
</defs>
</svg>
