<svg width="40" height="40" viewBox="0 0 40 40" fill="none" xmlns="http://www.w3.org/2000/svg">
<g clip-path="url(#clip0_2_1539)">
<path d="M20 40C31.0457 40 40 31.0457 40 20C40 8.9543 31.0457 0 20 0C8.9543 0 0 8.9543 0 20C0 31.0457 8.9543 40 20 40Z" fill="#0081FF"/>
<path d="M39.9998 20C39.9998 19.2367 39.9555 18.4838 39.8723 17.7428L27.8467 5.71719L9.12172 11.6029L8.61719 17.9702L18.4455 27.7985V31.9391L12.153 34.2828L17.7427 39.8725C18.4837 39.9557 19.2366 40 19.9998 40C31.0455 40 39.9998 31.0457 39.9998 20Z" fill="#005FE0"/>
<path d="M12.2159 19.3782H12.0906C9.33531 19.3782 7.09375 17.1367 7.09375 14.3813V14.256C7.09375 11.5007 9.33531 9.25916 12.0906 9.25916H12.2159C14.9713 9.25916 17.2128 11.5007 17.2128 14.256V14.3813C17.2128 17.1367 14.9713 19.3782 12.2159 19.3782ZM12.0906 11.6029C10.6277 11.6029 9.4375 12.7931 9.4375 14.256V14.3813C9.4375 15.8443 10.6277 17.0345 12.0906 17.0345H12.2159C13.6789 17.0345 14.8691 15.8443 14.8691 14.3813V14.256C14.8691 12.7931 13.6789 11.6029 12.2159 11.6029H12.0906Z" fill="#FF7C48"/>
<path d="M27.9093 19.3782H27.784C25.0287 19.3782 22.7871 17.1367 22.7871 14.3813V14.256C22.7871 11.5007 25.0287 9.25916 27.784 9.25916H27.9093C30.6646 9.25916 32.9062 11.5007 32.9062 14.256V14.3813C32.9062 17.1367 30.6646 19.3782 27.9093 19.3782ZM27.784 11.6029C26.321 11.6029 25.1309 12.7931 25.1309 14.256V14.3813C25.1309 15.8443 26.321 17.0345 27.784 17.0345H27.9093C29.3723 17.0345 30.5624 15.8443 30.5624 14.3813V14.256C30.5624 12.7931 29.3723 11.6029 27.9093 11.6029H27.784Z" fill="#FF4C04"/>
<path d="M17.6562 29.9047H20L20.7812 26.913L20 23.2297H17.6562V29.9047Z" fill="#FF7C48"/>
<path d="M20 23.2297H22.3438V29.9047H20V23.2297Z" fill="#FF4C04"/>
<path d="M12.1533 34.2828H20.0002L20.7814 31.9391L20.0002 29.5953H16.8408C14.252 29.5953 12.1533 31.694 12.1533 34.2828Z" fill="#FFD300"/>
<path d="M27.8469 34.2828C27.8469 31.694 25.7482 29.5953 23.1594 29.5953H20V34.2828H27.8469Z" fill="#FF9E00"/>
<path d="M12.1533 5.71719V16.2266C12.1533 20.5602 15.6665 24.0734 20.0002 24.0734L20.7814 14.8953L20.0002 5.71719H12.1533Z" fill="#FFD300"/>
<path d="M27.8469 16.2266V5.71719H20V24.0734C24.3337 24.0734 27.8469 20.5603 27.8469 16.2266Z" fill="#FF9E00"/>
<path d="M19.1015 11.0835L18.4403 13.1185H16.3005C15.3858 13.1185 15.0055 14.2889 15.7455 14.8266L17.4766 16.0843L16.8154 18.1193C16.5327 18.9892 17.5284 19.7127 18.2684 19.175L19.9996 17.9174L20.7808 14.8954L19.9996 10.4311C19.6212 10.431 19.2429 10.6485 19.1015 11.0835Z" fill="white"/>
<path d="M23.6981 13.1185H21.5583L20.8971 11.0835C20.7557 10.6485 20.3774 10.431 19.999 10.431V17.9174L21.7301 19.1751C22.4701 19.7127 23.4658 18.9893 23.1832 18.1194L22.5219 16.0844L24.253 14.8267C24.9931 14.289 24.6128 13.1185 23.6981 13.1185Z" fill="#E3EAEE"/>
</g>
<defs>
<clipPath id="clip0_2_1539">
<rect width="40" height="40" fill="white"/>
</clipPath>
</defs>
</svg>
