<svg width="40" height="40" viewBox="0 0 40 40" fill="none" xmlns="http://www.w3.org/2000/svg">
<g clip-path="url(#clip0_2_1569)">
<path d="M40 20C40 27.2376 36.1551 33.578 30.3967 37.0882C29.693 37.5176 28.9616 37.9045 28.2041 38.2449C27.591 38.5216 26.9608 38.7682 26.3159 38.982C26.1298 39.0441 25.9429 39.1028 25.7552 39.1591C23.9323 39.7061 22.0008 40 20 40C17.9992 40 16.0677 39.7061 14.2449 39.1592C14.0572 39.1029 13.8702 39.0441 13.6841 38.9821C13.0401 38.7682 12.4098 38.5217 11.7959 38.245C11.0384 37.9046 10.3062 37.5177 9.6025 37.0883C3.84406 33.5771 0 27.2376 0 20C0 8.9543 8.9543 0 20 0C31.0457 0 40 8.9543 40 20Z" fill="#313B57"/>
<path d="M30.3968 20.8383V37.0881C29.6931 37.5175 28.9617 37.9044 28.2041 38.2448C27.5911 38.5216 26.9608 38.7681 26.316 38.9819L25.7552 38.6179L21.0311 35.5493C20.4042 35.1419 19.5961 35.1419 18.9682 35.5493L14.245 38.6179L13.6842 38.9819C13.0401 38.768 12.4099 38.5216 11.796 38.2448C11.0384 37.9044 10.3062 37.5175 9.60254 37.0881V20.8383H30.3968Z" fill="#F64C4C"/>
<path d="M14.2449 21.9813V38.618L13.6841 38.982C13.04 38.7681 12.4098 38.5217 11.7959 38.2449V21.9813H14.2449Z" fill="#EC3E42"/>
<path d="M28.2038 21.9813V38.2449C27.5907 38.5217 26.9605 38.7682 26.3157 38.982L25.7549 38.618V21.9813H28.2038Z" fill="#EC3E42"/>
<path d="M19.9997 28.5118C27.6474 28.5118 33.847 22.3121 33.847 14.6645C33.847 7.01678 27.6474 0.817108 19.9997 0.817108C12.352 0.817108 6.15234 7.01678 6.15234 14.6645C6.15234 22.3121 12.352 28.5118 19.9997 28.5118Z" fill="#FDD142"/>
<path d="M19.9995 3.74228C19.6279 3.74228 19.2606 3.76103 18.8984 3.7972C24.4134 4.34931 28.7193 9.00376 28.7193 14.6642C28.7193 20.3245 24.4134 24.9789 18.8984 25.5311C19.2605 25.5674 19.6277 25.586 19.9995 25.586C26.0315 25.586 30.9213 20.6962 30.9213 14.6642C30.9213 8.63212 26.0314 3.74228 19.9995 3.74228Z" fill="#EAA028"/>
<path d="M21.0088 8.18914L22.5713 11.3552C22.669 11.553 22.8578 11.6902 23.0762 11.722L26.5702 12.2297C27.1201 12.3096 27.3398 12.9855 26.9417 13.3734L24.4135 15.8378C24.2554 15.9919 24.1833 16.2138 24.2206 16.4313L24.8174 19.9112C24.9114 20.4589 24.3364 20.8766 23.8446 20.618L20.7195 18.9751C20.5242 18.8724 20.2907 18.8724 20.0954 18.9751L16.9703 20.618C16.4784 20.8766 15.9035 20.4589 15.9974 19.9112L16.5942 16.4313C16.6316 16.2137 16.5595 15.9918 16.4014 15.8378L13.8731 13.3734C13.4752 12.9855 13.6948 12.3096 14.2447 12.2297L17.7387 11.722C17.9571 11.6903 18.1459 11.5531 18.2436 11.3552L19.8061 8.18914C20.0521 7.69078 20.7628 7.69078 21.0088 8.18914Z" fill="white"/>
</g>
<defs>
<clipPath id="clip0_2_1569">
<rect width="40" height="40" fill="white"/>
</clipPath>
</defs>
</svg>
