<svg width="40" height="40" viewBox="0 0 40 40" fill="none" xmlns="http://www.w3.org/2000/svg">
<path d="M19.9998 2.44589L3.88514 11.5791C3.43655 12.327 3.03866 13.1087 2.69595 13.9195C1.74723 16.1645 1.22266 18.6325 1.22266 21.223C1.22266 26.461 3.36736 31.198 6.82659 34.6039L33.2275 34.5498C36.6547 31.148 38.7768 26.4333 38.7768 21.223C38.7768 10.8527 30.3701 2.44589 19.9998 2.44589Z" fill="#ECCA34"/>
<path d="M3.88574 11.5794V21.126L12.3101 13.5942H12.5333V34.1843H20.8461V3.27286H14.4733C10.0034 4.64747 6.24498 7.6457 3.88574 11.5794Z" fill="#DC6920"/>
<path d="M15.3201 31.1574H6.82758V34.603C7.17202 34.9422 7.53022 35.2674 7.89997 35.5793H32.1001C32.4894 35.2509 32.866 34.9078 33.2272 34.5492V31.1574H25.6723V1.48832C25.6722 0.666352 25.0058 0 24.1839 0H16.3278C15.9618 0 15.6086 0.13482 15.3358 0.378762L6.77246 8.03481V21.1012L15.3201 13.4592V31.1574H15.3201Z" fill="#5339D3"/>
<path d="M24.6042 32.2251L23.6188 2.1568L16.1668 1.06772L7.83984 8.5124V18.7144L13.5812 12.3562L16.1667 11.2697H16.3874V32.2251H7.89496L10.3567 37.3365H29.6389C30.5292 36.8027 31.3726 36.199 32.1591 35.5299V32.2251H24.6042Z" fill="#3B3896"/>
<path d="M17.1028 3.51868H22.1534V34.6761L24.6044 32.2251V1.06772H16.167L17.1028 3.51868Z" fill="#6B66FA"/>
<path d="M18.5933 8.81873H15.2309L14.5333 9.44254L10.2908 13.2355L7.83984 18.7144L16.1668 11.2697L18.5933 8.81873Z" fill="#6B66FA"/>
<path d="M7.89453 32.2251V35.5764C11.1633 38.3357 15.3865 40 19.9991 40C22.5746 40 25.0288 39.481 27.2633 38.5426L27.3577 38.5026C28.2189 38.1354 29.0467 37.7054 29.8361 37.2188H10.3454V34.6761L7.89453 32.2251Z" fill="#6B66FA"/>
<path d="M20.0649 35.8046H19.3816V6.5007H16.4256L10.2793 11.9443L9.82617 11.4328L16.1665 5.81735H20.0649V35.8046Z" fill="#6B66FA"/>
<path d="M10.1973 35.4629H29.1293V36.1463H10.1973V35.4629Z" fill="#6B66FA"/>
<path d="M6.77291 23.7274L7.05844 24.4758C7.20149 24.8508 7.49762 25.1469 7.87258 25.29L8.62101 25.5755L7.87258 25.8611C7.49762 26.0041 7.20149 26.3002 7.05844 26.6752L6.77291 27.4236L6.48737 26.6752C6.34433 26.3002 6.0482 26.0041 5.67323 25.8611L4.9248 25.5755L5.67323 25.29C6.0482 25.1469 6.34433 24.8508 6.48737 24.4758L6.77291 23.7274Z" fill="white"/>
<path d="M29.5639 8.84033L29.9501 9.85295C30.1436 10.3602 30.5443 10.7609 31.0516 10.9544L32.0642 11.3407L31.0516 11.727C30.5444 11.9205 30.1436 12.3211 29.9501 12.8285L29.5639 13.8411L29.1776 12.8285C28.9841 12.3212 28.5834 11.9205 28.0761 11.727L27.0635 11.3407L28.0761 10.9544C28.5833 10.7609 28.9841 10.3603 29.1776 9.85295L29.5639 8.84033Z" fill="white"/>
<path d="M32.7321 20.5598L33.1687 21.7042C33.3874 22.2776 33.8402 22.7304 34.4135 22.9491L35.5579 23.3857L34.4135 23.8222C33.8402 24.0409 33.3874 24.4938 33.1687 25.0671L32.7321 26.2115L32.2955 25.0671C32.0768 24.4937 31.624 24.0409 31.0507 23.8222L29.9062 23.3857L31.0507 22.9491C31.624 22.7304 32.0768 22.2775 32.2955 21.7042L32.7321 20.5598Z" fill="white"/>
</svg>
