<svg width="40" height="40" viewBox="0 0 40 40" fill="none" xmlns="http://www.w3.org/2000/svg">
<g clip-path="url(#clip0_2_1578)">
<path d="M33.6977 33.7412C41.2536 26.1853 41.2536 13.9348 33.6977 6.37889C26.1418 -1.17699 13.8913 -1.17699 6.33543 6.37889C-1.22045 13.9348 -1.22045 26.1853 6.33543 33.7412C13.8913 41.297 26.1418 41.297 33.6977 33.7412Z" fill="#E08E8E"/>
<path fill-rule="evenodd" clip-rule="evenodd" d="M5.02444 7.99357L4.97266 7.89511C5.0168 7.84056 5.06046 7.7856 5.10518 7.73154L5.02444 7.99357Z" fill="#DE8887"/>
<path fill-rule="evenodd" clip-rule="evenodd" d="M0.670898 20.1203L1.10057 20.8749L0.772281 22.0582C0.706915 21.4209 0.672931 20.7744 0.670898 20.1203Z" fill="#E8ACAC"/>
<path fill-rule="evenodd" clip-rule="evenodd" d="M1.10033 20.8749L0.670654 20.1203C0.670572 20.1002 0.669922 20.0803 0.669922 20.06C0.669922 19.7555 0.677889 19.4529 0.691711 19.1518L1.10033 20.8749Z" fill="#E5A5A5"/>
<path fill-rule="evenodd" clip-rule="evenodd" d="M7.00879 34.3829L11.546 33.5413L11.0228 37.1945C9.56529 36.4274 8.21692 35.4811 7.00879 34.3829Z" fill="#EFC6C6"/>
<path fill-rule="evenodd" clip-rule="evenodd" d="M5.19727 32.4974L8.52653 19.4432L11.5458 33.5413L7.00857 34.3829C6.3632 33.7962 5.75849 33.1656 5.19727 32.4974Z" fill="#ECC0BF"/>
<path fill-rule="evenodd" clip-rule="evenodd" d="M8.52697 19.4432L1.2334 15.4135C1.34665 14.9541 1.47624 14.5013 1.62161 14.0554L8.95015 12.4305L8.52697 19.4432Z" fill="#E8ABAB"/>
<path fill-rule="evenodd" clip-rule="evenodd" d="M4.97281 7.89511L5.02459 7.99357L4.87598 8.01535C4.90801 7.97511 4.94037 7.93511 4.97281 7.89511Z" fill="#DE8989"/>
<path fill-rule="evenodd" clip-rule="evenodd" d="M4.87604 8.01535L5.02466 7.99356L3.94141 9.29169C4.23572 8.85307 4.54783 8.42754 4.87604 8.01535Z" fill="#E19797"/>
<path fill-rule="evenodd" clip-rule="evenodd" d="M3.94126 9.29169L5.02451 7.99356L8.94963 12.4305L1.62109 14.0554C2.17703 12.3514 2.96199 10.7511 3.94126 9.29169Z" fill="#E4A0A0"/>
<path fill-rule="evenodd" clip-rule="evenodd" d="M1.10002 20.8749L0.691406 19.1519C0.750675 17.869 0.93539 16.6192 1.23254 15.4135L8.52612 19.4432L1.10002 20.8749Z" fill="#E8ACAC"/>
<path fill-rule="evenodd" clip-rule="evenodd" d="M1.27539 24.8809L8.52645 19.4432L5.19718 32.4974C3.36515 30.316 2.00474 27.725 1.27539 24.8809Z" fill="#EBBCBC"/>
<path fill-rule="evenodd" clip-rule="evenodd" d="M0.772461 22.0582L1.10075 20.8749L8.52693 19.4432L1.27588 24.8809C1.04083 23.9645 0.871323 23.0218 0.772461 22.0582Z" fill="#EAB6B6"/>
<path fill-rule="evenodd" clip-rule="evenodd" d="M16.3757 27.2432L8.52637 19.4432L13.719 17.9404L16.3757 27.2432Z" fill="#ECBEBE"/>
<path fill-rule="evenodd" clip-rule="evenodd" d="M13.7187 17.9404L8.94922 12.4305L12.27 6.70535L13.7187 17.9404Z" fill="#E7A9A9"/>
<path fill-rule="evenodd" clip-rule="evenodd" d="M8.52637 19.4432L8.94954 12.4305L13.719 17.9404L8.52637 19.4432Z" fill="#EAB4B4"/>
<path fill-rule="evenodd" clip-rule="evenodd" d="M27.3651 15.4359L23.501 8.49461L30.1713 3.58331C30.4498 3.75526 30.7234 3.93413 30.9924 4.11957L27.3651 15.4359Z" fill="#E49E9E"/>
<path fill-rule="evenodd" clip-rule="evenodd" d="M5.02441 7.99357L5.10515 7.73146C6.07758 6.55634 7.1862 5.49837 8.40677 4.58105L12.2703 6.70536L5.02441 7.99357Z" fill="#E09090"/>
<path fill-rule="evenodd" clip-rule="evenodd" d="M8.94954 12.4305L5.02441 7.99356L12.2703 6.70535L8.94954 12.4305Z" fill="#E39B9A"/>
<path fill-rule="evenodd" clip-rule="evenodd" d="M12.2708 6.70536L8.40723 4.58105C9.58243 3.69788 10.8619 2.94625 12.2232 2.34601L12.2708 6.70536Z" fill="#DE8989"/>
<path fill-rule="evenodd" clip-rule="evenodd" d="M11.5456 33.5413L8.52637 19.4432L16.3757 27.2432L11.5456 33.5413Z" fill="#EDC1C1"/>
<path fill-rule="evenodd" clip-rule="evenodd" d="M25.4939 25.3827L20.4219 21.9479L27.3656 15.4359L25.4939 25.3827Z" fill="#EBBDBD"/>
<path fill-rule="evenodd" clip-rule="evenodd" d="M11.0225 37.1945L11.5457 33.5413L15.0669 38.77C13.6484 38.395 12.2938 37.8634 11.0225 37.1945Z" fill="#F0C7C7"/>
<path fill-rule="evenodd" clip-rule="evenodd" d="M20.4219 21.948L23.5015 8.49463L27.3656 15.4359L20.4219 21.948Z" fill="#EAB1B0"/>
<path fill-rule="evenodd" clip-rule="evenodd" d="M12.2703 6.70535L12.2227 2.346C12.898 2.04828 13.5931 1.78738 14.3062 1.56714L20.6631 2.91218L12.2703 6.70535Z" fill="#DF8C8C"/>
<path fill-rule="evenodd" clip-rule="evenodd" d="M16.3754 27.2432L13.7188 17.9404L20.4212 21.948L16.3754 27.2432Z" fill="#ECC0BF"/>
<path fill-rule="evenodd" clip-rule="evenodd" d="M21.2674 39.0507L11.5459 33.5413L16.376 27.2432L21.2674 39.0507Z" fill="#F0C9C8"/>
<path fill-rule="evenodd" clip-rule="evenodd" d="M15.0671 38.7699L11.5459 33.5412L21.2674 39.0506L20.5813 39.4023C20.3951 39.4076 20.2085 39.411 20.0211 39.411C18.3086 39.411 16.6484 39.1875 15.0671 38.7699Z" fill="#F0CCCC"/>
<path fill-rule="evenodd" clip-rule="evenodd" d="M20.4212 21.948L13.7188 17.9404L23.5008 8.49463L20.4212 21.948Z" fill="#EAB4B4"/>
<path fill-rule="evenodd" clip-rule="evenodd" d="M13.7192 17.9404L12.2705 6.70535L23.5012 8.49462L13.7192 17.9404Z" fill="#E5A5A5"/>
<path fill-rule="evenodd" clip-rule="evenodd" d="M23.5012 8.49462L12.2705 6.70535L20.6634 2.91226L23.5012 8.49462Z" fill="#E19595"/>
<path fill-rule="evenodd" clip-rule="evenodd" d="M20.5811 39.4024L21.2672 39.0507L21.4193 39.3603C21.1415 39.3801 20.862 39.3944 20.5811 39.4024Z" fill="#F2D3D3"/>
<path fill-rule="evenodd" clip-rule="evenodd" d="M21.2674 39.0507L16.376 27.2432L24.9505 36.9039L21.2674 39.0507Z" fill="#F1CFCE"/>
<path fill-rule="evenodd" clip-rule="evenodd" d="M24.9505 36.9039L16.376 27.2432L25.4938 25.3828L24.9505 36.9039Z" fill="#F0C9C8"/>
<path fill-rule="evenodd" clip-rule="evenodd" d="M21.4197 39.3603L21.2676 39.0507L24.9508 36.9039L24.7267 38.8337C23.6568 39.1011 22.5518 39.2795 21.4197 39.3603Z" fill="#F3D6D5"/>
<path fill-rule="evenodd" clip-rule="evenodd" d="M16.376 27.2433L20.4217 21.948L25.4938 25.3828L16.376 27.2433Z" fill="#EDC1C1"/>
<path fill-rule="evenodd" clip-rule="evenodd" d="M23.501 8.49463L20.6631 2.91227L28.582 2.70276C29.1267 2.97203 29.6569 3.26585 30.1712 3.58333L23.501 8.49463Z" fill="#E09090"/>
<path fill-rule="evenodd" clip-rule="evenodd" d="M24.9502 36.9039L25.4934 25.3828L31.1691 29.1039L24.9502 36.9039Z" fill="#F0CCCC"/>
<path fill-rule="evenodd" clip-rule="evenodd" d="M20.6636 2.91228L14.3066 1.56724C14.5614 1.48862 14.8188 1.41569 15.0779 1.34732L27.8062 2.34041C28.068 2.45561 28.3269 2.57643 28.5826 2.70277L20.6636 2.91228Z" fill="#DE8887"/>
<path fill-rule="evenodd" clip-rule="evenodd" d="M33.8255 33.6185L31.1689 29.104L35.0936 24.8107L35.6576 31.4589C35.0996 32.2231 34.4871 32.9449 33.8255 33.6185Z" fill="#F0CACA"/>
<path fill-rule="evenodd" clip-rule="evenodd" d="M31.1698 29.1039L25.4941 25.3828L35.0945 24.8107L31.1698 29.1039Z" fill="#EEC4C4"/>
<path fill-rule="evenodd" clip-rule="evenodd" d="M35.0939 24.8107L27.3652 15.436L35.6246 8.61545C35.9378 9.04171 36.234 9.48106 36.5121 9.93293L35.0939 24.8107Z" fill="#E9AEAE"/>
<path fill-rule="evenodd" clip-rule="evenodd" d="M27.3652 15.4359L30.9925 4.1196C32.7761 5.3496 34.3429 6.87114 35.6246 8.61537L27.3652 15.4359Z" fill="#E39B9A"/>
<path fill-rule="evenodd" clip-rule="evenodd" d="M29.0714 37.1667L24.9502 36.9039L31.1691 29.104L33.8257 33.6184C32.4382 35.0308 30.836 36.2312 29.0714 37.1667Z" fill="#F2D3D3"/>
<path fill-rule="evenodd" clip-rule="evenodd" d="M25.4941 25.3827L27.3658 15.4359L35.0945 24.8107L25.4941 25.3827Z" fill="#EBBCBC"/>
<path fill-rule="evenodd" clip-rule="evenodd" d="M24.7266 38.8337L24.9507 36.9039L29.0719 37.1667C27.7116 37.888 26.2553 38.4518 24.7266 38.8337Z" fill="#F4DADA"/>
<path fill-rule="evenodd" clip-rule="evenodd" d="M22.9694 0.932267L16.3984 1.04901C17.572 0.826738 18.7826 0.709015 20.0208 0.709015C21.0234 0.709096 22.008 0.785356 22.9694 0.932267Z" fill="#DC7E7E"/>
<path fill-rule="evenodd" clip-rule="evenodd" d="M27.8064 2.34039L15.0781 1.3473C15.5126 1.23283 15.9532 1.13364 16.3989 1.04909L22.9699 0.932343C24.6645 1.19177 26.2864 1.67153 27.8064 2.34039Z" fill="#DE8787"/>
<path fill-rule="evenodd" clip-rule="evenodd" d="M35.0938 24.8107L36.512 9.93292C38.2852 12.8143 39.3237 16.1954 39.3685 19.8163L35.0938 24.8107Z" fill="#E8ABAB"/>
<path fill-rule="evenodd" clip-rule="evenodd" d="M35.0938 24.8107L39.3685 19.8163C39.3695 19.8976 39.3716 19.9786 39.3716 20.0602C39.3716 21.3702 39.2406 22.6497 38.9925 23.8867L35.0938 24.8107Z" fill="#EAB0B0"/>
<path fill-rule="evenodd" clip-rule="evenodd" d="M35.6578 31.4589L35.0938 24.8107L37.9485 27.3532C37.3509 28.8201 36.579 30.1973 35.6578 31.4589Z" fill="#F0C7C7"/>
<path fill-rule="evenodd" clip-rule="evenodd" d="M37.9485 27.3532L35.0938 24.8107L38.9924 23.8867C38.7516 25.0859 38.3998 26.245 37.9485 27.3532Z" fill="#EBBDBD"/>
<path d="M20.0205 0.105042C25.5309 0.105042 30.5196 2.33862 34.1308 5.94984C37.742 9.56098 39.9756 14.5498 39.9756 20.0602C39.9756 25.5706 37.742 30.5593 34.1308 34.1704C30.5196 37.7816 25.5309 40.0152 20.0205 40.0152C14.5101 40.0152 9.52137 37.7816 5.91015 34.1704C2.29901 30.5592 0.0654297 25.5704 0.0654297 20.0601C0.0654297 14.5498 2.29901 9.56098 5.91015 5.94976C9.52137 2.33854 14.5101 0.105042 20.0205 0.105042ZM33.2757 6.80488C29.8834 3.4126 25.197 1.31447 20.0205 1.31447C14.844 1.31447 10.1575 3.4126 6.76527 6.80488C3.37299 10.1972 1.27486 14.8836 1.27486 20.0601C1.27486 25.2366 3.37307 29.923 6.76527 33.3153C10.1575 36.7075 14.844 38.8057 20.0205 38.8057C25.197 38.8057 29.8834 36.7076 33.2757 33.3153C36.6679 29.923 38.7661 25.2366 38.7661 20.0601C38.7661 14.8836 36.6679 10.1971 33.2757 6.80488Z" fill="#B04A4A"/>
<path fill-rule="evenodd" clip-rule="evenodd" d="M17.624 27.1972H22.4171V28.9268H17.624V27.1972Z" fill="#B04A4A"/>
<path fill-rule="evenodd" clip-rule="evenodd" d="M14.8232 31.7675H25.218C25.0923 30.455 23.9835 29.425 22.6386 29.425H17.403C16.7108 29.425 16.06 29.6946 15.5706 30.1841C15.1402 30.6143 14.8799 31.1693 14.8232 31.7675Z" fill="#B04A4A"/>
<path fill-rule="evenodd" clip-rule="evenodd" d="M20.4806 26.699V21.8723C20.3277 21.8823 20.174 21.8872 20.0211 21.8872C19.8683 21.8872 19.7145 21.8823 19.5615 21.8723V26.699H20.4806Z" fill="#B04A4A"/>
<path fill-rule="evenodd" clip-rule="evenodd" d="M26.2965 16.6389C26.4575 16.0663 26.5391 15.4715 26.5391 14.871V8.35284H13.5029V14.871C13.5029 15.4715 13.5846 16.0663 13.7455 16.6389C14.4619 19.187 16.7108 21.0819 19.3419 21.3541C19.566 21.3772 19.7945 21.389 20.0211 21.389C20.2476 21.389 20.4761 21.3772 20.7002 21.3541C23.3312 21.0819 25.5802 19.187 26.2965 16.6389ZM23.2875 13.6819L21.8349 15.0978L22.1778 17.0971C22.1938 17.1905 22.1555 17.285 22.0787 17.3406C22.002 17.3963 21.9003 17.4037 21.8163 17.3596L20.021 16.4156L18.2256 17.3596C18.1891 17.3788 18.1494 17.3882 18.1097 17.3882C18.0581 17.3882 18.0067 17.3722 17.9633 17.3406C17.8866 17.285 17.8481 17.1905 17.8641 17.097L18.2071 15.0977L16.7545 13.6818C16.6866 13.6156 16.6621 13.5166 16.6915 13.4264C16.7207 13.3363 16.7987 13.2705 16.8925 13.2569L18.8998 12.9653L19.7976 11.1463C19.8396 11.0613 19.9262 11.0075 20.021 11.0075C20.1158 11.0075 20.2024 11.0613 20.2443 11.1463L21.1421 12.9653L23.1494 13.2569C23.2433 13.2706 23.3212 13.3363 23.3505 13.4264C23.3798 13.5167 23.3554 13.6158 23.2875 13.6819Z" fill="#B04A4A"/>
<path fill-rule="evenodd" clip-rule="evenodd" d="M20.7535 13.3034L20.0212 11.8196L19.2888 13.3034C19.2526 13.3769 19.1824 13.4279 19.1013 13.4397L17.4639 13.6775L18.6488 14.8325C18.7075 14.8897 18.7344 14.9722 18.7205 15.053L18.4407 16.6839L19.9052 15.9139C19.9415 15.8948 19.9813 15.8853 20.0212 15.8853C20.061 15.8853 20.1009 15.8948 20.1371 15.9139L21.6017 16.6839L21.3219 15.053C21.3081 14.9722 21.3348 14.8897 21.3935 14.8325L22.5785 13.6775L20.9411 13.4397C20.86 13.4279 20.7899 13.3769 20.7535 13.3034Z" fill="#B04A4A"/>
<path fill-rule="evenodd" clip-rule="evenodd" d="M29.9002 10.0829H27.0375V10.5811H29.6511V12.3284C29.6511 13.0667 29.0961 14.0171 28.0463 15.0768C27.6454 15.4815 27.2415 15.8312 26.9329 16.0832C26.8924 16.3159 26.8402 16.5464 26.7763 16.7736C26.7685 16.8016 26.7602 16.8294 26.752 16.8573C26.9741 16.6928 27.6799 16.1537 28.3952 15.4324C29.5591 14.2589 30.1493 13.2145 30.1493 12.3283V10.3319C30.1493 10.1945 30.0377 10.0829 29.9002 10.0829Z" fill="#B04A4A"/>
<path fill-rule="evenodd" clip-rule="evenodd" d="M13.109 16.0832C12.8005 15.8312 12.3965 15.4815 11.9956 15.0768C10.9457 14.0171 10.3908 13.0667 10.3908 12.3284V10.5811H13.0044V10.0829H10.1417C10.0041 10.0829 9.89258 10.1945 9.89258 10.332V12.3284C9.89258 13.2146 10.4827 14.259 11.6466 15.4325C12.3619 16.1537 13.0677 16.6928 13.2899 16.8574C13.2817 16.8295 13.2734 16.8017 13.2655 16.7737C13.2018 16.5464 13.1496 16.3159 13.109 16.0832Z" fill="#B04A4A"/>
</g>
<defs>
<clipPath id="clip0_2_1578">
<rect width="40" height="40" fill="white"/>
</clipPath>
</defs>
</svg>
