<svg width="76" height="20" viewBox="0 0 76 20" fill="none" xmlns="http://www.w3.org/2000/svg">
<rect width="71.7367" height="20.3085" rx="1" transform="matrix(1 0 -0.190809 0.981627 3.875 0)" fill="#F6FA32"/>
<path d="M6.73224 15L8.18111 6.27273H10.2905L9.71094 9.77557H13.1499L13.7294 6.27273H15.8345L14.3857 15H12.2805L12.8601 11.4929H9.42116L8.84162 15H6.73224ZM24.6491 10.7727C24.4901 11.7131 24.1776 12.5071 23.7116 13.1548C23.2486 13.7997 22.6847 14.2884 22.0199 14.6207C21.358 14.9531 20.6463 15.1193 19.8849 15.1193C19.081 15.1193 18.3849 14.9403 17.7969 14.5824C17.2088 14.2244 16.7813 13.7031 16.5142 13.0185C16.25 12.3338 16.1989 11.5028 16.3608 10.5256C16.5142 9.58523 16.8224 8.78977 17.2855 8.1392C17.7514 7.48864 18.3182 6.99574 18.9858 6.66051C19.6563 6.32244 20.375 6.15341 21.142 6.15341C21.9403 6.15341 22.6321 6.33381 23.2173 6.6946C23.8054 7.0554 24.2315 7.57955 24.4957 8.26705C24.7599 8.95455 24.8111 9.78977 24.6491 10.7727ZM22.5398 10.5256C22.6278 9.97727 22.6278 9.51562 22.5398 9.14062C22.4545 8.76562 22.2869 8.48295 22.0369 8.29261C21.7869 8.09943 21.4616 8.00284 21.0611 8.00284C20.6179 8.00284 20.2173 8.11222 19.8594 8.33097C19.5043 8.54687 19.2074 8.86222 18.9688 9.27699C18.7301 9.68892 18.5639 10.1875 18.4702 10.7727C18.3736 11.3267 18.3707 11.7884 18.4616 12.1577C18.5554 12.527 18.7301 12.8054 18.9858 12.9929C19.2415 13.1776 19.5668 13.2699 19.9616 13.2699C20.402 13.2699 20.7983 13.1634 21.1506 12.9503C21.5028 12.7372 21.7969 12.4261 22.0327 12.017C22.2713 11.608 22.4403 11.1108 22.5398 10.5256ZM25.1776 15L26.6264 6.27273H30.2656C30.919 6.27273 31.4517 6.36506 31.8636 6.54972C32.2756 6.73437 32.5653 6.9929 32.733 7.32528C32.9034 7.65767 32.9517 8.04261 32.8778 8.48011C32.8182 8.80966 32.696 9.10511 32.5114 9.36648C32.3295 9.625 32.1023 9.84091 31.8295 10.0142C31.5568 10.1847 31.2557 10.304 30.9261 10.3722L30.9091 10.4574C31.2614 10.4716 31.5724 10.5653 31.8423 10.7386C32.1151 10.9119 32.3168 11.1548 32.4474 11.4673C32.5781 11.777 32.608 12.1406 32.5369 12.5582C32.4602 13.027 32.2713 13.446 31.9702 13.8153C31.6719 14.1818 31.2784 14.4716 30.7898 14.6847C30.3011 14.8949 29.7358 15 29.0938 15H25.1776ZM27.5767 13.2997H28.8807C29.3324 13.2997 29.6818 13.2131 29.929 13.0398C30.179 12.8636 30.3267 12.6222 30.3722 12.3153C30.4091 12.0909 30.3892 11.8977 30.3125 11.7358C30.2358 11.571 30.108 11.4446 29.929 11.3565C29.75 11.2656 29.5241 11.2202 29.2514 11.2202H27.9091L27.5767 13.2997ZM28.1435 9.8608H29.3153C29.5426 9.8608 29.7514 9.82244 29.9418 9.74574C30.1349 9.66903 30.294 9.55824 30.419 9.41335C30.5469 9.26847 30.6264 9.09375 30.6577 8.8892C30.706 8.59659 30.6392 8.36648 30.4574 8.19886C30.2756 8.03125 30.0099 7.94744 29.6605 7.94744H28.4588L28.1435 9.8608ZM34.5952 6.27273H36.7003L35.8651 11.3011H35.9375L40.2074 6.27273H42.0227L40.5739 15H38.4645L39.2997 9.96307H39.2443L34.9318 15H33.1463L34.5952 6.27273ZM43.788 6.27273H45.8164L45.3562 9.05114C45.305 9.35511 45.3178 9.60085 45.3945 9.78835C45.4712 9.97585 45.6218 10.1136 45.8462 10.2017C46.0707 10.2869 46.3775 10.3295 46.7667 10.3295C46.8718 10.3295 47.011 10.3267 47.1843 10.321C47.3576 10.3125 47.5408 10.3011 47.734 10.2869C47.93 10.2727 48.1133 10.2543 48.2837 10.2315C48.4542 10.2088 48.5863 10.1832 48.68 10.1548L48.4201 11.7784C48.315 11.8097 48.1715 11.8381 47.9897 11.8636C47.8107 11.8892 47.6218 11.9105 47.4229 11.9276C47.2269 11.9446 47.0437 11.9574 46.8732 11.9659C46.7056 11.9744 46.5778 11.9787 46.4897 11.9787C45.7567 11.9787 45.1332 11.875 44.619 11.6676C44.1076 11.4574 43.7354 11.1364 43.5025 10.7045C43.2724 10.2727 43.2141 9.72159 43.3278 9.05114L43.788 6.27273ZM48.9528 6.27273H50.9982L49.5494 15H47.5039L48.9528 6.27273ZM60.239 10.7727C60.0799 11.7131 59.7674 12.5071 59.3015 13.1548C58.8384 13.7997 58.2745 14.2884 57.6097 14.6207C56.9478 14.9531 56.2362 15.1193 55.4748 15.1193C54.6708 15.1193 53.9748 14.9403 53.3867 14.5824C52.7987 14.2244 52.3711 13.7031 52.104 13.0185C51.8398 12.3338 51.7887 11.5028 51.9506 10.5256C52.104 9.58523 52.4123 8.78977 52.8754 8.1392C53.3413 7.48864 53.908 6.99574 54.5756 6.66051C55.2461 6.32244 55.9648 6.15341 56.7319 6.15341C57.5302 6.15341 58.2219 6.33381 58.8072 6.6946C59.3952 7.0554 59.8214 7.57955 60.0856 8.26705C60.3498 8.95455 60.4009 9.78977 60.239 10.7727ZM58.1296 10.5256C58.2177 9.97727 58.2177 9.51562 58.1296 9.14062C58.0444 8.76562 57.8768 8.48295 57.6268 8.29261C57.3768 8.09943 57.0515 8.00284 56.6509 8.00284C56.2077 8.00284 55.8072 8.11222 55.4492 8.33097C55.0941 8.54687 54.7972 8.86222 54.5586 9.27699C54.32 9.68892 54.1538 10.1875 54.06 10.7727C53.9634 11.3267 53.9606 11.7884 54.0515 12.1577C54.1452 12.527 54.32 12.8054 54.5756 12.9929C54.8313 13.1776 55.1566 13.2699 55.5515 13.2699C55.9918 13.2699 56.3881 13.1634 56.7404 12.9503C57.0927 12.7372 57.3867 12.4261 57.6225 12.017C57.8612 11.608 58.0302 11.1108 58.1296 10.5256ZM66.0984 15L63.9592 11.3778H63.4776L62.8768 15H60.7674L62.2163 6.27273H64.3256L63.7631 9.66051H64.0998L67.364 6.27273H70.0018L65.962 10.3935L68.7276 15H66.0984Z" fill="black"/>
</svg>
