<svg width="20" height="23" viewBox="0 0 20 23" fill="none" xmlns="http://www.w3.org/2000/svg">
<g clip-path="url(#clip0_2005_5102)">
<path d="M7.34087 21.4169H11.6591M3.70928 14.2513L2.36028 15.6012C2.11393 15.8474 1.91849 16.1396 1.78513 16.4613C1.65176 16.7831 1.58308 17.1279 1.58301 17.4761C1.58301 18.0617 2.05801 18.5367 2.64442 18.5367H16.3564C16.9419 18.5367 17.4169 18.0617 17.4169 17.4761C17.4168 17.1279 17.3482 16.7831 17.2148 16.4613C17.0814 16.1396 16.886 15.8474 16.6396 15.6012L15.2906 14.2513C15.0519 14.0128 14.8625 13.7295 14.7333 13.4177C14.6041 13.1059 14.5376 12.7717 14.5376 12.4342V10.6206C14.5376 9.95905 14.4073 9.30398 14.1541 8.6928C13.9009 8.08161 13.5299 7.52627 13.0621 7.05848C12.5943 6.5907 12.039 6.21963 11.4278 5.96647C10.8166 5.71331 10.1615 5.58301 9.49996 5.58301C8.83834 5.58301 8.1832 5.71334 7.57196 5.96655C6.96071 6.21977 6.40534 6.59091 5.93754 7.05879C5.46975 7.52666 5.0987 8.08211 4.84559 8.69339C4.59248 9.30468 4.46226 9.95984 4.46237 10.6215V12.4351C4.46237 13.1174 4.19119 13.7703 3.70928 14.2522V14.2513Z" stroke="#74767E" stroke-width="1.72727" stroke-linecap="round" stroke-linejoin="round"/>
</g>
<rect x="14" width="6" height="6" rx="3" fill="#FF62AD"/>
<defs>
<clipPath id="clip0_2005_5102">
<rect width="19" height="19" fill="white" transform="translate(0 4)"/>
</clipPath>
</defs>
</svg>
