<svg width="19" height="19" viewBox="0 0 19 19" fill="none" xmlns="http://www.w3.org/2000/svg">
<g clip-path="url(#clip0_586_27403)">
<g clip-path="url(#clip1_586_27403)">
<path d="M7.34087 17.4169H11.6591M3.70928 10.2513L2.36028 11.6012C2.11393 11.8474 1.91849 12.1396 1.78513 12.4613C1.65176 12.7831 1.58308 13.1279 1.58301 13.4761C1.58301 14.0617 2.05801 14.5367 2.64442 14.5367H16.3564C16.9419 14.5367 17.4169 14.0617 17.4169 13.4761C17.4168 13.1279 17.3482 12.7831 17.2148 12.4613C17.0814 12.1396 16.886 11.8474 16.6396 11.6012L15.2906 10.2513C15.0519 10.0128 14.8625 9.72948 14.7333 9.4177C14.6041 9.10592 14.5376 8.77173 14.5376 8.43424V6.6206C14.5376 5.95905 14.4073 5.30398 14.1541 4.6928C13.9009 4.08161 13.5299 3.52627 13.0621 3.05848C12.5943 2.5907 12.039 2.21963 11.4278 1.96647C10.8166 1.71331 10.1615 1.58301 9.49996 1.58301C8.83834 1.58301 8.1832 1.71334 7.57196 1.96655C6.96071 2.21977 6.40534 2.59091 5.93754 3.05879C5.46975 3.52666 5.0987 4.08211 4.84559 4.69339C4.59248 5.30468 4.46226 5.95984 4.46237 6.62146V8.4351C4.46237 9.11737 4.19119 9.77028 3.70928 10.2522V10.2513Z" stroke="#74767E" stroke-width="1.72727" stroke-linecap="round" stroke-linejoin="round"/>
</g>
</g>
<defs>
<clipPath id="clip0_586_27403">
<rect width="19" height="19" fill="white"/>
</clipPath>
<clipPath id="clip1_586_27403">
<rect width="19" height="19" fill="white"/>
</clipPath>
</defs>
</svg>
