<svg width="13" height="13" viewBox="0 0 13 13" fill="none" xmlns="http://www.w3.org/2000/svg">
<path d="M12.6938 0.0454102H9.77495C9.60516 0.0454102 9.46759 0.183027 9.46759 0.352773V1.17241C9.46759 1.34215 9.60516 1.47977 9.77495 1.47977H10.5525L8.21125 3.82093C8.15363 3.87855 8.12122 3.95674 8.12122 4.03825C8.12122 4.11977 8.15363 4.19796 8.21125 4.25558L8.79086 4.83518C8.85089 4.89522 8.92954 4.92522 9.00822 4.92522C9.08687 4.92522 9.16555 4.89518 9.22559 4.83518L11.5668 2.49402V3.27161C11.5668 3.44136 11.7044 3.57897 11.8742 3.57897H12.6938C12.8636 3.57897 13.0012 3.44136 13.0012 3.27161V0.352773C13.0012 0.183027 12.8635 0.0454102 12.6938 0.0454102Z" fill="white"/>
<path d="M2.44878 1.47977H3.22632C3.39611 1.47977 3.53368 1.34215 3.53368 1.17241V0.352773C3.53368 0.183027 3.39611 0.0454102 3.22632 0.0454102H0.307485C0.137698 0.0454102 0.00012207 0.183027 0.00012207 0.352773V3.27161C0.00012207 3.44136 0.137698 3.57897 0.307485 3.57897H1.12712C1.2969 3.57897 1.43448 3.44136 1.43448 3.27161V2.49406L3.77556 4.83518C3.8356 4.89518 3.91428 4.92522 3.99297 4.92522C4.07161 4.92522 4.15029 4.89518 4.21037 4.83518L4.78994 4.25558C4.84756 4.19796 4.87993 4.11977 4.87993 4.03825C4.87993 3.95674 4.84756 3.87855 4.78994 3.82093L2.44878 1.47977Z" fill="white"/>
<path d="M4.21045 8.16498C4.09038 8.04494 3.8958 8.04494 3.77568 8.16498L1.4346 10.5061V9.72847C1.4346 9.55872 1.29703 9.42111 1.12724 9.42111H0.307607C0.13782 9.42111 0.000244141 9.55872 0.000244141 9.72847V12.6473C0.000244141 12.8171 0.13782 12.9547 0.307607 12.9547H3.22644C3.39623 12.9547 3.53381 12.8171 3.53381 12.6473V11.8277C3.53381 11.6579 3.39623 11.5203 3.22644 11.5203H2.4489L4.79002 9.17923C4.84764 9.12161 4.88001 9.04342 4.88001 8.96191C4.88001 8.88039 4.84764 8.8022 4.79002 8.74458L4.21045 8.16498Z" fill="white"/>
<path d="M12.6938 9.42086H11.8742C11.7044 9.42086 11.5668 9.55848 11.5668 9.72823V10.5059L9.22551 8.16473C9.10547 8.0447 8.91089 8.0447 8.79086 8.16473L8.21125 8.74434C8.15363 8.80196 8.12122 8.88015 8.12122 8.96166C8.12122 9.04318 8.15363 9.12137 8.21129 9.17899L10.5525 11.5201H9.77495C9.60516 11.5201 9.46759 11.6577 9.46759 11.8274V12.6471C9.46759 12.8168 9.60516 12.9544 9.77495 12.9544H12.6938C12.8636 12.9544 13.0011 12.8168 13.0011 12.6471V9.72823C13.0011 9.55848 12.8635 9.42086 12.6938 9.42086Z" fill="white"/>
</svg>
