<svg width="48" height="48" viewBox="0 0 48 48" fill="none" xmlns="http://www.w3.org/2000/svg">
<g clip-path="url(#clip0_466_10416)">
<g clip-path="url(#clip1_466_10416)">
<mask id="mask0_466_10416" style="mask-type:luminance" maskUnits="userSpaceOnUse" x="0" y="0" width="48" height="48">
<path d="M48 0H0V48H48V0Z" fill="white"/>
</mask>
<g mask="url(#mask0_466_10416)">
<path d="M36.8594 25.9912C42.6331 25.9912 47.3135 21.3107 47.3135 15.5371C47.3135 9.76346 42.6331 5.08301 36.8594 5.08301C31.0858 5.08301 26.4053 9.76346 26.4053 15.5371C26.4053 21.3107 31.0858 25.9912 36.8594 25.9912Z" fill="white"/>
<path d="M36.8594 25.9912C42.6331 25.9912 47.3135 21.3107 47.3135 15.5371C47.3135 9.76346 42.6331 5.08301 36.8594 5.08301C31.0858 5.08301 26.4053 9.76346 26.4053 15.5371C26.4053 21.3107 31.0858 25.9912 36.8594 25.9912Z" fill="#FFC34D" fill-opacity="0.32"/>
<path d="M44.2513 8.14511C41.668 5.56191 38.0693 4.614 34.7402 5.29997C36.6723 5.69813 38.5136 6.64595 40.0128 8.1452C44.0952 12.2277 44.0952 18.8465 40.0128 22.929C38.5136 24.4281 36.6723 25.3761 34.7402 25.7742C38.0693 26.4602 41.6681 25.5123 44.2513 22.929C48.3337 18.8465 48.3337 12.2276 44.2513 8.14511Z" fill="white"/>
<path d="M44.2513 8.14511C41.668 5.56191 38.0693 4.614 34.7402 5.29997C36.6723 5.69813 38.5136 6.64595 40.0128 8.1452C44.0952 12.2277 44.0952 18.8465 40.0128 22.929C38.5136 24.4281 36.6723 25.3761 34.7402 25.7742C38.0693 26.4602 41.6681 25.5123 44.2513 22.929C48.3337 18.8465 48.3337 12.2276 44.2513 8.14511Z" fill="#FFAB0A" fill-opacity="0.32"/>
<path d="M36.0149 17.0056V18.6423H38.5808C38.7566 18.6423 38.903 18.708 39.0202 18.8394C39.1374 18.9577 39.196 19.1155 39.196 19.3127C39.196 19.523 39.1374 19.6939 39.0202 19.8254C38.903 19.9437 38.7566 20.0028 38.5808 20.0028H36.0149V21.9746C36.0149 22.3033 35.9329 22.5596 35.7689 22.7437C35.6049 22.9146 35.3881 23 35.1186 23C34.8609 23 34.65 22.9146 34.4859 22.7437C34.3219 22.5596 34.2399 22.3033 34.2399 21.9746V20.0028H33.1327C32.9569 20.0028 32.8046 19.9371 32.6757 19.8056C32.5586 19.6742 32.5 19.5099 32.5 19.3127C32.5 19.1155 32.5586 18.9577 32.6757 18.8394C32.8046 18.708 32.9569 18.6423 33.1327 18.6423H34.2399V17.0056H33.1327C32.9569 17.0056 32.8046 16.9465 32.6757 16.8282C32.5586 16.6967 32.5 16.5324 32.5 16.3352C32.5 16.138 32.5586 15.9803 32.6757 15.862C32.8046 15.7305 32.9569 15.6648 33.1327 15.6648H34.2399V9.98592C34.2399 9.68357 34.3161 9.44695 34.4684 9.27606C34.6324 9.09202 34.855 9 35.1362 9H38.3524C39.6646 9 40.6839 9.3615 41.4104 10.0845C42.1368 10.7944 42.5 11.7606 42.5 12.9831C42.5 14.2319 42.1309 15.2178 41.3928 15.9408C40.6664 16.6507 39.6529 17.0056 38.3524 17.0056H36.0149ZM35.9974 15.6648H38.0185C39.8579 15.6648 40.7777 14.83 40.7777 13.1606C40.7777 12.2798 40.5551 11.6291 40.1098 11.2085C39.6646 10.7878 38.9968 10.5775 38.1063 10.5775H35.9974V15.6648Z" fill="#FFA800"/>
<path d="M27.7372 20.0272C26.6017 21.1627 25.3122 22.4524 24.6015 23.1635C24.2538 23.5114 23.7823 23.7069 23.2844 23.7069H23.2587C22.4371 23.7069 21.4748 22.9113 21.263 22.1175L21.2625 14.9297L23.9106 12.7506L26.9217 12.2884C25.5026 11.9387 27.1296 11.3791 29.9998 7.44296C27.7009 7.23353 25.1875 6.83443 23.8086 6.66924C22.8625 6.5559 21.9115 6.83565 21.1775 7.44296L14.4574 13.0024C13.4887 13.8038 12.7905 14.8837 12.4559 16.0957C11.7065 18.81 10.2721 23.7557 9.2703 25.6651L4.26562 30.6698L12.9301 39.3342L15.3397 36.9245C15.7926 36.4716 16.3527 36.1406 16.9679 35.9622L22.0006 34.2675C23.5816 33.7251 24.9733 32.7397 26.0101 31.4286L28.5574 28.207L36.0038 20.7606C36.8619 19.9025 37.2267 18.876 36.3686 18.0179C35.0162 16.3384 30.079 17.6852 27.7372 20.0272Z" fill="#FFF2E0"/>
<path d="M36.3686 18.0179C36.1372 17.7305 35.8006 17.5317 35.39 17.4114C34.3528 17.1077 33.2325 17.4313 32.4719 18.1991C30.4553 20.2349 25.525 25.1746 25.525 25.1746L22.9777 28.3962C21.941 29.7073 20.5492 30.6928 18.9682 31.2352L13.9355 32.9298C13.9311 32.9311 13.9266 32.9324 13.9222 32.9337C13.0618 33.1867 12.1325 32.9716 11.4984 32.3375L7.04812 27.8873L4.26562 30.6698L12.9301 39.3341L15.3397 36.9245C15.402 36.8622 15.4664 36.8026 15.5327 36.7453C15.5349 36.7434 15.5373 36.7417 15.5394 36.7397C15.6044 36.6838 15.671 36.63 15.7393 36.5785C16.1071 36.3012 16.5227 36.0912 16.9678 35.9621L22.0005 34.2675C23.5815 33.7252 24.9732 32.7397 26.01 31.4286L28.5573 28.2069L36.0037 20.7606C36.862 19.9024 37.2268 18.876 36.3686 18.0179Z" fill="#F1CDA0"/>
<path d="M35.7097 20.5288C34.7213 19.5405 33.1191 19.5406 32.1308 20.5288L31.0066 21.6531C30.4978 22.1618 30.4978 22.9867 31.0066 23.4954L32.138 24.6268L35.9728 20.792L35.7097 20.5288Z" fill="#F7E7D5"/>
<path d="M10.9935 42.6385L0.965243 32.6102C0.593617 32.2386 0.593617 31.6361 0.965243 31.2644L3.73369 28.496C4.10532 28.1244 4.70785 28.1244 5.07947 28.496L15.1078 38.5243C15.4794 38.8959 15.4794 39.4984 15.1078 39.8701L12.3393 42.6385C11.9677 43.0101 11.3652 43.0101 10.9935 42.6385Z" fill="#04B70A"/>
<path d="M15.1073 38.5244L5.07901 28.496C4.70739 28.1244 4.10485 28.1244 3.73323 28.496L1.69922 30.53C2.07085 30.1584 2.67338 30.1584 3.04501 30.53L13.0733 40.5584C13.4449 40.93 13.4449 41.5325 13.0733 41.9042L15.1073 39.8701C15.4789 39.4985 15.4789 38.896 15.1073 38.5244Z" fill="#04B70A"/>
<path d="M11.3097 40.0872C12.0563 40.0872 12.6614 39.482 12.6614 38.7355C12.6614 37.989 12.0563 37.3838 11.3097 37.3838C10.5632 37.3838 9.95801 37.989 9.95801 38.7355C9.95801 39.482 10.5632 40.0872 11.3097 40.0872Z" fill="white"/>
<path d="M13.349 38.7356C13.349 37.6113 12.4344 36.6968 11.3102 36.6968C10.1861 36.6968 9.27148 37.6114 9.27148 38.7356C9.27148 39.8597 10.1861 40.7744 11.3102 40.7744C12.4344 40.7744 13.349 39.8597 13.349 38.7356ZM10.6457 38.7356C10.6457 38.3691 10.9438 38.071 11.3102 38.071C11.6767 38.071 11.9748 38.3691 11.9748 38.7356C11.9748 39.1021 11.6767 39.4002 11.3102 39.4002C10.9438 39.4001 10.6457 39.102 10.6457 38.7356Z" fill="#333333"/>
<path d="M44.737 7.65947C42.7759 5.6984 40.1716 4.54434 37.4037 4.40971C34.7533 4.28118 32.1627 5.09296 30.0741 6.70012L29.5476 6.63975C27.9631 6.45796 24.6661 6.07987 23.8905 5.98706C22.7632 5.85206 21.6147 6.18974 20.7396 6.91359L14.0196 12.473C12.9375 13.3682 12.1679 14.5576 11.7937 15.9129C11.052 18.5998 9.67551 23.3451 8.70885 25.2551L5.75957 28.2044L5.56513 28.0099C5.25566 27.7005 4.8441 27.5299 4.40638 27.5299C3.96866 27.5299 3.55709 27.7004 3.24762 28.0099L0.479181 30.7784C-0.159727 31.4173 -0.159727 32.4569 0.479181 33.0958L1.21353 33.8301C1.48184 34.0984 1.91693 34.0984 2.18525 33.8301C2.45356 33.5618 2.45356 33.1267 2.18525 32.8584L1.4509 32.1241C1.38349 32.0567 1.37346 31.9779 1.37346 31.937C1.37346 31.8962 1.38349 31.8174 1.4509 31.75L4.21934 28.9816C4.28675 28.9142 4.3655 28.9041 4.40638 28.9041C4.44734 28.9041 4.526 28.9142 4.59341 28.9816L5.27328 29.6614C5.27319 29.6612 5.27338 29.6616 5.27328 29.6614L9.60661 33.9948L14.6216 39.0099C14.689 39.0773 14.699 39.1561 14.699 39.197C14.699 39.2379 14.689 39.3166 14.6216 39.384L11.8531 42.1524C11.7857 42.2198 11.707 42.2299 11.6661 42.2299C11.6251 42.2299 11.5465 42.2198 11.4791 42.1524L5.29325 35.9666C5.02494 35.6983 4.58985 35.6983 4.32153 35.9666C4.05322 36.2349 4.05322 36.67 4.32153 36.9383L10.5074 43.1241C10.8269 43.4436 11.2465 43.6034 11.6661 43.6034C12.0857 43.6034 12.5054 43.4436 12.8249 43.1241L15.5933 40.3557C15.9028 40.0462 16.0733 39.6347 16.0733 39.197C16.0733 38.7592 15.9029 38.3477 15.5933 38.0382L15.3956 37.8405L15.8257 37.4104C16.1957 37.0404 16.6568 36.7678 17.1594 36.6221C17.1688 36.6194 17.1781 36.6165 17.1873 36.6134L22.2238 34.9174C23.9329 34.3311 25.4285 33.272 26.5492 31.8547L29.0718 28.6645L36.4898 21.2464C37.7376 19.9987 37.8852 18.5884 36.8799 17.5576C36.3968 16.9788 35.6026 16.6442 34.5801 16.5892C32.2505 16.4625 29.0321 17.7607 27.2515 19.5414C26.116 20.6769 24.8265 21.9666 24.1157 22.6779C23.8953 22.8984 23.6 23.0198 23.2846 23.0198H23.259C22.7851 23.0198 22.13 22.5072 21.9503 22.0138L21.9498 15.254L24.2016 13.401L25.9817 13.1278C25.6322 14.7122 25.6305 16.3612 25.9834 17.9549C26.0543 18.2753 26.3384 18.4935 26.6536 18.4935C26.7027 18.4935 26.7527 18.4882 26.8027 18.4771C27.1732 18.3951 27.407 18.0283 27.325 17.6578C26.948 15.9553 27.0317 14.1814 27.5667 12.5256C27.5689 12.5198 27.57 12.5136 27.572 12.5078C27.5727 12.5056 27.5738 12.5037 27.5745 12.5015C28.0533 11.0331 28.8536 9.73088 29.9533 8.63119C30.1868 8.39775 30.435 8.1734 30.6912 7.96415C30.6967 7.96003 30.7017 7.95525 30.7071 7.95094C30.7083 7.95009 30.7094 7.94934 30.7105 7.9485C32.5741 6.43453 34.9273 5.66512 37.3372 5.78231C39.7633 5.90024 42.0463 6.912 43.7655 8.63109C45.6102 10.4757 46.6261 12.9283 46.6261 15.5371C46.6261 18.1459 45.6102 20.5985 43.7655 22.4431C41.3334 24.8754 37.7503 25.853 34.415 24.9944C34.0478 24.8997 33.6729 25.1209 33.5783 25.4885C33.4837 25.856 33.705 26.2306 34.0725 26.3251C34.9847 26.56 35.9222 26.6774 36.8598 26.6774C37.817 26.6774 38.7743 26.555 39.7043 26.3103C41.6019 25.8111 43.3423 24.8099 44.7372 23.4149C46.8412 21.3106 48 18.5129 48 15.5371C48 12.5614 46.8412 9.76369 44.737 7.65947ZM32.1379 23.655L31.4923 23.0096C31.3761 22.8932 31.312 22.7386 31.312 22.5742C31.312 22.4098 31.3761 22.2552 31.4924 22.1388L32.6166 21.0145C32.9761 20.6551 33.4481 20.4753 33.9202 20.4753C34.2926 20.4753 34.665 20.5872 34.9821 20.8108L32.1379 23.655ZM26.4079 11.6722L23.8065 12.0715C23.6843 12.0902 23.5696 12.1415 23.4741 12.2201L20.8261 14.3992C20.6674 14.5297 20.5756 14.7243 20.5756 14.9297L20.576 22.1176C20.576 22.1775 20.5838 22.2371 20.5993 22.2947C20.8978 23.4131 22.1406 24.394 23.2589 24.394H23.2845C23.9673 24.394 24.6076 24.1295 25.0876 23.6492C25.7984 22.938 27.0877 21.6484 28.2231 20.513C29.7351 19.0011 32.5533 17.8571 34.5062 17.9613C34.952 17.9853 35.5442 18.0894 35.8337 18.4488C35.8492 18.468 35.8656 18.4863 35.883 18.5037C36.0287 18.6494 36.4233 19.0448 35.9193 19.7974C34.6573 18.7952 32.8114 18.8765 31.645 20.0429L30.5208 21.1671C30.1449 21.543 29.9379 22.0426 29.9379 22.5742C29.9379 23.1057 30.1449 23.6054 30.5208 23.9812L31.1663 24.6267L28.0719 27.7211C28.0531 27.7399 28.0354 27.7599 28.0188 27.7808L25.4715 31.0024C24.5145 32.2127 23.2373 33.117 21.7817 33.6164L16.7623 35.3065C16.0435 35.5176 15.3841 35.9089 14.8543 36.4386L14.4241 36.8688L10.5785 33.0231L6.73119 29.1761L9.75632 26.151C9.80536 26.1019 9.8467 26.0458 9.87895 25.9844C10.9071 24.0247 12.3499 19.0622 13.1183 16.2786C13.4171 15.1963 14.0317 14.2465 14.8955 13.5318L21.6155 7.9724C22.2018 7.48734 22.9713 7.26093 23.727 7.3515C24.4082 7.43306 27.0168 7.73269 28.7212 7.92825C27.698 9.01988 26.9217 10.2763 26.4079 11.6722Z" fill="#333333"/>
</g>
</g>
</g>
<defs>
<clipPath id="clip0_466_10416">
<rect width="48" height="48" fill="white"/>
</clipPath>
<clipPath id="clip1_466_10416">
<rect width="48" height="48" fill="white"/>
</clipPath>
</defs>
</svg>
