<svg width="93" height="16" viewBox="0 0 93 16" fill="none" xmlns="http://www.w3.org/2000/svg">
<rect width="93" height="16" fill="white"/>
<rect width="93" height="16" rx="2" fill="url(#paint0_linear_592_42410)"/>
<path d="M8.3916 4.86133C9.31283 4.86133 9.98503 5.0599 10.4082 5.45703C10.8314 5.85091 11.043 6.39453 11.043 7.08789C11.043 7.40039 10.9958 7.69987 10.9014 7.98633C10.807 8.26953 10.6523 8.52181 10.4375 8.74316C10.2259 8.96452 9.94271 9.1403 9.58789 9.27051C9.23307 9.39746 8.79525 9.46094 8.27441 9.46094H7.625V12H6.11133V4.86133H8.3916ZM8.31348 6.10156H7.625V8.2207H8.12305C8.40625 8.2207 8.65202 8.18327 8.86035 8.1084C9.06868 8.03353 9.22982 7.91634 9.34375 7.75684C9.45768 7.59733 9.51465 7.39225 9.51465 7.1416C9.51465 6.79004 9.41699 6.52962 9.22168 6.36035C9.02637 6.18783 8.72363 6.10156 8.31348 6.10156ZM16.902 12H12.7906V4.86133H16.902V6.10156H14.3043V7.66895H16.7213V8.90918H14.3043V10.75H16.902V12ZM24.6164 12H22.8977L20.3098 8.38184V12H18.7961V4.86133H20.3098V8.31836L22.8684 4.86133H24.4797L21.8771 8.28906L24.6164 12ZM32.3943 8.4209C32.3943 8.97103 32.326 9.47233 32.1893 9.9248C32.0525 10.374 31.8442 10.7614 31.5643 11.0869C31.2876 11.4124 30.936 11.6631 30.5096 11.8389C30.0831 12.0114 29.5786 12.0977 28.9959 12.0977C28.4132 12.0977 27.9087 12.0114 27.4822 11.8389C27.0558 11.6631 26.7026 11.4124 26.4227 11.0869C26.146 10.7614 25.9393 10.3724 25.8025 9.91992C25.6658 9.46745 25.5975 8.96452 25.5975 8.41113C25.5975 7.6722 25.7179 7.0293 25.9588 6.48242C26.2029 5.93229 26.5773 5.50586 27.0818 5.20312C27.5864 4.90039 28.2277 4.74902 29.0057 4.74902C29.7804 4.74902 30.4168 4.90039 30.9148 5.20312C31.4161 5.50586 31.7872 5.93229 32.0281 6.48242C32.2723 7.03255 32.3943 7.67871 32.3943 8.4209ZM27.1844 8.4209C27.1844 8.91895 27.2462 9.34863 27.3699 9.70996C27.4969 10.068 27.6938 10.3447 27.9607 10.54C28.2277 10.7321 28.5727 10.8281 28.9959 10.8281C29.4256 10.8281 29.7739 10.7321 30.0408 10.54C30.3077 10.3447 30.5014 10.068 30.6219 9.70996C30.7456 9.34863 30.8074 8.91895 30.8074 8.4209C30.8074 7.6722 30.6674 7.08301 30.3875 6.65332C30.1076 6.22363 29.6469 6.00879 29.0057 6.00879C28.5792 6.00879 28.2309 6.10645 27.9607 6.30176C27.6938 6.49382 27.4969 6.77051 27.3699 7.13184C27.2462 7.48991 27.1844 7.9196 27.1844 8.4209ZM37.2963 12L35.5775 6.39941H35.5336C35.5401 6.53288 35.5499 6.7347 35.5629 7.00488C35.5792 7.27181 35.5938 7.55664 35.6068 7.85938C35.6199 8.16211 35.6264 8.43555 35.6264 8.67969V12H34.2738V4.86133H36.3344L38.0238 10.3203H38.0531L39.8451 4.86133H41.9057V12H40.4945V8.62109C40.4945 8.39648 40.4978 8.1377 40.5043 7.84473C40.5141 7.55176 40.5255 7.27344 40.5385 7.00977C40.5515 6.74284 40.5613 6.54264 40.5678 6.40918H40.5238L38.683 12H37.2963ZM48.2188 12H44.1074V4.86133H48.2188V6.10156H45.6211V7.66895H48.0381V8.90918H45.6211V10.75H48.2188V12ZM55.9625 12H54.4537V8.91895H51.6266V12H50.1129V4.86133H51.6266V7.65918H54.4537V4.86133H55.9625V12ZM63.76 4.86133V10.7402H64.7121V14.0801H63.2521V12H58.7795V14.0801H57.3195V10.7402H57.8713C58.0568 10.3691 58.2359 9.97689 58.4084 9.56348C58.5809 9.15007 58.7421 8.70573 58.8918 8.23047C59.0415 7.75521 59.1766 7.23926 59.2971 6.68262C59.4175 6.12598 59.5184 5.51888 59.5998 4.86133H63.76ZM62.2512 6.12109H60.801C60.7521 6.46615 60.6854 6.83398 60.6008 7.22461C60.5161 7.61523 60.4152 8.014 60.298 8.4209C60.1841 8.82454 60.0555 9.22331 59.9123 9.61719C59.7723 10.0111 59.6226 10.3854 59.4631 10.7402H62.2512V6.12109ZM71.948 4.86133L69.7361 9.91016C69.5376 10.3659 69.326 10.7581 69.1014 11.0869C68.8768 11.4124 68.5919 11.6631 68.2469 11.8389C67.9018 12.0114 67.4493 12.0977 66.8895 12.0977C66.7137 12.0977 66.5232 12.0846 66.3182 12.0586C66.1131 12.0358 65.9227 12 65.7469 11.9512V10.6523C65.9096 10.7142 66.0854 10.7598 66.2742 10.7891C66.4663 10.8151 66.6469 10.8281 66.8162 10.8281C67.0376 10.8281 67.2166 10.7907 67.3533 10.7158C67.49 10.641 67.5991 10.54 67.6805 10.4131C67.7618 10.2861 67.8302 10.1445 67.8855 9.98828L65.4148 4.86133H67.0164L68.3494 7.95215C68.3787 8.01725 68.4161 8.10514 68.4617 8.21582C68.5105 8.32324 68.5577 8.43392 68.6033 8.54785C68.6521 8.65853 68.6896 8.75618 68.7156 8.84082H68.7693C68.7954 8.75944 68.8296 8.66178 68.8719 8.54785C68.9174 8.43066 68.9646 8.31185 69.0135 8.19141C69.0623 8.06771 69.1063 7.95703 69.1453 7.85938L70.3855 4.86133H71.948ZM77.3578 12H73.2465V4.86133H77.3578V6.10156H74.7602V7.66895H77.1771V8.90918H74.7602V10.75H77.3578V12ZM82.2744 12L80.5557 6.39941H80.5117C80.5182 6.53288 80.528 6.7347 80.541 7.00488C80.5573 7.27181 80.5719 7.55664 80.585 7.85938C80.598 8.16211 80.6045 8.43555 80.6045 8.67969V12H79.252V4.86133H81.3125L83.002 10.3203H83.0312L84.8232 4.86133H86.8838V12H85.4727V8.62109C85.4727 8.39648 85.4759 8.1377 85.4824 7.84473C85.4922 7.55176 85.5036 7.27344 85.5166 7.00977C85.5296 6.74284 85.5394 6.54264 85.5459 6.40918H85.502L83.6611 12H82.2744Z" fill="url(#paint1_linear_592_42410)"/>
<defs>
<linearGradient id="paint0_linear_592_42410" x1="15.909" y1="-8.66857" x2="43.9218" y2="42.742" gradientUnits="userSpaceOnUse">
<stop stop-color="#454545"/>
<stop offset="1" stop-color="#0D0D0D"/>
</linearGradient>
<linearGradient id="paint1_linear_592_42410" x1="19.1202" y1="-8.51918" x2="48.3474" y2="39.9237" gradientUnits="userSpaceOnUse">
<stop stop-color="#FFA800"/>
<stop offset="0.3669" stop-color="#FCEA89"/>
<stop offset="1" stop-color="#D5A012"/>
</linearGradient>
</defs>
</svg>
