<svg width="12" height="13" viewBox="0 0 12 13" fill="none" xmlns="http://www.w3.org/2000/svg">
<path d="M11.5908 0.689056C11.8565 0.96833 12.0027 1.34026 11.9985 1.72573C11.9942 2.11119 11.8396 2.47977 11.5678 2.75306L8.04875 6.25106L11.5748 9.77306C11.8471 10.047 11.9999 10.4177 11.9995 10.804C11.9991 11.1903 11.8457 11.5607 11.5728 11.8341C11.3065 12.1 10.9456 12.2494 10.5693 12.2494C10.1929 12.2494 9.83201 12.1 9.56575 11.8341L5.99975 8.28905L2.43375 11.8341C2.1675 12.1 1.80657 12.2494 1.43025 12.2494C1.05394 12.2494 0.693006 12.1 0.426753 11.8341C0.15383 11.5607 0.000375553 11.1903 6.88406e-07 10.804C-0.000374176 10.4177 0.152361 10.047 0.424753 9.77306L3.95075 6.25106L0.431753 2.75306C0.159873 2.47977 0.00534943 2.11119 0.00105402 1.72573C-0.00324138 1.34026 0.14303 0.96833 0.408753 0.689056C0.539452 0.552388 0.696132 0.443203 0.869598 0.367907C1.04306 0.292611 1.22982 0.252722 1.41892 0.250579C1.60801 0.248437 1.79562 0.284085 1.97075 0.355431C2.14588 0.426777 2.30499 0.532384 2.43875 0.666055L5.99975 4.20606L9.56075 0.666055C9.69451 0.532384 9.85363 0.426777 10.0288 0.355431C10.2039 0.284085 10.3915 0.248437 10.5806 0.250579C10.7697 0.252722 10.9564 0.292611 11.1299 0.367907C11.3034 0.443203 11.4601 0.552388 11.5908 0.689056Z" fill="#F15B5B"/>
</svg>
