<svg width="16" height="16" viewBox="0 0 16 16" fill="none" xmlns="http://www.w3.org/2000/svg">
<path d="M9.86753 12.9921L8.00253 14.8571L9.86753 12.9921ZM8.00253 14.8571L6.13853 12.9921L8.00253 14.8571ZM8.00253 14.8571V10.1101V14.8571ZM6.13653 3.00807L8.00153 1.14307L6.13653 3.00807ZM8.00153 1.14307L9.86553 3.00807L8.00153 1.14307ZM8.00253 1.14307V5.89007V1.14307ZM3.00953 9.86507L1.14453 8.00107L3.00953 9.86507ZM1.14453 8.00107L3.00953 6.13607L1.14453 8.00107ZM1.14453 8.00107H5.89153H1.14453ZM12.9935 6.13507L14.8585 8.00007L12.9935 6.13507ZM14.8585 8.00007L12.9935 9.86407L14.8585 8.00007ZM14.8585 8.00007H10.1115H14.8585Z" fill="#333333"/>
<path d="M9.86753 12.9921L8.00253 14.8571M8.00253 14.8571L6.13853 12.9921M8.00253 14.8571V10.1101M6.13653 3.00807L8.00153 1.14307L9.86553 3.00807M8.00253 1.14307V5.89007M3.00953 9.86507L1.14453 8.00107M1.14453 8.00107L3.00953 6.13607M1.14453 8.00107H5.89153M12.9935 6.13507L14.8585 8.00007M14.8585 8.00007L12.9935 9.86407M14.8585 8.00007H10.1115" stroke="#333333" stroke-width="1.3" stroke-linecap="round" stroke-linejoin="round"/>
</svg>
