<svg width="18" height="18" viewBox="0 0 18 18" fill="none" xmlns="http://www.w3.org/2000/svg">
<rect x="0.5" y="0.499512" width="17" height="17" rx="8.5" stroke="#A5A5A5"/>
<g clip-path="url(#clip0_2_2038)">
<path fill-rule="evenodd" clip-rule="evenodd" d="M8.02851 12.4379C8.06664 12.3855 8.10803 12.3354 8.15245 12.2879L8.15844 12.2821C8.56343 11.8933 9.21738 11.8958 9.61906 12.2879C9.8124 12.4766 9.92018 12.732 9.91859 12.9978C9.92353 13.1271 9.90248 13.2561 9.85661 13.3777C9.76271 13.6289 9.55836 13.8267 9.29889 13.9176C9.0489 14.0245 8.76393 14.0245 8.51394 13.9176C8.25446 13.8267 8.05012 13.6289 7.95622 13.3777C7.89839 13.259 7.87009 13.1289 7.87359 12.9978C7.86851 12.9312 7.86851 12.8644 7.87359 12.7978C7.88489 12.7352 7.90578 12.6745 7.93555 12.6178C7.95817 12.5541 7.98941 12.4936 8.02851 12.4379ZM6.2004 5.49922C6.75424 4.5706 7.77806 3.99882 8.88575 3.99951C10.1806 4.00924 11.3327 4.79743 11.7744 5.97577C12.3581 7.53296 11.5272 9.25335 9.91859 9.81839V9.99835C9.91859 10.5505 9.45618 10.9981 8.88575 10.9981C8.31534 10.9981 7.85293 10.5505 7.85293 9.99835V8.99854C7.85293 8.44636 8.31534 7.99874 8.88575 7.99874C9.45618 7.99874 9.91859 7.55111 9.91859 6.99892C9.91859 6.44675 9.45618 5.99912 8.88575 5.99912C8.51529 5.9977 8.17243 6.18845 7.98719 6.49902C7.97374 6.52392 7.95921 6.54825 7.94364 6.57196C7.63763 7.03795 6.99931 7.17557 6.51794 6.87935C6.03655 6.58311 5.89439 5.96521 6.2004 5.49922Z" fill="#A5A5A5"/>
</g>
<defs>
<clipPath id="clip0_2_2038">
<rect width="7.5" height="10" fill="white" transform="translate(5.25 3.99951)"/>
</clipPath>
</defs>
</svg>
