<svg width="20" height="21" viewBox="0 0 20 21" fill="none" xmlns="http://www.w3.org/2000/svg">
<path opacity="0.48" fill-rule="evenodd" clip-rule="evenodd" d="M9.80394 2.46002C11.8842 2.46002 13.8792 3.28639 15.3501 4.75733C16.8211 6.22827 17.6474 8.2233 17.6474 10.3035C17.6474 12.3837 16.8211 14.3788 15.3501 15.8497C13.8792 17.3207 11.8842 18.147 9.80394 18.147C7.72384 18.147 5.72895 17.3207 4.2581 15.8499C2.78725 14.379 1.96094 12.3841 1.96094 10.304C1.96094 8.22393 2.78725 6.22903 4.2581 4.75818C5.72895 3.28734 7.72384 2.46002 9.80394 2.46002ZM9.80394 3.44102C8.90268 3.44102 8.01024 3.61854 7.17758 3.96344C6.34492 4.30833 5.58835 4.81386 4.95106 5.45115C4.31378 6.08844 3.80825 6.84501 3.46335 7.67767C3.11845 8.51032 2.94094 9.40276 2.94094 10.304C2.94094 11.2053 3.11845 12.0977 3.46335 12.9304C3.80825 13.763 4.31378 14.5196 4.95106 15.1569C5.58835 15.7942 6.34492 16.2997 7.17758 16.6446C8.01024 16.9895 8.90268 17.167 9.80394 17.167C11.6241 17.167 13.3697 16.444 14.6568 15.1569C15.9439 13.8698 16.6669 12.1242 16.6669 10.304C16.6669 8.48384 15.9439 6.73821 14.6568 5.45115C13.3697 4.16409 11.6241 3.44102 9.80394 3.44102ZM10.5389 9.37302V14.275H9.06994V9.37302H10.5399H10.5389ZM9.80394 6.38302C9.93263 6.38302 10.0601 6.40837 10.179 6.45762C10.2979 6.50687 10.4059 6.57906 10.4969 6.67006C10.5879 6.76106 10.6601 6.86909 10.7093 6.98799C10.7586 7.10689 10.7839 7.23433 10.7839 7.36302C10.7839 7.49172 10.7586 7.61915 10.7093 7.73805C10.6601 7.85695 10.5879 7.96498 10.4969 8.05599C10.4059 8.14699 10.2979 8.21917 10.179 8.26842C10.0601 8.31767 9.93263 8.34302 9.80394 8.34302C9.54403 8.34302 9.29476 8.23977 9.11097 8.05599C8.92719 7.8722 8.82394 7.62293 8.82394 7.36302C8.82394 7.10311 8.92719 6.85384 9.11097 6.67006C9.29476 6.48627 9.54403 6.38302 9.80394 6.38302Z" fill="#858585"/>
</svg>
