<svg width="24" height="24" viewBox="0 0 24 24" fill="none" xmlns="http://www.w3.org/2000/svg">
<path fill-rule="evenodd" clip-rule="evenodd" d="M21 4V13.506C21 16.906 18.762 19.912 15.476 20.928L12 22L8.524 20.928C5.238 19.912 3 16.906 3 13.506V4L12 2L21 4ZM11.523 16.29V15.6H13.142C13.372 15.6 13.553 15.543 13.687 15.428C13.7541 15.3697 13.8071 15.2969 13.8421 15.2152C13.8771 15.1334 13.8931 15.0448 13.889 14.956C13.8931 14.8665 13.8771 14.7771 13.8421 14.6946C13.8072 14.612 13.7542 14.5384 13.687 14.479C13.553 14.362 13.371 14.304 13.142 14.304H11.56V13.25H12.966C13.718 13.25 14.351 13.12 14.866 12.862C15.3556 12.6273 15.761 12.2474 16.027 11.774C16.287 11.308 16.416 10.764 16.416 10.144C16.416 9.504 16.281 8.949 16.013 8.478C15.7416 8.00423 15.333 7.62385 14.841 7.387C14.328 7.131 13.711 7.002 12.988 7.002H11.09C10.577 7.002 10.197 7.126 9.95 7.372C9.704 7.619 9.581 8.003 9.581 8.526V11.705H9.04C8.771 11.709 8.562 11.781 8.41 11.921C8.33406 11.9925 8.27446 12.0795 8.23528 12.1762C8.19611 12.2728 8.17827 12.3768 8.183 12.481C8.183 12.721 8.259 12.907 8.41 13.041C8.562 13.176 8.771 13.245 9.04 13.25H9.582V14.305H8.93C8.696 14.305 8.513 14.363 8.38 14.48C8.31402 14.5401 8.26215 14.614 8.22809 14.6964C8.19403 14.7789 8.17863 14.8679 8.183 14.957C8.183 15.157 8.249 15.314 8.381 15.429C8.513 15.544 8.696 15.601 8.931 15.601H9.619V16.29C9.667 16.539 9.779 16.731 9.952 16.868C10.1285 17.0057 10.3472 17.0781 10.571 17.073C10.7948 17.0781 11.0135 17.0057 11.19 16.868C11.3682 16.7228 11.4868 16.517 11.523 16.29Z" fill="#77C026"/>
<path fill-rule="evenodd" clip-rule="evenodd" d="M12.4818 11.705C13.1458 11.705 13.6318 11.585 13.9398 11.345C14.2478 11.106 14.4008 10.708 14.4008 10.152C14.4008 9.60003 14.2548 9.20003 13.9608 8.95103C13.6688 8.70103 13.2308 8.57703 12.6508 8.57703H11.5518V11.705H12.4818Z" fill="#77C026"/>
</svg>
