<svg width="16" height="16" viewBox="0 0 16 16" fill="none" xmlns="http://www.w3.org/2000/svg">
<g clip-path="url(#clip0_466_13029)">
<path d="M1.48145 3.48291L3.40945 6.94591V9.05891L1.48445 12.5159L1.48245 3.48391L1.48145 3.48291Z" fill="#5B57A2"/>
<path d="M8.88281 5.68582L10.6888 4.57282L14.3858 4.56982L8.88281 7.95882V5.68582Z" fill="#D90751"/>
<path d="M8.87317 3.462L8.88317 8.047L6.95117 6.854V0L8.87317 3.462Z" fill="#FAB718"/>
<path d="M14.3862 4.569L10.6892 4.572L8.87317 3.461L6.95117 0L14.3862 4.569Z" fill="#ED6F26"/>
<path d="M8.88317 12.5342V10.3102L6.95117 9.13916L6.95217 16.0002L8.88317 12.5342Z" fill="#63B22F"/>
<path d="M10.6854 11.4319L3.40945 6.94591L1.48145 3.48291L14.3784 11.4269L10.6854 11.4319Z" fill="#1487C9"/>
<path d="M6.95215 15.9998L8.88315 12.5338L10.6851 11.4308L14.3781 11.4258L6.95215 15.9998Z" fill="#017F36"/>
<path d="M1.48438 12.515L6.96737 9.13895L5.12438 8.00195L3.41038 9.05795L1.48538 12.515H1.48438Z" fill="#984995"/>
</g>
<defs>
<clipPath id="clip0_466_13029">
<rect width="16" height="16" fill="white"/>
</clipPath>
</defs>
</svg>
