<svg width="24" height="24" viewBox="0 0 24 24" fill="none" xmlns="http://www.w3.org/2000/svg">
<g clip-path="url(#clip0_252_2659)">
<path fill-rule="evenodd" clip-rule="evenodd" d="M16.167 16.167C19.297 13.037 19.297 7.962 16.167 4.833C13.037 1.704 7.96196 1.703 4.83296 4.833C1.70396 7.963 1.70296 13.038 4.83296 16.167C7.96297 19.296 13.038 19.297 16.167 16.167ZM14.682 14.682C16.982 12.382 16.982 8.627 14.682 6.317C12.382 4.007 8.62696 4.017 6.31696 6.317C4.00696 8.61699 4.01696 12.372 6.31696 14.682C8.61696 16.992 12.372 16.982 14.682 14.682Z" fill="#8A8A8A"/>
<path d="M14.2481 16.31L16.3081 14.25L20.7151 18.657C20.9877 18.9306 21.1408 19.3012 21.1408 19.6875C21.1408 20.0738 20.9877 20.4444 20.7151 20.718C20.4414 20.9907 20.0709 21.1438 19.6846 21.1438C19.2983 21.1438 18.9277 20.9907 18.6541 20.718L14.2471 16.311L14.2481 16.31Z" fill="#8A8A8A"/>
</g>
<defs>
<clipPath id="clip0_252_2659">
<rect width="24" height="24" fill="white"/>
</clipPath>
</defs>
</svg>
