<svg width="20" height="20" viewBox="0 0 20 20" fill="none" xmlns="http://www.w3.org/2000/svg">
<path d="M18.3334 9.99997C18.3329 10.157 18.2881 10.3108 18.2041 10.4435C18.12 10.5762 18.0002 10.6824 17.8584 10.75L3.69172 17.4166C3.54798 17.4859 3.38738 17.5125 3.22899 17.4931C3.07061 17.4738 2.9211 17.4094 2.79823 17.3076C2.67537 17.2058 2.58431 17.0709 2.53589 16.9189C2.48746 16.7668 2.4837 16.6041 2.52506 16.45L3.77506 11.8666C3.80985 11.7401 3.87402 11.6236 3.96236 11.5266C4.05069 11.4296 4.16068 11.3548 4.28339 11.3083L7.67506 9.99997L4.28339 8.69164C4.16223 8.64409 4.0539 8.56881 3.96708 8.47186C3.88025 8.3749 3.81734 8.25895 3.78339 8.13331L2.53339 3.54997C2.49323 3.39689 2.49749 3.23553 2.54568 3.08478C2.59387 2.93403 2.684 2.80012 2.80551 2.69871C2.92702 2.59731 3.0749 2.5326 3.23184 2.51217C3.38878 2.49173 3.54829 2.5164 3.69172 2.58331L17.8584 9.24997C18.0002 9.31752 18.12 9.42376 18.2041 9.55646C18.2881 9.68915 18.3329 9.8429 18.3334 9.99997Z" fill="#CCCBC8"/>
</svg>
