<svg width="72" height="20" viewBox="0 0 72 20" fill="none" xmlns="http://www.w3.org/2000/svg">
<g clip-path="url(#clip0_1_997)">
<path d="M4.99998 0C2.23874 0 0 2.23841 0 4.99994V15.0002C0 17.7616 2.23874 20 4.99998 20H15.0002C17.7616 20 20.0003 17.7616 20.0003 15.0002V0H4.99998Z" fill="#B5B6BA"/>
<path d="M5.46628 7.98649C5.30271 7.27121 6.01637 6.6383 6.93949 6.6383C7.77102 6.6383 8.6045 6.82474 8.92164 7.9841H9.98758V9.75337C8.6586 8.66095 5.77742 9.34638 5.46628 7.98649ZM16.5266 7.49668H14.1254L11.8411 9.9985V5.0001H9.98758V6.21121C9.9271 6.13314 9.86333 6.05556 9.79192 5.97985C9.11791 5.26635 8.1469 4.90461 6.90537 4.90461C5.46961 4.90461 4.65332 5.54719 4.22126 6.08614C3.68465 6.75524 3.44507 7.66854 3.61087 8.41265C4.04038 10.339 5.82786 10.6466 7.141 10.8174C8.17769 10.9522 9.1695 11.1404 9.14318 12.0644C9.11572 13.0234 8.03475 13.2592 7.3252 13.2592C5.47725 13.2592 5.4149 11.8932 5.4149 11.8932H3.42746C3.4565 12.4062 3.61151 13.2297 4.24299 13.9364C4.93443 14.7107 5.97149 15.103 7.3252 15.103C8.36364 15.103 9.30959 14.7648 9.98758 14.164V14.9896H11.8411V12.6301L12.4968 11.9128L14.3689 14.9896H16.5259L13.8017 10.4832L16.5266 7.49668Z" fill="#FBFBFB"/>
<path d="M28.3584 9.47489C28.3067 9.38142 28.2341 9.288 28.1615 9.1947C28.0783 9.11172 27.985 9.02874 27.8607 8.95607C27.7464 8.88341 27.6012 8.83166 27.4353 8.77979C27.2691 8.7382 27.0826 8.71744 26.8543 8.71744C26.761 8.71744 26.6469 8.72792 26.5223 8.74852C26.3978 8.77979 26.2629 8.82118 26.1281 8.88341C25.9932 8.95607 25.8583 9.04954 25.7235 9.16375C25.5991 9.27769 25.4745 9.4335 25.3811 9.62005C25.2671 9.81729 25.184 10.0453 25.1216 10.315C25.0596 10.5847 25.0285 10.9063 25.0285 11.2799C25.0285 11.6845 25.0699 12.0371 25.1529 12.3588C25.2359 12.6805 25.3604 12.9503 25.5159 13.1679C25.6717 13.3859 25.8688 13.5517 26.097 13.666C26.3148 13.7801 26.5741 13.8423 26.8543 13.8423C27.1863 13.8423 27.4456 13.7904 27.6531 13.6971C27.8607 13.5933 28.0266 13.4688 28.151 13.3236C28.2756 13.1786 28.369 13.0228 28.4207 12.8671C28.4829 12.7116 28.535 12.5663 28.5659 12.4522H30.1116C30.0288 12.919 29.8939 13.3236 29.6967 13.666C29.4996 14.0082 29.261 14.2883 28.981 14.5166C28.7008 14.7449 28.3896 14.9109 28.0369 15.025C27.6841 15.1392 27.3107 15.1909 26.9166 15.1909C26.3667 15.1909 25.8688 15.0976 25.4434 14.9109C25.0181 14.7344 24.655 14.4649 24.3645 14.1329C24.074 13.7904 23.8561 13.3755 23.7005 12.8879C23.545 12.4108 23.4724 11.8713 23.4724 11.2799C23.4724 10.8235 23.5139 10.4085 23.6072 10.035C23.6902 9.66148 23.8148 9.32956 23.9702 9.03922C24.1259 8.74852 24.3125 8.51005 24.5305 8.29205C24.738 8.08454 24.9662 7.90825 25.2256 7.7734C25.4745 7.63851 25.734 7.53477 26.014 7.46223C26.294 7.39988 26.5741 7.36881 26.8543 7.36881C27.2588 7.36881 27.622 7.41052 27.9332 7.49334C28.2445 7.5868 28.5245 7.69054 28.763 7.83575C29.0016 7.98092 29.1988 8.13657 29.3648 8.32317C29.5308 8.51005 29.6759 8.69681 29.7799 8.88341C29.8836 9.08061 29.9561 9.27769 30.0185 9.46441C30.0702 9.66149 30.1013 9.83793 30.1116 10.0039H28.5556L28.4829 9.75495C28.4519 9.66148 28.4104 9.57867 28.3584 9.47489Z" fill="#B5B6BA"/>
<path d="M34.2551 9.48519H36.1642L33.8818 11.7779L36.2574 15.0042H34.39L32.7716 12.6699L32.1907 13.2614V15.0042H30.7593V9.48519H32.1907V11.5808L34.2551 9.48519Z" fill="#B5B6BA"/>
<path d="M37.5584 12.8567C37.6001 13.064 37.6726 13.2508 37.7867 13.4065C37.8904 13.5724 38.0253 13.7073 38.1913 13.8007C38.3572 13.8942 38.5647 13.9459 38.8139 13.9459C39.073 13.9459 39.291 13.8942 39.4569 13.8007C39.623 13.7073 39.7579 13.5724 39.8615 13.4169C39.9653 13.2613 40.038 13.085 40.0793 12.8773C40.1208 12.6698 40.1415 12.4624 40.1415 12.2446C40.1415 12.0267 40.1208 11.8192 40.0793 11.6118C40.038 11.4043 39.9653 11.2175 39.8615 11.062C39.7579 10.9062 39.623 10.7819 39.4569 10.6781C39.291 10.5846 39.073 10.5432 38.8139 10.5432C38.5647 10.5432 38.3572 10.5951 38.1913 10.6886C38.0253 10.7819 37.8904 10.9165 37.7867 11.0724C37.6726 11.2383 37.6001 11.4146 37.5584 11.6221C37.5169 11.8295 37.4859 12.037 37.4859 12.2446C37.4859 12.4521 37.5169 12.6595 37.5584 12.8567ZM36.1891 11.0724C36.3136 10.7092 36.5002 10.3981 36.7492 10.1386C36.9983 9.87936 37.2888 9.68216 37.6415 9.53683C37.994 9.39162 38.378 9.31912 38.8139 9.31912C39.2598 9.31912 39.6541 9.39162 40.0067 9.53683C40.3594 9.68216 40.6499 9.87936 40.8884 10.1386C41.1272 10.3981 41.314 10.7092 41.4489 11.0724C41.5732 11.4252 41.6353 11.8192 41.6353 12.2446C41.6353 12.6698 41.5732 13.064 41.4489 13.4169C41.314 13.7799 41.1272 14.0911 40.8884 14.3505C40.6499 14.5994 40.3594 14.807 40.0067 14.9523C39.6541 15.0975 39.2598 15.1702 38.8139 15.1702C38.378 15.1702 37.994 15.0975 37.6415 14.9523C37.2888 14.807 36.9983 14.5994 36.7492 14.3505C36.5002 14.0911 36.3136 13.7799 36.1891 13.4169C36.0645 13.064 35.992 12.6698 35.992 12.2446C35.992 11.8192 36.0645 11.4252 36.1891 11.0724Z" fill="#B5B6BA"/>
<path d="M44.3328 10.6468L44.3125 11.674C44.2914 12.2549 44.25 12.7632 44.198 13.1989C44.1358 13.6348 44.0424 13.9978 43.9181 14.2881C43.7833 14.5788 43.607 14.7965 43.3889 14.9523C43.1711 15.0975 42.8807 15.1702 42.5383 15.1702C42.3722 15.1702 42.2373 15.1597 42.1131 15.1494C41.9884 15.1286 41.8949 15.0975 41.8121 15.0662V13.8629C41.8641 13.8836 41.9262 13.9045 41.9989 13.9253C42.0712 13.9356 42.1545 13.9459 42.2581 13.9459C42.3722 13.9459 42.4656 13.9148 42.5485 13.8422C42.6317 13.7799 42.7044 13.6659 42.7666 13.4896C42.8287 13.313 42.8702 13.0744 42.9116 12.7632C42.9429 12.4521 42.9636 12.0578 42.9741 11.5704L43.0156 9.48509H47.4555V15.004H46.0343V10.6468H44.3328Z" fill="#B5B6BA"/>
<path d="M51.9965 9.48519H53.9052L51.6228 11.7779L53.9986 15.0042H52.1314L50.5128 12.6699L49.9319 13.2614V15.0042H48.5005V9.48519H49.9319V11.5808L51.9965 9.48519Z" fill="#B5B6BA"/>
<path d="M55.2996 12.8567C55.341 13.064 55.4137 13.2508 55.5279 13.4065C55.6314 13.5724 55.7663 13.7073 55.9324 13.8007C56.0986 13.8942 56.3057 13.9459 56.5551 13.9459C56.8142 13.9459 57.032 13.8942 57.1981 13.8007C57.3642 13.7073 57.4991 13.5724 57.6026 13.4169C57.7066 13.2613 57.7789 13.085 57.8203 12.8773C57.8622 12.6698 57.8829 12.4624 57.8829 12.2446C57.8829 12.0267 57.8622 11.8192 57.8203 11.6118C57.7789 11.4043 57.7066 11.2175 57.6026 11.062C57.4991 10.9062 57.3642 10.7819 57.1981 10.6781C57.032 10.5846 56.8142 10.5432 56.5551 10.5432C56.3057 10.5432 56.0986 10.5951 55.9324 10.6886C55.7663 10.7819 55.6314 10.9165 55.5279 11.0724C55.4137 11.2383 55.341 11.4146 55.2996 11.6221C55.2582 11.8295 55.2269 12.037 55.2269 12.2446C55.2269 12.4521 55.2582 12.6595 55.2996 12.8567ZM53.9304 11.0724C54.0547 10.7092 54.2415 10.3981 54.4905 10.1386C54.7395 9.87936 55.0299 9.68216 55.3825 9.53683C55.7354 9.39162 56.1193 9.31912 56.5551 9.31912C57.0011 9.31912 57.3955 9.39162 57.748 9.53683C58.1006 9.68216 58.391 9.87936 58.6299 10.1386C58.8683 10.3981 59.0551 10.7092 59.19 11.0724C59.3143 11.4252 59.3764 11.8192 59.3764 12.2446C59.3764 12.6698 59.3143 13.064 59.19 13.4169C59.0551 13.7799 58.8683 14.0911 58.6299 14.3505C58.391 14.5994 58.1006 14.807 57.748 14.9523C57.3955 15.0975 57.0011 15.1702 56.5551 15.1702C56.1193 15.1702 55.7354 15.0975 55.3825 14.9523C55.0299 14.807 54.7395 14.5994 54.4905 14.3505C54.2415 14.0911 54.0547 13.7799 53.9304 13.4169C53.8057 13.064 53.733 12.6698 53.733 12.2446C53.733 11.8192 53.8057 11.4252 53.9304 11.0724Z" fill="#B5B6BA"/>
<path d="M63.0865 13.9254C63.2112 13.8733 63.3046 13.8215 63.3773 13.749C63.4395 13.6867 63.4915 13.614 63.5122 13.5311C63.5329 13.448 63.543 13.3755 63.543 13.3028C63.543 13.1679 63.5329 13.0538 63.4915 12.9606C63.4602 12.8774 63.4082 12.8048 63.3253 12.753C63.2526 12.6908 63.149 12.6596 63.0244 12.6388C62.9001 12.6182 62.7546 12.6077 62.5784 12.6077H61.4788V13.9874H62.5784C62.7859 13.9874 62.9622 13.9668 63.0865 13.9254ZM62.9935 11.6119C63.0971 11.5808 63.1799 11.5496 63.2425 11.4979C63.3046 11.4561 63.3562 11.3941 63.3773 11.3212C63.4082 11.2487 63.4187 11.1553 63.4187 11.0621C63.4187 10.979 63.4082 10.9063 63.3773 10.8338C63.3562 10.7715 63.3046 10.7093 63.2425 10.6575C63.1905 10.6158 63.1072 10.5744 63.0036 10.5433C62.9001 10.5121 62.7754 10.5017 62.6198 10.5017H61.4788V11.6533H62.5784C62.7441 11.6533 62.8789 11.6327 62.9935 11.6119ZM63.6365 9.54738C63.8647 9.59929 64.0723 9.67212 64.2587 9.77557C64.4354 9.88979 64.5804 10.035 64.6844 10.2219C64.788 10.4085 64.84 10.6469 64.84 10.9376C64.84 11.1036 64.8294 11.2487 64.788 11.363C64.7571 11.4874 64.7051 11.5912 64.643 11.6741C64.5804 11.7676 64.5081 11.8401 64.4354 11.892C64.3521 11.9542 64.2798 12.0062 64.1864 12.0476C64.4667 12.1411 64.6738 12.2966 64.8193 12.5144C64.9643 12.7322 65.037 12.9813 65.037 13.282C65.037 13.5414 64.9955 13.78 64.9127 13.9874C64.8193 14.1951 64.6946 14.3817 64.5288 14.5269C64.3627 14.6825 64.1653 14.7966 63.9269 14.8798C63.6885 14.9626 63.4289 15.0042 63.1385 15.0042H60.0471V9.48519H62.9001C63.1592 9.48519 63.398 9.50583 63.6365 9.54738Z" fill="#B5B6BA"/>
<path d="M66.9874 12.8567C67.0288 13.064 67.1015 13.2508 67.2157 13.4065C67.3193 13.5724 67.4541 13.7073 67.6202 13.8007C67.7864 13.8942 67.9935 13.9459 68.2429 13.9459C68.502 13.9459 68.7198 13.8942 68.8859 13.8007C69.052 13.7073 69.1869 13.5724 69.2904 13.4169C69.3944 13.2613 69.4667 13.085 69.5082 12.8773C69.55 12.6698 69.5707 12.4624 69.5707 12.2446C69.5707 12.0267 69.55 11.8192 69.5082 11.6118C69.4667 11.4043 69.3944 11.2175 69.2904 11.062C69.1869 10.9062 69.052 10.7819 68.8859 10.6781C68.7198 10.5846 68.502 10.5432 68.2429 10.5432C67.9935 10.5432 67.7864 10.5951 67.6202 10.6886C67.4541 10.7819 67.3193 10.9165 67.2157 11.0724C67.1015 11.2383 67.0288 11.4146 66.9874 11.6221C66.946 11.8295 66.9147 12.037 66.9147 12.2446C66.9147 12.4521 66.946 12.6595 66.9874 12.8567ZM65.6182 11.0724C65.7425 10.7092 65.9293 10.3981 66.1783 10.1386C66.4273 9.87936 66.7177 9.68216 67.0703 9.53683C67.4228 9.39162 67.8071 9.31912 68.2429 9.31912C68.6889 9.31912 69.0829 9.39162 69.4359 9.53683C69.7884 9.68216 70.0788 9.87936 70.3173 10.1386C70.5561 10.3981 70.7429 10.7092 70.8778 11.0724C71.0021 11.4252 71.0642 11.8192 71.0642 12.2446C71.0642 12.6698 71.0021 13.064 70.8778 13.4169C70.7429 13.7799 70.5561 14.0911 70.3173 14.3505C70.0788 14.5994 69.7884 14.807 69.4359 14.9523C69.0829 15.0975 68.6889 15.1702 68.2429 15.1702C67.8071 15.1702 67.4228 15.0975 67.0703 14.9523C66.7177 14.807 66.4273 14.5994 66.1783 14.3505C65.9293 14.0911 65.7425 13.7799 65.6182 13.4169C65.4935 13.064 65.4208 12.6698 65.4208 12.2446C65.4208 11.8192 65.4935 11.4252 65.6182 11.0724Z" fill="#B5B6BA"/>
</g>
<defs>
<clipPath id="clip0_1_997">
<rect width="71.064" height="20" fill="white"/>
</clipPath>
</defs>
</svg>
