<svg width="18" height="17" viewBox="0 0 18 17" fill="none" xmlns="http://www.w3.org/2000/svg">
<path d="M1 5.46576C0.734784 5.46576 0.48043 5.57112 0.292893 5.75865C0.105357 5.94619 0 6.20054 0 6.46576V10.4658C0 10.731 0.105357 10.9853 0.292893 11.1729C0.48043 11.3604 0.734784 11.4658 1 11.4658H4L7.293 14.7588C7.923 15.3888 9 14.9428 9 14.0518V2.87976C9 1.98976 7.923 1.54276 7.293 2.17276L4 5.46576H1ZM7 5.29576V11.6358L4.83 9.46576H2V7.46576H4.83L7 5.29576ZM13.5 8.46576C13.4998 7.62788 13.2657 6.8067 12.824 6.0947C12.3823 5.3827 11.7506 4.80815 11 4.43576V12.4858C12.48 11.7558 13.5 10.2358 13.5 8.46576ZM12.198 0.0577591C11.598 -0.170241 11 0.307759 11 0.947759V1.76576C13.9 2.62576 16 5.30576 16 8.46576C16 11.6258 13.9 14.3158 11 15.1658V15.9738C11 16.6158 11.598 17.0938 12.198 16.8638C15.59 15.5858 18 12.3078 18 8.46576C18 4.62376 15.59 1.34576 12.198 0.0577591Z" fill="#8A8A8A"/>
</svg>
