<svg width="39" height="30" viewBox="0 0 39 30" fill="none" xmlns="http://www.w3.org/2000/svg">
<rect x="0.75" y="0.5" width="37" height="29" rx="2.5" fill="white"/>
<rect x="0.75" y="0.5" width="37" height="29" rx="2.5" stroke="#C5C6C9"/>
<g clip-path="url(#clip0_1_9715)">
<path d="M23.25 17C22.5435 17 21.8942 17.2443 21.3816 17.653L18.1789 15.6513C18.2737 15.2223 18.2737 14.7777 18.1789 14.3487L21.3816 12.347C21.8942 12.7557 22.5435 13 23.25 13C24.9068 13 26.25 11.6568 26.25 10C26.25 8.34316 24.9068 7 23.25 7C21.5932 7 20.25 8.34316 20.25 10C20.25 10.2237 20.2747 10.4416 20.3211 10.6513L17.1184 12.653C16.6058 12.2443 15.9565 12 15.25 12C13.5932 12 12.25 13.3432 12.25 15C12.25 16.6568 13.5932 18 15.25 18C15.9565 18 16.6058 17.7557 17.1184 17.347L20.3211 19.3487C20.2738 19.5626 20.2499 19.781 20.25 20C20.25 21.6568 21.5932 23 23.25 23C24.9068 23 26.25 21.6568 26.25 20C26.25 18.3432 24.9068 17 23.25 17Z" fill="#74767E"/>
</g>
<defs>
<clipPath id="clip0_1_9715">
<rect width="16" height="16" fill="white" transform="translate(11.25 7)"/>
</clipPath>
</defs>
</svg>
