<svg width="14" height="14" viewBox="0 0 14 14" fill="none" xmlns="http://www.w3.org/2000/svg">
<mask id="mask0_2011_182" style="mask-type:alpha" maskUnits="userSpaceOnUse" x="0" y="0" width="14" height="14">
<path d="M6.41199 0.426979C6.58287 0.302752 6.78872 0.23584 6.99999 0.23584C7.21126 0.23584 7.4171 0.302752 7.58799 0.426979L13.545 4.75498C13.7158 4.87914 13.8429 5.05418 13.9081 5.25501C13.9733 5.45585 13.9733 5.67217 13.908 5.87298L11.632 12.876C11.5667 13.0768 11.4396 13.2518 11.2687 13.376C11.0979 13.5001 10.8922 13.567 10.681 13.567H3.31799C3.10681 13.567 2.90107 13.5001 2.73023 13.376C2.55939 13.2518 2.43224 13.0768 2.36699 12.876L0.0919856 5.87298C0.0267074 5.67217 0.0266696 5.45585 0.0918777 5.25501C0.157086 5.05418 0.284193 4.87914 0.454986 4.75498L6.41199 0.426979Z" fill="#177DE6"/>
</mask>
<g mask="url(#mask0_2011_182)">
<path d="M6.41199 0.426979C6.58287 0.302752 6.78872 0.23584 6.99999 0.23584C7.21126 0.23584 7.4171 0.302752 7.58799 0.426979L13.545 4.75498C13.7158 4.87914 13.8429 5.05418 13.9081 5.25501C13.9733 5.45585 13.9733 5.67217 13.908 5.87298L11.632 12.876C11.5667 13.0768 11.4396 13.2518 11.2687 13.376C11.0979 13.5001 10.8922 13.567 10.681 13.567H3.31799C3.10681 13.567 2.90107 13.5001 2.73023 13.376C2.55939 13.2518 2.43224 13.0768 2.36699 12.876L0.0919856 5.87298C0.0267074 5.67217 0.0266696 5.45585 0.0918777 5.25501C0.157086 5.05418 0.284193 4.87914 0.454986 4.75498L6.41199 0.426979Z" fill="#FFDA5B"/>
<path d="M11.287 2.67896L14.134 5.18296L11.409 13.568H2.59298L1.64398 11.786L11.287 2.67896Z" fill="#FFC700"/>
<path d="M6.82099 3.36302C6.83748 3.32947 6.86303 3.30122 6.89476 3.28146C6.92648 3.26169 6.96311 3.25122 7.00049 3.25122C7.03787 3.25122 7.0745 3.26169 7.10623 3.28146C7.13795 3.30122 7.16351 3.32947 7.17999 3.36302L8.27699 5.58502C8.29143 5.61407 8.31272 5.63918 8.33903 5.65817C8.36534 5.67716 8.39587 5.68946 8.42799 5.69402L10.88 6.05002C10.9169 6.05538 10.9516 6.07096 10.9801 6.09499C11.0086 6.11903 11.0299 6.15056 11.0414 6.18604C11.053 6.22151 11.0544 6.2595 11.0455 6.29572C11.0365 6.33194 11.0177 6.36495 10.991 6.39102L9.21699 8.12102C9.19369 8.1436 9.17623 8.17152 9.16613 8.20235C9.15602 8.23319 9.15357 8.26602 9.15899 8.29802L9.57799 10.74C9.58431 10.7768 9.58022 10.8146 9.56618 10.8492C9.55214 10.8837 9.52872 10.9137 9.49855 10.9356C9.46838 10.9576 9.43268 10.9706 9.39547 10.9734C9.35826 10.9761 9.32103 10.9683 9.28799 10.951L7.09299 9.79902C7.06431 9.78395 7.03239 9.77608 6.99999 9.77608C6.96759 9.77608 6.93568 9.78395 6.90699 9.79902L4.71399 10.952C4.68095 10.9693 4.64372 10.9771 4.60652 10.9744C4.56931 10.9716 4.5336 10.9586 4.50343 10.9366C4.47327 10.9147 4.44984 10.8847 4.4358 10.8502C4.42176 10.8156 4.41767 10.7778 4.42399 10.741L4.84299 8.29902C4.84841 8.26702 4.84596 8.23419 4.83585 8.20335C4.82575 8.17252 4.80829 8.1446 4.78499 8.12202L3.00999 6.39202C2.98331 6.36595 2.96444 6.33294 2.95553 6.29672C2.94662 6.2605 2.94801 6.22251 2.95956 6.18704C2.97111 6.15156 2.99234 6.12003 3.02087 6.09599C3.0494 6.07196 3.08408 6.05638 3.12099 6.05102L5.57299 5.69502C5.60511 5.69046 5.63565 5.67816 5.66195 5.65917C5.68826 5.64018 5.70955 5.61507 5.72399 5.58602L6.82099 3.36402V3.36302Z" fill="white"/>
</g>
</svg>
