<svg width="50" height="50" viewBox="0 0 50 50" fill="none" xmlns="http://www.w3.org/2000/svg">
<rect x="0.5" y="0.5" width="49" height="49" rx="9.5" fill="white" stroke="#55a4df"/>
<path d="M25 36C31.0751 36 36 31.0751 36 25C36 18.9249 31.0751 14 25 14C18.9249 14 14 18.9249 14 25C14 31.0751 18.9249 36 25 36Z" fill="#55a4df"/>
<path fill-rule="evenodd" clip-rule="evenodd" d="M18.9794 24.8838C22.1862 23.4867 24.3245 22.5656 25.3944 22.1206C28.4492 20.85 29.084 20.6293 29.4977 20.622C29.5887 20.6204 29.7922 20.643 29.9239 20.7499C30.0352 20.8402 30.0658 20.9622 30.0805 21.0478C30.0951 21.1334 30.1134 21.3285 30.0989 21.4808C29.9333 23.2202 29.2171 27.4412 28.8526 29.3893C28.6984 30.2136 28.3948 30.49 28.1009 30.517C27.4621 30.5758 26.977 30.0949 26.3583 29.6893C25.3902 29.0547 24.8433 28.6596 23.9035 28.0403C22.8175 27.3247 23.5215 26.9313 24.1404 26.2885C24.3024 26.1202 27.1169 23.5602 27.1714 23.328C27.1782 23.2989 27.1845 23.1906 27.1202 23.1335C27.0559 23.0763 26.961 23.0959 26.8925 23.1114C26.7954 23.1334 25.2488 24.1557 22.2526 26.1782C21.8136 26.4796 21.416 26.6265 21.0597 26.6188C20.6669 26.6103 19.9114 26.3967 19.3498 26.2142C18.6609 25.9903 18.1134 25.8719 18.1611 25.4916C18.1859 25.2935 18.4587 25.0909 18.9794 24.8838Z" fill="white"/>
</svg>
