<svg width="20" height="20" viewBox="0 0 20 20" fill="none" xmlns="http://www.w3.org/2000/svg">
<g clip-path="url(#clip0_1_982)">
<path d="M15.484 0H4.51602C2.02189 0 0 2.02189 0 4.51602V15.3918C0 17.8859 2.02189 19.9078 4.51602 19.9078H15.484C17.9781 19.9078 20 17.8859 20 15.3918V4.51602C20 2.02189 17.9781 0 15.484 0Z" fill="#B5B6BA"/>
<path d="M12.6461 5.79492H14.057L10.9746 9.31836L14.6008 14.1125H11.7613L9.53751 11.2051L6.99259 14.1125H5.58087L8.87775 10.3441L5.39923 5.79492H8.31056L10.3207 8.45273L12.6461 5.79492ZM12.1508 13.268H12.9328L7.88595 6.59531H7.04689L12.1508 13.268Z" fill="white"/>
</g>
<defs>
<clipPath id="clip0_1_982">
<rect width="20" height="19.9078" fill="white"/>
</clipPath>
</defs>
</svg>
