<svg width="14" height="16" viewBox="0 0 14 16" fill="none" xmlns="http://www.w3.org/2000/svg">
<g clip-path="url(#clip0_227_2474)">
<path d="M8.75 7.88184C8.75 8.34596 8.56563 8.79108 8.23744 9.11927C7.90925 9.44746 7.46413 9.63184 7 9.63184C6.53587 9.63184 6.09075 9.44746 5.76256 9.11927C5.43437 8.79108 5.25 8.34596 5.25 7.88184C5.25 7.41771 5.43437 6.97259 5.76256 6.6444C6.09075 6.31621 6.53587 6.13184 7 6.13184C7.46413 6.13184 7.90925 6.31621 8.23744 6.6444C8.56563 6.97259 8.75 7.41771 8.75 7.88184Z" fill="#666666"/>
<path fill-rule="evenodd" clip-rule="evenodd" d="M2.299 9.43584C3.338 10.4258 4.883 11.3828 7 11.3828C9.117 11.3828 10.662 10.4258 11.701 9.43584C12.1887 8.9699 12.62 8.44834 12.986 7.88184C12.62 7.31534 12.1887 6.79377 11.701 6.32784C10.662 5.33984 9.117 4.38284 7 4.38284C4.883 4.38284 3.338 5.33984 2.299 6.32984C1.81141 6.79547 1.38013 7.3167 1.014 7.88284C1.38006 8.44932 1.81135 8.97089 2.299 9.43684V9.43584ZM14 7.88184C14 7.88184 11.812 3.50684 7 3.50684C2.187 3.50684 0 7.88184 0 7.88184C0 7.88184 2.188 12.2578 7 12.2578C11.813 12.2578 14 7.88184 14 7.88184Z" fill="#666666"/>
</g>
<defs>
<clipPath id="clip0_227_2474">
<rect width="14" height="15" fill="white" transform="translate(0 0.589844)"/>
</clipPath>
</defs>
</svg>
