<svg width="25" height="24" viewBox="0 0 25 24" fill="none" xmlns="http://www.w3.org/2000/svg">
<path d="M16.1876 0.00274658H8.8244C2.0996 0.00274658 0.5 1.60198 0.5 8.31325V15.6748C0.5 22.3968 2.0876 23.9973 8.8124 23.9973H16.1756C22.8992 23.9973 24.5 22.41 24.5 15.6868V8.32524C24.5 1.60198 22.9124 0.00274658 16.1876 0.00274658ZM19.8752 17.1228H18.1244C17.462 17.1228 17.2628 16.5866 16.0748 15.3988C15.038 14.3995 14.6 14.2747 14.3372 14.2747C13.9748 14.2747 13.8752 14.3743 13.8752 14.8745V16.4486C13.8752 16.8745 13.7372 17.124 12.6248 17.124C11.5452 17.0515 10.4983 16.7236 9.57032 16.1673C8.64233 15.611 7.8598 14.8422 7.2872 13.9244C5.9278 12.2327 4.98193 10.2474 4.5248 8.12609C4.5248 7.86335 4.6244 7.6258 5.1248 7.6258H6.8744C7.3244 7.6258 7.4864 7.82616 7.6628 8.28805C8.5124 10.7883 9.962 12.9622 10.55 12.9622C10.7756 12.9622 10.874 12.8626 10.874 12.2999V9.72532C10.7996 8.55079 10.1756 8.45121 10.1756 8.02651C10.1836 7.91449 10.235 7.81 10.3187 7.73519C10.4025 7.66039 10.5122 7.62115 10.6244 7.6258H13.3748C13.7504 7.6258 13.8752 7.81296 13.8752 8.26286V11.7373C13.8752 12.1128 14.0372 12.2375 14.15 12.2375C14.3756 12.2375 14.5496 12.1128 14.9624 11.7001C15.849 10.6191 16.5734 9.41469 17.1128 8.12489C17.1679 7.96996 17.2722 7.83732 17.4098 7.74721C17.5474 7.65709 17.7107 7.61446 17.8748 7.6258H19.6256C20.15 7.6258 20.2616 7.88854 20.15 8.26286C19.5134 9.68865 18.7257 11.0421 17.8004 12.2999C17.612 12.5879 17.5364 12.7378 17.8004 13.075C17.9744 13.3377 18.5876 13.85 19.0004 14.3371C19.6003 14.9353 20.0984 15.6275 20.4752 16.3862C20.6252 16.8733 20.3744 17.1228 19.8752 17.1228Z" fill="#2688EB"/>
</svg>
