<svg width="50" height="50" viewBox="0 0 50 50" fill="none" xmlns="http://www.w3.org/2000/svg">
<rect x="0.5" y="0.5" width="49" height="49" rx="9.5" fill="white" stroke="#3475f6"/>
<path d="M28.3019 14H21.5891C15.4583 14 14 15.458 14 21.5764V28.2877C14 34.4159 15.4474 35.875 21.5781 35.875H28.2909C34.4206 35.875 35.88 34.428 35.88 28.2986V21.5873C35.88 15.458 34.4326 14 28.3019 14ZM31.6637 29.6078H30.0676C29.4637 29.6078 29.2821 29.1189 28.199 28.0361C27.2538 27.125 26.8545 27.0112 26.6149 27.0112C26.2845 27.0112 26.1937 27.102 26.1937 27.5581V28.9931C26.1937 29.3814 26.0679 29.6089 25.0538 29.6089C24.0696 29.5428 23.1151 29.2438 22.2691 28.7367C21.4231 28.2295 20.7097 27.5287 20.1877 26.6919C18.9483 25.1497 18.086 23.3397 17.6693 21.4058C17.6693 21.1662 17.7601 20.9497 18.2163 20.9497H19.8113C20.2216 20.9497 20.3693 21.1323 20.5301 21.5534C21.3046 23.8328 22.6262 25.8147 23.1622 25.8147C23.3679 25.8147 23.4576 25.7239 23.4576 25.2109V22.8638C23.3898 21.793 22.8209 21.7022 22.8209 21.315C22.8282 21.2129 22.875 21.1176 22.9514 21.0494C23.0278 20.9812 23.1278 20.9454 23.2301 20.9497H25.7375C26.0799 20.9497 26.1937 21.1203 26.1937 21.5305V24.698C26.1937 25.0403 26.3414 25.1541 26.4442 25.1541C26.6499 25.1541 26.8086 25.0403 27.1849 24.6641C27.9932 23.6785 28.6536 22.5806 29.1453 21.4047C29.1956 21.2634 29.2907 21.1425 29.4161 21.0604C29.5416 20.9782 29.6904 20.9393 29.84 20.9497H31.4362C31.9142 20.9497 32.016 21.1892 31.9142 21.5305C31.3339 22.8303 30.6157 24.0642 29.7722 25.2109C29.6004 25.4734 29.5315 25.6102 29.7722 25.9175C29.9308 26.157 30.4899 26.6241 30.8662 27.0681C31.4131 27.6135 31.8672 28.2445 32.2107 28.9363C32.3475 29.3803 32.1188 29.6078 31.6637 29.6078Z" fill="#3475f6"/>
</svg>
