<svg width="41" height="40" viewBox="0 0 41 40" fill="none" xmlns="http://www.w3.org/2000/svg">
<path d="M31.4086 8.83532C31.0971 8.52994 30.6782 8.35889 30.242 8.35889C29.8057 8.35889 29.3868 8.52994 29.0753 8.83532L20.242 17.6353L11.4086 8.80198C11.0879 8.53104 10.6767 8.39114 10.2573 8.41025C9.83783 8.42937 9.44106 8.60608 9.14629 8.90507C8.85151 9.20406 8.68044 9.60329 8.66728 10.0229C8.65412 10.4426 8.79983 10.8518 9.0753 11.1686L17.8753 20.002L9.04196 28.8353C8.86864 28.986 8.72833 29.1709 8.62983 29.3783C8.53133 29.5858 8.47677 29.8114 8.46957 30.0409C8.46237 30.2704 8.50269 30.499 8.58799 30.7122C8.6733 30.9255 8.80175 31.1187 8.96529 31.28C9.12883 31.4412 9.32393 31.5669 9.53835 31.6492C9.75276 31.7315 9.98186 31.7685 10.2113 31.7581C10.4407 31.7476 10.6655 31.6899 10.8715 31.5884C11.0776 31.487 11.2604 31.3441 11.4086 31.1686L20.242 22.3686L29.0753 31.202C29.396 31.4729 29.8072 31.6128 30.2267 31.5937C30.6461 31.5746 31.0429 31.3979 31.3376 31.0989C31.6324 30.7999 31.8035 30.4007 31.8166 29.981C31.8298 29.5614 31.6841 29.1522 31.4086 28.8353L22.6086 20.002L31.442 11.1686C31.7473 10.8571 31.9184 10.4382 31.9184 10.002C31.9184 9.56573 31.7473 9.14686 31.442 8.83532H31.4086Z" fill="#D6D6D6"/>
</svg>
