<svg width="15" height="15" viewBox="0 0 15 15" fill="none" xmlns="http://www.w3.org/2000/svg">
<path d="M7.5 2.8125C6.67969 2.8125 5.89355 2.9248 5.1416 3.14941C4.38965 3.38379 3.69141 3.70605 3.04688 4.11621C2.40234 4.52637 1.82129 5.01953 1.30371 5.5957C0.786133 6.17188 0.351562 6.80664 0 7.5C0.351562 8.19336 0.786133 8.82812 1.30371 9.4043C1.82129 9.98047 2.40234 10.4736 3.04688 10.8838C3.69141 11.2939 4.38965 11.6162 5.1416 11.8506C5.89355 12.0752 6.67969 12.1875 7.5 12.1875C8.32031 12.1875 9.10645 12.0752 9.8584 11.8506C10.6104 11.6162 11.3086 11.2939 11.9531 10.8838C12.5977 10.4736 13.1787 9.98047 13.6963 9.4043C14.2139 8.82812 14.6484 8.19336 15 7.5C14.6484 6.80664 14.2139 6.17188 13.6963 5.5957C13.1787 5.01953 12.5977 4.52637 11.9531 4.11621C11.3086 3.70605 10.6104 3.38379 9.8584 3.14941C9.10645 2.9248 8.32031 2.8125 7.5 2.8125ZM11.1914 5.30273C11.6406 5.57617 12.0483 5.90088 12.4146 6.27686C12.7808 6.65283 13.1055 7.06055 13.3887 7.5C13.1055 7.93945 12.7808 8.34717 12.4146 8.72314C12.0483 9.09912 11.6406 9.42383 11.1914 9.69727C10.6445 10.0488 10.0562 10.3174 9.42627 10.5029C8.79639 10.6885 8.1543 10.7812 7.5 10.7812C6.8457 10.7812 6.20361 10.6885 5.57373 10.5029C4.94385 10.3174 4.35547 10.0488 3.80859 9.69727C3.35938 9.42383 2.95166 9.09912 2.58545 8.72314C2.21924 8.34717 1.89453 7.93945 1.61133 7.5C1.89453 7.06055 2.21924 6.65283 2.58545 6.27686C2.95166 5.90088 3.35938 5.57617 3.80859 5.30273C3.82812 5.2832 3.85254 5.26367 3.88184 5.24414C3.91113 5.22461 3.94043 5.20508 3.96973 5.18555C3.90137 5.39062 3.84766 5.60059 3.80859 5.81543C3.76953 6.03027 3.75 6.25 3.75 6.47461C3.75 6.99219 3.84766 7.48047 4.04297 7.93945C4.23828 8.38867 4.50684 8.78418 4.84863 9.12598C5.19043 9.46777 5.58594 9.73633 6.03516 9.93164C6.49414 10.127 6.98242 10.2246 7.5 10.2246C8.01758 10.2246 8.50586 10.127 8.96484 9.93164C9.41406 9.73633 9.80957 9.46777 10.1514 9.12598C10.4932 8.78418 10.7617 8.38867 10.957 7.93945C11.1523 7.48047 11.25 6.99219 11.25 6.47461C11.25 6.25 11.2305 6.03027 11.1914 5.81543C11.1523 5.60059 11.0986 5.39062 11.0303 5.18555C11.0596 5.20508 11.0889 5.22461 11.1182 5.24414C11.1475 5.26367 11.1719 5.2832 11.1914 5.30273ZM7.5 6.09375C7.5 6.48438 7.36328 6.81641 7.08984 7.08984C6.81641 7.36328 6.48438 7.5 6.09375 7.5C5.70312 7.5 5.37109 7.36328 5.09766 7.08984C4.82422 6.81641 4.6875 6.48438 4.6875 6.09375C4.6875 5.70312 4.82422 5.37109 5.09766 5.09766C5.37109 4.82422 5.70312 4.6875 6.09375 4.6875C6.48438 4.6875 6.81641 4.82422 7.08984 5.09766C7.36328 5.37109 7.5 5.70312 7.5 6.09375Z" fill="white"/>
</svg>
