<svg width="50" height="50" viewBox="0 0 50 50" fill="none" xmlns="http://www.w3.org/2000/svg">
<rect x="0.5" y="0.5" width="49" height="49" rx="9.5" fill="white" stroke="#e66a53"/>
<g clip-path="url(#clip0_1_2769)">
<path d="M25 36C31.0751 36 36 31.0751 36 25C36 18.9249 31.0751 14 25 14C18.9249 14 14 18.9249 14 25C14 31.0751 18.9249 36 25 36Z" fill="#e66a53"/>
<path d="M26.5754 31.7209H28.9122V18.3009H25.5136C22.0959 18.3009 20.2999 20.058 20.2999 22.6455C20.2999 24.7117 21.2848 25.9279 23.0419 27.183L19.9912 31.7209H22.5205L25.9191 26.6426L24.7414 25.8506C23.3125 24.8855 22.6173 24.1324 22.6173 22.5102C22.6173 21.0813 23.6212 20.1159 25.533 20.1159H26.5754V31.7209Z" fill="white"/>
</g>
<defs>
<clipPath id="clip0_1_2769">
<rect width="22" height="22" fill="white" transform="translate(14 14)"/>
</clipPath>
</defs>
</svg>
