<svg width="24" height="24" viewBox="0 0 24 24" fill="none" xmlns="http://www.w3.org/2000/svg">
<g clip-path="url(#clip0_1_3079)">
<path d="M12 24C18.6274 24 24 18.6274 24 12C24 5.37258 18.6274 0 12 0C5.37258 0 0 5.37258 0 12C0 18.6274 5.37258 24 12 24Z" fill="#FC3F1D"/>
<path d="M13.7189 19.3319H16.2681V4.69189H12.5605C8.83213 4.69189 6.87293 6.60869 6.87293 9.43149C6.87293 11.6855 7.94733 13.0123 9.86413 14.3815L6.53613 19.3319H9.29533L13.0029 13.7919L11.7181 12.9279C10.1593 11.8751 9.40093 11.0535 9.40093 9.2839C9.40093 7.72509 10.4961 6.67189 12.5817 6.67189H13.7189V19.3319Z" fill="white"/>
</g>
<defs>
<clipPath id="clip0_1_3079">
<rect width="24" height="24" fill="white"/>
</clipPath>
</defs>
</svg>
