<svg width="15" height="16" viewBox="0 0 15 16" fill="none" xmlns="http://www.w3.org/2000/svg">
<g clip-path="url(#clip0_1_495)">
<path d="M14.4643 5.65014C14.4643 5.77291 14.3917 5.90683 14.2466 6.05192L11.2081 9.01509L11.928 13.2004C11.9336 13.2394 11.9364 13.2952 11.9364 13.3678C11.9364 13.485 11.9071 13.584 11.8485 13.6649C11.7899 13.7458 11.7048 13.7863 11.5932 13.7863C11.4872 13.7863 11.3755 13.7528 11.2584 13.6859L7.49999 11.7104L3.74162 13.6859C3.61885 13.7528 3.50725 13.7863 3.4068 13.7863C3.28961 13.7863 3.20172 13.7458 3.14313 13.6649C3.08453 13.584 3.05524 13.485 3.05524 13.3678C3.05524 13.3343 3.06082 13.2785 3.07198 13.2004L3.79184 9.01509L0.744969 6.05192C0.60546 5.90125 0.535706 5.76732 0.535706 5.65014C0.535706 5.44366 0.691956 5.31532 1.00446 5.26509L5.20646 4.65404L7.08983 0.84545C7.19586 0.616656 7.33258 0.502258 7.49999 0.502258C7.6674 0.502258 7.80412 0.616656 7.91015 0.84545L9.79352 4.65404L13.9955 5.26509C14.308 5.31532 14.4643 5.44366 14.4643 5.65014Z" fill="#FFBE5B"/>
</g>
<defs>
<clipPath id="clip0_1_495">
<rect width="15" height="15" fill="white" transform="translate(0 0.234375)"/>
</clipPath>
</defs>
</svg>
