<svg width="22" height="22" viewBox="0 0 22 22" fill="none" xmlns="http://www.w3.org/2000/svg">
<g clip-path="url(#clip0_670_111426)">
<path fill-rule="evenodd" clip-rule="evenodd" d="M11.9053 0.578361C11.5267 -0.192787 10.4733 -0.192787 10.0947 0.578361L7.40637 6.05436C7.25859 6.35538 6.9829 6.56498 6.66366 6.61904L0.856225 7.60247C0.0384031 7.74095 -0.287115 8.78936 0.296731 9.40444L4.44267 13.7722C4.67058 14.0123 4.77588 14.3515 4.72636 14.6859L3.82552 20.7697C3.69866 21.6264 4.55088 22.2744 5.2903 21.8834L10.541 19.1068C10.8296 18.9542 11.1704 18.9542 11.459 19.1068L16.7097 21.8834C17.4491 22.2744 18.3013 21.6264 18.1745 20.7697L17.2736 14.6859C17.2241 14.3515 17.3294 14.0123 17.5573 13.7722L21.7033 9.40444C22.2871 8.78936 21.9616 7.74095 21.1438 7.60247L15.3363 6.61904C15.0171 6.56498 14.7414 6.35538 14.5936 6.05436L11.9053 0.578361Z" fill="#FFCD5C"/>
</g>
<defs>
<clipPath id="clip0_670_111426">
<rect width="22" height="22" fill="white"/>
</clipPath>
</defs>
</svg>
