<svg width="48" height="48" viewBox="0 0 48 48" fill="none" xmlns="http://www.w3.org/2000/svg">
<mask id="mask0_7_712" style="mask-type:alpha" maskUnits="userSpaceOnUse" x="0" y="0" width="48" height="48">
<g clip-path="url(#clip0_7_712)">
<path d="M24 13.1998V34.7998M24 13.1998C27.0129 13.1002 30.0211 13.5058 32.9 14.3998C33.2248 14.5223 33.5043 14.7413 33.7009 15.0273C33.8976 15.3133 34.0019 15.6527 34 15.9998V18.9998M24 13.1998C21 13.1998 18 13.4998 15.1 14.3998C14.7752 14.5223 14.4958 14.7413 14.2991 15.0273C14.1025 15.3133 13.9981 15.6527 14 15.9998V18.9998M31.5 35.6998H16.5M34 18.9998L37.2 23.9998C37.2 24.8485 36.8629 25.6624 36.2628 26.2626C35.6626 26.8627 34.8487 27.1998 34 27.1998C33.1513 27.1998 32.3374 26.8627 31.7373 26.2626C31.1372 25.6624 30.8 24.8485 30.8 23.9998H30.7L34 18.9998ZM14 18.9998L17.2 23.9998C17.2 24.8485 16.8629 25.6624 16.2628 26.2626C15.6626 26.8627 14.8487 27.1998 14 27.1998C13.1513 27.1998 12.3374 26.8627 11.7373 26.2626C11.1372 25.6624 10.8 24.8485 10.8 23.9998H10.7L14 18.9998Z" stroke="#B5ADBE" stroke-width="2" stroke-linecap="round" stroke-linejoin="round"/>
</g>
</mask>
<g mask="url(#mask0_7_712)">
<rect width="48" height="48" fill="#B5ADBE"/>
</g>
<defs>
<clipPath id="clip0_7_712">
<rect width="48" height="48" fill="white"/>
</clipPath>
</defs>
</svg>
