<svg width="48" height="48" viewBox="0 0 48 48" fill="none" xmlns="http://www.w3.org/2000/svg">
<mask id="mask0_7_662" style="mask-type:alpha" maskUnits="userSpaceOnUse" x="0" y="0" width="48" height="48">
<g clip-path="url(#clip0_7_662)">
<path d="M25.7 31.0998C25.3 34.2998 23 35.7998 19.3 35.9998C16 36.0998 14.8 37.2998 14.3 38.5998M30.3 14.7998C31.0028 16.1567 31.2556 17.702 31.0219 19.2121C30.7882 20.7222 30.0801 22.1188 29 23.1998" stroke="#B5ADBE" stroke-width="2" stroke-linecap="round" stroke-linejoin="round"/>
<path d="M35.7 18.2001C35.7 24.2001 31.3 28.0001 28.4 30.0001C27.5836 30.5377 26.6275 30.8243 25.65 30.8243C24.6725 30.8243 23.7164 30.5377 22.9 30.0001C19.9 28.0001 15.7 24.2001 15.7 18.2001C15.6583 16.8756 15.8885 15.5566 16.3763 14.3246C16.8642 13.0925 17.5992 11.9734 18.5363 11.0364C19.4733 10.0994 20.5923 9.36427 21.8244 8.87646C23.0565 8.38865 24.3755 8.15846 25.7 8.2001C27.0245 8.15846 28.3434 8.38865 29.5755 8.87646C30.8076 9.36427 31.9267 10.0994 32.8637 11.0364C33.8007 11.9734 34.5358 13.0925 35.0236 14.3246C35.5114 15.5566 35.7416 16.8756 35.7 18.2001Z" stroke="#B5ADBE" stroke-width="2" stroke-linecap="round" stroke-linejoin="round"/>
</g>
</mask>
<g mask="url(#mask0_7_662)">
<rect width="48" height="48" fill="#B5ADBE"/>
</g>
<defs>
<clipPath id="clip0_7_662">
<rect width="48" height="48" fill="white"/>
</clipPath>
</defs>
</svg>
