<svg width="48" height="48" viewBox="0 0 48 48" fill="none" xmlns="http://www.w3.org/2000/svg">
<mask id="mask0_7_621" style="mask-type:alpha" maskUnits="userSpaceOnUse" x="0" y="0" width="48" height="48">
<g clip-path="url(#clip0_7_621)">
<path d="M18.2 38.0998H29.8M24 38.0998V32.2998M18.2 18.1998H29.8M18.2 23.1998H24M37.7 28.8998C37.6324 29.6727 37.2946 30.3971 36.746 30.9458C36.1973 31.4944 35.4729 31.8322 34.7 31.8998C27.5495 32.618 20.3435 32.5845 13.2 31.7998C12.427 31.7322 11.7026 31.3944 11.154 30.8458C10.6053 30.2971 10.2676 29.5727 10.2 28.7998C9.60741 23.9177 9.60741 18.9819 10.2 14.0998C10.2894 13.3448 10.6369 12.6439 11.1835 12.1155C11.7301 11.5871 12.4424 11.2636 13.2 11.1998C20.347 10.449 27.553 10.449 34.7 11.1998C35.4729 11.2674 36.1973 11.6052 36.746 12.1538C37.2946 12.7024 37.6324 13.4268 37.7 14.1998C38.2664 19.0834 38.2664 24.0162 37.7 28.8998Z" stroke="#B5ADBE" stroke-width="2" stroke-linecap="round" stroke-linejoin="round"/>
</g>
</mask>
<g mask="url(#mask0_7_621)">
<rect width="48" height="48" fill="#B5ADBE"/>
</g>
<defs>
<clipPath id="clip0_7_621">
<rect width="48" height="48" fill="white"/>
</clipPath>
</defs>
</svg>
