<svg width="48" height="48" viewBox="0 0 48 48" fill="none" xmlns="http://www.w3.org/2000/svg">
<mask id="mask0_7_581" style="mask-type:alpha" maskUnits="userSpaceOnUse" x="0" y="0" width="48" height="48">
<g clip-path="url(#clip0_7_581)">
<path d="M23.1 29.5001C26.2876 31.6856 28.5086 35.0171 29.3 38.8001M20 29.7001C19.0537 33.3348 16.8589 36.5208 13.8 38.7001M24.6 21.2001C25 24.2001 29.4 26.2001 33.2 24.3001M21.5 15.6001C21.894 15.6001 22.2841 15.5225 22.648 15.3717C23.012 15.221 23.3427 15 23.6213 14.7214C23.8999 14.4428 24.1209 14.1121 24.2716 13.7481C24.4224 13.3842 24.5 12.9941 24.5 12.6001C24.5 12.2061 24.4224 11.816 24.2716 11.452C24.1209 11.0881 23.8999 10.7574 23.6213 10.4788C23.3427 10.2002 23.012 9.97922 22.648 9.82846C22.2841 9.67769 21.894 9.6001 21.5 9.6001C20.7043 9.6001 19.9413 9.91617 19.3787 10.4788C18.8161 11.0414 18.5 11.8044 18.5 12.6001C18.5 13.3957 18.8161 14.1588 19.3787 14.7214C19.9413 15.284 20.7043 15.6001 21.5 15.6001ZM33.7 14.3001H31C30.1 14.3001 29.4 15.0001 29.4 15.9001V18.7001C29.4 19.7001 30.1 20.4001 31 20.4001H33.8C34.8 20.4001 35.5 19.7001 35.5 18.7001V16.0001C35.5 15.1001 34.8 14.4001 33.8 14.4001L33.7 14.3001Z" stroke="#B5ADBE" stroke-width="2" stroke-linecap="round" stroke-linejoin="round"/>
<path d="M21.6 18.8C21.1977 18.7866 20.7968 18.8543 20.4212 18.999C20.0456 19.1438 19.703 19.3626 19.4137 19.6425C19.1245 19.9225 18.8945 20.2577 18.7375 20.6284C18.5806 20.999 18.4998 21.3975 18.5 21.8V26.5C18.5 27.2957 18.8161 28.0587 19.3787 28.6213C19.9413 29.1839 20.7044 29.5 21.5 29.5C21.9023 29.5134 22.3032 29.4457 22.6788 29.301C23.0544 29.1563 23.397 28.9374 23.6863 28.6575C23.9755 28.3776 24.2055 28.0423 24.3625 27.6716C24.5194 27.301 24.6002 26.9025 24.6 26.5V21.8C24.6 21.0044 24.2839 20.2413 23.7213 19.6787C23.1587 19.1161 22.3957 18.8 21.6 18.8Z" stroke="#B5ADBE" stroke-width="2" stroke-linecap="round" stroke-linejoin="round"/>
</g>
</mask>
<g mask="url(#mask0_7_581)">
<rect width="48" height="48" fill="#B5ADBE"/>
</g>
<defs>
<clipPath id="clip0_7_581">
<rect width="48" height="48" fill="white"/>
</clipPath>
</defs>
</svg>
