<svg width="20" height="20" viewBox="0 0 20 20" fill="none" xmlns="http://www.w3.org/2000/svg">
<g clip-path="url(#clip0_7_7444)">
<mask id="mask0_7_7444" style="mask-type:luminance" maskUnits="userSpaceOnUse" x="0" y="0" width="20" height="20">
<path d="M19.93 0H0.0435791V19.8864H19.93V0Z" fill="white"/>
</mask>
<g mask="url(#mask0_7_7444)">
<path d="M9.94477 19.8828H10.024C13.9725 19.8828 16.2643 19.4853 17.8878 17.9092C19.543 16.2374 19.9253 13.9301 19.9253 9.99703V9.88581C19.9253 5.95396 19.543 3.66207 17.8878 1.97361C16.2655 0.397562 13.9571 0 10.0252 0H9.94595C5.99755 0 3.70446 0.397562 2.08109 1.97361C0.42576 3.6455 0.0435791 5.95396 0.0435791 9.88581V9.99703C0.0435791 13.9289 0.42576 16.2208 2.08109 17.9092C3.68909 19.4853 5.99755 19.8828 9.94477 19.8828Z" fill="#2B2F33"/>
<path d="M17.5584 9.79042C17.5584 9.7147 17.4968 9.652 17.4211 9.64845C14.7036 9.54552 13.0497 9.19889 11.8927 8.04185C10.7332 6.88245 10.3878 5.22734 10.2849 2.50393C10.2825 2.42821 10.2198 2.3667 10.1429 2.3667H9.82583C9.75012 2.3667 9.68741 2.42821 9.68387 2.50393C9.58093 5.22615 9.23548 6.88245 8.07608 8.04185C6.91787 9.20007 5.26512 9.54552 2.54763 9.64845C2.47192 9.65082 2.4104 9.71352 2.4104 9.79042V10.1075C2.4104 10.1832 2.47192 10.2459 2.54763 10.2494C5.26512 10.3524 6.91904 10.699 8.07608 11.856C9.23311 13.0131 9.57857 14.6635 9.68269 17.3762C9.68504 17.4519 9.74775 17.5134 9.82465 17.5134H10.1429C10.2186 17.5134 10.2813 17.4519 10.2849 17.3762C10.389 14.6635 10.7344 13.0131 11.8915 11.856C13.0497 10.6978 14.7024 10.3524 17.4199 10.2494C17.4956 10.2471 17.5572 10.1844 17.5572 10.1075V9.79042H17.5584Z" fill="white"/>
</g>
</g>
<defs>
<clipPath id="clip0_7_7444">
<rect width="20" height="20" fill="white"/>
</clipPath>
</defs>
</svg>
