<svg width="450" height="75" viewBox="0 0 450 75" fill="none" xmlns="http://www.w3.org/2000/svg">
<g clip-path="url(#clip0_7_244)">
<mask id="mask0_7_244" style="mask-type:luminance" maskUnits="userSpaceOnUse" x="7" y="7" width="61" height="61">
<path d="M67.176 37.3201C67.176 20.8311 53.809 7.46411 37.32 7.46411C20.831 7.46411 7.46399 20.8311 7.46399 37.3201C7.46399 53.8091 20.831 67.1761 37.32 67.1761C53.809 67.1761 67.176 53.8091 67.176 37.3201Z" fill="white"/>
</mask>
<g mask="url(#mask0_7_244)">
<path d="M70.908 3.73218H3.73199V70.9082H70.908V3.73218Z" fill="#C0C3D3"/>
<mask id="mask1_7_244" style="mask-type:luminance" maskUnits="userSpaceOnUse" x="-2" y="7" width="91" height="61">
<path d="M88.3239 7.46411H-1.24408V67.1761H88.3239V7.46411Z" fill="white"/>
</mask>
<g mask="url(#mask1_7_244)">
<path d="M-1.24408 7.46411H88.324V67.1761H-1.24408V7.46411Z" fill="#E30A17"/>
<path d="M40.3056 37.3201L53.8084 32.9333L45.4627 44.4189V30.2213L53.8084 41.7069L40.3056 37.3201ZM41.2261 45.3026C39.4966 48.0356 36.9263 50.1331 33.9019 51.2792C30.8775 52.4254 27.5626 52.5584 24.4561 51.658C21.3497 50.7577 18.6197 48.8729 16.6768 46.287C14.7341 43.7013 13.6837 40.5544 13.6837 37.3201C13.6837 34.0858 14.7341 30.939 16.6768 28.3531C18.6197 25.7673 21.3497 23.8824 24.4561 22.9822C27.5626 22.0818 30.8775 22.2147 33.9019 23.3609C36.9263 24.507 39.4966 26.6045 41.2261 29.3375C39.611 27.5404 37.4889 26.2754 35.1398 25.7096C32.7907 25.1439 30.3253 25.304 28.0691 26.1689C25.813 27.0336 23.8721 28.5625 22.5031 30.5534C21.134 32.5444 20.4011 34.9039 20.4011 37.3201C20.4011 39.7363 21.134 42.0958 22.5031 44.0867C23.8721 46.0777 25.813 47.6065 28.0691 48.4713C30.3253 49.3362 32.7907 49.4962 35.1398 48.9305C37.4889 48.3648 39.611 47.0997 41.2261 45.3026Z" fill="white"/>
</g>
</g>
<path d="M70.908 37.3199C70.908 18.7698 55.8701 3.73193 37.32 3.73193C18.7699 3.73193 3.73199 18.7698 3.73199 37.3199C3.73199 55.8701 18.7699 70.9079 37.32 70.9079C55.8701 70.9079 70.908 55.8701 70.908 37.3199Z" stroke="#38364E" stroke-width="7.464"/>
<mask id="mask2_7_244" style="mask-type:luminance" maskUnits="userSpaceOnUse" x="54" y="7" width="61" height="61">
<path d="M114.093 37.3201C114.093 20.8311 100.726 7.46411 84.2366 7.46411C67.7475 7.46411 54.3806 20.8311 54.3806 37.3201C54.3806 53.8091 67.7475 67.1761 84.2366 67.1761C100.726 67.1761 114.093 53.8091 114.093 37.3201Z" fill="white"/>
</mask>
<g mask="url(#mask2_7_244)">
<mask id="mask3_7_244" style="mask-type:luminance" maskUnits="userSpaceOnUse" x="39" y="7" width="91" height="61">
<path d="M129.021 7.46387H39.4526V67.1759H129.021V7.46387Z" fill="white"/>
</mask>
<g mask="url(#mask3_7_244)">
<path d="M129.021 7.46411H39.4526V27.3681H129.021V7.46411Z" fill="#47A446"/>
<path d="M129.021 27.3679H39.4526V47.272H129.021V27.3679Z" fill="white"/>
<path d="M129.021 47.2722H39.4526V67.1763H129.021V47.2722Z" fill="#141414"/>
<path d="M62.9108 2.48828H50.1154V72.1522H62.9108V2.48828Z" fill="#E03934"/>
</g>
</g>
<path d="M117.825 37.3199C117.825 18.7698 102.787 3.73193 84.2366 3.73193C65.6864 3.73193 50.6486 18.7698 50.6486 37.3199C50.6486 55.8701 65.6864 70.9079 84.2366 70.9079C102.787 70.9079 117.825 55.8701 117.825 37.3199Z" stroke="#38364E" stroke-width="7.464"/>
<mask id="mask4_7_244" style="mask-type:luminance" maskUnits="userSpaceOnUse" x="101" y="7" width="61" height="61">
<path d="M161.009 37.3201C161.009 20.8311 147.642 7.46411 131.153 7.46411C114.664 7.46411 101.297 20.8311 101.297 37.3201C101.297 53.8091 114.664 67.1761 131.153 67.1761C147.642 67.1761 161.009 53.8091 161.009 37.3201Z" fill="white"/>
</mask>
<g mask="url(#mask4_7_244)">
<path d="M164.741 3.73218H97.5652V70.9082H164.741V3.73218Z" fill="#D9D9D9"/>
<mask id="mask5_7_244" style="mask-type:luminance" maskUnits="userSpaceOnUse" x="97" y="3" width="135" height="68">
<path d="M231.917 3.73218H97.5652V70.9082H231.917V3.73218Z" fill="white"/>
</mask>
<g mask="url(#mask5_7_244)">
<path d="M231.917 47.272H100.053V67.1759H231.917V47.272Z" fill="#EAA300"/>
<path d="M231.917 27.3682H100.053V47.2722H231.917V27.3682Z" fill="#00319B"/>
<path d="M231.917 7.46411H100.053V27.3681H231.917V7.46411Z" fill="#D20011"/>
</g>
</g>
<path d="M164.741 37.3199C164.741 18.7698 149.703 3.73193 131.153 3.73193C112.603 3.73193 97.5651 18.7698 97.5651 37.3199C97.5651 55.8701 112.603 70.9079 131.153 70.9079C149.703 70.9079 164.741 55.8701 164.741 37.3199Z" stroke="#38364E" stroke-width="7.464"/>
<mask id="mask6_7_244" style="mask-type:luminance" maskUnits="userSpaceOnUse" x="148" y="7" width="60" height="61">
<path d="M207.926 37.3201C207.926 20.8311 194.559 7.46411 178.07 7.46411C161.581 7.46411 148.214 20.8311 148.214 37.3201C148.214 53.8091 161.581 67.1761 178.07 67.1761C194.559 67.1761 207.926 53.8091 207.926 37.3201Z" fill="white"/>
</mask>
<g mask="url(#mask6_7_244)">
<mask id="mask7_7_244" style="mask-type:luminance" maskUnits="userSpaceOnUse" x="148" y="7" width="120" height="61">
<path d="M267.638 7.46411H148.214V67.1761H267.638V7.46411Z" fill="white"/>
</mask>
<g mask="url(#mask7_7_244)">
<path d="M148.214 7.46411H267.638V67.1761H148.214V7.46411Z" fill="#00A7BD"/>
</g>
<path d="M187.057 46.0438C192.459 46.0438 196.838 41.6648 196.838 36.2629C196.838 30.861 192.459 26.4819 187.057 26.4819C181.656 26.4819 177.276 30.861 177.276 36.2629C177.276 41.6648 181.656 46.0438 187.057 46.0438Z" fill="#FFCD4B"/>
<path fill-rule="evenodd" clip-rule="evenodd" d="M187.057 19.6089L189.288 24.5179L193.164 20.7692L193.458 26.5024L198.834 24.4867L196.94 29.5357L202.331 29.6258L198.485 33.8874L203.711 36.2629L198.802 38.4943L202.551 42.3705L196.817 42.6639L198.834 48.039L193.785 46.1456L193.694 51.5372L189.432 47.6908L187.057 52.917L184.826 48.0079L180.95 51.7567L180.655 46.0233L175.28 48.039L177.174 42.9901L171.783 42.8999L175.629 38.6385L170.403 36.2629L175.312 34.0316L171.563 30.1554L177.297 29.862L175.28 24.4867L180.33 26.38L180.42 20.9884L184.682 24.8351L187.057 19.6089ZM187.057 47.6297C193.335 47.6297 198.424 42.5405 198.424 36.2627C198.424 29.9848 193.335 24.8956 187.057 24.8956C180.779 24.8956 175.69 29.9848 175.69 36.2627C175.69 42.5405 180.779 47.6297 187.057 47.6297Z" fill="#FFCD4B"/>
<path d="M163.748 22.1496L161.634 17.2149C161.265 16.3532 160.043 16.3532 159.674 17.2149L157.559 22.1496C157.257 22.8533 157.773 23.636 158.539 23.636H162.768C163.534 23.636 164.05 22.8533 163.748 22.1496Z" stroke="#FFCD4B" stroke-width="2.13257"/>
<path d="M163.748 13.4417L161.634 8.50684C161.265 7.64518 160.043 7.64518 159.674 8.50684L157.559 13.4417C157.257 14.1453 157.773 14.928 158.539 14.928H162.768C163.534 14.928 164.05 14.1453 163.748 13.4417Z" stroke="#FFCD4B" stroke-width="2.13257"/>
<path d="M163.748 48.2736L161.634 43.3389C161.265 42.4772 160.043 42.4772 159.674 43.3389L157.559 48.2736C157.257 48.9773 157.773 49.76 158.539 49.76H162.768C163.534 49.76 164.05 48.9773 163.748 48.2736Z" stroke="#FFCD4B" stroke-width="2.13257"/>
<path d="M163.748 27.6106L161.634 32.5454C161.265 33.4071 160.043 33.4071 159.674 32.5454L157.559 27.6106C157.257 26.9069 157.773 26.1243 158.539 26.1243H162.768C163.534 26.1243 164.05 26.9069 163.748 27.6106Z" stroke="#FFCD4B" stroke-width="2.13257"/>
<path d="M163.748 53.7346L161.634 58.6695C161.265 59.5311 160.043 59.5311 159.674 58.6695L157.559 53.7346C157.257 53.0309 157.773 52.2483 158.539 52.2483H162.768C163.534 52.2483 164.05 53.0309 163.748 53.7346Z" stroke="#FFCD4B" stroke-width="2.13257"/>
<path d="M163.748 61.1985L161.634 66.1333C161.265 66.995 160.043 66.995 159.674 66.1333L157.559 61.1985C157.257 60.4948 157.773 59.7122 158.539 59.7122H162.768C163.534 59.7122 164.05 60.4948 163.748 61.1985Z" stroke="#FFCD4B" stroke-width="2.13257"/>
<path d="M162.075 34.832H159.232C158.643 34.832 158.165 35.3094 158.165 35.8983V39.9857C158.165 40.5746 158.643 41.052 159.232 41.052H162.075C162.664 41.052 163.141 40.5746 163.141 39.9857V35.8983C163.141 35.3094 162.664 34.832 162.075 34.832Z" stroke="#FFCD4B" stroke-width="2.13257"/>
</g>
<path d="M211.658 37.3199C211.658 18.7698 196.62 3.73193 178.07 3.73193C159.52 3.73193 144.482 18.7698 144.482 37.3199C144.482 55.8701 159.52 70.9079 178.07 70.9079C196.62 70.9079 211.658 55.8701 211.658 37.3199Z" stroke="#38364E" stroke-width="7.464"/>
<mask id="mask8_7_244" style="mask-type:luminance" maskUnits="userSpaceOnUse" x="195" y="7" width="60" height="61">
<path d="M254.842 37.3201C254.842 20.8311 241.475 7.46411 224.986 7.46411C208.497 7.46411 195.13 20.8311 195.13 37.3201C195.13 53.8091 208.497 67.1761 224.986 67.1761C241.475 67.1761 254.842 53.8091 254.842 37.3201Z" fill="white"/>
</mask>
<g mask="url(#mask8_7_244)">
<path d="M258.574 3.73218H191.398V70.9082H258.574V3.73218Z" fill="#D9D9D9"/>
<mask id="mask9_7_244" style="mask-type:luminance" maskUnits="userSpaceOnUse" x="191" y="3" width="135" height="68">
<path d="M325.75 3.73218H191.398V70.9082H325.75V3.73218Z" fill="white"/>
</mask>
<g mask="url(#mask9_7_244)">
<path d="M325.75 3.73218H205.923V70.9082H325.75V3.73218Z" fill="#009900"/>
<path d="M325.75 3.73218H191.398V48.2136H325.75V3.73218Z" fill="#CC0000"/>
<path d="M206.326 3.73218H191.398V70.9082H206.326V3.73218Z" fill="white"/>
<path d="M200.728 47.2722V55.9801L197.618 51.6262L200.728 47.2722Z" fill="#CC0000"/>
<path d="M200.728 47.2722V55.9801L203.839 51.6262L200.728 47.2722Z" fill="#CC0000"/>
<path d="M200.728 37.3201V46.0281L197.618 41.674L200.728 37.3201Z" fill="#CC0000"/>
<path d="M200.728 37.3201V46.0281L203.839 41.674L200.728 37.3201Z" fill="#CC0000"/>
<path d="M200.728 27.3679V36.076L197.618 31.7219L200.728 27.3679Z" fill="#CC0000"/>
<path d="M200.728 27.3679V36.076L203.839 31.7219L200.728 27.3679Z" fill="#CC0000"/>
<path d="M200.728 17.4163V26.1242L197.618 21.7702L200.728 17.4163Z" fill="#CC0000"/>
<path d="M200.728 17.4163V26.1242L203.839 21.7702L200.728 17.4163Z" fill="#CC0000"/>
</g>
</g>
<path d="M258.574 37.3199C258.574 18.7698 243.536 3.73193 224.986 3.73193C206.436 3.73193 191.398 18.7698 191.398 37.3199C191.398 55.8701 206.436 70.9079 224.986 70.9079C243.536 70.9079 258.574 55.8701 258.574 37.3199Z" stroke="#38364E" stroke-width="7.464"/>
<mask id="mask10_7_244" style="mask-type:luminance" maskUnits="userSpaceOnUse" x="242" y="7" width="60" height="61">
<path d="M301.759 37.3201C301.759 20.8311 288.392 7.46411 271.903 7.46411C255.414 7.46411 242.047 20.8311 242.047 37.3201C242.047 53.8091 255.414 67.1761 271.903 67.1761C288.392 67.1761 301.759 53.8091 301.759 37.3201Z" fill="white"/>
</mask>
<g mask="url(#mask10_7_244)">
<path d="M305.491 3.73218H238.315V70.9082H305.491V3.73218Z" fill="#D9D9D9"/>
<mask id="mask11_7_244" style="mask-type:luminance" maskUnits="userSpaceOnUse" x="238" y="3" width="135" height="68">
<path d="M372.667 3.73218H238.315V70.9082H372.667V3.73218Z" fill="white"/>
</mask>
<g mask="url(#mask11_7_244)">
<path d="M372.667 47.272H240.802V67.1759H372.667V47.272Z" fill="#509E2F"/>
<path d="M372.667 27.3682H240.802V47.2722H372.667V27.3682Z" fill="#EF3340"/>
<path d="M269.415 44.7842C273.537 44.7842 276.879 41.4425 276.879 37.3202C276.879 33.1979 273.537 29.8562 269.415 29.8562C265.293 29.8562 261.951 33.1979 261.951 37.3202C261.951 41.4425 265.293 44.7842 269.415 44.7842Z" fill="white"/>
<path d="M271.281 44.7842C274.372 44.7842 276.879 41.7208 276.879 37.9421C276.879 34.1634 274.372 31.1001 271.281 31.1001C268.189 31.1001 265.683 34.1634 265.683 37.9421C265.683 41.7208 268.189 44.7842 271.281 44.7842Z" fill="#EF3340"/>
<path d="M278.122 33.5881L278.837 35.5962L280.762 34.6812L279.847 36.606L281.854 37.3201L279.847 38.0342L280.762 39.9591L278.837 39.0441L278.122 41.0521L277.409 39.0441L275.483 39.9591L276.398 38.0342L274.39 37.3201L276.398 36.606L275.483 34.6812L277.409 35.5962L278.122 33.5881Z" fill="white"/>
<path d="M372.667 7.46411H240.802V27.3681H372.667V7.46411Z" fill="#00B5E2"/>
</g>
</g>
<path d="M305.491 37.3199C305.491 18.7698 290.453 3.73193 271.903 3.73193C253.353 3.73193 238.315 18.7698 238.315 37.3199C238.315 55.8701 253.353 70.9079 271.903 70.9079C290.453 70.9079 305.491 55.8701 305.491 37.3199Z" stroke="#38364E" stroke-width="7.464"/>
<mask id="mask12_7_244" style="mask-type:luminance" maskUnits="userSpaceOnUse" x="288" y="7" width="61" height="61">
<path d="M348.675 37.3201C348.675 20.8311 335.308 7.46411 318.819 7.46411C302.33 7.46411 288.963 20.8311 288.963 37.3201C288.963 53.8091 302.33 67.1761 318.819 67.1761C335.308 67.1761 348.675 53.8091 348.675 37.3201Z" fill="white"/>
</mask>
<g mask="url(#mask12_7_244)">
<path d="M348.675 37.3201C348.675 20.8311 335.308 7.46411 318.819 7.46411C302.33 7.46411 288.963 20.8311 288.963 37.3201C288.963 53.8091 302.33 67.1761 318.819 67.1761C335.308 67.1761 348.675 53.8091 348.675 37.3201Z" fill="white"/>
<path d="M322.551 7.46411H315.087V67.1761H322.551V7.46411Z" fill="#E30B0B"/>
<path d="M348.675 41.0521V33.5881L288.963 33.5881V41.0521H348.675Z" fill="#E30B0B"/>
<path d="M298.915 21.1482H310.111V24.8802H298.915V21.1482Z" fill="#E30B0B"/>
<path d="M302.647 28.612V17.416H306.379V28.612H302.647Z" fill="#E30B0B"/>
<path d="M298.915 49.7603H310.111V53.4923H298.915V49.7603Z" fill="#E30B0B"/>
<path d="M302.647 57.2241V46.0281H306.379V57.2241H302.647Z" fill="#E30B0B"/>
<path d="M327.528 21.1482H338.724V24.8802H327.528V21.1482Z" fill="#E30B0B"/>
<path d="M331.26 28.612V17.416H334.992V28.612H331.26Z" fill="#E30B0B"/>
<path d="M327.528 49.7603H338.724V53.4923H327.528V49.7603Z" fill="#E30B0B"/>
<path d="M331.26 57.2241V46.0281H334.992V57.2241H331.26Z" fill="#E30B0B"/>
</g>
<path d="M352.407 37.3199C352.407 18.7698 337.37 3.73193 318.819 3.73193C300.269 3.73193 285.231 18.7698 285.231 37.3199C285.231 55.8701 300.269 70.9079 318.819 70.9079C337.37 70.9079 352.407 55.8701 352.407 37.3199Z" stroke="#38364E" stroke-width="7.464"/>
<mask id="mask13_7_244" style="mask-type:luminance" maskUnits="userSpaceOnUse" x="335" y="7" width="61" height="61">
<path d="M395.592 37.3201C395.592 20.8311 382.225 7.46411 365.736 7.46411C349.247 7.46411 335.88 20.8311 335.88 37.3201C335.88 53.8091 349.247 67.1761 365.736 67.1761C382.225 67.1761 395.592 53.8091 395.592 37.3201Z" fill="white"/>
</mask>
<g mask="url(#mask13_7_244)">
<path d="M395.592 37.3201C395.592 20.8311 382.225 7.46411 365.736 7.46411C349.247 7.46411 335.88 20.8311 335.88 37.3201C335.88 53.8091 349.247 67.1761 365.736 67.1761C382.225 67.1761 395.592 53.8091 395.592 37.3201Z" fill="white"/>
<path d="M399.324 3.73218H332.148V70.9082H399.324V3.73218Z" fill="#D9D9D9"/>
<mask id="mask14_7_244" style="mask-type:luminance" maskUnits="userSpaceOnUse" x="332" y="3" width="135" height="68">
<path d="M466.5 3.73218H332.148V70.9082H466.5V3.73218Z" fill="white"/>
</mask>
<g mask="url(#mask14_7_244)">
<path d="M466.5 7.46411H334.636V27.3681H466.5V7.46411Z" fill="#0099B5"/>
<path d="M356.406 23.6362C359.497 23.6362 362.004 21.1299 362.004 18.0382C362.004 14.9466 359.497 12.4402 356.406 12.4402C353.315 12.4402 350.808 14.9466 350.808 18.0382C350.808 21.1299 353.315 23.6362 356.406 23.6362Z" fill="white"/>
<path d="M360.138 23.6362C363.229 23.6362 365.736 21.1299 365.736 18.0382C365.736 14.9466 363.229 12.4402 360.138 12.4402C357.047 12.4402 354.54 14.9466 354.54 18.0382C354.54 21.1299 357.047 23.6362 360.138 23.6362Z" fill="#0099B5"/>
<path d="M466.5 47.272H334.636V67.1759H466.5V47.272Z" fill="#1EB53A"/>
<path d="M320.33 29.2341H448.462V45.4062H320.33V29.2341Z" fill="white" stroke="#CE1126" stroke-width="3.732"/>
<g opacity="0.7">
<path d="M376.932 21.1482H378.176V22.3921H376.932V21.1482Z" fill="white"/>
<path d="M376.932 17.416H378.176V18.6599H376.932V17.416Z" fill="white"/>
<path d="M376.932 13.6841H378.176V14.928H376.932V13.6841Z" fill="white"/>
<path d="M373.2 21.1482H374.444V22.3921H373.2V21.1482Z" fill="white"/>
<path d="M373.2 17.416H374.444V18.6599H373.2V17.416Z" fill="white"/>
<path d="M373.2 13.6841H374.444V14.928H373.2V13.6841Z" fill="white"/>
<path d="M369.468 21.1482H370.712V22.3921H369.468V21.1482Z" fill="white"/>
<path d="M369.468 17.416H370.712V18.6599H369.468V17.416Z" fill="white"/>
<path d="M369.468 13.6841H370.712V14.928H369.468V13.6841Z" fill="white"/>
<path d="M365.736 21.1482H366.98V22.3921H365.736V21.1482Z" fill="white"/>
<path d="M365.736 17.416H366.98V18.6599H365.736V17.416Z" fill="white"/>
<path d="M362.004 21.1482H363.248V22.3921H362.004V21.1482Z" fill="white"/>
</g>
</g>
</g>
<path d="M399.324 37.3199C399.324 18.7698 384.286 3.73193 365.736 3.73193C347.186 3.73193 332.148 18.7698 332.148 37.3199C332.148 55.8701 347.186 70.9079 365.736 70.9079C384.286 70.9079 399.324 55.8701 399.324 37.3199Z" stroke="#38364E" stroke-width="7.464"/>
<mask id="mask15_7_244" style="mask-type:luminance" maskUnits="userSpaceOnUse" x="382" y="7" width="61" height="61">
<path d="M442.509 37.3201C442.509 20.8311 429.142 7.46411 412.653 7.46411C396.164 7.46411 382.797 20.8311 382.797 37.3201C382.797 53.8091 396.164 67.1761 412.653 67.1761C429.142 67.1761 442.509 53.8091 442.509 37.3201Z" fill="white"/>
</mask>
<g mask="url(#mask15_7_244)">
<path d="M442.509 37.3201C442.509 20.8311 429.142 7.46411 412.653 7.46411C396.164 7.46411 382.797 20.8311 382.797 37.3201C382.797 53.8091 396.164 67.1761 412.653 67.1761C429.142 67.1761 442.509 53.8091 442.509 37.3201Z" fill="white"/>
<mask id="mask16_7_244" style="mask-type:luminance" maskUnits="userSpaceOnUse" x="367" y="7" width="91" height="61">
<path d="M457.437 7.46387H367.869V67.1759H457.437V7.46387Z" fill="white"/>
</mask>
<g mask="url(#mask16_7_244)">
<path d="M457.437 7.46387H367.869V67.1759H457.437V7.46387Z" fill="#A51931"/>
<path d="M457.437 17.4158H367.869V57.2237H457.437V17.4158Z" fill="white"/>
<path d="M457.437 27.3679H367.869V47.272H457.437V27.3679Z" fill="#2D2A4A"/>
</g>
</g>
<path d="M446.241 37.3199C446.241 18.7698 431.203 3.73193 412.653 3.73193C394.102 3.73193 379.065 18.7698 379.065 37.3199C379.065 55.8701 394.102 70.9079 412.653 70.9079C431.203 70.9079 446.241 55.8701 446.241 37.3199Z" stroke="#38364E" stroke-width="7.464"/>
</g>
<defs>
<clipPath id="clip0_7_244">
<rect width="449.973" height="74.64" fill="white"/>
</clipPath>
</defs>
</svg>
