<svg width="91" height="24" viewBox="0 0 91 24" fill="none" xmlns="http://www.w3.org/2000/svg">
<g opacity="0.3">
<path fill-rule="evenodd" clip-rule="evenodd" d="M50.699 23.93C49.588 23.7878 48.483 23.6043 47.386 23.38L46.9 23.27L46.939 20.69C47.038 14.47 47.038 11.09 46.979 7.79C46.929 4.55 46.909 4.21 46.78 3.73C46.632 3.13 46.404 2.71 46.136 2.51C46.027 2.43 45.739 2.33 45.491 2.27L45.372 2.25C44.955 2.15 44.807 2.12 44.747 2.02C44.717 1.97 44.707 1.9 44.707 1.8V1.74C44.687 1.53 44.707 1.38 44.767 1.34C44.836 1.28 51.522 0 51.73 0C51.8 0 51.81 0.86 51.77 3.83C51.75 5.93 51.75 7.65 51.77 7.65C51.79 7.65 52.028 7.55 52.306 7.41C53.149 7.02 53.932 6.85 55.053 6.81C55.807 6.79 56.154 6.81 56.541 6.88C59.061 7.41 60.926 9.48 61.58 12.5C61.749 13.28 61.809 15.24 61.699 16.21C61.6 17.05 61.332 18.17 61.045 18.9C60.52 20.2468 59.642 21.4245 58.505 22.307C57.367 23.1895 56.013 23.7436 54.587 23.91C53.873 24.01 51.661 24.03 50.709 23.93H50.699ZM22.607 23.93C21.23 23.7483 19.936 23.1635 18.885 22.2482C17.834 21.3329 17.073 20.1271 16.695 18.78C16.035 16.5689 16.035 14.2111 16.695 12C17.335 10.031 18.712 8.3915 20.533 7.43C21.81 6.8214 23.21 6.5209 24.621 6.5521C26.033 6.5834 27.419 6.9455 28.667 7.61C30.691 8.81 31.921 10.96 32.268 13.89C32.367 14.78 32.298 16.67 32.139 17.45C31.465 20.63 29.501 22.86 26.624 23.7C26.316 23.8 25.83 23.9 25.553 23.94C24.967 24.02 23.172 24.02 22.607 23.94V23.93ZM63.187 17.58C63.951 20.99 66.262 23.31 69.516 23.9C70.23 24.03 71.857 24.03 72.571 23.9C73.627 23.7116 74.637 23.3212 75.547 22.75C76.46 22.13 77.402 21.19 77.402 20.9C77.402 20.72 77.085 20.31 76.946 20.31C76.886 20.31 76.638 20.45 76.38 20.61C75.488 21.2 74.635 21.43 73.444 21.43C71.798 21.43 70.766 21.03 69.714 19.96C69.348 19.617 69.046 19.2105 68.822 18.76C68.274 17.6602 67.979 16.4503 67.959 15.22L67.949 14.64L72.789 14.63L77.63 14.61L77.65 14.28C77.655 13.926 77.639 13.572 77.6 13.22C77.303 10.26 76.113 8.22 74.079 7.2C72.294 6.3 69.516 6.36 67.483 7.35C66.528 7.8205 65.681 8.4856 64.994 9.3032C64.308 10.1208 63.797 11.0732 63.495 12.1C63.109 13.2582 62.951 14.4809 63.029 15.7C63.049 16.65 63.098 17.14 63.187 17.58ZM82.6 23.96C81.362 23.8206 80.142 23.5525 78.959 23.16L78.662 23.03L78.622 21.53L78.563 19.06L78.543 18.11L78.721 18.01C78.821 17.97 79.019 17.93 79.168 17.92L79.436 17.91L79.664 18.47C80.547 20.65 81.578 21.83 82.927 22.19C83.443 22.33 84.415 22.33 84.792 22.19C85.281 22.0446 85.709 21.7401 86.009 21.3241C86.308 20.9081 86.463 20.4039 86.449 19.89C86.449 18.57 85.735 17.93 83.017 16.86C81.33 16.2 80.745 15.86 80.041 15.14C79.289 14.3643 78.866 13.3244 78.86 12.24C78.807 11.5384 78.905 10.8335 79.148 10.174C79.391 9.5144 79.774 8.916 80.269 8.42C81.39 7.301 82.888 6.6478 84.465 6.59C86.072 6.44 88.542 6.79 89.831 7.34L90.069 7.44L90.109 8.78L90.169 10.98V11.84L89.861 11.96C89.365 12.15 89.325 12.12 89.048 11.38C88.264 9.29 87.361 8.31 85.943 8C85.09 7.82 84.366 8.02 83.84 8.58C83.453 8.9775 83.239 9.5134 83.245 10.07C83.195 10.77 83.324 11.17 83.751 11.64C84.286 12.22 85.149 12.73 86.885 13.46C89.008 14.36 90.02 15.11 90.565 16.22C90.932 16.94 91.032 17.52 90.992 18.62C90.962 19.45 90.942 19.62 90.754 20.18C90.139 22 88.76 23.2 86.627 23.76C85.903 23.96 85.804 23.96 84.366 23.98C83.542 23.98 82.749 23.98 82.6 23.96ZM0.00999451 23.08C0.00999451 23.38 0.0300045 23.55 0.0890045 23.57C0.208005 23.62 11.755 23.62 11.874 23.57C12.032 23.51 12.022 22.65 11.864 22.57C11.581 22.489 11.292 22.4288 11.001 22.39C10.654 22.3477 10.312 22.2741 9.979 22.17C9.225 21.83 8.80899 20.92 8.64999 19.26C8.51799 17.5933 8.45199 15.922 8.45099 14.25V12.76L9.146 12.78C10.644 12.83 11.427 12.91 11.725 13.05C12.419 13.35 12.955 14.19 13.243 15.37L13.391 15.99L13.927 16.01L14.463 16.03V8.11L13.927 8.13L13.401 8.15L13.243 8.77C12.945 9.99 12.449 10.73 11.715 11.07C11.417 11.21 11.219 11.24 10.505 11.29C10.039 11.31 9.384 11.34 9.047 11.34H8.45099V9.38C8.45099 7.42 8.55099 3.24 8.60999 2.59L8.64999 2.24H10.713C13.074 2.24 13.461 2.29 14.304 2.71C15.514 3.31 16.407 4.5 17.181 6.56V6.57C17.349 7.02 17.419 7.22 17.567 7.28C17.686 7.34 17.865 7.28 18.182 7.19L18.659 7.04L18.609 4C18.605 2.8996 18.578 1.7993 18.53 0.7L18.48 0.43L9.453 0.41C4.494 0.41 0.327002 0.41 0.218002 0.43L0 0.47L0.0200043 1.01L0.0399933 1.55L0.733994 1.63C1.62699 1.74 2.153 1.99 2.47 2.46C3.174 3.51 3.30299 4.93 3.30299 11.71C3.30299 18.92 3.154 20.68 2.47 21.59C2.113 22.06 1.825 22.21 1.022 22.36L0.923004 22.38C0.357004 22.48 0.138998 22.52 0.0599976 22.65C0.00999756 22.73 0.00999451 22.85 0.00999451 23.03V23.08ZM32.338 23.56C32.278 23.52 32.258 23.36 32.268 23.05L32.288 22.59L32.516 22.54L33.121 22.42C33.756 22.3 34.113 21.96 34.322 21.28C34.49 20.72 34.56 18.95 34.57 15.4C34.57 11.06 34.48 10.03 34.044 9.45C33.806 9.13 33.647 9.05 33.062 8.93C32.843 8.8878 32.625 8.8445 32.407 8.8C32.278 8.77 32.258 8.73 32.258 8.4C32.258 8.1 32.278 8.04 32.407 7.98C32.605 7.9 39.083 6.6 39.291 6.6H39.45L39.42 7.57L39.361 9.3L39.331 10.06L39.559 9.63C40.136 8.4384 41.093 7.4769 42.277 6.9C42.832 6.6277 43.446 6.5004 44.063 6.53C44.965 6.53 45.868 6.83 45.868 7.13C45.868 7.33 44.281 11.55 44.182 11.59C44.152 11.6 43.834 11.49 43.497 11.32C42.879 11.0027 42.197 10.8317 41.503 10.82C40.71 10.82 39.817 11.12 39.47 11.49C39.321 11.66 39.321 11.67 39.271 14.09C39.242 16.49 39.321 19.42 39.46 20.59C39.569 21.59 39.837 22.09 40.382 22.32C40.561 22.4 41.712 22.56 42.089 22.56C42.118 22.56 42.138 22.79 42.118 23.06L42.108 23.58L37.268 23.59C34.599 23.6 32.387 23.59 32.338 23.56ZM26.326 21.39C26.019 21.97 25.444 22.51 24.987 22.65C23.202 23.19 21.912 21.47 21.416 17.87C21.256 15.9868 21.256 14.0932 21.416 12.21C21.773 9.32 22.656 7.85 24.055 7.85C24.68 7.85 25.027 8 25.523 8.5C26.693 9.7 27.249 11.96 27.239 15.53C27.239 18.38 26.951 20.17 26.326 21.39ZM54.567 21.99C54.171 22.34 53.803 22.53 53.327 22.62C52.98 22.69 52.881 22.69 52.256 22.64C51.998 22.62 51.939 22.59 51.879 22.44C51.8 22.23 51.701 14.5 51.74 11.41L51.77 9L52.206 8.87C52.494 8.78 52.831 8.74 53.228 8.74C53.784 8.74 53.853 8.76 54.319 8.99C55.45 9.55 56.214 10.94 56.571 13.06C56.71 13.84 56.72 15.98 56.601 16.92C56.303 19.22 55.559 21.08 54.567 21.98V21.99ZM71.569 13.15L72.71 13.11L72.67 12.3C72.522 9.42 71.827 7.85 70.687 7.85C69.466 7.85 68.484 9.45 68.068 12.1C68.018 12.43 67.979 12.82 67.979 12.96V13.23L69.209 13.21L71.569 13.15Z" fill="#A0A0A0"/>
</g>
</svg>
