<svg width="225" height="29" viewBox="0 0 225 29" fill="none" xmlns="http://www.w3.org/2000/svg">
<path opacity="0.3" d="M24.336 23.2356H15.137L9.508 14.0007L7.67902 15.8793V23.2356H0V0H7.67902V7.5046L14.277 0.0098896H23.276L14.827 8.6713L24.326 23.2356H24.336ZM34.624 14.6137C34.624 13.5557 34.364 12.5868 33.864 11.7463C33.634 11.3356 33.291 10.9972 32.876 10.7699C32.46 10.5426 31.989 10.4355 31.514 10.461C30.565 10.461 29.855 10.8861 29.365 11.7463C28.88 12.6252 28.632 13.6127 28.645 14.6137C28.639 15.7239 28.903 16.8193 29.415 17.8074C29.925 18.806 30.715 19.3103 31.774 19.3103C32.794 19.3103 33.524 18.8159 33.964 17.8469C34.404 16.8779 34.624 15.8002 34.624 14.6137ZM39.953 19.8541C38.133 22.5138 35.024 23.7596 31.804 23.7596C28.485 23.7596 25.286 22.5237 23.436 19.7552C22.589 18.3467 22.101 16.7553 22.016 15.1186C21.93 13.4819 22.25 11.8493 22.946 10.3621C23.511 9.3292 24.286 8.4228 25.222 7.6997C26.158 6.9767 27.235 6.4524 28.385 6.1599C30.934 5.4579 33.704 5.6062 36.154 6.6048C38.443 7.5343 40.143 9.4524 40.883 11.7266C41.693 14.2182 41.403 17.7085 39.953 19.8442V19.8541ZM99.502 12.9131C99.262 11.8057 98.862 11.0344 98.313 10.6093C97.712 10.1626 96.974 9.9354 96.223 9.9666C95.403 9.9666 94.743 10.1643 94.263 10.5895C93.783 11.0048 93.423 11.776 93.163 12.9131H99.502ZM106.071 16.1957H93.233C93.233 16.7099 93.333 17.1746 93.513 17.58C94.063 18.7862 95.063 19.6069 96.493 19.6069C97.543 19.6069 98.752 19.1916 98.982 18.0644H105.551C105.403 18.8603 105.095 19.619 104.647 20.2963C104.199 20.9736 103.62 21.556 102.942 22.0095C101.562 22.9224 99.975 23.4829 98.323 23.641C96.233 23.8981 93.823 23.8288 91.884 23.028C90.79 22.5817 89.799 21.923 88.967 21.0907C88.136 20.2585 87.482 19.2698 87.045 18.1831C86.206 16.0313 86.192 13.6507 87.005 11.4893C87.423 10.3846 88.069 9.3781 88.902 8.5338C89.736 7.6895 90.737 7.0258 91.844 6.5851C93.324 6.0274 94.901 5.7639 96.485 5.8097C98.068 5.8555 99.627 6.2097 101.072 6.852C102.21 7.3972 103.213 8.1813 104.013 9.1496C104.812 10.1179 105.388 11.247 105.701 12.4582C106.031 13.7139 106.151 14.9103 106.071 16.1957ZM124.488 19.8837C123.89 21.0542 122.973 22.0359 121.841 22.7174C120.708 23.3989 119.405 23.7531 118.079 23.7399C117.19 23.7693 116.305 23.6027 115.489 23.2521C114.672 22.9015 113.945 22.3758 113.36 21.7129V29H106.521V6.3577H112.58V8.8889C113.9 6.2983 117.149 5.359 119.779 6.0116C122.638 6.7136 124.568 9.0965 125.248 11.7661C125.888 14.2578 125.668 17.6591 124.488 19.8738V19.8837ZM118.909 14.3764C118.909 13.6645 118.669 12.8834 118.179 12.043C117.986 11.6571 117.686 11.3334 117.315 11.1093C116.943 10.8853 116.515 10.7702 116.079 10.7774C115.16 10.7774 114.46 11.1729 113.97 11.9639C113.47 12.7549 113.23 13.5459 113.23 14.3764C113.23 15.3849 113.43 16.3341 113.81 17.2042C114.19 18.0842 114.95 18.5193 116.079 18.5193C117.179 18.5193 117.919 18.0644 118.319 17.1548C118.679 16.2847 118.909 15.3256 118.909 14.3863V14.3764ZM140.335 23.0378C137.676 23.9574 134.056 24.0958 131.407 23.0082C129.718 22.3385 128.289 21.154 127.327 19.6267C126.573 18.3926 126.116 17.004 125.989 15.5677C125.863 14.1313 126.071 12.6854 126.597 11.3409C127.557 8.9185 129.207 7.5244 131.597 6.5653C134.336 5.4579 138.395 5.4974 140.995 6.9015C142.133 7.4443 143.109 8.27 143.828 9.2978C144.546 10.3255 144.983 11.5201 145.094 12.7647H138.095C138.032 12.1191 137.79 11.5031 137.396 10.985C136.406 9.7392 134.186 10.3423 133.476 11.5782C132.583 13.3065 132.411 15.3122 132.996 17.1647C133.208 17.747 133.589 18.2551 134.09 18.6259C134.591 18.9967 135.191 19.2141 135.816 19.2509C137.526 19.2509 137.885 18.1139 138.325 16.7H145.104C145.076 18.1149 144.601 19.4858 143.746 20.6205C142.891 21.7553 141.698 22.5971 140.335 23.028V23.0378ZM157.592 16.6011C157.592 16.2847 157.562 16.0276 157.502 15.8299C157.032 16.0869 156.302 16.3144 155.302 16.5022C154.525 16.609 153.769 16.8359 153.063 17.1746C152.093 17.6492 152.143 18.9939 152.993 19.5476C153.963 20.121 155.592 20.0716 156.412 19.2608C156.789 18.9237 157.088 18.5114 157.292 18.0512C157.495 17.591 157.597 17.0934 157.592 16.5912V16.6011ZM165.211 23.2257H158.202L157.932 21.446C157.422 22.0985 156.282 22.6325 155.132 23.0774C153.981 23.516 152.756 23.7341 151.523 23.7201C150.343 23.7201 149.263 23.5223 148.284 23.1071C147.342 22.7314 146.554 22.0565 146.044 21.1889C145.6 20.2894 145.368 19.3025 145.364 18.3017C145.364 17.0559 145.944 16.0276 146.754 15.118C147.204 14.5939 147.654 14.2973 148.464 13.9908C148.854 13.8425 149.233 13.7139 149.603 13.6151C149.973 13.5162 150.323 13.4074 150.653 13.358L153.523 12.9328C154.742 12.7549 155.922 12.5967 156.442 12.4286C156.762 12.3198 157.142 11.9737 157.322 11.7661C157.512 11.5486 157.482 11.3212 157.482 11.0839C157.482 10.7675 157.322 10.5005 157.012 10.2929C156.609 10.0528 156.142 9.9391 155.672 9.9666C154.972 9.9666 154.103 10.0655 153.683 10.2632C153.263 10.4807 152.993 10.8861 152.863 11.4991H146.364C146.594 10.3917 146.554 9.7491 146.864 9.0668C147.184 8.3945 147.684 7.821 148.364 7.3365C149.218 6.784 150.177 6.4105 151.183 6.239C151.763 6.1204 152.453 6.0413 153.233 5.972C154.023 5.9127 154.892 5.8732 155.862 5.8732C158.222 5.8732 159.992 6.15 161.161 6.7037C162.341 7.2574 163.111 7.7024 163.461 8.5329C163.821 9.3635 164.061 10.4313 164.181 11.7463V20.6648C164.181 21.5844 164.521 22.2666 165.211 22.7116V23.2356V23.2257ZM184.257 23.2257H177.498V16.9274H172.489V23.2356H165.791V6.3675H172.489V12.0034H177.418V6.3675H184.257V23.2158V23.2257ZM203.044 11.3409H197.215V23.2356H190.436V11.3409H184.567V6.3774H203.044V11.3409ZM225 17.837C225 19.3201 224.29 20.6154 223.14 21.5448C221.641 22.7808 219.541 23.2257 217.641 23.2257H207.173V11.3508H203.264V6.3873H213.692V12.3H217.261C219.261 12.3 221.461 12.6856 223.03 13.9809C223.628 14.4403 224.115 15.0255 224.456 15.6943C224.797 16.363 224.983 17.0983 225 17.8469V17.837ZM218.261 17.8568C218.261 16.789 217.661 16.344 216.641 16.2254L215.412 16.1759C214.802 16.1463 213.982 16.1364 213.692 16.1364V19.3993L215.392 19.4289C215.852 19.4289 216.232 19.419 216.531 19.3993C217.571 19.3202 218.261 19.0433 218.261 17.8568ZM54.45 23.2356H51.161L47.572 11.9639L48.131 16.3836V23.2356H42.133V6.2687H49.831L52.811 15.6321L55.79 6.2687H63.489V23.2257H57.49V16.3737L58.04 11.9639L54.45 23.2257V23.2356ZM76.906 23.2356H73.617L70.028 11.9639L70.587 16.3836V23.2356H64.589V6.2687H72.277L75.267 15.6321L78.246 6.2687H85.945V23.2257H79.946V16.3737L80.496 11.9639L76.906 23.2257V23.2356Z" fill="#A0A0A0"/>
</svg>
