<svg width="48" height="48" viewBox="0 0 48 48" fill="none" xmlns="http://www.w3.org/2000/svg">
<mask id="mask0_7_701" style="mask-type:alpha" maskUnits="userSpaceOnUse" x="0" y="0" width="48" height="48">
<g clip-path="url(#clip0_7_701)">
<path d="M19 28.7998H15.2V35.7998H19V28.7998Z" stroke="#B5ADBE" stroke-width="2" stroke-linecap="round" stroke-linejoin="round"/>
<path d="M22.3 11.7998H11.8L13.5 26.7998C13.5753 27.6751 13.977 28.4901 14.6254 29.0829C15.2738 29.6757 16.1214 30.003 17 29.9998C17.8741 30.0083 18.7215 29.6984 19.3839 29.1279C20.0464 28.5575 20.4786 27.7655 20.6 26.8998L22.3 11.7998ZM38 32.0998C38 31.7846 37.9379 31.4725 37.8173 31.1814C37.6967 30.8902 37.5199 30.6256 37.297 30.4027C37.0742 30.1799 36.8096 30.0031 36.5184 29.8825C36.2272 29.7619 35.9152 29.6998 35.6 29.6998C35.2848 29.6998 34.9727 29.7619 34.6815 29.8825C34.3904 30.0031 34.1258 30.1799 33.9029 30.4027C33.6801 30.6256 33.5033 30.8902 33.3827 31.1814C33.2621 31.4725 33.2 31.7846 33.2 32.0998V33.2998C33.2 33.9363 33.4528 34.5468 33.9029 34.9969C34.353 35.4469 34.9635 35.6998 35.6 35.6998C36.2365 35.6998 36.847 35.4469 37.297 34.9969C37.7471 34.5468 38 33.9363 38 33.2998V32.0998ZM29.9 32.0998C29.9 31.4633 29.6471 30.8528 29.197 30.4027C28.747 29.9527 28.1365 29.6998 27.5 29.6998C26.8635 29.6998 26.253 29.9527 25.8029 30.4027C25.3528 30.8528 25.1 31.4633 25.1 32.0998V33.2998C25.1 33.9363 25.3528 34.5468 25.8029 34.9969C26.253 35.4469 26.8635 35.6998 27.5 35.6998C28.1365 35.6998 28.747 35.4469 29.197 34.9969C29.6471 34.5468 29.9 33.9363 29.9 33.2998V32.0998Z" stroke="#B5ADBE" stroke-width="2" stroke-linecap="round" stroke-linejoin="round"/>
<path d="M31.6 11.5V23.2M31.6 23.2L32.8 26.8C33 27.6 33.2 28.5 33.2 29.3V33.3M31.6 23.2L30.4 26.7C30 27.6 29.9 28.5 29.9 29.5V33.3" stroke="#B5ADBE" stroke-width="2" stroke-linecap="round" stroke-linejoin="round"/>
</g>
</mask>
<g mask="url(#mask0_7_701)">
<rect width="48" height="48" fill="#B5ADBE"/>
</g>
<defs>
<clipPath id="clip0_7_701">
<rect width="48" height="48" fill="white"/>
</clipPath>
</defs>
</svg>
