<svg width="399" height="389" viewBox="0 0 399 389" fill="none" xmlns="http://www.w3.org/2000/svg">
<g filter="url(#filter0_d_7_207)">
<path d="M206.027 155.91C211.363 150.351 220.26 150.351 225.596 155.91C228.915 159.368 233.817 160.816 238.482 159.715C245.943 157.953 253.403 162.852 254.903 170.371C255.843 175.083 259.197 179.027 263.719 180.651C270.96 183.253 274.603 191.399 271.829 198.576C270.091 203.072 270.809 208.214 273.738 212.042C278.432 218.179 277.189 227.003 270.956 231.568C267.072 234.412 264.96 239.15 265.373 243.945C266.031 251.59 260.255 258.399 252.595 258.834C247.805 259.105 243.492 261.916 241.275 266.172C237.727 272.982 229.193 275.545 222.527 271.732C218.366 269.353 213.257 269.353 209.096 271.732C202.43 275.545 193.896 272.982 190.348 266.172C188.132 261.916 183.819 259.105 179.029 258.834C171.369 258.399 165.593 251.59 166.251 243.945C166.663 239.15 164.551 234.412 160.668 231.568C154.435 227.003 153.192 218.179 157.886 212.042C160.814 208.214 161.532 203.072 159.794 198.576C157.02 191.399 160.663 183.253 167.904 180.651C172.427 179.027 175.781 175.083 176.721 170.371C178.221 162.852 185.68 157.953 193.141 159.715C197.807 160.816 202.708 159.368 206.027 155.91Z" fill="url(#paint0_linear_7_207)"/>
<path d="M206.027 155.91C211.363 150.351 220.26 150.351 225.596 155.91C228.915 159.368 233.817 160.816 238.482 159.715C245.943 157.953 253.403 162.852 254.903 170.371C255.843 175.083 259.197 179.027 263.719 180.651C270.96 183.253 274.603 191.399 271.829 198.576C270.091 203.072 270.809 208.214 273.738 212.042C278.432 218.179 277.189 227.003 270.956 231.568C267.072 234.412 264.96 239.15 265.373 243.945C266.031 251.59 260.255 258.399 252.595 258.834C247.805 259.105 243.492 261.916 241.275 266.172C237.727 272.982 229.193 275.545 222.527 271.732C218.366 269.353 213.257 269.353 209.096 271.732C202.43 275.545 193.896 272.982 190.348 266.172C188.132 261.916 183.819 259.105 179.029 258.834C171.369 258.399 165.593 251.59 166.251 243.945C166.663 239.15 164.551 234.412 160.668 231.568C154.435 227.003 153.192 218.179 157.886 212.042C160.814 208.214 161.532 203.072 159.794 198.576C157.02 191.399 160.663 183.253 167.904 180.651C172.427 179.027 175.781 175.083 176.721 170.371C178.221 162.852 185.68 157.953 193.141 159.715C197.807 160.816 202.708 159.368 206.027 155.91Z" fill="black" fill-opacity="0.1"/>
<path d="M215.812 193.715C219.139 195.094 222.604 196.118 226.148 196.769C228.246 199.822 230.672 202.649 233.388 205.191C233.505 208.997 234.044 212.783 234.996 216.478C233.067 219.732 231.507 223.184 230.338 226.765C227.077 228.412 224.005 230.403 221.173 232.698C217.609 232.322 214.014 232.321 210.449 232.698C207.617 230.403 204.545 228.412 201.284 226.765C200.115 223.184 198.555 219.732 196.626 216.478C197.578 212.783 198.117 208.997 198.234 205.191C200.95 202.649 203.376 199.823 205.475 196.769C209.018 196.118 212.484 195.094 215.812 193.715Z" stroke="#929292" stroke-opacity="0.1" stroke-width="75.0669"/>
<path d="M170.879 213.391C170.879 187.928 191.521 167.285 216.985 167.285C242.449 167.285 263.092 187.928 263.092 213.391V214.34C263.092 239.804 242.449 260.446 216.985 260.446C191.521 260.446 170.879 239.804 170.879 214.34V213.391Z" fill="black" fill-opacity="0.04"/>
<path d="M216.985 173.755C238.876 173.755 256.622 191.501 256.622 213.391V214.34C256.622 236.23 238.876 253.976 216.985 253.976C195.094 253.976 177.348 236.23 177.348 214.34V213.391C177.348 191.501 195.094 173.755 216.985 173.755Z" stroke="white" stroke-opacity="0.3" stroke-width="12.9397"/>
<g filter="url(#filter1_ddd_7_207)">
<path d="M209.238 222.236L200.385 213.292C199.908 212.809 199.261 212.538 198.586 212.538C197.911 212.538 197.264 212.809 196.788 213.292C195.793 214.297 195.793 215.921 196.788 216.926L207.452 227.7C208.447 228.705 210.054 228.705 211.049 227.7L238.042 200.43C239.037 199.424 239.037 197.801 238.042 196.795C237.565 196.313 236.918 196.042 236.243 196.042C235.568 196.042 234.921 196.313 234.445 196.795L209.238 222.236Z" fill="white"/>
<path d="M209.238 222.236L200.385 213.292C199.908 212.809 199.261 212.538 198.586 212.538C197.911 212.538 197.264 212.809 196.788 213.292C195.793 214.297 195.793 215.921 196.788 216.926L207.452 227.7C208.447 228.705 210.054 228.705 211.049 227.7L238.042 200.43C239.037 199.424 239.037 197.801 238.042 196.795C237.565 196.313 236.918 196.042 236.243 196.042C235.568 196.042 234.921 196.313 234.445 196.795L209.238 222.236Z" stroke="#FDFDFD" stroke-width="2.58793"/>
</g>
<path d="M263.222 213.939C263.222 239.691 242.556 260.567 217.063 260.567C191.571 260.567 170.905 239.691 170.905 213.939C170.905 188.186 191.571 167.31 217.063 167.31C242.556 167.31 263.222 188.186 263.222 213.939ZM180.533 213.939C180.533 234.319 196.888 250.84 217.063 250.84C237.239 250.84 253.594 234.319 253.594 213.939C253.594 193.558 237.239 177.037 217.063 177.037C196.888 177.037 180.533 193.558 180.533 213.939Z" fill="url(#paint1_linear_7_207)" fill-opacity="0.5"/>
</g>
<defs>
<filter id="filter0_d_7_207" x="120.254" y="136.031" width="191.116" height="191.116" filterUnits="userSpaceOnUse" color-interpolation-filters="sRGB">
<feFlood flood-opacity="0" result="BackgroundImageFix"/>
<feColorMatrix in="SourceAlpha" type="matrix" values="0 0 0 0 0 0 0 0 0 0 0 0 0 0 0 0 0 0 127 0" result="hardAlpha"/>
<feOffset dy="19.3721"/>
<feGaussianBlur stdDeviation="14.5291"/>
<feComposite in2="hardAlpha" operator="out"/>
<feColorMatrix type="matrix" values="0 0 0 0 0.478431 0 0 0 0 0.478431 0 0 0 0 0.631373 0 0 0 0.4 0"/>
<feBlend mode="normal" in2="BackgroundImageFix" result="effect1_dropShadow_7_207"/>
<feBlend mode="normal" in="SourceGraphic" in2="effect1_dropShadow_7_207" result="shape"/>
</filter>
<filter id="filter1_ddd_7_207" x="-5.72205e-06" y="0.000116348" width="398.875" height="388.541" filterUnits="userSpaceOnUse" color-interpolation-filters="sRGB">
<feFlood flood-opacity="0" result="BackgroundImageFix"/>
<feColorMatrix in="SourceAlpha" type="matrix" values="0 0 0 0 0 0 0 0 0 0 0 0 0 0 0 0 0 0 127 0" result="hardAlpha"/>
<feOffset dx="17.9771" dy="17.9771"/>
<feGaussianBlur stdDeviation="26.9656"/>
<feColorMatrix type="matrix" values="0 0 0 0 0 0 0 0 0 0 0 0 0 0 0 0 0 0 1 0"/>
<feBlend mode="normal" in2="BackgroundImageFix" result="effect1_dropShadow_7_207"/>
<feColorMatrix in="SourceAlpha" type="matrix" values="0 0 0 0 0 0 0 0 0 0 0 0 0 0 0 0 0 0 127 0" result="hardAlpha"/>
<feOffset dx="-17.9771" dy="-17.9771"/>
<feGaussianBlur stdDeviation="88.3852"/>
<feColorMatrix type="matrix" values="0 0 0 0 0.498039 0 0 0 0 0.866667 0 0 0 0 0.32549 0 0 0 1 0"/>
<feBlend mode="normal" in2="effect1_dropShadow_7_207" result="effect2_dropShadow_7_207"/>
<feColorMatrix in="SourceAlpha" type="matrix" values="0 0 0 0 0 0 0 0 0 0 0 0 0 0 0 0 0 0 127 0" result="hardAlpha"/>
<feOffset/>
<feGaussianBlur stdDeviation="10.8968"/>
<feComposite in2="hardAlpha" operator="out"/>
<feColorMatrix type="matrix" values="0 0 0 0 0.85959 0 0 0 0 0.991856 0 0 0 0 0.578524 0 0 0 0.25 0"/>
<feBlend mode="normal" in2="effect2_dropShadow_7_207" result="effect3_dropShadow_7_207"/>
<feBlend mode="normal" in="SourceGraphic" in2="effect3_dropShadow_7_207" result="shape"/>
</filter>
<linearGradient id="paint0_linear_7_207" x1="182.036" y1="171.89" x2="270.225" y2="226.293" gradientUnits="userSpaceOnUse">
<stop stop-color="#B6C0D6"/>
<stop offset="1" stop-color="#6B6A7B" stop-opacity="0.84"/>
</linearGradient>
<linearGradient id="paint1_linear_7_207" x1="217.063" y1="167.31" x2="217.063" y2="260.567" gradientUnits="userSpaceOnUse">
<stop stop-color="white"/>
<stop offset="0.0001" stop-color="white" stop-opacity="0.81"/>
<stop offset="1" stop-color="white" stop-opacity="0"/>
</linearGradient>
</defs>
</svg>
