<svg width="20" height="20" viewBox="0 0 20 20" fill="none" xmlns="http://www.w3.org/2000/svg">
<g clip-path="url(#clip0_7_1690)">
<g clip-path="url(#clip1_7_1690)">
<path fill-rule="evenodd" clip-rule="evenodd" d="M13.5475 8.45602C13.0883 8.91689 12.5426 9.28257 11.9418 9.53208C11.341 9.78159 10.6968 9.91003 10.0462 9.91003C9.39565 9.91003 8.75147 9.78159 8.15064 9.53208C7.54982 9.28257 7.00416 8.91689 6.54497 8.45602C6.08411 7.99684 5.71843 7.45118 5.46892 6.85035C5.2194 6.24953 5.09096 5.60535 5.09096 4.95477C5.09096 4.3042 5.2194 3.66002 5.46892 3.05919C5.71843 2.45837 6.08411 1.91271 6.54497 1.45352C7.00416 0.992656 7.54982 0.626979 8.15064 0.377466C8.75147 0.127952 9.39565 -0.000488281 10.0462 -0.000488281C10.6968 -0.000488281 11.341 0.127952 11.9418 0.377466C12.5426 0.626979 13.0883 0.992656 13.5475 1.45352C14.0083 1.91271 14.374 2.45837 14.6235 3.05919C14.873 3.66002 15.0015 4.3042 15.0015 4.95477C15.0015 5.60535 14.873 6.24953 14.6235 6.85035C14.374 7.45118 14.0083 7.99684 13.5475 8.45602ZM10.0458 2.69186C9.43497 2.69186 8.87331 2.94019 8.46081 3.35269C8.06414 3.76602 7.79997 4.32769 7.79997 4.93852C7.79997 5.54936 8.04747 6.11102 8.46081 6.52352C8.85747 6.93686 9.41914 7.18436 10.0458 7.18436C10.6575 7.18436 11.2191 6.93686 11.6316 6.52352C12.0441 6.12769 12.2925 5.56519 12.2925 4.93852C12.2925 4.32686 12.045 3.76602 11.6316 3.35269C11.426 3.14093 11.1794 2.97316 10.907 2.85956C10.6345 2.74597 10.341 2.68891 10.0458 2.69186ZM15.265 9.92519L16.7183 11.9077C16.8016 12.0069 16.785 12.1385 16.6516 12.2219C15.43 13.2285 14.01 13.8894 12.5233 14.236L15.5958 19.6527C15.6783 19.8185 15.5791 20.0002 15.3975 20.0002H12.3916C12.3451 19.9995 12.2999 19.985 12.2616 19.9586C12.2234 19.9322 12.1938 19.8951 12.1766 19.8519L10.03 15.0619L7.88247 19.8519C7.84914 19.951 7.76747 20.0002 7.66831 20.0002H4.66247C4.49747 20.0002 4.38164 19.8019 4.46414 19.6535L7.53581 14.2369C6.02505 13.886 4.61354 13.197 3.40747 12.2219C3.3666 12.1813 3.34096 12.1279 3.33489 12.0707C3.32882 12.0135 3.34268 11.9559 3.37414 11.9077L4.82747 9.92602C4.87037 9.87773 4.92996 9.84745 4.99426 9.84126C5.05856 9.83508 5.12282 9.85345 5.17414 9.89269C6.54497 11.0652 8.22997 11.8252 10.0466 11.8252C11.8633 11.8252 13.5475 11.0652 14.9183 9.89269C14.9421 9.86959 14.9706 9.85193 15.0018 9.84095C15.0331 9.82996 15.0664 9.82592 15.0994 9.82909C15.1323 9.83226 15.1642 9.84257 15.1928 9.85931C15.2214 9.87605 15.2461 9.89882 15.265 9.92602V9.92519Z" fill="#2B2F33"/>
</g>
</g>
<defs>
<clipPath id="clip0_7_1690">
<rect width="20" height="20" fill="white"/>
</clipPath>
<clipPath id="clip1_7_1690">
<rect width="20" height="20" fill="white"/>
</clipPath>
</defs>
</svg>
