<svg width="48" height="48" viewBox="0 0 48 48" fill="none" xmlns="http://www.w3.org/2000/svg">
<mask id="mask0_7_630" style="mask-type:alpha" maskUnits="userSpaceOnUse" x="0" y="0" width="48" height="48">
<g clip-path="url(#clip0_7_630)">
<path d="M24 30.6998C25.777 30.6998 27.4812 29.9939 28.7377 28.7374C29.9942 27.4809 30.7001 25.7768 30.7001 23.9998C30.7001 22.2229 29.9942 20.5187 28.7377 19.2622C27.4812 18.0057 25.777 17.2998 24 17.2998C22.2231 17.2998 20.5189 18.0057 19.2624 19.2622C18.0059 20.5187 17.3 22.2229 17.3 23.9998C17.3 25.7768 18.0059 27.4809 19.2624 28.7374C20.5189 29.9939 22.2231 30.6998 24 30.6998Z" stroke="#B5ADBE" stroke-width="2" stroke-linecap="round" stroke-linejoin="round"/>
<path d="M34.8 14.5C33.9348 14.3875 33.068 14.2875 32.2 14.2C31.779 14.1605 31.3832 13.9817 31.0753 13.6919C30.7673 13.4021 30.5649 13.0178 30.5 12.6C30.4561 12.1641 30.2628 11.7567 29.953 11.4469C29.6432 11.1371 29.2359 10.9439 28.8 10.9C25.6139 10.4773 22.386 10.4773 19.2 10.9C18.7641 10.9439 18.3567 11.1371 18.0469 11.4469C17.7371 11.7567 17.5439 12.1641 17.5 12.6C17.4561 13.0359 17.2628 13.4433 16.953 13.7531C16.6432 14.0629 16.2359 14.2561 15.8 14.3L13.2 14.5C12.427 14.5676 11.7026 14.9054 11.154 15.454C10.6053 16.0026 10.2676 16.7271 10.2 17.5C9.53263 22.1428 9.53263 26.8572 10.2 31.5C10.3105 32.2369 10.6671 32.9146 11.2118 33.423C11.7565 33.9314 12.4573 34.2405 13.2 34.3C20.347 35.05 27.5529 35.05 34.7 34.3C35.4729 34.2324 36.1973 33.8946 36.746 33.346C37.2946 32.7974 37.6324 32.0729 37.7 31.3C38.2103 26.6473 38.2103 21.9527 37.7 17.3C37.5895 16.5631 37.2328 15.8854 36.6881 15.377C36.1434 14.8686 35.4427 14.5595 34.7 14.5H34.8Z" stroke="#B5ADBE" stroke-width="2" stroke-linecap="round" stroke-linejoin="round"/>
</g>
</mask>
<g mask="url(#mask0_7_630)">
<rect width="48" height="48" fill="#B5ADBE"/>
</g>
<defs>
<clipPath id="clip0_7_630">
<rect width="48" height="48" fill="white"/>
</clipPath>
</defs>
</svg>
