<svg width="48" height="48" viewBox="0 0 48 48" fill="none" xmlns="http://www.w3.org/2000/svg">
<mask id="mask0_7_640" style="mask-type:alpha" maskUnits="userSpaceOnUse" x="0" y="0" width="48" height="48">
<g clip-path="url(#clip0_7_640)">
<path d="M29.8 17.3002L34 21.5002L29.8 25.7002M18.2 17.3002L14 21.5002L18.2 25.7002M26.5 15.7002L21.5 27.3002M18.2 38.1002H29.8M24 38.2002V32.4002" stroke="#B5ADBE" stroke-width="2" stroke-linecap="round" stroke-linejoin="round"/>
<path d="M37.7 28.9998C37.5895 29.7366 37.2329 30.4144 36.6882 30.9228C36.1435 31.4312 35.4427 31.7403 34.7 31.7998C27.553 32.5513 20.347 32.5513 13.2 31.7998C12.4424 31.736 11.7301 31.4125 11.1835 30.8841C10.6369 30.3557 10.2895 29.6548 10.2 28.8998C9.6013 23.9846 9.6013 19.015 10.2 14.0998C10.2895 13.3448 10.6369 12.6439 11.1835 12.1155C11.7301 11.5871 12.4424 11.2636 13.2 11.1998C20.347 10.449 27.553 10.449 34.7 11.1998C35.473 11.2674 36.1974 11.6052 36.746 12.1538C37.2946 12.7024 37.6324 13.4268 37.7 14.1998C38.2655 19.0835 38.2655 24.0161 37.7 28.8998V28.9998Z" stroke="#B5ADBE" stroke-width="2" stroke-linecap="round" stroke-linejoin="round"/>
</g>
</mask>
<g mask="url(#mask0_7_640)">
<rect width="48" height="48" fill="#B5ADBE"/>
</g>
<defs>
<clipPath id="clip0_7_640">
<rect width="48" height="48" fill="white"/>
</clipPath>
</defs>
</svg>
