<svg width="88" height="24" viewBox="0 0 88 24" fill="none" xmlns="http://www.w3.org/2000/svg">
<g opacity="0.3">
<path fill-rule="evenodd" clip-rule="evenodd" d="M0 0V22.3881L22.002 0H0ZM1.57101 23.9901H23.573V1.602L1.57101 23.9901ZM35.942 11.4726C38.497 11.4726 39.859 10.199 39.859 7.8209V7.6816C39.859 5.1343 38.427 4.1294 35.942 4.1294H33.277V11.4726H35.942ZM28.067 0H36.071C41.698 0 44.91 2.5871 44.91 7.6517V7.7811C44.91 12.8557 41.509 15.2736 36.23 15.2736H33.287V23.9901H28.067V0ZM55.29 19.8706C57.795 19.8706 59.068 18.7264 59.068 16.5473V16.408C59.068 14.2587 57.795 13.0846 55.16 13.0846H52.237V19.8706H55.29ZM55.478 23.9901H47.157V0H61.961V4.2289H52.267L52.237 9.2637H55.638C60.877 9.2637 63.989 11.6517 63.989 16.4478V16.5771C63.989 21.2736 61.106 23.9901 55.478 23.9901ZM67.787 0.0298996H73.255V10.3582L81.706 0H87.523L77.958 11.3632L88 24H81.607L73.255 13.2338V23.9901H67.787V0.0298996Z" fill="#A0A0A0"/>
</g>
</svg>
