<svg width="48" height="48" viewBox="0 0 48 48" fill="none" xmlns="http://www.w3.org/2000/svg">
<mask id="mask0_7_721" style="mask-type:alpha" maskUnits="userSpaceOnUse" x="0" y="0" width="48" height="48">
<g clip-path="url(#clip0_7_721)">
<path d="M30.9 20.0001L26 15.8001C25.5109 15.3273 24.9305 14.9593 24.2943 14.7186C23.6581 14.4779 22.9795 14.3695 22.3 14.4001H15.6C14.3 14.4001 13 14.9001 12 15.8001L8.99995 18.3001C8.43401 18.8229 7.98205 19.4569 7.67233 20.1623C7.36261 20.8678 7.2018 21.6296 7.19995 22.4001V26.3001C7.19995 27.1488 7.53709 27.9627 8.13721 28.5628C8.73733 29.1629 9.55126 29.5001 10.4 29.5001H11.2" stroke="#B5ADBE" stroke-width="2" stroke-linecap="round" stroke-linejoin="round"/>
<path d="M37.2 29.5H38C38.8487 29.5 39.6626 29.1629 40.2627 28.5627C40.8629 27.9626 41.2 27.1487 41.2 26.3V24.6C41.1917 23.933 40.9752 23.2853 40.5807 22.7475C40.1863 22.2096 39.6336 21.8084 39 21.6C35.6 20.6 32 20 28.5 20" stroke="#B5ADBE" stroke-width="2" stroke-linecap="round" stroke-linejoin="round"/>
<path d="M30.9 29.5002C30.9 28.678 31.2266 27.8895 31.808 27.3082C32.3893 26.7268 33.1778 26.4002 34 26.4002C34.4071 26.4002 34.8102 26.4804 35.1863 26.6362C35.5624 26.792 35.9042 27.0203 36.192 27.3082C36.4799 27.596 36.7082 27.9378 36.864 28.3139C37.0198 28.69 37.1 29.0931 37.1 29.5002C37.1 29.9073 37.0198 30.3104 36.864 30.6865C36.7082 31.0626 36.4799 31.4044 36.192 31.6922C35.9042 31.9801 35.5624 32.2084 35.1863 32.3642C34.8102 32.52 34.4071 32.6002 34 32.6002C33.1778 32.6002 32.3893 32.2736 31.808 31.6922C31.2266 31.1109 30.9 30.3224 30.9 29.5002ZM30.9 29.5002H17.6M30.9 20.0002L38.1 15.2002M8 20.0002H28.5M14.3 32.6002C14.7071 32.6002 15.1102 32.52 15.4863 32.3642C15.8624 32.2084 16.2042 31.9801 16.492 31.6922C16.7799 31.4044 17.0082 31.0626 17.164 30.6865C17.3198 30.3104 17.4 29.9073 17.4 29.5002C17.4 29.0931 17.3198 28.69 17.164 28.3139C17.0082 27.9378 16.7799 27.596 16.492 27.3082C16.2042 27.0203 15.8624 26.792 15.4863 26.6362C15.1102 26.4804 14.7071 26.4002 14.3 26.4002C13.4778 26.4002 12.6893 26.7268 12.108 27.3082C11.5266 27.8895 11.2 28.678 11.2 29.5002C11.2 30.3224 11.5266 31.1109 12.108 31.6922C12.6893 32.2736 13.4778 32.6002 14.3 32.6002Z" stroke="#B5ADBE" stroke-width="2" stroke-linecap="round" stroke-linejoin="round"/>
</g>
</mask>
<g mask="url(#mask0_7_721)">
<rect width="48" height="48" fill="#B5ADBE"/>
</g>
<defs>
<clipPath id="clip0_7_721">
<rect width="48" height="48" fill="white"/>
</clipPath>
</defs>
</svg>
