<svg width="48" height="48" viewBox="0 0 48 48" fill="none" xmlns="http://www.w3.org/2000/svg">
<mask id="mask0_7_692" style="mask-type:alpha" maskUnits="userSpaceOnUse" x="0" y="0" width="48" height="48">
<g clip-path="url(#clip0_7_692)">
<path d="M14 24.8V37.3M23.4 32.3H38M23.4 16.5H38M9.80005 24.8H18.2M34.5 37.3H26.9C26.0573 37.329 25.2355 37.0343 24.6032 36.4764C23.9709 35.9185 23.5762 35.1398 23.5 34.3C22.9765 27.7104 22.9765 21.0896 23.5 14.5C23.5762 13.6602 23.9709 12.8815 24.6032 12.3236C25.2355 11.7657 26.0573 11.471 26.9 11.5H34.5C35.3257 11.4966 36.1226 11.8028 36.7335 12.3582C37.3445 12.9136 37.725 13.6778 37.8 14.5C38.3239 21.123 38.3239 27.777 37.8 34.4C37.725 35.2222 37.3445 35.9864 36.7335 36.5418C36.1226 37.0972 35.3257 37.4034 34.5 37.4V37.3ZM16.6 24.8H11.4V14.1C11.4 13.4104 11.674 12.7491 12.1616 12.2615C12.6492 11.7739 13.3105 11.5 14 11.5C14.6896 11.5 15.3509 11.7739 15.8385 12.2615C16.3261 12.7491 16.6 13.4104 16.6 14.1V24.8Z" stroke="#B5ADBE" stroke-width="2" stroke-linecap="round" stroke-linejoin="round"/>
</g>
</mask>
<g mask="url(#mask0_7_692)">
<rect width="48" height="48" fill="#B5ADBE"/>
</g>
<defs>
<clipPath id="clip0_7_692">
<rect width="48" height="48" fill="white"/>
</clipPath>
</defs>
</svg>
