<svg width="48" height="48" viewBox="0 0 48 48" fill="none" xmlns="http://www.w3.org/2000/svg">
<mask id="mask0_7_591" style="mask-type:alpha" maskUnits="userSpaceOnUse" x="0" y="0" width="48" height="48">
<g clip-path="url(#clip0_7_591)">
<path d="M34.8 14.5001C34.8034 15.3257 34.4972 16.1227 33.9418 16.7336C33.3864 17.3445 32.6222 17.725 31.8 17.8001C26.048 18.3809 20.252 18.3809 14.5 17.8001C13.6602 17.7239 12.8815 17.3292 12.3236 16.6969C11.7657 16.0647 11.471 15.2428 11.5 14.4001V13.6001C11.4966 12.7745 11.8028 11.9775 12.3582 11.3666C12.9136 10.7557 13.6778 10.3751 14.5 10.3001C20.3 9.7001 26.1 9.7001 31.9 10.3001C32.7222 10.3751 33.4864 10.7557 34.0418 11.3666C34.5972 11.9775 34.9034 12.7745 34.9 13.6001V14.5001H34.8Z" stroke="#B5ADBE" stroke-width="2" stroke-linecap="round" stroke-linejoin="round"/>
<path d="M24 27.3V25.7001C23.9866 25.2583 24.0621 24.8185 24.2219 24.4065C24.3817 23.9945 24.6227 23.6188 24.9305 23.3017C25.2382 22.9846 25.6066 22.7325 26.0136 22.5605C26.4206 22.3884 26.8581 22.2998 27.3 22.3C30.6 22.3 33.3 22.1001 35.2 21.9001C36.0222 21.825 36.7864 21.4445 37.3418 20.8335C37.8972 20.2226 38.2034 19.4257 38.2 18.6001V17.3001C38.2002 16.8581 38.1116 16.4207 37.9396 16.0137C37.7675 15.6066 37.5155 15.2383 37.1984 14.9305C36.8813 14.6227 36.5056 14.3818 36.0936 14.222C35.6816 14.0621 35.2417 13.9867 34.8 14.0001" stroke="#B5ADBE" stroke-width="2" stroke-linecap="round" stroke-linejoin="round"/>
<path d="M24 38.9998C23.2446 38.979 22.5228 38.6829 21.9704 38.1673C21.4179 37.6516 21.0729 36.952 21 36.1998C20.7721 34.1729 20.7721 32.1268 21 30.0998C21.0508 29.3393 21.3892 28.6267 21.9464 28.1066C22.5036 27.5866 23.2378 27.2981 24 27.2998C24.7622 27.2981 25.4964 27.5866 26.0536 28.1066C26.6108 28.6267 26.9492 29.3393 27 30.0998C27.2375 32.1262 27.2375 34.1734 27 36.1998C26.9492 36.9603 26.6108 37.6729 26.0536 38.193C25.4964 38.713 24.7622 39.0015 24 38.9998Z" stroke="#B5ADBE" stroke-width="2" stroke-linecap="round" stroke-linejoin="round"/>
</g>
</mask>
<g mask="url(#mask0_7_591)">
<rect width="48" height="48" fill="#B5ADBE"/>
</g>
<defs>
<clipPath id="clip0_7_591">
<rect width="48" height="48" fill="white"/>
</clipPath>
</defs>
</svg>
