<?xml version="1.0" standalone="no"?>
<!DOCTYPE svg PUBLIC "-//W3C//DTD SVG 20010904//EN"
 "http://www.w3.org/TR/2001/REC-SVG-20010904/DTD/svg10.dtd">
<svg version="1.0" xmlns="http://www.w3.org/2000/svg"
 width="686.000000pt" height="196.000000pt" viewBox="0 0 686.000000 196.000000"
 preserveAspectRatio="xMidYMid meet">

<g transform="translate(0.000000,196.000000) scale(0.100000,-0.100000)"
fill="#A0A0A0" opacity="0.3" stroke="none">
<path d="M919 1493 c-21 -5 -39 -67 -39 -137 0 -137 118 -249 315 -301 74 -19
230 -29 270 -17 25 7 16 10 -55 15 -175 13 -311 84 -378 196 -33 57 -35 140
-4 200 12 23 22 44 22 46 0 6 -109 4 -131 -2z"/>
<path d="M1080 1447 c-48 -104 3 -205 129 -259 57 -24 197 -44 237 -33 l29 8
-41 8 c-83 15 -122 30 -163 59 -74 54 -100 128 -67 192 14 26 13 27 -17 38
-89 33 -87 33 -107 -13z"/>
<path d="M769 1442 l-74 -37 1 -65 c2 -188 180 -347 453 -405 91 -19 257 -29
306 -18 35 8 28 10 -66 16 -319 20 -547 179 -566 395 -3 38 0 72 11 102 8 24
14 45 13 47 -2 1 -37 -14 -78 -35z"/>
<path d="M1246 1394 c-8 -30 11 -65 49 -90 27 -18 105 -38 113 -29 7 7 -131
145 -145 145 -6 0 -14 -12 -17 -26z"/>
<path d="M591 1295 c-92 -123 -120 -313 -66 -465 24 -69 59 -122 119 -182 200
-200 517 -193 714 16 40 42 92 121 92 139 0 2 -46 7 -102 10 -258 15 -514 129
-623 278 -51 69 -85 153 -85 209 0 22 -3 40 -7 40 -5 0 -23 -21 -42 -45z"/>
<path d="M1718 1205 c-5 -5 -8 -97 -8 -206 l0 -197 45 -4 45 -3 0 56 0 56 85
5 c91 5 118 17 158 70 25 34 26 106 1 148 -31 54 -77 71 -206 77 -62 3 -116 2
-120 -2z m232 -100 c26 -24 27 -76 0 -100 -14 -13 -37 -18 -82 -19 l-63 -1 -3
59 c-4 86 -2 89 68 84 39 -3 66 -11 80 -23z"/>
<path d="M2120 998 l0 -208 43 0 42 0 95 130 c52 72 96 130 99 130 4 0 6 -57
6 -127 l0 -128 45 0 45 0 0 205 0 205 -36 3 c-45 4 -44 4 -156 -149 l-88 -121
-3 130 -3 131 -27 5 c-66 12 -62 24 -62 -206z"/>
<path d="M2736 1201 c-12 -4 -50 -77 -107 -205 -49 -109 -89 -200 -89 -202 0
-2 21 -4 46 -4 44 0 46 1 65 45 l20 45 98 0 98 0 17 -45 c17 -44 19 -45 62
-45 29 0 44 4 44 13 0 6 -40 99 -88 206 -84 187 -88 195 -117 197 -16 2 -38
-1 -49 -5z m66 -168 c15 -37 28 -71 28 -75 0 -4 -27 -8 -60 -8 -40 0 -60 4
-60 12 0 17 54 147 59 142 2 -2 17 -34 33 -71z"/>
<path d="M3190 1000 l0 -210 45 0 45 0 0 85 0 85 95 0 95 0 0 -85 0 -85 45 0
45 0 0 210 0 210 -45 0 -45 0 0 -85 0 -85 -95 0 -95 0 0 85 0 85 -45 0 -45 0
0 -210z"/>
<path d="M3770 1186 c-68 -35 -104 -91 -108 -174 -4 -84 23 -143 85 -186 36
-25 54 -30 120 -33 68 -4 84 -2 123 19 28 15 58 43 78 72 28 43 32 56 32 116
0 60 -4 73 -32 116 -44 65 -102 93 -188 93 -48 0 -77 -6 -110 -23z m170 -69
c35 -18 70 -74 70 -114 0 -77 -55 -133 -131 -133 -42 0 -55 5 -87 34 -35 33
-37 38 -37 96 0 58 2 63 37 96 31 28 46 34 80 34 24 0 54 -6 68 -13z"/>
<path d="M4195 1188 c-2 -13 -4 -106 -2 -208 l2 -185 135 1 c156 0 192 12 216
71 20 46 10 86 -29 119 -20 17 -27 29 -19 31 23 8 44 63 38 98 -13 69 -82 95
-253 95 -78 0 -83 -1 -88 -22z m223 -64 c31 -21 26 -64 -8 -81 -14 -7 -46 -13
-72 -13 l-48 0 0 55 0 55 53 0 c32 0 61 -6 75 -16z m26 -167 c26 -19 18 -68
-14 -84 -14 -7 -51 -13 -82 -13 l-58 0 0 55 0 55 68 0 c40 0 75 -5 86 -13z"/>
<path d="M4745 1191 c-168 -78 -164 -314 7 -385 50 -21 143 -20 193 3 72 32
125 113 125 191 0 78 -53 159 -125 191 -53 25 -147 24 -200 0z m165 -76 c38
-19 60 -63 60 -115 0 -80 -49 -130 -128 -130 -89 0 -148 85 -120 172 24 76
114 111 188 73z"/>
<path d="M5255 1191 c-168 -78 -164 -314 7 -385 75 -32 206 -12 247 37 11 14
11 20 1 33 -27 32 -49 36 -77 15 -31 -25 -101 -28 -143 -6 -81 42 -80 189 2
231 39 20 120 14 147 -10 21 -19 45 -12 72 20 12 14 10 19 -15 39 -59 47 -170
59 -241 26z"/>
<path d="M5557 1204 c-4 -4 -7 -22 -7 -41 l0 -33 70 0 70 0 0 -170 0 -170 45
0 45 0 0 170 0 170 66 0 65 0 -3 38 -3 37 -171 3 c-93 1 -173 -1 -177 -4z"/>
<path d="M5990 1000 l0 -211 43 3 c41 3 43 5 137 131 l95 128 5 -128 5 -128
45 0 45 0 0 205 0 205 -41 3 -41 3 -101 -137 -101 -138 -3 135 -3 134 -42 3
-43 3 0 -211z"/>
</g>
</svg>
