<svg width="48" height="48" viewBox="0 0 48 48" fill="none" xmlns="http://www.w3.org/2000/svg">
<g opacity="0.3">
<path d="M48 0H0V48H48V0Z" fill="#A0A0A0"/>
<path fill-rule="evenodd" clip-rule="evenodd" d="M3.28101 32.4297H14.001L12.531 34.9997H9.731V43.4797H7.03101V34.9997H3.28101V32.4297ZM28.851 34.9997C28.541 34.9997 28.321 35.1997 28.321 35.5197V40.4197C28.321 40.7297 28.541 40.9097 28.851 40.9097H34.401V43.4797H28.841C26.901 43.4797 25.641 42.2897 25.641 40.4097V35.5097C25.641 33.6497 26.901 32.4297 28.841 32.4297H35.061L33.611 34.9997H28.861H28.851ZM21.311 40.9897H17.441C17.313 40.9939 17.186 40.9717 17.067 40.9243C16.947 40.8769 16.839 40.8055 16.749 40.7144C16.659 40.6233 16.589 40.5146 16.543 40.395C16.497 40.2755 16.476 40.1477 16.481 40.0197C16.481 39.4397 16.881 39.0297 17.441 39.0297H21.311V40.9997V40.9897ZM20.811 32.4297H15.791L14.321 34.9997H20.811C21.121 34.9997 21.311 35.1997 21.311 35.5197V36.6897H17.111C16.664 36.6784 16.219 36.759 15.804 36.9265C15.389 37.094 15.013 37.3449 14.699 37.6636C14.385 37.9823 14.14 38.3621 13.979 38.7794C13.817 39.1967 13.743 39.6426 13.761 40.0897C13.761 42.0397 15.181 43.4897 17.111 43.4897H23.991V35.5197C23.991 33.6497 22.731 32.4297 20.801 32.4297H20.811ZM38.801 34.9997C38.501 34.9997 38.281 35.1997 38.281 35.5197V40.4197C38.281 40.7297 38.491 40.9097 38.801 40.9097H44.351V43.4797H38.801C36.861 43.4797 35.601 42.2897 35.601 40.4097V35.5097C35.601 33.6497 36.861 32.4297 38.801 32.4297H45.021L43.561 34.9997H38.801Z" fill="#ECECEC"/>
</g>
</svg>
