<svg width="48" height="48" viewBox="0 0 48 48" fill="none" xmlns="http://www.w3.org/2000/svg">
<mask id="mask0_7_602" style="mask-type:alpha" maskUnits="userSpaceOnUse" x="0" y="0" width="48" height="48">
<g clip-path="url(#clip0_7_602)">
<path d="M18.4 32.1002H28.4V15.8002C28.374 14.9424 28.0149 14.1285 27.3988 13.5311C26.7827 12.9337 25.9582 12.5998 25.1 12.6002H11.4C10.9666 12.5869 10.5348 12.6591 10.1293 12.8127C9.72382 12.9663 9.35259 13.1984 9.03683 13.4956C8.72107 13.7928 8.46697 14.1493 8.28907 14.5447C8.11116 14.9401 8.01293 15.3668 8 15.8002V28.8002C8 29.6754 8.34768 30.5148 8.96655 31.1336C9.58542 31.7525 10.4248 32.1002 11.3 32.1002H11.6M28.4 18.3002H33.8C34.6684 18.3179 35.4948 18.6772 36.1 19.3002L39.8 23.1002C40.4 23.7002 40.8 24.5002 40.8 25.4002V28.8002C40.8 29.6754 40.4523 30.5148 39.8335 31.1336C39.2146 31.7525 38.3752 32.1002 37.5 32.1002M28.3 32.1002H31" stroke="#B5ADBE" stroke-width="2" stroke-linecap="round" stroke-linejoin="round"/>
<path d="M15.1 35.2999C15.9487 35.2999 16.7626 34.9628 17.3628 34.3626C17.9629 33.7625 18.3 32.9486 18.3 32.0999C18.3 31.2512 17.9629 30.4373 17.3628 29.8372C16.7626 29.237 15.9487 28.8999 15.1 28.8999C14.2513 28.8999 13.4374 29.237 12.8373 29.8372C12.2372 30.4373 11.9 31.2512 11.9 32.0999C11.9 32.9486 12.2372 33.7625 12.8373 34.3626C13.4374 34.9628 14.2513 35.2999 15.1 35.2999ZM34.3 35.2999C35.1487 35.2999 35.9626 34.9628 36.5628 34.3626C37.1629 33.7625 37.5 32.9486 37.5 32.0999C37.5 31.2512 37.1629 30.4373 36.5628 29.8372C35.9626 29.237 35.1487 28.8999 34.3 28.8999C33.4513 28.8999 32.6374 29.237 32.0373 29.8372C31.4372 30.4373 31.1 31.2512 31.1 32.0999C31.1 32.9486 31.4372 33.7625 32.0373 34.3626C32.6374 34.9628 33.4513 35.2999 34.3 35.2999Z" stroke="#B5ADBE" stroke-width="2" stroke-linecap="round" stroke-linejoin="round"/>
</g>
</mask>
<g mask="url(#mask0_7_602)">
<rect width="48" height="48" fill="#B5ADBE"/>
</g>
<defs>
<clipPath id="clip0_7_602">
<rect width="48" height="48" fill="white"/>
</clipPath>
</defs>
</svg>
