<svg width="48" height="48" viewBox="0 0 48 48" fill="none" xmlns="http://www.w3.org/2000/svg">
<mask id="mask0_7_612" style="mask-type:alpha" maskUnits="userSpaceOnUse" x="0" y="0" width="48" height="48">
<g clip-path="url(#clip0_7_612)">
<path d="M14.8 35.6V9M10.7 35.6H19M34.8 18.2C34.8 16.8739 34.2732 15.6021 33.3355 14.6645C32.3979 13.7268 31.1261 13.2 29.8 13.2C28.4739 13.2 27.2022 13.7268 26.2645 14.6645C25.3268 15.6021 24.8 16.8739 24.8 18.2M35.7 19C36.1333 19.0255 36.5405 19.2158 36.838 19.5319C37.1354 19.848 37.3008 20.2659 37.3 20.7C36.9669 24.9677 36.1961 29.1898 35 33.3C34.785 33.9766 34.3575 34.5658 33.781 34.9801C33.2046 35.3944 32.5098 35.6118 31.8 35.6H28C27.2902 35.6118 26.5955 35.3944 26.019 34.9801C25.4425 34.5658 25.015 33.9766 24.8 33.3C23.4588 28.9854 22.6856 24.5144 22.5 20C22.6311 19.7094 22.8413 19.4616 23.1065 19.2848C23.3718 19.108 23.6814 19.0093 24 19H35.7Z" stroke="#B5ADBE" stroke-width="2" stroke-linecap="round" stroke-linejoin="round"/>
</g>
</mask>
<g mask="url(#mask0_7_612)">
<rect width="48" height="48" fill="#B5ADBE"/>
</g>
<defs>
<clipPath id="clip0_7_612">
<rect width="48" height="48" fill="white"/>
</clipPath>
</defs>
</svg>
