<svg width="48" height="48" viewBox="0 0 48 48" fill="none" xmlns="http://www.w3.org/2000/svg">
<mask id="mask0_7_650" style="mask-type:alpha" maskUnits="userSpaceOnUse" x="0" y="0" width="48" height="48">
<g clip-path="url(#clip0_7_650)">
<path d="M16.6 37.7C15.8271 37.6324 15.1026 37.2946 14.554 36.746C14.0054 36.1974 13.6676 35.473 13.6 34.7C12.8817 27.5495 12.9153 20.3435 13.7 13.2C13.7638 12.4424 14.0873 11.7301 14.6157 11.1835C15.1441 10.6369 15.845 10.2895 16.6 10.2C21.5152 9.6013 26.4848 9.6013 31.4 10.2C32.155 10.2895 32.8559 10.6369 33.3843 11.1835C33.9127 11.7301 34.2362 12.4424 34.3 13.2C35.0508 20.347 35.0508 27.553 34.3 34.7C34.2324 35.473 33.8946 36.1974 33.346 36.746C32.7974 37.2946 32.0729 37.6324 31.3 37.7C26.4164 38.2664 21.4836 38.2664 16.6 37.7Z" stroke="#B5ADBE" stroke-width="2" stroke-linecap="round" stroke-linejoin="round"/>
<path d="M24 33.1998C24.8798 33.1998 25.7511 33.0265 26.564 32.6898C27.3768 32.3531 28.1155 31.8596 28.7376 31.2374C29.3598 30.6153 29.8533 29.8767 30.19 29.0638C30.5267 28.2509 30.7 27.3797 30.7 26.4998C30.7 25.6199 30.5267 24.7487 30.19 23.9358C29.8533 23.1229 29.3598 22.3843 28.7376 21.7622C28.1155 21.14 27.3768 20.6465 26.564 20.3098C25.7511 19.9731 24.8798 19.7998 24 19.7998C22.223 19.7998 20.5189 20.5057 19.2624 21.7622C18.0059 23.0187 17.3 24.7229 17.3 26.4998C17.3 28.2768 18.0059 29.9809 19.2624 31.2374C20.5189 32.4939 22.223 33.1998 24 33.1998Z" stroke="#B5ADBE" stroke-width="2" stroke-linecap="round" stroke-linejoin="round"/>
<path d="M27.1 31.9998C26.3687 31.2592 25.7911 30.3813 25.4002 29.4167C25.0093 28.4521 24.8128 27.4198 24.8221 26.379C24.8314 25.3383 25.0462 24.3096 25.4543 23.3521C25.8624 22.3947 26.4556 21.5273 27.2 20.7998" stroke="#B5ADBE" stroke-width="2" stroke-linecap="round" stroke-linejoin="round"/>
<path d="M31.2 14.8001C31.2599 14.8905 31.2943 14.9954 31.2993 15.1038C31.3044 15.2122 31.2799 15.3199 31.2287 15.4155C31.1774 15.5111 31.1011 15.5909 31.008 15.6466C30.9149 15.7023 30.8085 15.7317 30.7 15.7317C30.5915 15.7317 30.485 15.7023 30.3919 15.6466C30.2989 15.5909 30.2226 15.5111 30.1713 15.4155C30.12 15.3199 30.0956 15.2122 30.1006 15.1038C30.1057 14.9954 30.14 14.8905 30.2 14.8001C30.2547 14.7176 30.329 14.6499 30.4162 14.6031C30.5035 14.5562 30.601 14.5317 30.7 14.5317C30.799 14.5317 30.8965 14.5562 30.9837 14.6031C31.0709 14.6499 31.1452 14.7176 31.2 14.8001Z" fill="#B5ADBE" stroke="#B5ADBE"/>
</g>
</mask>
<g mask="url(#mask0_7_650)">
<rect width="48" height="48" fill="#B5ADBE"/>
</g>
<defs>
<clipPath id="clip0_7_650">
<rect width="48" height="48" fill="white"/>
</clipPath>
</defs>
</svg>
