<svg width="45" height="48" viewBox="0 0 45 48" fill="none" xmlns="http://www.w3.org/2000/svg">
<path d="M36.0161 22.3713C39.3286 22.3713 41.8223 20.9913 43.6611 18.5888L41.2036 16.7138C40.5966 17.5138 39.812 18.1619 38.9118 18.607C38.0116 19.0521 37.0203 19.2821 36.0161 19.2788C32.4211 19.2788 29.8161 16.35 29.8161 12.7562C29.8161 9.1625 32.3786 6.06878 36.1186 6.06878C37.7811 6.06878 38.9561 6.46127 39.9811 7.09627V10.2562H43.0736V5.64878L42.4811 5.18251C40.7811 3.84501 38.1849 3.13501 36.0149 3.13501C30.7099 3.13501 26.3948 7.45003 26.3948 12.755C26.3948 18.055 30.7086 22.3713 36.0161 22.3713ZM42.4324 41.3463L42.3224 36.9175V26.11H35.8724V29.2038H39.0649V36.5363C39.0649 39.695 36.6524 41.9312 34.2186 41.9312C31.7848 41.9312 30.5149 40.2438 30.5149 37.0863V26.1088H24.4898V29.2025H27.2573V37.6225C27.2573 41.9075 29.6598 44.86 33.9449 44.86C36.4074 44.86 38.2824 43.4937 39.4011 41.3875H39.4511L39.8923 44.3325H44.8486V41.35H42.4361V41.3438L42.4324 41.3463ZM25.6823 3.58877H20.3073L15.6323 17.1637H15.5598L10.9098 3.58877H5.18234V6.68375H8.40359L13.9473 22.1563H16.8923V22.1525L22.6736 6.685H25.6798V3.59003L25.6823 3.58877ZM0.152344 44.3725H3.33734V41.1887H0.153594V44.3725H0.152344ZM12.4523 29.6975H12.4173L12.2173 26.11H6.53234V28.93H9.55735V41.3475H6.53234V44.3313H20.5823V41.4063H12.7598V33.9125C13.1136 31.2 15.1473 28.8838 17.9223 28.8838H17.9723L17.9161 31.6563H21.0086V26.0587H18.5636C15.7636 26.0512 13.6861 27.5663 12.4511 29.6988L12.4523 29.6975Z" fill="#E4E4E4"/>
</svg>
