<svg width="48" height="48" viewBox="0 0 48 48" fill="none" xmlns="http://www.w3.org/2000/svg">
<mask id="mask0_7_682" style="mask-type:alpha" maskUnits="userSpaceOnUse" x="0" y="0" width="48" height="48">
<g clip-path="url(#clip0_7_682)">
<path d="M18.17 38.1299H29.84M27.21 32.0999V30.6999C27.21 29.6699 27.15 28.6299 27.03 27.5999C26.9677 26.8285 26.6172 26.1088 26.0484 25.584C25.4795 25.0593 24.7339 24.7679 23.96 24.7679C23.186 24.7679 22.4405 25.0593 21.8716 25.584C21.3028 26.1088 20.9523 26.8285 20.89 27.5999C20.79 28.6099 20.74 29.6399 20.75 30.6699V32.1199M24 38.1599V32.3599M24 21.4199C24.8619 21.4199 25.6886 21.0775 26.2981 20.468C26.9076 19.8585 27.25 19.0319 27.25 18.1699C27.25 17.308 26.9076 16.4813 26.2981 15.8718C25.6886 15.2623 24.8619 14.9199 24 14.9199C23.138 14.9199 22.3114 15.2623 21.7019 15.8718C21.0924 16.4813 20.75 17.308 20.75 18.1699C20.75 19.0319 21.0924 19.8585 21.7019 20.468C22.3114 21.0775 23.138 21.4199 24 21.4199Z" stroke="#B5ADBE" stroke-width="2" stroke-linecap="round" stroke-linejoin="round"/>
<path d="M37.7 28.92C37.609 29.6685 37.2666 30.364 36.7289 30.8926C36.1912 31.4212 35.49 31.7517 34.74 31.83C31.17 32.19 27.59 32.35 24 32.33C20.38 32.35 16.77 32.17 13.17 31.8C12.4215 31.7221 11.7215 31.3931 11.184 30.8665C10.6464 30.3398 10.3031 29.6467 10.21 28.9C9.93999 26.44 9.80999 23.97 9.83999 21.5C9.83999 19.04 9.98999 16.58 10.29 14.13C10.381 13.3814 10.7234 12.686 11.2611 12.1573C11.7988 11.6287 12.5 11.2982 13.25 11.22C16.82 10.85 20.41 10.66 24 10.67C27.59 10.65 31.17 10.83 34.74 11.19C35.4915 11.2687 36.1938 11.6006 36.7317 12.1312C37.2696 12.6618 37.6111 13.3596 37.7 14.11C38 16.56 38.16 19.03 38.17 21.5C38.1566 23.9803 37.9997 26.4578 37.7 28.92Z" stroke="#B5ADBE" stroke-width="2" stroke-linecap="round" stroke-linejoin="round"/>
</g>
</mask>
<g mask="url(#mask0_7_682)">
<rect width="48" height="48" fill="#B5ADBE"/>
</g>
<defs>
<clipPath id="clip0_7_682">
<rect width="48" height="48" fill="white"/>
</clipPath>
</defs>
</svg>
