<svg width="20" height="20" viewBox="0 0 20 20" fill="none" xmlns="http://www.w3.org/2000/svg">
<g clip-path="url(#clip0_7_1679)">
<g clip-path="url(#clip1_7_1679)">
<path fill-rule="evenodd" clip-rule="evenodd" d="M1.40583 1.40583C0 2.81167 0 5.075 0 9.6V10.4C0 14.925 0 17.1883 1.40583 18.5942C2.81167 20 5.075 20 9.6 20H10.4C14.925 20 17.1883 20 18.5942 18.5942C20 17.1883 20 14.925 20 10.4V9.6C20 5.075 20 2.81167 18.5942 1.40583C17.1883 0 14.925 0 10.4 0H9.6C5.075 0 2.81167 0 1.40583 1.40583ZM3.375 6.08333C3.48333 11.2833 6.08333 14.4083 10.6417 14.4083H10.9V11.4333C12.575 11.6 13.8417 12.825 14.35 14.4083H16.7167C16.0667 12.0417 14.3583 10.7333 13.2917 10.2333C14.3583 9.61667 15.8583 8.11667 16.2167 6.08333H14.0667C13.6 7.73333 12.2167 9.23333 10.9 9.375V6.08333H8.75V11.85C7.41667 11.5167 5.73333 9.9 5.65833 6.08333H3.375Z" fill="#2B2F33"/>
</g>
</g>
<defs>
<clipPath id="clip0_7_1679">
<rect width="20" height="20" fill="white"/>
</clipPath>
<clipPath id="clip1_7_1679">
<rect width="20" height="20" fill="white"/>
</clipPath>
</defs>
</svg>
