<svg width="20" height="20" viewBox="0 0 20 20" fill="none" xmlns="http://www.w3.org/2000/svg">
<g clip-path="url(#clip0_7_1700)">
<g clip-path="url(#clip1_7_1700)">
<path fill-rule="evenodd" clip-rule="evenodd" d="M17.815 3.75183C18.2388 3.86583 18.6253 4.0892 18.9356 4.39954C19.246 4.70989 19.4693 5.09633 19.5833 5.52016H19.5817C20 7.0785 20 10.3335 20 10.3335C20 10.3335 20 13.5885 19.5817 15.1477C19.4677 15.5715 19.2443 15.9579 18.934 16.2683C18.6236 16.5786 18.2372 16.802 17.8133 16.916C16.255 17.3343 10 17.3343 10 17.3343C10 17.3343 3.74583 17.3343 2.18667 16.916C1.76283 16.802 1.37639 16.5786 1.06605 16.2683C0.755699 15.9579 0.532338 15.5715 0.418333 15.1477C0 13.5893 0 10.3335 0 10.3335C0 10.3335 0 7.07933 0.418333 5.52016C0.532338 5.09633 0.755699 4.70989 1.06605 4.39954C1.37639 4.0892 1.76283 3.86583 2.18667 3.75183C3.745 3.3335 10 3.3335 10 3.3335C10 3.3335 16.2542 3.3335 17.815 3.75183ZM13.1975 10.3335L8 7.3335V13.3335L13.1975 10.3335Z" fill="#2B2F33"/>
</g>
</g>
<defs>
<clipPath id="clip0_7_1700">
<rect width="20" height="20" fill="white"/>
</clipPath>
<clipPath id="clip1_7_1700">
<rect width="20" height="20" fill="white"/>
</clipPath>
</defs>
</svg>
