<svg width="20" height="20" viewBox="0 0 20 20" fill="none" xmlns="http://www.w3.org/2000/svg">
<path d="M11.8775 8.2098C11.9678 8.47076 12.2525 8.60911 12.5135 8.51881C12.7745 8.4285 12.9128 8.14375 12.8225 7.88279L12.35 8.04629L11.8775 8.2098ZM11 7.02778L11.022 6.52826C11.0146 6.52794 11.0073 6.52778 11 6.52778V7.02778ZM9 10.0833V10.5833V10.0833ZM11 13.1389V13.6389V13.1389ZM9 13.1389L8.97803 13.6384C8.98535 13.6387 8.99267 13.6389 9 13.6389V13.1389ZM8.12251 11.9569C8.03221 11.6959 7.74745 11.5576 7.48649 11.6479C7.22553 11.7382 7.08719 12.0229 7.17749 12.2839L7.65 12.1204L8.12251 11.9569ZM10.5 5.5C10.5 5.22386 10.2761 5 10 5C9.72386 5 9.5 5.22386 9.5 5.5H10H10.5ZM9.5 7.02778C9.5 7.30392 9.72386 7.52778 10 7.52778C10.2761 7.52778 10.5 7.30392 10.5 7.02778H10H9.5ZM10.5 13.1389C10.5 12.8627 10.2761 12.6389 10 12.6389C9.72386 12.6389 9.5 12.8627 9.5 13.1389H10H10.5ZM9.5 14.6667C9.5 14.9428 9.72386 15.1667 10 15.1667C10.2761 15.1667 10.5 14.9428 10.5 14.6667H10H9.5ZM12.35 8.04629L12.8225 7.88279C12.6909 7.50234 12.4499 7.16926 12.1293 6.92733L11.8281 7.32648L11.527 7.72562C11.6875 7.84672 11.8101 8.01503 11.8775 8.2098L12.35 8.04629ZM11.8281 7.32648L12.1293 6.92733C11.8085 6.68531 11.4229 6.54589 11.022 6.52826L11 7.02778L10.978 7.52729C11.1754 7.53597 11.3666 7.60461 11.527 7.72562L11.8281 7.32648ZM11 7.02778V6.52778H9V7.02778V7.52778H11V7.02778ZM9 7.02778V6.52778C8.46658 6.52778 7.95689 6.74369 7.58256 7.12496L7.93934 7.47525L8.29612 7.82555C8.48439 7.63379 8.73777 7.52778 9 7.52778V7.02778ZM7.93934 7.47525L7.58256 7.12496C7.20853 7.50591 7 8.02068 7 8.55555H7.5H8C8 8.28004 8.10754 8.01762 8.29612 7.82555L7.93934 7.47525ZM7.5 8.55555H7C7 9.09042 7.20853 9.60519 7.58256 9.98615L7.93934 9.63586L8.29612 9.28556C8.10754 9.09349 8 8.83107 8 8.55555H7.5ZM7.93934 9.63586L7.58256 9.98615C7.95689 10.3674 8.46658 10.5833 9 10.5833V10.0833V9.58333C8.73777 9.58333 8.48439 9.47732 8.29612 9.28556L7.93934 9.63586ZM9 10.0833V10.5833H11V10.0833V9.58333H9V10.0833ZM11 10.0833V10.5833C11.2622 10.5833 11.5156 10.6893 11.7039 10.8811L12.0607 10.5308L12.4174 10.1805C12.0431 9.79924 11.5334 9.58333 11 9.58333V10.0833ZM12.0607 10.5308L11.7039 10.8811C11.8925 11.0732 12 11.3356 12 11.6111H12.5H13C13 11.0762 12.7915 10.5615 12.4174 10.1805L12.0607 10.5308ZM12.5 11.6111H12C12 11.8866 11.8925 12.149 11.7039 12.3411L12.0607 12.6914L12.4174 13.0417C12.7915 12.6607 13 12.146 13 11.6111H12.5ZM12.0607 12.6914L11.7039 12.3411C11.5156 12.5329 11.2622 12.6389 11 12.6389V13.1389V13.6389C11.5334 13.6389 12.0431 13.423 12.4174 13.0417L12.0607 12.6914ZM11 13.1389V12.6389H9V13.1389V13.6389H11V13.1389ZM9 13.1389L9.02197 12.6394C8.82462 12.6307 8.6334 12.5621 8.473 12.441L8.17186 12.8402L7.87073 13.2393C8.19151 13.4813 8.57713 13.6208 8.97803 13.6384L9 13.1389ZM8.17186 12.8402L8.473 12.441C8.31249 12.3199 8.18991 12.1516 8.12251 11.9569L7.65 12.1204L7.17749 12.2839C7.30914 12.6643 7.55006 12.9974 7.87073 13.2393L8.17186 12.8402ZM10 5.5H9.5V7.02778H10H10.5V5.5H10ZM10 13.1389H9.5V14.6667H10H10.5V13.1389H10ZM18 10H17.5C17.5 14.1421 14.1421 17.5 10 17.5V18V18.5C14.6944 18.5 18.5 14.6944 18.5 10H18ZM10 18V17.5C5.85786 17.5 2.5 14.1421 2.5 10H2H1.5C1.5 14.6944 5.30558 18.5 10 18.5V18ZM2 10H2.5C2.5 5.85786 5.85786 2.5 10 2.5V2V1.5C5.30558 1.5 1.5 5.30558 1.5 10H2ZM10 2V2.5C14.1421 2.5 17.5 5.85786 17.5 10H18H18.5C18.5 5.30558 14.6944 1.5 10 1.5V2Z" fill="black"/>
</svg>
