<svg width="20" height="20" viewBox="0 0 20 20" fill="none" xmlns="http://www.w3.org/2000/svg">
<path d="M16.2222 2C17.2041 2 18 2.78504 18 3.75342L18 6.74661C18 7.715 17.2041 8.50003 16.2222 8.50003H13.5556C12.5737 8.50003 11.7778 7.715 11.7778 6.74661L11.7778 3.75342C11.7778 2.78504 12.5737 2 13.5556 2L16.2222 2Z" stroke="black" stroke-linecap="round" stroke-linejoin="round"/>
<path d="M3.77778 2C2.79594 2 2 2.78504 2 3.75342L2.00001 6.74661C2.00001 7.715 2.79595 8.50003 3.77778 8.50003H6.44445C7.42629 8.50003 8.22223 7.715 8.22223 6.74661L8.22222 3.75342C8.22222 2.78504 7.42628 2 6.44444 2L3.77778 2Z" stroke="black" stroke-linecap="round" stroke-linejoin="round"/>
<path d="M16.2222 11.5C17.2041 11.5 18 12.2851 18 13.2535V16.2466C18 17.215 17.2041 18 16.2222 18H13.5556C12.5737 18 11.7778 17.215 11.7778 16.2466L11.7778 13.2535C11.7778 12.2851 12.5737 11.5 13.5556 11.5H16.2222Z" stroke="black" stroke-linecap="round" stroke-linejoin="round"/>
<path d="M3.77778 11.5C2.79594 11.5 2.00001 12.2851 2.00001 13.2535L2.00001 16.2466C2.00001 17.215 2.79595 18 3.77779 18H6.44445C7.42629 18 8.22223 17.215 8.22223 16.2466L8.22223 13.2535C8.22223 12.2851 7.42629 11.5 6.44445 11.5H3.77778Z" stroke="black" stroke-linecap="round" stroke-linejoin="round"/>
</svg>
