<?xml version="1.0" encoding="UTF-8"?>
<!DOCTYPE svg PUBLIC "-//W3C//DTD SVG 1.1//EN" "http://www.w3.org/Graphics/SVG/1.1/DTD/svg11.dtd">
<svg xmlns="http://www.w3.org/2000/svg" version="1.1" width="1047px" height="626px" style="shape-rendering:geometricPrecision; text-rendering:geometricPrecision; image-rendering:optimizeQuality; fill-rule:evenodd; clip-rule:evenodd" xmlns:xlink="http://www.w3.org/1999/xlink">
<g><path style="opacity:1" fill="#447dda" d="M 3.5,-0.5 C 349.5,-0.5 695.5,-0.5 1041.5,-0.5C 1043.92,0.914258 1045.58,2.91426 1046.5,5.5C 1046.5,212.167 1046.5,418.833 1046.5,625.5C 983.5,625.5 920.5,625.5 857.5,625.5C 857.5,456.167 857.5,286.833 857.5,117.5C 633.001,116.5 408.334,116.167 183.5,116.5C 183.5,286.167 183.5,455.833 183.5,625.5C 122.167,625.5 60.8333,625.5 -0.5,625.5C -0.5,418.167 -0.5,210.833 -0.5,3.5C 0.5,1.83333 1.83333,0.5 3.5,-0.5 Z"/></g>
<g><path style="opacity:1" fill="#e7eefa" d="M 857.5,117.5 C 633.167,117.5 408.833,117.5 184.5,117.5C 184.5,286.833 184.5,456.167 184.5,625.5C 184.167,625.5 183.833,625.5 183.5,625.5C 183.5,455.833 183.5,286.167 183.5,116.5C 408.334,116.167 633.001,116.5 857.5,117.5 Z"/></g>
<g><path style="opacity:1" fill="#fefefe" d="M 857.5,117.5 C 857.5,286.833 857.5,456.167 857.5,625.5C 840.5,625.5 823.5,625.5 806.5,625.5C 711.502,624.167 616.169,623.5 520.5,623.5C 424.831,623.5 329.498,624.167 234.5,625.5C 217.833,625.5 201.167,625.5 184.5,625.5C 184.5,456.167 184.5,286.833 184.5,117.5C 408.833,117.5 633.167,117.5 857.5,117.5 Z"/></g>
<g><path style="opacity:1" fill="#dcdcdc" d="M 234.5,170.5 C 297.5,170.5 360.5,170.5 423.5,170.5C 423.5,178.5 423.5,186.5 423.5,194.5C 360.5,194.5 297.5,194.5 234.5,194.5C 234.5,186.5 234.5,178.5 234.5,170.5 Z"/></g>
<g><path style="opacity:1" fill="#dddddd" d="M 798.5,170.5 C 804.643,171.026 805.976,173.86 802.5,179C 800.167,179.333 797.833,179.667 795.5,180C 793.82,180.347 792.82,181.347 792.5,183C 794.6,185.894 797.267,186.727 800.5,185.5C 804.147,186.486 805.314,188.819 804,192.5C 798.969,195.915 795.802,194.582 794.5,188.5C 793.167,187.833 791.833,187.167 790.5,186.5C 786.608,188.051 784.274,186.718 783.5,182.5C 783.529,180.971 784.196,179.804 785.5,179C 788.623,178.794 791.623,178.127 794.5,177C 795.234,174.439 796.567,172.273 798.5,170.5 Z"/></g>
<g><path style="opacity:1" fill="#dcdcdc" d="M 742.5,172.5 C 745.62,172.156 748.453,172.823 751,174.5C 753.561,172.656 756.394,172.156 759.5,173C 763.53,175.287 764.364,178.454 762,182.5C 758.464,185.701 755.297,189.201 752.5,193C 751.5,193.667 750.5,193.667 749.5,193C 746,188.833 742.5,184.667 739,180.5C 738.52,177.137 739.687,174.47 742.5,172.5 Z"/></g>
<g><path style="opacity:1" fill="#9fbbec" d="M 805.5,259.5 C 805.5,246.167 805.5,232.833 805.5,219.5C 615.5,219.5 425.5,219.5 235.5,219.5C 235.5,232.833 235.5,246.167 235.5,259.5C 234.504,246.01 234.171,232.344 234.5,218.5C 425.167,218.5 615.833,218.5 806.5,218.5C 806.829,232.344 806.496,246.01 805.5,259.5 Z"/></g>
<g><path style="opacity:1" fill="#457edb" d="M 805.5,259.5 C 615.5,259.5 425.5,259.5 235.5,259.5C 235.5,246.167 235.5,232.833 235.5,219.5C 425.5,219.5 615.5,219.5 805.5,219.5C 805.5,232.833 805.5,246.167 805.5,259.5 Z"/></g>
<g><path style="opacity:1" fill="#e2e2e2" d="M 234.5,302.5 C 425.167,302.5 615.833,302.5 806.5,302.5C 806.5,377.167 806.5,451.833 806.5,526.5C 615.833,526.5 425.167,526.5 234.5,526.5C 234.5,451.833 234.5,377.167 234.5,302.5 Z"/></g>
<g><path style="opacity:1" fill="#dbdcdb" d="M 235.5,303.5 C 425.5,303.5 615.5,303.5 805.5,303.5C 805.5,377.5 805.5,451.5 805.5,525.5C 615.5,525.5 425.5,525.5 235.5,525.5C 235.5,451.5 235.5,377.5 235.5,303.5 Z"/></g>
<g><path style="opacity:1" fill="#dcdcdc" d="M 342.5,540.5 C 373.833,540.5 405.167,540.5 436.5,540.5C 436.5,559.833 436.5,579.167 436.5,598.5C 405.167,598.5 373.833,598.5 342.5,598.5C 342.5,579.167 342.5,559.833 342.5,540.5 Z"/></g>
<g><path style="opacity:1" fill="#eaeaea" d="M 342.5,540.5 C 373.996,539.502 405.662,539.168 437.5,539.5C 437.5,559.5 437.5,579.5 437.5,599.5C 405.662,599.832 373.996,599.498 342.5,598.5C 373.833,598.5 405.167,598.5 436.5,598.5C 436.5,579.167 436.5,559.833 436.5,540.5C 405.167,540.5 373.833,540.5 342.5,540.5 Z"/></g>
<g><path style="opacity:1" fill="#dcdcdc" d="M 450.5,539.5 C 481.833,539.5 513.167,539.5 544.5,539.5C 544.5,559.5 544.5,579.5 544.5,599.5C 513.167,599.5 481.833,599.5 450.5,599.5C 450.5,579.5 450.5,559.5 450.5,539.5 Z"/></g>
<g><path style="opacity:1" fill="#dcdcdc" d="M 558.5,539.5 C 589.833,539.5 621.167,539.5 652.5,539.5C 652.5,559.5 652.5,579.5 652.5,599.5C 621.167,599.5 589.833,599.5 558.5,599.5C 558.5,579.5 558.5,559.5 558.5,539.5 Z"/></g>
<g><path style="opacity:1" fill="#e8e8e8" d="M 668.5,539.5 C 700.167,539.5 731.833,539.5 763.5,539.5C 763.5,559.5 763.5,579.5 763.5,599.5C 731.833,599.5 700.167,599.5 668.5,599.5C 668.5,579.5 668.5,559.5 668.5,539.5 Z"/></g>
<g><path style="opacity:1" fill="#dbdcdb" d="M 669.5,540.5 C 700.5,540.5 731.5,540.5 762.5,540.5C 762.5,559.833 762.5,579.167 762.5,598.5C 731.5,598.5 700.5,598.5 669.5,598.5C 669.5,579.167 669.5,559.833 669.5,540.5 Z"/></g>
<g><path style="opacity:1" fill="#e8e8e8" d="M 234.5,539.5 C 266.167,539.5 297.833,539.5 329.5,539.5C 329.5,559.5 329.5,579.5 329.5,599.5C 297.833,599.5 266.167,599.5 234.5,599.5C 234.5,579.5 234.5,559.5 234.5,539.5 Z"/></g>
<g><path style="opacity:1" fill="#dbdcdb" d="M 235.5,540.5 C 266.5,540.5 297.5,540.5 328.5,540.5C 328.5,559.833 328.5,579.167 328.5,598.5C 297.5,598.5 266.5,598.5 235.5,598.5C 235.5,579.167 235.5,559.833 235.5,540.5 Z"/></g>
<g><path style="opacity:1" fill="#dcdcdc" d="M 806.5,625.5 C 615.833,625.5 425.167,625.5 234.5,625.5C 329.498,624.167 424.831,623.5 520.5,623.5C 616.169,623.5 711.502,624.167 806.5,625.5 Z"/></g>
</svg>
