<svg width="20" height="25" viewBox="0 0 20 25" fill="none" xmlns="http://www.w3.org/2000/svg">
<mask id="mask0_207_32770" style="mask-type:luminance" maskUnits="userSpaceOnUse" x="0" y="0" width="20" height="25">
<path d="M0 0.5H20V24.5H0V0.5Z" fill="white"/>
</mask>
<g mask="url(#mask0_207_32770)">
<mask id="mask1_207_32770" style="mask-type:luminance" maskUnits="userSpaceOnUse" x="-1" y="2" width="20" height="20">
<path d="M-1 2.5H18.305V21.805H-1V2.5Z" fill="white"/>
</mask>
<g mask="url(#mask1_207_32770)">
<path d="M12.1621 7.54395V16.8269C12.1621 18.6609 10.8201 20.2929 8.99512 20.4679C6.89812 20.6699 5.14313 19.0289 5.14313 16.9759V6.13195C5.14313 4.98295 5.96812 3.93895 7.10812 3.82395C8.42412 3.69195 9.53012 4.71895 9.53012 6.00895V15.2219C9.52933 15.4543 9.43668 15.6769 9.27238 15.8412C9.10809 16.0055 8.88548 16.0982 8.65312 16.0989C8.42077 16.0982 8.19816 16.0055 8.03387 15.8412C7.86957 15.6769 7.77692 15.4543 7.77612 15.2219V7.54395C7.77612 7.18395 7.47813 6.88595 7.11812 6.88595C6.75812 6.88595 6.46012 7.18395 6.46012 7.54395V15.0979C6.46012 16.2469 7.28513 17.2909 8.42513 17.4049C9.74113 17.5369 10.8471 16.5099 10.8471 15.2199V6.15795C10.8471 4.32395 9.50513 2.69195 7.68012 2.51695C7.19278 2.46923 6.70085 2.52402 6.23595 2.67778C5.77105 2.83154 5.34346 3.08088 4.98067 3.40976C4.61789 3.73864 4.32793 4.13979 4.12944 4.58743C3.93094 5.03506 3.82831 5.51928 3.82812 6.00895V16.7749C3.82812 19.2929 5.67113 21.5479 8.18013 21.7849C8.85084 21.8504 9.52783 21.7747 10.1676 21.5629C10.8073 21.351 11.3956 21.0076 11.8947 20.5548C12.3938 20.102 12.7926 19.5497 13.0655 18.9335C13.3383 18.3173 13.4792 17.6508 13.4791 16.9769V7.54395C13.4791 7.18395 13.1811 6.88595 12.8211 6.88595C12.4611 6.88595 12.1631 7.18395 12.1631 7.54395H12.1621Z" fill="#177DE6"/>
</g>
</g>
</svg>
