<?xml version="1.0" encoding="UTF-8"?>
<!DOCTYPE svg PUBLIC "-//W3C//DTD SVG 1.1//EN" "http://www.w3.org/Graphics/SVG/1.1/DTD/svg11.dtd">
<svg xmlns="http://www.w3.org/2000/svg" version="1.1" width="802px" height="475px" style="shape-rendering:geometricPrecision; text-rendering:geometricPrecision; image-rendering:optimizeQuality; fill-rule:evenodd; clip-rule:evenodd" xmlns:xlink="http://www.w3.org/1999/xlink">
<g><path style="opacity:1" fill="#fff8f0" d="M 3.5,-0.5 C 268.167,-0.5 532.833,-0.5 797.5,-0.5C 799.167,0.5 800.5,1.83333 801.5,3.5C 801.5,160.5 801.5,317.5 801.5,474.5C 717.167,474.5 632.833,474.5 548.5,474.5C 562.629,451.788 571.629,427.121 575.5,400.5C 577.12,384.904 577.787,369.237 577.5,353.5C 577.022,340.308 575.355,327.308 572.5,314.5C 569.908,300.726 565.908,287.393 560.5,274.5C 554.615,261.062 547.948,248.062 540.5,235.5C 532.26,220.751 522.26,207.251 510.5,195C 505.982,192.792 503.149,194.292 502,199.5C 499.975,212.28 495.808,224.28 489.5,235.5C 487.355,238.433 485.188,241.433 483,244.5C 482.1,241.282 480.933,238.282 479.5,235.5C 474.376,219.114 467.71,203.447 459.5,188.5C 452.751,174.656 444.751,161.656 435.5,149.5C 425.311,134.306 412.977,120.972 398.5,109.5C 383.621,96.3791 367.288,85.2125 349.5,76C 334.072,70.4257 328.572,75.5924 333,91.5C 335.233,98.0517 337.733,104.385 340.5,110.5C 345.218,123.756 347.884,137.422 348.5,151.5C 348.548,164.832 346.548,177.832 342.5,190.5C 337.024,206.452 329.69,221.452 320.5,235.5C 311.681,247.831 301.514,259.164 290,269.5C 290.33,253.814 285.163,240.314 274.5,229C 270.837,226.775 268.004,227.608 266,231.5C 261.382,246.858 255.882,261.858 249.5,276.5C 243.583,288.917 238.25,301.584 233.5,314.5C 228.138,326.949 224.804,339.949 223.5,353.5C 220.953,368.777 220.953,384.11 223.5,399.5C 227.537,426.557 236.87,451.557 251.5,474.5C 167.5,474.5 83.5,474.5 -0.5,474.5C -0.5,317.5 -0.5,160.5 -0.5,3.5C 0.5,1.83333 1.83333,0.5 3.5,-0.5 Z"/></g>
<g><path style="opacity:1" fill="#fc9309" d="M 398.5,109.5 C 397.193,110.153 395.86,110.82 394.5,111.5C 393.808,110.975 393.308,110.308 393,109.5C 389.667,109.5 386.333,109.5 383,109.5C 382.692,110.308 382.192,110.975 381.5,111.5C 379.629,110.233 377.796,110.233 376,111.5C 374.846,109.043 373.512,109.043 372,111.5C 371.029,110.802 369.863,110.802 368.5,111.5C 367.353,111.182 366.519,110.516 366,109.5C 363.333,109.5 360.667,109.5 358,109.5C 357.667,110.167 357.333,110.833 357,111.5C 355.215,110.76 353.382,110.093 351.5,109.5C 350.808,110.025 350.308,110.692 350,111.5C 348.488,109.043 347.154,109.043 346,111.5C 345.333,108.833 344.667,108.833 344,111.5C 342.989,110.663 341.822,110.33 340.5,110.5C 337.733,104.385 335.233,98.0517 333,91.5C 328.572,75.5924 334.072,70.4257 349.5,76C 367.288,85.2125 383.621,96.3791 398.5,109.5 Z"/></g>
<g><path style="opacity:1" fill="#fc8c05" d="M 398.5,109.5 C 412.977,120.972 425.311,134.306 435.5,149.5C 431.566,149.021 427.899,149.688 424.5,151.5C 420.701,149.578 416.701,149.078 412.5,150C 413.696,150.654 413.696,151.154 412.5,151.5C 410.239,148.906 408.072,148.906 406,151.5C 405.667,150.833 405.333,150.167 405,149.5C 403.372,150.01 401.539,150.01 399.5,149.5C 397.68,149.649 396.18,150.316 395,151.5C 394.667,150.833 394.333,150.167 394,149.5C 391.789,149.623 389.622,149.623 387.5,149.5C 386.808,150.025 386.308,150.692 386,151.5C 385.692,150.692 385.192,150.025 384.5,149.5C 383.289,150.39 381.955,150.39 380.5,149.5C 379.353,149.818 378.519,150.484 378,151.5C 376.333,148.833 374.667,148.833 373,151.5C 372.311,150.643 371.478,149.977 370.5,149.5C 366.735,150.626 362.569,150.626 358,149.5C 357.667,150.167 357.333,150.833 357,151.5C 354.22,148.985 351.386,148.985 348.5,151.5C 347.884,137.422 345.218,123.756 340.5,110.5C 341.822,110.33 342.989,110.663 344,111.5C 344.667,108.833 345.333,108.833 346,111.5C 347.154,109.043 348.488,109.043 350,111.5C 350.308,110.692 350.808,110.025 351.5,109.5C 353.382,110.093 355.215,110.76 357,111.5C 357.333,110.833 357.667,110.167 358,109.5C 360.667,109.5 363.333,109.5 366,109.5C 366.519,110.516 367.353,111.182 368.5,111.5C 369.863,110.802 371.029,110.802 372,111.5C 373.512,109.043 374.846,109.043 376,111.5C 377.796,110.233 379.629,110.233 381.5,111.5C 382.192,110.975 382.692,110.308 383,109.5C 386.333,109.5 389.667,109.5 393,109.5C 393.308,110.308 393.808,110.975 394.5,111.5C 395.86,110.82 397.193,110.153 398.5,109.5 Z"/></g>
<g><path style="opacity:1" fill="#fc8605" d="M 435.5,149.5 C 444.751,161.656 452.751,174.656 459.5,188.5C 458.778,188.918 458.278,189.584 458,190.5C 454.667,189.833 451.333,189.167 448,188.5C 447.667,189.167 447.333,189.833 447,190.5C 445.249,189.826 443.583,189.493 442,189.5C 440,192.167 438,192.167 436,189.5C 434.755,189.461 433.422,189.795 432,190.5C 424.937,189.115 417.937,188.448 411,188.5C 410.667,189.167 410.333,189.833 410,190.5C 407.936,189.409 405.769,189.242 403.5,190C 404.654,190.914 404.487,191.747 403,192.5C 402.779,189.057 401.779,188.724 400,191.5C 399.667,190.833 399.333,190.167 399,189.5C 397.396,190.649 395.73,190.649 394,189.5C 392.715,189.95 391.548,190.617 390.5,191.5C 386.756,189.598 382.922,189.265 379,190.5C 378,189.833 377,189.167 376,188.5C 375.029,189.198 373.863,189.198 372.5,188.5C 371.353,188.818 370.519,189.484 370,190.5C 369.311,189.643 368.478,188.977 367.5,188.5C 364.634,189.795 361.801,189.795 359,188.5C 357.846,190.957 356.512,190.957 355,188.5C 354.259,189.641 353.425,189.641 352.5,188.5C 351.808,189.025 351.308,189.692 351,190.5C 348.469,189.393 345.636,189.393 342.5,190.5C 346.548,177.832 348.548,164.832 348.5,151.5C 351.386,148.985 354.22,148.985 357,151.5C 357.333,150.833 357.667,150.167 358,149.5C 362.569,150.626 366.735,150.626 370.5,149.5C 371.478,149.977 372.311,150.643 373,151.5C 374.667,148.833 376.333,148.833 378,151.5C 378.519,150.484 379.353,149.818 380.5,149.5C 381.955,150.39 383.289,150.39 384.5,149.5C 385.192,150.025 385.692,150.692 386,151.5C 386.308,150.692 386.808,150.025 387.5,149.5C 389.622,149.623 391.789,149.623 394,149.5C 394.333,150.167 394.667,150.833 395,151.5C 396.18,150.316 397.68,149.649 399.5,149.5C 401.539,150.01 403.372,150.01 405,149.5C 405.333,150.167 405.667,150.833 406,151.5C 408.072,148.906 410.239,148.906 412.5,151.5C 413.696,151.154 413.696,150.654 412.5,150C 416.701,149.078 420.701,149.578 424.5,151.5C 427.899,149.688 431.566,149.021 435.5,149.5 Z"/></g>
<g><path style="opacity:1" fill="#fd8006" d="M 459.5,188.5 C 467.71,203.447 474.376,219.114 479.5,235.5C 478.25,235.577 477.417,236.244 477,237.5C 476.161,236.376 474.994,235.709 473.5,235.5C 459.231,236.704 445.065,236.704 431,235.5C 429.674,235.755 428.674,236.422 428,237.5C 427.667,236.833 427.333,236.167 427,235.5C 424.302,235.901 421.135,236.068 417.5,236C 416.318,237.678 415.152,237.512 414,235.5C 412.667,236.833 411.333,236.833 410,235.5C 409.055,235.905 408.388,236.572 408,237.5C 406.302,236.267 404.302,235.6 402,235.5C 396.415,235.874 390.915,235.874 385.5,235.5C 383.307,235.326 381.473,235.993 380,237.5C 379.692,236.692 379.192,236.025 378.5,235.5C 371.315,236.315 364.148,236.315 357,235.5C 353.724,235.558 350.724,236.224 348,237.5C 347.044,236.106 345.711,235.439 344,235.5C 336.316,235.83 328.483,235.83 320.5,235.5C 329.69,221.452 337.024,206.452 342.5,190.5C 345.636,189.393 348.469,189.393 351,190.5C 351.308,189.692 351.808,189.025 352.5,188.5C 353.425,189.641 354.259,189.641 355,188.5C 356.512,190.957 357.846,190.957 359,188.5C 361.801,189.795 364.634,189.795 367.5,188.5C 368.478,188.977 369.311,189.643 370,190.5C 370.519,189.484 371.353,188.818 372.5,188.5C 373.863,189.198 375.029,189.198 376,188.5C 377,189.167 378,189.833 379,190.5C 382.922,189.265 386.756,189.598 390.5,191.5C 391.548,190.617 392.715,189.95 394,189.5C 395.73,190.649 397.396,190.649 399,189.5C 399.333,190.167 399.667,190.833 400,191.5C 401.779,188.724 402.779,189.057 403,192.5C 404.487,191.747 404.654,190.914 403.5,190C 405.769,189.242 407.936,189.409 410,190.5C 410.333,189.833 410.667,189.167 411,188.5C 417.937,188.448 424.937,189.115 432,190.5C 433.422,189.795 434.755,189.461 436,189.5C 438,192.167 440,192.167 442,189.5C 443.583,189.493 445.249,189.826 447,190.5C 447.333,189.833 447.667,189.167 448,188.5C 451.333,189.167 454.667,189.833 458,190.5C 458.278,189.584 458.778,188.918 459.5,188.5 Z"/></g>
<g><path style="opacity:1" fill="#fd800a" d="M 540.5,235.5 C 537.751,235.274 535.084,235.607 532.5,236.5C 529.509,234.091 527.342,234.424 526,237.5C 525.612,236.572 524.945,235.905 524,235.5C 520.594,235.698 517.094,235.864 513.5,236C 514.696,236.654 514.696,237.154 513.5,237.5C 512.833,236.833 512.167,236.167 511.5,235.5C 508.667,235.582 505.667,235.748 502.5,236C 501.318,237.678 500.152,237.512 499,235.5C 498.055,235.905 497.388,236.572 497,237.5C 494.894,235.709 492.394,235.042 489.5,235.5C 495.808,224.28 499.975,212.28 502,199.5C 503.149,194.292 505.982,192.792 510.5,195C 522.26,207.251 532.26,220.751 540.5,235.5 Z"/></g>
<g><path style="opacity:1" fill="#fd7907" d="M 320.5,235.5 C 328.483,235.83 336.316,235.83 344,235.5C 345.711,235.439 347.044,236.106 348,237.5C 350.724,236.224 353.724,235.558 357,235.5C 364.148,236.315 371.315,236.315 378.5,235.5C 379.192,236.025 379.692,236.692 380,237.5C 381.473,235.993 383.307,235.326 385.5,235.5C 390.915,235.874 396.415,235.874 402,235.5C 404.302,235.6 406.302,236.267 408,237.5C 408.388,236.572 409.055,235.905 410,235.5C 411.333,236.833 412.667,236.833 414,235.5C 415.152,237.512 416.318,237.678 417.5,236C 421.135,236.068 424.302,235.901 427,235.5C 427.333,236.167 427.667,236.833 428,237.5C 428.674,236.422 429.674,235.755 431,235.5C 445.065,236.704 459.231,236.704 473.5,235.5C 474.994,235.709 476.161,236.376 477,237.5C 477.417,236.244 478.25,235.577 479.5,235.5C 480.933,238.282 482.1,241.282 483,244.5C 485.188,241.433 487.355,238.433 489.5,235.5C 492.394,235.042 494.894,235.709 497,237.5C 497.388,236.572 498.055,235.905 499,235.5C 500.152,237.512 501.318,237.678 502.5,236C 505.667,235.748 508.667,235.582 511.5,235.5C 512.167,236.167 512.833,236.833 513.5,237.5C 514.696,237.154 514.696,236.654 513.5,236C 517.094,235.864 520.594,235.698 524,235.5C 524.945,235.905 525.612,236.572 526,237.5C 527.342,234.424 529.509,234.091 532.5,236.5C 535.084,235.607 537.751,235.274 540.5,235.5C 547.948,248.062 554.615,261.062 560.5,274.5C 557.508,275.819 554.508,275.819 551.5,274.5C 549.68,274.649 548.18,275.316 547,276.5C 545.475,275.28 543.641,274.613 541.5,274.5C 531.677,274.745 522.011,274.745 512.5,274.5C 510.088,274.406 508.255,275.406 507,277.5C 506.517,276.552 506.351,275.552 506.5,274.5C 493.384,274.933 480.551,274.933 468,274.5C 466.674,274.755 465.674,275.422 465,276.5C 463,273.833 461,273.833 459,276.5C 458.692,275.692 458.192,275.025 457.5,274.5C 456.167,275.833 454.833,275.833 453.5,274.5C 453.167,275.167 452.833,275.833 452.5,276.5C 451.312,275.16 449.812,274.493 448,274.5C 443.818,274.621 439.985,274.621 436.5,274.5C 435.808,275.025 435.308,275.692 435,276.5C 434.196,275.196 433.029,274.529 431.5,274.5C 428.24,274.673 424.907,274.673 421.5,274.5C 419.813,274.76 418.313,275.427 417,276.5C 416.044,275.106 414.711,274.439 413,274.5C 410.443,274.416 408.277,274.749 406.5,275.5C 402.122,268.942 397.122,262.776 391.5,257C 388.54,254.948 385.707,255.114 383,257.5C 379.98,264.217 376.48,270.551 372.5,276.5C 372.389,275.883 372.056,275.383 371.5,275C 369.833,274.833 368.167,274.667 366.5,274.5C 361.653,275.52 357.153,275.52 353,274.5C 352.667,275.167 352.333,275.833 352,276.5C 350.647,275.296 348.981,274.629 347,274.5C 343.254,275.763 339.754,275.763 336.5,274.5C 334.941,275.074 333.441,275.74 332,276.5C 331.692,275.692 331.192,275.025 330.5,274.5C 327.634,274.554 324.801,274.554 322,274.5C 321.667,275.167 321.333,275.833 321,276.5C 320.612,275.572 319.945,274.905 319,274.5C 317.85,275.424 316.85,275.424 316,274.5C 314.343,277.16 312.676,277.16 311,274.5C 305.796,274.654 300.629,274.654 295.5,274.5C 293.68,274.649 292.18,275.316 291,276.5C 289.475,275.28 287.641,274.613 285.5,274.5C 275.677,274.745 266.011,274.745 256.5,274.5C 254.088,274.406 252.255,275.406 251,277.5C 250.617,276.944 250.117,276.611 249.5,276.5C 255.882,261.858 261.382,246.858 266,231.5C 268.004,227.608 270.837,226.775 274.5,229C 285.163,240.314 290.33,253.814 290,269.5C 301.514,259.164 311.681,247.831 320.5,235.5 Z"/></g>
<g><path style="opacity:1" fill="#fc9402" d="M 406.5,275.5 C 414.102,288.373 421.435,301.373 428.5,314.5C 436.328,333.133 441.994,352.466 445.5,372.5C 451.146,368.688 455.979,364.021 460,358.5C 465.28,350.342 469.613,341.675 473,332.5C 474.5,331 476,329.5 477.5,328C 483.102,327.548 487.602,329.715 491,334.5C 495.776,341.73 500.276,349.063 504.5,356.5C 511.845,371.536 517.178,387.202 520.5,403.5C 524.654,427.738 522.654,451.405 514.5,474.5C 486.833,474.5 459.167,474.5 431.5,474.5C 426.107,459.823 420.607,445.156 415,430.5C 410.04,420.439 402.54,417.939 392.5,423C 374.952,436.255 362.952,453.422 356.5,474.5C 332.5,474.5 308.5,474.5 284.5,474.5C 276.122,450.983 274.455,426.983 279.5,402.5C 285.085,384.581 294.085,368.581 306.5,354.5C 318.468,341.198 330.801,328.198 343.5,315.5C 354.382,303.401 364.049,290.401 372.5,276.5C 376.48,270.551 379.98,264.217 383,257.5C 385.707,255.114 388.54,254.948 391.5,257C 397.122,262.776 402.122,268.942 406.5,275.5 Z"/></g>
<g><path style="opacity:1" fill="#fd7307" d="M 372.5,276.5 C 364.049,290.401 354.382,303.401 343.5,315.5C 323.129,315.129 302.962,315.129 283,315.5C 279.791,313.688 276.791,313.688 274,315.5C 272.605,314.185 271.605,314.519 271,316.5C 270.311,315.643 269.478,314.977 268.5,314.5C 256.973,314.581 245.306,314.581 233.5,314.5C 238.25,301.584 243.583,288.917 249.5,276.5C 250.117,276.611 250.617,276.944 251,277.5C 252.255,275.406 254.088,274.406 256.5,274.5C 266.011,274.745 275.677,274.745 285.5,274.5C 287.641,274.613 289.475,275.28 291,276.5C 292.18,275.316 293.68,274.649 295.5,274.5C 300.629,274.654 305.796,274.654 311,274.5C 312.676,277.16 314.343,277.16 316,274.5C 316.85,275.424 317.85,275.424 319,274.5C 319.945,274.905 320.612,275.572 321,276.5C 321.333,275.833 321.667,275.167 322,274.5C 324.801,274.554 327.634,274.554 330.5,274.5C 331.192,275.025 331.692,275.692 332,276.5C 333.441,275.74 334.941,275.074 336.5,274.5C 339.754,275.763 343.254,275.763 347,274.5C 348.981,274.629 350.647,275.296 352,276.5C 352.333,275.833 352.667,275.167 353,274.5C 357.153,275.52 361.653,275.52 366.5,274.5C 368.167,274.667 369.833,274.833 371.5,275C 372.056,275.383 372.389,275.883 372.5,276.5 Z"/></g>
<g><path style="opacity:1" fill="#fd7307" d="M 560.5,274.5 C 565.908,287.393 569.908,300.726 572.5,314.5C 560.896,314.764 549.729,315.097 539,315.5C 535.791,313.688 532.791,313.688 530,315.5C 528.605,314.185 527.605,314.519 527,316.5C 526.311,315.643 525.478,314.977 524.5,314.5C 511.648,314.785 498.648,314.785 485.5,314.5C 480.085,314.529 474.918,315.195 470,316.5C 468.647,315.296 466.981,314.629 465,314.5C 463.019,314.629 461.353,315.296 460,316.5C 459.481,315.484 458.647,314.818 457.5,314.5C 447.78,315.727 438.113,315.727 428.5,314.5C 421.435,301.373 414.102,288.373 406.5,275.5C 408.277,274.749 410.443,274.416 413,274.5C 414.711,274.439 416.044,275.106 417,276.5C 418.313,275.427 419.813,274.76 421.5,274.5C 424.907,274.673 428.24,274.673 431.5,274.5C 433.029,274.529 434.196,275.196 435,276.5C 435.308,275.692 435.808,275.025 436.5,274.5C 439.985,274.621 443.818,274.621 448,274.5C 449.812,274.493 451.312,275.16 452.5,276.5C 452.833,275.833 453.167,275.167 453.5,274.5C 454.833,275.833 456.167,275.833 457.5,274.5C 458.192,275.025 458.692,275.692 459,276.5C 461,273.833 463,273.833 465,276.5C 465.674,275.422 466.674,274.755 468,274.5C 480.551,274.933 493.384,274.933 506.5,274.5C 506.351,275.552 506.517,276.552 507,277.5C 508.255,275.406 510.088,274.406 512.5,274.5C 522.011,274.745 531.677,274.745 541.5,274.5C 543.641,274.613 545.475,275.28 547,276.5C 548.18,275.316 549.68,274.649 551.5,274.5C 554.508,275.819 557.508,275.819 560.5,274.5 Z"/></g>
<g><path style="opacity:1" fill="#fe6d08" d="M 343.5,315.5 C 330.801,328.198 318.468,341.198 306.5,354.5C 298.868,353.823 291.201,353.49 283.5,353.5C 282.522,353.977 281.689,354.643 281,355.5C 280.667,354.833 280.333,354.167 280,353.5C 272.609,354.112 265.276,354.112 258,353.5C 256.019,353.629 254.353,354.296 253,355.5C 252.612,354.572 251.945,353.905 251,353.5C 249.584,354.573 248.25,354.573 247,353.5C 246.692,354.308 246.192,354.975 245.5,355.5C 244.312,354.16 242.812,353.493 241,353.5C 237.646,353.657 234.313,353.657 231,353.5C 229.166,355.756 227.499,355.756 226,353.5C 225.667,354.167 225.333,354.833 225,355.5C 224.722,354.584 224.222,353.918 223.5,353.5C 224.804,339.949 228.138,326.949 233.5,314.5C 245.306,314.581 256.973,314.581 268.5,314.5C 269.478,314.977 270.311,315.643 271,316.5C 271.605,314.519 272.605,314.185 274,315.5C 276.791,313.688 279.791,313.688 283,315.5C 302.962,315.129 323.129,315.129 343.5,315.5 Z"/></g>
<g><path style="opacity:1" fill="#fe6d08" d="M 572.5,314.5 C 575.355,327.308 577.022,340.308 577.5,353.5C 575.139,354.9 572.805,355.9 570.5,356.5C 569.494,356.062 569.494,355.396 570.5,354.5C 568.579,353.359 566.579,353.192 564.5,354C 565.696,354.654 565.696,355.154 564.5,355.5C 563.5,354.833 562.5,354.167 561.5,353.5C 553.995,354.002 546.662,354.002 539.5,353.5C 538.522,353.977 537.689,354.643 537,355.5C 536.667,354.833 536.333,354.167 536,353.5C 528.609,354.112 521.276,354.112 514,353.5C 512.019,353.629 510.353,354.296 509,355.5C 506.878,352.817 505.378,353.15 504.5,356.5C 500.276,349.063 495.776,341.73 491,334.5C 487.602,329.715 483.102,327.548 477.5,328C 476,329.5 474.5,331 473,332.5C 469.613,341.675 465.28,350.342 460,358.5C 455.979,364.021 451.146,368.688 445.5,372.5C 441.994,352.466 436.328,333.133 428.5,314.5C 438.113,315.727 447.78,315.727 457.5,314.5C 458.647,314.818 459.481,315.484 460,316.5C 461.353,315.296 463.019,314.629 465,314.5C 466.981,314.629 468.647,315.296 470,316.5C 474.918,315.195 480.085,314.529 485.5,314.5C 498.648,314.785 511.648,314.785 524.5,314.5C 525.478,314.977 526.311,315.643 527,316.5C 527.605,314.519 528.605,314.185 530,315.5C 532.791,313.688 535.791,313.688 539,315.5C 549.729,315.097 560.896,314.764 572.5,314.5 Z"/></g>
<g><path style="opacity:1" fill="#fe680b" d="M 223.5,353.5 C 224.222,353.918 224.722,354.584 225,355.5C 225.333,354.833 225.667,354.167 226,353.5C 227.499,355.756 229.166,355.756 231,353.5C 234.313,353.657 237.646,353.657 241,353.5C 242.812,353.493 244.312,354.16 245.5,355.5C 246.192,354.975 246.692,354.308 247,353.5C 248.25,354.573 249.584,354.573 251,353.5C 251.945,353.905 252.612,354.572 253,355.5C 254.353,354.296 256.019,353.629 258,353.5C 265.276,354.112 272.609,354.112 280,353.5C 280.333,354.167 280.667,354.833 281,355.5C 281.689,354.643 282.522,353.977 283.5,353.5C 291.201,353.49 298.868,353.823 306.5,354.5C 294.085,368.581 285.085,384.581 279.5,402.5C 279.082,401.778 278.416,401.278 277.5,401C 278.706,399.982 278.373,399.482 276.5,399.5C 272.643,400.071 268.976,400.071 265.5,399.5C 264.833,400.167 264.167,400.833 263.5,401.5C 262.304,401.154 262.304,400.654 263.5,400C 262.833,399.833 262.167,399.667 261.5,399.5C 256.472,400.771 251.139,400.771 245.5,399.5C 243.359,399.613 241.525,400.28 240,401.5C 238.991,400.342 237.658,399.675 236,399.5C 231.981,399.912 227.814,399.912 223.5,399.5C 220.953,384.11 220.953,368.777 223.5,353.5 Z"/></g>
<g><path style="opacity:1" fill="#fe6709" d="M 577.5,353.5 C 577.787,369.237 577.12,384.904 575.5,400.5C 573.871,398.94 572.704,399.273 572,401.5C 571.692,400.692 571.192,400.025 570.5,399.5C 566.498,400.165 562.331,400.165 558,399.5C 557.055,399.905 556.388,400.572 556,401.5C 555.667,400.833 555.333,400.167 555,399.5C 548.578,399.645 542.245,399.645 536,399.5C 535.692,400.308 535.192,400.975 534.5,401.5C 533.304,401.154 533.304,400.654 534.5,400C 533.833,399.833 533.167,399.667 532.5,399.5C 528.643,400.071 524.976,400.071 521.5,399.5C 520.571,400.689 520.238,402.022 520.5,403.5C 517.178,387.202 511.845,371.536 504.5,356.5C 505.378,353.15 506.878,352.817 509,355.5C 510.353,354.296 512.019,353.629 514,353.5C 521.276,354.112 528.609,354.112 536,353.5C 536.333,354.167 536.667,354.833 537,355.5C 537.689,354.643 538.522,353.977 539.5,353.5C 546.662,354.002 553.995,354.002 561.5,353.5C 562.5,354.167 563.5,354.833 564.5,355.5C 565.696,355.154 565.696,354.654 564.5,354C 566.579,353.192 568.579,353.359 570.5,354.5C 569.494,355.396 569.494,356.062 570.5,356.5C 572.805,355.9 575.139,354.9 577.5,353.5 Z"/></g>
<g><path style="opacity:1" fill="#fe5f0b" d="M 223.5,399.5 C 227.814,399.912 231.981,399.912 236,399.5C 237.658,399.675 238.991,400.342 240,401.5C 241.525,400.28 243.359,399.613 245.5,399.5C 251.139,400.771 256.472,400.771 261.5,399.5C 262.167,399.667 262.833,399.833 263.5,400C 262.304,400.654 262.304,401.154 263.5,401.5C 264.167,400.833 264.833,400.167 265.5,399.5C 268.976,400.071 272.643,400.071 276.5,399.5C 278.373,399.482 278.706,399.982 277.5,401C 278.416,401.278 279.082,401.778 279.5,402.5C 274.455,426.983 276.122,450.983 284.5,474.5C 273.5,474.5 262.5,474.5 251.5,474.5C 236.87,451.557 227.537,426.557 223.5,399.5 Z"/></g>
<g><path style="opacity:1" fill="#fe5f0b" d="M 575.5,400.5 C 571.629,427.121 562.629,451.788 548.5,474.5C 537.167,474.5 525.833,474.5 514.5,474.5C 522.654,451.405 524.654,427.738 520.5,403.5C 520.238,402.022 520.571,400.689 521.5,399.5C 524.976,400.071 528.643,400.071 532.5,399.5C 533.167,399.667 533.833,399.833 534.5,400C 533.304,400.654 533.304,401.154 534.5,401.5C 535.192,400.975 535.692,400.308 536,399.5C 542.245,399.645 548.578,399.645 555,399.5C 555.333,400.167 555.667,400.833 556,401.5C 556.388,400.572 557.055,399.905 558,399.5C 562.331,400.165 566.498,400.165 570.5,399.5C 571.192,400.025 571.692,400.692 572,401.5C 572.704,399.273 573.871,398.94 575.5,400.5 Z"/></g>
<g><path style="opacity:1" fill="#fce101" d="M 431.5,474.5 C 406.5,474.5 381.5,474.5 356.5,474.5C 362.952,453.422 374.952,436.255 392.5,423C 402.54,417.939 410.04,420.439 415,430.5C 420.607,445.156 426.107,459.823 431.5,474.5 Z"/></g>
</svg>
