<svg width="13" height="13" viewBox="0 0 13 13" fill="none" xmlns="http://www.w3.org/2000/svg">
<path d="M12.2695 6.12988C12.2695 2.81617 9.58324 0.129883 6.26953 0.129883C2.95582 0.129883 0.269531 2.81617 0.269531 6.12988C0.269531 9.44359 2.95582 12.1299 6.26953 12.1299C9.58324 12.1299 12.2695 9.44359 12.2695 6.12988Z" fill="#F15B5B"/>
<path fill-rule="evenodd" clip-rule="evenodd" d="M4.76875 2.97988C4.76875 2.62184 4.91098 2.27846 5.16416 2.02529C5.41733 1.77211 5.76071 1.62988 6.11875 1.62988C6.47679 1.62988 6.82017 1.77211 7.07334 2.02529C7.32652 2.27846 7.46875 2.62184 7.46875 2.97988C7.46875 3.33792 7.32652 3.6813 7.07334 3.93448C6.82017 4.18765 6.47679 4.32988 6.11875 4.32988C5.76071 4.32988 5.41733 4.18765 5.16416 3.93448C4.91098 3.6813 4.76875 3.33792 4.76875 2.97988ZM7.16875 5.22988H4.46875V6.72988H5.36875V8.82988H4.46875V10.3299H8.06875V8.82988H7.16875V5.22988Z" fill="white"/>
</svg>
