<svg width="12" height="13" viewBox="0 0 12 13" fill="none" xmlns="http://www.w3.org/2000/svg">
<path d="M3.41323 10.4156L4.0226 9.80619L2.44894 8.23253L1.83956 8.8419V9.55842H2.69671V10.4156H3.41323ZM6.91546 4.20128C6.91546 4.10306 6.86635 4.05396 6.76814 4.05396C6.72349 4.05396 6.68555 4.06958 6.6543 4.10083L3.02483 7.73029C2.99358 7.76154 2.97796 7.79949 2.97796 7.84413C2.97796 7.94235 3.02706 7.99146 3.12528 7.99146C3.16992 7.99146 3.20787 7.97583 3.23912 7.94458L6.86858 4.31512C6.89983 4.28387 6.91546 4.24592 6.91546 4.20128ZM6.55385 2.91556L9.33957 5.70128L3.76814 11.2727H0.982422V8.48699L6.55385 2.91556ZM11.1275 3.55842C11.1275 3.79503 11.0449 3.99592 10.8797 4.1611L9.76814 5.27271L6.98242 2.48699L8.09403 1.38208C8.25474 1.21244 8.45564 1.12762 8.69671 1.12762C8.93331 1.12762 9.13644 1.21244 9.30608 1.38208L10.8797 2.94904C11.0449 3.12315 11.1275 3.32628 11.1275 3.55842Z" fill="#C3C3C3"/>
</svg>
