<?xml version="1.0" encoding="UTF-8"?>
<!DOCTYPE svg PUBLIC "-//W3C//DTD SVG 1.1//EN" "http://www.w3.org/Graphics/SVG/1.1/DTD/svg11.dtd">
<svg xmlns="http://www.w3.org/2000/svg" version="1.1" width="592px" height="258px" style="shape-rendering:geometricPrecision; text-rendering:geometricPrecision; image-rendering:optimizeQuality; fill-rule:evenodd; clip-rule:evenodd" xmlns:xlink="http://www.w3.org/1999/xlink">
<g><path style="opacity:1" fill="#457edb" d="M 2.5,-0.5 C 46.5,-0.5 90.5,-0.5 134.5,-0.5C 134.5,82.8333 134.5,166.167 134.5,249.5C 89.5,249.5 44.5,249.5 -0.5,249.5C -0.5,167.167 -0.5,84.8333 -0.5,2.5C 0.833333,1.83333 1.83333,0.833333 2.5,-0.5 Z"/></g>
<g><path style="opacity:1" fill="#fdfdfe" d="M 134.5,-0.5 C 142.167,-0.5 149.833,-0.5 157.5,-0.5C 157.5,1.5 157.5,3.5 157.5,5.5C 172.167,5.5 186.833,5.5 201.5,5.5C 201.5,3.5 201.5,1.5 201.5,-0.5C 203.5,-0.5 205.5,-0.5 207.5,-0.5C 207.5,1.5 207.5,3.5 207.5,5.5C 222.167,5.5 236.833,5.5 251.5,5.5C 251.5,3.5 251.5,1.5 251.5,-0.5C 253.5,-0.5 255.5,-0.5 257.5,-0.5C 257.5,1.5 257.5,3.5 257.5,5.5C 271.833,5.5 286.167,5.5 300.5,5.5C 300.5,3.5 300.5,1.5 300.5,-0.5C 302.5,-0.5 304.5,-0.5 306.5,-0.5C 306.5,1.5 306.5,3.5 306.5,5.5C 321.167,5.5 335.833,5.5 350.5,5.5C 350.5,3.5 350.5,1.5 350.5,-0.5C 352.833,-0.5 355.167,-0.5 357.5,-0.5C 357.5,1.5 357.5,3.5 357.5,5.5C 372.167,5.5 386.833,5.5 401.5,5.5C 401.5,3.5 401.5,1.5 401.5,-0.5C 416.167,-0.5 430.833,-0.5 445.5,-0.5C 445.5,82.8333 445.5,166.167 445.5,249.5C 341.833,249.5 238.167,249.5 134.5,249.5C 134.5,166.167 134.5,82.8333 134.5,-0.5 Z"/></g>
<g><path style="opacity:1" fill="#dcdcdc" d="M 157.5,-0.5 C 172.167,-0.5 186.833,-0.5 201.5,-0.5C 201.5,1.5 201.5,3.5 201.5,5.5C 186.833,5.5 172.167,5.5 157.5,5.5C 157.5,3.5 157.5,1.5 157.5,-0.5 Z"/></g>
<g><path style="opacity:1" fill="#dcdcdc" d="M 207.5,-0.5 C 222.167,-0.5 236.833,-0.5 251.5,-0.5C 251.5,1.5 251.5,3.5 251.5,5.5C 236.833,5.5 222.167,5.5 207.5,5.5C 207.5,3.5 207.5,1.5 207.5,-0.5 Z"/></g>
<g><path style="opacity:1" fill="#dbdcdb" d="M 257.5,-0.5 C 271.833,-0.5 286.167,-0.5 300.5,-0.5C 300.5,1.5 300.5,3.5 300.5,5.5C 286.167,5.5 271.833,5.5 257.5,5.5C 257.5,3.5 257.5,1.5 257.5,-0.5 Z"/></g>
<g><path style="opacity:1" fill="#dcdcdc" d="M 306.5,-0.5 C 321.167,-0.5 335.833,-0.5 350.5,-0.5C 350.5,1.5 350.5,3.5 350.5,5.5C 335.833,5.5 321.167,5.5 306.5,5.5C 306.5,3.5 306.5,1.5 306.5,-0.5 Z"/></g>
<g><path style="opacity:1" fill="#dcdcdc" d="M 357.5,-0.5 C 372.167,-0.5 386.833,-0.5 401.5,-0.5C 401.5,1.5 401.5,3.5 401.5,5.5C 386.833,5.5 372.167,5.5 357.5,5.5C 357.5,3.5 357.5,1.5 357.5,-0.5 Z"/></g>
<g><path style="opacity:1" fill="#447dda" d="M 445.5,-0.5 C 493.167,-0.5 540.833,-0.5 588.5,-0.5C 589.167,0.833333 590.167,1.83333 591.5,2.5C 591.5,84.8333 591.5,167.167 591.5,249.5C 542.833,249.5 494.167,249.5 445.5,249.5C 445.5,166.167 445.5,82.8333 445.5,-0.5 Z"/></g>
<g><path style="opacity:1" fill="#e8e8e8" d="M 421.5,17.5 C 333.833,17.5 246.167,17.5 158.5,17.5C 158.5,18.5 158.5,19.5 158.5,20.5C 157.566,19.4324 157.232,18.099 157.5,16.5C 245.668,16.1673 333.668,16.5006 421.5,17.5 Z"/></g>
<g><path style="opacity:1" fill="#dbdcdb" d="M 421.5,17.5 C 421.5,18.5 421.5,19.5 421.5,20.5C 333.833,20.5 246.167,20.5 158.5,20.5C 158.5,19.5 158.5,18.5 158.5,17.5C 246.167,17.5 333.833,17.5 421.5,17.5 Z"/></g>
<g><path style="opacity:1" fill="#dbdcdb" d="M 158.5,24.5 C 246.167,24.5 333.833,24.5 421.5,24.5C 421.5,25.5 421.5,26.5 421.5,27.5C 333.833,27.5 246.167,27.5 158.5,27.5C 158.5,26.5 158.5,25.5 158.5,24.5 Z"/></g>
<g><path style="opacity:1" fill="#e8e8e8" d="M 158.5,24.5 C 158.5,25.5 158.5,26.5 158.5,27.5C 246.167,27.5 333.833,27.5 421.5,27.5C 333.668,28.4994 245.668,28.8327 157.5,28.5C 157.232,26.901 157.566,25.5676 158.5,24.5 Z"/></g>
<g><path style="opacity:1" fill="#dddddd" d="M 157.5,31.5 C 245.5,31.5 333.5,31.5 421.5,31.5C 421.5,32.8333 421.5,34.1667 421.5,35.5C 333.5,35.5 245.5,35.5 157.5,35.5C 157.5,34.1667 157.5,32.8333 157.5,31.5 Z"/></g>
<g><path style="opacity:1" fill="#dbdcdb" d="M 158.5,39.5 C 246.167,39.5 333.833,39.5 421.5,39.5C 421.5,40.5 421.5,41.5 421.5,42.5C 333.833,42.5 246.167,42.5 158.5,42.5C 158.5,41.5 158.5,40.5 158.5,39.5 Z"/></g>
<g><path style="opacity:1" fill="#ececec" d="M 158.5,39.5 C 158.5,40.5 158.5,41.5 158.5,42.5C 246.167,42.5 333.833,42.5 421.5,42.5C 333.668,43.4994 245.668,43.8327 157.5,43.5C 157.232,41.901 157.566,40.5676 158.5,39.5 Z"/></g>
<g><path style="opacity:1" fill="#dcdcdc" d="M 157.5,49.5 C 181.167,49.5 204.833,49.5 228.5,49.5C 228.5,53.5 228.5,57.5 228.5,61.5C 204.833,61.5 181.167,61.5 157.5,61.5C 157.5,57.5 157.5,53.5 157.5,49.5 Z"/></g>
<g><path style="opacity:1" fill="#dcdcdc" d="M 234.5,49.5 C 258.167,49.5 281.833,49.5 305.5,49.5C 305.5,53.5 305.5,57.5 305.5,61.5C 281.833,61.5 258.167,61.5 234.5,61.5C 234.5,57.5 234.5,53.5 234.5,49.5 Z"/></g>
<g><path style="opacity:1" fill="#487fdb" d="M 157.5,81.5 C 181.5,81.5 205.5,81.5 229.5,81.5C 229.5,129.167 229.5,176.833 229.5,224.5C 205.5,224.5 181.5,224.5 157.5,224.5C 157.5,176.833 157.5,129.167 157.5,81.5 Z"/></g>
<g><path style="opacity:1" fill="#467fdb" d="M 242.5,81.5 C 266.5,81.5 290.5,81.5 314.5,81.5C 314.5,129.167 314.5,176.833 314.5,224.5C 290.5,224.5 266.5,224.5 242.5,224.5C 242.5,176.833 242.5,129.167 242.5,81.5 Z"/></g>
<g><path style="opacity:1" fill="#4c81dc" d="M 327.5,81.5 C 351.5,81.5 375.5,81.5 399.5,81.5C 399.5,129.167 399.5,176.833 399.5,224.5C 375.5,224.5 351.5,224.5 327.5,224.5C 327.5,176.833 327.5,129.167 327.5,81.5 Z"/></g>
<g><path style="opacity:1" fill="#aec6ef" d="M 343.5,95.5 C 343.5,98.1667 343.5,100.833 343.5,103.5C 344.833,103.5 346.167,103.5 347.5,103.5C 346.081,104.451 344.415,104.784 342.5,104.5C 342.19,101.287 342.523,98.2869 343.5,95.5 Z"/></g>
<g><path style="opacity:1" fill="#f2f5fc" d="M 343.5,95.5 C 348.041,95.3309 348.374,95.9975 344.5,97.5C 345.766,98.3624 347.099,99.0291 348.5,99.5C 348.5,100.5 348.5,101.5 348.5,102.5C 348.5,103.167 348.167,103.5 347.5,103.5C 346.167,103.5 344.833,103.5 343.5,103.5C 343.5,100.833 343.5,98.1667 343.5,95.5 Z"/></g>
<g><path style="opacity:1" fill="#739ce3" d="M 300.5,103.5 C 301.047,101.482 302.047,99.6487 303.5,98C 301.613,97.2204 299.946,97.3871 298.5,98.5C 298.768,100.099 298.434,101.432 297.5,102.5C 297.5,100.833 297.5,99.1667 297.5,97.5C 299.607,96.5318 301.941,96.1984 304.5,96.5C 303.634,99.1666 302.634,101.833 301.5,104.5C 300.893,104.376 300.56,104.043 300.5,103.5 Z"/></g>
<g><path style="opacity:1" fill="#8aade7" d="M 179.5,97.5 C 179.205,99.7354 179.539,101.735 180.5,103.5C 180.44,104.043 180.107,104.376 179.5,104.5C 178.203,102.027 178.203,99.6934 179.5,97.5 Z"/></g>
<g><path style="opacity:1" fill="#e8eefa" d="M 257.5,95.5 C 257.5,95.8333 257.5,96.1667 257.5,96.5C 254.003,96.995 253.003,98.8283 254.5,102C 259.62,102.874 259.62,103.54 254.5,104C 252.32,101.582 251.987,98.9156 253.5,96C 254.793,95.51 256.127,95.3433 257.5,95.5 Z"/></g>
<g><path style="opacity:1" fill="#8aade7" d="M 271.5,97.5 C 271.205,99.7354 271.539,101.735 272.5,103.5C 272.44,104.043 272.107,104.376 271.5,104.5C 270.203,102.027 270.203,99.6934 271.5,97.5 Z"/></g>
<g><path style="opacity:1" fill="#fefffe" d="M 298.5,98.5 C 299.946,97.3871 301.613,97.2204 303.5,98C 302.047,99.6487 301.047,101.482 300.5,103.5C 300.923,101.219 300.256,99.5521 298.5,98.5 Z"/></g>
<g><path style="opacity:1" fill="#85aae7" d="M 350.5,97.5 C 350.025,100.082 350.692,102.082 352.5,103.5C 352.265,104.097 351.765,104.43 351,104.5C 349.989,103.944 349.156,103.278 348.5,102.5C 348.5,101.5 348.5,100.5 348.5,99.5C 349.167,98.8333 349.833,98.1667 350.5,97.5 Z"/></g>
<g><path style="opacity:1" fill="#f8fafd" d="M 350.5,97.5 C 351.268,98.2625 351.768,99.2625 352,100.5C 352.759,98.9371 353.926,97.9371 355.5,97.5C 355.662,99.5273 355.495,101.527 355,103.5C 354.701,100.202 353.867,99.8685 352.5,102.5C 352.5,102.833 352.5,103.167 352.5,103.5C 350.692,102.082 350.025,100.082 350.5,97.5 Z"/></g>
<g><path style="opacity:1" fill="#6794e1" d="M 355.5,97.5 C 356.167,97.5 356.833,97.5 357.5,97.5C 358.263,98.2679 359.263,98.7679 360.5,99C 357.833,100 357.833,101 360.5,102C 358.881,102.236 357.881,103.069 357.5,104.5C 355.446,104.635 353.779,103.968 352.5,102.5C 353.867,99.8685 354.701,100.202 355,103.5C 355.495,101.527 355.662,99.5273 355.5,97.5 Z"/></g>
<g><path style="opacity:1" fill="#ceddf5" d="M 363.5,97.5 C 364.735,97.7214 365.735,98.3881 366.5,99.5C 367.167,98.8333 367.833,98.1667 368.5,97.5C 369.833,99.8333 369.833,102.167 368.5,104.5C 367.167,100.5 365.833,100.5 364.5,104.5C 363.526,102.257 363.192,99.924 363.5,97.5 Z"/></g>
<g><path style="opacity:1" fill="#d4e0f6" d="M 172.5,96.5 C 173.884,95.1991 175.384,95.1991 177,96.5C 178.297,100.175 177.297,102.842 174,104.5C 172.941,104.37 172.108,103.87 171.5,103C 176.07,102.45 176.403,101.283 172.5,99.5C 176.335,98.0035 176.335,97.0035 172.5,96.5 Z"/></g>
<g><path style="opacity:1" fill="#e0e9f9" d="M 186.5,97.5 C 191.747,97.6398 192.747,99.8064 189.5,104C 185.631,103.492 184.631,101.325 186.5,97.5 Z"/></g>
<g><path style="opacity:1" fill="#dfe8f8" d="M 200.5,97.5 C 202.167,97.5 203.833,97.5 205.5,97.5C 205.662,99.5273 205.495,101.527 205,103.5C 200.082,104.397 198.582,102.397 200.5,97.5 Z"/></g>
<g><path style="opacity:1" fill="#6895e1" d="M 257.5,95.5 C 260.941,96.0965 264.275,96.7632 267.5,97.5C 266.448,97.3505 265.448,97.5172 264.5,98C 265.737,98.2321 266.737,98.7321 267.5,99.5C 266.391,99.5569 265.391,99.8902 264.5,100.5C 264.44,99.9569 264.107,99.6236 263.5,99.5C 262.833,101.167 262.167,102.833 261.5,104.5C 260.893,104.376 260.56,104.043 260.5,103.5C 259.256,101.337 258.256,99.0033 257.5,96.5C 257.5,96.1667 257.5,95.8333 257.5,95.5 Z"/></g>
<g><path style="opacity:1" fill="#fefffe" d="M 260.5,103.5 C 260.859,101.234 260.192,99.4007 258.5,98C 260.167,97.3333 261.833,97.3333 263.5,98C 262.047,99.6487 261.047,101.482 260.5,103.5 Z"/></g>
<g><path style="opacity:1" fill="#e4ecfa" d="M 267.5,97.5 C 268.993,98.3121 269.66,99.6455 269.5,101.5C 269.767,103.976 269.101,104.643 267.5,103.5C 267.5,102.167 267.5,100.833 267.5,99.5C 266.737,98.7321 265.737,98.2321 264.5,98C 265.448,97.5172 266.448,97.3505 267.5,97.5 Z"/></g>
<g><path style="opacity:1" fill="#e7eefa" d="M 288.5,103.5 C 288.5,102.167 288.5,100.833 288.5,99.5C 287.737,98.7321 286.737,98.2321 285.5,98C 287.112,97.2797 288.612,97.4464 290,98.5C 290.667,100.5 290.667,102.5 290,104.5C 289.617,103.944 289.117,103.611 288.5,103.5 Z"/></g>
<g><path style="opacity:1" fill="#f6f9fd" d="M 297.5,97.5 C 297.5,99.1667 297.5,100.833 297.5,102.5C 297.5,103.167 297.167,103.5 296.5,103.5C 296.178,102.142 296.178,100.475 296.5,98.5C 295.5,98.5 294.5,98.5 293.5,98.5C 294.371,101.272 294.371,103.938 293.5,106.5C 292.523,103.713 292.19,100.713 292.5,97.5C 294.167,97.5 295.833,97.5 297.5,97.5 Z"/></g>
<g><path style="opacity:1" fill="#4980db" d="M 187.5,98.5 C 188.586,98.62 189.253,99.2867 189.5,100.5C 189.167,101.167 188.833,101.833 188.5,102.5C 187.571,101.311 187.238,99.9778 187.5,98.5 Z"/></g>
<g><path style="opacity:1" fill="#5f8edf" d="M 201.5,98.5 C 203.912,98.6941 204.912,100.027 204.5,102.5C 203.5,102.5 202.5,102.5 201.5,102.5C 201.5,101.167 201.5,99.8333 201.5,98.5 Z"/></g>
<g><path style="opacity:1" fill="#c4d4f3" d="M 288.5,99.5 C 288.5,100.833 288.5,102.167 288.5,103.5C 287.458,104.791 286.292,104.791 285,103.5C 284.692,104.308 284.192,104.975 283.5,105.5C 281.629,104.233 279.796,104.233 278,105.5C 278.083,102.881 278.25,100.214 278.5,97.5C 280.167,97.5 281.833,97.5 283.5,97.5C 283.34,99.1992 283.506,100.866 284,102.5C 284.918,100.624 286.418,99.6243 288.5,99.5 Z"/></g>
<g><path style="opacity:1" fill="#7aa0e4" d="M 296.5,103.5 C 295.5,104.5 294.5,105.5 293.5,106.5C 294.371,103.938 294.371,101.272 293.5,98.5C 294.5,98.5 295.5,98.5 296.5,98.5C 296.178,100.475 296.178,102.142 296.5,103.5 Z"/></g>
<g><path style="opacity:1" fill="#cfdcf5" d="M 371.5,97.5 C 374.95,96.7564 376.616,98.0897 376.5,101.5C 371.206,101.682 371.206,102.182 376.5,103C 373.361,105.228 371.361,104.394 370.5,100.5C 370.685,99.4163 371.018,98.4163 371.5,97.5 Z"/></g>
<g><path style="opacity:1" fill="#e2ebf9" d="M 378.5,97.5 C 382.838,97.6219 383.172,97.9553 379.5,98.5C 379.5,99.8333 379.5,101.167 379.5,102.5C 382.797,102.329 383.131,102.995 380.5,104.5C 377.497,102.822 376.831,100.489 378.5,97.5 Z"/></g>
<g><path style="opacity:1" fill="#d9e4f7" d="M 179.5,97.5 C 180.151,98.0906 180.818,98.7573 181.5,99.5C 182.258,98.1886 183.258,97.6886 184.5,98C 183.167,99.6667 183.167,101.333 184.5,103C 183.258,103.311 182.258,102.811 181.5,101.5C 180.702,101.957 180.369,102.624 180.5,103.5C 179.539,101.735 179.205,99.7354 179.5,97.5 Z"/></g>
<g><path style="opacity:1" fill="#ccdaf5" d="M 192.5,97.5 C 193.735,97.7214 194.735,98.3881 195.5,99.5C 196.167,98.8333 196.833,98.1667 197.5,97.5C 198.833,99.8333 198.833,102.167 197.5,104.5C 196.167,100.5 194.833,100.5 193.5,104.5C 192.526,102.257 192.192,99.924 192.5,97.5 Z"/></g>
<g><path style="opacity:1" fill="#d7e2f7" d="M 271.5,97.5 C 272.762,100.071 274.095,100.071 275.5,97.5C 276.833,99.8333 276.833,102.167 275.5,104.5C 274.833,103.5 274.167,102.5 273.5,101.5C 272.702,101.957 272.369,102.624 272.5,103.5C 271.539,101.735 271.205,99.7354 271.5,97.5 Z"/></g>
<g><path style="opacity:1" fill="#5084dd" d="M 344.5,99.5 C 346.465,99.9483 346.798,100.948 345.5,102.5C 344.614,101.675 344.281,100.675 344.5,99.5 Z"/></g>
<g><path style="opacity:1" fill="#d4e0f6" d="M 207.5,97.5 C 209.124,97.3601 210.29,98.0267 211,99.5C 211.71,98.0267 212.876,97.3601 214.5,97.5C 214.808,99.924 214.474,102.257 213.5,104.5C 212.749,103.624 212.249,102.624 212,101.5C 210.84,103.797 209.84,103.464 209,100.5C 208.667,101.5 208.333,102.5 208,103.5C 207.505,101.527 207.338,99.5273 207.5,97.5 Z"/></g>
<g><path style="opacity:1" fill="#d0def6" d="M 357.5,97.5 C 358.833,97.5 360.167,97.5 361.5,97.5C 361.698,99.5753 361.865,101.575 362,103.5C 360.644,104.38 359.144,104.714 357.5,104.5C 357.881,103.069 358.881,102.236 360.5,102C 357.833,101 357.833,100 360.5,99C 359.263,98.7679 358.263,98.2679 357.5,97.5 Z"/></g>
<g><path style="opacity:1" fill="#b4c9f0" d="M 267.5,99.5 C 267.5,100.833 267.5,102.167 267.5,103.5C 266.749,104.573 265.749,104.74 264.5,104C 263.209,102.708 263.209,101.542 264.5,100.5C 265.391,99.8902 266.391,99.5569 267.5,99.5 Z"/></g>
<g><path style="opacity:1" fill="#e7eefa" d="M 306.5,117.5 C 306.5,117.833 306.5,118.167 306.5,118.5C 287.5,118.5 268.5,118.5 249.5,118.5C 249.5,123.833 249.5,129.167 249.5,134.5C 249.167,134.5 248.833,134.5 248.5,134.5C 248.5,128.833 248.5,123.167 248.5,117.5C 267.833,117.5 287.167,117.5 306.5,117.5 Z"/></g>
<g><path style="opacity:1" fill="#fdfefe" d="M 164.5,117.5 C 183.833,117.5 203.167,117.5 222.5,117.5C 222.5,123.167 222.5,128.833 222.5,134.5C 203.167,134.5 183.833,134.5 164.5,134.5C 164.5,128.833 164.5,123.167 164.5,117.5 Z"/></g>
<g><path style="opacity:1" fill="#fefffe" d="M 306.5,118.5 C 306.5,123.833 306.5,129.167 306.5,134.5C 287.5,134.5 268.5,134.5 249.5,134.5C 249.5,129.167 249.5,123.833 249.5,118.5C 268.5,118.5 287.5,118.5 306.5,118.5 Z"/></g>
<g><path style="opacity:1" fill="#fdfefe" d="M 333.5,117.5 C 352.833,117.5 372.167,117.5 391.5,117.5C 391.5,123.167 391.5,128.833 391.5,134.5C 372.167,134.5 352.833,134.5 333.5,134.5C 333.5,128.833 333.5,123.167 333.5,117.5 Z"/></g>
<g><path style="opacity:1" fill="#a1bdec" d="M 164.5,117.5 C 164.5,123.167 164.5,128.833 164.5,134.5C 183.833,134.5 203.167,134.5 222.5,134.5C 203.007,135.497 183.34,135.83 163.5,135.5C 163.177,129.31 163.51,123.31 164.5,117.5 Z"/></g>
<g><path style="opacity:1" fill="#a1bdec" d="M 306.5,117.5 C 307.49,123.31 307.823,129.31 307.5,135.5C 287.66,135.83 267.993,135.497 248.5,134.5C 248.833,134.5 249.167,134.5 249.5,134.5C 268.5,134.5 287.5,134.5 306.5,134.5C 306.5,129.167 306.5,123.833 306.5,118.5C 306.5,118.167 306.5,117.833 306.5,117.5 Z"/></g>
<g><path style="opacity:1" fill="#9dbaeb" d="M 333.5,117.5 C 333.5,123.167 333.5,128.833 333.5,134.5C 352.833,134.5 372.167,134.5 391.5,134.5C 372.007,135.497 352.34,135.83 332.5,135.5C 332.177,129.31 332.51,123.31 333.5,117.5 Z"/></g>
<g><path style="opacity:1" fill="#fefffe" d="M 164.5,141.5 C 183.833,141.5 203.167,141.5 222.5,141.5C 222.5,142.5 222.5,143.5 222.5,144.5C 203.167,144.5 183.833,144.5 164.5,144.5C 164.5,143.5 164.5,142.5 164.5,141.5 Z"/></g>
<g><path style="opacity:1" fill="#fefefe" d="M 306.5,141.5 C 306.5,142.5 306.5,143.5 306.5,144.5C 287.167,144.5 267.833,144.5 248.5,144.5C 248.5,143.5 248.5,142.5 248.5,141.5C 267.833,141.5 287.167,141.5 306.5,141.5 Z"/></g>
<g><path style="opacity:1" fill="#fefffe" d="M 333.5,141.5 C 352.833,141.5 372.167,141.5 391.5,141.5C 391.5,142.5 391.5,143.5 391.5,144.5C 372.167,144.5 352.833,144.5 333.5,144.5C 333.5,143.5 333.5,142.5 333.5,141.5 Z"/></g>
<g><path style="opacity:1" fill="#a1bdec" d="M 164.5,141.5 C 164.5,142.5 164.5,143.5 164.5,144.5C 183.833,144.5 203.167,144.5 222.5,144.5C 203.007,145.497 183.34,145.83 163.5,145.5C 163.232,143.901 163.566,142.568 164.5,141.5 Z"/></g>
<g><path style="opacity:1" fill="#a1bdec" d="M 306.5,141.5 C 307.434,142.568 307.768,143.901 307.5,145.5C 287.66,145.83 267.993,145.497 248.5,144.5C 267.833,144.5 287.167,144.5 306.5,144.5C 306.5,143.5 306.5,142.5 306.5,141.5 Z"/></g>
<g><path style="opacity:1" fill="#a0bcec" d="M 333.5,141.5 C 333.5,142.5 333.5,143.5 333.5,144.5C 352.833,144.5 372.167,144.5 391.5,144.5C 372.007,145.497 352.34,145.83 332.5,145.5C 332.232,143.901 332.566,142.568 333.5,141.5 Z"/></g>
<g><path style="opacity:1" fill="#fefffe" d="M 164.5,151.5 C 183.833,151.5 203.167,151.5 222.5,151.5C 222.5,152.5 222.5,153.5 222.5,154.5C 203.167,154.5 183.833,154.5 164.5,154.5C 164.5,153.5 164.5,152.5 164.5,151.5 Z"/></g>
<g><path style="opacity:1" fill="#fefefe" d="M 306.5,151.5 C 306.5,152.5 306.5,153.5 306.5,154.5C 287.167,154.5 267.833,154.5 248.5,154.5C 248.5,153.5 248.5,152.5 248.5,151.5C 267.833,151.5 287.167,151.5 306.5,151.5 Z"/></g>
<g><path style="opacity:1" fill="#fefffe" d="M 333.5,151.5 C 352.833,151.5 372.167,151.5 391.5,151.5C 391.5,152.5 391.5,153.5 391.5,154.5C 372.167,154.5 352.833,154.5 333.5,154.5C 333.5,153.5 333.5,152.5 333.5,151.5 Z"/></g>
<g><path style="opacity:1" fill="#a1bdec" d="M 164.5,151.5 C 164.5,152.5 164.5,153.5 164.5,154.5C 183.833,154.5 203.167,154.5 222.5,154.5C 203.007,155.497 183.34,155.83 163.5,155.5C 163.232,153.901 163.566,152.568 164.5,151.5 Z"/></g>
<g><path style="opacity:1" fill="#a1bdec" d="M 306.5,151.5 C 307.434,152.568 307.768,153.901 307.5,155.5C 287.66,155.83 267.993,155.497 248.5,154.5C 267.833,154.5 287.167,154.5 306.5,154.5C 306.5,153.5 306.5,152.5 306.5,151.5 Z"/></g>
<g><path style="opacity:1" fill="#a0bcec" d="M 333.5,151.5 C 333.5,152.5 333.5,153.5 333.5,154.5C 352.833,154.5 372.167,154.5 391.5,154.5C 372.007,155.497 352.34,155.83 332.5,155.5C 332.232,153.901 332.566,152.568 333.5,151.5 Z"/></g>
<g><path style="opacity:1" fill="#fefffe" d="M 222.5,161.5 C 222.5,162.5 222.5,163.5 222.5,164.5C 203.167,164.5 183.833,164.5 164.5,164.5C 164.5,163.5 164.5,162.5 164.5,161.5C 183.833,161.5 203.167,161.5 222.5,161.5 Z"/></g>
<g><path style="opacity:1" fill="#fefefe" d="M 248.5,161.5 C 267.833,161.5 287.167,161.5 306.5,161.5C 306.5,162.5 306.5,163.5 306.5,164.5C 287.167,164.5 267.833,164.5 248.5,164.5C 248.5,163.5 248.5,162.5 248.5,161.5 Z"/></g>
<g><path style="opacity:1" fill="#fefffe" d="M 333.5,161.5 C 352.833,161.5 372.167,161.5 391.5,161.5C 391.5,162.5 391.5,163.5 391.5,164.5C 372.167,164.5 352.833,164.5 333.5,164.5C 333.5,163.5 333.5,162.5 333.5,161.5 Z"/></g>
<g><path style="opacity:1" fill="#8aade7" d="M 222.5,161.5 C 203.167,161.5 183.833,161.5 164.5,161.5C 164.5,162.5 164.5,163.5 164.5,164.5C 183.833,164.5 203.167,164.5 222.5,164.5C 203.007,165.497 183.34,165.83 163.5,165.5C 163.5,163.833 163.5,162.167 163.5,160.5C 183.34,160.17 203.007,160.503 222.5,161.5 Z"/></g>
<g><path style="opacity:1" fill="#8aade7" d="M 248.5,161.5 C 267.993,160.503 287.66,160.17 307.5,160.5C 307.5,162.167 307.5,163.833 307.5,165.5C 287.66,165.83 267.993,165.497 248.5,164.5C 267.833,164.5 287.167,164.5 306.5,164.5C 306.5,163.5 306.5,162.5 306.5,161.5C 287.167,161.5 267.833,161.5 248.5,161.5 Z"/></g>
<g><path style="opacity:1" fill="#fefffe" d="M 222.5,171.5 C 222.5,172.5 222.5,173.5 222.5,174.5C 203.167,174.5 183.833,174.5 164.5,174.5C 164.5,173.5 164.5,172.5 164.5,171.5C 183.833,171.5 203.167,171.5 222.5,171.5 Z"/></g>
<g><path style="opacity:1" fill="#fefefe" d="M 248.5,171.5 C 267.833,171.5 287.167,171.5 306.5,171.5C 306.5,172.5 306.5,173.5 306.5,174.5C 287.167,174.5 267.833,174.5 248.5,174.5C 248.5,173.5 248.5,172.5 248.5,171.5 Z"/></g>
<g><path style="opacity:1" fill="#fefffe" d="M 333.5,171.5 C 352.833,171.5 372.167,171.5 391.5,171.5C 391.5,172.5 391.5,173.5 391.5,174.5C 372.167,174.5 352.833,174.5 333.5,174.5C 333.5,173.5 333.5,172.5 333.5,171.5 Z"/></g>
<g><path style="opacity:1" fill="#8aade7" d="M 222.5,171.5 C 203.167,171.5 183.833,171.5 164.5,171.5C 164.5,172.5 164.5,173.5 164.5,174.5C 183.833,174.5 203.167,174.5 222.5,174.5C 203.007,175.497 183.34,175.83 163.5,175.5C 163.5,173.833 163.5,172.167 163.5,170.5C 183.34,170.17 203.007,170.503 222.5,171.5 Z"/></g>
<g><path style="opacity:1" fill="#8aade7" d="M 248.5,171.5 C 267.993,170.503 287.66,170.17 307.5,170.5C 307.5,172.167 307.5,173.833 307.5,175.5C 287.66,175.83 267.993,175.497 248.5,174.5C 267.833,174.5 287.167,174.5 306.5,174.5C 306.5,173.5 306.5,172.5 306.5,171.5C 287.167,171.5 267.833,171.5 248.5,171.5 Z"/></g>
<g><path style="opacity:1" fill="#83a8e6" d="M 222.5,181.5 C 203.167,181.5 183.833,181.5 164.5,181.5C 164.5,182.5 164.5,183.5 164.5,184.5C 183.833,184.5 203.167,184.5 222.5,184.5C 203.007,185.497 183.34,185.83 163.5,185.5C 163.5,183.833 163.5,182.167 163.5,180.5C 183.34,180.17 203.007,180.503 222.5,181.5 Z"/></g>
<g><path style="opacity:1" fill="#83a8e6" d="M 248.5,181.5 C 267.993,180.503 287.66,180.17 307.5,180.5C 307.5,182.167 307.5,183.833 307.5,185.5C 287.66,185.83 267.993,185.497 248.5,184.5C 267.833,184.5 287.167,184.5 306.5,184.5C 306.5,183.5 306.5,182.5 306.5,181.5C 287.167,181.5 267.833,181.5 248.5,181.5 Z"/></g>
<g><path style="opacity:1" fill="#fefffe" d="M 222.5,181.5 C 222.5,182.5 222.5,183.5 222.5,184.5C 203.167,184.5 183.833,184.5 164.5,184.5C 164.5,183.5 164.5,182.5 164.5,181.5C 183.833,181.5 203.167,181.5 222.5,181.5 Z"/></g>
<g><path style="opacity:1" fill="#fefefe" d="M 248.5,181.5 C 267.833,181.5 287.167,181.5 306.5,181.5C 306.5,182.5 306.5,183.5 306.5,184.5C 287.167,184.5 267.833,184.5 248.5,184.5C 248.5,183.5 248.5,182.5 248.5,181.5 Z"/></g>
<g><path style="opacity:1" fill="#fefffe" d="M 333.5,181.5 C 352.833,181.5 372.167,181.5 391.5,181.5C 391.5,182.5 391.5,183.5 391.5,184.5C 372.167,184.5 352.833,184.5 333.5,184.5C 333.5,183.5 333.5,182.5 333.5,181.5 Z"/></g>
<g><path style="opacity:1" fill="#749ee4" d="M 333.5,181.5 C 333.5,182.5 333.5,183.5 333.5,184.5C 352.833,184.5 372.167,184.5 391.5,184.5C 372.007,185.497 352.34,185.83 332.5,185.5C 332.232,183.901 332.566,182.568 333.5,181.5 Z"/></g>
<g><path style="opacity:1" fill="#a1bdec" d="M 222.5,191.5 C 203.167,191.5 183.833,191.5 164.5,191.5C 164.5,192.5 164.5,193.5 164.5,194.5C 163.566,193.432 163.232,192.099 163.5,190.5C 183.34,190.17 203.007,190.503 222.5,191.5 Z"/></g>
<g><path style="opacity:1" fill="#92b2e9" d="M 248.5,191.5 C 267.993,190.503 287.66,190.17 307.5,190.5C 307.5,192.167 307.5,193.833 307.5,195.5C 287.66,195.83 267.993,195.497 248.5,194.5C 267.833,194.5 287.167,194.5 306.5,194.5C 306.5,193.5 306.5,192.5 306.5,191.5C 287.167,191.5 267.833,191.5 248.5,191.5 Z"/></g>
<g><path style="opacity:1" fill="#fefffe" d="M 222.5,191.5 C 222.5,192.5 222.5,193.5 222.5,194.5C 203.167,194.5 183.833,194.5 164.5,194.5C 164.5,193.5 164.5,192.5 164.5,191.5C 183.833,191.5 203.167,191.5 222.5,191.5 Z"/></g>
<g><path style="opacity:1" fill="#fefefe" d="M 248.5,191.5 C 267.833,191.5 287.167,191.5 306.5,191.5C 306.5,192.5 306.5,193.5 306.5,194.5C 287.167,194.5 267.833,194.5 248.5,194.5C 248.5,193.5 248.5,192.5 248.5,191.5 Z"/></g>
<g><path style="opacity:1" fill="#fefffe" d="M 391.5,191.5 C 391.5,192.5 391.5,193.5 391.5,194.5C 372.167,194.5 352.833,194.5 333.5,194.5C 333.5,193.5 333.5,192.5 333.5,191.5C 352.833,191.5 372.167,191.5 391.5,191.5 Z"/></g>
<g><path style="opacity:1" fill="#84a8e7" d="M 391.5,191.5 C 372.167,191.5 352.833,191.5 333.5,191.5C 333.5,192.5 333.5,193.5 333.5,194.5C 352.833,194.5 372.167,194.5 391.5,194.5C 372.007,195.497 352.34,195.83 332.5,195.5C 332.5,193.833 332.5,192.167 332.5,190.5C 352.34,190.17 372.007,190.503 391.5,191.5 Z"/></g>
<g><path style="opacity:1" fill="#f9fbfe" d="M 177.5,205.5 C 179.199,205.34 180.866,205.506 182.5,206C 180.563,206.122 179.23,206.955 178.5,208.5C 177.493,208.548 177.16,207.548 177.5,205.5 Z"/></g>
<g><path style="opacity:1" fill="#e4ebf9" d="M 203.5,205.5 C 209.646,205.082 210.979,207.415 207.5,212.5C 206.672,213.415 205.672,214.081 204.5,214.5C 203.516,211.572 203.183,208.572 203.5,205.5 Z"/></g>
<g><path style="opacity:1" fill="#d1dff5" d="M 259.5,205.5 C 260.5,205.5 261.5,205.5 262.5,205.5C 262.817,208.572 262.484,211.572 261.5,214.5C 260.996,211.701 259.996,209.201 258.5,207C 259.056,206.617 259.389,206.117 259.5,205.5 Z"/></g>
<g><path style="opacity:1" fill="#e4ebf9" d="M 291.5,205.5 C 297.646,205.082 298.979,207.415 295.5,212.5C 294.672,213.415 293.672,214.081 292.5,214.5C 291.516,211.572 291.183,208.572 291.5,205.5 Z"/></g>
<g><path style="opacity:1" fill="#e4ebf9" d="M 376.5,205.5 C 382.646,205.082 383.979,207.415 380.5,212.5C 379.672,213.415 378.672,214.081 377.5,214.5C 376.516,211.572 376.183,208.572 376.5,205.5 Z"/></g>
<g><path style="opacity:1" fill="#e5ecfa" d="M 193.5,205.5 C 195.451,205.227 196.951,205.893 198,207.5C 199.628,214.225 197.628,215.892 192,212.5C 191.167,209.829 191.667,207.496 193.5,205.5 Z"/></g>
<g><path style="opacity:1" fill="#e8eefa" d="M 281.5,205.5 C 286.333,206.168 287.666,208.834 285.5,213.5C 281.895,215.091 279.895,213.924 279.5,210C 279.519,208.167 280.185,206.667 281.5,205.5 Z"/></g>
<g><path style="opacity:1" fill="#e8eefa" d="M 366.5,205.5 C 371.333,206.168 372.666,208.834 370.5,213.5C 366.895,215.091 364.895,213.924 364.5,210C 364.519,208.167 365.185,206.667 366.5,205.5 Z"/></g>
<g><path style="opacity:1" fill="#4e83dc" d="M 194.5,206.5 C 196.94,208.573 197.106,210.906 195,213.5C 193.193,211.294 193.026,208.961 194.5,206.5 Z"/></g>
<g><path style="opacity:1" fill="#6c97e2" d="M 205.5,206.5 C 209.31,207.754 209.31,208.754 205.5,209.5C 205.5,208.5 205.5,207.5 205.5,206.5 Z"/></g>
<g><path style="opacity:1" fill="#f2f6fc" d="M 265.5,205.5 C 267.144,205.286 268.644,205.62 270,206.5C 270.769,209.099 270.602,211.599 269.5,214C 267.888,214.72 266.388,214.554 265,213.5C 264.278,210.739 264.445,208.073 265.5,205.5 Z"/></g>
<g><path style="opacity:1" fill="#638fe0" d="M 266.5,206.5 C 267.725,207.152 268.392,208.319 268.5,210C 267.709,214.448 266.709,214.448 265.5,210C 265.648,208.744 265.982,207.577 266.5,206.5 Z"/></g>
<g><path style="opacity:1" fill="#5487dd" d="M 282.5,206.5 C 283.947,207.134 284.613,208.301 284.5,210C 284.612,211.662 283.946,212.829 282.5,213.5C 281.286,211.141 281.286,208.808 282.5,206.5 Z"/></g>
<g><path style="opacity:1" fill="#6a96e2" d="M 293.5,206.5 C 297.31,207.754 297.31,208.754 293.5,209.5C 293.5,208.5 293.5,207.5 293.5,206.5 Z"/></g>
<g><path style="opacity:1" fill="#f0f4fc" d="M 350.5,205.5 C 352.144,205.286 353.644,205.62 355,206.5C 355.769,209.099 355.602,211.599 354.5,214C 352.888,214.72 351.388,214.554 350,213.5C 349.278,210.739 349.445,208.073 350.5,205.5 Z"/></g>
<g><path style="opacity:1" fill="#628fe0" d="M 351.5,206.5 C 352.725,207.152 353.392,208.319 353.5,210C 352.709,214.448 351.709,214.448 350.5,210C 350.648,208.744 350.982,207.577 351.5,206.5 Z"/></g>
<g><path style="opacity:1" fill="#5487dd" d="M 367.5,206.5 C 368.947,207.134 369.613,208.301 369.5,210C 369.612,211.662 368.946,212.829 367.5,213.5C 366.286,211.141 366.286,208.808 367.5,206.5 Z"/></g>
<g><path style="opacity:1" fill="#6a96e2" d="M 378.5,206.5 C 382.31,207.754 382.31,208.754 378.5,209.5C 378.5,208.5 378.5,207.5 378.5,206.5 Z"/></g>
<g><path style="opacity:1" fill="#e5ecfa" d="M 185.5,205.5 C 190.213,205.468 191.713,207.801 190,212.5C 188.507,214.56 186.674,214.893 184.5,213.5C 183.025,210.557 183.358,207.891 185.5,205.5 Z"/></g>
<g><path style="opacity:1" fill="#5989de" d="M 186.5,206.5 C 187.993,207.312 188.66,208.645 188.5,210.5C 187.382,214.299 186.382,214.132 185.5,210C 185.648,208.744 185.982,207.577 186.5,206.5 Z"/></g>
<g><path style="opacity:1" fill="#e5ecfa" d="M 273.5,205.5 C 278.213,205.468 279.713,207.801 278,212.5C 276.084,215.033 274.084,215.033 272,212.5C 271.167,209.829 271.667,207.496 273.5,205.5 Z"/></g>
<g><path style="opacity:1" fill="#598ade" d="M 274.5,206.5 C 275.993,207.312 276.66,208.645 276.5,210.5C 275.382,214.299 274.382,214.132 273.5,210C 273.648,208.744 273.982,207.577 274.5,206.5 Z"/></g>
<g><path style="opacity:1" fill="#e5ecfa" d="M 358.5,205.5 C 363.213,205.468 364.713,207.801 363,212.5C 361.507,214.56 359.674,214.893 357.5,213.5C 356.025,210.557 356.358,207.891 358.5,205.5 Z"/></g>
<g><path style="opacity:1" fill="#5989de" d="M 359.5,206.5 C 360.993,207.312 361.66,208.645 361.5,210.5C 360.382,214.299 359.382,214.132 358.5,210C 358.648,208.744 358.982,207.577 359.5,206.5 Z"/></g>
<g><path style="opacity:1" fill="#eaf0fb" d="M 342.5,205.5 C 348.328,206.297 348.995,208.797 344.5,213C 345.5,213.333 346.5,213.667 347.5,214C 345.741,214.798 344.074,214.631 342.5,213.5C 343.935,212.071 344.935,210.405 345.5,208.5C 345.167,207.833 344.833,207.167 344.5,206.5C 342.114,207.988 341.448,207.655 342.5,205.5 Z"/></g>
<g><path style="opacity:1" fill="#d5e0f6" d="M 177.5,205.5 C 177.16,207.548 177.493,208.548 178.5,208.5C 182.071,208.408 183.238,210.074 182,213.5C 180.186,214.76 178.353,214.76 176.5,213.5C 177.391,212.41 178.391,212.41 179.5,213.5C 180.386,212.675 180.719,211.675 180.5,210.5C 179.167,210.5 177.833,210.5 176.5,210.5C 176.216,208.585 176.549,206.919 177.5,205.5 Z"/></g>
</svg>
