<svg width="56" height="56" viewBox="0 0 56 56" fill="none" xmlns="http://www.w3.org/2000/svg">
<path d="M0 12C0 5.37258 5.37258 0 12 0H44C50.6274 0 56 5.37258 56 12V44C56 50.6274 50.6274 56 44 56H12C5.37258 56 0 50.6274 0 44V12Z" fill="#EDF0F2"/>
<path d="M27.4334 16.4422C27.7977 16.2971 28.2025 16.2971 28.5667 16.4422C29.7409 16.9098 29.9703 18.7104 31.3556 18.8106C32.3312 18.8812 33.2885 18.0679 34.2675 18.3117C34.6623 18.4101 35.0034 18.6618 35.2171 19.0127C35.8718 20.088 35.0268 21.6685 36.0948 22.5607C36.8367 23.1803 38.0627 23.1001 38.7078 23.8597C38.9794 24.1796 39.1128 24.5969 39.0779 25.0177C38.9747 26.2695 37.3788 27.0522 37.7295 28.4013C37.9722 29.3351 38.9962 29.9915 39.0779 30.9824C39.1128 31.4032 38.9794 31.8205 38.7078 32.1404C37.8971 33.0948 36.1444 32.7805 35.639 34.0739C35.284 34.9818 35.7397 36.129 35.2171 36.9873C35.0034 37.3383 34.6623 37.59 34.2675 37.6884C33.052 37.991 31.8182 36.6853 30.6485 37.4218C29.8134 37.9475 29.5142 39.1807 28.5667 39.5579C28.2025 39.703 27.7977 39.703 27.4334 39.5579C26.486 39.1807 26.1867 37.9475 25.3516 37.4218C24.1964 36.6945 22.9276 37.9859 21.7326 37.6884C21.3378 37.59 20.9968 37.3383 20.7831 36.9873C20.1284 35.9121 20.9733 34.3316 19.9054 33.4394C19.1635 32.8197 17.9375 32.9001 17.2925 32.1404C17.0208 31.8205 16.8874 31.4032 16.9222 30.9824C17.0041 29.9915 18.0279 29.3351 18.2707 28.4013C18.6178 27.0663 17.0241 26.2511 16.9222 25.0177C16.8874 24.5969 17.0208 24.1796 17.2925 23.8597C18.103 22.905 19.8556 23.2197 20.3612 21.9262C20.7161 21.0182 20.2605 19.871 20.7831 19.0127C20.9968 18.6618 21.3378 18.4101 21.7326 18.3117C22.7116 18.0679 23.6689 18.8812 24.6445 18.8106C26.0299 18.7104 26.2593 16.9098 27.4334 16.4422Z" stroke="#6F7C8E" stroke-width="2" stroke-linejoin="round"/>
<path d="M24.5 29.5556C24.5 29.5556 25.5208 29.5556 26.5417 31.5001C26.5417 31.5001 29.7843 26.6389 32.6667 25.6667" stroke="#6F7C8E" stroke-width="1.5" stroke-linecap="round" stroke-linejoin="round"/>
</svg>
