<svg width="56" height="56" viewBox="0 0 56 56" fill="none" xmlns="http://www.w3.org/2000/svg">
<path d="M0 12C0 5.37258 5.37258 0 12 0H44C50.6274 0 56 5.37258 56 12V44C56 50.6274 50.6274 56 44 56H12C5.37258 56 0 50.6274 0 44V12Z" fill="#BEFEC7"/>
<path d="M25.6668 18.6667C25.6668 17.378 26.7115 16.3334 28.0002 16.3334H29.1668C30.4555 16.3334 31.5002 17.378 31.5002 18.6667V21.6456C31.5002 23.1771 32.4958 24.5307 33.9577 24.9868L34.8759 25.2733C36.3379 25.7294 37.3335 27.083 37.3335 28.6144V30.3334C37.3335 30.9777 36.8112 31.5 36.1668 31.5H21.0002C20.3558 31.5 19.8335 30.9777 19.8335 30.3334V28.6144C19.8335 27.083 20.8291 25.7294 22.2911 25.2733L23.2093 24.9868C24.6712 24.5307 25.6668 23.1771 25.6668 21.6456V18.6667Z" stroke="#00A81C" stroke-width="2"/>
<path d="M21.0026 31.5C21.1844 33.0262 20.4117 36.7654 18.6667 39.5125C18.6667 39.5125 30.6746 40.9026 32.2994 34.9339V37.1831C32.2994 38.2812 32.2994 38.8302 32.6415 39.1714C33.2992 39.8273 36.3874 39.8453 37.0461 39.1441C37.3923 38.7756 37.3575 38.2455 37.288 37.1853C37.1735 35.437 36.8588 33.1985 35.9944 31.5" stroke="#00A81C" stroke-width="2" stroke-linecap="round" stroke-linejoin="round"/>
</svg>
