<svg width="56" height="56" viewBox="0 0 56 56" fill="none" xmlns="http://www.w3.org/2000/svg">
<path d="M0 12C0 5.37258 5.37258 0 12 0H44C50.6274 0 56 5.37258 56 12V44C56 50.6274 50.6274 56 44 56H12C5.37258 56 0 50.6274 0 44V12Z" fill="#F0DBFF"/>
<path d="M18.6667 26.8334V31.5C18.6667 35.3498 18.6667 37.2747 19.8627 38.4707C21.0587 39.6667 22.9836 39.6667 26.8334 39.6667H29.1667C33.0166 39.6667 34.9415 39.6667 36.1374 38.4707C37.3334 37.2747 37.3334 35.3498 37.3334 31.5V26.8334" stroke="#9F1FF4" stroke-width="2" stroke-linecap="round" stroke-linejoin="round"/>
<path d="M17.5 24.5001C17.5 23.6278 17.5 23.1916 17.7345 22.8667C17.8881 22.6539 18.109 22.4772 18.375 22.3543C18.7811 22.1667 19.3263 22.1667 20.4167 22.1667H35.5833C36.6737 22.1667 37.2189 22.1667 37.625 22.3543C37.891 22.4772 38.1119 22.6539 38.2655 22.8667C38.5 23.1916 38.5 23.6278 38.5 24.5001C38.5 25.3724 38.5 25.8085 38.2655 26.1334C38.1119 26.3462 37.891 26.523 37.625 26.6458C37.2189 26.8334 36.6737 26.8334 35.5833 26.8334H20.4167C19.3263 26.8334 18.7811 26.8334 18.375 26.6458C18.109 26.523 17.8881 26.3462 17.7345 26.1334C17.5 25.8085 17.5 25.3724 17.5 24.5001Z" stroke="#9F1FF4" stroke-width="1.5" stroke-linejoin="round"/>
<path d="M21 18.4167C21 17.2661 21.9327 16.3334 23.0833 16.3334H23.5C25.9853 16.3334 28 18.3481 28 20.8334V22.1667H24.75C22.6789 22.1667 21 20.4878 21 18.4167Z" stroke="#9F1FF4" stroke-width="1.5" stroke-linejoin="round"/>
<path d="M35 18.4167C35 17.2661 34.0673 16.3334 32.9167 16.3334H32.5C30.0147 16.3334 28 18.3481 28 20.8334V22.1667H31.25C33.3211 22.1667 35 20.4878 35 18.4167Z" stroke="#9F1FF4" stroke-width="1.5" stroke-linejoin="round"/>
<path d="M28 26.8334L28 39.6667" stroke="#9F1FF4" stroke-width="1.5" stroke-linecap="round" stroke-linejoin="round"/>
</svg>
