<svg width="56" height="56" viewBox="0 0 56 56" fill="none" xmlns="http://www.w3.org/2000/svg">
<path d="M0 12C0 5.37258 5.37258 0 12 0H44C50.6274 0 56 5.37258 56 12V44C56 50.6274 50.6274 56 44 56H12C5.37258 56 0 50.6274 0 44V12Z" fill="#FFED9E"/>
<path fill-rule="evenodd" clip-rule="evenodd" d="M31.6394 16.5204L28 13L24.3606 16.5204L19.3479 15.811L18.4725 20.7971L14 23.1711L16.2237 27.7204L14 32.268L18.4725 34.6421L19.3479 39.6282L24.3606 38.9204L28 42.4407L31.6394 38.9204L36.6521 39.6282L37.5275 34.6421L42 32.268L39.7763 27.7204L42 23.1711L37.5275 20.7971L36.6521 15.811L31.6394 16.5204ZM20.5365 28.3828L25.9047 33.751L34.8042 24.0324L32.6949 22.0796L25.8045 29.5886L22.5597 26.3438L20.5365 28.3828Z" fill="url(#paint0_linear_2_15607)"/>
<path fill-rule="evenodd" clip-rule="evenodd" d="M31.2919 17.5941L28.0018 14.4104L24.7116 17.5941L20.1781 16.952L19.3873 21.4621L15.3423 23.6075L17.353 27.7214L15.3423 31.8352L19.3873 33.9806L20.1781 38.4907L24.7116 37.8487L28.0018 41.0323L31.2919 37.8487L35.8255 38.4907L36.6163 33.9806L40.6613 31.8352L38.6506 27.7214L40.6613 23.6075L36.6163 21.4621L35.8255 16.952L31.2919 17.5941ZM20.5367 28.3838L25.9065 33.752L34.806 24.0334L32.6966 22.0806L25.8063 29.5896L22.5615 26.3449L20.5367 28.3838Z" fill="url(#paint1_linear_2_15607)"/>
<path fill-rule="evenodd" clip-rule="evenodd" d="M20.5362 28.381L25.906 33.7493L34.7539 24.0871L34.8134 24.0354L34.8055 26.2247L25.906 35.9432L20.5362 30.5734L20.5315 28.3732L20.5393 28.3779L20.5362 28.381Z" fill="#D18800"/>
<defs>
<linearGradient id="paint0_linear_2_15607" x1="17.6817" y1="14.4016" x2="39.0919" y2="44.1758" gradientUnits="userSpaceOnUse">
<stop stop-color="#F4E72A"/>
<stop offset="0.539" stop-color="#CD8105"/>
<stop offset="0.68" stop-color="#CB7B00"/>
<stop offset="1" stop-color="#F4E72A"/>
</linearGradient>
<linearGradient id="paint1_linear_2_15607" x1="19.1617" y1="15.812" x2="36.3971" y2="40.4576" gradientUnits="userSpaceOnUse">
<stop stop-color="#F9E87F"/>
<stop offset="0.406" stop-color="#E2B719"/>
<stop offset="0.989" stop-color="#E2B719"/>
</linearGradient>
</defs>
</svg>
