<svg width="56" height="56" viewBox="0 0 56 56" fill="none" xmlns="http://www.w3.org/2000/svg">
<path d="M0 12C0 5.37258 5.37258 0 12 0H44C50.6274 0 56 5.37258 56 12V44C56 50.6274 50.6274 56 44 56H12C5.37258 56 0 50.6274 0 44V12Z" fill="#FFDEE0"/>
<path d="M16.3333 28.5833C16.3333 27.2947 17.3779 26.25 18.6666 26.25C20.5996 26.25 22.1666 27.817 22.1666 29.75V34.4167C22.1666 36.3497 20.5996 37.9167 18.6666 37.9167C17.3779 37.9167 16.3333 36.872 16.3333 35.5833V28.5833Z" stroke="#DF0C3D" stroke-width="2" stroke-linecap="round" stroke-linejoin="round"/>
<path d="M32.0584 23.1073L31.7477 24.1108C31.4931 24.933 31.3658 25.3441 31.4637 25.6688C31.5429 25.9315 31.7168 26.1579 31.9537 26.3069C32.2465 26.491 32.6895 26.491 33.5755 26.491H34.0468C37.0452 26.491 38.5444 26.491 39.2525 27.3786C39.3334 27.48 39.4054 27.5879 39.4677 27.701C40.0124 28.6909 39.3931 30.0244 38.1545 32.6913C37.0178 35.1387 36.4495 36.3624 35.3942 37.0827C35.292 37.1525 35.1871 37.2182 35.0795 37.2799C33.9686 37.9167 32.592 37.9167 29.839 37.9167H29.2419C25.9065 37.9167 24.2388 37.9167 23.2027 36.9128C22.1665 35.9088 22.1665 34.293 22.1665 31.0613V29.9254C22.1665 28.2271 22.1665 27.378 22.4679 26.6007C22.7693 25.8235 23.3464 25.1845 24.5006 23.9063L29.274 18.6207C29.3937 18.4881 29.4535 18.4218 29.5063 18.3759C29.999 17.9472 30.7593 17.9955 31.19 18.4828C31.2361 18.535 31.2865 18.6083 31.3874 18.7548C31.5451 18.9841 31.624 19.0987 31.6927 19.2123C32.3081 20.229 32.4943 21.4368 32.2124 22.5834C32.181 22.7114 32.1401 22.8435 32.0584 23.1073Z" stroke="#DF0C3D" stroke-width="2" stroke-linecap="round" stroke-linejoin="round"/>
</svg>
