<svg width="56" height="56" viewBox="0 0 56 56" fill="none" xmlns="http://www.w3.org/2000/svg">
<path d="M0 12C0 5.37258 5.37258 0 12 0H44C50.6274 0 56 5.37258 56 12V44C56 50.6274 50.6274 56 44 56H12C5.37258 56 0 50.6274 0 44V12Z" fill="#E0EDFF"/>
<path d="M36.7062 18.6598C33.5777 16.7408 30.847 17.5141 29.2067 18.746C28.5341 19.2511 28.1978 19.5037 27.9999 19.5037C27.8021 19.5037 27.4658 19.2511 26.7932 18.746L26.7932 18.746C25.1528 17.5141 22.4222 16.7408 19.2936 18.6598C15.1877 21.1784 14.2586 29.4873 23.7294 36.4972C25.5333 37.8324 26.4352 38.5 27.9999 38.5C29.5646 38.5 30.4666 37.8324 32.2705 36.4972C41.7412 29.4873 40.8122 21.1784 36.7062 18.6598Z" stroke="#3348FF" stroke-width="2" stroke-linecap="round"/>
</svg>
