<svg width="56" height="56" viewBox="0 0 56 56" fill="none" xmlns="http://www.w3.org/2000/svg">
<path d="M0 12C0 5.37258 5.37258 0 12 0H44C50.6274 0 56 5.37258 56 12V44C56 50.6274 50.6274 56 44 56H12C5.37258 56 0 50.6274 0 44V12Z" fill="#F0DBFF"/>
<path d="M19.8333 24.5C19.8333 20.6502 19.8333 18.7253 21.0292 17.5294C22.2252 16.3334 24.1501 16.3334 27.9999 16.3334C31.8497 16.3334 33.7746 16.3334 34.9706 17.5294C36.1666 18.7253 36.1666 20.6502 36.1666 24.5V31.5C36.1666 35.3498 36.1666 37.2747 34.9706 38.4707C33.7746 39.6667 31.8497 39.6667 27.9999 39.6667C24.1501 39.6667 22.2252 39.6667 21.0292 38.4707C19.8333 37.2747 19.8333 35.3498 19.8333 31.5V24.5Z" stroke="#9F1FF4" stroke-width="2" stroke-linecap="round"/>
<path d="M26.8333 36.1667H29.1666" stroke="#9F1FF4" stroke-width="2" stroke-linecap="round" stroke-linejoin="round"/>
<path d="M24.5 16.3334L24.6038 16.9564C24.8289 18.3065 24.9414 18.9816 25.4044 19.3924C25.8874 19.8209 26.5722 19.8334 28 19.8334C29.4278 19.8334 30.1126 19.8209 30.5956 19.3924C31.0586 18.9816 31.1711 18.3065 31.3962 16.9564L31.5 16.3334" stroke="#9F1FF4" stroke-width="1.5" stroke-linejoin="round"/>
</svg>
