<svg width="56" height="56" viewBox="0 0 56 56" fill="none" xmlns="http://www.w3.org/2000/svg">
<path d="M0 12C0 5.37258 5.37258 0 12 0H44C50.6274 0 56 5.37258 56 12V44C56 50.6274 50.6274 56 44 56H12C5.37258 56 0 50.6274 0 44V12Z" fill="#E0EDFF"/>
<path d="M22.5795 35C20.1026 35 18.8641 35 17.9823 34.4713C17.406 34.1258 16.9418 33.6316 16.6421 33.0449C16.1837 32.1472 16.3069 30.9602 16.5534 28.5863C16.7591 26.6045 16.862 25.6137 17.3679 24.886C17.7 24.4082 18.1493 24.0166 18.6759 23.7458C19.478 23.3334 20.5118 23.3334 22.5795 23.3334H33.4203C35.488 23.3334 36.5219 23.3334 37.324 23.7458C37.8506 24.0166 38.2998 24.4082 38.6319 24.886C39.1378 25.6137 39.2407 26.6045 39.4465 28.5863C39.6929 30.9602 39.8162 32.1472 39.3577 33.0449C39.0581 33.6316 38.5938 34.1258 38.0175 34.4713C37.1358 35 35.8973 35 33.4203 35" stroke="#3348FF" stroke-width="2"/>
<path d="M33.8332 23.3334V21C33.8332 18.8002 33.8332 17.7002 33.1498 17.0168C32.4663 16.3334 31.3664 16.3334 29.1665 16.3334H26.8332C24.6333 16.3334 23.5333 16.3334 22.8499 17.0168C22.1665 17.7002 22.1665 18.8002 22.1665 21V23.3334" stroke="#3348FF" stroke-width="2" stroke-linejoin="round"/>
<path d="M30.32 32.6667L25.6797 32.6667C24.8802 32.6667 24.4804 32.6667 24.1403 32.7938C23.6868 32.9631 23.2985 33.292 23.0371 33.7283C22.841 34.0555 22.7441 34.4763 22.5501 35.3179C22.2472 36.6328 22.0957 37.2903 22.1987 37.8175C22.3361 38.5203 22.7643 39.1154 23.3594 39.4304C23.8058 39.6667 24.4304 39.6667 25.6797 39.6667L30.32 39.6667C31.5692 39.6667 32.1939 39.6668 32.6402 39.4304C33.2354 39.1154 33.6636 38.5203 33.801 37.8175C33.904 37.2903 33.7525 36.6328 33.4495 35.3179C33.2556 34.4763 33.1587 34.0555 32.9626 33.7283C32.7012 33.292 32.3129 32.9631 31.8594 32.7938C31.5192 32.6667 31.1195 32.6667 30.32 32.6667Z" stroke="#3348FF" stroke-width="1.5" stroke-linejoin="round"/>
<path d="M35 28H35.0105" stroke="#3348FF" stroke-width="2" stroke-linecap="round" stroke-linejoin="round"/>
</svg>
