<svg width="56" height="56" viewBox="0 0 56 56" fill="none" xmlns="http://www.w3.org/2000/svg">
<rect x="4" y="4" width="48" height="48" rx="24" fill="#D1EBFA"/>
<rect x="4" y="4" width="48" height="48" rx="24" stroke="#ECF9FD" stroke-width="8"/>
<path d="M16.5 25.21L27.23 38.0799C27.3239 38.1923 27.4412 38.2827 27.5739 38.3447C27.7065 38.4067 27.8511 38.4389 27.9975 38.4389C28.1439 38.4389 28.2885 38.4067 28.4212 38.3447C28.5538 38.2827 28.6712 38.1923 28.765 38.0799L39.5 25.21H16.5Z" fill="#299ACC"/>
<path d="M34.3 17.71H21.7C21.3379 17.7096 20.9824 17.8075 20.6715 17.9933C20.3607 18.1791 20.1061 18.4458 19.935 18.765L16.5 25.21H39.5L36.065 18.765C35.8939 18.4458 35.6393 18.1791 35.3285 17.9933C35.0176 17.8075 34.6622 17.7096 34.3 17.71Z" fill="#38B1E7"/>
<path d="M27.04 37.69L23.5 25.21H32.5L28.96 37.71C28.8973 37.9171 28.7691 38.0983 28.5946 38.2263C28.4202 38.3544 28.2089 38.4224 27.9925 38.4201C27.7761 38.4179 27.5663 38.3455 27.3945 38.2138C27.2228 38.0822 27.0984 37.8984 27.04 37.69Z" fill="#61C0EA"/>
<path d="M32.5 25.21H23.5L23 17.71H33L32.5 25.21Z" fill="#89D0EF"/>
</svg>
