<svg width="56" height="56" viewBox="0 0 56 56" fill="none" xmlns="http://www.w3.org/2000/svg">
<path d="M0 12C0 5.37258 5.37258 0 12 0H44C50.6274 0 56 5.37258 56 12V44C56 50.6274 50.6274 56 44 56H12C5.37258 56 0 50.6274 0 44V12Z" fill="#B3F8EB"/>
<path d="M30.0155 18.0182L32.0686 22.1584C32.3486 22.7347 33.0952 23.2875 33.7251 23.3934L37.4463 24.0168C39.8261 24.4167 40.386 26.1574 38.6712 27.8746L35.7782 30.7915C35.2882 31.2855 35.0199 32.2382 35.1716 32.9204L35.9998 36.5313C36.6531 39.3894 35.1483 40.495 32.6402 39.0013L29.1523 36.9194C28.5223 36.543 27.4841 36.543 26.8425 36.9194L23.3546 39.0013C20.8582 40.495 19.3417 39.3776 19.9949 36.5313L20.8232 32.9204C20.9748 32.2382 20.7065 31.2855 20.2166 30.7915L17.3236 27.8746C15.6204 26.1574 16.1687 24.4167 18.5484 24.0168L22.2697 23.3934C22.8879 23.2875 23.6345 22.7347 23.9145 22.1584L25.9676 18.0182C27.0875 15.7717 28.9073 15.7717 30.0155 18.0182Z" stroke="#00ABAB" stroke-width="2" stroke-linecap="round" stroke-linejoin="round"/>
</svg>
