<svg width="25" height="24" viewBox="0 0 25 24" fill="none" xmlns="http://www.w3.org/2000/svg">
<path d="M19.4666 9.86668V5.06668C19.4666 3.88848 18.5114 2.93335 17.3332 2.93335H4.53324C3.35503 2.93335 2.3999 3.88848 2.3999 5.06668V13.4145C2.3999 14.5927 3.35503 15.5478 4.53324 15.5478H6.2028V20L10.655 15.5478H10.9332M16.4405 18.2841L19.2231 21.0667V18.2841H19.4666C20.6448 18.2841 21.5999 17.3289 21.5999 16.1507V12.5333C21.5999 11.3551 20.6448 10.4 19.4666 10.4H13.0666C11.8884 10.4 10.9332 11.3551 10.9332 12.5333V16.1507C10.9332 17.3289 11.8884 18.2841 13.0666 18.2841H16.4405Z" stroke="#212121" stroke-width="2" stroke-linecap="round" stroke-linejoin="round"/>
</svg>
