<svg width="16" height="16" viewBox="0 0 16 16" fill="none" xmlns="http://www.w3.org/2000/svg">
<mask id="mask0_683_11911" style="mask-type:luminance" maskUnits="userSpaceOnUse" x="0" y="0" width="16" height="16">
<path d="M15.9091 0H0V15.9091H15.9091V0Z" fill="white"/>
</mask>
<g mask="url(#mask0_683_11911)">
<path d="M7.92095 15.9063H7.98437C11.1431 15.9063 12.9766 15.5883 14.2753 14.3274C15.5996 12.9899 15.9054 11.144 15.9054 7.99762V7.90865C15.9054 4.76317 15.5996 2.92966 14.2753 1.57889C12.9775 0.31805 11.1308 0 7.98532 0H7.9219C4.76318 0 2.9287 0.31805 1.63001 1.57889C0.305745 2.9164 0 4.76317 0 7.90865V7.99762C0 11.1431 0.305745 12.9767 1.63001 14.3274C2.91641 15.5883 4.76318 15.9063 7.92095 15.9063Z" fill="#212121"/>
<path d="M14.0119 7.83253C14.0119 7.77195 13.9627 7.7218 13.9021 7.71896C11.7281 7.63661 10.405 7.35931 9.47938 6.43367C8.55183 5.50616 8.27546 4.18207 8.19312 2.00334C8.19123 1.94277 8.14106 1.89355 8.07954 1.89355H7.8259C7.76533 1.89355 7.71516 1.94277 7.71233 2.00334C7.62998 4.18112 7.35362 5.50616 6.4261 6.43367C5.49953 7.36025 4.17733 7.63661 2.00334 7.71896C1.94277 7.72085 1.89355 7.77101 1.89355 7.83253V8.08618C1.89355 8.14675 1.94277 8.19691 2.00334 8.19975C4.17733 8.28209 5.50047 8.5594 6.4261 9.48503C7.35172 10.4107 7.62809 11.731 7.71138 13.9011C7.71327 13.9617 7.76343 14.011 7.82495 14.011H8.07954C8.14012 14.011 8.19028 13.9617 8.19312 13.9011C8.27641 11.731 8.55277 10.4107 9.47844 9.48503C10.405 8.55845 11.7271 8.28209 13.9012 8.19975C13.9617 8.19786 14.011 8.1477 14.011 8.08618V7.83253H14.0119Z" fill="white"/>
</g>
</svg>
