<svg width="90" height="24" viewBox="0 0 90 24" fill="none" xmlns="http://www.w3.org/2000/svg">
<path d="M14.2081 12.2813C14.2081 9.549 16.3778 8.26313 16.4552 8.1828C15.6029 6.81659 14.1307 6.01299 12.581 6.01299C11.0314 5.85224 9.40423 6.97735 8.62935 6.97735C7.77702 6.97735 6.53729 6.01299 5.14264 6.01299C3.36051 6.01299 1.73329 7.05768 0.881046 8.74531C-0.978547 12.0402 0.416102 16.9424 2.19824 19.5945C3.05057 20.8803 4.13529 22.3268 5.45257 22.3268C6.76976 22.2465 7.31217 21.4429 8.86183 21.4429C10.4889 21.4429 10.9539 22.3268 12.2711 22.2465C13.6658 22.2465 14.5956 20.9607 15.4479 19.5945C16.4552 18.0676 16.9201 16.621 16.9201 16.5407C16.9201 16.5407 14.2081 15.4959 14.2081 12.2813ZM11.5738 4.24494C12.3485 3.28059 12.736 2.07514 12.6585 0.789307C11.6512 0.869676 10.334 1.51258 9.55915 2.39656C8.86182 3.20025 8.31942 4.48603 8.47443 5.69148C9.63661 5.85224 10.7989 5.12897 11.5738 4.24494Z" fill="#212121"/>
<path d="M26.1759 5.36513C27.2417 5.36513 28.0246 4.72756 28.0221 3.86059C28.0246 3.20014 27.6243 2.72593 26.9307 2.61882V2.57796C27.4764 2.43777 27.8309 2.00933 27.8283 1.42287C27.8309 0.655334 27.201 0 26.1963 0C25.2375 0 24.4675 0.578837 24.442 1.42797H25.2043C25.2222 0.948578 25.6736 0.65789 26.1861 0.65789C26.7191 0.65789 27.0684 0.98173 27.0658 1.46367C27.0684 1.96857 26.6629 2.30009 26.0841 2.30009H25.643V2.94265H26.0841C26.8083 2.94265 27.2265 3.30984 27.2265 3.83511C27.2265 4.34258 26.7853 4.6868 26.1708 4.6868C25.6047 4.6868 25.1636 4.39614 25.133 3.93203H24.3323C24.3654 4.78371 25.1202 5.36513 26.1759 5.36513Z" fill="#212121"/>
<path d="M30.1359 5.38037C30.7836 5.38037 31.1482 5.05144 31.2936 4.75819H31.3242V5.29364H32.0688V2.69271C32.0688 1.55287 31.1712 1.32593 30.549 1.32593C29.8401 1.32593 29.1874 1.61152 28.9324 2.32552L29.6489 2.48869C29.7611 2.21072 30.0467 1.94304 30.5592 1.94304C31.0513 1.94304 31.3038 2.20053 31.3038 2.64426V2.66214C31.3038 2.94001 31.0183 2.93492 30.3144 3.01655C29.5724 3.10327 28.8125 3.29701 28.8125 4.18697C28.8125 4.95703 29.3913 5.38037 30.1359 5.38037ZM30.3017 4.76838C29.8707 4.76838 29.5597 4.57455 29.5597 4.19716C29.5597 3.7892 29.9218 3.64382 30.3629 3.58517C30.6102 3.552 31.1967 3.48575 31.3063 3.37605V3.88102C31.3063 4.34504 30.9366 4.76838 30.3017 4.76838Z" fill="#212121"/>
<path d="M35.5886 1.37695H33.0845V5.29367H33.8367V2.0348H35.5886V1.37695Z" fill="#212121"/>
<path d="M36.3943 6.76242H37.1567V4.68425H37.2026C37.3403 4.93414 37.6209 5.37018 38.3349 5.37018C39.2834 5.37018 39.9719 4.61022 39.9719 3.34297C39.9719 2.07304 39.2732 1.32593 38.3272 1.32593C37.6005 1.32593 37.3378 1.76962 37.2026 2.01188H37.1389V1.37693H36.3943V6.76242ZM37.1415 3.33528C37.1415 2.51676 37.4985 1.97362 38.164 1.97362C38.855 1.97362 39.2018 2.55753 39.2018 3.33528C39.2018 4.12063 38.8448 4.71992 38.164 4.71992C37.5086 4.71992 37.1415 4.15889 37.1415 3.33528Z" fill="#212121"/>
<path d="M41.1676 6.76244C41.7975 6.76244 42.1953 6.43352 42.4222 5.81643L44.0414 1.38461L43.2178 1.37695L42.2259 4.4165H42.1851L41.1931 1.37695H40.3772L41.8102 5.34463L41.7159 5.60481C41.5221 6.12498 41.2493 6.16834 40.831 6.05354L40.6475 6.67831C40.7393 6.71908 40.9381 6.76244 41.1676 6.76244Z" fill="#212121"/>
<path d="M44.5281 4.25841C44.551 4.94174 45.191 5.37268 46.0606 5.37268C46.9531 5.37268 47.5982 4.92386 47.5982 4.20485C47.5982 3.69478 47.2743 3.3174 46.8205 3.28682V3.24605C47.231 3.12875 47.514 2.85338 47.514 2.42244C47.514 1.77982 46.9632 1.32593 46.0912 1.32593C45.2548 1.32593 44.6403 1.77217 44.6249 2.43004H45.3951C45.4103 2.13678 45.7138 1.93285 46.1294 1.93285C46.5399 1.93285 46.7796 2.14697 46.7796 2.46571C46.7796 2.76406 46.5655 2.98338 46.1345 2.98338H45.4971V3.58267H46.1345C46.568 3.58267 46.8459 3.82237 46.8459 4.17678C46.8459 4.57714 46.4915 4.75819 46.0529 4.75819C45.622 4.75819 45.3313 4.57964 45.3083 4.25841H44.5281Z" fill="#212121"/>
<path d="M49.1326 4.22526V1.37695H48.3855V5.29367H49.2142L50.9329 2.44285V5.29367H51.68V1.37695H50.8589L49.1326 4.22526Z" fill="#212121"/>
<path d="M52.2192 2.0348H53.5019V5.29367H54.2464V2.0348H55.5241V1.37695H52.2192V2.0348Z" fill="#212121"/>
<path d="M57.0778 2.72332V1.37695H56.3301V5.29367H58.0414C59.0004 5.29367 59.536 4.73774 59.536 4.00085C59.536 3.24858 59.0004 2.72332 58.0414 2.72332H57.0778ZM57.0778 3.38117H58.0414C58.4797 3.38117 58.7938 3.64644 58.7938 4.02383C58.7938 4.38083 58.4797 4.63582 58.0414 4.63582H57.0778V3.38117Z" fill="#212121"/>
<path d="M62.2905 5.29367H64.1622C65.0192 5.29367 65.5214 4.86014 65.5214 4.23796C65.5214 3.65664 65.0748 3.29964 64.5522 3.23839C65.0341 3.14666 65.3528 2.88139 65.3528 2.42247C65.3528 1.77985 64.7978 1.37695 63.9148 1.37695H62.2905V5.29367ZM63.0077 4.6562V3.56732H64.1622C64.5402 3.56732 64.7663 3.78923 64.7663 4.15383C64.7663 4.46496 64.5402 4.6562 64.1622 4.6562H63.0077ZM63.0077 3.00888V2.0221H63.9148C64.3484 2.0221 64.6115 2.20315 64.6115 2.504C64.6115 2.81764 64.3512 3.00888 63.9231 3.00888H63.0077Z" fill="#212121"/>
<path d="M33.5528 19.8214H31.6932L30.6859 16.5265H27.1217L26.1144 19.8214H24.3323L27.8965 8.57043H30.0661L33.5528 19.8214ZM30.376 15.0799L29.4462 12.1869L28.9038 10.0974L28.3614 12.1869L27.4316 15.0799H30.376ZM42.6184 15.6425C42.6958 16.848 42.3084 18.0534 41.5337 18.9375C40.9138 19.6607 40.0615 19.9821 39.1317 19.9821C38.1243 19.9821 37.3495 19.5803 36.8846 18.857V23.1163H35.1025V14.3567L35.025 11.7047H36.5746L36.6522 12.9905C37.1945 12.0261 38.2019 11.4636 39.2866 11.5439C40.2164 11.5439 40.9913 11.9458 41.6111 12.669C42.3084 13.4726 42.6958 14.5174 42.6184 15.6425ZM40.8362 15.7229C40.8362 14.9192 40.6813 14.2763 40.2939 13.7942C39.9064 13.2316 39.4416 12.9905 38.7443 12.9905C38.2793 12.9905 37.8919 13.1512 37.582 13.3923C37.1945 13.7137 37.0396 14.0352 36.8846 14.5174L36.8071 15.0799V16.4461C36.8071 17.0087 36.9621 17.4908 37.3495 17.9731C37.7369 18.3749 38.1243 18.6159 38.7443 18.6159C39.3641 18.6159 39.9064 18.3749 40.2939 17.8123C40.6813 17.1694 40.8362 16.4461 40.8362 15.7229ZM51.6065 15.6425C51.684 16.848 51.2966 18.0534 50.5217 18.9375C49.9018 19.6607 49.0495 19.9821 48.1197 19.9821C47.1124 19.9821 46.3376 19.5803 45.8727 18.857V23.1163H44.0906V14.3567L44.0131 11.7047H45.5628L45.7177 12.9905C46.2601 12.0261 47.2674 11.4636 48.3522 11.5439C49.282 11.5439 50.0568 11.9458 50.6767 12.669C51.2966 13.3923 51.6065 14.437 51.6065 15.6425ZM49.8244 15.7229C49.8244 14.9192 49.6694 14.2763 49.282 13.7942C48.8946 13.2316 48.4296 12.9905 47.7323 12.9905C47.2674 12.9905 46.88 13.1512 46.57 13.3923C46.1826 13.7137 46.0276 14.0352 45.8727 14.5174L45.7952 15.0799V16.4461C45.7952 17.0087 45.9502 17.4908 46.3376 17.9731C46.725 18.3749 47.1124 18.6159 47.7323 18.6159C48.3522 18.6159 48.8946 18.3749 49.282 17.8123C49.6694 17.2497 49.8244 16.6069 49.8244 15.7229ZM61.7569 16.6069C61.7569 17.5713 61.4465 18.3749 60.8266 18.9375C60.1299 19.5803 59.1227 19.9018 57.883 19.9018C56.7201 19.9018 55.7908 19.6607 55.0932 19.1785L55.4806 17.6516C56.255 18.1338 57.1074 18.3749 58.0377 18.3749C58.6576 18.3749 59.1996 18.2142 59.5869 17.8927C59.9751 17.5713 60.1299 17.1694 60.1299 16.6872C60.1299 16.2051 59.9751 15.8836 59.6647 15.5621C59.3553 15.2407 58.8901 14.9996 58.1924 14.6781C56.255 13.9548 55.3257 12.9101 55.3257 11.4636C55.3257 10.5796 55.6351 9.77597 56.3328 9.21337C57.0305 8.65086 57.883 8.32935 58.967 8.32935C59.9751 8.32935 60.7497 8.4901 61.4465 8.89195L60.9823 10.3385C60.3624 10.0171 59.5869 9.85631 58.8901 9.85631C58.2703 9.85631 57.8051 10.0171 57.4178 10.3385C57.1074 10.5796 56.9527 10.9814 56.9527 11.3832C56.9527 11.8654 57.1074 12.1869 57.4178 12.5083L58.967 13.3923C59.7426 13.7137 60.4393 14.1156 61.0592 14.7585C61.5243 15.2407 61.7569 15.8836 61.7569 16.6069ZM67.4904 13.0709H65.5539V17.0087C65.5539 17.9731 65.8634 18.5356 66.5611 18.5356L67.3357 18.4553L67.4135 19.8214C67.1031 19.9821 66.638 19.9821 66.0181 19.9821C65.3213 19.9821 64.7784 19.7411 64.3911 19.3392C64.0038 18.9375 63.7712 18.2142 63.7712 17.1694V13.0709H62.7641V11.7047H63.9259V10.2582L65.6308 9.69555V11.7047H67.5682V13.0709H67.4904ZM76.1685 15.6425C76.1685 16.848 75.859 17.8927 75.1613 18.6964C74.4636 19.5 73.4565 19.9018 72.2946 19.9018C71.1327 19.9018 70.2024 19.5 69.5047 18.6964C68.808 17.8927 68.4976 16.9283 68.4976 15.7229C68.4976 14.437 68.8849 13.4726 69.5826 12.669C70.2803 11.8654 71.2096 11.4636 72.4493 11.4636C73.6121 11.4636 74.5415 11.8654 75.2392 12.669C75.859 13.4726 76.1685 14.437 76.1685 15.6425ZM74.3867 15.7229C74.3867 14.9996 74.232 14.3567 73.9216 13.7942C73.5343 13.1512 73.0692 12.8298 72.3724 12.8298C71.6747 12.8298 71.1327 13.1512 70.7445 13.7942C70.435 14.3567 70.2803 14.9996 70.2803 15.7229C70.2803 16.4461 70.435 17.0891 70.7445 17.6516C71.1327 18.2945 71.6747 18.6159 72.2946 18.6159C72.9923 18.6159 73.4565 18.2945 73.8438 17.6516C74.232 17.1694 74.3867 16.4461 74.3867 15.7229ZM81.903 13.312L81.36 13.2316C80.818 13.2316 80.275 13.4726 79.9655 13.9548C79.6551 14.3567 79.5004 14.9192 79.5004 15.5621V19.8214H77.7186V14.2763L77.6408 11.7047H79.1909L79.2678 13.2316H79.3457C79.5004 12.7494 79.8108 12.2672 80.1981 11.9458C80.5854 11.6243 80.9727 11.5439 81.4378 11.5439H81.903V13.312ZM89.7286 15.4015L89.6508 16.2051H84.3824C84.3824 16.9283 84.614 17.5713 85.157 18.0534C85.6221 18.4553 86.1642 18.6159 86.8619 18.6159C87.6365 18.6159 88.3332 18.4553 88.9531 18.2142L89.2635 19.5C88.4111 19.8214 87.5586 19.9821 86.6293 19.9821C85.5443 20.0625 84.5371 19.6607 83.7625 18.857C83.0648 18.0534 82.6775 17.0087 82.7544 15.8836C82.7544 14.6781 83.0648 13.6334 83.7625 12.8298C84.3824 11.9458 85.3896 11.5439 86.4736 11.5439C87.6365 11.5439 88.4889 11.9458 89.0309 12.8298C89.496 13.4726 89.7286 14.3567 89.7286 15.4015ZM88.0238 14.9192C88.0238 14.437 87.9459 13.9548 87.7134 13.5531C87.4039 13.0709 86.8619 12.8298 86.3189 12.8298C85.7769 12.8298 85.3117 13.0709 84.9244 13.5531C84.614 13.9548 84.4593 14.437 84.3824 14.9192H88.0238Z" fill="#212121"/>
</svg>
