<svg width="80" height="23" viewBox="0 0 80 23" fill="none" xmlns="http://www.w3.org/2000/svg">
<mask id="mask0_3033_3870" style="mask-type:luminance" maskUnits="userSpaceOnUse" x="0" y="0" width="19" height="23">
<path fill-rule="evenodd" clip-rule="evenodd" d="M13.4747 0.337472L12.4481 1.92427C14.2977 2.83016 15.5478 4.54178 15.552 6.50802C15.552 6.62366 15.5438 6.73929 15.5358 6.85131L15.5348 6.86614H3.29297L3.29186 6.85131C3.28389 6.73929 3.27565 6.62366 3.27565 6.50802C3.27565 4.54178 4.52167 2.83424 6.37617 1.92427L5.34955 0.337472C5.28469 0.238117 5.31508 0.100135 5.41441 0.0352859C5.51374 -0.0295636 5.65179 -0.00335126 5.71656 0.100136L6.777 1.73868C7.5794 1.41096 8.46731 1.22539 9.41175 1.22539C10.3521 1.22539 11.2448 1.41096 12.0424 1.73868L13.1077 0.100136C13.1725 -0.00335126 13.3105 -0.0295636 13.4098 0.0352859C13.5133 0.100135 13.5395 0.238117 13.4747 0.337472ZM5.98498 4.17478C5.98498 4.49833 6.25201 4.76119 6.57556 4.76119C6.89912 4.76119 7.16615 4.49833 7.16615 4.17478C7.16615 3.85122 6.90329 3.58836 6.57556 3.58836C6.24784 3.58836 5.98498 3.84705 5.98498 4.17478ZM12.2501 4.76119C11.9265 4.76119 11.6596 4.49833 11.6596 4.17478C11.6596 3.84705 11.9223 3.58836 12.2501 3.58836C12.5778 3.58836 12.8365 3.85122 12.8365 4.17478C12.8365 4.49833 12.5778 4.76119 12.2501 4.76119ZM1.31497 7.20211H1.37084C2.09522 7.20211 2.6858 7.79269 2.6858 8.51707V14.2475C2.6858 14.9671 2.09522 15.5625 1.37084 15.5625H1.31497C0.590586 15.5625 0 14.9719 0 14.2475V8.51707C0 7.79751 0.590586 7.20211 1.31497 7.20211ZM3.31567 16.4594C3.31567 17.1231 3.85863 17.6667 4.52723 17.6667H5.8208V20.7631C5.8208 21.4916 6.4162 22.0828 7.13576 22.0828H7.19163C7.91601 22.0828 8.51076 21.4923 8.51076 20.7631V17.6667H10.3176V20.7631C10.3176 21.4916 10.913 22.0828 11.6374 22.0828H11.6933C12.4178 22.0828 13.0084 21.4923 13.0084 20.7631V17.6667H14.3019C14.9656 17.6667 15.5092 17.1231 15.5092 16.4594V7.40835H3.31919L3.31567 16.4594ZM17.4548 7.20211H17.5107C18.2351 7.20211 18.8256 7.79269 18.8256 8.51707V14.2475C18.8256 14.9671 18.2351 15.5625 17.5107 15.5625H17.4548C16.7304 15.5625 16.135 14.9719 16.135 14.2475V8.51707C16.135 7.79751 16.7304 7.20211 17.4548 7.20211Z" fill="white"/>
</mask>
<g mask="url(#mask0_3033_3870)">
<path fill-rule="evenodd" clip-rule="evenodd" d="M-3.01123 -1.00391H21.0792V23.0865H-3.01123V-1.00391Z" fill="#212121"/>
</g>
<path d="M32.9995 5.07902C32.9271 5.69833 32.6979 6.17689 32.3118 6.51472C31.9285 6.84985 31.4178 7.01737 30.7797 7.01737C30.088 7.01737 29.533 6.76943 29.1147 6.27344C28.6992 5.77746 28.4915 5.11386 28.4915 4.28274V3.71977C28.4915 3.17551 28.5879 2.69694 28.781 2.28407C28.9767 1.8712 29.2528 1.55487 29.6094 1.335C29.966 1.11248 30.3788 1.00122 30.848 1.00122C31.47 1.00122 31.9687 1.17549 32.3441 1.52402C32.7194 1.8699 32.9379 2.34976 32.9995 2.9637H32.2234C32.1563 2.49718 32.0102 2.15945 31.7851 1.95033C31.5625 1.7412 31.2502 1.6366 30.848 1.6366C30.3548 1.6366 29.9674 1.81894 29.6858 2.18354C29.407 2.54814 29.2676 3.06692 29.2676 3.73987V4.30692C29.2676 4.94226 29.4003 5.4477 29.6657 5.82304C29.9311 6.1983 30.3024 6.38602 30.7797 6.38602C31.2087 6.38602 31.537 6.28947 31.765 6.09647C31.9955 5.90078 32.1483 5.56157 32.2234 5.07902H32.9995Z" fill="#212121"/>
<path d="M35.6049 5.08303H35.062V6.93697H34.314V2.58569H35.062V4.42759H35.5486L37.0125 2.58569H37.9133L36.192 4.67692L38.058 6.93697H37.113L35.6049 5.08303Z" fill="#212121"/>
<path d="M41.6927 6.93683C41.6498 6.85103 41.6149 6.69824 41.5881 6.47837C41.2423 6.83769 40.8294 7.01726 40.3494 7.01726C39.9205 7.01726 39.568 6.89662 39.2918 6.65535C39.0183 6.41138 38.8816 6.10303 38.8816 5.73037C38.8816 5.27728 39.0532 4.92612 39.3964 4.67678C39.7422 4.42476 40.2275 4.29875 40.8522 4.29875H41.576V3.95694C41.576 3.69686 41.4983 3.49042 41.3428 3.33763C41.1872 3.18207 40.958 3.10433 40.6551 3.10433C40.3897 3.10433 40.1672 3.17141 39.9875 3.30539C39.8079 3.43946 39.7181 3.6017 39.7181 3.79202H38.9701C38.9701 3.57483 39.0465 3.36571 39.1993 3.16465C39.3548 2.9609 39.5639 2.80005 39.8267 2.6821C40.092 2.56415 40.383 2.50513 40.6993 2.50513C41.2007 2.50513 41.5934 2.63114 41.8776 2.88316C42.1618 3.1325 42.3093 3.47699 42.32 3.91673V5.91938C42.32 6.31891 42.3709 6.63654 42.4728 6.87253V6.93683H41.6927ZM40.458 6.36978C40.6912 6.36978 40.9125 6.30946 41.1216 6.18883C41.3307 6.06819 41.4821 5.91132 41.576 5.71832V4.82559H40.9929C40.0814 4.82559 39.6256 5.09234 39.6256 5.62585C39.6256 5.85907 39.7033 6.04141 39.8588 6.1728C40.0143 6.30409 40.2141 6.36978 40.458 6.36978Z" fill="#212121"/>
<path d="M47.0806 6.93681H46.3326V5.36037C46.0055 5.44617 45.6704 5.48907 45.3272 5.48907C44.7829 5.48907 44.3674 5.34962 44.0805 5.07082C43.7963 4.79202 43.6516 4.39527 43.6462 3.88048V2.58154H44.3902V3.90457C44.4036 4.55343 44.7159 4.87782 45.3272 4.87782C45.6704 4.87782 46.0055 4.83492 46.3326 4.74912V2.58553H47.0806V6.93681Z" fill="#212121"/>
<path d="M51.2701 6.93683C51.2274 6.85103 51.1922 6.69825 51.1654 6.47837C50.8197 6.83769 50.4065 7.01726 49.9266 7.01726C49.4976 7.01726 49.1455 6.89662 48.8692 6.65535C48.5957 6.41138 48.459 6.10303 48.459 5.73037C48.459 5.27728 48.6306 4.92612 48.9738 4.67678C49.3197 4.42476 49.8052 4.29875 50.4297 4.29875H51.1533V3.95694C51.1533 3.69686 51.0755 3.49042 50.9198 3.33763C50.7651 3.18207 50.5353 3.10433 50.2323 3.10433C49.9673 3.10433 49.7449 3.17141 49.5652 3.30539C49.3854 3.43946 49.2956 3.6017 49.2956 3.79202H48.5475C48.5475 3.57483 48.6239 3.36571 48.7767 3.16465C48.9322 2.9609 49.1418 2.80005 49.404 2.6821C49.6699 2.56415 49.9599 2.50513 50.2768 2.50513C50.7781 2.50513 51.1709 2.63114 51.4554 2.88316C51.7389 3.1325 51.8862 3.47699 51.8973 3.91673V5.91938C51.8973 6.31891 51.9483 6.63654 52.0502 6.87253V6.93683H51.2701ZM50.0359 6.36978C50.2684 6.36978 50.4899 6.30946 50.6993 6.18883C50.9078 6.06819 51.0597 5.91132 51.1533 5.71832V4.82559H50.5705C49.6588 4.82559 49.2029 5.09234 49.2029 5.62585C49.2029 5.85907 49.2807 6.04141 49.4364 6.1728C49.5921 6.30409 49.7913 6.36978 50.0359 6.36978Z" fill="#212121"/>
<path d="M56.5414 3.18897H55.082V6.93697H54.338V3.18897H52.9065V2.58569H56.5414V3.18897Z" fill="#212121"/>
<path d="M58.3871 4.08578H59.5166C60.0104 4.09107 60.4005 4.21976 60.6868 4.47179C60.974 4.72381 61.1176 5.06561 61.1176 5.4973C61.1176 5.93157 60.9694 6.28014 60.6748 6.54291C60.3801 6.80559 59.9835 6.93697 59.4841 6.93697H57.6431V2.58569H58.3871V4.08578ZM58.3871 4.69295V6.32971H59.4925C59.7714 6.32971 59.9872 6.25874 60.1401 6.1166C60.293 5.97178 60.369 5.7748 60.369 5.52546C60.369 5.28419 60.2939 5.08711 60.1438 4.93432C59.9965 4.77875 59.789 4.69833 59.5203 4.69295H58.3871Z" fill="#212121"/>
<path d="M64.671 6.32971L64.9277 6.012C65.2177 5.63674 65.3826 5.07368 65.4224 4.32298L65.491 2.58569H68.2938V6.32971H68.8535V8.2158H68.1094V6.93697H65.0731V8.2158H64.3291L64.3328 6.32971H64.671ZM65.5512 6.32971H67.5498V3.27338H66.2109L66.1665 4.31094C66.1211 5.17689 65.9163 5.84985 65.5512 6.32971Z" fill="#212121"/>
<path d="M73.5528 2.58569V6.93697H72.805V3.20102H71.3253L71.2364 4.82971C71.1882 5.57772 71.0622 6.11262 70.8584 6.43432C70.6573 6.75602 70.3376 6.92354 69.8975 6.93697H69.6001V6.28144L69.8132 6.26541C70.0541 6.23863 70.2274 6.09919 70.3321 5.84716C70.4368 5.59514 70.5035 5.12862 70.5331 4.4477L70.6137 2.58569H73.5528Z" fill="#212121"/>
<path d="M78.3821 2.58569V6.93697H77.6344V5.24398H76.5123L75.4866 6.93697H74.6824L75.7766 5.13131C75.4977 5.02948 75.2828 4.87261 75.1327 4.6608C74.9854 4.44631 74.9122 4.19697 74.9122 3.9128C74.9122 3.51605 75.0604 3.19703 75.3578 2.95567C75.6562 2.71171 76.0537 2.58838 76.5522 2.58569H78.3821ZM75.6599 3.92086C75.6599 4.13267 75.7322 4.30427 75.8767 4.43565C76.0222 4.56426 76.213 4.62995 76.4521 4.63264H77.6344V3.18897H76.5642C76.2881 3.18897 76.0685 3.25735 75.9054 3.39402C75.7414 3.52809 75.6599 3.70367 75.6599 3.92086Z" fill="#212121"/>
<path d="M32.0782 13.3694C30.2848 13.3694 28.4915 14.8041 28.4915 17.2251C28.4915 19.4669 30.1055 21.0809 32.0782 21.0809C33.6923 21.0809 34.4096 20.0049 34.4096 20.0049V20.4533C34.4096 20.7222 34.5889 20.9016 34.858 20.9016H36.0237V13.5487H34.3199V14.5351C34.4992 14.5351 33.6923 13.3694 32.0782 13.3694ZM32.4369 14.8938C33.8716 14.8938 34.6786 16.1491 34.6786 17.2251C34.6786 18.4805 33.782 19.5565 32.4369 19.5565C31.3609 19.5565 30.2848 18.6598 30.2848 17.1355C30.1951 15.9698 31.1815 14.8938 32.4369 14.8938Z" fill="#212121"/>
<path d="M38.4447 20.9913C38.1756 20.9913 37.9963 20.8119 37.9963 20.5429V13.5487H39.7V14.4454C40.0587 13.9074 40.7761 13.3694 41.9418 13.3694C43.8248 13.3694 44.8111 14.8041 44.8111 16.2388V20.9913H43.6455C43.3765 20.9913 43.1075 20.7222 43.1075 20.4533V16.5975C43.1075 15.7905 42.6591 14.8938 41.5831 14.8938C40.4174 14.8938 39.7 15.9698 39.7 17.0459V20.9913H38.4447Z" fill="#212121"/>
<path d="M49.5633 13.3692C47.7699 13.3692 45.9766 14.8038 45.9766 17.2249C45.9766 19.4666 47.5906 21.0807 49.5633 21.0807C51.1774 21.0807 51.8946 20.0047 51.8946 20.0047V20.453C51.8946 20.722 52.0743 20.9014 52.343 20.9014H53.5086V9.87207H51.8047V14.5349C51.8946 14.5349 51.1774 13.3692 49.5633 13.3692ZM49.832 14.8935C51.2673 14.8935 52.0743 16.1489 52.0743 17.2249C52.0743 18.4803 51.1774 19.5563 49.832 19.5563C48.7563 19.5563 47.6803 18.6596 47.6803 17.1352C47.6803 15.9695 48.5769 14.8935 49.832 14.8935Z" fill="#212121"/>
<path d="M55.9306 20.9912C55.6619 20.9912 55.4822 20.8118 55.4822 20.5429V13.5487H57.1861V14.804C57.4548 14.0866 58.083 13.459 59.1587 13.459C59.4274 13.459 59.786 13.5487 59.786 13.5487V15.2523C59.786 15.2523 59.4274 15.073 58.979 15.073C57.8134 15.073 57.1861 16.149 57.1861 17.2251V20.9912H55.9306Z" fill="#212121"/>
<path d="M69.8291 20.9911C69.5594 20.9911 69.3806 20.8117 69.3806 20.5428V13.5486H71.0836V20.9911H69.8291Z" fill="#212121"/>
<path d="M75.836 13.3692C74.0431 13.3692 72.2493 14.8038 72.2493 17.2249C72.2493 19.4666 73.8633 21.0807 75.836 21.0807C77.45 21.0807 78.1681 20.0047 78.1681 20.0047V20.453C78.1681 20.722 78.3469 20.9014 78.6165 20.9014H79.7821V9.87207H78.0782V14.5349C78.257 14.5349 77.5399 13.3692 75.836 13.3692ZM76.1955 14.8935C77.6298 14.8935 78.4368 16.1489 78.4368 17.2249C78.4368 18.4803 77.5399 19.5563 76.1955 19.5563C75.1188 19.5563 74.0431 18.6596 74.0431 17.1352C73.9532 15.9695 74.94 14.8935 76.1955 14.8935Z" fill="#212121"/>
<path d="M70.0976 11.9347C70.6916 11.9347 71.1734 11.453 71.1734 10.8587C71.1734 10.2644 70.6916 9.78271 70.0976 9.78271C69.5028 9.78271 69.021 10.2644 69.021 10.8587C69.021 11.453 69.5028 11.9347 70.0976 11.9347Z" fill="#212121"/>
<path d="M64.091 13.3694C62.2082 13.3694 60.2356 14.7144 60.2356 17.2251C60.2356 19.4669 61.9386 21.0809 64.091 21.0809C66.7808 21.0809 68.0363 18.9289 68.0363 17.2251C68.0363 15.1627 66.3323 13.3694 64.091 13.3694ZM64.091 14.9834C65.3465 14.9834 66.3323 16.0594 66.3323 17.3148C66.3323 18.6598 65.3465 19.6462 64.091 19.6462C62.9254 19.6462 61.8496 18.7495 61.8496 17.3148C61.8496 15.8801 62.9254 14.9834 64.091 14.9834Z" fill="#212121"/>
</svg>
