<svg width="47" height="20" viewBox="0 0 47 20" fill="none" xmlns="http://www.w3.org/2000/svg">
<g opacity="0.5" clip-path="url(#clip0_683_11999)">
<path fill-rule="evenodd" clip-rule="evenodd" d="M8.6303 2.5785C8.0834 3.25405 7.20841 3.78687 6.33337 3.71075C6.22399 2.79734 6.65239 1.82683 7.15371 1.2274C7.70058 0.532825 8.65763 0.038059 9.43238 0C9.52355 0.951475 9.16806 1.88392 8.6303 2.5785ZM9.42306 3.89166C8.65218 3.84535 7.9488 4.13367 7.38064 4.36654C7.01504 4.51642 6.70542 4.64333 6.46988 4.64333C6.20556 4.64333 5.88317 4.50963 5.52119 4.35954C5.04686 4.16283 4.50462 3.93796 3.93598 3.94875C2.63256 3.96778 1.4203 4.73846 0.75492 5.96588C-0.612293 8.42067 0.399445 12.0553 1.72109 14.0534C2.36823 15.043 3.14299 16.1276 4.16385 16.0896C4.61297 16.0719 4.93602 15.9288 5.27038 15.7807C5.65529 15.6102 6.05516 15.433 6.67951 15.433C7.28223 15.433 7.6646 15.6055 8.0317 15.7712C8.3807 15.9286 8.71586 16.0798 9.21343 16.0705C10.2707 16.0515 10.9361 15.081 11.5833 14.0915C12.2817 13.0294 12.5885 11.993 12.6351 11.8356C12.6378 11.8267 12.6396 11.8205 12.6406 11.8175C12.6394 11.8163 12.6308 11.8122 12.6156 11.8049C12.3821 11.6933 10.5978 10.8406 10.5806 8.55388C10.5635 6.63454 11.996 5.66208 12.2215 5.509C12.2352 5.49971 12.2445 5.49342 12.2486 5.49013C11.3372 4.08196 9.91527 3.92972 9.42306 3.89166ZM16.7424 15.9655V1.132H22.0745C24.8272 1.132 26.7504 3.11107 26.7504 6.00354C26.7504 8.89604 24.7907 10.8941 22.0016 10.8941H18.9482V15.9655H16.7424ZM18.9478 3.07292H21.4908C23.4049 3.07292 24.4986 4.13857 24.4986 6.01296C24.4986 7.88738 23.4049 8.96254 21.4816 8.96254H18.9478V3.07292ZM34.0328 14.1865C33.4495 15.3473 32.1643 16.0799 30.7788 16.0799C28.728 16.0799 27.297 14.805 27.297 12.883C27.297 10.98 28.6825 9.88583 31.2437 9.72408L33.9964 9.55279V8.73454C33.9964 7.52617 33.2398 6.86967 31.8909 6.86967C30.7788 6.86967 29.9676 7.46908 29.8036 8.3825H27.8165C27.8803 6.4605 29.6121 5.06183 31.9547 5.06183C34.4794 5.06183 36.1201 6.4415 36.1201 8.58229V15.9657H34.0784V14.1865H34.0328ZM31.3716 14.3203C30.1957 14.3203 29.4483 13.7304 29.4483 12.8265C29.4483 11.894 30.1684 11.3517 31.5447 11.2661L33.9966 11.1043V11.9416C33.9966 13.3308 32.8664 14.3203 31.3716 14.3203ZM42.8923 16.5458C42.0085 19.1434 40.9965 19.9997 38.8454 19.9997C38.6814 19.9997 38.1345 19.9807 38.0069 19.9426V18.1633C38.1436 18.1824 38.4808 18.2014 38.654 18.2014C39.6293 18.2014 40.1762 17.7733 40.5134 16.66L40.714 16.0035L36.9769 5.20425H39.283L41.8808 13.9673H41.9261L44.524 5.20425H46.7663L42.8923 16.5458Z" fill="black"/>
</g>
<defs>
<clipPath id="clip0_683_11999">
<rect width="47" height="20" fill="white"/>
</clipPath>
</defs>
</svg>
