<svg width="65" height="20" viewBox="0 0 65 20" fill="none" xmlns="http://www.w3.org/2000/svg">
<g opacity="0.5" clip-path="url(#clip0_683_12070)">
<path d="M14.3209 3.23731L11.9074 11.6515H11.4945L9.08105 3.23731C8.66816 1.81348 7.37242 0.833252 5.89158 0.833252H0.103516V19.1499H5.8987V8.32446H6.31164L9.62929 19.1499H13.7728L17.0833 8.32446H17.4962V19.1499H23.2914V0.833252H17.5033C16.0296 0.833252 14.7339 1.81348 14.3209 3.23731ZM46.4079 19.1499H52.2389V13.7336H58.1055C61.1737 13.7336 63.7865 11.9878 64.7976 9.53367H46.4079V19.1499ZM36.0778 2.76509L31.9984 11.6587H31.5855V0.833252H25.7903V19.1499H30.7098C32.0055 19.1499 33.1801 18.3915 33.7212 17.2181L37.8006 8.33163H38.2137V19.1499H44.0087V0.833252H39.0892C37.7935 0.833252 36.6189 1.59168 36.0778 2.76509Z" fill="#006848"/>
<path d="M58.3713 0C60.0443 0 61.5609 0.643946 62.7073 1.70288C63.9886 2.87629 64.7931 4.56487 64.7931 6.44662C64.7931 6.83296 64.7504 7.21221 64.6863 7.58425H53.9219C50.2765 7.58425 47.1868 5.18017 46.1476 1.86029C46.1331 1.82451 46.1261 1.78158 46.112 1.73865C46.0834 1.63848 46.0619 1.53116 46.0337 1.43099C45.9269 0.965917 45.8557 0.493692 45.8271 0H58.3713Z" fill="url(#paint0_linear_683_12070)"/>
</g>
<defs>
<linearGradient id="paint0_linear_683_12070" x1="64.7931" y1="23.7198" x2="45.9431" y2="23.7198" gradientUnits="userSpaceOnUse">
<stop stop-color="#1E5CD8"/>
<stop offset="1" stop-color="#02AFFF"/>
</linearGradient>
<clipPath id="clip0_683_12070">
<rect width="65" height="20" fill="white"/>
</clipPath>
</defs>
</svg>
