<svg width="61" height="20" viewBox="0 0 61 20" fill="none" xmlns="http://www.w3.org/2000/svg">
<g opacity="0.5" clip-path="url(#clip0_683_12073)">
<path fill-rule="evenodd" clip-rule="evenodd" d="M15.2613 19.8428H10.0144L6.07981 4.32742C5.89307 3.6137 5.49653 2.98274 4.91326 2.68536C3.45761 1.93803 1.8536 1.34327 0.10376 1.04331V0.445962H8.5562C9.72275 0.445962 10.5977 1.34327 10.7435 2.38539L12.785 13.5772L18.0293 0.445962H23.1305L15.2613 19.8428ZM26.0469 19.8428H21.0915L25.1719 0.445962H30.1273L26.0469 19.8428ZM36.5384 5.82088C36.6842 4.77617 37.5591 4.17883 38.5799 4.17883C40.1839 4.02884 41.9311 4.32879 43.3893 5.07354L44.2644 0.897308C42.8062 0.299965 41.202 0 39.7464 0C34.9369 0 31.4373 2.68675 31.4373 6.41563C31.4373 9.25237 33.9162 10.7418 35.666 11.6392C37.5591 12.5339 38.2882 13.1312 38.1424 14.026C38.1424 15.368 36.6842 15.9654 35.2286 15.9654C33.4787 15.9654 31.7289 15.518 30.1274 14.7707L29.2525 18.9495C31.0023 19.6943 32.8955 19.9942 34.6453 19.9942C40.0381 20.1416 43.3893 17.4575 43.3893 13.4286C43.3893 8.35504 36.5384 8.05767 36.5384 5.82088ZM60.7315 19.8428L56.7968 0.445962H52.5704C51.6956 0.445962 50.8209 1.04331 50.5292 1.93803L43.2432 19.8428H48.3444L49.3627 17.0087H55.6304L56.2134 19.8428H60.7315ZM53.2995 5.66896L54.7552 12.9793H50.6748L53.2995 5.66896Z" fill="#15195A"/>
</g>
<defs>
<clipPath id="clip0_683_12073">
<rect width="61" height="20" fill="white"/>
</clipPath>
</defs>
</svg>
