<svg width="86" height="20" viewBox="0 0 86 20" fill="none" xmlns="http://www.w3.org/2000/svg">
<g opacity="0.5">
<rect width="86" height="20" fill="white"/>
<g clip-path="url(#clip0_683_11995)">
<path d="M9.89347 0.999922C11.342 -0.398578 13.6155 -0.321078 14.971 1.17342L18.697 5.27992C19.0495 5.66842 19.6705 5.77642 20.035 5.40042L21.7755 3.60492C22.1036 3.26188 22.4979 2.98886 22.9344 2.80234C23.371 2.61582 23.8408 2.51966 24.3155 2.51966C24.7902 2.51966 25.26 2.61582 25.6965 2.80234C26.1331 2.98886 26.5273 3.26188 26.8555 3.60492L33.5455 10.5059C34.9485 11.9529 34.9485 14.2994 33.5455 15.7469L30.4755 18.9144C30.1473 19.2575 29.753 19.5306 29.3165 19.7172C28.8799 19.9038 28.41 19.9999 27.9352 19.9999C27.4604 19.9999 26.9906 19.9038 26.554 19.7172C26.1174 19.5306 25.7231 19.2575 25.395 18.9144L18.705 12.0134C18.286 11.5804 17.576 11.4389 17.143 11.8569L9.77297 18.9734C8.32497 20.3719 6.05147 20.2944 4.69597 18.8004L0.969474 14.6934C-0.386026 13.1994 -0.311026 10.8539 1.13747 9.45542L9.89347 0.999922Z" fill="url(#paint0_linear_683_11995)"/>
<path d="M77.278 20C75.8565 20 74.8145 19.7565 74.1525 19.2695C73.497 18.7825 73.169 18.125 73.169 17.2975V17.1775H75.311V17.2475C75.311 17.601 75.4605 17.878 75.759 18.0785C76.0645 18.2785 76.5705 18.3785 77.278 18.3785C78.012 18.3785 78.518 18.315 78.7975 18.1885C79.0765 18.0615 79.216 17.8915 79.216 17.678C79.216 17.478 79.122 17.328 78.9335 17.228C78.7455 17.1275 78.505 17.0605 78.213 17.0275C77.8115 16.9853 77.4088 16.9553 77.0055 16.9375C76.22 16.8975 75.574 16.8375 75.068 16.7575C74.568 16.6705 74.133 16.4835 73.763 16.1965C73.3995 15.903 73.2175 15.4695 73.2175 14.8955C73.2175 14.235 73.529 13.7075 74.1525 13.314C74.782 12.914 75.8175 12.7135 77.259 12.7135C78.1935 12.7135 78.963 12.827 79.5665 13.0535C80.1705 13.2805 80.612 13.5875 80.891 13.9745C81.17 14.3615 81.3095 14.802 81.3095 15.296V15.386H79.1675V15.296C79.1675 15.0225 79.015 14.7955 78.7095 14.615C78.4045 14.4285 77.921 14.335 77.259 14.335C76.538 14.335 76.0415 14.395 75.769 14.515C75.496 14.635 75.36 14.795 75.36 14.9955C75.36 15.1555 75.4445 15.279 75.613 15.3655C75.7885 15.4455 76.006 15.4995 76.2655 15.526C76.5315 15.546 76.908 15.566 77.395 15.586C78.2 15.6125 78.8685 15.6695 79.401 15.756C79.9335 15.836 80.391 16.026 80.774 16.327C81.1635 16.627 81.3585 17.077 81.3585 17.678C81.3585 18.372 81.0335 18.9325 80.3845 19.3595C79.742 19.7865 78.7065 20 77.278 20ZM64.765 19.859V12.853H68.29C69.1925 12.853 69.962 13.0065 70.598 13.313C71.234 13.6135 71.7145 14.027 72.039 14.5545C72.364 15.0815 72.526 15.682 72.526 16.356C72.526 17.03 72.364 17.6305 72.039 18.1575C71.7145 18.685 71.234 19.102 70.598 19.4085C69.962 19.709 69.1925 19.859 68.29 19.859H64.765ZM68.29 18.1175C68.972 18.1175 69.4975 17.9575 69.8675 17.6375C70.2375 17.31 70.4225 16.883 70.4225 16.356C70.4225 15.829 70.2375 15.405 69.8675 15.085C69.4975 14.758 68.972 14.5945 68.29 14.5945H66.8685V18.1175H68.29ZM64.1935 19.859H61.681L60.951 18.0575C60.8665 17.8505 60.7465 17.7075 60.5905 17.6275C60.435 17.5405 60.214 17.497 59.9285 17.497H58.526V19.859H56.423V12.853H60.9995C61.941 12.853 62.6485 13.0565 63.1225 13.463C63.603 13.864 63.843 14.408 63.843 15.095C63.843 15.4685 63.762 15.812 63.5995 16.1255C63.4466 16.4281 63.2227 16.6892 62.947 16.8865C62.6796 17.0715 62.3662 17.1788 62.0415 17.1965V17.3765C62.418 17.3905 62.723 17.4805 62.957 17.647C63.1905 17.807 63.405 18.101 63.5995 18.528L64.1935 19.859ZM60.7365 16.226C61.061 16.226 61.308 16.149 61.4765 15.996C61.652 15.842 61.7395 15.6355 61.7395 15.375C61.7395 15.115 61.652 14.908 61.4765 14.755C61.308 14.5945 61.061 14.5145 60.7365 14.5145H58.4095V16.226H60.7365ZM55.9515 19.859H53.722L53.303 18.838H49.934L49.515 19.859H47.285L50.372 12.853H52.855L55.9515 19.859ZM50.596 17.1865H52.641L52.0955 15.8555C51.9465 15.4685 51.8425 15.155 51.784 14.9145C51.7327 14.6744 51.7066 14.4296 51.706 14.184V14.144H51.531V14.184C51.531 14.424 51.5015 14.668 51.443 14.9145C51.391 15.1545 51.2905 15.4685 51.1415 15.8555L50.596 17.1865ZM43.06 20C42.0995 20 41.2785 19.8435 40.5965 19.53C39.9215 19.2095 39.4115 18.7755 39.068 18.2285C38.724 17.6745 38.552 17.0505 38.552 16.357C38.552 15.663 38.724 15.042 39.068 14.495C39.412 13.9415 39.9215 13.5075 40.5965 13.194C41.2785 12.874 42.0995 12.7135 43.0605 12.7135C43.9625 12.7135 44.7355 12.8435 45.378 13.1035C46.027 13.364 46.533 13.718 46.897 14.165C47.261 14.5989 47.497 15.1255 47.5785 15.686H45.4755C45.3905 15.3525 45.1475 15.066 44.745 14.8255C44.349 14.5855 43.7875 14.4655 43.06 14.4655C42.541 14.4655 42.0995 14.5485 41.736 14.7155C41.379 14.8755 41.1095 15.099 40.928 15.3855C40.745 15.6761 40.6502 16.0136 40.655 16.357C40.655 16.717 40.746 17.0405 40.928 17.3275C41.1095 17.6145 41.379 17.8415 41.736 18.008C42.0995 18.168 42.541 18.248 43.0605 18.248C43.7875 18.248 44.349 18.128 44.745 17.888C45.1475 17.648 45.391 17.361 45.475 17.0275H47.5785C47.4991 17.59 47.2666 18.1198 46.9065 18.559C46.543 19.006 46.0365 19.359 45.3875 19.6195C44.7385 19.8735 43.962 20 43.06 20ZM81.4235 11.286C80.443 11.286 79.609 11.129 78.921 10.816C78.2325 10.495 77.7135 10.0615 77.363 9.51451C77.0185 8.96051 76.8465 8.33651 76.8465 7.64251C76.8465 6.94901 77.0185 6.32801 77.363 5.78101C77.7135 5.22701 78.2325 4.79351 78.921 4.48001C79.609 4.16001 80.443 3.99951 81.4235 3.99951C82.4035 3.99951 83.238 4.15951 83.926 4.47951C84.614 4.79351 85.13 5.22701 85.4745 5.78101C85.825 6.32801 86 6.94901 86 7.64251C86 8.33651 85.825 8.96051 85.4745 9.51451C85.13 10.0615 84.614 10.4955 83.926 10.8155C83.238 11.129 82.4035 11.2855 81.4235 11.2855V11.286ZM81.4235 9.53451C81.962 9.53451 82.4165 9.45451 82.7865 9.29451C83.1565 9.12751 83.4325 8.90051 83.6145 8.61351C83.8031 8.32514 83.9015 7.98707 83.897 7.64251C83.897 7.28251 83.8025 6.95901 83.6145 6.67201C83.4325 6.38501 83.1565 6.16151 82.7865 6.00101C82.4165 5.83451 81.962 5.75101 81.4235 5.75101C80.8845 5.75101 80.43 5.83451 80.06 6.00101C79.69 6.16101 79.411 6.38501 79.2225 6.67201C79.0399 6.96245 78.9453 7.2995 78.95 7.64251C78.95 8.00301 79.041 8.32651 79.2225 8.61351C79.411 8.90051 79.69 9.12751 80.06 9.29401C80.43 9.45401 80.8845 9.53451 81.4235 9.53451ZM74.7415 7.56201C75.2935 7.60851 75.7155 7.78201 76.0075 8.08201C76.2995 8.37601 76.4455 8.76301 76.4455 9.24351C76.4455 10.5115 75.5955 11.145 73.8945 11.145H68.597V4.13901H73.943C74.7025 4.13901 75.2675 4.28901 75.6375 4.58901C76.014 4.88951 76.2025 5.29651 76.2025 5.81051C76.2025 6.24401 76.0755 6.59751 75.8225 6.87151C75.5695 7.14501 75.209 7.30501 74.7415 7.35151V7.56201ZM70.6225 5.77051V6.88151H73.4075C73.635 6.88151 73.807 6.83151 73.9235 6.73151C74.0405 6.63151 74.099 6.49451 74.099 6.32101C74.099 6.14751 74.0405 6.01401 73.9235 5.92051C73.807 5.82051 73.635 5.77051 73.4075 5.77051H70.6225ZM73.6025 9.51351C73.849 9.51351 74.034 9.46051 74.1575 9.35351C74.2805 9.24701 74.3425 9.10001 74.3425 8.91351C74.3425 8.71951 74.2805 8.56951 74.1575 8.46251C74.034 8.35601 73.849 8.30251 73.6025 8.30251H70.6225V9.51351H73.6025ZM58.0575 11.145V4.13901H61.31L62.469 7.57201C62.6115 8.07201 62.683 8.41601 62.683 8.60301V8.70301H62.8585V8.60301C62.8585 8.41601 62.9295 8.07251 63.0725 7.57201L64.2315 4.13901H67.4835V11.145H65.468V7.63201C65.468 7.12501 65.4875 6.70801 65.5265 6.38101C65.572 6.05401 65.637 5.73701 65.721 5.43001H65.546L63.949 9.99401H61.5925L59.9955 5.43001H59.82C59.911 5.75001 59.976 6.07401 60.015 6.40101C60.0605 6.72101 60.083 7.13151 60.083 7.63201V11.145H58.0575ZM52.6315 11.286C51.651 11.286 50.817 11.129 50.129 10.816C49.4405 10.495 48.9215 10.0615 48.571 9.51451C48.2265 8.96051 48.0545 8.33651 48.0545 7.64251C48.0545 6.94901 48.2265 6.32801 48.571 5.78101C48.921 5.22701 49.441 4.79351 50.129 4.48001C50.817 4.16001 51.651 3.99951 52.6315 3.99951C53.6115 3.99951 54.446 4.15951 55.134 4.47951C55.822 4.79351 56.338 5.22701 56.6825 5.78101C57.033 6.32801 57.208 6.94901 57.208 7.64251C57.208 8.33651 57.033 8.96051 56.6825 9.51451C56.338 10.0615 55.822 10.4955 55.134 10.8155C54.446 11.129 53.6115 11.2855 52.6315 11.2855V11.286ZM52.6315 9.53451C53.17 9.53451 53.6245 9.45451 53.9945 9.29451C54.3645 9.12751 54.6405 8.90051 54.8225 8.61351C55.0111 8.32514 55.1095 7.98707 55.105 7.64251C55.105 7.28251 55.0105 6.95901 54.8225 6.67201C54.6405 6.38501 54.3645 6.16151 53.9945 6.00101C53.6245 5.83451 53.17 5.75101 52.6315 5.75101C52.0925 5.75101 51.638 5.83451 51.268 6.00101C50.898 6.16101 50.619 6.38501 50.4305 6.67201C50.2479 6.96245 50.1533 7.2995 50.158 7.64251C50.158 8.00301 50.249 8.32651 50.4305 8.61351C50.619 8.90051 50.898 9.12751 51.268 9.29401C51.638 9.45401 52.0925 9.53451 52.6315 9.53451ZM43.061 11.286C42.1 11.286 41.279 11.129 40.597 10.816C39.922 10.495 39.412 10.0615 39.0685 9.51451C38.7245 8.96051 38.5525 8.33651 38.5525 7.64251C38.5525 6.94901 38.7245 6.32801 39.0685 5.78101C39.4125 5.22701 39.922 4.79351 40.597 4.48001C41.279 4.16001 42.1 3.99951 43.061 3.99951C43.963 3.99951 44.736 4.12951 45.3785 4.38951C46.0275 4.65001 46.5335 5.00351 46.8975 5.45051C47.2616 5.8845 47.4976 6.41137 47.579 6.97201H45.4755C45.3915 6.63851 45.148 6.35201 44.7455 6.11151C44.3495 5.87151 43.788 5.75101 43.0605 5.75101C42.5415 5.75101 42.1 5.83451 41.7365 6.00101C41.3795 6.16101 41.11 6.38501 40.928 6.67201C40.7453 6.96239 40.6507 7.29948 40.6555 7.64251C40.6555 8.00301 40.7465 8.32651 40.928 8.61351C41.11 8.90051 41.3795 9.12751 41.7365 9.29401C42.1 9.45401 42.5415 9.53401 43.061 9.53401C43.788 9.53401 44.3495 9.41401 44.7455 9.17401C45.148 8.93401 45.3915 8.64701 45.4755 8.31351H47.579C47.4996 8.8758 47.2671 9.40543 46.907 9.84451C46.5435 10.292 46.037 10.6455 45.388 10.9055C44.739 11.159 43.963 11.2855 43.061 11.2855V11.286Z" fill="#171717"/>
</g>
</g>
<defs>
<linearGradient id="paint0_linear_683_11995" x1="17.2989" y1="-0.000244141" x2="17.2989" y2="19.9999" gradientUnits="userSpaceOnUse">
<stop stop-color="#FFB300"/>
<stop offset="1" stop-color="#FF8400"/>
</linearGradient>
<clipPath id="clip0_683_11995">
<rect width="86" height="20" fill="white"/>
</clipPath>
</defs>
</svg>
