<svg width="32" height="20" viewBox="0 0 32 20" fill="none" xmlns="http://www.w3.org/2000/svg">
<g opacity="0.5" clip-path="url(#clip0_683_12065)">
<path d="M20.2765 2.09497H11.7917V17.499H20.2765V2.09497Z" fill="#FF5F00"/>
<path d="M12.3317 9.79663C12.3304 8.31447 12.663 6.85132 13.3043 5.51745C13.9456 4.18353 14.8789 3.01367 16.0339 2.09596C14.8151 1.13031 13.3847 0.472429 11.8622 0.177209C10.3397 -0.118008 8.76917 -0.0419942 7.28174 0.398906C5.7943 0.839805 4.43309 1.6328 3.31172 2.71171C2.19035 3.79063 1.34134 5.12414 0.835547 6.601C0.329752 8.07785 0.181851 9.6552 0.404184 11.2014C0.626518 12.7476 1.21264 14.2177 2.11362 15.4892C3.01461 16.7606 4.20435 17.7965 5.58351 18.5103C6.96267 19.2241 8.49125 19.5952 10.0417 19.5925C12.2165 19.5954 14.3283 18.857 16.0339 17.4973C14.8789 16.5796 13.9456 15.4097 13.3043 14.0759C12.663 12.742 12.3304 11.2788 12.3317 9.79663Z" fill="#EB001B"/>
<path d="M30.7946 15.8665V15.5509H30.9215V15.4856H30.592V15.5509H30.719V15.8665H30.7946ZM31.4184 15.8665V15.4856H31.3212L31.2077 15.7577L31.0943 15.4856H30.9944V15.8665H31.0646V15.5781L31.1699 15.8257H31.2429L31.3482 15.5781V15.8665H31.4184Z" fill="#F79E1B"/>
<path d="M31.7207 9.79608C31.7268 11.6319 31.2192 13.4323 30.256 14.9906C29.2928 16.5489 27.913 17.8019 26.2751 18.606C24.6373 19.41 22.8076 19.7324 20.9962 19.5362C19.1847 19.34 17.4648 18.6332 16.0339 17.4968C17.1882 16.5783 18.121 15.4083 18.7623 14.0746C19.4036 12.7409 19.7368 11.2781 19.7368 9.79608C19.7368 8.31404 19.4036 6.85131 18.7623 5.51759C18.121 4.18388 17.1882 3.01387 16.0339 2.09539C17.4648 0.958984 19.1847 0.252118 20.9962 0.0559204C22.8076 -0.140277 24.6373 0.182143 26.2751 0.98618C27.913 1.79022 29.2928 3.04329 30.256 4.60159C31.2192 6.15988 31.7268 7.96025 31.7207 9.79608Z" fill="#F79E1B"/>
</g>
<defs>
<clipPath id="clip0_683_12065">
<rect width="32" height="20" fill="white"/>
</clipPath>
</defs>
</svg>
