<svg width="24" height="24" viewBox="0 0 24 24" fill="none" xmlns="http://www.w3.org/2000/svg">
<path fill-rule="evenodd" clip-rule="evenodd" d="M11.0769 8.35562C9.8286 7.96728 8.9231 6.81213 8.9231 5.44752C8.9231 3.76436 10.3007 2.3999 12 2.3999C13.6993 2.3999 15.0769 3.76436 15.0769 5.44752C15.0769 6.81213 14.1714 7.96728 12.9231 8.35562V20.0761H11.0769V8.35562ZM12 6.66657C12.6797 6.66657 13.2307 6.12078 13.2307 5.44752C13.2307 4.77426 12.6797 4.22847 12 4.22847C11.3203 4.22847 10.7692 4.77426 10.7692 5.44752C10.7692 6.12078 11.3203 6.66657 12 6.66657Z" fill="#212121"/>
<path d="M4 5.44751H5.23077V9.10465H4V5.44751Z" fill="#212121"/>
<path d="M8.15722 21.6C7.64741 21.6 7.23413 21.1907 7.23413 20.6858C7.23413 20.1808 7.64741 19.7715 8.15722 19.7715H16.1572C16.667 19.7715 17.0802 20.1808 17.0802 20.6858C17.0802 21.1907 16.667 21.6 16.1572 21.6H8.15722Z" fill="#212121"/>
<path d="M18.7693 5.44751H20.0001V9.10465H18.7693V5.44751Z" fill="#212121"/>
<path fill-rule="evenodd" clip-rule="evenodd" d="M5.94512 8.63144C5.34278 7.63715 3.88788 7.63718 3.28558 8.6315L0 13.6475C0 15.9846 2.23111 17.6094 4.61538 17.6094C6.99966 17.6094 9.23077 15.9846 9.23077 13.6475L5.94512 8.63144ZM2.02274 13.6476L4.61538 9.9904L7.208 13.6476H2.02274ZM2.3539 14.8666C2.8285 15.3948 3.61374 15.7809 4.61538 15.7809C5.61703 15.7809 6.40228 15.3948 6.87686 14.8666H2.3539Z" fill="#212121"/>
<path fill-rule="evenodd" clip-rule="evenodd" d="M20.7144 8.63144C20.112 7.63715 18.6572 7.63718 18.0549 8.6315L14.7693 13.6475C14.7693 15.9846 17.0004 17.6094 19.3846 17.6094C21.7689 17.6094 24 15.9846 24 13.6475L20.7144 8.63144ZM16.792 13.6476L19.3846 9.9904L21.9773 13.6476H16.792ZM17.1232 14.8666C17.5978 15.3948 18.383 15.7809 19.3846 15.7809C20.3862 15.7809 21.1715 15.3948 21.6461 14.8666H17.1232Z" fill="#212121"/>
<path d="M10.7693 4.61646H3.07762C2.56782 4.61646 2.15454 5.02579 2.15454 5.53074C2.15454 6.03568 2.56782 6.44503 3.07762 6.44503H10.7693V4.61646Z" fill="#212121"/>
<path d="M13.2307 6.44503H20.9237C21.4334 6.44503 21.8467 6.03568 21.8467 5.53074C21.8467 5.02579 21.4334 4.61646 20.9237 4.61646H13.2307V6.44503Z" fill="#212121"/>
</svg>
