<svg width="57" height="16" viewBox="0 0 57 16" fill="none" xmlns="http://www.w3.org/2000/svg">
<g clip-path="url(#clip0_683_11918)">
<path d="M4.01045 9.53674e-07C1.79568 9.53674e-07 0 1.79073 0 3.99995V12.0001C0 14.2093 1.79568 16 4.01045 16H12.0316C14.2465 16 16.0421 14.2093 16.0421 12.0001V9.53674e-07H4.01045Z" fill="#212121"/>
<path d="M4.38435 6.38905C4.25315 5.81682 4.82557 5.3105 5.566 5.3105C6.23297 5.3105 6.9015 5.45965 7.15588 6.38713H8.01086V7.80255C6.94489 6.92862 4.63391 7.47696 4.38435 6.38905ZM13.2557 5.9972H11.3297L9.49752 7.99865V3.99994H8.01086V4.96882C7.96234 4.90636 7.9112 4.8443 7.85392 4.78373C7.3133 4.21294 6.53446 3.92354 5.53864 3.92354C4.38702 3.92354 3.73227 4.4376 3.38573 4.86877C2.95532 5.40405 2.76315 6.13468 2.89614 6.72998C3.24064 8.27105 4.67437 8.51716 5.72763 8.65374C6.55915 8.76162 7.35467 8.91216 7.33356 9.65141C7.31154 10.4186 6.44451 10.6072 5.87538 10.6072C4.39315 10.6072 4.34314 9.51445 4.34314 9.51445H2.74902C2.77231 9.92482 2.89665 10.5836 3.40316 11.1489C3.95776 11.7684 4.78957 12.0823 5.87538 12.0823C6.7083 12.0823 7.46704 11.8117 8.01086 11.3311V11.9915H9.49752V10.1039L10.0235 9.53008L11.5251 11.9915H13.2552L11.0701 8.38641L13.2557 5.9972Z" fill="#FBFBFB"/>
<path d="M22.7462 7.57976C22.7047 7.50499 22.6466 7.43026 22.5883 7.35562C22.5216 7.28923 22.4467 7.22285 22.347 7.16471C22.2553 7.10658 22.1389 7.06518 22.0058 7.02369C21.8725 6.99041 21.7229 6.97381 21.5398 6.97381C21.4649 6.97381 21.3734 6.98219 21.2735 6.99867C21.1736 7.02369 21.0654 7.0568 20.9573 7.10658C20.8491 7.16471 20.7409 7.23948 20.6328 7.33086C20.533 7.422 20.4331 7.54665 20.3581 7.6959C20.2667 7.85369 20.2 8.03608 20.15 8.25187C20.1003 8.46764 20.0753 8.72493 20.0753 9.02374C20.0753 9.34742 20.1086 9.62957 20.1751 9.88686C20.2417 10.1443 20.3416 10.3601 20.4663 10.5342C20.5913 10.7086 20.7493 10.8412 20.9323 10.9327C21.1071 11.0239 21.315 11.0737 21.5398 11.0737C21.8061 11.0737 22.0141 11.0322 22.1805 10.9575C22.347 10.8745 22.4801 10.7749 22.5799 10.6587C22.6798 10.5427 22.7548 10.4181 22.7962 10.2936C22.8461 10.1692 22.8878 10.0529 22.9127 9.96163H24.1525C24.086 10.3351 23.9778 10.6587 23.8197 10.9327C23.6616 11.2065 23.4702 11.4305 23.2456 11.6131C23.0208 11.7958 22.7713 11.9285 22.4884 12.0198C22.2053 12.1112 21.9059 12.1526 21.5898 12.1526C21.1487 12.1526 20.7493 12.0779 20.4081 11.9285C20.067 11.7874 19.7758 11.5718 19.5428 11.3062C19.3097 11.0322 19.135 10.7002 19.0101 10.3102C18.8854 9.92848 18.8271 9.49693 18.8271 9.02374C18.8271 8.65867 18.8605 8.32664 18.9353 8.02783C19.0019 7.72904 19.1018 7.4635 19.2265 7.23123C19.3514 6.99867 19.501 6.80789 19.6759 6.6335C19.8423 6.46748 20.0253 6.32646 20.2334 6.21858C20.4331 6.11066 20.6412 6.02767 20.8658 5.96964C21.0904 5.91976 21.315 5.8949 21.5398 5.8949C21.8643 5.8949 22.1556 5.92827 22.4051 5.99453C22.6548 6.0693 22.8795 6.15229 23.0707 6.26846C23.2621 6.38459 23.4203 6.50911 23.5534 6.65839C23.6866 6.80789 23.803 6.9573 23.8864 7.10658C23.9696 7.26434 24.0278 7.422 24.0778 7.57138C24.1192 7.72904 24.1442 7.8702 24.1525 8.00297H22.9044L22.8461 7.80381C22.8212 7.72904 22.788 7.66279 22.7462 7.57976Z" fill="#212121"/>
<path d="M27.4759 7.58801H29.0071L27.1764 9.42215L29.0819 12.0032H27.584L26.286 10.1358L25.82 10.609V12.0032H24.6719V7.58801H25.82V9.26452L27.4759 7.58801Z" fill="#212121"/>
<path d="M30.1253 10.2855C30.1587 10.4513 30.2169 10.6007 30.3084 10.7253C30.3916 10.858 30.4998 10.9659 30.6329 11.0407C30.766 11.1155 30.9325 11.1568 31.1323 11.1568C31.3401 11.1568 31.515 11.1155 31.6481 11.0407C31.7813 10.9659 31.8895 10.858 31.9726 10.7336C32.0558 10.6091 32.1141 10.4681 32.1473 10.302C32.1806 10.1359 32.1972 9.97003 32.1972 9.79576C32.1972 9.62146 32.1806 9.45545 32.1473 9.28954C32.1141 9.12352 32.0558 8.97411 31.9726 8.84973C31.8895 8.72508 31.7813 8.62558 31.6481 8.54256C31.515 8.46779 31.3401 8.43468 31.1323 8.43468C30.9325 8.43468 30.766 8.47617 30.6329 8.55094C30.4998 8.62558 30.3916 8.73333 30.3084 8.85798C30.2169 8.99075 30.1587 9.13178 30.1253 9.29779C30.092 9.4637 30.0671 9.62972 30.0671 9.79576C30.0671 9.96178 30.092 10.1277 30.1253 10.2855ZM29.027 8.85798C29.1269 8.56745 29.2765 8.31854 29.4762 8.111C29.676 7.90359 29.909 7.74583 30.1919 7.62956C30.4747 7.5134 30.7827 7.4554 31.1323 7.4554C31.49 7.4554 31.8063 7.5134 32.089 7.62956C32.372 7.74583 32.605 7.90359 32.7962 8.111C32.9878 8.31854 33.1377 8.56745 33.2458 8.85798C33.3455 9.14029 33.3954 9.45545 33.3954 9.79576C33.3954 10.1359 33.3455 10.4513 33.2458 10.7336C33.1377 11.024 32.9878 11.273 32.7962 11.4805C32.605 11.6797 32.372 11.8457 32.089 11.962C31.8063 12.0781 31.49 12.1362 31.1323 12.1362C30.7827 12.1362 30.4747 12.0781 30.1919 11.962C29.909 11.8457 29.676 11.6797 29.4762 11.4805C29.2765 11.273 29.1269 11.024 29.027 10.7336C28.9271 10.4513 28.8689 10.1359 28.8689 9.79576C28.8689 9.45545 28.9271 9.14029 29.027 8.85798Z" fill="#212121"/>
<path d="M35.559 8.51757L35.5427 9.33932C35.5258 9.80399 35.4925 10.2107 35.4508 10.5593C35.401 10.9079 35.326 11.1983 35.2263 11.4306C35.1182 11.6631 34.9768 11.8373 34.8018 11.962C34.6272 12.0781 34.3943 12.1362 34.1196 12.1362C33.9864 12.1362 33.8782 12.1278 33.7785 12.1196C33.6785 12.103 33.6036 12.0781 33.5371 12.0531V11.0904C33.5788 11.1069 33.6287 11.1237 33.687 11.1403C33.745 11.1486 33.8118 11.1568 33.8948 11.1568C33.9864 11.1568 34.0613 11.132 34.1278 11.0738C34.1946 11.024 34.2529 10.9328 34.3027 10.7918C34.3526 10.6505 34.3858 10.4596 34.419 10.2107C34.4441 9.96178 34.4607 9.64636 34.4692 9.25643L34.5024 7.58817H38.0637V12.0033H36.9237V8.51757H35.559Z" fill="#212121"/>
<path d="M41.7062 7.58801H43.2371L41.4065 9.42215L43.312 12.0032H41.8144L40.5161 10.1358L40.0502 10.609V12.0032H38.9021V7.58801H40.0502V9.26452L41.7062 7.58801Z" fill="#212121"/>
<path d="M44.3555 10.2855C44.3887 10.4513 44.447 10.6007 44.5386 10.7253C44.6216 10.858 44.7298 10.9659 44.863 11.0407C44.9963 11.1155 45.1625 11.1568 45.3625 11.1568C45.5703 11.1568 45.745 11.1155 45.8782 11.0407C46.0115 10.9659 46.1196 10.858 46.2027 10.7336C46.2861 10.6091 46.3441 10.4681 46.3773 10.302C46.4109 10.1359 46.4275 9.97003 46.4275 9.79576C46.4275 9.62146 46.4109 9.45545 46.3773 9.28954C46.3441 9.12352 46.2861 8.97411 46.2027 8.84973C46.1196 8.72508 46.0115 8.62558 45.8782 8.54256C45.745 8.46779 45.5703 8.43468 45.3625 8.43468C45.1625 8.43468 44.9963 8.47617 44.863 8.55094C44.7298 8.62558 44.6216 8.73333 44.5386 8.85798C44.447 8.99075 44.3887 9.13178 44.3555 9.29779C44.3222 9.4637 44.2971 9.62972 44.2971 9.79576C44.2971 9.96178 44.3222 10.1277 44.3555 10.2855ZM43.2572 8.85798C43.3569 8.56745 43.5068 8.31854 43.7065 8.111C43.9062 7.90359 44.1391 7.74583 44.4219 7.62956C44.705 7.5134 45.0129 7.4554 45.3625 7.4554C45.7202 7.4554 46.0366 7.5134 46.3193 7.62956C46.6021 7.74583 46.8351 7.90359 47.0266 8.111C47.2179 8.31854 47.3677 8.56745 47.4759 8.85798C47.5756 9.14029 47.6255 9.45545 47.6255 9.79576C47.6255 10.1359 47.5756 10.4513 47.4759 10.7336C47.3677 11.024 47.2179 11.273 47.0266 11.4805C46.8351 11.6797 46.6021 11.8457 46.3193 11.962C46.0366 12.0781 45.7202 12.1362 45.3625 12.1362C45.0129 12.1362 44.705 12.0781 44.4219 11.962C44.1391 11.8457 43.9062 11.6797 43.7065 11.4805C43.5068 11.273 43.3569 11.024 43.2572 10.7336C43.1572 10.4513 43.0989 10.1359 43.0989 9.79576C43.0989 9.45545 43.1572 9.14029 43.2572 8.85798Z" fill="#212121"/>
<path d="M50.6012 11.1402C50.7013 11.0985 50.7762 11.057 50.8345 10.999C50.8844 10.9493 50.9261 10.891 50.9427 10.8247C50.9593 10.7583 50.9674 10.7002 50.9674 10.6421C50.9674 10.5342 50.9593 10.4429 50.9261 10.3683C50.901 10.3018 50.8593 10.2437 50.7928 10.2023C50.7345 10.1525 50.6514 10.1275 50.5514 10.1109C50.4517 10.0944 50.3351 10.086 50.1937 10.086H49.3118V11.1898H50.1937C50.3602 11.1898 50.5016 11.1733 50.6012 11.1402ZM50.5266 9.28938C50.6097 9.26452 50.6762 9.2395 50.7263 9.19813C50.7762 9.16476 50.8176 9.11511 50.8345 9.05685C50.8593 8.99885 50.8677 8.92408 50.8677 8.84957C50.8677 8.78305 50.8593 8.72492 50.8345 8.66692C50.8176 8.61704 50.7762 8.56729 50.7263 8.52589C50.6846 8.49252 50.6179 8.45938 50.5348 8.43452C50.4517 8.4095 50.3517 8.40124 50.2269 8.40124H49.3118V9.32252H50.1937C50.3266 9.32252 50.4348 9.30602 50.5266 9.28938ZM51.0424 7.63776C51.2255 7.67929 51.3919 7.73755 51.5415 7.82031C51.6832 7.91168 51.7995 8.02782 51.8829 8.17736C51.966 8.32664 52.0077 8.51741 52.0077 8.74994C52.0077 8.88271 51.9992 8.99885 51.966 9.09025C51.9412 9.18975 51.8995 9.27277 51.8497 9.33916C51.7995 9.4139 51.7415 9.47193 51.6832 9.51343C51.6164 9.56318 51.5584 9.6048 51.4835 9.63795C51.7083 9.71271 51.8744 9.8371 51.9911 10.0114C52.1074 10.1856 52.1657 10.3849 52.1657 10.6255C52.1657 10.833 52.1325 11.0239 52.066 11.1898C51.9911 11.356 51.8911 11.5052 51.7581 11.6214C51.6249 11.7459 51.4666 11.8372 51.2753 11.9037C51.0841 11.9699 50.8759 12.0032 50.6429 12.0032H48.1633V7.58801H50.4517C50.6596 7.58801 50.8511 7.60452 51.0424 7.63776Z" fill="#212121"/>
<path d="M53.7302 10.2855C53.7634 10.4513 53.8218 10.6007 53.9133 10.7253C53.9964 10.858 54.1046 10.9659 54.2378 11.0407C54.3711 11.1155 54.5372 11.1568 54.7372 11.1568C54.9451 11.1568 55.1197 11.1155 55.253 11.0407C55.3862 10.9659 55.4944 10.858 55.5775 10.7336C55.6609 10.6091 55.7189 10.4681 55.7521 10.302C55.7856 10.1359 55.8023 9.97003 55.8023 9.79576C55.8023 9.62146 55.7856 9.45545 55.7521 9.28954C55.7189 9.12352 55.6609 8.97411 55.5775 8.84973C55.4944 8.72508 55.3862 8.62558 55.253 8.54256C55.1197 8.46779 54.9451 8.43468 54.7372 8.43468C54.5372 8.43468 54.3711 8.47617 54.2378 8.55094C54.1046 8.62558 53.9964 8.73333 53.9133 8.85798C53.8218 8.99075 53.7634 9.13178 53.7302 9.29779C53.697 9.4637 53.6719 9.62972 53.6719 9.79576C53.6719 9.96178 53.697 10.1277 53.7302 10.2855ZM52.632 8.85798C52.7317 8.56745 52.8815 8.31854 53.0812 8.111C53.2809 7.90359 53.5139 7.74583 53.7967 7.62956C54.0795 7.5134 54.3877 7.4554 54.7372 7.4554C55.095 7.4554 55.411 7.5134 55.6941 7.62956C55.9769 7.74583 56.2098 7.90359 56.4011 8.111C56.5926 8.31854 56.7425 8.56745 56.8507 8.85798C56.9504 9.14029 57.0002 9.45545 57.0002 9.79576C57.0002 10.1359 56.9504 10.4513 56.8507 10.7336C56.7425 11.024 56.5926 11.273 56.4011 11.4805C56.2098 11.6797 55.9769 11.8457 55.6941 11.962C55.411 12.0781 55.095 12.1362 54.7372 12.1362C54.3877 12.1362 54.0795 12.0781 53.7967 11.962C53.5139 11.8457 53.2809 11.6797 53.0812 11.4805C52.8815 11.273 52.7317 11.024 52.632 10.7336C52.5319 10.4513 52.4736 10.1359 52.4736 9.79576C52.4736 9.45545 52.5319 9.14029 52.632 8.85798Z" fill="#212121"/>
</g>
<defs>
<clipPath id="clip0_683_11918">
<rect width="57" height="16" fill="white"/>
</clipPath>
</defs>
</svg>
