<svg width="19" height="16" viewBox="0 0 19 16" fill="none" xmlns="http://www.w3.org/2000/svg">
<g clip-path="url(#clip0_683_11907)">
<path fill-rule="evenodd" clip-rule="evenodd" d="M4.46672 9.25234L0.319154 7.67194C-0.102106 7.51078 -0.105766 6.90361 0.314294 6.73822L17.336 0.0343315C17.6969 -0.108149 18.0692 0.214607 17.9906 0.601498L14.936 15.6025C14.864 15.9567 14.4572 16.1173 14.1701 15.9042L10.0002 12.8134C9.74697 12.6258 9.40179 12.6358 9.15944 12.8374L6.84752 14.7616C6.57914 14.9856 6.1748 14.8608 6.07208 14.5232L4.46672 9.25234ZM13.9193 3.31417L5.81336 8.41108C5.50268 8.60685 5.3564 8.98988 5.45678 9.34847L6.3332 12.4924C6.39542 12.7152 6.71217 12.6924 6.74235 12.4622L6.97023 10.7381C7.01319 10.4135 7.16487 10.1144 7.40001 9.89095L14.0897 3.54241C14.2148 3.42394 14.0649 3.22284 13.9193 3.31417Z" fill="#212121"/>
</g>
<defs>
<clipPath id="clip0_683_11907">
<rect width="19" height="16" fill="white"/>
</clipPath>
</defs>
</svg>
