<svg width="21" height="12" viewBox="0 0 21 12" fill="none" xmlns="http://www.w3.org/2000/svg">
<g clip-path="url(#clip0_683_11904)">
<path fill-rule="evenodd" clip-rule="evenodd" d="M19.5423 0.812561C19.6813 0.344174 19.5423 0 18.8806 0H16.6926C16.1363 0 15.8798 0.297315 15.7407 0.625168C15.7407 0.625168 14.628 3.3652 13.0517 5.14503C12.5418 5.66024 12.31 5.82416 12.0318 5.82416C11.8927 5.82416 11.6914 5.66024 11.6914 5.19189V0.812563C11.6914 0.250497 11.5299 0 11.0663 0H7.628C7.28033 0 7.07125 0.260868 7.07125 0.508101C7.07125 1.04093 7.85933 1.1638 7.94057 2.66264V5.91788C7.94057 6.63158 7.81299 6.76097 7.53482 6.76097C6.79308 6.76097 4.98878 4.0087 3.91866 0.85938C3.70895 0.247263 3.4986 0 2.93941 0H0.751401C0.126256 0 0.0012207 0.297315 0.0012207 0.625168C0.0012207 1.21066 0.743004 4.11462 3.45509 7.95531C5.26313 10.5782 7.81054 12 10.1286 12C11.5194 12 11.6914 11.6842 11.6914 11.1403V9.15789C11.6914 8.52632 11.8232 8.40027 12.2636 8.40027C12.5881 8.40027 13.1445 8.5642 14.4426 9.82882C15.9261 11.3276 16.1707 12 17.0052 12H19.1932C19.8183 12 20.1309 11.6842 19.9506 11.061C19.7533 10.4399 19.045 9.53876 18.1051 8.47052C17.5951 7.86163 16.8302 7.20593 16.5983 6.878C16.2738 6.45651 16.3666 6.26912 16.5983 5.89445C16.5983 5.89445 19.2641 2.10058 19.5423 0.812561Z" fill="#212121"/>
</g>
<defs>
<clipPath id="clip0_683_11904">
<rect width="21" height="12" fill="white"/>
</clipPath>
</defs>
</svg>
