<svg width="36" height="36" viewBox="0 0 36 36" fill="none" xmlns="http://www.w3.org/2000/svg">
<circle cx="18" cy="18" r="18" fill="#04B70A"/>
<path d="M19.3218 25.908L19.316 25.9343L19.316 14.6554L22.8695 18.2011C23.043 18.3747 23.278 18.4699 23.5247 18.4699C23.7713 18.4699 24.0047 18.3747 24.1786 18.2011L24.7306 17.6493C24.9041 17.4759 25 17.2447 25 16.9982C25 16.7515 24.9048 16.5202 24.7313 16.3467L18.6539 10.2687C18.4797 10.0946 18.2477 9.99932 18.0009 10C17.7527 9.99932 17.5206 10.0946 17.3467 10.2687L11.2687 16.3467C11.0954 16.5202 11 16.7514 11 16.9982C11 17.2447 11.0955 17.4759 11.2687 17.6493L11.8207 18.2011C11.9939 18.3747 12.2252 18.4699 12.4719 18.4699C12.7184 18.4699 12.9376 18.3747 13.1109 18.2011L16.6842 14.6154L16.6842 25.9206C16.6842 26.4286 17.1221 26.8554 17.6298 26.8554L18.4105 26.8554C18.9182 26.8554 19.3218 26.4159 19.3218 25.908Z" fill="white"/>
</svg>
