<svg width="64" height="64" viewBox="0 0 64 64" fill="none" xmlns="http://www.w3.org/2000/svg">
<g clip-path="url(#clip0_481_46217)">
<path d="M45.2799 18.197C44.9385 18.1965 44.6112 18.0606 44.3698 17.8192C44.1283 17.5777 43.9925 17.2504 43.9919 16.909V10.304C43.9885 8.25556 43.1732 6.29201 41.7246 4.84363C40.276 3.39525 38.3124 2.58017 36.2639 2.577C34.2155 2.58017 32.2518 3.39525 30.8033 4.84363C29.3547 6.29201 28.5394 8.25556 28.5359 10.304V16.909C28.5354 17.2503 28.3997 17.5774 28.1585 17.8188C27.9172 18.0602 27.5902 18.1962 27.2489 18.197C26.9075 18.1965 26.5802 18.0606 26.3388 17.8192C26.0973 17.5777 25.9615 17.2504 25.9609 16.909V10.304C25.9599 4.622 30.5819 0 36.2629 0C41.9439 0 46.5659 4.622 46.5659 10.303V16.908C46.5654 17.2493 46.4297 17.5764 46.1885 17.8178C45.9472 18.0592 45.6202 18.1952 45.2789 18.196L45.2799 18.197Z" fill="#E2E2E2"/>
<path d="M55.852 15.203V62.16C55.8524 62.3941 55.8066 62.6261 55.7172 62.8425C55.6278 63.059 55.4965 63.2556 55.331 63.4213C55.1655 63.5869 54.9689 63.7182 54.7525 63.8078C54.5361 63.8973 54.3042 63.9432 54.07 63.943H9.784C8.798 63.942 8 63.145 8 62.16V15.203C8 14.217 8.798 13.418 9.784 13.418H54.07C55.054 13.418 55.852 14.218 55.852 15.203Z" fill="#177DE6"/>
<path d="M55.7095 15.2601V62.2181C55.7095 63.2041 54.9165 64.0011 53.9395 64.0011H45.2695V13.4741H53.9415C54.9185 13.4741 55.7115 14.2741 55.7115 15.2591L55.7095 15.2601Z" fill="#2E88BB"/>
<path d="M36.2633 20.766C35.9221 20.7652 35.595 20.6292 35.3538 20.3878C35.1126 20.1464 34.9769 19.8193 34.9763 19.478V10.303C34.9729 8.25456 34.1576 6.29101 32.709 4.84263C31.2604 3.39425 29.2968 2.57917 27.2483 2.576C25.1999 2.57917 23.2362 3.39425 21.7877 4.84263C20.3391 6.29101 19.5238 8.25456 19.5203 10.303V19.478C19.5198 19.8194 19.3839 20.1467 19.1425 20.3882C18.9011 20.6296 18.5738 20.7655 18.2323 20.766C17.8909 20.7655 17.5636 20.6296 17.3222 20.3882C17.0807 20.1467 16.9449 19.8194 16.9443 19.478V10.303C16.9488 7.57168 18.0359 4.95353 19.9673 3.02229C21.8988 1.09105 24.517 0.00423091 27.2483 0C29.9795 0.00449529 32.5975 1.09143 34.5287 3.02264C36.4599 4.95386 37.5468 7.57186 37.5513 10.303V19.478C37.5508 19.8194 37.4149 20.1467 37.1735 20.3882C36.9321 20.6296 36.6048 20.7655 36.2633 20.766Z" fill="#D1D1D1"/>
<path d="M49.4805 13.4741H51.5005V64.0001H49.4805V13.4741Z" fill="#2F8CEB"/>
</g>
<defs>
<clipPath id="clip0_481_46217">
<rect width="64" height="64" fill="white"/>
</clipPath>
</defs>
</svg>
