<svg width="32" height="32" viewBox="0 0 32 32" fill="none" xmlns="http://www.w3.org/2000/svg">
<g clip-path="url(#clip0_481_25006)">
<g clip-path="url(#clip1_481_25006)">
<path d="M27.3879 27.8261C27.3879 29.2221 26.2959 30.3041 25.0079 30.3041C23.7199 30.3041 22.6279 29.2221 22.6279 27.8261C22.6279 26.4301 23.7199 25.3481 25.0079 25.3481C26.2959 25.3481 27.3879 26.4301 27.3879 27.8261Z" stroke="#177DE6" stroke-width="2"/>
<path d="M13.8699 27.8261C13.8699 29.2221 12.7779 30.3041 11.4899 30.3041C10.2019 30.3041 9.10986 29.2221 9.10986 27.8261C9.10986 26.4301 10.2019 25.3481 11.4899 25.3481C12.7779 25.3481 13.8699 26.4301 13.8699 27.8261Z" stroke="#177DE6" stroke-width="2"/>
<path d="M30.9232 5.10512C30.7952 4.95512 30.6102 4.87012 30.4162 4.87012H6.08323C5.71023 4.87012 5.40723 5.18012 5.40723 5.56512C5.40723 5.61212 5.41223 5.65812 5.42123 5.70512L8.12523 19.6181C8.15398 19.7732 8.23573 19.9134 8.3565 20.0149C8.47726 20.1163 8.62953 20.1726 8.78723 20.1741C8.81723 20.1761 8.84723 20.1761 8.87723 20.1741L29.1542 17.3911C29.4592 17.3491 29.6982 17.0911 29.7342 16.7871L31.0862 5.65712C31.099 5.55876 31.0909 5.45882 31.0627 5.36374C31.0345 5.26867 30.9876 5.18057 30.9232 5.10512Z" fill="#68B3FF"/>
<path d="M11.5002 17.3999C11.1702 17.3999 10.8882 17.1539 10.8342 16.8179L9.47217 8.46189C9.42217 8.08189 9.67217 7.73189 10.0522 7.67889C10.4062 7.62889 10.7372 7.87289 10.8062 8.23389L12.1582 16.5819C12.2182 16.9619 11.9702 17.3189 11.6022 17.3819C11.5659 17.3887 11.5291 17.392 11.4922 17.3919L11.5002 17.3999ZM14.8702 16.7059C14.5202 16.7069 14.2262 16.4329 14.1942 16.0729L13.5182 8.42089C13.4991 8.23959 13.5525 8.0581 13.6668 7.91608C13.7811 7.77405 13.947 7.68303 14.1282 7.66289C14.5052 7.62789 14.8342 7.90989 14.8682 8.29289L15.5442 15.9449C15.5627 16.1262 15.5087 16.3074 15.394 16.4491C15.2794 16.5907 15.1133 16.6812 14.9322 16.7009L14.8722 16.7069L14.8702 16.7059ZM18.2502 15.9999C17.8772 15.9999 17.5742 15.6879 17.5742 15.3039V8.34789C17.5742 7.96389 17.8772 7.65189 18.2502 7.65189C18.6232 7.65189 18.9262 7.95189 18.9262 8.34789V15.3039C18.9262 15.6879 18.6232 15.9999 18.2502 15.9999ZM21.6302 15.3039H21.5542C21.3734 15.2814 21.209 15.1883 21.0966 15.045C20.9842 14.9017 20.933 14.7198 20.9542 14.5389L21.6312 8.27089C21.6491 8.0896 21.7381 7.92278 21.8786 7.80682C22.0191 7.69085 22.1998 7.63516 22.3812 7.65189C22.7512 7.69389 23.0212 8.03789 22.9792 8.41989L22.3032 14.6799C22.2672 15.0339 21.9772 15.3029 21.6312 15.3029L21.6302 15.3039ZM25.0002 14.5999C24.6272 14.5999 24.3242 14.2879 24.3242 13.9039C24.3241 13.8473 24.3308 13.7909 24.3442 13.7359L25.6962 8.17089C25.7782 7.79589 26.1402 7.57089 26.5042 7.64489C26.8682 7.71889 27.0972 8.10189 27.0042 8.47489L25.6442 14.0709C25.6098 14.2196 25.5265 14.3525 25.4075 14.448C25.2885 14.5436 25.1408 14.5964 24.9882 14.5979L25.0002 14.5999Z" fill="white"/>
<path d="M27.712 22.9558H12.112C9.859 22.9508 7.92 21.3158 7.472 19.0418L4.177 2.0868H0.677C0.303 2.0868 0 1.7758 0 1.3898C0 1.0038 0.303 0.695801 0.676 0.695801H4.73C4.8877 0.697333 5.03996 0.753631 5.16073 0.855058C5.28149 0.956486 5.36325 1.09674 5.392 1.2518L8.798 18.7698C9.118 20.3938 10.502 21.5618 12.111 21.5668H27.711C28.084 21.5668 28.387 21.8768 28.387 22.2628C28.387 22.6488 28.084 22.9588 27.711 22.9588L27.712 22.9558Z" fill="#177DE6"/>
</g>
</g>
<defs>
<clipPath id="clip0_481_25006">
<rect width="32" height="32" fill="white"/>
</clipPath>
<clipPath id="clip1_481_25006">
<rect width="32" height="32" fill="white"/>
</clipPath>
</defs>
</svg>
