<svg width="32" height="32" viewBox="0 0 32 32" fill="none" xmlns="http://www.w3.org/2000/svg">
<g clip-path="url(#clip0_481_37236)">
<g clip-path="url(#clip1_481_37236)">
<g clip-path="url(#clip2_481_37236)">
<path d="M27.3883 27.8261C27.3883 29.2221 26.2963 30.3041 25.0093 30.3041C23.7223 30.3041 22.6303 29.2221 22.6303 27.8261C22.6303 26.4301 23.7223 25.3481 25.0103 25.3481C26.2983 25.3481 27.3883 26.4301 27.3883 27.8261ZM13.8703 27.8261C13.8703 29.2221 12.7783 30.3041 11.4913 30.3041C10.2043 30.3041 9.11133 29.2221 9.11133 27.8261C9.11133 26.4301 10.2033 25.3481 11.4913 25.3481C12.7793 25.3481 13.8713 26.4301 13.8713 27.8261H13.8703Z" stroke="#C93333" stroke-width="2"/>
<path d="M30.9232 5.10512C30.8606 5.03176 30.7829 4.97279 30.6954 4.93224C30.6079 4.89168 30.5127 4.87049 30.4162 4.87012H6.08323C5.71023 4.87012 5.40723 5.18112 5.40723 5.56512C5.40723 5.61212 5.41223 5.65812 5.42123 5.70412L8.12523 19.6171C8.15398 19.7722 8.23573 19.9124 8.3565 20.0139C8.47726 20.1153 8.62953 20.1716 8.78723 20.1731C8.81723 20.1751 8.84623 20.1751 8.87623 20.1731L29.1532 17.3901C29.4582 17.3481 29.6962 17.1001 29.7342 16.7861L31.0862 5.65612C31.099 5.55776 31.0909 5.45782 31.0627 5.36274C31.0345 5.26767 30.9866 5.17957 30.9222 5.10412L30.9232 5.10512Z" fill="#FF7373"/>
<path d="M11.49 17.3912C11.16 17.3912 10.878 17.1452 10.824 16.8092L9.472 8.46223C9.422 8.08123 9.681 7.73123 10.051 7.67923C10.2238 7.65755 10.3984 7.70304 10.5387 7.80631C10.679 7.90957 10.7743 8.06275 10.805 8.23423L12.157 16.5822C12.218 16.9612 11.969 17.3192 11.601 17.3822C11.564 17.3892 11.527 17.3912 11.49 17.3912ZM14.87 16.6962C14.519 16.6972 14.226 16.4232 14.194 16.0632L13.518 8.41123C13.4989 8.22993 13.5524 8.04844 13.6667 7.90641C13.781 7.76439 13.9468 7.67336 14.128 7.65323C14.505 7.61823 14.834 7.90023 14.867 8.28323L15.543 15.9352C15.5615 16.1165 15.5075 16.2978 15.3929 16.4394C15.2782 16.581 15.1122 16.6716 14.931 16.6912L14.87 16.6972V16.6962ZM18.25 16.0002C17.877 16.0002 17.574 15.6882 17.574 15.3042V8.34823C17.574 7.96423 17.877 7.65223 18.25 7.65223C18.623 7.65223 18.926 7.96323 18.926 8.34823V15.3042C18.926 15.6882 18.623 16.0002 18.25 16.0002ZM21.629 15.3042H21.553C21.182 15.2642 20.913 14.9212 20.952 14.5392L21.629 8.27123C21.647 8.08994 21.7359 7.92312 21.8764 7.80715C22.0169 7.69119 22.1976 7.6355 22.379 7.65223C22.75 7.69423 23.018 8.03823 22.977 8.42023L22.301 14.6812C22.265 15.0352 21.975 15.3042 21.629 15.3042ZM25.008 14.6092C24.635 14.6092 24.332 14.2972 24.332 13.9132C24.3321 13.8566 24.3388 13.8003 24.352 13.7452L25.704 8.18023C25.786 7.80523 26.148 7.57023 26.512 7.65423C26.876 7.73823 27.105 8.11123 27.023 8.48523L25.664 14.0812C25.6297 14.2299 25.5463 14.3628 25.4273 14.4584C25.3083 14.554 25.1606 14.6068 25.008 14.6082V14.6092Z" fill="white"/>
<path d="M27.712 22.9558H12.111C9.858 22.9508 7.919 21.3148 7.472 19.0418L4.177 2.0868H0.676C0.303 2.0868 0 1.7758 0 1.3908C0 1.0058 0.303 0.695801 0.676 0.695801H4.731C4.8887 0.697333 5.04096 0.753631 5.16173 0.855058C5.28249 0.956486 5.36425 1.09674 5.393 1.2518L8.797 18.7678C9.116 20.3918 10.501 21.5598 12.11 21.5648H27.711C28.084 21.5648 28.387 21.8758 28.387 22.2608C28.387 22.6458 28.084 22.9568 27.711 22.9568L27.712 22.9558Z" fill="#C93333"/>
</g>
</g>
</g>
<defs>
<clipPath id="clip0_481_37236">
<rect width="32" height="32" fill="white"/>
</clipPath>
<clipPath id="clip1_481_37236">
<rect width="32" height="32" fill="white"/>
</clipPath>
<clipPath id="clip2_481_37236">
<rect width="32" height="32" fill="white"/>
</clipPath>
</defs>
</svg>
