<svg width="20" height="14" viewBox="0 0 20 14" fill="none" xmlns="http://www.w3.org/2000/svg">
<path d="M16.7812 6.09375C18.625 6.46875 20 8.09375 20 10C20 12.2188 18.1875 14 16 14H4.5C2 14 0 12 0 9.5C0 7.5625 1.25 5.875 3 5.28125C3 5.1875 3 5.09375 3 5C3 2.25 5.21875 0 8 0C9.84375 0 11.4688 1.03125 12.3125 2.53125C12.7812 2.1875 13.375 2 14 2C15.6562 2 17 3.34375 17 5C17 5.40625 16.9062 5.75 16.7812 6.09375ZM12.625 8.875C12.9375 8.5625 12.7188 8 12.2812 8H10.25V4.5C10.25 4.25 10 4 9.75 4H8.25C7.96875 4 7.75 4.25 7.75 4.5V8H5.6875C5.25 8 5.03125 8.5625 5.34375 8.875L8.625 12.1562C8.8125 12.3438 9.15625 12.3438 9.34375 12.1562L12.625 8.875Z" fill="#007BFB"/>
</svg>
