<svg width="24" height="24" viewBox="0 0 24 24" fill="none" xmlns="http://www.w3.org/2000/svg">
<path d="M12 0.5C18.3513 0.5 23.5 5.64873 23.5 12C23.5 18.3513 18.3513 23.5 12 23.5C5.64873 23.5 0.5 18.3513 0.5 12C0.5 5.64873 5.64873 0.5 12 0.5Z" fill="#818C99" stroke="white"/>
<path d="M15.7891 8.21088C16.0703 8.49206 16.0703 8.94794 15.7891 9.22912L13.0184 12L15.7891 14.7709C16.0469 15.0286 16.0683 15.4332 15.8536 15.7154L15.7891 15.7891C15.5079 16.0703 15.0521 16.0703 14.7709 15.7891L12 13.0184L9.22912 15.7891C8.94794 16.0703 8.49206 16.0703 8.21088 15.7891C7.92971 15.5079 7.92971 15.0521 8.21088 14.7709L10.9816 12L8.21088 9.22912C7.95314 8.97137 7.93166 8.56683 8.14645 8.28461L8.21088 8.21088C8.49206 7.92971 8.94794 7.92971 9.22912 8.21088L12 10.9816L14.7709 8.21088C15.0521 7.92971 15.5079 7.92971 15.7891 8.21088Z" fill="white"/>
</svg>
