<?xml version="1.0" encoding="UTF-8"?>
<!DOCTYPE svg PUBLIC "-//W3C//DTD SVG 1.1//EN" "http://www.w3.org/Graphics/SVG/1.1/DTD/svg11.dtd">
<svg xmlns="http://www.w3.org/2000/svg" version="1.1" width="512px" height="512px" style="shape-rendering:geometricPrecision; text-rendering:geometricPrecision; image-rendering:optimizeQuality; fill-rule:evenodd; clip-rule:evenodd" xmlns:xlink="http://www.w3.org/1999/xlink">
<g><path style="opacity:0.998" fill="#e7ebee" d="M 367.5,8.5 C 366.833,22.9962 366.5,37.6628 366.5,52.5C 366.348,67.9227 366.848,83.256 368,98.5C 368.903,99.7014 370.069,100.535 371.5,101C 401.003,101.83 430.336,101.664 459.5,100.5C 460.666,225.666 460.833,350.999 460,476.5C 456.276,491.558 446.776,500.392 431.5,503C 331.167,503.667 230.833,503.667 130.5,503C 115.448,499.615 105.948,490.449 102,475.5C 101.501,470.511 101.334,465.511 101.5,460.5C 102.497,443.675 102.83,426.675 102.5,409.5C 197.668,409.833 292.668,409.499 387.5,408.5C 399.399,406.435 406.566,399.435 409,387.5C 409.667,344.833 409.667,302.167 409,259.5C 406.265,249.098 399.765,242.264 389.5,239C 293.332,238.833 197.332,238.333 101.5,237.5C 101.333,170.166 101.5,102.833 102,35.5C 105.948,20.5514 115.448,11.3848 130.5,8C 209.668,7.16772 288.668,7.33439 367.5,8.5 Z"/></g>
<g><path style="opacity:1" fill="#c7d0dd" d="M 367.5,8.5 C 398.5,38.8333 429.167,69.5 459.5,100.5C 430.336,101.664 401.003,101.83 371.5,101C 370.069,100.535 368.903,99.7014 368,98.5C 366.848,83.256 366.348,67.9227 366.5,52.5C 366.5,37.6628 366.833,22.9962 367.5,8.5 Z"/></g>
<g><path style="opacity:0.999" fill="#61c161" d="M 101.5,237.5 C 197.332,238.333 293.332,238.833 389.5,239C 399.765,242.264 406.265,249.098 409,259.5C 409.667,302.167 409.667,344.833 409,387.5C 406.566,399.435 399.399,406.435 387.5,408.5C 291.999,408.167 196.665,408.501 101.5,409.5C 89.7707,409.088 78.1041,409.588 66.5,411C 58.4814,414.887 53.1481,421.053 50.5,429.5C 50.3333,372.166 50.5,314.832 51,257.5C 54.7574,245.405 62.924,238.905 75.5,238C 84.1603,237.5 92.8269,237.334 101.5,237.5 Z"/></g>
<g><path style="opacity:1" fill="#fcfefc" d="M 137.5,272.5 C 157.488,271.235 170.988,279.902 178,298.5C 178.667,302.167 178.667,305.833 178,309.5C 173.814,316.538 168.814,317.205 163,311.5C 162.678,298.851 156.344,291.518 144,289.5C 136.408,290.418 131.074,294.418 128,301.5C 127.333,316.167 127.333,330.833 128,345.5C 132.74,356.783 140.907,360.283 152.5,356C 158.944,351.615 162.11,345.448 162,337.5C 164.587,332.932 168.421,331.432 173.5,333C 175.667,333.833 177.167,335.333 178,337.5C 179.084,356.823 170.25,368.99 151.5,374C 130.135,376.402 116.635,367.235 111,346.5C 110.058,329.447 110.391,312.447 112,295.5C 117.255,284.071 125.755,276.404 137.5,272.5 Z"/></g>
<g><path style="opacity:1" fill="#fcfefc" d="M 222.5,272.5 C 239.873,270.94 253.373,277.273 263,291.5C 264.5,300.667 260.667,304.5 251.5,303C 248.377,299.387 245.044,296.054 241.5,293C 230.017,286.789 220.517,288.955 213,299.5C 211.798,303.793 212.965,307.293 216.5,310C 228.6,314.026 240.6,318.359 252.5,323C 262.28,330.08 265.78,339.58 263,351.5C 259.231,364.264 250.731,371.764 237.5,374C 217.825,377.165 203.825,369.832 195.5,352C 197.924,343.623 202.924,341.623 210.5,346C 219.282,358.527 230.282,360.86 243.5,353C 247.793,347.318 247.459,341.984 242.5,337C 233.921,334.022 225.255,331.356 216.5,329C 196.238,320.208 191.071,306.041 201,286.5C 206.894,279.651 214.061,274.984 222.5,272.5 Z"/></g>
<g><path style="opacity:1" fill="#fcfefc" d="M 286.5,272.5 C 291.814,271.74 295.647,273.74 298,278.5C 303.667,297.5 309.333,316.5 315,335.5C 320.998,316.178 326.998,296.845 333,277.5C 338.71,270.67 344.043,271.003 349,278.5C 349.667,280.167 349.667,281.833 349,283.5C 340.512,311.121 332.178,338.787 324,366.5C 322.58,373.588 318.413,376.088 311.5,374C 309.185,372.891 307.685,371.057 307,368.5C 298.667,340.5 290.333,312.5 282,284.5C 280.474,279.239 281.974,275.239 286.5,272.5 Z"/></g>
<g><path style="opacity:0.993" fill="#5aa063" d="M 101.5,409.5 C 101.5,426.5 101.5,443.5 101.5,460.5C 90.8281,460.667 80.1615,460.5 69.5,460C 55.197,454.909 48.8637,444.743 50.5,429.5C 53.1481,421.053 58.4814,414.887 66.5,411C 78.1041,409.588 89.7707,409.088 101.5,409.5 Z"/></g>
<g><path style="opacity:1" fill="#a4cfa9" d="M 387.5,408.5 C 292.668,409.499 197.668,409.833 102.5,409.5C 102.83,426.675 102.497,443.675 101.5,460.5C 101.5,443.5 101.5,426.5 101.5,409.5C 196.665,408.501 291.999,408.167 387.5,408.5 Z"/></g>
</svg>
