<?xml version="1.0" encoding="UTF-8"?>
<!DOCTYPE svg PUBLIC "-//W3C//DTD SVG 1.1//EN" "http://www.w3.org/Graphics/SVG/1.1/DTD/svg11.dtd">
<svg xmlns="http://www.w3.org/2000/svg" version="1.1" width="512px" height="512px" style="shape-rendering:geometricPrecision; text-rendering:geometricPrecision; image-rendering:optimizeQuality; fill-rule:evenodd; clip-rule:evenodd" xmlns:xlink="http://www.w3.org/1999/xlink">
<g><path style="opacity:0.997" fill="#e1e6e9" d="M 97.5,-0.5 C 187.833,-0.5 278.167,-0.5 368.5,-0.5C 368.5,29.5 368.5,59.5 368.5,89.5C 374.5,89.5 380.5,89.5 386.5,89.5C 410.568,104.224 434.901,118.557 459.5,132.5C 459.5,182.167 459.5,231.833 459.5,281.5C 459.167,281.5 458.833,281.5 458.5,281.5C 333.167,281.5 207.833,281.5 82.5,281.5C 82.3333,192.833 82.5,104.166 83,15.5C 84.9469,7.39321 89.7802,2.05987 97.5,-0.5 Z"/></g>
<g><path style="opacity:1" fill="#eaeff2" d="M 368.5,-0.5 C 368.833,-0.5 369.167,-0.5 369.5,-0.5C 399.167,29.5 428.833,59.5 458.5,89.5C 434.5,89.5 410.5,89.5 386.5,89.5C 380.5,89.5 374.5,89.5 368.5,89.5C 368.5,59.5 368.5,29.5 368.5,-0.5 Z"/></g>
<g><path style="opacity:1" fill="#d5d6db" d="M 386.5,89.5 C 410.5,89.5 434.5,89.5 458.5,89.5C 459.496,103.657 459.829,117.99 459.5,132.5C 434.901,118.557 410.568,104.224 386.5,89.5 Z"/></g>
<g><path style="opacity:0.997" fill="#28a2db" d="M 82.5,281.5 C 207.833,281.5 333.167,281.5 458.5,281.5C 458.5,328.167 458.5,374.833 458.5,421.5C 333.5,421.5 208.5,421.5 83.5,421.5C 72.9865,421.172 62.6532,421.506 52.5,422.5C 51.5012,375.67 51.1679,328.67 51.5,281.5C 61.8333,281.5 72.1667,281.5 82.5,281.5 Z"/></g>
<g><path style="opacity:1" fill="#e8eff2" d="M 260.5,307.5 C 287.126,304.711 304.959,315.711 314,340.5C 318.239,368.892 306.739,387.059 279.5,395C 252.041,398.868 234.208,387.701 226,361.5C 222.65,333.842 234.15,315.842 260.5,307.5 Z"/></g>
<g><path style="opacity:1" fill="#e7eef2" d="M 363.5,307.5 C 380.652,305.277 395.318,310.111 407.5,322C 404.267,325.233 401.1,328.4 398,331.5C 385.466,320.372 371.632,318.539 356.5,326C 344.126,335.293 340.293,347.459 345,362.5C 355.226,382.129 370.393,386.962 390.5,377C 392.388,374.81 394.555,372.977 397,371.5C 399.667,374.167 402.333,376.833 405,379.5C 405.667,380.5 405.667,381.5 405,382.5C 387.348,398.137 368.181,400.304 347.5,389C 331.555,377.107 325.388,361.274 329,341.5C 334.411,323.922 345.911,312.588 363.5,307.5 Z"/></g>
<g><path style="opacity:1" fill="#e9eff2" d="M 134.5,309.5 C 150.912,308.992 167.245,309.825 183.5,312C 201.959,318.636 211.293,331.802 211.5,351.5C 211.148,375.676 199.148,389.843 175.5,394C 161.865,395.284 148.199,395.784 134.5,395.5C 134.5,366.833 134.5,338.167 134.5,309.5 Z"/></g>
<g><path style="opacity:1" fill="#2ba2db" d="M 263.5,320.5 C 282.385,319.026 294.551,327.359 300,345.5C 301.001,371.499 288.501,383.666 262.5,382C 245.732,375.643 238.232,363.476 240,345.5C 243.607,333.063 251.441,324.73 263.5,320.5 Z"/></g>
<g><path style="opacity:1" fill="#68bbe3" d="M 171.5,323.5 C 164.167,323.5 156.833,323.5 149.5,323.5C 149.5,342.833 149.5,362.167 149.5,381.5C 148.503,362.007 148.17,342.34 148.5,322.5C 156.352,322.175 164.018,322.508 171.5,323.5 Z"/></g>
<g><path style="opacity:1" fill="#28a2db" d="M 171.5,323.5 C 192.071,327.253 200.238,339.586 196,360.5C 193.732,370.106 187.898,376.606 178.5,380C 168.884,381.324 159.217,381.824 149.5,381.5C 149.5,362.167 149.5,342.833 149.5,323.5C 156.833,323.5 164.167,323.5 171.5,323.5 Z"/></g>
<g><path style="opacity:1" fill="#8bc6e2" d="M 458.5,281.5 C 458.833,281.5 459.167,281.5 459.5,281.5C 459.5,328.5 459.5,375.5 459.5,422.5C 334.167,422.5 208.833,422.5 83.5,422.5C 83.5,422.167 83.5,421.833 83.5,421.5C 208.5,421.5 333.5,421.5 458.5,421.5C 458.5,374.833 458.5,328.167 458.5,281.5 Z"/></g>
<g><path style="opacity:0.938" fill="#2f94bb" d="M 83.5,421.5 C 83.5,421.833 83.5,422.167 83.5,422.5C 83.8269,432.015 83.4936,441.348 82.5,450.5C 72.1726,441.506 62.1726,432.172 52.5,422.5C 62.6532,421.506 72.9865,421.172 83.5,421.5 Z"/></g>
<g><path style="opacity:0.996" fill="#e0e6e8" d="M 83.5,422.5 C 208.833,422.5 334.167,422.5 459.5,422.5C 459.667,445.836 459.5,469.169 459,492.5C 457.704,501.619 452.87,507.952 444.5,511.5C 328.833,511.5 213.167,511.5 97.5,511.5C 89.7802,508.94 84.9469,503.607 83,495.5C 82.5001,480.504 82.3334,465.504 82.5,450.5C 83.4936,441.348 83.8269,432.015 83.5,422.5 Z"/></g>
</svg>
