<?xml version="1.0" encoding="UTF-8"?>
<!DOCTYPE svg PUBLIC "-//W3C//DTD SVG 1.1//EN" "http://www.w3.org/Graphics/SVG/1.1/DTD/svg11.dtd">
<svg xmlns="http://www.w3.org/2000/svg" version="1.1" width="512px" height="512px" style="shape-rendering:geometricPrecision; text-rendering:geometricPrecision; image-rendering:optimizeQuality; fill-rule:evenodd; clip-rule:evenodd" xmlns:xlink="http://www.w3.org/1999/xlink">
<g><path style="opacity:0.999" fill="#e1e4e6" d="M 119.5,-0.5 C 196.833,-0.5 274.167,-0.5 351.5,-0.5C 351.333,33.835 351.5,68.1683 352,102.5C 357.231,118.243 368.065,126.576 384.5,127.5C 415.833,159.5 447.5,191.167 479.5,222.5C 479.667,310.834 479.5,399.167 479,487.5C 477.608,493.214 474.941,498.214 471,502.5C 466.4,506.626 461.234,509.626 455.5,511.5C 343.5,511.5 231.5,511.5 119.5,511.5C 110.081,508.252 102.914,502.252 98,493.5C 97.3333,491.5 96.6667,489.5 96,487.5C 95.5001,474.171 95.3334,460.837 95.5,447.5C 198.167,447.667 300.834,447.5 403.5,447C 408.185,445.65 411.685,442.817 414,438.5C 415.377,431.924 415.877,425.257 415.5,418.5C 415.667,362.832 415.5,307.166 415,251.5C 413.65,246.815 410.817,243.315 406.5,241C 302.89,239.507 199.223,239.007 95.5,239.5C 95.3333,167.499 95.5,95.4992 96,23.5C 97.3923,17.7863 100.059,12.7863 104,8.5C 108.6,4.37379 113.766,1.37379 119.5,-0.5 Z"/></g>
<g><path style="opacity:1" fill="#b0b7bd" d="M 351.5,-0.5 C 351.833,-0.5 352.167,-0.5 352.5,-0.5C 394.5,41.8333 436.5,84.1667 478.5,126.5C 447.338,127.498 416.004,127.832 384.5,127.5C 368.065,126.576 357.231,118.243 352,102.5C 351.5,68.1683 351.333,33.835 351.5,-0.5 Z"/></g>
<g><path style="opacity:1" fill="#c9d0d7" d="M 478.5,126.5 C 479.498,158.329 479.832,190.329 479.5,222.5C 447.5,191.167 415.833,159.5 384.5,127.5C 416.004,127.832 447.338,127.498 478.5,126.5 Z"/></g>
<g><path style="opacity:1" fill="#84bd5a" d="M 95.5,239.5 C 199.223,239.007 302.89,239.507 406.5,241C 410.817,243.315 413.65,246.815 415,251.5C 415.5,307.166 415.667,362.832 415.5,418.5C 413.68,425.151 409.347,429.318 402.5,431C 300.167,431.5 197.834,431.667 95.5,431.5C 77.4969,431.667 59.4969,431.5 41.5,431C 37,429.167 33.8333,426 32,421.5C 31.3333,364.167 31.3333,306.833 32,249.5C 33.8333,245 37,241.833 41.5,240C 59.4969,239.5 77.4969,239.333 95.5,239.5 Z"/></g>
<g><path style="opacity:1" fill="#fdfdfc" d="M 293.5,291.5 C 305.396,290.156 316.73,291.99 327.5,297C 332.068,299.587 333.568,303.421 332,308.5C 330.179,311.991 327.346,313.157 323.5,312C 314.813,306.871 305.48,305.204 295.5,307C 286.349,311.745 285.349,317.745 292.5,325C 304.156,329.33 315.822,333.663 327.5,338C 337.446,344.154 340.946,352.987 338,364.5C 335.193,374.64 328.693,381.14 318.5,384C 304.315,387.852 290.649,386.518 277.5,380C 271.397,376.96 269.231,372.126 271,365.5C 273.412,362.208 276.579,361.041 280.5,362C 290.605,368.946 301.605,371.279 313.5,369C 322.205,365.4 324.205,359.733 319.5,352C 306.869,347.004 294.202,342.004 281.5,337C 270.848,327.924 268.681,317.091 275,304.5C 279.914,298.301 286.08,293.967 293.5,291.5 Z"/></g>
<g><path style="opacity:1" fill="#fcfdfc" d="M 112.5,294.5 C 114.989,294.298 117.323,294.798 119.5,296C 128.024,305.556 136.191,315.39 144,325.5C 152.153,315.016 160.653,304.849 169.5,295C 178.376,294.873 181.543,299.039 179,307.5C 170.976,317.357 163.143,327.357 155.5,337.5C 163.76,348.349 172.26,359.016 181,369.5C 184.362,380.468 180.529,384.635 169.5,382C 160.643,371.311 151.977,360.478 143.5,349.5C 135.53,360.604 127.197,371.437 118.5,382C 111.453,384.976 106.786,382.81 104.5,375.5C 105.054,373.39 105.888,371.39 107,369.5C 115.69,358.977 124.19,348.311 132.5,337.5C 123.43,327.266 114.93,316.599 107,305.5C 106.176,300.482 108.009,296.815 112.5,294.5 Z"/></g>
<g><path style="opacity:1" fill="#fcfdfb" d="M 200.5,295.5 C 205.223,294.553 209.056,295.886 212,299.5C 212.5,321.831 212.667,344.164 212.5,366.5C 224.505,366.333 236.505,366.5 248.5,367C 255.05,368.213 257.55,372.047 256,378.5C 255.07,380.552 253.57,382.052 251.5,383C 234.833,383.667 218.167,383.667 201.5,383C 198.892,381.622 197.392,379.455 197,376.5C 196.333,351.167 196.333,325.833 197,300.5C 197.997,298.677 199.164,297.01 200.5,295.5 Z"/></g>
<g><path style="opacity:1" fill="#cad1d7" d="M 415.5,418.5 C 415.877,425.257 415.377,431.924 414,438.5C 411.685,442.817 408.185,445.65 403.5,447C 300.834,447.5 198.167,447.667 95.5,447.5C 95.5,442.167 95.5,436.833 95.5,431.5C 197.834,431.667 300.167,431.5 402.5,431C 409.347,429.318 413.68,425.151 415.5,418.5 Z"/></g>
</svg>
