<svg width="18" height="24" viewBox="0 0 18 24" fill="none" xmlns="http://www.w3.org/2000/svg">
<g clip-path="url(#clip0_1155_11753)">
<g clip-path="url(#clip1_1155_11753)">
<mask id="mask0_1155_11753" style="mask-type:luminance" maskUnits="userSpaceOnUse" x="0" y="0" width="18" height="24">
<path d="M18 0H0V24H18V0Z" fill="white"/>
</mask>
<g mask="url(#mask0_1155_11753)">
<path opacity="0.5" fill-rule="evenodd" clip-rule="evenodd" d="M2 22.8H16C16.4418 22.8 16.8 22.4418 16.8 22V4.82843C16.8 4.61625 16.7157 4.41277 16.5657 4.26274L13.7373 1.43431C13.5872 1.28429 13.3837 1.2 13.1716 1.2H2C1.55817 1.2 1.2 1.55817 1.2 2V22C1.2 22.4418 1.55817 22.8 2 22.8ZM2 0C0.895431 0 0 0.89543 0 2V22C0 23.1046 0.89543 24 2 24H16C17.1046 24 18 23.1046 18 22V4.82843C18 4.29799 17.7893 3.78929 17.4142 3.41421L14.5858 0.585786C14.2107 0.210714 13.702 0 13.1716 0H2Z" fill="#F15B5B"/>
<path d="M0 11H18V20H0V11Z" fill="#F15B5B"/>
<path d="M5.87578 14.3425C5.87578 14.9537 5.67559 15.4222 5.2752 15.7479C4.8748 16.0735 4.30492 16.2363 3.56553 16.2363H2.95693V18.4265H2V12.5728H3.68564C4.41702 12.5728 4.96423 12.7222 5.32725 13.0212C5.69294 13.3201 5.87578 13.7606 5.87578 14.3425ZM2.95693 15.4315H3.46543C3.95658 15.4315 4.31693 15.3461 4.54648 15.1753C4.77604 15.0045 4.89082 14.7375 4.89082 14.3745C4.89082 14.0382 4.78805 13.7873 4.58252 13.6218C4.37699 13.4563 4.05667 13.3735 3.62158 13.3735H2.95693V15.4315Z" fill="white"/>
<path d="M11.8056 15.4436C11.8056 16.4098 11.5373 17.1492 11.0008 17.6617C10.4643 18.1715 9.6915 18.4265 8.68252 18.4265H7.04492V12.5728H8.85469C9.78626 12.5728 10.511 12.8237 11.0288 13.3255C11.5466 13.8273 11.8056 14.5333 11.8056 15.4436ZM10.7966 15.4756C10.7966 14.0742 10.1413 13.3735 8.83066 13.3735H8.00186V17.6217H8.68252C10.0919 17.6217 10.7966 16.9063 10.7966 15.4756Z" fill="white"/>
<path d="M14.0153 18.4265H13.0664V12.5728H16.3696V13.3815H14.0153V15.2113H16.2215V16.0241H14.0153V18.4265Z" fill="white"/>
</g>
</g>
</g>
<defs>
<clipPath id="clip0_1155_11753">
<rect width="18" height="24" fill="white"/>
</clipPath>
<clipPath id="clip1_1155_11753">
<rect width="18" height="24" fill="white"/>
</clipPath>
</defs>
</svg>
