<?xml version="1.0" encoding="UTF-8"?>
<!DOCTYPE svg PUBLIC "-//W3C//DTD SVG 1.1//EN" "http://www.w3.org/Graphics/SVG/1.1/DTD/svg11.dtd">
<svg xmlns="http://www.w3.org/2000/svg" version="1.1" width="512px" height="512px" style="shape-rendering:geometricPrecision; text-rendering:geometricPrecision; image-rendering:optimizeQuality; fill-rule:evenodd; clip-rule:evenodd" xmlns:xlink="http://www.w3.org/1999/xlink">
<g><path style="opacity:1" fill="#7eadf3" d="M 91.5,-0.5 C 171.5,-0.5 251.5,-0.5 331.5,-0.5C 331.5,16.1667 331.5,32.8333 331.5,49.5C 279.167,101.167 227.167,153.167 175.5,205.5C 166.827,205.334 158.16,205.5 149.5,206C 147.667,207.167 146.167,208.667 145,210.5C 144.5,220.161 144.334,229.828 144.5,239.5C 143.778,239.082 143.278,238.416 143,237.5C 118.333,262.167 93.6667,286.833 69,311.5C 68.8213,315.025 68.3213,318.359 67.5,321.5C 67.3333,222.833 67.5,124.166 68,25.5C 71.1471,12.523 78.9804,3.85631 91.5,-0.5 Z"/></g>
<g><path style="opacity:0.994" fill="#a5c5fc" d="M 333.5,-0.5 C 333.833,-0.5 334.167,-0.5 334.5,-0.5C 341.351,1.92823 347.684,5.42823 353.5,10C 363.369,19.7016 373.036,29.5349 382.5,39.5C 380.983,39.4894 379.816,38.8228 379,37.5C 363.667,52.8333 348.333,68.1667 333,83.5C 332.176,55.428 332.343,27.428 333.5,-0.5 Z"/></g>
<g><path style="opacity:0.998" fill="#9bbdfa" d="M 331.5,-0.5 C 332.167,-0.5 332.833,-0.5 333.5,-0.5C 332.343,27.428 332.176,55.428 333,83.5C 348.333,68.1667 363.667,52.8333 379,37.5C 379.816,38.8228 380.983,39.4894 382.5,39.5C 385.5,41.8333 388.167,44.5 390.5,47.5C 372.551,67.1161 353.885,86.1161 334.5,104.5C 334.167,104.5 333.833,104.5 333.5,104.5C 333.291,103.078 332.791,101.745 332,100.5C 331.5,83.5033 331.333,66.5033 331.5,49.5C 331.5,32.8333 331.5,16.1667 331.5,-0.5 Z"/></g>
<g><path style="opacity:1" fill="#79aaf4" d="M 331.5,49.5 C 331.333,66.5033 331.5,83.5033 332,100.5C 332.791,101.745 333.291,103.078 333.5,104.5C 299.5,137.833 265.833,171.5 232.5,205.5C 213.5,205.5 194.5,205.5 175.5,205.5C 227.167,153.167 279.167,101.167 331.5,49.5 Z"/></g>
<g><path style="opacity:0.997" fill="#92b8f8" d="M 390.5,47.5 C 393.5,49.8333 396.167,52.5 398.5,55.5C 398.631,56.2389 398.464,56.9056 398,57.5C 380.632,74.7014 363.465,92.0348 346.5,109.5C 345.5,109.5 344.5,109.5 343.5,109.5C 342.5,109.5 341.5,109.5 340.5,109.5C 338.131,108.31 336.131,106.643 334.5,104.5C 353.885,86.1161 372.551,67.1161 390.5,47.5 Z"/></g>
<g><path style="opacity:0.996" fill="#88b2f6" d="M 398.5,55.5 C 403.5,59.8333 408.167,64.5 412.5,69.5C 399.5,82.8333 386.5,96.1667 373.5,109.5C 364.5,109.5 355.5,109.5 346.5,109.5C 363.465,92.0348 380.632,74.7014 398,57.5C 398.464,56.9056 398.631,56.2389 398.5,55.5 Z"/></g>
<g><path style="opacity:0.994" fill="#7fadf4" d="M 412.5,69.5 C 420.828,76.9953 428.662,84.9953 436,93.5C 438.937,97.3736 440.771,101.707 441.5,106.5C 441.5,107.5 441.5,108.5 441.5,109.5C 418.833,109.5 396.167,109.5 373.5,109.5C 386.5,96.1667 399.5,82.8333 412.5,69.5 Z"/></g>
<g><path style="opacity:1" fill="#73a6f2" d="M 333.5,104.5 C 333.833,104.5 334.167,104.5 334.5,104.5C 336.131,106.643 338.131,108.31 340.5,109.5C 345.481,116.166 351.481,122.499 358.5,128.5C 359.5,129.833 360.5,131.167 361.5,132.5C 337.5,156.833 313.5,181.167 289.5,205.5C 270.5,205.5 251.5,205.5 232.5,205.5C 265.833,171.5 299.5,137.833 333.5,104.5 Z"/></g>
<g><path style="opacity:1" fill="#5986db" d="M 340.5,109.5 C 341.5,109.5 342.5,109.5 343.5,109.5C 364.329,110.332 385.329,110.832 406.5,111C 402.012,112.016 398.512,113.849 396,116.5C 395.667,116.167 395.333,115.833 395,115.5C 387.415,118.672 379.415,121.672 371,124.5C 369.853,123.542 368.853,123.875 368,125.5C 367.667,125.167 367.333,124.833 367,124.5C 364.705,124.689 362.705,126.023 361,128.5C 360.23,127.402 359.397,127.402 358.5,128.5C 351.481,122.499 345.481,116.166 340.5,109.5 Z"/></g>
<g><path style="opacity:1" fill="#5e90e5" d="M 441.5,106.5 C 442.29,107.609 442.79,108.942 443,110.5C 443.499,115.155 443.666,119.821 443.5,124.5C 441.815,125.709 440.148,126.709 438.5,127.5C 437.197,126.282 436.197,126.615 435.5,128.5C 434.197,127.282 433.197,127.615 432.5,129.5C 431.197,128.282 430.197,128.615 429.5,130.5C 428.197,129.282 427.197,129.615 426.5,131.5C 425.833,131.167 425.167,130.833 424.5,130.5C 424.167,131.167 423.833,131.833 423.5,132.5C 422.017,130.054 420.851,130.388 420,133.5C 418.84,131.203 417.84,131.536 417,134.5C 415.84,132.203 414.84,132.536 414,135.5C 412.84,133.203 411.84,133.536 411,136.5C 409.84,134.203 408.84,134.536 408,137.5C 406.887,136.289 405.72,136.289 404.5,137.5C 403.749,136.624 403.249,135.624 403,134.5C 402.395,136.481 401.395,136.815 400,135.5C 399.692,136.308 399.192,136.975 398.5,137.5C 397.097,137.64 395.597,137.64 394,137.5C 391.464,140.624 388.298,141.624 384.5,140.5C 383.803,142.385 382.803,142.718 381.5,141.5C 378.979,142.785 376.313,143.452 373.5,143.5C 369.5,139.833 365.5,136.167 361.5,132.5C 360.5,131.167 359.5,129.833 358.5,128.5C 359.397,127.402 360.23,127.402 361,128.5C 362.705,126.023 364.705,124.689 367,124.5C 367.333,124.833 367.667,125.167 368,125.5C 368.853,123.875 369.853,123.542 371,124.5C 379.415,121.672 387.415,118.672 395,115.5C 395.333,115.833 395.667,116.167 396,116.5C 398.512,113.849 402.012,112.016 406.5,111C 385.329,110.832 364.329,110.332 343.5,109.5C 344.5,109.5 345.5,109.5 346.5,109.5C 355.5,109.5 364.5,109.5 373.5,109.5C 396.167,109.5 418.833,109.5 441.5,109.5C 441.5,108.5 441.5,107.5 441.5,106.5 Z"/></g>
<g><path style="opacity:0.988" fill="#6299ef" d="M 443.5,124.5 C 443.5,135.833 443.5,147.167 443.5,158.5C 442.206,159.29 441.039,160.29 440,161.5C 439.493,160.004 439.993,158.837 441.5,158C 440.783,156.348 440.45,154.848 440.5,153.5C 439.749,154.376 439.249,155.376 439,156.5C 437.582,153.999 436.582,154.332 436,157.5C 434.582,154.999 433.582,155.332 433,158.5C 431.582,155.999 430.582,156.332 430,159.5C 428.915,157.627 427.582,155.96 426,154.5C 425.418,157.668 424.418,158.001 423,155.5C 422.751,156.624 422.251,157.624 421.5,158.5C 421.167,158.333 420.833,158.167 420.5,158C 421.517,156.951 421.684,155.784 421,154.5C 420.138,156.087 419.471,157.754 419,159.5C 417.866,155.86 416.866,156.193 416,160.5C 414.582,157.999 413.582,158.332 413,161.5C 411.69,159.868 411.19,158.201 411.5,156.5C 410.803,158.385 409.803,158.718 408.5,157.5C 407.808,158.025 407.308,158.692 407,159.5C 405.403,159.36 403.903,159.36 402.5,159.5C 401.167,160.5 399.833,161.5 398.5,162.5C 397.197,161.282 396.197,161.615 395.5,163.5C 393.275,161.89 390.941,160.557 388.5,159.5C 383.5,154.167 378.5,148.833 373.5,143.5C 376.313,143.452 378.979,142.785 381.5,141.5C 382.803,142.718 383.803,142.385 384.5,140.5C 388.298,141.624 391.464,140.624 394,137.5C 395.597,137.64 397.097,137.64 398.5,137.5C 399.192,136.975 399.692,136.308 400,135.5C 401.395,136.815 402.395,136.481 403,134.5C 403.249,135.624 403.749,136.624 404.5,137.5C 405.72,136.289 406.887,136.289 408,137.5C 408.84,134.536 409.84,134.203 411,136.5C 411.84,133.536 412.84,133.203 414,135.5C 414.84,132.536 415.84,132.203 417,134.5C 417.84,131.536 418.84,131.203 420,133.5C 420.851,130.388 422.017,130.054 423.5,132.5C 423.833,131.833 424.167,131.167 424.5,130.5C 425.167,130.833 425.833,131.167 426.5,131.5C 427.197,129.615 428.197,129.282 429.5,130.5C 430.197,128.615 431.197,128.282 432.5,129.5C 433.197,127.615 434.197,127.282 435.5,128.5C 436.197,126.615 437.197,126.282 438.5,127.5C 440.148,126.709 441.815,125.709 443.5,124.5 Z"/></g>
<g><path style="opacity:1" fill="#6ea3f2" d="M 361.5,132.5 C 365.5,136.167 369.5,139.833 373.5,143.5C 378.5,148.833 383.5,154.167 388.5,159.5C 388.953,160.458 389.619,161.292 390.5,162C 375.965,176.368 361.631,190.868 347.5,205.5C 328.167,205.5 308.833,205.5 289.5,205.5C 313.5,181.167 337.5,156.833 361.5,132.5 Z"/></g>
<g><path style="opacity:0.999" fill="#669ef2" d="M 443.5,158.5 C 443.5,162.833 443.5,167.167 443.5,171.5C 410.5,203.833 377.833,236.5 345.5,269.5C 324.833,269.5 304.167,269.5 283.5,269.5C 290.833,261.833 298.167,254.167 305.5,246.5C 323.836,246.667 342.17,246.5 360.5,246C 363.667,244.833 365.833,242.667 367,239.5C 367.667,230.5 367.667,221.5 367,212.5C 365.848,210.351 364.348,208.518 362.5,207C 357.599,205.675 352.599,205.175 347.5,205.5C 361.631,190.868 375.965,176.368 390.5,162C 389.619,161.292 388.953,160.458 388.5,159.5C 390.941,160.557 393.275,161.89 395.5,163.5C 396.197,161.615 397.197,161.282 398.5,162.5C 399.833,161.5 401.167,160.5 402.5,159.5C 403.903,159.36 405.403,159.36 407,159.5C 407.308,158.692 407.808,158.025 408.5,157.5C 409.803,158.718 410.803,158.385 411.5,156.5C 411.19,158.201 411.69,159.868 413,161.5C 413.582,158.332 414.582,157.999 416,160.5C 416.866,156.193 417.866,155.86 419,159.5C 419.471,157.754 420.138,156.087 421,154.5C 421.684,155.784 421.517,156.951 420.5,158C 420.833,158.167 421.167,158.333 421.5,158.5C 422.251,157.624 422.751,156.624 423,155.5C 424.418,158.001 425.418,157.668 426,154.5C 427.582,155.96 428.915,157.627 430,159.5C 430.582,156.332 431.582,155.999 433,158.5C 433.582,155.332 434.582,154.999 436,157.5C 436.582,154.332 437.582,153.999 439,156.5C 439.249,155.376 439.749,154.376 440.5,153.5C 440.45,154.848 440.783,156.348 441.5,158C 439.993,158.837 439.493,160.004 440,161.5C 441.039,160.29 442.206,159.29 443.5,158.5 Z"/></g>
<g><path style="opacity:0.996" fill="#609af2" d="M 443.5,171.5 C 443.5,192.167 443.5,212.833 443.5,233.5C 410.167,266.167 377.167,299.167 344.5,332.5C 323.831,332.667 303.164,332.5 282.5,332C 289.703,324.965 296.703,317.798 303.5,310.5C 322.17,310.667 340.836,310.5 359.5,310C 363.234,309.267 365.734,307.1 367,303.5C 367.667,294.5 367.667,285.5 367,276.5C 365.833,273.333 363.667,271.167 360.5,270C 355.511,269.501 350.511,269.334 345.5,269.5C 377.833,236.5 410.5,203.833 443.5,171.5 Z"/></g>
<g><path style="opacity:1" fill="#eaeef0" d="M 175.5,205.5 C 194.5,205.5 213.5,205.5 232.5,205.5C 251.5,205.5 270.5,205.5 289.5,205.5C 308.833,205.5 328.167,205.5 347.5,205.5C 352.599,205.175 357.599,205.675 362.5,207C 364.348,208.518 365.848,210.351 367,212.5C 367.667,221.5 367.667,230.5 367,239.5C 365.833,242.667 363.667,244.833 360.5,246C 342.17,246.5 323.836,246.667 305.5,246.5C 286.167,246.5 266.833,246.5 247.5,246.5C 228.5,246.5 209.5,246.5 190.5,246.5C 176.829,246.667 163.163,246.5 149.5,246C 146.979,244.442 145.312,242.275 144.5,239.5C 144.334,229.828 144.5,220.161 145,210.5C 146.167,208.667 147.667,207.167 149.5,206C 158.16,205.5 166.827,205.334 175.5,205.5 Z"/></g>
<g><path style="opacity:0.994" fill="#5a96f2" d="M 443.5,233.5 C 443.5,252.167 443.5,270.833 443.5,289.5C 418.527,315.14 393.194,340.473 367.5,365.5C 367.666,357.16 367.5,348.827 367,340.5C 365.394,336.108 362.228,333.775 357.5,333.5C 353.366,332.515 349.032,332.182 344.5,332.5C 377.167,299.167 410.167,266.167 443.5,233.5 Z"/></g>
<g><path style="opacity:0.996" fill="#79aaf3" d="M 144.5,239.5 C 145.312,242.275 146.979,244.442 149.5,246C 163.163,246.5 176.829,246.667 190.5,246.5C 183.167,254.167 175.833,261.833 168.5,269.5C 147.557,265.11 139.224,273.443 143.5,294.5C 118.167,319.5 92.8333,344.5 67.5,369.5C 67.5,353.5 67.5,337.5 67.5,321.5C 68.3213,318.359 68.8213,315.025 69,311.5C 93.6667,286.833 118.333,262.167 143,237.5C 143.278,238.416 143.778,239.082 144.5,239.5 Z"/></g>
<g><path style="opacity:1" fill="#73a6f3" d="M 190.5,246.5 C 209.5,246.5 228.5,246.5 247.5,246.5C 240.167,254.167 232.833,261.833 225.5,269.5C 206.5,269.5 187.5,269.5 168.5,269.5C 175.833,261.833 183.167,254.167 190.5,246.5 Z"/></g>
<g><path style="opacity:1" fill="#6ca2f3" d="M 247.5,246.5 C 266.833,246.5 286.167,246.5 305.5,246.5C 298.167,254.167 290.833,261.833 283.5,269.5C 264.167,269.5 244.833,269.5 225.5,269.5C 232.833,261.833 240.167,254.167 247.5,246.5 Z"/></g>
<g><path style="opacity:1" fill="#eaeef0" d="M 168.5,269.5 C 187.5,269.5 206.5,269.5 225.5,269.5C 244.833,269.5 264.167,269.5 283.5,269.5C 304.167,269.5 324.833,269.5 345.5,269.5C 350.511,269.334 355.511,269.501 360.5,270C 363.667,271.167 365.833,273.333 367,276.5C 367.667,285.5 367.667,294.5 367,303.5C 365.734,307.1 363.234,309.267 359.5,310C 340.836,310.5 322.17,310.667 303.5,310.5C 282.833,310.5 262.167,310.5 241.5,310.5C 222.167,310.5 202.833,310.5 183.5,310.5C 172.162,310.667 160.828,310.5 149.5,310C 144.119,306.23 142.119,301.063 143.5,294.5C 139.224,273.443 147.557,265.11 168.5,269.5 Z"/></g>
<g><path style="opacity:0.997" fill="#5492f1" d="M 443.5,289.5 C 443.5,308.833 443.5,328.167 443.5,347.5C 398.897,391.435 358.23,432.102 321.5,469.5C 318.023,470.323 314.356,470.823 310.5,471C 313.5,471.333 316.5,471.667 319.5,472C 311.765,472.48 304.098,473.48 296.5,475C 295.944,475.383 295.611,475.883 295.5,476.5C 284.764,478.861 273.764,480.361 262.5,481C 265.167,481.333 267.833,481.667 270.5,482C 266.642,482.079 262.976,482.746 259.5,484C 255.848,484.499 252.182,484.665 248.5,484.5C 243.5,484.5 238.5,484.5 233.5,484.5C 210.164,484.667 186.831,484.5 163.5,484C 177.889,482.91 192.223,481.243 206.5,479C 207.056,478.617 207.389,478.117 207.5,477.5C 211.182,477.665 214.848,477.499 218.5,477C 226.175,475.726 233.841,474.393 241.5,473C 238.833,472.667 236.167,472.333 233.5,472C 244.865,471.523 255.865,469.857 266.5,467C 293.756,439.892 324.423,409.059 358.5,374.5C 363.163,373.171 366.163,370.171 367.5,365.5C 393.194,340.473 418.527,315.14 443.5,289.5 Z"/></g>
<g><path style="opacity:0.996" fill="#73a6f2" d="M 143.5,294.5 C 142.119,301.063 144.119,306.23 149.5,310C 160.828,310.5 172.162,310.667 183.5,310.5C 176.703,317.798 169.703,324.965 162.5,332C 181.83,332.5 201.164,332.667 220.5,332.5C 229.682,332.173 238.682,332.507 247.5,333.5C 214.832,333.333 182.165,333.5 149.5,334C 146.619,335.251 144.786,337.417 144,340.5C 143.501,344.152 143.335,347.818 143.5,351.5C 118.535,375.965 93.7014,400.632 69,425.5C 68.8171,422.635 68.3171,419.969 67.5,417.5C 67.5,401.5 67.5,385.5 67.5,369.5C 92.8333,344.5 118.167,319.5 143.5,294.5 Z"/></g>
<g><path style="opacity:1" fill="#6ca2f3" d="M 183.5,310.5 C 202.833,310.5 222.167,310.5 241.5,310.5C 234.5,317.833 227.5,325.167 220.5,332.5C 201.164,332.667 181.83,332.5 162.5,332C 169.703,324.965 176.703,317.798 183.5,310.5 Z"/></g>
<g><path style="opacity:1" fill="#679ef2" d="M 241.5,310.5 C 262.167,310.5 282.833,310.5 303.5,310.5C 296.703,317.798 289.703,324.965 282.5,332C 303.164,332.5 323.831,332.667 344.5,332.5C 349.032,332.182 353.366,332.515 357.5,333.5C 320.833,333.5 284.167,333.5 247.5,333.5C 238.682,332.507 229.682,332.173 220.5,332.5C 227.5,325.167 234.5,317.833 241.5,310.5 Z"/></g>
<g><path style="opacity:1" fill="#eaeef0" d="M 247.5,333.5 C 284.167,333.5 320.833,333.5 357.5,333.5C 362.228,333.775 365.394,336.108 367,340.5C 367.5,348.827 367.666,357.16 367.5,365.5C 366.163,370.171 363.163,373.171 358.5,374.5C 353.5,374.5 348.5,374.5 343.5,374.5C 329.5,374.5 315.5,374.5 301.5,374.5C 280.833,374.5 260.167,374.5 239.5,374.5C 218.833,374.5 198.167,374.5 177.5,374.5C 168.833,374.5 160.167,374.5 151.5,374.5C 148.236,373.073 145.736,370.739 144,367.5C 143.501,362.177 143.334,356.844 143.5,351.5C 143.335,347.818 143.501,344.152 144,340.5C 144.786,337.417 146.619,335.251 149.5,334C 182.165,333.5 214.832,333.333 247.5,333.5 Z"/></g>
<g><path style="opacity:0.996" fill="#5090f1" d="M 443.5,347.5 C 443.5,352.833 443.5,358.167 443.5,363.5C 408.035,398.465 372.701,433.632 337.5,469C 332.177,469.499 326.844,469.666 321.5,469.5C 358.23,432.102 398.897,391.435 443.5,347.5 Z"/></g>
<g><path style="opacity:0.995" fill="#6ea3f2" d="M 143.5,351.5 C 143.334,356.844 143.501,362.177 144,367.5C 145.736,370.739 148.236,373.073 151.5,374.5C 124.202,402.299 96.7015,429.965 69,457.5C 68.8255,452.649 68.3255,447.982 67.5,443.5C 67.5,434.833 67.5,426.167 67.5,417.5C 68.3171,419.969 68.8171,422.635 69,425.5C 93.7014,400.632 118.535,375.965 143.5,351.5 Z"/></g>
<g><path style="opacity:0.993" fill="#4d8df0" d="M 443.5,363.5 C 443.5,401.5 443.5,439.5 443.5,477.5C 394.238,476.505 344.905,476.172 295.5,476.5C 295.611,475.883 295.944,475.383 296.5,475C 304.098,473.48 311.765,472.48 319.5,472C 316.5,471.667 313.5,471.333 310.5,471C 314.356,470.823 318.023,470.323 321.5,469.5C 326.844,469.666 332.177,469.499 337.5,469C 372.701,433.632 408.035,398.465 443.5,363.5 Z"/></g>
<g><path style="opacity:0.995" fill="#6ca1f2" d="M 151.5,374.5 C 160.167,374.5 168.833,374.5 177.5,374.5C 170.703,381.798 163.703,388.965 156.5,396C 177.164,396.5 197.831,396.667 218.5,396.5C 230.678,396.172 242.678,396.505 254.5,397.5C 218.832,397.333 183.165,397.5 147.5,398C 144.034,401.04 142.7,404.874 143.5,409.5C 124.701,427.798 106.035,446.298 87.5,465C 80.4584,465.065 73.7918,466.231 67.5,468.5C 67.5,460.167 67.5,451.833 67.5,443.5C 68.3255,447.982 68.8255,452.649 69,457.5C 96.7015,429.965 124.202,402.299 151.5,374.5 Z"/></g>
<g><path style="opacity:1" fill="#679ef2" d="M 177.5,374.5 C 198.167,374.5 218.833,374.5 239.5,374.5C 232.5,381.833 225.5,389.167 218.5,396.5C 197.831,396.667 177.164,396.5 156.5,396C 163.703,388.965 170.703,381.798 177.5,374.5 Z"/></g>
<g><path style="opacity:1" fill="#619af1" d="M 239.5,374.5 C 260.167,374.5 280.833,374.5 301.5,374.5C 288.535,387.965 275.369,401.299 262,414.5C 261.828,421.013 261.328,427.347 260.5,433.5C 260.667,422.495 260.5,411.495 260,400.5C 258.512,398.84 256.679,397.84 254.5,397.5C 242.678,396.505 230.678,396.172 218.5,396.5C 225.5,389.167 232.5,381.833 239.5,374.5 Z"/></g>
<g><path style="opacity:1" fill="#5b96f1" d="M 301.5,374.5 C 315.5,374.5 329.5,374.5 343.5,374.5C 313.035,405.465 282.368,436.299 251.5,467C 246.167,467.333 240.833,467.667 235.5,468C 234.833,468.667 234.167,469.333 233.5,470C 227.659,470.047 221.992,470.714 216.5,472C 195.483,472.849 174.483,474.016 153.5,475.5C 153.611,474.883 153.944,474.383 154.5,474C 168.663,471.749 182.996,470.082 197.5,469C 198.5,468 199.5,467 200.5,466C 204.167,465.667 207.833,465.333 211.5,465C 220.369,456.298 229.036,447.465 237.5,438.5C 243.842,438.666 250.175,438.5 256.5,438C 258.644,437.208 259.977,435.708 260.5,433.5C 261.328,427.347 261.828,421.013 262,414.5C 275.369,401.299 288.535,387.965 301.5,374.5 Z"/></g>
<g><path style="opacity:1" fill="#5894f1" d="M 343.5,374.5 C 348.5,374.5 353.5,374.5 358.5,374.5C 324.423,409.059 293.756,439.892 266.5,467C 255.865,469.857 244.865,471.523 233.5,472C 236.167,472.333 238.833,472.667 241.5,473C 233.841,474.393 226.175,475.726 218.5,477C 214.848,477.499 211.182,477.665 207.5,477.5C 189.167,477.5 170.833,477.5 152.5,477.5C 152.833,476.833 153.167,476.167 153.5,475.5C 174.483,474.016 195.483,472.849 216.5,472C 221.992,470.714 227.659,470.047 233.5,470C 234.167,469.333 234.833,468.667 235.5,468C 240.833,467.667 246.167,467.333 251.5,467C 282.368,436.299 313.035,405.465 343.5,374.5 Z"/></g>
<g><path style="opacity:1" fill="#eaeef0" d="M 254.5,397.5 C 256.679,397.84 258.512,398.84 260,400.5C 260.5,411.495 260.667,422.495 260.5,433.5C 259.977,435.708 258.644,437.208 256.5,438C 250.175,438.5 243.842,438.666 237.5,438.5C 216.833,438.5 196.167,438.5 175.5,438.5C 165.727,438.948 156.061,438.448 146.5,437C 145.299,436.097 144.465,434.931 144,433.5C 143.5,425.507 143.334,417.507 143.5,409.5C 142.7,404.874 144.034,401.04 147.5,398C 183.165,397.5 218.832,397.333 254.5,397.5 Z"/></g>
<g><path style="opacity:0.999" fill="#679ef2" d="M 143.5,409.5 C 143.334,417.507 143.5,425.507 144,433.5C 144.465,434.931 145.299,436.097 146.5,437C 156.061,438.448 165.727,438.948 175.5,438.5C 166.369,448.132 157.036,457.632 147.5,467C 142.167,467.333 136.833,467.667 131.5,468C 130.833,468.667 130.167,469.333 129.5,470C 108.748,470.733 88.0816,471.9 67.5,473.5C 67.5,471.833 67.5,470.167 67.5,468.5C 73.7918,466.231 80.4584,465.065 87.5,465C 106.035,446.298 124.701,427.798 143.5,409.5 Z"/></g>
<g><path style="opacity:1" fill="#609af1" d="M 175.5,438.5 C 196.167,438.5 216.833,438.5 237.5,438.5C 229.036,447.465 220.369,456.298 211.5,465C 207.833,465.333 204.167,465.667 200.5,466C 199.5,467 198.5,468 197.5,469C 182.996,470.082 168.663,471.749 154.5,474C 153.944,474.383 153.611,474.883 153.5,475.5C 153.167,476.167 152.833,476.833 152.5,477.5C 124.171,478.117 95.8375,478.451 67.5,478.5C 67.5,476.833 67.5,475.167 67.5,473.5C 88.0816,471.9 108.748,470.733 129.5,470C 130.167,469.333 130.833,468.667 131.5,468C 136.833,467.667 142.167,467.333 147.5,467C 157.036,457.632 166.369,448.132 175.5,438.5 Z"/></g>
<g><path style="opacity:0.999" fill="#4c87e8" d="M 295.5,476.5 C 344.905,476.172 394.238,476.505 443.5,477.5C 443.806,480.385 443.473,483.052 442.5,485.5C 363.477,486.067 284.477,487.734 205.5,490.5C 205.611,489.883 205.944,489.383 206.5,489C 216.813,488.034 227.146,487.368 237.5,487C 241.169,485.907 244.836,485.074 248.5,484.5C 252.182,484.665 255.848,484.499 259.5,484C 262.976,482.746 266.642,482.079 270.5,482C 267.833,481.667 265.167,481.333 262.5,481C 273.764,480.361 284.764,478.861 295.5,476.5 Z"/></g>
<g><path style="opacity:0.992" fill="#598ee7" d="M 152.5,477.5 C 170.833,477.5 189.167,477.5 207.5,477.5C 207.389,478.117 207.056,478.617 206.5,479C 192.223,481.243 177.889,482.91 163.5,484C 186.831,484.5 210.164,484.667 233.5,484.5C 228.349,485.327 223.016,485.827 217.5,486C 168.486,486.778 119.486,487.945 70.5,489.5C 70.5,490.5 70.5,491.5 70.5,492.5C 68.2651,488.213 67.2651,483.546 67.5,478.5C 95.8375,478.451 124.171,478.117 152.5,477.5 Z"/></g>
<g><path style="opacity:1" fill="#5486e1" d="M 233.5,484.5 C 238.5,484.5 243.5,484.5 248.5,484.5C 244.836,485.074 241.169,485.907 237.5,487C 227.146,487.368 216.813,488.034 206.5,489C 205.944,489.383 205.611,489.883 205.5,490.5C 195.185,491.267 184.852,491.601 174.5,491.5C 139.98,491.599 105.647,492.599 71.5,494.5C 70.6618,494.158 70.3284,493.492 70.5,492.5C 70.5,491.5 70.5,490.5 70.5,489.5C 119.486,487.945 168.486,486.778 217.5,486C 223.016,485.827 228.349,485.327 233.5,484.5 Z"/></g>
<g><path style="opacity:1" fill="#4a7fde" d="M 442.5,485.5 C 442.472,488.916 441.472,491.916 439.5,494.5C 398.67,493.501 357.67,493.168 316.5,493.5C 262.169,494.388 207.836,494.555 153.5,494C 160.167,493.667 166.833,493.333 173.5,493C 174.056,492.617 174.389,492.117 174.5,491.5C 184.852,491.601 195.185,491.267 205.5,490.5C 284.477,487.734 363.477,486.067 442.5,485.5 Z"/></g>
<g><path style="opacity:1" fill="#4e7ad4" d="M 174.5,491.5 C 174.389,492.117 174.056,492.617 173.5,493C 166.833,493.333 160.167,493.667 153.5,494C 207.836,494.555 262.169,494.388 316.5,493.5C 302.984,494.244 289.318,495.077 275.5,496C 278.5,496.333 281.5,496.667 284.5,497C 271.177,497.833 257.844,498.333 244.5,498.5C 201.171,499.175 157.837,499.675 114.5,500C 101.793,499.849 89.4593,500.683 77.5,502.5C 74.5293,500.557 72.5293,497.891 71.5,494.5C 105.647,492.599 139.98,491.599 174.5,491.5 Z"/></g>
<g><path style="opacity:1" fill="#4875d3" d="M 316.5,493.5 C 357.67,493.168 398.67,493.501 439.5,494.5C 438.567,497.37 436.9,499.704 434.5,501.5C 364.668,500.667 294.668,500.167 224.5,500C 231.346,499.828 238.013,499.328 244.5,498.5C 257.844,498.333 271.177,497.833 284.5,497C 281.5,496.667 278.5,496.333 275.5,496C 289.318,495.077 302.984,494.244 316.5,493.5 Z"/></g>
<g><path style="opacity:1" fill="#4970cb" d="M 244.5,498.5 C 238.013,499.328 231.346,499.828 224.5,500C 294.668,500.167 364.668,500.667 434.5,501.5C 433.5,503.167 432.167,504.5 430.5,505.5C 372.504,504.167 314.171,503.5 255.5,503.5C 197.167,503.667 138.833,503.833 80.5,504C 81.3805,504.708 82.0472,505.542 82.5,506.5C 80.2512,505.92 78.5846,504.587 77.5,502.5C 89.4593,500.683 101.793,499.849 114.5,500C 157.837,499.675 201.171,499.175 244.5,498.5 Z"/></g>
<g><path style="opacity:1" fill="#476ac4" d="M 430.5,505.5 C 429.486,506.674 428.153,507.34 426.5,507.5C 312.5,506.167 198.5,506.167 84.5,507.5C 83.5084,507.672 82.8417,507.338 82.5,506.5C 82.0472,505.542 81.3805,504.708 80.5,504C 138.833,503.833 197.167,503.667 255.5,503.5C 314.171,503.5 372.504,504.167 430.5,505.5 Z"/></g>
<g><path style="opacity:1" fill="#4666be" d="M 426.5,507.5 C 424.574,509.293 422.241,510.293 419.5,510.5C 419.918,509.778 420.584,509.278 421.5,509C 311.831,508.441 202.165,508.774 92.5,510C 94.0581,510.21 95.3915,510.71 96.5,511.5C 94.8333,511.5 93.1667,511.5 91.5,511.5C 89.036,510.433 86.7026,509.1 84.5,507.5C 198.5,506.167 312.5,506.167 426.5,507.5 Z"/></g>
<g><path style="opacity:1" fill="#4560b8" d="M 419.5,510.5 C 419.5,510.833 419.5,511.167 419.5,511.5C 311.833,511.5 204.167,511.5 96.5,511.5C 95.3915,510.71 94.0581,510.21 92.5,510C 202.165,508.774 311.831,508.441 421.5,509C 420.584,509.278 419.918,509.778 419.5,510.5 Z"/></g>
</svg>
