<?xml version="1.0" encoding="UTF-8"?>
<!DOCTYPE svg PUBLIC "-//W3C//DTD SVG 1.1//EN" "http://www.w3.org/Graphics/SVG/1.1/DTD/svg11.dtd">
<svg xmlns="http://www.w3.org/2000/svg" version="1.1" width="512px" height="512px" style="shape-rendering:geometricPrecision; text-rendering:geometricPrecision; image-rendering:optimizeQuality; fill-rule:evenodd; clip-rule:evenodd" xmlns:xlink="http://www.w3.org/1999/xlink">
<g><path style="opacity:1" fill="#e1e6ef" d="M 95.5,-0.5 C 167.5,-0.5 239.5,-0.5 311.5,-0.5C 311.333,33.835 311.5,68.1683 312,102.5C 317.204,118.209 328.037,126.543 344.5,127.5C 368.798,152.299 393.298,176.965 418,201.5C 420.062,203.901 421.729,206.567 423,209.5C 423.667,300.833 423.667,392.167 423,483.5C 421.167,489.333 417.333,493.167 411.5,495C 312.833,495.333 214.167,495.667 115.5,496C 108.013,498.476 104.013,503.643 103.5,511.5C 100.833,511.5 98.1667,511.5 95.5,511.5C 86.7961,508.637 79.9628,503.304 75,495.5C 73.8035,492.911 72.8035,490.244 72,487.5C 71.3333,332.833 71.3333,178.167 72,23.5C 73.3923,17.7863 76.059,12.7863 80,8.5C 84.5995,4.37379 89.7662,1.37379 95.5,-0.5 Z"/></g>
<g><path style="opacity:1" fill="#9dacba" d="M 311.5,-0.5 C 311.833,-0.5 312.167,-0.5 312.5,-0.5C 354.833,42.1667 397.167,84.8333 439.5,127.5C 407.833,127.5 376.167,127.5 344.5,127.5C 328.037,126.543 317.204,118.209 312,102.5C 311.5,68.1683 311.333,33.835 311.5,-0.5 Z"/></g>
<g><path style="opacity:1" fill="#c9d5e3" d="M 344.5,127.5 C 376.167,127.5 407.833,127.5 439.5,127.5C 439.667,247.5 439.5,367.5 439,487.5C 437.608,493.214 434.941,498.214 431,502.5C 426.4,506.626 421.234,509.626 415.5,511.5C 311.5,511.5 207.5,511.5 103.5,511.5C 104.013,503.643 108.013,498.476 115.5,496C 214.167,495.667 312.833,495.333 411.5,495C 417.333,493.167 421.167,489.333 423,483.5C 423.667,392.167 423.667,300.833 423,209.5C 421.729,206.567 420.062,203.901 418,201.5C 393.298,176.965 368.798,152.299 344.5,127.5 Z"/></g>
<g><path style="opacity:1" fill="#9dacba" d="M 188.5,159.5 C 233.168,159.333 277.835,159.5 322.5,160C 329.059,164.916 329.059,169.916 322.5,175C 277.833,175.667 233.167,175.667 188.5,175C 181.888,169.836 181.888,164.67 188.5,159.5 Z"/></g>
<g><path style="opacity:1" fill="#9dacba" d="M 140.5,231.5 C 217.167,231.333 293.834,231.5 370.5,232C 377.059,236.916 377.059,241.916 370.5,247C 293.833,247.667 217.167,247.667 140.5,247C 133.888,241.836 133.888,236.67 140.5,231.5 Z"/></g>
<g><path style="opacity:1" fill="#9dacba" d="M 140.5,279.5 C 217.167,279.333 293.834,279.5 370.5,280C 377.059,284.916 377.059,289.916 370.5,295C 293.833,295.667 217.167,295.667 140.5,295C 133.888,289.836 133.888,284.67 140.5,279.5 Z"/></g>
<g><path style="opacity:1" fill="#9dacba" d="M 140.5,327.5 C 217.167,327.333 293.834,327.5 370.5,328C 377.059,332.916 377.059,337.916 370.5,343C 293.833,343.667 217.167,343.667 140.5,343C 133.888,337.836 133.888,332.67 140.5,327.5 Z"/></g>
<g><path style="opacity:1" fill="#9dacba" d="M 140.5,375.5 C 217.167,375.333 293.834,375.5 370.5,376C 377.167,381 377.167,386 370.5,391C 293.833,391.667 217.167,391.667 140.5,391C 133.888,385.836 133.888,380.67 140.5,375.5 Z"/></g>
<g><path style="opacity:1" fill="#9dacba" d="M 140.5,423.5 C 185.168,423.333 229.835,423.5 274.5,424C 281.059,428.916 281.059,433.916 274.5,439C 229.833,439.667 185.167,439.667 140.5,439C 133.888,433.836 133.888,428.67 140.5,423.5 Z"/></g>
</svg>
