<svg width="20" height="20" viewBox="0 0 20 20" fill="none" xmlns="http://www.w3.org/2000/svg">
<path d="M17.65 8.09089L12.38 14.3189L12.3 14.3989C12.22 14.2389 12.14 14.0799 11.981 13.9999L5.992 8.01089C5.912 7.85089 5.752 7.77089 5.593 7.69189L5.673 7.61189L11.901 2.34189C12.54 1.86289 13.498 1.86289 14.057 2.50189L17.57 6.01489C18.129 6.49389 18.129 7.45189 17.65 8.09089ZM12.061 16.3149L11.422 17.5919C11.3809 17.7076 11.3052 17.8079 11.2052 17.8793C11.1053 17.9506 10.9858 17.9896 10.863 17.9909H10.703C10.463 17.9909 10.304 17.9109 10.144 17.7509L6.79 14.3969L4.395 16.8719C4.155 16.9519 3.996 17.0319 3.756 17.0319C3.516 17.0319 3.357 16.9519 3.197 16.7929C3.12105 16.7209 3.06055 16.6343 3.01921 16.5382C2.97787 16.442 2.95655 16.3385 2.95655 16.2339C2.95655 16.1293 2.97787 16.0257 3.01921 15.9296C3.06055 15.8335 3.12105 15.7468 3.197 15.6749L5.672 13.2799L2.24 9.84689C2.08 9.68689 2 9.44789 2 9.12789C2 8.88789 2.24 8.64889 2.399 8.56889L3.677 7.92989L12.061 16.3139V16.3149Z" fill="#8A8A8A"/>
</svg>
