<svg width="16" height="16" viewBox="0 0 16 16" fill="none" xmlns="http://www.w3.org/2000/svg">
<g clip-path="url(#clip0_481_8025)">
<path fill-rule="evenodd" clip-rule="evenodd" d="M6.88299 12.7751C6.80438 12.8537 6.71083 12.9159 6.60784 12.9578C6.50485 12.9997 6.39451 13.0206 6.28332 13.0192C6.17214 13.0178 6.06236 12.9941 5.96046 12.9496C5.85855 12.9051 5.76659 12.8407 5.68999 12.7601L1.97999 9.0491C1.90159 8.97198 1.83924 8.88011 1.79653 8.77877C1.75382 8.67743 1.7316 8.56864 1.73115 8.45868C1.73069 8.34871 1.75202 8.23974 1.79389 8.13806C1.83577 8.03638 1.89736 7.94399 1.97512 7.86623C2.05288 7.78847 2.14527 7.72688 2.24695 7.685C2.34863 7.64313 2.4576 7.6218 2.56757 7.62226C2.67754 7.62271 2.78632 7.64493 2.88766 7.68764C2.989 7.73035 3.08087 7.7927 3.15799 7.8711L6.29399 11.0071L13.804 3.4971C13.8815 3.41975 13.9734 3.35842 14.0746 3.31661C14.1758 3.2748 14.2842 3.25333 14.3937 3.25342C14.5032 3.25351 14.6116 3.27517 14.7127 3.31715C14.8138 3.35913 14.9056 3.42062 14.983 3.4981C15.0603 3.57558 15.1217 3.66753 15.1635 3.76872C15.2053 3.8699 15.2268 3.97832 15.2267 4.0878C15.2266 4.19728 15.2049 4.30567 15.1629 4.40679C15.121 4.5079 15.0595 4.59975 14.982 4.6771L6.88299 12.7751Z" fill="#04B70A"/>
</g>
<defs>
<clipPath id="clip0_481_8025">
<rect width="16" height="16" fill="white"/>
</clipPath>
</defs>
</svg>
