<svg width="56" height="56" viewBox="0 0 56 56" fill="none" xmlns="http://www.w3.org/2000/svg">
<rect x="4" y="4" width="48" height="48" rx="24" fill="#D1FADF"/>
<rect x="4" y="4" width="48" height="48" rx="24" stroke="#ECFDF3" stroke-width="8"/>
<path d="M27.302 37.6147C27.5234 37.7439 27.6341 37.8085 27.7903 37.842C27.9116 37.868 28.0884 37.868 28.2097 37.842C28.3659 37.8085 28.4766 37.7439 28.698 37.6147C30.646 36.4783 36 32.9083 36 27.9999V23.2175C36 22.418 36 22.0182 35.8692 21.6746C35.7537 21.371 35.566 21.1001 35.3223 20.8854C35.0465 20.6423 34.6722 20.5019 33.9236 20.2212L28.5618 18.2105C28.3539 18.1326 28.25 18.0936 28.143 18.0782C28.0482 18.0644 27.9518 18.0644 27.857 18.0782C27.75 18.0936 27.6461 18.1326 27.4382 18.2105L22.0764 20.2212C21.3278 20.5019 20.9535 20.6423 20.6777 20.8854C20.434 21.1001 20.2463 21.371 20.1308 21.6746C20 22.0182 20 22.418 20 23.2175V27.9999C20 32.9083 25.354 36.4783 27.302 37.6147Z" stroke="#24A824" stroke-width="2" stroke-linecap="round" stroke-linejoin="round"/>
</svg>
