<svg width="13" height="15" viewBox="0 0 13 15" fill="none" xmlns="http://www.w3.org/2000/svg">
<path d="M0.319175 12.148H2.54618V14.057C2.54618 14.15 2.57618 14.226 2.63618 14.285C2.66618 14.3148 2.70198 14.3382 2.74136 14.3537C2.78075 14.3691 2.82288 14.3764 2.86518 14.375H4.52518C4.61118 14.375 4.68617 14.345 4.74918 14.285C4.78011 14.2558 4.80448 14.2204 4.82069 14.1811C4.83689 14.1418 4.84456 14.0995 4.84317 14.057V12.148H9.86418C9.90624 12.1491 9.94808 12.1416 9.98716 12.126C10.0262 12.1104 10.0617 12.087 10.0915 12.0573C10.1212 12.0275 10.1446 11.992 10.1602 11.9529C10.1758 11.9139 10.1833 11.872 10.1822 11.83V10.557C10.1822 10.465 10.1522 10.388 10.0932 10.329C10.0632 10.2991 10.0274 10.2758 9.98799 10.2603C9.9486 10.2448 9.90647 10.2375 9.86418 10.239H4.84317V9.06497H8.22418C9.55018 9.06497 10.6322 8.66096 11.4702 7.85197C12.3082 7.04297 12.7282 5.99996 12.7282 4.71996C12.7282 3.43997 12.3092 2.39697 11.4702 1.58797C10.6312 0.778965 9.54918 0.374965 8.22318 0.374965H2.86418C2.82195 0.373412 2.77986 0.380506 2.74048 0.395811C2.7011 0.411116 2.66527 0.434309 2.63518 0.463965C2.60534 0.493972 2.58196 0.52977 2.56648 0.569154C2.551 0.608537 2.54375 0.650673 2.54518 0.692965V6.94697H0.319175C0.226175 6.94697 0.150175 6.97796 0.0901752 7.04097C0.0301752 7.10397 0.000175198 7.17897 0.000175198 7.26596V8.74697C-0.00124722 8.78926 0.00600399 8.83139 0.0214823 8.87078C0.0369606 8.91016 0.0603383 8.94596 0.0901752 8.97597C0.150175 9.03597 0.226175 9.06497 0.319175 9.06497H2.54618V10.238H0.319175C0.276883 10.2365 0.234747 10.2438 0.195364 10.2593C0.15598 10.2748 0.120182 10.2981 0.0901752 10.328C0.0604629 10.3579 0.0371573 10.3935 0.0216829 10.4327C0.00620853 10.4719 -0.00110978 10.5138 0.000175198 10.556V11.829C0.000175198 11.922 0.0301752 11.998 0.0901752 12.058C0.150175 12.118 0.226175 12.148 0.319175 12.148ZM4.84317 2.49397H8.02518C8.72818 2.49397 9.29418 2.69897 9.72518 3.10997C10.1562 3.52097 10.3712 4.05797 10.3712 4.72097C10.3712 5.38397 10.1552 5.92097 9.72518 6.33196C9.29518 6.74296 8.72717 6.94897 8.02518 6.94897H4.84317V2.49397Z" fill="#CCCCCC"/>
</svg>
