<svg width="16" height="17" viewBox="0 0 16 17" fill="none" xmlns="http://www.w3.org/2000/svg">
<path d="M7.996 0.375C3.576 0.375 0 3.955 0 8.375C0 12.795 3.576 16.375 7.996 16.375C12.416 16.375 16 12.795 16 8.375C16 3.955 12.416 0.375 7.996 0.375ZM8 14.775C6.30261 14.775 4.67475 14.1007 3.47452 12.9005C2.27428 11.7003 1.6 10.0724 1.6 8.375C1.6 6.67761 2.27428 5.04975 3.47452 3.84952C4.67475 2.64928 6.30261 1.975 8 1.975C9.69739 1.975 11.3253 2.64928 12.5255 3.84952C13.7257 5.04975 14.4 6.67761 14.4 8.375C14.4 10.0724 13.7257 11.7003 12.5255 12.9005C11.3253 14.1007 9.69739 14.775 8 14.775ZM8.4 8.575V4.375H7.2V9.175L11.396 11.695L12 10.711L8.4 8.575Z" fill="#CCCCCC"/>
</svg>
