<svg width="20" height="20" viewBox="0 0 20 20" fill="none" xmlns="http://www.w3.org/2000/svg">
<g clip-path="url(#clip0_481_31209)">
<path d="M19.5 10C19.5 4.75329 15.2467 0.5 10 0.5C4.75329 0.5 0.5 4.75329 0.5 10C0.5 15.2467 4.75329 19.5 10 19.5C15.2467 19.5 19.5 15.2467 19.5 10Z" fill="white"/>
<path d="M19.5 10C19.5 4.75329 15.2467 0.5 10 0.5C4.75329 0.5 0.5 4.75329 0.5 10C0.5 15.2467 4.75329 19.5 10 19.5C15.2467 19.5 19.5 15.2467 19.5 10Z" stroke="#A5A5A5"/>
<path d="M5.11133 6.61182L6.55733 9.20882V10.7938L5.11333 13.3858L5.11133 6.61182Z" fill="#5B57A2"/>
<path d="M10.6621 8.26376L12.0171 7.42976L14.7901 7.42676L10.6621 9.96876V8.26376Z" fill="#D90751"/>
<path d="M10.6549 6.597L10.6619 10.036L9.21289 9.141V4L10.6549 6.597Z" fill="#FAB718"/>
<path d="M14.7899 7.427L12.0169 7.43L10.6549 6.597L9.21289 4L14.7899 7.427Z" fill="#ED6F26"/>
<path d="M10.6619 13.4V11.732L9.21289 10.854V16L10.6619 13.4Z" fill="#63B22F"/>
<path d="M12.0144 12.5738L6.55735 9.20882L5.11035 6.61182L14.7834 12.5698L12.0144 12.5738Z" fill="#1487C9"/>
<path d="M9.21387 15.9998L10.6619 13.3998L12.0129 12.5738L14.7829 12.5698L9.21387 15.9998Z" fill="#017F36"/>
<path d="M5.11328 13.386L9.22528 10.854L7.84228 10.002L6.55728 10.794L5.11328 13.386Z" fill="#984995"/>
</g>
<defs>
<clipPath id="clip0_481_31209">
<rect width="20" height="20" fill="white"/>
</clipPath>
</defs>
</svg>
