<svg width="20" height="20" viewBox="0 0 20 20" fill="none" xmlns="http://www.w3.org/2000/svg">
<g clip-path="url(#clip0_481_31225)">
<g clip-path="url(#clip1_481_31225)">
<g clip-path="url(#clip2_481_31225)">
<g opacity="0.2">
<path d="M20 10C20 4.47715 15.5228 0 10 0C4.47715 0 0 4.47715 0 10C0 15.5228 4.47715 20 10 20C15.5228 20 20 15.5228 20 10Z" fill="#8A8A8A"/>
<path d="M12.0935 9.29689H13.8345V12.6279H12.0935V9.29689ZM9.12853 9.29689H10.8695V12.6279H9.12953L9.12853 9.29689ZM14.1685 13.2289H5.83253C5.52653 13.2289 5.27653 13.4989 5.27653 13.8309V14.5329C5.27653 14.8649 5.52653 15.1349 5.83253 15.1349H14.1685C14.4745 15.1349 14.7235 14.8649 14.7235 14.5329V13.8309C14.7235 13.4989 14.4745 13.2289 14.1685 13.2289ZM14.3755 6.75389L10.2065 4.90789C10.1412 4.8788 10.0705 4.86377 9.99903 4.86377C9.92754 4.86377 9.85684 4.8788 9.79153 4.90789L5.62553 6.75389C5.51915 6.80284 5.42943 6.88186 5.36742 6.98119C5.3054 7.08052 5.27381 7.19582 5.27653 7.31289V8.09289C5.27653 8.42389 5.52653 8.69389 5.83253 8.69389H14.1685C14.4745 8.69389 14.7235 8.42389 14.7235 8.09189V7.31189C14.7261 7.1951 14.6946 7.08009 14.6328 6.98097C14.571 6.88184 14.4816 6.80292 14.3755 6.75389ZM10.2785 7.10889C10.2785 7.27489 10.1535 7.40889 10.0005 7.40889C9.84753 7.40889 9.72253 7.27489 9.72253 7.10889V6.46689C9.72253 6.29989 9.84653 6.16589 10.0005 6.16589C10.1535 6.16589 10.2785 6.29989 10.2785 6.46589V7.10889ZM6.16553 9.29689H7.90653V12.6279H6.16553V9.29689Z" fill="white"/>
</g>
</g>
</g>
</g>
<defs>
<clipPath id="clip0_481_31225">
<rect width="20" height="20" fill="white"/>
</clipPath>
<clipPath id="clip1_481_31225">
<rect width="20" height="20" fill="white"/>
</clipPath>
<clipPath id="clip2_481_31225">
<rect width="20" height="20" fill="white"/>
</clipPath>
</defs>
</svg>
