<svg width="20" height="20" viewBox="0 0 20 20" fill="none" xmlns="http://www.w3.org/2000/svg">
<g clip-path="url(#clip0_481_31220)">
<g clip-path="url(#clip1_481_31220)">
<g clip-path="url(#clip2_481_31220)">
<path d="M20 10C20 4.47715 15.5228 0 10 0C4.47715 0 0 4.47715 0 10C0 15.5228 4.47715 20 10 20C15.5228 20 20 15.5228 20 10Z" fill="#04B70A"/>
<path d="M5 9.281V12.383C5 13.276 5.604 14 6.35 14H13.65C14.396 14 15 13.276 15 12.383V9.28C15 9.125 14.895 8.999 14.765 8.999H5.235C5.105 9 5 9.126 5 9.281ZM7.497 11.25H6.87C6.643 11.25 6.46 11.03 6.46 10.758C6.46 10.486 6.643 10.266 6.87 10.266H7.496C7.723 10.266 7.906 10.486 7.906 10.758C7.906 11.03 7.723 11.25 7.496 11.25M15 7.719V7.617C15 6.724 14.396 6 13.65 6H6.35C5.603 6 5 6.724 5 7.617V7.719C5 7.874 5.105 8 5.235 8H14.765C14.895 8 15 7.874 15 7.719Z" fill="white"/>
</g>
</g>
</g>
<defs>
<clipPath id="clip0_481_31220">
<rect width="20" height="20" fill="white"/>
</clipPath>
<clipPath id="clip1_481_31220">
<rect width="20" height="20" fill="white"/>
</clipPath>
<clipPath id="clip2_481_31220">
<rect width="20" height="20" fill="white"/>
</clipPath>
</defs>
</svg>
