<svg width="44" height="44" viewBox="0 0 44 44" fill="none" xmlns="http://www.w3.org/2000/svg">
<g clip-path="url(#clip0_2_27608)">
<path d="M30.3332 26.1V28.6C30.3341 28.8321 30.2866 29.0618 30.1936 29.2745C30.1006 29.4871 29.9643 29.678 29.7933 29.8349C29.6222 29.9918 29.4203 30.1113 29.2005 30.1856C28.9806 30.26 28.7477 30.2876 28.5165 30.2667C25.9522 29.9881 23.489 29.1118 21.3249 27.7084C19.3114 26.4289 17.6043 24.7219 16.3249 22.7084C14.9165 20.5344 14.0401 18.0592 13.7665 15.4834C13.7457 15.2529 13.7731 15.0207 13.8469 14.8014C13.9208 14.5821 14.0395 14.3806 14.1955 14.2097C14.3515 14.0388 14.5414 13.9023 14.753 13.8088C14.9647 13.7153 15.1935 13.6669 15.4249 13.6667H17.9249C18.3293 13.6627 18.7214 13.8059 19.028 14.0697C19.3346 14.3334 19.5349 14.6996 19.5915 15.1C19.697 15.9001 19.8927 16.6856 20.1749 17.4417C20.287 17.74 20.3112 18.0641 20.2448 18.3758C20.1783 18.6874 20.0239 18.9735 19.7999 19.2L18.7415 20.2584C19.9278 22.3447 21.6552 24.0721 23.7415 25.2584L24.7999 24.2C25.0264 23.976 25.3125 23.8216 25.6241 23.7551C25.9358 23.6887 26.2599 23.7129 26.5582 23.825C27.3143 24.1072 28.0998 24.3029 28.8999 24.4084C29.3047 24.4655 29.6744 24.6694 29.9386 24.9813C30.2029 25.2932 30.3433 25.6914 30.3332 26.1Z" stroke="#475367" stroke-width="2" stroke-linecap="round" stroke-linejoin="round"/>
<path d="M23.708 13.6666C25.4066 13.8456 26.9932 14.599 28.2054 15.8021C29.4176 17.0053 30.1829 18.5861 30.3747 20.2833" stroke="#475367" stroke-width="2" stroke-linecap="round" stroke-linejoin="round"/>
<path d="M23.708 17C24.5276 17.1616 25.2797 17.5659 25.8667 18.1603C26.4536 18.7547 26.8484 19.5118 26.9997 20.3333" stroke="#475367" stroke-width="2" stroke-linecap="round" stroke-linejoin="round"/>
</g>
<defs>
<clipPath id="clip0_2_27608">
<rect width="20" height="20" fill="white" transform="translate(12 12)"/>
</clipPath>
</defs>
</svg>
