<svg width="18" height="20" viewBox="0 0 18 20" fill="none" xmlns="http://www.w3.org/2000/svg">
<path fill-rule="evenodd" clip-rule="evenodd" d="M18 2V11.506C18 14.906 15.762 17.912 12.476 18.928L9 20L5.524 18.928C2.238 17.912 0 14.906 0 11.506V2L9 0L18 2ZM8.523 14.29V13.6H10.142C10.372 13.6 10.553 13.543 10.687 13.428C10.7541 13.3697 10.8071 13.2969 10.8421 13.2152C10.8771 13.1334 10.8931 13.0448 10.889 12.956C10.8931 12.8665 10.8771 12.7771 10.8421 12.6946C10.8072 12.612 10.7542 12.5384 10.687 12.479C10.553 12.362 10.371 12.304 10.142 12.304H8.56V11.25H9.966C10.718 11.25 11.351 11.12 11.866 10.862C12.3556 10.6273 12.761 10.2474 13.027 9.774C13.287 9.308 13.416 8.764 13.416 8.144C13.416 7.504 13.281 6.949 13.013 6.478C12.7416 6.00423 12.333 5.62385 11.841 5.387C11.328 5.131 10.711 5.002 9.988 5.002H8.09C7.577 5.002 7.197 5.126 6.95 5.372C6.704 5.619 6.581 6.003 6.581 6.526V9.705H6.04C5.771 9.709 5.562 9.781 5.41 9.921C5.33406 9.99249 5.27446 10.0795 5.23528 10.1762C5.19611 10.2728 5.17827 10.3768 5.183 10.481C5.183 10.721 5.259 10.907 5.41 11.041C5.562 11.176 5.771 11.245 6.04 11.25H6.582V12.305H5.93C5.696 12.305 5.513 12.363 5.38 12.48C5.31402 12.5401 5.26215 12.614 5.22809 12.6964C5.19403 12.7789 5.17863 12.8679 5.183 12.957C5.183 13.157 5.249 13.314 5.381 13.429C5.513 13.544 5.696 13.601 5.931 13.601H6.619V14.29C6.667 14.539 6.779 14.731 6.952 14.868C7.1285 15.0057 7.34719 15.0781 7.571 15.073C7.79481 15.0781 8.0135 15.0057 8.19 14.868C8.36822 14.7228 8.48675 14.517 8.523 14.29Z" fill="#77C026"/>
<path fill-rule="evenodd" clip-rule="evenodd" d="M9.482 9.70515C10.146 9.70515 10.632 9.58515 10.94 9.34515C11.248 9.10615 11.401 8.70815 11.401 8.15215C11.401 7.60015 11.255 7.20015 10.961 6.95115C10.669 6.70115 10.231 6.57715 9.651 6.57715H8.552V9.70515H9.482Z" fill="#77C026"/>
</svg>
