<svg width="24" height="24" viewBox="0 0 24 24" fill="none" xmlns="http://www.w3.org/2000/svg">
<path d="M12.8151 12.1971L5.28308 13.4531C5.19649 13.4675 5.11522 13.5045 5.04746 13.5604C4.97971 13.6162 4.92784 13.6889 4.89708 13.7711L2.30008 20.7281C2.05208 21.3681 2.72108 21.9781 3.33508 21.6711L21.3351 12.6711C21.4598 12.6088 21.5646 12.5131 21.6379 12.3946C21.7112 12.276 21.75 12.1394 21.75 12.0001C21.75 11.8607 21.7112 11.7241 21.6379 11.6056C21.5646 11.4871 21.4598 11.3913 21.3351 11.3291L3.33508 2.32908C2.72108 2.02208 2.05208 2.63308 2.30008 3.27208L4.89808 10.2291C4.92869 10.3115 4.9805 10.3844 5.04827 10.4404C5.11604 10.4964 5.19737 10.5335 5.28408 10.5481L12.8161 11.8031C12.8624 11.8112 12.9044 11.8354 12.9347 11.8714C12.965 11.9075 12.9816 11.953 12.9816 12.0001C12.9816 12.0471 12.965 12.0927 12.9347 12.1287C12.9044 12.1648 12.8624 12.189 12.8161 12.1971H12.8151Z" fill="#CCCCCC"/>
</svg>
