<svg width="24" height="24" viewBox="0 0 24 24" fill="none" xmlns="http://www.w3.org/2000/svg">
<path d="M22 16V5.5C22 3.564 20.436 2 18.5 2H5.5C5.04023 1.99948 4.58487 2.08965 4.15999 2.26535C3.73511 2.44106 3.34906 2.69884 3.02395 3.02395C2.69884 3.34906 2.44106 3.73511 2.26535 4.15999C2.08965 4.58487 1.99948 5.04023 2 5.5V18.5C2 20.436 3.564 22 5.5 22H16L22 16ZM5.5 20C4.673 20 4 19.327 4 18.5V5.5C4 4.673 4.673 4 5.5 4H18.5C19.327 4 20 4.673 20 5.5V15H18.5C18.0402 14.9995 17.5849 15.0896 17.16 15.2654C16.7351 15.4411 16.3491 15.6988 16.024 16.024C15.6988 16.3491 15.4411 16.7351 15.2654 17.16C15.0896 17.5849 14.9995 18.0402 15 18.5V20H5.5ZM9.764 9.782C9.70136 9.56112 9.59583 9.35474 9.45343 9.17464C9.31103 8.99454 9.13455 8.84425 8.93407 8.73236C8.73358 8.62046 8.51303 8.54915 8.28499 8.5225C8.05694 8.49584 7.82589 8.51436 7.605 8.577C7.38412 8.63964 7.17774 8.74518 6.99764 8.88758C6.81754 9.02998 6.66725 9.20646 6.55536 9.40694C6.32938 9.81183 6.27349 10.2899 6.4 10.736C6.473 10.991 6.6 11.218 6.764 11.409L9.8 10.555C9.84716 10.298 9.83484 10.0335 9.764 9.782ZM16.018 8.018C15.9563 7.797 15.8515 7.59035 15.7098 7.4099C15.568 7.22946 15.392 7.07876 15.1919 6.96644C14.9918 6.85413 14.7715 6.78241 14.5437 6.75539C14.3158 6.72838 14.0848 6.74659 13.864 6.809C13.5802 6.88965 13.3213 7.0406 13.1113 7.24788C12.9013 7.45516 12.747 7.71206 12.6626 7.99481C12.5783 8.27756 12.5666 8.57702 12.6287 8.86547C12.6909 9.15392 12.8247 9.42203 13.018 9.645L16.055 8.791C16.1018 8.53389 16.0892 8.26947 16.018 8.018ZM16.909 11.145L7.273 13.864C7.92437 14.7276 8.82126 15.3744 9.84631 15.7198C10.8714 16.0653 11.9768 16.0932 13.018 15.8C15.209 15.182 16.691 13.282 16.909 11.145Z" fill="#475367"/>
</svg>
