<svg width="20" height="20" viewBox="0 0 20 20" fill="none" xmlns="http://www.w3.org/2000/svg">
<path d="M9.99967 16.6667C9.54134 16.6667 9.14898 16.5035 8.82259 16.1771C8.4962 15.8507 8.33301 15.4584 8.33301 15C8.33301 14.5417 8.4962 14.1493 8.82259 13.823C9.14898 13.4966 9.54134 13.3334 9.99967 13.3334C10.458 13.3334 10.8504 13.4966 11.1768 13.823C11.5031 14.1493 11.6663 14.5417 11.6663 15C11.6663 15.4584 11.5031 15.8507 11.1768 16.1771C10.8504 16.5035 10.458 16.6667 9.99967 16.6667ZM9.99967 11.6667C9.54134 11.6667 9.14898 11.5035 8.82259 11.1771C8.4962 10.8507 8.33301 10.4584 8.33301 10C8.33301 9.54171 8.4962 9.14935 8.82259 8.82296C9.14898 8.49657 9.54134 8.33337 9.99967 8.33337C10.458 8.33337 10.8504 8.49657 11.1768 8.82296C11.5031 9.14935 11.6663 9.54171 11.6663 10C11.6663 10.4584 11.5031 10.8507 11.1768 11.1771C10.8504 11.5035 10.458 11.6667 9.99967 11.6667ZM9.99967 6.66671C9.54134 6.66671 9.14898 6.50351 8.82259 6.17712C8.4962 5.85073 8.33301 5.45837 8.33301 5.00004C8.33301 4.54171 8.4962 4.14935 8.82259 3.82296C9.14898 3.49657 9.54134 3.33337 9.99967 3.33337C10.458 3.33337 10.8504 3.49657 11.1768 3.82296C11.5031 4.14935 11.6663 4.54171 11.6663 5.00004C11.6663 5.45837 11.5031 5.85073 11.1768 6.17712C10.8504 6.50351 10.458 6.66671 9.99967 6.66671Z" fill="#475367"/>
</svg>
