<svg width="19" height="23" viewBox="0 0 19 23" fill="none" xmlns="http://www.w3.org/2000/svg">
<path d="M15.688 12.207C15.7106 10.4431 16.6542 8.77411 18.1511 7.85023C17.2068 6.49629 15.625 5.63785 13.9794 5.58616C12.2242 5.40121 10.5227 6.64054 9.62824 6.64054C8.71652 6.64054 7.33943 5.60453 5.85653 5.63516C3.92364 5.69785 2.1217 6.80107 1.18131 8.49753C-0.840164 12.0111 0.667672 17.1747 2.60407 20.0148C3.5729 21.4055 4.70517 22.959 6.18673 22.9039C7.63653 22.8435 8.178 21.9758 9.92802 21.9758C11.6618 21.9758 12.1698 22.9039 13.6814 22.8688C15.2371 22.8435 16.2173 21.472 17.1521 20.0681C17.8482 19.0772 18.3839 17.982 18.7392 16.8231C16.911 16.0468 15.6901 14.1998 15.688 12.207Z" fill="#090909"/>
<path d="M12.8327 3.7184C13.681 2.69615 14.0989 1.38223 13.9977 0.0556641C12.7018 0.192305 11.5047 0.814082 10.645 1.79711C9.80435 2.75757 9.36687 4.04837 9.44958 5.32424C10.746 5.33764 12.0204 4.73272 12.8327 3.7184Z" fill="#090909"/>
</svg>
