<svg width="24" height="24" viewBox="0 0 24 24" fill="none" xmlns="http://www.w3.org/2000/svg">
<path d="M20.9956 9.16211C20.9956 9.48584 20.8637 9.75147 20.6186 9.96729L13.5583 16.334C13.2378 16.6162 12.9079 16.7573 12.5025 16.7573C12.0972 16.7573 11.7579 16.6245 11.4468 16.334L4.37705 9.96729C4.13197 9.74316 4 9.47754 4 9.16211C4 8.52295 4.58443 8 5.31026 8C5.66846 8 6.0078 8.13281 6.27174 8.36523L12.5025 14.0098L18.7239 8.36523C18.9878 8.13281 19.3272 8 19.6854 8C20.4112 8 20.9956 8.52295 20.9956 9.16211Z" fill="#3B82F6"/>
</svg>
