<svg width="32" height="33" viewBox="0 0 32 33" fill="none" xmlns="http://www.w3.org/2000/svg">
<g clip-path="url(#clip0_214_35389)">
<g clip-path="url(#clip1_214_35389)">
<mask id="mask0_214_35389" style="mask-type:luminance" maskUnits="userSpaceOnUse" x="3" y="1" width="26" height="31">
<path d="M3.5625 1.75H28.5V31.4375H3.5625V1.75Z" fill="white"/>
</mask>
<g mask="url(#mask0_214_35389)">
<path d="M20.6961 30.2919H20.6971C22.6411 30.2439 24.1471 30.1079 25.1881 29.8709C25.7161 29.7509 26.1791 29.5769 26.5221 29.3159C26.8861 29.0389 27.1241 28.6499 27.1241 28.1689C27.1241 27.9369 27.0721 27.6399 26.9941 27.3119L26.6401 26.0659L25.6301 23.0159C25.2741 21.9829 24.9441 20.7859 24.6441 19.4249C24.3461 18.0749 24.2011 16.9129 24.2011 15.9329C24.2011 14.1879 23.4151 12.8449 21.8921 11.9759C20.4181 11.1349 18.2851 10.7509 15.5671 10.7509C12.8491 10.7509 10.7161 11.1349 9.24206 11.9759C7.71906 12.8449 6.93206 14.1879 6.93206 15.9329C6.93206 16.9129 6.78806 18.0749 6.48906 19.4249C6.18806 20.7859 5.85906 21.9829 5.50206 23.0159L4.49206 26.0659L4.13806 27.3119C4.06006 27.6399 4.00806 27.9369 4.00806 28.1689C4.00806 28.6509 4.24606 29.0389 4.61006 29.3159C4.95306 29.5769 5.41606 29.7509 5.94306 29.8709C6.98406 30.1069 8.49006 30.2439 10.4341 30.2919H10.4351L15.5651 30.3159L20.6961 30.2919ZM12.5171 8.09395L12.7021 8.47995L13.1271 8.42695C13.9364 8.33012 14.751 8.2837 15.5661 8.28795C16.4591 8.28795 17.2721 8.33495 18.0051 8.42695L18.4301 8.47995L18.6151 8.09395C18.9431 7.40795 19.2221 6.73795 19.4501 6.08695L19.7121 5.25595C19.7691 5.03895 19.8141 4.81995 19.8141 4.63495C19.8141 4.05495 19.3741 3.64495 18.9481 3.37095L18.6351 3.16895L18.3171 3.36295C18.0171 3.54595 17.6121 3.70995 17.0871 3.84395C16.5903 3.97282 16.0793 4.039 15.5661 4.04095C15.0528 4.039 14.5419 3.97282 14.0451 3.84395C13.5201 3.70995 13.1151 3.54595 12.8141 3.36295L12.4961 3.16895L12.1831 3.37095C11.7571 3.64495 11.3171 4.05495 11.3171 4.63495C11.3171 4.81995 11.3621 5.03795 11.4201 5.25595L11.6821 6.08695C11.9111 6.73895 12.1891 7.40795 12.5171 8.09395Z" fill="white" stroke="#04B70A"/>
<path d="M13.141 26.2592V24.2402H11.875V23.2752H13.141V21.9542H11.875V20.8262H13.141V15.6602H15.876C17.146 15.6602 18.087 15.9222 18.698 16.4472C19.319 16.9722 19.629 17.7342 19.629 18.7332C19.629 19.7422 19.294 20.5342 18.625 21.1082C17.956 21.6722 16.971 21.9542 15.672 21.9542H14.45V23.2752H16.85V24.2402H14.45V26.2592H13.141ZM14.45 20.8262H15.483C16.366 20.8262 17.049 20.6782 17.534 20.3812C18.029 20.0842 18.276 19.5502 18.276 18.7782C18.276 18.1052 18.072 17.6052 17.665 17.2792C17.258 16.9532 16.622 16.7892 15.759 16.7892H14.45V20.8262Z" fill="#04B70A"/>
</g>
</g>
</g>
<defs>
<clipPath id="clip0_214_35389">
<rect width="32" height="32" fill="white" transform="translate(0 0.75)"/>
</clipPath>
<clipPath id="clip1_214_35389">
<rect width="32" height="32" fill="white" transform="translate(0 0.75)"/>
</clipPath>
</defs>
</svg>
