<svg width="33" height="33" viewBox="0 0 33 33" fill="none" xmlns="http://www.w3.org/2000/svg">
<g clip-path="url(#clip0_214_35406)">
<g clip-path="url(#clip1_214_35406)">
<g clip-path="url(#clip2_214_35406)">
<g opacity="0.7">
<path d="M28.7419 21.3359C29.7399 21.3119 30.5249 21.2429 31.0739 21.1209C31.3539 21.0589 31.6179 20.9649 31.8209 20.8129C32.0409 20.6489 32.1999 20.4049 32.1999 20.0939C32.1999 19.9539 32.1689 19.7879 32.1279 19.6209L31.9429 18.9829L31.4249 17.4479C31.2449 16.9379 31.0789 16.3449 30.9259 15.6669C30.7749 14.9989 30.7039 14.4289 30.7039 13.9549C30.7039 13.4979 30.6009 13.0759 30.3799 12.7049C30.1589 12.3339 29.8349 12.0399 29.4319 11.8139C28.6399 11.3709 27.5139 11.1779 26.1129 11.1779C24.7119 11.1779 23.5859 11.3709 22.7939 11.8139C22.3909 12.0389 22.0669 12.3339 21.8459 12.7049C21.6249 13.0759 21.5219 13.4989 21.5219 13.9549C21.5219 14.4289 21.4509 14.9979 21.2999 15.6669C21.168 16.2697 21.0014 16.8643 20.8009 17.4479L20.2829 18.9829L20.0979 19.6209C20.0569 19.7879 20.0259 19.9549 20.0259 20.0939C20.0259 20.4049 20.1849 20.6489 20.4049 20.8129C20.6079 20.9649 20.8719 21.0589 21.1519 21.1209C21.7009 21.2429 22.4849 21.3119 23.4829 21.3359L26.1139 21.3479L28.7439 21.3359H28.7419ZM24.3989 9.51088L24.5479 9.81588L24.8839 9.77488C25.2509 9.72988 25.6599 9.70688 26.1119 9.70688C26.5639 9.70688 26.9729 9.72988 27.3399 9.77488L27.6759 9.81588L27.8249 9.51088C27.9949 9.16088 28.1409 8.81988 28.2599 8.48588L28.3989 8.05488C28.4336 7.93819 28.4535 7.81756 28.4579 7.69588C28.4579 7.30388 28.1569 7.05188 27.9319 6.91088L27.6849 6.75488L27.4349 6.90488C27.2999 6.98588 27.1089 7.06288 26.8509 7.12788C26.5979 7.19088 26.3519 7.22188 26.1119 7.22188C25.8719 7.22188 25.6259 7.19088 25.3729 7.12788C25.1149 7.06388 24.9239 6.98588 24.7889 6.90488L24.5389 6.75488L24.2919 6.91088C24.0679 7.05188 23.7659 7.30388 23.7659 7.69588C23.7659 7.81388 23.7949 7.94288 23.8249 8.05488L23.9639 8.48588C24.0839 8.81988 24.2289 9.16188 24.3989 9.51088Z" fill="white" stroke="#04B70A" stroke-width="0.8"/>
<path d="M24.8709 18.5406V17.5276H24.2229V17.0436H24.8709V16.3806H24.2229V15.8146H24.8709V13.2236H26.2709C26.9209 13.2236 27.4029 13.3546 27.7159 13.6186C28.0289 13.8826 28.1929 14.2636 28.1929 14.7656C28.1929 15.2676 28.0219 15.6686 27.6789 15.9566C27.3359 16.2446 26.8329 16.3806 26.1669 16.3806H25.5419V17.0436H26.7709V17.5276H25.5419V18.5406H24.8709ZM25.5409 15.8156H26.0699C26.5219 15.8156 26.8719 15.7416 27.1199 15.5926C27.3679 15.4436 27.4999 15.1756 27.4999 14.7886C27.4999 14.4506 27.3959 14.2006 27.1869 14.0366C26.9779 13.8726 26.6529 13.7906 26.2109 13.7906H25.5409V15.8156Z" fill="#04B70A"/>
</g>
<g opacity="0.7">
<path d="M9.7429 21.3359C10.7409 21.3119 11.5249 21.2429 12.0739 21.1209C12.3539 21.0589 12.6169 20.9649 12.8209 20.8129C13.0409 20.6489 13.1999 20.4049 13.1999 20.0939C13.1999 19.9539 13.1689 19.7879 13.1279 19.6209L12.9429 18.9829L12.4249 17.4479C12.2449 16.9379 12.0789 16.3449 11.9259 15.6669C11.7749 14.9989 11.7039 14.4289 11.7039 13.9549C11.7039 13.4979 11.6009 13.0759 11.3799 12.7049C11.1589 12.3339 10.8349 12.0399 10.4319 11.8139C9.6399 11.3709 8.5139 11.1779 7.1129 11.1779C5.7119 11.1779 4.5859 11.3709 3.7939 11.8139C3.3909 12.0389 3.0669 12.3339 2.8459 12.7049C2.6249 13.0759 2.5219 13.4989 2.5219 13.9549C2.5219 14.4289 2.4509 14.9979 2.2999 15.6669C2.1469 16.3449 1.9799 16.9379 1.8009 17.4479L1.2819 18.9829L1.0969 19.6209C1.0559 19.7879 1.0249 19.9549 1.0249 20.0939C1.0249 20.4049 1.1839 20.6489 1.4039 20.8129C1.6069 20.9649 1.8709 21.0589 2.1509 21.1209C2.6999 21.2429 3.4839 21.3119 4.4819 21.3359L7.1129 21.3479L9.7429 21.3359ZM5.3989 9.51088L5.5479 9.81588L5.8839 9.77488C6.2509 9.72988 6.6599 9.70688 7.1119 9.70688C7.5639 9.70688 7.9729 9.72988 8.3399 9.77488L8.6759 9.81588L8.8249 9.51088C8.98855 9.17743 9.13377 8.83525 9.2599 8.48588L9.3989 8.05488C9.43367 7.93819 9.45349 7.81756 9.4579 7.69588C9.4579 7.30388 9.1569 7.05188 8.9319 6.91088L8.6849 6.75488L8.4349 6.90488C8.2999 6.98588 8.1089 7.06288 7.8509 7.12788C7.5979 7.19088 7.3519 7.22188 7.1119 7.22188C6.8719 7.22188 6.6259 7.19088 6.3729 7.12788C6.1149 7.06388 5.9239 6.98588 5.7889 6.90488L5.5389 6.75488L5.2919 6.91088C5.0679 7.05188 4.7659 7.30388 4.7659 7.69588C4.77031 7.81756 4.79014 7.93819 4.8249 8.05488L4.9639 8.48588C5.0839 8.81988 5.2289 9.16188 5.3989 9.51088Z" fill="white"/>
<path d="M9.7419 21.3359H9.7429M9.7429 21.3359C10.7409 21.3119 11.5249 21.2429 12.0739 21.1209C12.3539 21.0589 12.6169 20.9649 12.8209 20.8129C13.0409 20.6489 13.1999 20.4049 13.1999 20.0939C13.1999 19.9539 13.1689 19.7879 13.1279 19.6209L12.9429 18.9829L12.4249 17.4479C12.2449 16.9379 12.0789 16.3449 11.9259 15.6669C11.7749 14.9989 11.7039 14.4289 11.7039 13.9549C11.7039 13.4979 11.6009 13.0759 11.3799 12.7049C11.1589 12.3339 10.8349 12.0399 10.4319 11.8139C9.6399 11.3709 8.5139 11.1779 7.1129 11.1779C5.7119 11.1779 4.5859 11.3709 3.7939 11.8139C3.3909 12.0389 3.0669 12.3339 2.8459 12.7049C2.6249 13.0759 2.5219 13.4989 2.5219 13.9549C2.5219 14.4289 2.4509 14.9979 2.2999 15.6669C2.1469 16.3449 1.9799 16.9379 1.8009 17.4479L1.2819 18.9829L1.0969 19.6209C1.0559 19.7879 1.0249 19.9549 1.0249 20.0939C1.0249 20.4049 1.1839 20.6489 1.4039 20.8129C1.6069 20.9649 1.8709 21.0589 2.1509 21.1209C2.6999 21.2429 3.4839 21.3119 4.4819 21.3359L7.1129 21.3479L9.7429 21.3359ZM5.3989 9.51088L5.5479 9.81588L5.8839 9.77488C6.2509 9.72988 6.6599 9.70688 7.1119 9.70688C7.5639 9.70688 7.9729 9.72988 8.3399 9.77488L8.6759 9.81588L8.8249 9.51088C8.98855 9.17743 9.13377 8.83525 9.2599 8.48588L9.3989 8.05488C9.43367 7.93819 9.45349 7.81756 9.4579 7.69588C9.4579 7.30388 9.1569 7.05188 8.9319 6.91088L8.6849 6.75488L8.4349 6.90488C8.2999 6.98588 8.1089 7.06288 7.8509 7.12788C7.5979 7.19088 7.3519 7.22188 7.1119 7.22188C6.8719 7.22188 6.6259 7.19088 6.3729 7.12788C6.1149 7.06388 5.9239 6.98588 5.7889 6.90488L5.5389 6.75488L5.2919 6.91088C5.0679 7.05188 4.7659 7.30388 4.7659 7.69588C4.77031 7.81756 4.79014 7.93819 4.8249 8.05488L4.9639 8.48588C5.0839 8.81988 5.2289 9.16188 5.3989 9.51088Z" stroke="#04B70A" stroke-width="0.8"/>
<path d="M5.86992 18.5406V17.5276H5.22192V17.0436H5.86992V16.3806H5.22192V15.8146H5.86992V13.2236H7.26992C7.91992 13.2236 8.40192 13.3546 8.71492 13.6186C9.02792 13.8826 9.19192 14.2636 9.19192 14.7656C9.19192 15.2676 9.02092 15.6686 8.67792 15.9566C8.33492 16.2446 7.83192 16.3806 7.16592 16.3806H6.54092V17.0436H7.76992V17.5276H6.54092V18.5406H5.86992ZM6.53992 15.8156H7.06892C7.52092 15.8156 7.87092 15.7416 8.11892 15.5926C8.36692 15.4436 8.49892 15.1756 8.49892 14.7886C8.49892 14.4506 8.39492 14.2006 8.18592 14.0366C7.97692 13.8726 7.65192 13.7906 7.21092 13.7906H6.54092L6.53992 15.8156Z" fill="#04B70A"/>
</g>
<path d="M21.6481 29.7118C23.5201 29.6668 24.9711 29.5378 25.9751 29.3148C26.4841 29.2018 26.9321 29.0368 27.2651 28.7878C27.6191 28.5228 27.8581 28.1468 27.8581 27.6748C27.8581 27.4498 27.8061 27.1658 27.7311 26.8558L27.3891 25.6778L26.4161 22.7988C26.0731 21.8258 25.7571 20.6988 25.4671 19.4158C25.1801 18.1438 25.0421 17.0508 25.0421 16.1298C25.0421 15.3168 24.8591 14.5778 24.4751 13.9318C24.0911 13.2858 23.5241 12.7678 22.8031 12.3648C21.3811 11.5688 19.3241 11.2068 16.7081 11.2068C14.0921 11.2068 12.0351 11.5688 10.6131 12.3648C9.89311 12.7678 9.32611 13.2868 8.94111 13.9318C8.55611 14.5768 8.37311 15.3168 8.37311 16.1298C8.37311 17.0508 8.23511 18.1438 7.94811 19.4158C7.69754 20.5607 7.38102 21.6903 7.00011 22.7988L6.02711 25.6778L5.68511 26.8558C5.61011 27.1658 5.55811 27.4498 5.55811 27.6748C5.55811 28.1468 5.79711 28.5228 6.15111 28.7878C6.48411 29.0368 6.93311 29.2008 7.44111 29.3148C8.44411 29.5378 9.89511 29.6668 11.7671 29.7118L16.7081 29.7348L21.6471 29.7118H21.6481ZM13.7561 8.75276L13.9421 9.13376L14.3621 9.08176C15.0671 8.99476 15.8491 8.95076 16.7091 8.95076C17.5691 8.95076 18.3511 8.99476 19.0551 9.08176L19.4761 9.13376L19.6621 8.75276C19.9653 8.1353 20.2343 7.50169 20.4681 6.85476L20.7211 6.06776C20.7761 5.86276 20.8211 5.65176 20.8211 5.47076C20.8211 4.89976 20.3801 4.50476 19.9721 4.24676L19.6641 4.05176L19.3511 4.23876C19.0641 4.41076 18.6761 4.56476 18.1711 4.69076C17.6731 4.81476 17.1861 4.87576 16.7091 4.87576C16.2321 4.87576 15.7461 4.81476 15.2471 4.69076C14.7421 4.56476 14.3541 4.41076 14.0671 4.23876L13.7541 4.05176L13.4451 4.24676C13.0371 4.50376 12.5961 4.89876 12.5961 5.47076C12.5961 5.65176 12.6411 5.86276 12.6961 6.06776L12.9491 6.85476C13.1829 7.50169 13.4529 8.1353 13.7561 8.75276Z" fill="white" stroke="#04B70A"/>
<path d="M14.375 25.9414V24.0364H13.156V23.1264H14.375V21.8804H13.156V20.8164H14.375V15.9424H17.008C18.231 15.9424 19.137 16.1894 19.725 16.6844C20.323 17.1794 20.621 17.8984 20.621 18.8414C20.621 19.7934 20.299 20.5404 19.655 21.0824C19.011 21.6144 18.063 21.8804 16.812 21.8804H15.636V23.1264H17.947V24.0364H15.636V25.9414H14.376H14.375ZM15.635 20.8154H16.629C17.479 20.8154 18.137 20.6754 18.604 20.3954C19.08 20.1154 19.318 19.6114 19.318 18.8834C19.318 18.2484 19.122 17.7774 18.73 17.4684C18.338 17.1594 17.726 17.0064 16.895 17.0064H15.635V20.8154Z" fill="#04B70A"/>
</g>
</g>
</g>
<defs>
<clipPath id="clip0_214_35406">
<rect width="32" height="32" fill="white" transform="translate(0.5 0.75)"/>
</clipPath>
<clipPath id="clip1_214_35406">
<rect width="32" height="32" fill="white" transform="translate(0.5 0.75)"/>
</clipPath>
<clipPath id="clip2_214_35406">
<rect width="32" height="32" fill="white" transform="translate(0.5 0.75)"/>
</clipPath>
</defs>
</svg>
