<svg width="16" height="17" viewBox="0 0 16 17" fill="none" xmlns="http://www.w3.org/2000/svg">
<path d="M7.996 0.75C3.576 0.75 0 4.33 0 8.75C0 13.17 3.576 16.75 7.996 16.75C12.416 16.75 16 13.17 16 8.75C16 4.33 12.416 0.75 7.996 0.75ZM8 15.15C6.30261 15.15 4.67475 14.4757 3.47452 13.2755C2.27428 12.0753 1.6 10.4474 1.6 8.75C1.6 7.05261 2.27428 5.42475 3.47452 4.22452C4.67475 3.02428 6.30261 2.35 8 2.35C9.69739 2.35 11.3253 3.02428 12.5255 4.22452C13.7257 5.42475 14.4 7.05261 14.4 8.75C14.4 10.4474 13.7257 12.0753 12.5255 13.2755C11.3253 14.4757 9.69739 15.15 8 15.15ZM8.4 8.95V4.75H7.2V9.55L11.396 12.07L12 11.086L8.4 8.95Z" fill="#CCCCCC"/>
</svg>
