<svg width="21" height="22" viewBox="0 0 21 22" fill="none" xmlns="http://www.w3.org/2000/svg">
<g filter="url(#filter0_ii_484_3364)">
<path d="M1.19677 0.413981C0.954735 0.671155 0.811676 1.07028 0.811676 1.58713V20.0535C0.811676 20.5712 0.954735 20.9695 1.19677 21.2267L1.25832 21.2868L11.5626 10.9422V10.8203V10.6984L1.25832 0.353027L1.19677 0.413981Z" fill="url(#paint0_linear_484_3364)"/>
<path d="M14.9967 14.3916L11.5625 10.9423V10.8204V10.6985L14.9975 7.25L15.0749 7.29425L19.1446 9.6155C20.3065 10.2785 20.3065 11.3631 19.1446 12.0269L15.0749 14.3482L14.9967 14.3916Z" fill="url(#paint1_linear_484_3364)"/>
<g filter="url(#filter1_i_484_3364)">
<path d="M15.0751 14.3473L11.5618 10.8203L1.19676 21.2267C1.57936 21.6341 2.21231 21.6842 2.92511 21.2784L15.0751 14.3473Z" fill="url(#paint2_linear_484_3364)"/>
</g>
<path d="M15.0751 7.29347L2.92511 0.363135C2.21231 -0.0434996 1.57936 0.00743439 1.19676 0.414904L11.5627 10.8213L15.0751 7.29347Z" fill="url(#paint3_linear_484_3364)"/>
</g>
<defs>
<filter id="filter0_ii_484_3364" x="0.811676" y="0.0825195" width="19.2043" height="21.4761" filterUnits="userSpaceOnUse" color-interpolation-filters="sRGB">
<feFlood flood-opacity="0" result="BackgroundImageFix"/>
<feBlend mode="normal" in="SourceGraphic" in2="BackgroundImageFix" result="shape"/>
<feColorMatrix in="SourceAlpha" type="matrix" values="0 0 0 0 0 0 0 0 0 0 0 0 0 0 0 0 0 0 127 0" result="hardAlpha"/>
<feOffset dy="-0.795"/>
<feComposite in2="hardAlpha" operator="arithmetic" k2="-1" k3="1"/>
<feColorMatrix type="matrix" values="0 0 0 0 0 0 0 0 0 0 0 0 0 0 0 0 0 0 0.12 0"/>
<feBlend mode="normal" in2="shape" result="effect1_innerShadow_484_3364"/>
<feColorMatrix in="SourceAlpha" type="matrix" values="0 0 0 0 0 0 0 0 0 0 0 0 0 0 0 0 0 0 127 0" result="hardAlpha"/>
<feOffset dy="0.795"/>
<feComposite in2="hardAlpha" operator="arithmetic" k2="-1" k3="1"/>
<feColorMatrix type="matrix" values="0 0 0 0 1 0 0 0 0 1 0 0 0 0 1 0 0 0 0.25 0"/>
<feBlend mode="normal" in2="effect1_innerShadow_484_3364" result="effect2_innerShadow_484_3364"/>
</filter>
<filter id="filter1_i_484_3364" x="1.19676" y="10.8203" width="13.8783" height="10.7383" filterUnits="userSpaceOnUse" color-interpolation-filters="sRGB">
<feFlood flood-opacity="0" result="BackgroundImageFix"/>
<feBlend mode="normal" in="SourceGraphic" in2="BackgroundImageFix" result="shape"/>
<feColorMatrix in="SourceAlpha" type="matrix" values="0 0 0 0 0 0 0 0 0 0 0 0 0 0 0 0 0 0 127 0" result="hardAlpha"/>
<feOffset dy="-0.795"/>
<feComposite in2="hardAlpha" operator="arithmetic" k2="-1" k3="1"/>
<feColorMatrix type="matrix" values="0 0 0 0 0 0 0 0 0 0 0 0 0 0 0 0 0 0 0.08 0"/>
<feBlend mode="normal" in2="shape" result="effect1_innerShadow_484_3364"/>
</filter>
<linearGradient id="paint0_linear_484_3364" x1="10.6492" y1="1.39174" x2="-3.36328" y2="15.3498" gradientUnits="userSpaceOnUse">
<stop stop-color="#00A0FF"/>
<stop offset="0.0066" stop-color="#00A1FF"/>
<stop offset="0.2601" stop-color="#00BEFF"/>
<stop offset="0.5122" stop-color="#00D2FF"/>
<stop offset="0.7604" stop-color="#00DFFF"/>
<stop offset="1" stop-color="#00E3FF"/>
</linearGradient>
<linearGradient id="paint1_linear_484_3364" x1="20.6571" y1="10.8204" x2="0.532509" y2="10.8204" gradientUnits="userSpaceOnUse">
<stop stop-color="#FFE000"/>
<stop offset="0.4087" stop-color="#FFBD00"/>
<stop offset="0.7754" stop-color="#FFA500"/>
<stop offset="1" stop-color="#FF9C00"/>
</linearGradient>
<linearGradient id="paint2_linear_484_3364" x1="13.1672" y1="12.7357" x2="-5.83558" y2="31.6645" gradientUnits="userSpaceOnUse">
<stop stop-color="#FF3A44"/>
<stop offset="1" stop-color="#C31162"/>
</linearGradient>
<linearGradient id="paint3_linear_484_3364" x1="-1.41372" y1="-5.73238" x2="7.07153" y2="2.71988" gradientUnits="userSpaceOnUse">
<stop stop-color="#32A071"/>
<stop offset="0.0685" stop-color="#2DA771"/>
<stop offset="0.4762" stop-color="#15CF74"/>
<stop offset="0.8009" stop-color="#06E775"/>
<stop offset="1" stop-color="#00F076"/>
</linearGradient>
</defs>
</svg>
