<svg width="56" height="56" viewBox="0 0 56 56" fill="none" xmlns="http://www.w3.org/2000/svg">
<rect x="4" y="4" width="48" height="48" rx="24" fill="#D1FADF"/>
<rect x="4" y="4" width="48" height="48" rx="24" stroke="#ECFDF3" stroke-width="8"/>
<path d="M27.302 37.6152C27.5234 37.7444 27.6341 37.809 27.7903 37.8425C27.9116 37.8685 28.0884 37.8685 28.2097 37.8425C28.3659 37.809 28.4766 37.7444 28.698 37.6152C30.646 36.4788 36 32.9088 36 28.0004V23.218C36 22.4184 36 22.0187 35.8692 21.6751C35.7537 21.3715 35.566 21.1006 35.3223 20.8859C35.0465 20.6428 34.6722 20.5024 33.9236 20.2217L28.5618 18.211C28.3539 18.1331 28.25 18.0941 28.143 18.0786C28.0482 18.0649 27.9518 18.0649 27.857 18.0786C27.75 18.0941 27.6461 18.1331 27.4382 18.211L22.0764 20.2217C21.3278 20.5024 20.9535 20.6428 20.6777 20.8859C20.434 21.1006 20.2463 21.3715 20.1308 21.6751C20 22.0187 20 22.4184 20 23.218V28.0004C20 32.9088 25.354 36.4788 27.302 37.6152Z" stroke="#24A824" stroke-width="2" stroke-linecap="round" stroke-linejoin="round"/>
</svg>
