<svg width="22" height="22" viewBox="0 0 22 22" fill="none" xmlns="http://www.w3.org/2000/svg">
<path fill-rule="evenodd" clip-rule="evenodd" d="M10.4721 21.51C5.53583 21.51 3.0677 21.51 1.5342 19.998C0.000763521 18.486 0.000762939 16.0524 0.000762939 11.1852V10.3248C0.000762939 5.45758 0.000763521 3.02402 1.5342 1.51198C3.0677 0 5.53583 0 10.4721 0H11.3447C16.2809 0 18.7491 0 20.2825 1.51198C21.816 3.02402 21.816 5.45758 21.816 10.3248V11.1852C21.816 16.0524 21.816 18.486 20.2825 19.998C18.7491 21.51 16.2809 21.51 11.3447 21.51H10.4721ZM15.3686 13.9339L16.8426 14.297C17.5102 14.4615 18.1574 13.9662 18.1574 13.2908V6.2859C18.1574 5.69137 17.7453 5.1729 17.1575 5.02819L12.9298 3.98681C12.2622 3.82241 11.615 4.3177 11.615 4.99307V6.25579L8.95121 5.59968C8.28364 5.43527 7.63643 5.93057 7.63643 6.60594V7.86866L4.9725 7.21255C4.30493 7.04808 3.65773 7.54338 3.65773 8.21875V15.2236C3.65773 15.8182 4.06981 16.3366 4.65758 16.4814L8.88531 17.5227C9.55288 17.6872 10.2001 17.1919 10.2001 16.5165V15.3519L10.1993 15.3517L10.2004 9.52188C10.2004 8.93094 9.82183 8.58828 9.68425 8.48331C9.65803 8.46326 9.65078 8.42595 9.66955 8.399C9.68809 8.37249 9.72149 8.35993 9.75276 8.36926C10.3098 8.53507 10.8428 9.09815 10.896 9.80619L11.0799 15.1558C11.0859 15.3316 11.2013 15.484 11.3672 15.5412L12.864 15.9099C13.5316 16.0744 14.1788 15.5791 14.1788 14.9037L14.1799 7.90974C14.1799 7.31874 13.8013 6.97615 13.6637 6.87118C13.6375 6.85112 13.6303 6.81381 13.6491 6.78687C13.6676 6.76035 13.701 6.74779 13.7323 6.75706C14.2893 6.92293 14.8223 7.48601 14.8755 8.19406L15.0595 13.5433C15.0658 13.7263 15.1911 13.8838 15.3686 13.9339Z" fill="#0077FF"/>
</svg>
