<svg width="65" height="65" viewBox="0 0 65 65" fill="none" xmlns="http://www.w3.org/2000/svg">
<rect width="65" height="65" rx="3" fill="#65AADD"/>
<path d="M31.1327 23.2979C33.0113 23.2979 34.5594 23.5244 35.7772 23.9775C37.0044 24.4307 37.9154 25.1151 38.5101 26.0308C39.1049 26.9465 39.4022 28.1029 39.4022 29.5C39.4022 30.444 39.2229 31.27 38.8641 31.978C38.5054 32.686 38.0334 33.2855 37.4481 33.7764C36.8628 34.2673 36.2303 34.6685 35.5507 34.98L41.6395 44H36.7684L31.8265 36.0562H29.4901V44H25.1005V23.2979H31.1327ZM30.8212 26.8945H29.4901V32.4878H30.9061C32.3599 32.4878 33.3983 32.2471 34.0214 31.7656C34.6538 31.2747 34.9701 30.5573 34.9701 29.6133C34.9701 28.6315 34.6302 27.9329 33.9506 27.5176C33.2803 27.1022 32.2372 26.8945 30.8212 26.8945Z" fill="white"/>
</svg>
