<svg width="65" height="65" viewBox="0 0 65 65" fill="none" xmlns="http://www.w3.org/2000/svg">
<rect width="65" height="65" rx="3" fill="#7BC862"/>
<path d="M27.939 50.0889C27.3726 50.0889 26.877 50.0558 26.4521 49.9897C26.0179 49.9331 25.6497 49.8623 25.3477 49.7773V46.124C25.6497 46.1901 25.9754 46.2515 26.3247 46.3081C26.6646 46.3742 27.028 46.4072 27.415 46.4072C27.9248 46.4072 28.3826 46.3081 28.7886 46.1099C29.1945 45.9211 29.5155 45.5576 29.7515 45.0195C29.9875 44.4814 30.1055 43.7074 30.1055 42.6973V23.2979H34.4951V42.6689C34.4951 44.4437 34.2166 45.8739 33.6597 46.9595C33.1121 48.0545 32.3428 48.8475 31.3516 49.3384C30.3698 49.8387 29.2323 50.0889 27.939 50.0889Z" fill="white"/>
</svg>
