<svg width="30" height="30" viewBox="0 0 30 30" fill="none" xmlns="http://www.w3.org/2000/svg">
<path d="M12.3504 28.0701L12.5481 27.0898L12.5481 27.0898L12.3504 28.0701ZM24.407 24.4492L23.7015 23.7405L23.7015 23.7405L24.407 24.4492ZM13.6667 8.99999H14.6667C14.6667 7.34314 13.3236 5.99999 11.6667 5.99999V6.99999V7.99999C12.219 7.99999 12.6667 8.44771 12.6667 8.99999H13.6667ZM11.6667 6.99999V5.99999C10.0099 5.99999 8.66675 7.34314 8.66675 8.99999H9.66675H10.6667C10.6667 8.44771 11.1145 7.99999 11.6667 7.99999V6.99999ZM9.66675 8.99999H8.66675C8.66675 10.6568 10.0099 12 11.6667 12V11V9.99999C11.1145 9.99999 10.6667 9.55227 10.6667 8.99999H9.66675ZM11.6667 11V12C13.3236 12 14.6667 10.6568 14.6667 8.99999H13.6667H12.6667C12.6667 9.55227 12.219 9.99999 11.6667 9.99999V11ZM23.6667 12.3333H24.6667C24.6667 10.6765 23.3236 9.33332 21.6667 9.33332V10.3333V11.3333C22.219 11.3333 22.6667 11.781 22.6667 12.3333H23.6667ZM21.6667 10.3333V9.33332C20.0099 9.33332 18.6667 10.6765 18.6667 12.3333H19.6667H20.6667C20.6667 11.781 21.1145 11.3333 21.6667 11.3333V10.3333ZM19.6667 12.3333H18.6667C18.6667 13.9902 20.0099 15.3333 21.6667 15.3333V14.3333V13.3333C21.1145 13.3333 20.6667 12.8856 20.6667 12.3333H19.6667ZM21.6667 14.3333V15.3333C23.3236 15.3333 24.6667 13.9902 24.6667 12.3333H23.6667H22.6667C22.6667 12.8856 22.219 13.3333 21.6667 13.3333V14.3333ZM11.6667 19.6667H12.6667C12.6667 18.0098 11.3236 16.6667 9.66675 16.6667V17.6667V18.6667C10.219 18.6667 10.6667 19.1144 10.6667 19.6667H11.6667ZM9.66675 17.6667V16.6667C8.00989 16.6667 6.66675 18.0098 6.66675 19.6667H7.66675H8.66675C8.66675 19.1144 9.11446 18.6667 9.66675 18.6667V17.6667ZM7.66675 19.6667H6.66675C6.66675 21.3235 8.00989 22.6667 9.66675 22.6667V21.6667V20.6667C9.11446 20.6667 8.66675 20.2189 8.66675 19.6667H7.66675ZM9.66675 21.6667V22.6667C11.3236 22.6667 12.6667 21.3235 12.6667 19.6667H11.6667H10.6667C10.6667 20.2189 10.219 20.6667 9.66675 20.6667V21.6667ZM12.3504 28.0701L12.5481 27.0898C6.91115 25.9532 2.66675 20.9712 2.66675 15H1.66675H0.666748C0.666748 21.942 5.60082 27.7293 12.1528 29.0503L12.3504 28.0701ZM1.66675 15H2.66675C2.66675 8.18848 8.18857 2.66666 15.0001 2.66666V1.66666V0.666656C7.084 0.666656 0.666748 7.08391 0.666748 15H1.66675ZM15.0001 1.66666V2.66666C21.8116 2.66666 27.3334 8.18848 27.3334 15H28.3334H29.3334C29.3334 7.08391 22.9162 0.666656 15.0001 0.666656V1.66666ZM17.963 17.963V18.963C19.0472 18.963 19.926 19.8418 19.926 20.9259H20.926H21.926C21.926 18.7372 20.1517 16.963 17.963 16.963V17.963ZM15.0001 20.9259H16.0001C16.0001 19.8418 16.8789 18.963 17.963 18.963V17.963V16.963C15.7744 16.963 14.0001 18.7372 14.0001 20.9259H15.0001ZM20.926 20.9259H19.926V22.6443H20.926H21.926V20.9259H20.926ZM28.3334 15H27.3334C27.3334 18.4159 25.946 21.506 23.7015 23.7405L24.407 24.4492L25.1126 25.1579C27.7186 22.5634 29.3334 18.9693 29.3334 15H28.3334ZM15.0001 20.9259H14.0001V25.6667H15.0001H16.0001V20.9259H15.0001ZM20.926 22.6443H19.926C19.926 23.9886 20.6356 25.1321 21.6623 25.6911C22.7264 26.2704 24.0822 26.1837 25.1126 25.1579L24.407 24.4492L23.7015 23.7405C23.3291 24.1113 22.9443 24.1119 22.6186 23.9345C22.2555 23.7368 21.926 23.2796 21.926 22.6443H20.926ZM12.3504 28.0701L12.1528 29.0503C14.3534 29.494 16.0001 27.6226 16.0001 25.6667H15.0001H14.0001C14.0001 26.6563 13.2349 27.2283 12.5481 27.0898L12.3504 28.0701Z" fill="#0A0614"/>
</svg>
