<svg width="32" height="32" viewBox="0 0 32 32" fill="none" xmlns="http://www.w3.org/2000/svg">
<path d="M12.0001 17.3333C11.1201 17.7733 10.3868 18.4267 9.84011 19.24C9.53344 19.7067 9.53344 20.2933 9.84011 20.76C10.3868 21.5733 11.1201 22.2267 12.0001 22.6667" stroke="#292D32" stroke-width="2" stroke-linecap="round" stroke-linejoin="round"/>
<path d="M20.28 17.3333C21.16 17.7733 21.8934 18.4267 22.44 19.24C22.7467 19.7067 22.7467 20.2933 22.44 20.76C21.8934 21.5733 21.16 22.2267 20.28 22.6667" stroke="#292D32" stroke-width="2" stroke-linecap="round" stroke-linejoin="round"/>
<path d="M12.0001 29.3333H20.0001C26.6667 29.3333 29.3334 26.6667 29.3334 20V12C29.3334 5.33332 26.6667 2.66666 20.0001 2.66666H12.0001C5.33341 2.66666 2.66675 5.33332 2.66675 12V20C2.66675 26.6667 5.33341 29.3333 12.0001 29.3333Z" stroke="#292D32" stroke-width="2" stroke-linecap="round" stroke-linejoin="round"/>
<path d="M2.97339 10.68L28.6001 10.6667" stroke="#292D32" stroke-width="2" stroke-linecap="round" stroke-linejoin="round"/>
</svg>
