<svg width="32" height="32" viewBox="0 0 32 32" fill="none" xmlns="http://www.w3.org/2000/svg">
<path d="M28 22.6667C28 24.8758 26.2091 26.6667 24 26.6667C21.7909 26.6667 20 24.8758 20 22.6667C20 20.4575 21.7909 18.6667 24 18.6667C26.2091 18.6667 28 20.4575 28 22.6667ZM28 22.6667V14.3665C28 12.5463 26.2168 11.2611 24.4901 11.8366L15.6468 14.7844C13.469 15.5103 12 17.5484 12 19.844V25.3333M12 25.3333C12 27.5425 10.2091 29.3333 8 29.3333C5.79086 29.3333 4 27.5425 4 25.3333C4 23.1242 5.79086 21.3333 8 21.3333C10.2091 21.3333 12 23.1242 12 25.3333ZM28 16V6.36647C28 4.54631 26.2168 3.26106 24.4901 3.83664L15.6468 6.7844C13.469 7.51034 12 9.54842 12 11.844V18.6667" stroke="#0A0614" stroke-width="2" stroke-linecap="round" stroke-linejoin="round"/>
</svg>
