<svg width="32" height="32" viewBox="0 0 32 32" fill="none" xmlns="http://www.w3.org/2000/svg">
<path d="M9.33342 8V9C9.66777 9 9.98 8.8329 10.1655 8.5547L9.33342 8ZM11.2084 5.18747L10.3764 4.63277V4.63277L11.2084 5.18747ZM20.7917 5.18747L21.6238 4.63277L20.7917 5.18747ZM22.6667 8L21.8347 8.5547C22.0202 8.8329 22.3324 9 22.6667 9V8ZM20.0001 18H19.0001C19.0001 19.6569 17.6569 21 16.0001 21V22V23C18.7615 23 21.0001 20.7614 21.0001 18H20.0001ZM16.0001 22V21C14.3432 21 13.0001 19.6569 13.0001 18H12.0001H11.0001C11.0001 20.7614 13.2387 23 16.0001 23V22ZM12.0001 18H13.0001C13.0001 16.3431 14.3432 15 16.0001 15V14V13C13.2387 13 11.0001 15.2386 11.0001 18H12.0001ZM16.0001 14V15C17.6569 15 19.0001 16.3431 19.0001 18H20.0001H21.0001C21.0001 15.2386 18.7615 13 16.0001 13V14ZM9.33342 8L10.1655 8.5547L12.0405 5.74217L11.2084 5.18747L10.3764 4.63277L8.50136 7.4453L9.33342 8ZM13.4272 4V5H18.5729V4V3H13.4272V4ZM20.7917 5.18747L19.9597 5.74217L21.8347 8.5547L22.6667 8L23.4988 7.4453L21.6238 4.63277L20.7917 5.18747ZM18.5729 4V5C19.1302 5 19.6506 5.2785 19.9597 5.74217L20.7917 5.18747L21.6238 4.63277C20.9437 3.6127 19.7989 3 18.5729 3V4ZM11.2084 5.18747L12.0405 5.74217C12.3496 5.2785 12.87 5 13.4272 5V4V3C12.2013 3 11.0564 3.6127 10.3764 4.63277L11.2084 5.18747ZM29.3334 13.3333H28.3334V22.6667H29.3334H30.3334V13.3333H29.3334ZM24.0001 28V27H8.00008V28V29H24.0001V28ZM2.66675 22.6667H3.66675V13.3333H2.66675H1.66675V22.6667H2.66675ZM8.00008 28V27C5.60685 27 3.66675 25.0599 3.66675 22.6667H2.66675H1.66675C1.66675 26.1645 4.50228 29 8.00008 29V28ZM29.3334 22.6667H28.3334C28.3334 25.0599 26.3933 27 24.0001 27V28V29C27.4979 29 30.3334 26.1645 30.3334 22.6667H29.3334ZM24.0001 8V9C26.3933 9 28.3334 10.9401 28.3334 13.3333H29.3334H30.3334C30.3334 9.83553 27.4979 7 24.0001 7V8ZM8.00008 8V7C4.50228 7 1.66675 9.83553 1.66675 13.3333H2.66675H3.66675C3.66675 10.9401 5.60685 9 8.00008 9V8ZM8.00008 8V9H9.33342V8V7H8.00008V8ZM24.0001 8V7H22.6667V8V9H24.0001V8Z" fill="#0A0614"/>
<circle cx="16.0001" cy="8.00002" r="1.33333" fill="#0A0614"/>
</svg>
