<svg width="32" height="32" viewBox="0 0 32 32" fill="none" xmlns="http://www.w3.org/2000/svg">
<path d="M18.8802 21.2376L21.7428 26.1958C22.2951 27.1524 21.9673 28.3756 21.0107 28.9279C20.0541 29.4801 18.831 29.1524 18.2787 28.1958L14.7406 22.0677M25.9391 6.44014L26.4271 4.61878M28.6058 11.059L30.4271 11.547M10.7975 22.8803L24.9558 19.6384C26.7046 19.2379 27.567 17.2594 26.6699 15.7056L20.9472 5.79351C20.0501 4.23973 17.9055 3.99733 16.6842 5.31168L6.79745 15.9521L10.7975 22.8803ZM7.13082 16.5295L10.4642 22.303C11.0164 23.2595 10.6887 24.4827 9.7321 25.035C8.77552 25.5873 7.55234 25.2595 7.00005 24.303L3.66672 18.5295C3.11444 17.5729 3.44219 16.3497 4.39877 15.7974C5.35536 15.2451 6.57854 15.5729 7.13082 16.5295Z" stroke="#0A0614" stroke-width="2" stroke-linecap="round" stroke-linejoin="round"/>
</svg>
