<svg width="32" height="32" viewBox="0 0 32 32" fill="none" xmlns="http://www.w3.org/2000/svg">
<path d="M16.0001 18.6667C17.4728 18.6667 18.6667 17.4728 18.6667 16C18.6667 14.5273 17.4728 13.3334 16.0001 13.3334C14.5273 13.3334 13.3334 14.5273 13.3334 16C13.3334 17.4728 14.5273 18.6667 16.0001 18.6667ZM16.0001 18.6667V29.3334M9.33341 8.00002H22.6667C24.1395 8.00002 25.3334 6.80611 25.3334 5.33335C25.3334 3.86059 24.1395 2.66669 22.6667 2.66669H9.33341C7.86066 2.66669 6.66675 3.86059 6.66675 5.33335C6.66675 6.80611 7.86066 8.00002 9.33341 8.00002ZM9.32271 8.00002H22.6775L24.9628 15.1043C25.6253 16.7772 25.3906 18.6415 24.3302 20.1291L17.2692 28.7014C16.6686 29.544 15.3316 29.544 14.7309 28.7014L7.66992 20.1291C6.60951 18.6415 6.37482 16.7772 7.03734 15.1043L9.32271 8.00002Z" stroke="#0A0614" stroke-width="2"/>
</svg>
