<svg width="28" height="28" viewBox="0 0 28 28" fill="none" xmlns="http://www.w3.org/2000/svg">
<path d="M25.4184 14.2628C25.4184 13.4946 25.3504 12.7655 25.2337 12.0558H14.2476V16.4405H20.5379C20.2559 17.8794 19.4295 19.0946 18.2045 19.9211V22.8378H21.9572C24.1545 20.8058 25.4184 17.8113 25.4184 14.2628Z" fill="#4285F4"/>
<path d="M14.2479 25.6665C17.3979 25.6665 20.0326 24.6165 21.9576 22.8373L18.2049 19.9207C17.1549 20.6207 15.8229 21.0484 14.2479 21.0484C11.2049 21.0484 8.6285 18.997 7.7049 16.2262H3.83545V19.2304C5.75072 23.0415 9.68823 25.6665 14.2479 25.6665Z" fill="#34A853"/>
<path d="M7.70467 16.2264C7.46162 15.5264 7.33522 14.7777 7.33522 13.9999C7.33522 13.2222 7.47134 12.4736 7.70467 11.7736V8.76941H3.83522C3.038 10.3444 2.58105 12.1139 2.58105 13.9999C2.58105 15.8861 3.038 17.6556 3.83522 19.2306L7.70467 16.2264Z" fill="#FBBC05"/>
<path d="M14.2479 6.95143C15.9688 6.95143 17.5049 7.54449 18.7201 8.70144L22.0451 5.37643C20.0326 3.49032 17.3979 2.33337 14.2479 2.33337C9.68823 2.33337 5.75072 4.95837 3.83545 8.76949L7.7049 11.7737C8.6285 9.00282 11.2049 6.95143 14.2479 6.95143Z" fill="#EA4335"/>
</svg>
