<svg width="28" height="28" viewBox="0 0 28 28" fill="none" xmlns="http://www.w3.org/2000/svg">
<g clip-path="url(#clip0_978_7459)">
<path d="M14 28C21.732 28 28 21.732 28 14C28 6.26801 21.732 0 14 0C6.26801 0 0 6.26801 0 14C0 21.732 6.26801 28 14 28Z" fill="url(#paint0_linear_978_7459)"/>
<path fill-rule="evenodd" clip-rule="evenodd" d="M6.33718 13.8523C10.4185 12.0741 13.14 10.9019 14.5016 10.3355C18.3897 8.71838 19.1975 8.43747 19.7241 8.4282C19.8399 8.42616 20.0988 8.45486 20.2666 8.59096C20.4082 8.70589 20.4472 8.86114 20.4659 8.97011C20.4845 9.07906 20.5077 9.32728 20.4892 9.52124C20.2785 11.735 19.3669 17.1071 18.9031 19.5865C18.7069 20.6356 18.3205 20.9875 17.9463 21.0219C17.1333 21.0967 16.516 20.4845 15.7285 19.9684C14.4964 19.1607 13.8002 18.6579 12.6042 17.8697C11.222 16.9589 12.118 16.4582 12.9057 15.6401C13.1119 15.4259 16.694 12.1677 16.7633 11.8721C16.7721 11.8351 16.7801 11.6973 16.6982 11.6246C16.6163 11.5518 16.4956 11.5767 16.4083 11.5965C16.2848 11.6245 14.3164 12.9256 10.5031 15.4997C9.94433 15.8833 9.43825 16.0703 8.98482 16.0605C8.48495 16.0497 7.52339 15.7778 6.80857 15.5454C5.93182 15.2605 5.235 15.1098 5.29568 14.6258C5.32728 14.3736 5.67445 14.1158 6.33718 13.8523Z" fill="white"/>
</g>
<defs>
<linearGradient id="paint0_linear_978_7459" x1="14" y1="0" x2="14" y2="27.7923" gradientUnits="userSpaceOnUse">
<stop stop-color="#2AABEE"/>
<stop offset="1" stop-color="#229ED9"/>
</linearGradient>
<clipPath id="clip0_978_7459">
<rect width="28" height="28" fill="white"/>
</clipPath>
</defs>
</svg>
