<svg width="20" height="24" viewBox="0 0 20 24" fill="none" xmlns="http://www.w3.org/2000/svg">
<path d="M16.5173 22.3937C15.2418 23.622 13.8345 23.4305 12.4929 22.8514C11.0668 22.2606 9.7629 22.2232 8.25673 22.8514C6.38104 23.6546 5.38553 23.4212 4.25587 22.3937C-2.12196 15.8788 -1.18059 5.95453 6.06803 5.58091C7.82606 5.67432 9.05695 6.54531 10.0924 6.61771C11.6315 6.30713 13.1048 5.41745 14.7523 5.53421C16.7315 5.69299 18.2118 6.46826 19.2003 7.86232C15.1287 10.2908 16.0937 15.6149 19.8333 17.1094C19.0849 19.0591 18.1248 20.9856 16.515 22.41L16.5173 22.3937ZM9.9512 5.51085C9.76057 2.61533 12.1257 0.233508 14.8464 0C15.2206 3.33921 11.787 5.83778 9.9512 5.51085Z" fill="#252129"/>
</svg>
