<svg width="32" height="32" viewBox="0 0 32 32" fill="none" xmlns="http://www.w3.org/2000/svg">
<path d="M12.5715 5.71423H6.85721C6.22603 5.71423 5.71436 6.22591 5.71436 6.85709V12.5714C5.71436 13.2026 6.22603 13.7142 6.85721 13.7142H12.5715C13.2027 13.7142 13.7144 13.2026 13.7144 12.5714V6.85709C13.7144 6.22591 13.2027 5.71423 12.5715 5.71423Z" stroke="#252129" stroke-width="2.28571"/>
<path d="M12.5715 18.2858H6.85721C6.22603 18.2858 5.71436 18.7974 5.71436 19.4286V25.1429C5.71436 25.7741 6.22603 26.2858 6.85721 26.2858H12.5715C13.2027 26.2858 13.7144 25.7741 13.7144 25.1429V19.4286C13.7144 18.7974 13.2027 18.2858 12.5715 18.2858Z" stroke="#252129" stroke-width="2.28571"/>
<path d="M25.1428 5.71423H19.4285C18.7973 5.71423 18.2856 6.22591 18.2856 6.85709V12.5714C18.2856 13.2026 18.7973 13.7142 19.4285 13.7142H25.1428C25.774 13.7142 26.2856 13.2026 26.2856 12.5714V6.85709C26.2856 6.22591 25.774 5.71423 25.1428 5.71423Z" stroke="#252129" stroke-width="2.28571"/>
<path d="M20.5714 18.2858H19.4285C18.7973 18.2858 18.2856 18.7974 18.2856 19.4286V20.5715C18.2856 21.2027 18.7973 21.7143 19.4285 21.7143H20.5714C21.2025 21.7143 21.7142 21.2027 21.7142 20.5715V19.4286C21.7142 18.7974 21.2025 18.2858 20.5714 18.2858Z" fill="#252129"/>
<path d="M20.5714 22.8572H19.4285C18.7973 22.8572 18.2856 23.3689 18.2856 24V25.1429C18.2856 25.7741 18.7973 26.2857 19.4285 26.2857H20.5714C21.2025 26.2857 21.7142 25.7741 21.7142 25.1429V24C21.7142 23.3689 21.2025 22.8572 20.5714 22.8572Z" fill="#252129"/>
<path d="M25.1426 18.2858H23.9998C23.3686 18.2858 22.8569 18.7974 22.8569 19.4286V20.5715C22.8569 21.2027 23.3686 21.7143 23.9998 21.7143H25.1426C25.7738 21.7143 26.2855 21.2027 26.2855 20.5715V19.4286C26.2855 18.7974 25.7738 18.2858 25.1426 18.2858Z" fill="#252129"/>
<path d="M25.1426 22.8572H23.9998C23.3686 22.8572 22.8569 23.3689 22.8569 24V25.1429C22.8569 25.7741 23.3686 26.2857 23.9998 26.2857H25.1426C25.7738 26.2857 26.2855 25.7741 26.2855 25.1429V24C26.2855 23.3689 25.7738 22.8572 25.1426 22.8572Z" fill="#252129"/>
</svg>
