<svg width="28" height="28" viewBox="0 0 28 28" fill="none" xmlns="http://www.w3.org/2000/svg">
<path d="M14.0002 25.6667C20.4434 25.6667 25.6668 20.4433 25.6668 14C25.6668 7.55672 20.4434 2.33337 14.0002 2.33337C7.55684 2.33337 2.3335 7.55672 2.3335 14C2.3335 20.4433 7.55684 25.6667 14.0002 25.6667Z" fill="#FC3F1D"/>
<path d="M15.8301 21.2917H18.3737V6.70837H14.6713C10.9479 6.70837 8.9948 8.61442 8.9948 11.4301C8.9948 13.8607 10.261 15.2312 12.5039 16.7198L13.8667 17.6193L12.1175 16.1522L8.65137 21.2917H11.4091L15.1117 15.7668L13.8241 14.91C12.268 13.8607 11.506 13.047 11.506 11.2802C11.506 9.72786 12.6008 8.67858 14.6823 8.67858H15.8198V21.2917H15.8301Z" fill="white"/>
</svg>
