<svg width="54" height="54" viewBox="0 0 54 54" fill="none" xmlns="http://www.w3.org/2000/svg">
<path d="M0 8C0 3.58172 3.58172 0 8 0H46C50.4183 0 54 3.58172 54 8V46C54 50.4183 50.4183 54 46 54H8C3.58172 54 0 50.4183 0 46V8Z" fill="#F7F7F7"/>
<path d="M29.1601 30.9284L31.3071 34.6471C31.7213 35.3645 31.4755 36.2819 30.758 36.6961C30.0406 37.1103 29.1232 36.8645 28.709 36.1471L26.0555 31.551M34.4543 19.8304L34.8203 18.4643M36.4543 23.2945L37.8203 23.6605M23.0981 32.1605L33.7168 29.729C35.0285 29.4287 35.6753 27.9448 35.0025 26.7795L30.7104 19.3454C30.0376 18.18 28.4291 17.9982 27.5132 18.984L20.0981 26.9643L23.0981 32.1605ZM20.3481 27.3973L22.8481 31.7275C23.2623 32.4449 23.0165 33.3623 22.2991 33.7765C21.5816 34.1907 20.6643 33.9449 20.25 33.2275L17.75 28.8973C17.3358 28.1799 17.5816 27.2625 18.2991 26.8483C19.0165 26.4341 19.9339 26.6799 20.3481 27.3973Z" stroke="#0A0614" stroke-width="1.5" stroke-linecap="round" stroke-linejoin="round"/>
</svg>
