<svg width="54" height="54" viewBox="0 0 54 54" fill="none" xmlns="http://www.w3.org/2000/svg">
<path d="M0 8C0 3.58172 3.58172 0 8 0H46C50.4183 0 54 3.58172 54 8V46C54 50.4183 50.4183 54 46 54H8C3.58172 54 0 50.4183 0 46V8Z" fill="#F7F7F7"/>
<path d="M25.0128 36.8025L25.161 36.0673H25.161L25.0128 36.8025ZM34.0552 34.0869L33.5261 33.5554L34.0552 34.0869ZM26 22.5H26.75C26.75 21.2574 25.7426 20.25 24.5 20.25V21V21.75C24.9142 21.75 25.25 22.0858 25.25 22.5H26ZM24.5 21V20.25C23.2574 20.25 22.25 21.2574 22.25 22.5H23H23.75C23.75 22.0858 24.0858 21.75 24.5 21.75V21ZM23 22.5H22.25C22.25 23.7426 23.2574 24.75 24.5 24.75V24V23.25C24.0858 23.25 23.75 22.9142 23.75 22.5H23ZM24.5 24V24.75C25.7426 24.75 26.75 23.7426 26.75 22.5H26H25.25C25.25 22.9142 24.9142 23.25 24.5 23.25V24ZM33.5 25H34.25C34.25 23.7574 33.2426 22.75 32 22.75V23.5V24.25C32.4142 24.25 32.75 24.5858 32.75 25H33.5ZM32 23.5V22.75C30.7574 22.75 29.75 23.7574 29.75 25H30.5H31.25C31.25 24.5858 31.5858 24.25 32 24.25V23.5ZM30.5 25H29.75C29.75 26.2426 30.7574 27.25 32 27.25V26.5V25.75C31.5858 25.75 31.25 25.4142 31.25 25H30.5ZM32 26.5V27.25C33.2426 27.25 34.25 26.2426 34.25 25H33.5H32.75C32.75 25.4142 32.4142 25.75 32 25.75V26.5ZM24.5 30.5H25.25C25.25 29.2574 24.2426 28.25 23 28.25V29V29.75C23.4142 29.75 23.75 30.0858 23.75 30.5H24.5ZM23 29V28.25C21.7574 28.25 20.75 29.2574 20.75 30.5H21.5H22.25C22.25 30.0858 22.5858 29.75 23 29.75V29ZM21.5 30.5H20.75C20.75 31.7426 21.7574 32.75 23 32.75V32V31.25C22.5858 31.25 22.25 30.9142 22.25 30.5H21.5ZM23 32V32.75C24.2426 32.75 25.25 31.7426 25.25 30.5H24.5H23.75C23.75 30.9142 23.4142 31.25 23 31.25V32ZM25.0128 36.8025L25.161 36.0673C20.9333 35.2149 17.75 31.4784 17.75 27H17H16.25C16.25 32.2065 19.9506 36.547 24.8645 37.5378L25.0128 36.8025ZM17 27H17.75C17.75 21.8914 21.8914 17.75 27 17.75V17V16.25C21.0629 16.25 16.25 21.0629 16.25 27H17ZM27 17V17.75C32.1086 17.75 36.25 21.8914 36.25 27H37H37.75C37.75 21.0629 32.9371 16.25 27 16.25V17ZM29.2222 29.2222V29.9722C30.0353 29.9722 30.6944 30.6314 30.6944 31.4444H31.4444H32.1944C32.1944 29.8029 30.8637 28.4722 29.2222 28.4722V29.2222ZM27 31.4444H27.75C27.75 30.6314 28.4091 29.9722 29.2222 29.9722V29.2222V28.4722C27.5807 28.4722 26.25 29.8029 26.25 31.4444H27ZM31.4444 31.4444H30.6944V32.7333H31.4444H32.1944V31.4444H31.4444ZM37 27H36.25C36.25 29.562 35.2094 31.8795 33.5261 33.5554L34.0552 34.0869L34.5844 34.6184C36.5389 32.6725 37.75 29.977 37.75 27H37ZM27 31.4444H26.25V35H27H27.75V31.4444H27ZM31.4444 32.7333H30.6944C30.6944 33.7415 31.2266 34.5991 31.9966 35.0183C32.7947 35.4528 33.8116 35.3878 34.5844 34.6184L34.0552 34.0869L33.5261 33.5554C33.2467 33.8335 32.9582 33.8339 32.7139 33.7009C32.4416 33.5526 32.1944 33.2097 32.1944 32.7333H31.4444ZM25.0128 36.8025L24.8645 37.5378C26.515 37.8705 27.75 36.4669 27.75 35H27H26.25C26.25 35.7422 25.6761 36.1712 25.161 36.0673L25.0128 36.8025Z" fill="#0A0614"/>
</svg>
