<svg width="54" height="54" viewBox="0 0 54 54" fill="none" xmlns="http://www.w3.org/2000/svg">
<path d="M0 8C0 3.58172 3.58172 0 8 0H46C50.4183 0 54 3.58172 54 8V46C54 50.4183 50.4183 54 46 54H8C3.58172 54 0 50.4183 0 46V8Z" fill="#F7F7F7"/>
<path d="M24.0005 28C23.3405 28.33 22.7905 28.82 22.3805 29.43C22.1505 29.78 22.1505 30.22 22.3805 30.57C22.7905 31.18 23.3405 31.67 24.0005 32" stroke="#0A0614" stroke-width="1.5" stroke-linecap="round" stroke-linejoin="round"/>
<path d="M30.21 28C30.87 28.33 31.42 28.82 31.83 29.43C32.06 29.78 32.06 30.22 31.83 30.57C31.42 31.18 30.87 31.67 30.21 32" stroke="#0A0614" stroke-width="1.5" stroke-linecap="round" stroke-linejoin="round"/>
<path d="M24 37H30C35 37 37 35 37 30V24C37 19 35 17 30 17H24C19 17 17 19 17 24V30C17 35 19 37 24 37Z" stroke="#0A0614" stroke-width="1.5" stroke-linecap="round" stroke-linejoin="round"/>
<path d="M17.2295 23.01L36.4495 23" stroke="#0A0614" stroke-width="1.5" stroke-linecap="round" stroke-linejoin="round"/>
</svg>
