<svg width="54" height="54" viewBox="0 0 54 54" fill="none" xmlns="http://www.w3.org/2000/svg">
<path d="M0 8C0 3.58172 3.58172 0 8 0H46C50.4183 0 54 3.58172 54 8V46C54 50.4183 50.4183 54 46 54H8C3.58172 54 0 50.4183 0 46V8Z" fill="#F7F7F7"/>
<path d="M36 32.0001C36 33.657 34.6569 35.0001 33 35.0001C31.3431 35.0001 30 33.657 30 32.0001C30 30.3433 31.3431 29.0001 33 29.0001C34.6569 29.0001 36 30.3433 36 32.0001ZM36 32.0001V25.775C36 24.4099 34.6626 23.4459 33.3675 23.8776L26.7351 26.0884C25.1017 26.6329 24 28.1614 24 29.8832V34.0001M24 34.0001C24 35.657 22.6569 37.0001 21 37.0001C19.3431 37.0001 18 35.657 18 34.0001C18 32.3433 19.3431 31.0001 21 31.0001C22.6569 31.0001 24 32.3433 24 34.0001ZM36 27.0001V19.775C36 18.4099 34.6626 17.4459 33.3675 17.8776L26.7351 20.0884C25.1017 20.6329 24 22.1614 24 23.8832V29.0001" stroke="#0A0614" stroke-width="1.5" stroke-linecap="round" stroke-linejoin="round"/>
</svg>
