<svg width="54" height="54" viewBox="0 0 54 54" fill="none" xmlns="http://www.w3.org/2000/svg">
<path d="M0 8C0 3.58172 3.58172 0 8 0H46C50.4183 0 54 3.58172 54 8V46C54 50.4183 50.4183 54 46 54H8C3.58172 54 0 50.4183 0 46V8Z" fill="#F7F7F7"/>
<path d="M22 21V21.75C22.2508 21.75 22.4849 21.6247 22.624 21.416L22 21ZM23.4063 18.8906L22.7822 18.4746V18.4746L23.4063 18.8906ZM30.5937 18.8906L31.2178 18.4746L30.5937 18.8906ZM32 21L31.376 21.416C31.5151 21.6247 31.7492 21.75 32 21.75V21ZM30 28.5H29.25C29.25 29.7426 28.2426 30.75 27 30.75V31.5V32.25C29.0711 32.25 30.75 30.5711 30.75 28.5H30ZM27 31.5V30.75C25.7574 30.75 24.75 29.7426 24.75 28.5H24H23.25C23.25 30.5711 24.9289 32.25 27 32.25V31.5ZM24 28.5H24.75C24.75 27.2574 25.7574 26.25 27 26.25V25.5V24.75C24.9289 24.75 23.25 26.4289 23.25 28.5H24ZM27 25.5V26.25C28.2426 26.25 29.25 27.2574 29.25 28.5H30H30.75C30.75 26.4289 29.0711 24.75 27 24.75V25.5ZM22 21L22.624 21.416L24.0303 19.3066L23.4063 18.8906L22.7822 18.4746L21.376 20.584L22 21ZM25.0704 18V18.75H28.9296V18V17.25H25.0704V18ZM30.5937 18.8906L29.9697 19.3066L31.376 21.416L32 21L32.624 20.584L31.2178 18.4746L30.5937 18.8906ZM28.9296 18V18.75C29.3476 18.75 29.7379 18.9589 29.9697 19.3066L30.5937 18.8906L31.2178 18.4746C30.7077 17.7095 29.8491 17.25 28.9296 17.25V18ZM23.4063 18.8906L24.0303 19.3066C24.2621 18.9589 24.6524 18.75 25.0704 18.75V18V17.25C24.1509 17.25 23.2923 17.7095 22.7822 18.4746L23.4063 18.8906ZM37 25H36.25V32H37H37.75V25H37ZM33 36V35.25H21V36V36.75H33V36ZM17 32H17.75V25H17H16.25V32H17ZM21 36V35.25C19.2051 35.25 17.75 33.7949 17.75 32H17H16.25C16.25 34.6234 18.3766 36.75 21 36.75V36ZM37 32H36.25C36.25 33.7949 34.7949 35.25 33 35.25V36V36.75C35.6234 36.75 37.75 34.6234 37.75 32H37ZM33 21V21.75C34.7949 21.75 36.25 23.2051 36.25 25H37H37.75C37.75 22.3766 35.6234 20.25 33 20.25V21ZM21 21V20.25C18.3766 20.25 16.25 22.3766 16.25 25H17H17.75C17.75 23.2051 19.2051 21.75 21 21.75V21ZM21 21V21.75H22V21V20.25H21V21ZM33 21V20.25H32V21V21.75H33V21Z" fill="#0A0614"/>
<circle cx="27" cy="21" r="1" fill="#0A0614"/>
</svg>
