<svg width="73" height="64" viewBox="0 0 73 64" fill="none" xmlns="http://www.w3.org/2000/svg">
<path d="M33.3692 0.0893555C34.787 0.292799 35.4326 0.220743 35.8841 0.483525C37.2893 1.2973 39.1544 1.9712 39.7831 3.23001C40.1629 3.99293 38.8632 6.07823 37.8167 6.98525C33.0401 11.1262 28.2086 15.229 23.1534 19.0181C18.0941 22.8157 12.752 26.2276 7.52384 29.8006C5.52794 31.1654 2.73875 30.856 1.01292 29.1013C-0.324713 27.745 -0.231883 26.1174 1.48552 23.799C2.32101 22.6716 3.27043 21.6078 4.29581 20.6541C11.849 13.648 19.8748 7.24803 28.7192 1.95425C30.3437 0.979419 32.2763 0.517435 33.3692 0.0893555Z" fill="#0077FF"/>
<path d="M72.91 35.4753C71.3024 35.9331 69.9141 36.6366 68.5089 36.6748C53.6558 37.0944 38.7984 37.497 23.941 37.6539C21.7003 37.6793 19.2993 36.6917 17.2402 35.6406C15.4468 34.7293 15.6493 33.0086 17.4807 32.0973C18.717 31.4827 20.1137 31.1182 21.4809 30.8597C32.452 28.7701 43.5075 28.5921 54.5925 29.5627C58.4999 29.906 62.4158 30.3511 66.2725 31.0546C68.7832 31.5124 71.5597 31.9532 72.9143 35.4711L72.91 35.4753Z" fill="#0077FF"/>
<path d="M10.8271 49.6059C12.6965 49.3473 14.2788 48.843 15.8148 48.9616C23.6211 49.572 31.0393 51.4242 37.5207 56.1585C39.4448 57.5656 41.5631 58.71 43.5463 60.0366C44.424 60.6257 45.2004 61.3717 46.1667 62.1685C44.6772 64.0843 42.9514 63.7622 41.3817 63.44C39.601 63.0755 37.8456 62.5161 36.1408 61.8718C29.44 59.3373 22.7434 56.7985 16.0975 54.1283C14.1227 53.3357 11.7977 52.7508 10.8271 49.6059Z" fill="#0077FF"/>
</svg>
