<?xml version="1.0" encoding="UTF-8"?>
<!DOCTYPE svg PUBLIC "-//W3C//DTD SVG 1.1//EN" "http://www.w3.org/Graphics/SVG/1.1/DTD/svg11.dtd">
<svg xmlns="http://www.w3.org/2000/svg" version="1.1" width="512px" height="512px" style="shape-rendering:geometricPrecision; text-rendering:geometricPrecision; image-rendering:optimizeQuality; fill-rule:evenodd; clip-rule:evenodd" xmlns:xlink="http://www.w3.org/1999/xlink">
<g><path style="opacity:0.999" fill="#f30140" d="M 232.5,-0.5 C 247.833,-0.5 263.167,-0.5 278.5,-0.5C 288.718,1.0574 299.052,2.72407 309.5,4.5C 309.5,72.1667 309.5,139.833 309.5,207.5C 375.5,207.5 441.5,207.5 507.5,207.5C 508.944,216.284 510.277,224.95 511.5,233.5C 511.5,248.167 511.5,262.833 511.5,277.5C 510.277,286.05 508.944,294.716 507.5,303.5C 441.5,303.5 375.5,303.5 309.5,303.5C 309.5,371.167 309.5,438.833 309.5,506.5C 298.731,508.37 288.064,510.037 277.5,511.5C 262.5,511.5 247.5,511.5 232.5,511.5C 222.282,509.943 211.948,508.276 201.5,506.5C 201.5,438.833 201.5,371.167 201.5,303.5C 135.5,303.5 69.5,303.5 3.5,303.5C 2.05614,294.716 0.722805,286.05 -0.5,277.5C -0.5,262.833 -0.5,248.167 -0.5,233.5C 0.722805,224.95 2.05614,216.284 3.5,207.5C 69.5,207.5 135.5,207.5 201.5,207.5C 201.5,139.833 201.5,72.1667 201.5,4.5C 211.948,2.72407 222.282,1.0574 232.5,-0.5 Z"/></g>
<g><path style="opacity:0.995" fill="#fefefe" d="M 201.5,4.5 C 201.5,72.1667 201.5,139.833 201.5,207.5C 135.5,207.5 69.5,207.5 3.5,207.5C 4.67449,200.602 6.34116,193.935 8.5,187.5C 25.6618,188.662 42.9951,188.829 60.5,188C 46.2669,178.252 31.9336,168.752 17.5,159.5C 20.3824,151.404 24.0491,143.737 28.5,136.5C 53.5946,153.891 78.9279,171.058 104.5,188C 126.167,188.667 147.833,188.667 169.5,188C 128.283,161.276 86.9499,134.776 45.5,108.5C 51.5514,99.0618 58.5514,90.3951 66.5,82.5C 106.372,108.193 145.872,134.527 185,161.5C 185.167,136.333 185.333,111.167 185.5,86C 185.491,60.2853 184.824,34.7853 183.5,9.5C 189.416,7.52099 195.416,5.85432 201.5,4.5 Z"/></g>
<g><path style="opacity:0.995" fill="#fefefe" d="M 309.5,4.5 C 315.584,5.85432 321.584,7.52099 327.5,9.5C 326.176,34.7853 325.509,60.2853 325.5,86C 325.667,111.167 325.833,136.333 326,161.5C 365.128,134.527 404.628,108.193 444.5,82.5C 452.449,90.3951 459.449,99.0618 465.5,108.5C 424.997,134.251 384.663,160.251 344.5,186.5C 343.711,186.783 343.044,187.283 342.5,188C 364.004,188.829 385.337,188.663 406.5,187.5C 432.215,170.983 457.548,153.983 482.5,136.5C 486.951,143.737 490.618,151.404 493.5,159.5C 479.049,168.778 464.715,178.278 450.5,188C 468.005,188.829 485.338,188.662 502.5,187.5C 504.659,193.935 506.326,200.602 507.5,207.5C 441.5,207.5 375.5,207.5 309.5,207.5C 309.5,139.833 309.5,72.1667 309.5,4.5 Z"/></g>
<g><path style="opacity:0.995" fill="#14439e" d="M 183.5,9.5 C 184.824,34.7853 185.491,60.2853 185.5,86C 185.333,111.167 185.167,136.333 185,161.5C 145.872,134.527 106.372,108.193 66.5,82.5C 98.4861,47.2301 137.486,22.8967 183.5,9.5 Z"/></g>
<g><path style="opacity:0.995" fill="#14439e" d="M 327.5,9.5 C 373.514,22.8967 412.514,47.2301 444.5,82.5C 404.628,108.193 365.128,134.527 326,161.5C 325.833,136.333 325.667,111.167 325.5,86C 325.509,60.2853 326.176,34.7853 327.5,9.5 Z"/></g>
<g><path style="opacity:0.997" fill="#f30741" d="M 45.5,108.5 C 86.9499,134.776 128.283,161.276 169.5,188C 147.833,188.667 126.167,188.667 104.5,188C 78.9279,171.058 53.5946,153.891 28.5,136.5C 33.1764,126.465 38.8431,117.132 45.5,108.5 Z"/></g>
<g><path style="opacity:0.998" fill="#f30441" d="M 465.5,108.5 C 472.168,117.159 477.835,126.493 482.5,136.5C 457.548,153.983 432.215,170.983 406.5,187.5C 385.66,187.831 364.993,187.497 344.5,186.5C 384.663,160.251 424.997,134.251 465.5,108.5 Z"/></g>
<g><path style="opacity:0.987" fill="#18459f" d="M 17.5,159.5 C 31.9336,168.752 46.2669,178.252 60.5,188C 42.9951,188.829 25.6618,188.662 8.5,187.5C 10.7023,177.894 13.7023,168.56 17.5,159.5 Z"/></g>
<g><path style="opacity:0.987" fill="#19459f" d="M 493.5,159.5 C 497.298,168.56 500.298,177.894 502.5,187.5C 485.338,188.662 468.005,188.829 450.5,188C 464.715,178.278 479.049,168.778 493.5,159.5 Z"/></g>
<g><path style="opacity:0.886" fill="#f5275d" d="M 344.5,186.5 C 364.993,187.497 385.66,187.831 406.5,187.5C 385.337,188.663 364.004,188.829 342.5,188C 343.044,187.283 343.711,186.783 344.5,186.5 Z"/></g>
<g><path style="opacity:0.995" fill="#fefdfe" d="M 3.5,303.5 C 69.5,303.5 135.5,303.5 201.5,303.5C 201.5,371.167 201.5,438.833 201.5,506.5C 195.416,505.146 189.416,503.479 183.5,501.5C 184.824,476.215 185.491,450.715 185.5,425C 185.333,399.833 185.167,374.667 185,349.5C 145.872,376.473 106.372,402.807 66.5,428.5C 58.7718,420.437 51.7718,411.77 45.5,402.5C 86.9499,376.224 128.283,349.724 169.5,323C 147.833,322.333 126.167,322.333 104.5,323C 78.9279,339.942 53.5946,357.109 28.5,374.5C 24.2698,367.165 20.6031,359.498 17.5,351.5C 31.9336,342.248 46.2669,332.748 60.5,323C 42.9951,322.171 25.6618,322.338 8.5,323.5C 6.34116,317.065 4.67449,310.398 3.5,303.5 Z"/></g>
<g><path style="opacity:0.995" fill="#fefefe" d="M 507.5,303.5 C 506.326,310.398 504.659,317.065 502.5,323.5C 485.338,322.338 468.005,322.171 450.5,323C 464.715,332.722 479.049,342.222 493.5,351.5C 490.618,359.596 486.951,367.263 482.5,374.5C 457.548,357.017 432.215,340.017 406.5,323.5C 385.337,322.337 364.004,322.171 342.5,323C 343.044,323.717 343.711,324.217 344.5,324.5C 384.663,350.749 424.997,376.749 465.5,402.5C 459.228,411.77 452.228,420.437 444.5,428.5C 404.799,402.559 365.299,376.226 326,349.5C 325.833,374.667 325.667,399.833 325.5,425C 325.509,450.715 326.176,476.215 327.5,501.5C 321.584,503.479 315.584,505.146 309.5,506.5C 309.5,438.833 309.5,371.167 309.5,303.5C 375.5,303.5 441.5,303.5 507.5,303.5 Z"/></g>
<g><path style="opacity:0.886" fill="#f5275d" d="M 406.5,323.5 C 385.66,323.169 364.993,323.503 344.5,324.5C 343.711,324.217 343.044,323.717 342.5,323C 364.004,322.171 385.337,322.337 406.5,323.5 Z"/></g>
<g><path style="opacity:0.987" fill="#18459f" d="M 17.5,351.5 C 13.7023,342.44 10.7023,333.106 8.5,323.5C 25.6618,322.338 42.9951,322.171 60.5,323C 46.2669,332.748 31.9336,342.248 17.5,351.5 Z"/></g>
<g><path style="opacity:0.997" fill="#f30641" d="M 45.5,402.5 C 38.8431,393.868 33.1764,384.535 28.5,374.5C 53.5946,357.109 78.9279,339.942 104.5,323C 126.167,322.333 147.833,322.333 169.5,323C 128.283,349.724 86.9499,376.224 45.5,402.5 Z"/></g>
<g><path style="opacity:0.997" fill="#f30441" d="M 344.5,324.5 C 364.993,323.503 385.66,323.169 406.5,323.5C 432.215,340.017 457.548,357.017 482.5,374.5C 477.824,384.535 472.157,393.868 465.5,402.5C 424.997,376.749 384.663,350.749 344.5,324.5 Z"/></g>
<g><path style="opacity:0.987" fill="#19459f" d="M 502.5,323.5 C 500.298,333.106 497.298,342.44 493.5,351.5C 479.049,342.222 464.715,332.722 450.5,323C 468.005,322.171 485.338,322.338 502.5,323.5 Z"/></g>
<g><path style="opacity:0.995" fill="#14439e" d="M 183.5,501.5 C 137.57,488.047 98.5695,463.714 66.5,428.5C 106.372,402.807 145.872,376.473 185,349.5C 185.167,374.667 185.333,399.833 185.5,425C 185.491,450.715 184.824,476.215 183.5,501.5 Z"/></g>
<g><path style="opacity:0.995" fill="#14439e" d="M 444.5,428.5 C 412.491,463.804 373.491,488.137 327.5,501.5C 326.176,476.215 325.509,450.715 325.5,425C 325.667,399.833 325.833,374.667 326,349.5C 365.299,376.226 404.799,402.559 444.5,428.5 Z"/></g>
</svg>
