<svg width="16" height="16" viewBox="0 0 16 16" fill="none" xmlns="http://www.w3.org/2000/svg">
<g clip-path="url(#clip0_214_42134)">
<g clip-path="url(#clip1_214_42134)">
<path d="M11.5943 1.70801C11.3019 1.70801 11.0491 1.90942 10.9825 2.19429L10.5412 4.2351H2.35298C2.1591 4.2351 1.97714 4.32421 1.85856 4.47605C1.73997 4.62852 1.69729 4.82742 1.74373 5.0144L2.99863 10.034C3.06891 10.3139 3.31988 10.5096 3.60788 10.5096H9.8824C10.1748 10.5096 10.4276 10.3075 10.4942 10.0233L12.0931 2.96291H14.1041V1.70801H11.5943Z" fill="#BBBBBB"/>
<path d="M5.12272 11.5052C5.61278 11.9953 5.61278 12.7899 5.12272 13.2799C4.63265 13.77 3.83809 13.77 3.34802 13.2799C2.85795 12.7899 2.85795 11.9953 3.34802 11.5052C3.83808 11.0152 4.63264 11.0152 5.12272 11.5052Z" fill="#BBBBBB"/>
<path d="M10.1422 11.5052C10.6323 11.9953 10.6323 12.7899 10.1422 13.2799C9.65216 13.77 8.85762 13.77 8.36755 13.2799C7.87748 12.7899 7.87748 11.9953 8.36755 11.5052C8.85762 11.0152 9.65216 11.0152 10.1422 11.5052Z" fill="#BBBBBB"/>
</g>
</g>
<defs>
<clipPath id="clip0_214_42134">
<rect width="16" height="16" fill="white"/>
</clipPath>
<clipPath id="clip1_214_42134">
<rect width="16" height="16" fill="white"/>
</clipPath>
</defs>
</svg>
