<svg width="15" height="14" viewBox="0 0 15 14" fill="none" xmlns="http://www.w3.org/2000/svg">
<path d="M13.7574 6.3125L7.96057 12.1016C7.86161 12.2005 7.74443 12.25 7.60901 12.25C7.47359 12.25 7.3564 12.2005 7.25745 12.1016L1.46057 6.3125C1.36161 6.21354 1.31213 6.09505 1.31213 5.95703C1.31213 5.81901 1.36161 5.70052 1.46057 5.60156L2.75745 4.3125C2.8564 4.21354 2.97359 4.16406 3.10901 4.16406C3.24443 4.16406 3.36161 4.21354 3.46057 4.3125L7.60901 8.46094L11.7574 4.3125C11.8564 4.21354 11.9736 4.16406 12.109 4.16406C12.2444 4.16406 12.3616 4.21354 12.4606 4.3125L13.7574 5.60156C13.8564 5.70052 13.9059 5.81901 13.9059 5.95703C13.9059 6.09505 13.8564 6.21354 13.7574 6.3125Z" fill="#A5A5A5"/>
</svg>
