<svg width="34" height="32" viewBox="0 0 34 32" fill="none" xmlns="http://www.w3.org/2000/svg">
<g opacity="0.994851">
<rect x="0.5" y="0.5" width="33" height="31" rx="3.5" fill="white" fill-opacity="0.9"/>
<rect x="0.5" y="0.5" width="33" height="31" rx="3.5" stroke="#E5E5E5"/>
<path d="M23.3624 15.0254C25.0909 15.377 26.38 16.9004 26.38 18.6875C26.38 20.7676 24.6808 22.4375 22.63 22.4375H11.8488C9.505 22.4375 7.63 20.5625 7.63 18.2188C7.63 16.4023 8.80188 14.8203 10.4425 14.2637C10.4425 14.1758 10.4425 14.0879 10.4425 14C10.4425 11.4219 12.5226 9.3125 15.13 9.3125C16.8585 9.3125 18.382 10.2793 19.173 11.6855C19.6124 11.3633 20.1691 11.1875 20.755 11.1875C22.3077 11.1875 23.5675 12.4473 23.5675 14C23.5675 14.3809 23.4796 14.7031 23.3624 15.0254ZM19.4659 17.6328C19.7589 17.3398 19.5538 16.8125 19.1437 16.8125H17.2394V13.5312C17.2394 13.2969 17.005 13.0625 16.7706 13.0625H15.3644C15.1007 13.0625 14.8956 13.2969 14.8956 13.5312V16.8125H12.962C12.5519 16.8125 12.3468 17.3398 12.6398 17.6328L15.7159 20.709C15.8917 20.8848 16.214 20.8848 16.3898 20.709L19.4659 17.6328Z" fill="#1D1C1D"/>
</g>
</svg>
