<svg width="32" height="32" viewBox="0 0 32 32" fill="none" xmlns="http://www.w3.org/2000/svg">
<path fill-rule="evenodd" clip-rule="evenodd" d="M17 9.6H12C11.8939 9.6 11.7922 9.64214 11.7172 9.71716C11.6421 9.79217 11.6 9.89391 11.6 10V17C11.6 17.1061 11.6421 17.2078 11.7172 17.2828C11.7922 17.3579 11.8939 17.4 12 17.4V19C11.4696 19 10.9609 18.7893 10.5858 18.4142C10.2107 18.0391 10 17.5304 10 17V10C10 9.46957 10.2107 8.96086 10.5858 8.58579C10.9609 8.21071 11.4696 8 12 8H17C17.5304 8 18.0391 8.21071 18.4142 8.58579C18.7893 8.96086 19 9.46957 19 10V11H17.4V10C17.4 9.89391 17.3579 9.79217 17.2828 9.71716C17.2078 9.64214 17.1061 9.6 17 9.6ZM15 13.6H20C20.1061 13.6 20.2078 13.6421 20.2828 13.7172C20.3579 13.7922 20.4 13.8939 20.4 14V21C20.4 21.1061 20.3579 21.2078 20.2828 21.2828C20.2078 21.3579 20.1061 21.4 20 21.4H15C14.8939 21.4 14.7922 21.3579 14.7172 21.2828C14.6421 21.2078 14.6 21.1061 14.6 21V14C14.6 13.8939 14.6421 13.7922 14.7172 13.7172C14.7922 13.6421 14.8939 13.6 15 13.6ZM13 14C13 13.4696 13.2107 12.9609 13.5858 12.5858C13.9609 12.2107 14.4696 12 15 12H20C20.5304 12 21.0391 12.2107 21.4142 12.5858C21.7893 12.9609 22 13.4696 22 14V21C22 21.5304 21.7893 22.0391 21.4142 22.4142C21.0391 22.7893 20.5304 23 20 23H15C14.4696 23 13.9609 22.7893 13.5858 22.4142C13.2107 22.0391 13 21.5304 13 21V14Z" fill="#A5A5A5"/>
</svg>
