<svg width="17" height="16" viewBox="0 0 17 16" fill="none" xmlns="http://www.w3.org/2000/svg">
<g clip-path="url(#clip0_214_42118)">
<path d="M8.49996 3C5.16663 3 2.31996 5.07333 1.16663 8C2.31996 10.9267 5.16663 13 8.49996 13C11.8333 13 14.68 10.9267 15.8333 8C14.68 5.07333 11.8333 3 8.49996 3ZM8.49996 11.3334C6.65996 11.3334 5.16663 9.84 5.16663 8C5.16663 6.16 6.65996 4.66667 8.49996 4.66667C10.34 4.66667 11.8333 6.16 11.8333 8C11.8333 9.84 10.34 11.3334 8.49996 11.3334ZM8.49996 6C7.39329 6 6.49996 6.89333 6.49996 8C6.49996 9.10667 7.39329 9.99997 8.49996 9.99997C9.60663 9.99997 10.5 9.10667 10.5 8C10.5 6.89333 9.60663 6 8.49996 6Z" fill="#BBBBBB"/>
</g>
<defs>
<clipPath id="clip0_214_42118">
<rect width="17" height="16" fill="white"/>
</clipPath>
</defs>
</svg>
