<svg width="36" height="36" viewBox="0 0 36 36" fill="none" xmlns="http://www.w3.org/2000/svg">
<rect width="36" height="36" rx="18" fill="#D7F7E9"/>
<g clip-path="url(#clip0_214_34174)">
<g clip-path="url(#clip1_214_34174)">
<g clip-path="url(#clip2_214_34174)">
<path d="M22.2366 13.5703H13.1769V14.6974H22.2366V13.5703Z" fill="#29B72C"/>
<path d="M22.2366 16.46H13.1769V17.5871H22.2366V16.46Z" fill="#29B72C"/>
<path d="M24.2189 27.0626L22.2366 24.9853L23.0524 24.2055L24.232 25.444L27.1022 22.541L27.905 23.3339L24.2189 27.0626Z" fill="#29B72C"/>
<path fill-rule="evenodd" clip-rule="evenodd" d="M19.1042 25.3788H10.939V8.30799H13.7602V11.7025H22.7838V8.30799H25.6016V19.1632C25.9915 19.2189 26.3683 19.3139 26.7287 19.445V7.18086H20.4017C20.1723 6.21756 19.3073 5.5 18.272 5.5C17.2398 5.5 16.3716 6.21756 16.1389 7.18086H9.81192V26.5059H19.3368C19.2254 26.1455 19.1435 25.7687 19.1042 25.3788ZM17.3447 7.18086C17.2595 7.33159 17.2038 7.50852 17.2038 7.69528V8.31127V8.3211H14.8873V10.5754H21.6533V8.3211H19.3368V8.31127V7.69528C19.3368 7.50852 19.2877 7.33486 19.2025 7.18086C19.0223 6.85321 18.6717 6.62713 18.272 6.62713C17.8722 6.62713 17.5249 6.85321 17.3447 7.18086Z" fill="#29B72C"/>
<path fill-rule="evenodd" clip-rule="evenodd" d="M20.5393 26.5062C21.211 28.1871 22.8558 29.3699 24.7759 29.3699C27.2955 29.3699 29.3499 27.3221 29.3499 24.8024C29.3499 22.9806 28.2785 21.4079 26.7319 20.6674C26.3814 20.497 26.0046 20.3725 25.6048 20.307C25.3394 20.2578 25.0576 20.2283 24.7759 20.2283C22.2595 20.2283 20.2084 22.2827 20.2084 24.8024C20.2084 24.999 20.2182 25.1923 20.2411 25.3791C20.2903 25.7755 20.3918 26.1523 20.5393 26.5062ZM19.1042 25.3791C19.1435 25.769 19.2221 26.1458 19.3368 26.5062C20.0642 28.8194 22.2234 30.5003 24.7726 30.5003C27.9181 30.5003 30.4738 27.9446 30.4738 24.8057C30.4738 22.3483 28.9108 20.248 26.7287 19.4485C26.3683 19.3175 25.9914 19.2224 25.6015 19.1667C25.3296 19.1274 25.0544 19.1045 24.7726 19.1045C21.6304 19.1045 19.0779 21.6635 19.0779 24.8057C19.0779 24.9957 19.0878 25.189 19.1042 25.3791Z" fill="#FFB906"/>
</g>
</g>
</g>
<defs>
<clipPath id="clip0_214_34174">
<rect width="25" height="25" fill="white" transform="translate(5.5 5.5)"/>
</clipPath>
<clipPath id="clip1_214_34174">
<rect width="25" height="25" fill="white" transform="translate(5.5 5.5)"/>
</clipPath>
<clipPath id="clip2_214_34174">
<rect width="16.3827" height="25" fill="white" transform="translate(9.80865 5.5)"/>
</clipPath>
</defs>
</svg>
