<svg width="36" height="36" viewBox="0 0 36 36" fill="none" xmlns="http://www.w3.org/2000/svg">
<rect width="36" height="36" rx="18" fill="#D7F7E9"/>
<g clip-path="url(#clip0_214_34195)">
<g clip-path="url(#clip1_214_34195)">
<g clip-path="url(#clip2_214_34195)">
<path d="M17.845 18.9204L15.8714 16.8532L16.5401 16.2105L17.8579 17.5929L20.9328 14.4824L21.5917 15.1349L17.845 18.9204Z" fill="#29B72C"/>
<path d="M16.4238 24.2978C15.3062 24.2978 14.376 23.4903 14.1822 22.4308L12.3379 22.4502L13.0162 11.7041L24.4599 11.7816L23.6105 22.3372L18.6751 22.3889C18.4974 23.4677 17.5543 24.2978 16.4238 24.2978ZM15.0866 21.4942L15.0672 22.0562C15.0704 22.7635 15.6744 23.3708 16.4205 23.3708C17.1667 23.3708 17.7739 22.7635 17.7739 22.0174L17.7642 21.9463L17.7416 21.4651L22.7545 21.4134L23.4554 12.6989L13.885 12.6343L13.3262 21.5103L15.0866 21.4942Z" fill="#29B72C"/>
<path d="M16.4238 24.204C15.1673 24.204 14.1434 23.1801 14.1434 21.9236C14.1434 20.6672 15.1673 19.6465 16.4238 19.6465C17.6802 19.6465 18.7041 20.6672 18.7041 21.9236C18.7009 23.1801 17.6802 24.204 16.4238 24.204ZM16.4238 20.5735C15.6776 20.5735 15.0704 21.1807 15.0704 21.9236C15.0704 22.6697 15.6776 23.277 16.4238 23.277C17.1699 23.277 17.7771 22.6697 17.7771 21.9236C17.7739 21.1807 17.1667 20.5735 16.4238 20.5735Z" fill="#29B72C"/>
<path d="M26.3753 24.204C25.1189 24.204 24.095 23.1801 24.095 21.9236C24.095 20.6672 25.1189 19.6465 26.3753 19.6465C27.6318 19.6465 28.6557 20.6672 28.6557 21.9236C28.6557 23.1801 27.6318 24.204 26.3753 24.204ZM26.3753 20.5735C25.6292 20.5735 25.022 21.1807 25.022 21.9236C25.022 22.6697 25.6292 23.277 26.3753 23.277C27.1214 23.277 27.7287 22.6697 27.7287 21.9236C27.7287 21.1807 27.1214 20.5735 26.3753 20.5735Z" fill="#29B72C"/>
<path d="M26.3882 24.2981C25.2578 24.2981 24.3178 23.4712 24.1402 22.3892H22.6867L23.5394 14.1592H29.4664L30.4903 16.7528L30.1059 22.3892H28.6395C28.4587 23.4712 27.5187 24.2981 26.3882 24.2981ZM23.7138 21.4621H25.0736L25.0381 22.0306C25.0381 22.7638 25.6453 23.3711 26.3882 23.3711C27.1311 23.3711 27.7416 22.7638 27.7416 22.0177L27.7319 21.9466L27.7061 21.4589H29.2371L29.5472 16.895L28.8333 15.0829H24.3727L23.7138 21.4621Z" fill="#29B72C"/>
<path d="M11.0136 13.8682H6.4916V14.7952H11.0136V13.8682Z" fill="#29B72C"/>
<path d="M11.0136 18.7646H6.4916V19.6917H11.0136V18.7646Z" fill="#29B72C"/>
<path d="M11.0136 16.4746H5.50969V17.4016H11.0136V16.4746Z" fill="#29B72C"/>
</g>
</g>
</g>
<defs>
<clipPath id="clip0_214_34195">
<rect width="25" height="25" fill="white" transform="translate(5.5 5.5)"/>
</clipPath>
<clipPath id="clip1_214_34195">
<rect width="25" height="25" fill="white" transform="translate(5.5 5.5)"/>
</clipPath>
<clipPath id="clip2_214_34195">
<rect width="25" height="12.5969" fill="white" transform="translate(5.5 11.7012)"/>
</clipPath>
</defs>
</svg>
