<svg width="46" height="42" viewBox="0 0 46 42" fill="none" xmlns="http://www.w3.org/2000/svg">
<g clip-path="url(#clip0_214_34428)">
<path d="M14.1875 10.3125C14.1875 10.3125 14.4062 10.5312 14.8438 10.9688C15.2812 11.4062 15.5 12.25 15.5 13.5C15.5 14.75 15.0625 15.8125 14.1875 16.6875C13.3125 17.5625 12.25 18 11 18C9.75 18 8.6875 17.5625 7.8125 16.6875C6.9375 15.8125 6.5 14.75 6.5 13.5C6.5 12.25 6.9375 11.1875 7.8125 10.3125C8.6875 9.4375 9.75 9 11 9C12.25 9 13.3125 9.4375 14.1875 10.3125ZM39.5 22.5V33H6.5V28.5L14 21L17.75 24.75L29.75 12.75L39.5 22.5ZM41.75 6H4.25C4.04688 6 3.87109 6.07422 3.72266 6.22266C3.57422 6.37109 3.5 6.54688 3.5 6.75V35.25C3.5 35.4531 3.57422 35.6289 3.72266 35.7773C3.87109 35.9258 4.04688 36 4.25 36H41.75C41.9531 36 42.1289 35.9258 42.2773 35.7773C42.4258 35.6289 42.5 35.4531 42.5 35.25V6.75C42.5 6.54688 42.4258 6.37109 42.2773 6.22266C42.1289 6.07422 41.9531 6 41.75 6ZM45.5 6.75V35.25C45.5 36.2812 45.1328 37.1641 44.3984 37.8984C43.6641 38.6328 42.7812 39 41.75 39H4.25C3.21875 39 2.33594 38.6328 1.60156 37.8984C0.867188 37.1641 0.5 36.2812 0.5 35.25V6.75C0.5 5.71875 0.867188 4.83594 1.60156 4.10156C2.33594 3.36719 3.21875 3 4.25 3H41.75C42.7812 3 43.6641 3.36719 44.3984 4.10156C45.1328 4.83594 45.5 5.71875 45.5 6.75Z" fill="#00BE00"/>
</g>
<defs>
<clipPath id="clip0_214_34428">
<rect width="45" height="42" fill="white" transform="matrix(1 0 0 -1 0.5 42)"/>
</clipPath>
</defs>
</svg>
