<svg width="16" height="16" viewBox="0 0 16 16" fill="none" xmlns="http://www.w3.org/2000/svg">
<g clip-path="url(#clip0_214_42440)">
<path d="M8 1.33301C9.29343 1.33277 10.559 1.70879 11.6425 2.41525C12.7259 3.1217 13.5805 4.12807 14.102 5.3117C14.6235 6.49533 14.7894 7.80511 14.5795 9.0814C14.3697 10.3577 13.7931 11.5454 12.92 12.4997" stroke="white" stroke-width="1.5" stroke-linecap="round" stroke-linejoin="round"/>
<path d="M8 5.33301V10.6663" stroke="white" stroke-width="1.5" stroke-linecap="round" stroke-linejoin="round"/>
<path d="M10.6667 8H5.33337" stroke="white" stroke-width="1.5" stroke-linecap="round" stroke-linejoin="round"/>
<path d="M1.66671 5.91699C1.45427 6.56276 1.34186 7.23723 1.33337 7.91699" stroke="white" stroke-width="1.5" stroke-linecap="round" stroke-linejoin="round"/>
<path d="M1.88672 10.667C2.26105 11.5282 2.81311 12.3006 3.50672 12.9337" stroke="white" stroke-width="1.5" stroke-linecap="round" stroke-linejoin="round"/>
<path d="M3.0907 3.49028C3.27673 3.28777 3.4751 3.09696 3.6847 2.91895" stroke="white" stroke-width="1.5" stroke-linecap="round" stroke-linejoin="round"/>
<path d="M5.7627 14.2797C7.42516 14.8719 9.25463 14.7808 10.85 14.0264" stroke="white" stroke-width="1.5" stroke-linecap="round" stroke-linejoin="round"/>
</g>
<defs>
<clipPath id="clip0_214_42440">
<rect width="16" height="16" fill="white"/>
</clipPath>
</defs>
</svg>
