<svg width="22" height="22" viewBox="0 0 22 22" fill="none" xmlns="http://www.w3.org/2000/svg">
<g clip-path="url(#clip0_214_34519)">
<g clip-path="url(#clip1_214_34519)">
<path d="M10.9999 21.461C16.7774 21.461 21.4609 16.7775 21.4609 11.0001C21.4609 5.22261 16.7774 0.539062 10.9999 0.539062C5.22249 0.539062 0.53894 5.22261 0.53894 11.0001C0.53894 16.7775 5.22249 21.461 10.9999 21.461Z" stroke="#DEDED5" stroke-width="0.68222" stroke-miterlimit="10"/>
<path d="M9.23117 16.7506C8.35777 16.7506 7.48437 16.4184 6.81997 15.754C6.17537 15.1094 5.82117 14.2536 5.82117 13.3428C5.82117 12.432 6.17537 11.574 6.81997 10.9316L11.1188 6.63282L11.726 6.01462C12.2188 5.52182 12.8744 5.24902 13.5718 5.24902C14.2692 5.24902 14.9248 5.51962 15.4176 6.01462C15.9103 6.50742 16.1832 7.16302 16.1832 7.86042C16.1832 8.55782 15.9125 9.21122 15.4198 9.70402L14.8126 10.3244L10.7426 14.39C10.3906 14.742 9.92637 14.9202 9.46217 14.9202C8.99797 14.9202 8.53597 14.7442 8.18177 14.39C7.47557 13.6838 7.47557 12.5354 8.18177 11.8292L12.2496 7.76142C12.4036 7.60742 12.6544 7.60742 12.8106 7.76142C12.9646 7.91542 12.9646 8.16622 12.8106 8.32242L8.74277 12.3902C8.34677 12.7862 8.34677 13.433 8.74277 13.829C9.13877 14.225 9.78557 14.225 10.1816 13.829L14.2472 9.76342L14.8544 9.14522C15.1976 8.80202 15.3868 8.34442 15.3868 7.85822C15.3868 7.37202 15.1976 6.91662 14.8544 6.57122C14.5112 6.22802 14.0536 6.03882 13.5674 6.03882C13.0812 6.03882 12.6258 6.22802 12.2826 6.57122L11.6754 7.18942L7.37877 11.4882C6.35797 12.509 6.35797 14.17 7.37877 15.193C8.39957 16.2138 10.0606 16.2138 11.0836 15.193L15.3824 10.8942C15.5364 10.7402 15.7872 10.7402 15.9434 10.8942C16.0974 11.0482 16.0974 11.299 15.9434 11.4552L11.6424 15.754C10.978 16.4184 10.1046 16.7506 9.23117 16.7506Z" fill="#FFA800"/>
</g>
</g>
<defs>
<clipPath id="clip0_214_34519">
<rect width="22" height="22" fill="white"/>
</clipPath>
<clipPath id="clip1_214_34519">
<rect width="22" height="22" fill="white"/>
</clipPath>
</defs>
</svg>
