<svg width="50" height="51" viewBox="0 0 50 51" fill="none" xmlns="http://www.w3.org/2000/svg">
<g clip-path="url(#clip0_214_34441)">
<path d="M25 0.30957C21.5495 0.30957 18.3105 0.960613 15.2832 2.2627C12.2559 3.59733 9.611 5.39583 7.34863 7.6582C5.08626 9.92057 3.28776 12.5654 1.95312 15.5928C0.651042 18.6201 0 21.859 0 25.3096C0 28.7601 0.651042 31.999 1.95312 35.0264C3.28776 38.0537 5.08626 40.6986 7.34863 42.9609C9.611 45.2233 12.2559 47.0218 15.2832 48.3564C18.3105 49.6585 21.5495 50.3096 25 50.3096C28.4505 50.3096 31.6895 49.6585 34.7168 48.3564C37.7441 47.0218 40.389 45.2233 42.6514 42.9609C44.9137 40.6986 46.7122 38.0537 48.0469 35.0264C49.349 31.999 50 28.7601 50 25.3096C50 21.859 49.349 18.6201 48.0469 15.5928C46.7122 12.5654 44.9137 9.92057 42.6514 7.6582C40.389 5.39583 37.7441 3.59733 34.7168 2.2627C31.6895 0.960613 28.4505 0.30957 25 0.30957ZM25 47.0381C22.0052 47.0381 19.1895 46.4684 16.5527 45.3291C13.916 44.1898 11.613 42.6354 9.64355 40.666C7.67415 38.6966 6.11979 36.3936 4.98047 33.7568C3.84115 31.1201 3.27148 28.3044 3.27148 25.3096C3.27148 22.3148 3.84115 19.499 4.98047 16.8623C6.11979 14.2256 7.67415 11.9225 9.64355 9.95312C11.613 7.98372 13.916 6.42936 16.5527 5.29004C19.1895 4.15071 22.0052 3.58105 25 3.58105C27.9948 3.58105 30.8105 4.15071 33.4473 5.29004C36.084 6.42936 38.387 7.98372 40.3564 9.95312C42.3258 11.9225 43.8802 14.2256 45.0195 16.8623C46.1589 19.499 46.7285 22.3148 46.7285 25.3096C46.7285 28.3044 46.1589 31.1201 45.0195 33.7568C43.8802 36.3936 42.3258 38.6966 40.3564 40.666C38.387 42.6354 36.084 44.1898 33.4473 45.3291C30.8105 46.4684 27.9948 47.0381 25 47.0381ZM34.9121 23.6494H26.6602V15.3975C26.6602 14.9417 26.4974 14.5511 26.1719 14.2256C25.8464 13.9001 25.4557 13.7373 25 13.7373C24.5443 13.7373 24.1536 13.9001 23.8281 14.2256C23.5026 14.5511 23.3398 14.9417 23.3398 15.3975V23.6494H15.0879C14.6322 23.6494 14.2415 23.8122 13.916 24.1377C13.5905 24.4632 13.4277 24.8538 13.4277 25.3096C13.4277 25.7653 13.5905 26.1559 13.916 26.4814C14.2415 26.807 14.6322 26.9697 15.0879 26.9697H23.3398V35.2217C23.3398 35.6774 23.5026 36.068 23.8281 36.3936C24.1536 36.7191 24.5443 36.8818 25 36.8818C25.4557 36.8818 25.8464 36.7191 26.1719 36.3936C26.4974 36.068 26.6602 35.6774 26.6602 35.2217V26.9697H34.9121C35.3678 26.9697 35.7585 26.807 36.084 26.4814C36.4095 26.1559 36.5723 25.7653 36.5723 25.3096C36.5723 24.8538 36.4095 24.4632 36.084 24.1377C35.7585 23.8122 35.3678 23.6494 34.9121 23.6494Z" fill="#E4E4E4"/>
</g>
<defs>
<clipPath id="clip0_214_34441">
<rect width="50" height="50" fill="white" transform="matrix(1 0 0 -1 0 50.3096)"/>
</clipPath>
</defs>
</svg>
