<svg width="24" height="24" viewBox="0 0 24 24" fill="none" xmlns="http://www.w3.org/2000/svg">
<g clip-path="url(#clip0_214_42422)">
<g clip-path="url(#clip1_214_42422)">
<path fill-rule="evenodd" clip-rule="evenodd" d="M22.5 12C22.5 6.21 17.79 1.5 12 1.5C6.21 1.5 1.5 6.18 1.5 12C1.5 17.82 6.21 22.5 12 22.5C17.79 22.5 22.5 17.79 22.5 12ZM12 9C12.8284 9 13.5 8.32843 13.5 7.5C13.5 6.67157 12.8284 6 12 6C11.1716 6 10.5 6.67157 10.5 7.5C10.5 8.32843 11.1716 9 12 9ZM15 16V18H9L9.75 16H11.3726L11.2888 12H9.75V10H12.3906C12.7255 10 12.9941 10.0994 13.1965 10.2982C13.3988 10.497 13.5 10.7733 13.5 11.1273V16H15Z" fill="#FFA800"/>
</g>
</g>
<defs>
<clipPath id="clip0_214_42422">
<rect width="24" height="24" fill="white"/>
</clipPath>
<clipPath id="clip1_214_42422">
<rect width="24" height="24" fill="white"/>
</clipPath>
</defs>
</svg>
