<svg width="20" height="20" viewBox="0 0 20 20" fill="none" xmlns="http://www.w3.org/2000/svg">
<g clip-path="url(#clip0_214_42433)">
<g clip-path="url(#clip1_214_42433)">
<path fill-rule="evenodd" clip-rule="evenodd" d="M13.475 13.4724C16.0838 10.8636 16.0838 6.63488 13.475 4.02738C10.8663 1.41988 6.63751 1.41863 4.03001 4.02738C1.42251 6.63613 1.42126 10.8649 4.03001 13.4724C6.63876 16.0799 10.8675 16.0811 13.475 13.4724ZM12.225 12.2224C14.15 10.2974 14.15 7.17613 12.225 5.25238C10.3 3.32863 7.17876 3.32738 5.25501 5.25238C3.33126 7.17738 3.33001 10.2986 5.25501 12.2224C7.18001 14.1461 10.3013 14.1474 12.225 12.2224Z" fill="#A5A5A5"/>
<path d="M11.875 13.5896L13.5925 11.8721L17.265 15.5446C17.3778 15.6573 17.4672 15.7912 17.5283 15.9386C17.5893 16.0859 17.6207 16.2438 17.6207 16.4033C17.6207 16.5628 17.5893 16.7207 17.5283 16.8681C17.4672 17.0154 17.3778 17.1493 17.265 17.2621C17.1522 17.3748 17.0183 17.4643 16.871 17.5253C16.7237 17.5864 16.5657 17.6178 16.4062 17.6178C16.2468 17.6178 16.0888 17.5864 15.9415 17.5253C15.7942 17.4643 15.6603 17.3748 15.5475 17.2621L11.875 13.5896Z" fill="#A5A5A5"/>
</g>
</g>
<defs>
<clipPath id="clip0_214_42433">
<rect width="20" height="20" fill="white"/>
</clipPath>
<clipPath id="clip1_214_42433">
<rect width="20" height="20" fill="white"/>
</clipPath>
</defs>
</svg>
