<svg width="22" height="22" viewBox="0 0 22 22" fill="none" xmlns="http://www.w3.org/2000/svg">
<g clip-path="url(#clip0_214_34531)">
<g clip-path="url(#clip1_214_34531)">
<g clip-path="url(#clip2_214_34531)">
<path d="M11 21.461C16.7733 21.461 21.4536 16.7775 21.4536 11.0001C21.4536 5.22261 16.7733 0.539062 11 0.539062C5.22662 0.539062 0.546387 5.22261 0.546387 11.0001C0.546387 16.7775 5.22662 21.461 11 21.461Z" stroke="#DEDED5" stroke-width="0.68222" stroke-miterlimit="10"/>
<path d="M10.0877 13.6178C10.0877 13.0854 10.1954 12.5992 10.4131 12.1592C10.6307 11.7192 10.8901 11.3474 11.1957 11.0438C11.4991 10.7402 11.8025 10.4476 12.1081 10.1638C12.4114 9.88215 12.6731 9.56975 12.8907 9.22655C13.1083 8.88335 13.2161 8.51815 13.2161 8.12655C13.2161 7.49735 13.0006 7.02215 12.5719 6.70095C12.1432 6.37975 11.5914 6.22135 10.9187 6.22135C9.58425 6.22135 8.75764 6.76915 8.44326 7.86695L7.48254 7.32795C7.73317 6.59975 8.16846 6.04975 8.79281 5.67355C9.41717 5.29955 10.1251 5.11035 10.9187 5.11035C11.8728 5.11035 12.6862 5.37435 13.3524 5.90015C14.0207 6.42815 14.3527 7.16955 14.3527 8.12435C14.3527 8.59075 14.2449 9.02635 14.0273 9.42895C13.8097 9.83155 13.5502 10.1814 13.2447 10.4806C12.9413 10.7798 12.6357 11.0746 12.3323 11.3694C12.0289 11.662 11.7673 12.003 11.5497 12.388C11.332 12.773 11.2243 13.1844 11.2243 13.6178H10.0877ZM11.2924 16.6141C11.1188 16.7879 10.9077 16.8759 10.6571 16.8759C10.4065 16.8759 10.1954 16.7879 10.0217 16.6141C9.84806 16.4403 9.76232 16.2292 9.76232 15.9783C9.76232 15.7276 9.84806 15.5164 10.0217 15.3426C10.1954 15.1688 10.4065 15.0808 10.6571 15.0808C10.9077 15.0808 11.1188 15.1688 11.2924 15.3426C11.4661 15.5164 11.5541 15.7276 11.5541 15.9783C11.5541 16.2292 11.4661 16.4403 11.2924 16.6141Z" fill="#FFA800"/>
</g>
</g>
</g>
<defs>
<clipPath id="clip0_214_34531">
<rect width="22" height="22" fill="white"/>
</clipPath>
<clipPath id="clip1_214_34531">
<rect width="22" height="22" fill="white"/>
</clipPath>
<clipPath id="clip2_214_34531">
<rect width="22" height="22" fill="white"/>
</clipPath>
</defs>
</svg>
