<svg width="24" height="24" viewBox="0 0 24 24" fill="none" xmlns="http://www.w3.org/2000/svg">
<g clip-path="url(#clip0_214_34545)">
<g clip-path="url(#clip1_214_34545)">
<path d="M19 5V14H14V19H5V5H19ZM19 3H5C3.9 3 3 3.9 3 5V19C3 20.1 3.9 21 5 21H15L21 15V5C21 3.9 20.1 3 19 3ZM12 14H7V12H12V14ZM17 10H7V8H17V10Z" fill="#CCCCCC"/>
<path d="M7 14H12V12H7V14ZM7 10H17V8H7V10Z" fill="#FFA800"/>
</g>
</g>
<defs>
<clipPath id="clip0_214_34545">
<rect width="24" height="24" fill="white"/>
</clipPath>
<clipPath id="clip1_214_34545">
<rect width="24" height="24" fill="white"/>
</clipPath>
</defs>
</svg>
