<svg width="24" height="24" viewBox="0 0 24 24" fill="none" xmlns="http://www.w3.org/2000/svg">
<g clip-path="url(#clip0_214_42178)">
<g clip-path="url(#clip1_214_42178)">
<path fill-rule="evenodd" clip-rule="evenodd" d="M10.4289 3.89357L2.64646 17.016C2.48617 17.2967 2.40089 17.6147 2.40003 17.9391C2.39917 18.2636 2.48232 18.582 2.64132 18.8636C2.79967 19.1446 3.02884 19.3792 3.30603 19.5441C3.58246 19.7087 3.89703 19.797 4.2176 19.8004H19.7825C20.1035 19.797 20.4176 19.7083 20.694 19.5441C20.9712 19.3792 21.2004 19.1446 21.3587 18.8636C21.5177 18.582 21.6009 18.2631 21.6 17.9391C21.5992 17.6151 21.5143 17.2967 21.3536 17.016L13.5712 3.89357C13.4075 3.621 13.1769 3.39514 12.9017 3.23871C12.6266 3.08229 12.3159 3 12 3C11.6842 3 11.3735 3.08229 11.0983 3.23871C10.8225 3.39581 10.5922 3.62135 10.4289 3.89357ZM12 7.2C12.1576 7.2 12.3137 7.23104 12.4593 7.29134C12.6048 7.35165 12.7371 7.44004 12.8486 7.55147C12.96 7.6629 13.0484 7.79519 13.1087 7.94078C13.169 8.08637 13.2 8.24241 13.2 8.4V12.3999C13.2 12.5574 13.169 12.7135 13.1087 12.8591C13.0484 13.0047 12.96 13.137 12.8486 13.2484C12.7371 13.3598 12.6048 13.4482 12.4593 13.5085C12.3137 13.5688 12.1576 13.5999 12 13.5999C11.8424 13.5999 11.6864 13.5688 11.5408 13.5085C11.3952 13.4482 11.2629 13.3598 11.1515 13.2484C11.0401 13.137 10.9517 13.0047 10.8914 12.8591C10.8311 12.7135 10.8 12.5574 10.8 12.3999V8.4C10.8 8.24241 10.8311 8.08637 10.8914 7.94078C10.9517 7.79519 11.0401 7.6629 11.1515 7.55147C11.2629 7.44004 11.3952 7.35165 11.5408 7.29134C11.6864 7.23104 11.8424 7.2 12 7.2ZM12 15.2001C11.6818 15.2001 11.3765 15.3266 11.1515 15.5516C10.9265 15.7767 10.8 16.0819 10.8 16.4001C10.8 16.7184 10.9265 17.0236 11.1515 17.2487C11.3765 17.4737 11.6818 17.6001 12 17.6001H12.0099C12.3281 17.6001 12.6334 17.4737 12.8584 17.2487C13.0835 17.0236 13.2099 16.7184 13.2099 16.4001C13.2099 16.0819 13.0835 15.7767 12.8584 15.5516C12.6334 15.3266 12.3281 15.2001 12.0099 15.2001H12Z" fill="#FFA800"/>
</g>
</g>
<defs>
<clipPath id="clip0_214_42178">
<rect width="24" height="24" fill="white"/>
</clipPath>
<clipPath id="clip1_214_42178">
<rect width="24" height="24" fill="white"/>
</clipPath>
</defs>
</svg>
