<svg width="21" height="16" viewBox="0 0 21 16" fill="none" xmlns="http://www.w3.org/2000/svg">
<g clip-path="url(#clip0_264_11443)">
<g clip-path="url(#clip1_264_11443)">
<g clip-path="url(#clip2_264_11443)">
<path fill-rule="evenodd" clip-rule="evenodd" d="M10.526 16C7.45601 16 4.95801 13.49 4.95801 10.402C4.95801 8.256 6.51401 5.597 7.96801 4.076C7.62801 5.519 7.53501 7.046 8.54501 8.252C8.48301 7.122 8.59901 6.034 8.89101 5.004C9.19701 3.924 9.68901 2.929 10.351 2.044C11.355 0.708 12.71 0 14.036 0C13.13 0.405 12.38 1.49 12.38 2.483C12.38 3.588 13.058 4.383 13.843 5.281C14.346 5.863 14.917 6.523 15.349 7.334C15.849 8.272 16.092 9.276 16.092 10.402C16.092 13.489 13.594 16.002 10.524 16.002L10.526 16ZM5.88601 10.402C5.88601 9.276 6.27901 8.502 6.77601 7.499L6.78601 7.479L6.95401 7.143C7.35401 8.555 8.35401 9.451 9.69401 10.005L9.57201 9.195C9.15401 6.425 9.94201 4.417 10.674 3.221C10.9076 2.83898 11.174 2.47796 11.47 2.142C11.458 2.256 11.452 2.372 11.452 2.487C11.452 3.937 12.272 4.887 13.142 5.892C14.137 7.042 15.165 8.232 15.165 10.406C15.165 12.981 13.085 15.076 10.525 15.076C7.96501 15.076 5.88501 12.981 5.88501 10.406L5.88601 10.402Z" fill="#FF7600"/>
</g>
</g>
</g>
<defs>
<clipPath id="clip0_264_11443">
<rect width="13" height="16" fill="white" transform="translate(4)"/>
</clipPath>
<clipPath id="clip1_264_11443">
<rect width="13" height="16" fill="white" transform="translate(4)"/>
</clipPath>
<clipPath id="clip2_264_11443">
<rect width="13" height="16" fill="white" transform="translate(4)"/>
</clipPath>
</defs>
</svg>
