<svg width="45" height="45" viewBox="0 0 45 45" fill="none" xmlns="http://www.w3.org/2000/svg">
<rect width="45" height="45" rx="22.5" fill="url(#paint0_linear_2006_2257)"/>
<path d="M24.2197 15C27.0482 15 28.4631 15.0002 29.3418 15.8789C30.2201 16.7576 30.2197 18.172 30.2197 21V25.2197C30.2197 28.0482 30.2205 29.4631 29.3418 30.3418C28.4631 31.2205 27.0482 31.2197 24.2197 31.2197H20C17.172 31.2197 15.7576 31.2201 14.8789 30.3418C14.0002 29.4631 14 28.0482 14 25.2197V21C14 18.1716 14.0002 16.7576 14.8789 15.8789C15.7576 15.0002 17.1716 15 20 15H24.2197ZM26.7197 19.8447C26.2603 19.5386 25.6394 19.6629 25.333 20.1221L23.0449 23.5547L22.9639 23.3926C22.2769 22.0197 20.3625 21.9005 19.5107 23.1777L17.2227 26.6104C16.9167 27.0697 17.0408 27.6907 17.5 27.9971C17.9594 28.3033 18.5803 28.179 18.8867 27.7197L21.1748 24.2871L21.2559 24.4482C21.9426 25.8217 23.8571 25.9415 24.709 24.6641L26.9971 21.2314C27.3032 20.7719 27.1792 20.151 26.7197 19.8447Z" fill="white"/>
<defs>
<linearGradient id="paint0_linear_2006_2257" x1="22.5" y1="0" x2="22.5" y2="45" gradientUnits="userSpaceOnUse">
<stop stop-color="#00C2FF"/>
<stop offset="1" stop-color="#009AF0"/>
</linearGradient>
</defs>
</svg>
