<svg width="18" height="18" viewBox="0 0 18 18" fill="none" xmlns="http://www.w3.org/2000/svg">
<g clip-path="url(#clip0_37_979)">
<path d="M11.1638 3.33996C10.8434 3.00159 10.3239 3.00159 10.0036 3.33996C9.68316 3.67834 9.68316 4.22696 10.0036 4.56534L13.1578 7.89673H1.67196C1.21887 7.89673 0.851562 8.28466 0.851562 8.7632C0.851562 9.24174 1.21887 9.62967 1.67196 9.62967H13.3241L10.0036 13.1366C9.68316 13.475 9.68316 14.0236 10.0036 14.362C10.3239 14.7004 10.8434 14.7004 11.1638 14.362L15.8017 9.46366C16.1221 9.12528 16.1221 8.57666 15.8017 8.23828L15.7242 8.15638C15.7204 8.15245 15.7167 8.14855 15.713 8.14469L11.1638 3.33996Z" fill="#111111"/>
</g>
<defs>
<clipPath id="clip0_37_979">
<rect width="18" height="18" fill="white"/>
</clipPath>
</defs>
</svg>
