<svg width="45" height="45" viewBox="0 0 45 45" fill="none" xmlns="http://www.w3.org/2000/svg">
<rect width="45" height="45" rx="22.5" fill="url(#paint0_linear_44_22491)"/>
<path fill-rule="evenodd" clip-rule="evenodd" d="M17.4679 25.3412C18.2192 25.3412 18.8265 25.4236 19.4492 25.5912L19.6837 25.6581C20.0115 25.7566 20.1973 26.1021 20.0989 26.4298C20.0828 26.4832 20.0597 26.534 20.0302 26.581L19.9656 26.6674C19.3726 27.3934 18.9911 28.1911 18.7194 29.1236L18.6476 29.3884L18.6136 29.5455C18.5767 29.7599 18.5643 29.9111 18.5643 30.0625C18.5643 30.1475 18.5681 30.2316 18.5756 30.3146L18.5896 30.4383C18.6406 30.8141 18.3773 31.16 18.0015 31.211C17.9709 31.2151 17.94 31.2172 17.9091 31.2172L12.1539 31.2164C11.5166 31.2164 11 30.6998 11 30.0625C11 29.9994 11.0052 29.9364 11.0155 29.8742L11.0347 29.7816C11.675 27.2304 14.0778 25.3412 17.4679 25.3412ZM26.6487 25.3412C29.9634 25.3412 32.3201 27.0946 32.937 29.6731L32.9763 29.8501C33.1032 30.4649 32.7077 31.0661 32.0929 31.1929C32.0174 31.2085 31.9404 31.2164 31.8632 31.2164H21.3347C20.6974 31.2164 20.1808 30.6998 20.1808 30.0625C20.1808 29.9994 20.186 29.9364 20.1963 29.8742L20.2155 29.7816C20.8558 27.2304 23.2586 25.3412 26.6487 25.3412ZM18.416 15.1263C19.6315 15.4175 20.786 16.3962 20.7183 18.6946L20.7087 18.9072C20.6756 18.958 21.1292 19.1657 21.1292 19.8343C21.1292 20.28 20.9891 20.5834 20.7087 20.7444C20.195 22.9841 19.1248 24.104 17.4981 24.104C15.8713 24.104 14.7072 22.9841 14.0057 20.7444C13.7421 20.6289 13.6104 20.3255 13.6104 19.8343C13.6104 19.3431 13.7421 19.034 14.0057 18.9072C14.0337 17.0498 14.4569 15.9896 15.2752 15.7264C15.6 15.6226 15.9073 15.6226 16.1971 15.7264C16.4902 15.0422 17.2299 14.8421 18.416 15.1263ZM30.3169 16.9308C31.1324 18.3339 31.2838 20.0477 30.771 22.0723C30.7338 22.2825 30.8681 22.4513 31.1739 22.5786L31.2139 22.5939L31.2642 22.6105C31.3775 22.646 31.4406 22.7666 31.4052 22.88C31.3951 22.9121 31.3777 22.9413 31.3545 22.9652L31.3158 22.9969C30.8109 23.3197 29.3542 23.3436 28.5091 23.1763C27.9505 23.7726 27.3399 24.0707 26.6774 24.0707C26.0149 24.0707 25.3976 23.7726 24.8255 23.1763C23.225 23.0486 22.4248 21.8495 22.4248 19.5789C22.4248 17.5002 23.2598 16.134 24.9298 15.4804C25.2178 15.3677 25.5339 15.3487 25.8332 15.4262L26.0548 15.4835C27.6048 14.517 29.0255 14.9995 30.3169 16.9308Z" fill="white"/>
<defs>
<linearGradient id="paint0_linear_44_22491" x1="22.5" y1="0" x2="22.5" y2="45" gradientUnits="userSpaceOnUse">
<stop stop-color="#6DC0FC"/>
<stop offset="1" stop-color="#258CD6"/>
</linearGradient>
</defs>
</svg>
