<svg width="45" height="45" viewBox="0 0 45 45" fill="none" xmlns="http://www.w3.org/2000/svg">
<rect width="45" height="45" rx="22.5" fill="url(#paint0_linear_2006_2260)"/>
<path d="M22.3957 15.4167C18.1501 15.4168 14.7082 18.8586 14.7082 23.1042C14.7082 27.3498 18.1501 30.7916 22.3957 30.7917C25.7943 30.7917 28.6762 28.5857 29.6916 25.528L23.8283 23.9577C23.6417 23.9077 23.3548 23.8348 23.1135 23.7341C22.8319 23.6165 22.4127 23.3847 22.131 22.8972C21.8494 22.4093 21.8587 21.9303 21.8976 21.6276C21.9311 21.3681 22.0107 21.0829 22.0607 20.8962L23.507 15.4977C23.1442 15.4452 22.7731 15.4167 22.3957 15.4167ZM25.0881 21.1891L30.0598 22.5212C29.868 19.9639 28.4267 17.7558 26.343 16.5065L25.0881 21.1891Z" fill="white"/>
<path d="M24.9431 15.9312C25.1946 14.9926 25.3204 14.5233 25.7655 14.3316C26.2106 14.14 26.5786 14.3392 27.3147 14.7374C27.711 14.9519 28.0907 15.1978 28.4499 15.4734C29.3398 16.1563 30.0865 17.0077 30.6473 17.9791C31.2082 18.9506 31.5722 20.023 31.7186 21.1351C31.7777 21.5839 31.8009 22.0357 31.7884 22.4861C31.7653 23.3227 31.7537 23.741 31.3652 24.0307C30.9767 24.3203 30.5074 24.1946 29.5688 23.9431L25.1819 22.7676C24.2712 22.5236 23.8158 22.4016 23.6087 22.0429C23.4016 21.6842 23.5236 21.2288 23.7677 20.3181L24.9431 15.9312Z" fill="white"/>
<defs>
<linearGradient id="paint0_linear_2006_2260" x1="22.5" y1="0" x2="22.5" y2="45" gradientUnits="userSpaceOnUse">
<stop stop-color="#E08FFD"/>
<stop offset="1" stop-color="#9E5BF4"/>
</linearGradient>
</defs>
</svg>
