<svg width="48" height="48" viewBox="0 0 48 48" fill="none" xmlns="http://www.w3.org/2000/svg">
<path d="M19.5714 38H24M39.5 6.50007C38.3928 6.21069 36.5884 6.20005 35.0714 6.21069M35.0714 6.21069C34.5641 6.21426 34.8708 6.19153 34.1857 6.21069C32.3979 6.26947 30.6464 7.05249 30.6428 9.2709C30.6389 11.6342 32.8571 12.3334 35.0714 12.3334C37.2857 12.3334 39.5 12.8729 39.5 15.3959C39.5 17.2919 37.7119 18.1228 35.4835 18.3979C33.7121 18.3979 32.8571 18.4584 30.6428 18.1667M35.0714 6.21069V3M35.0714 18.3988V21.6667" stroke="#0095FF" stroke-width="5" stroke-linecap="round" stroke-linejoin="round"/>
<path d="M35.0714 31V37.5333C35.0714 40.1469 35.0714 41.4538 34.5887 42.452C34.1642 43.33 33.4867 44.044 32.6534 44.4913C31.7062 45 30.4659 45 27.9857 45H15.5857C13.1055 45 11.8654 45 10.918 44.4913C10.0847 44.044 9.40726 43.33 8.98269 42.452C8.5 41.4538 8.5 40.1469 8.5 37.5333V9C8.5 7.76058 8.5 7.14085 8.61102 6.62824C8.98958 4.8806 10.2846 3.5159 11.9431 3.11699C12.4296 3 13.0177 3 14.1939 3H21.7857" stroke="#363853" stroke-width="5" stroke-linecap="round" stroke-linejoin="round"/>
</svg>
