<svg width="45" height="45" viewBox="0 0 45 45" fill="none" xmlns="http://www.w3.org/2000/svg">
<rect width="45" height="45" rx="22.5" fill="url(#paint0_linear_2006_2259)"/>
<path d="M24.5 23C23.8568 23 23.3333 22.4766 23.3333 21.8333V19.5C23.3333 18.8568 23.8568 18.3333 24.5 18.3333H31.1111V16.3889C31.1111 16.1742 30.9369 16 30.7222 16H14.3889C14.1742 16 14 16.1742 14 16.3889V26.1111H31.1111V23H24.5Z" fill="white"/>
<path d="M31.1111 26.8889V29.6111C31.1111 29.8258 30.9369 30 30.7222 30H14.3889C14.1742 30 14 29.8258 14 29.6111V26.8889H31.1111ZM31.1111 19.5V21.8333C31.1111 22.048 31.1111 22 31.1111 22.2222H24.5C24.2853 22.2222 24.1111 22.048 24.1111 21.8333V19.5C24.1111 19.2853 24.2853 19.1111 24.5 19.1111H31.1111C31.1111 19.1111 31.1111 19.1111 31.1111 19.5ZM26.4444 20.6666C26.4444 20.2373 26.096 19.8889 25.6667 19.8889C25.2373 19.8889 24.8889 20.2373 24.8889 20.6666C24.8889 21.096 25.2373 21.4444 25.6667 21.4444C26.096 21.4444 26.4444 21.096 26.4444 20.6666Z" fill="#E3DEFF"/>
<defs>
<linearGradient id="paint0_linear_2006_2259" x1="22.5" y1="0" x2="22.5" y2="45" gradientUnits="userSpaceOnUse">
<stop stop-color="#9E8FFD"/>
<stop offset="1" stop-color="#7A5BF4"/>
</linearGradient>
</defs>
</svg>
