<svg width="45" height="45" viewBox="0 0 45 45" fill="none" xmlns="http://www.w3.org/2000/svg">
<rect width="45" height="45" rx="22.5" fill="url(#paint0_linear_2006_2253)"/>
<path d="M14.4012 28.6397H17.2007V30.8514C17.2007 30.9591 17.2384 31.0472 17.3138 31.1155C17.3515 31.1501 17.3965 31.1772 17.446 31.1951C17.4955 31.213 17.5485 31.2214 17.6017 31.2198H19.6884C19.7965 31.2198 19.8908 31.185 19.97 31.1155C20.0088 31.0817 20.0395 31.0407 20.0599 30.9952C20.0802 30.9496 20.0899 30.9006 20.0881 30.8514V28.6397H26.3998C26.4527 28.641 26.5053 28.6323 26.5544 28.6143C26.6035 28.5962 26.6481 28.5691 26.6855 28.5347C26.7229 28.5002 26.7523 28.4591 26.7719 28.4138C26.7915 28.3685 26.8009 28.32 26.7995 28.2713V26.7965C26.7995 26.6899 26.7618 26.6007 26.6877 26.5323C26.6499 26.4978 26.6049 26.4707 26.5554 26.4528C26.5059 26.4348 26.453 26.4264 26.3998 26.4281H20.0881V25.068H24.3382C26.0051 25.068 27.3652 24.5999 28.4186 23.6626C29.472 22.7254 30 21.517 30 20.0341C30 18.5512 29.4733 17.3428 28.4186 16.4056C27.364 15.4683 26.0038 15.0002 24.337 15.0002H17.6004C17.5473 14.9984 17.4944 15.0067 17.4449 15.0244C17.3954 15.0421 17.3504 15.069 17.3126 15.1034C17.2751 15.1381 17.2457 15.1796 17.2262 15.2252C17.2067 15.2708 17.1976 15.3197 17.1994 15.3687V22.6142H14.4012C14.2843 22.6142 14.1888 22.6501 14.1134 22.7231C14.0379 22.7961 14.0002 22.8829 14.0002 22.9837V24.6995C13.9984 24.7485 14.0075 24.7973 14.027 24.843C14.0465 24.8886 14.0758 24.9301 14.1134 24.9648C14.1888 25.0344 14.2843 25.068 14.4012 25.068H17.2007V26.4269H14.4012C14.3481 26.4253 14.2951 26.4337 14.2456 26.4516C14.1961 26.4695 14.1511 26.4966 14.1134 26.5312C14.076 26.5658 14.0467 26.6071 14.0273 26.6525C14.0078 26.6979 13.9986 26.7465 14.0002 26.7953V28.2702C14.0002 28.3779 14.0379 28.4659 14.1134 28.5355C14.1888 28.605 14.2843 28.6397 14.4012 28.6397ZM20.0881 17.4552H24.0881C24.9718 17.4552 25.6833 17.6927 26.2251 18.1688C26.7669 18.645 27.0371 19.2671 27.0371 20.0353C27.0371 20.8034 26.7656 21.4255 26.2251 21.9017C25.6845 22.3778 24.9705 22.6165 24.0881 22.6165H20.0881V17.4552Z" fill="white"/>
<defs>
<linearGradient id="paint0_linear_2006_2253" x1="22.5" y1="0" x2="22.5" y2="45" gradientUnits="userSpaceOnUse">
<stop stop-color="#FD8FB0"/>
<stop offset="1" stop-color="#F45B89"/>
</linearGradient>
</defs>
</svg>
