<svg width="45" height="45" viewBox="0 0 45 45" fill="none" xmlns="http://www.w3.org/2000/svg">
<rect width="45" height="45" rx="22.5" fill="url(#paint0_linear_2006_2256)"/>
<path d="M21.5489 15.9271C21.8483 15.0057 23.1517 15.0057 23.4511 15.9271L24.6329 19.5643C24.7668 19.9764 25.1507 20.2553 25.5839 20.2553H29.4084C30.3771 20.2553 30.7799 21.4949 29.9962 22.0643L26.9021 24.3123C26.5516 24.5669 26.405 25.0183 26.5389 25.4303L27.7207 29.0676C28.02 29.9889 26.9656 30.7551 26.1818 30.1857L23.0878 27.9377C22.7373 27.6831 22.2627 27.683 21.9122 27.9377L18.8182 30.1857C18.0344 30.7551 16.98 29.9889 17.2793 29.0676L18.4611 25.4303C18.595 25.0183 18.4484 24.567 18.0979 24.3123L15.0038 22.0643C14.2201 21.4949 14.6229 20.2553 15.5916 20.2553H19.4161C19.8493 20.2553 20.2332 19.9764 20.3671 19.5643L21.5489 15.9271Z" fill="white"/>
<defs>
<linearGradient id="paint0_linear_2006_2256" x1="22.5" y1="0" x2="22.5" y2="45" gradientUnits="userSpaceOnUse">
<stop stop-color="#FF8800"/>
<stop offset="1" stop-color="#F0BB00"/>
</linearGradient>
</defs>
</svg>
