<svg width="45" height="45" viewBox="0 0 45 45" fill="none" xmlns="http://www.w3.org/2000/svg">
<rect width="45" height="45" rx="22.5" fill="url(#paint0_linear_2006_2258)"/>
<path fill-rule="evenodd" clip-rule="evenodd" d="M26.3227 15.9587C23.7277 14.6804 20.6901 14.6804 18.0951 15.9587C16.4299 16.779 15.3013 18.4043 15.1114 20.2605L15.0817 20.5507C14.9818 21.5274 14.9735 22.5115 15.0569 23.4898L15.0848 23.8167C15.1304 24.3523 15.1568 24.6613 15.208 24.9566C15.4863 26.5602 16.3225 28.0117 17.5665 29.0527C17.7956 29.2444 18.049 29.4213 18.4885 29.7282L18.7146 29.886C19.2998 30.2946 19.6537 30.5417 20.0153 30.7168C21.4015 31.3877 23.0163 31.3877 24.4024 30.7168C24.7641 30.5417 25.118 30.2946 25.7032 29.886L25.9291 29.7282C26.3688 29.4213 26.6221 29.2444 26.8512 29.0527C28.0953 28.0117 28.9314 26.5602 29.2098 24.9566C29.261 24.6613 29.2874 24.3523 29.333 23.8167L29.3609 23.4898C29.4443 22.5115 29.436 21.5274 29.336 20.5507L29.3064 20.2605C29.1164 18.4043 27.9879 16.779 26.3227 15.9587ZM24.8856 21.0018C25.1288 21.231 25.142 21.6159 24.915 21.8615L22.0314 24.9807C21.9199 25.1013 21.7647 25.171 21.6014 25.1738C21.438 25.1767 21.2805 25.1124 21.165 24.9958L19.5172 23.3322C19.282 23.0946 19.282 22.7095 19.5172 22.472C19.7525 22.2344 20.134 22.2344 20.3692 22.472L21.576 23.6904L24.0341 21.0314C24.2611 20.7858 24.6424 20.7726 24.8856 21.0018Z" fill="white"/>
<defs>
<linearGradient id="paint0_linear_2006_2258" x1="22.5" y1="0" x2="22.5" y2="45" gradientUnits="userSpaceOnUse">
<stop stop-color="#F24C4C"/>
<stop offset="1" stop-color="#FF8A00"/>
</linearGradient>
</defs>
</svg>
