<svg width="9" height="11" viewBox="0 0 9 11" fill="none" xmlns="http://www.w3.org/2000/svg">
<path fill-rule="evenodd" clip-rule="evenodd" d="M4.8625 0.150154C5.06271 0.35036 5.06271 0.674957 4.8625 0.875162L4.02881 1.70886H4.5C6.98528 1.70886 9 3.72358 9 6.20886C9 8.69414 6.98528 10.7089 4.5 10.7089C2.01472 10.7089 0 8.69414 0 6.20886C0 5.92573 0.229525 5.6962 0.512658 5.6962C0.795792 5.6962 1.02532 5.92573 1.02532 6.20886C1.02532 8.12788 2.58099 9.68354 4.5 9.68354C6.41901 9.68354 7.97468 8.12788 7.97468 6.20886C7.97468 4.28985 6.41901 2.73418 4.5 2.73418H4.02881L4.8625 3.56788C5.06271 3.76808 5.06271 4.09268 4.8625 4.29288C4.6623 4.49309 4.3377 4.49309 4.1375 4.29288L2.42864 2.58402C2.22843 2.38382 2.22843 2.05922 2.42864 1.85901L4.1375 0.150154C4.3377 -0.0500514 4.6623 -0.0500514 4.8625 0.150154Z" fill="white"/>
</svg>
