<svg width="50" height="50" viewBox="0 0 50 50" fill="none" xmlns="http://www.w3.org/2000/svg">
<path d="M46.2852 32.5067C44.6815 39.3434 39.3433 44.6815 32.5067 46.2852C27.5691 47.4434 22.4309 47.4434 17.4934 46.2852C10.6566 44.6815 5.31843 39.3434 3.71477 32.5067C2.55659 27.5691 2.55659 22.4309 3.71477 17.4934C5.31843 10.6567 10.6566 5.31848 17.4934 3.7148C22.4309 2.55665 27.5691 2.55665 32.5067 3.7148C39.3433 5.31848 44.6815 10.6567 46.2852 17.4934C47.4433 22.4309 47.4433 27.5691 46.2852 32.5067Z" stroke="#0095FF" stroke-width="5"/>
<path d="M46.2852 32.5067C47.4433 27.5691 47.4433 22.4309 46.2852 17.4934C44.6815 10.6567 39.3433 5.31848 32.5067 3.7148C27.5691 2.55665 22.4309 2.55665 17.4934 3.7148C10.6566 5.31848 5.31843 10.6567 3.71477 17.4934C2.55659 22.4309 2.55659 27.5691 3.71477 32.5067C5.31843 39.3434 10.6566 44.6815 17.4934 46.2852" stroke="#363853" stroke-width="5" stroke-linecap="round"/>
<path d="M31.1538 25H18.8462M25 31.1538V18.8462" stroke="#0095FF" stroke-width="5" stroke-linecap="round"/>
</svg>
