<svg width="45" height="45" viewBox="0 0 45 45" fill="none" xmlns="http://www.w3.org/2000/svg">
<rect width="45" height="45" rx="22.5" fill="url(#paint0_linear_2006_2254)"/>
<path fill-rule="evenodd" clip-rule="evenodd" d="M18.055 15C17.7861 15 17.5283 15.1068 17.3382 15.2969C17.1481 15.487 17.0412 15.7449 17.0412 16.0137V17.0275H16.0275C15.4898 17.0275 14.9741 17.2411 14.5938 17.6213C14.2136 18.0016 14 18.5173 14 19.055V29.1925C14 29.7302 14.2136 30.2459 14.5938 30.6262C14.9741 31.0064 15.4898 31.22 16.0275 31.22H28.1925C28.7302 31.22 29.2459 31.0064 29.6262 30.6262C30.0064 30.2459 30.22 29.7302 30.22 29.1925V19.055C30.22 18.5173 30.0064 18.0016 29.6262 17.6213C29.2459 17.2411 28.7302 17.0275 28.1925 17.0275H27.1787V16.0137C27.1787 15.7449 27.0719 15.487 26.8818 15.2969C26.6917 15.1068 26.4339 15 26.165 15C25.8961 15 25.6383 15.1068 25.4482 15.2969C25.2581 15.487 25.1512 15.7449 25.1512 16.0137V17.0275H19.0687V16.0137C19.0687 15.7449 18.9619 15.487 18.7718 15.2969C18.5817 15.1068 18.3239 15 18.055 15ZM18.055 20.0687C17.7861 20.0687 17.5283 20.1756 17.3382 20.3657C17.1481 20.5558 17.0412 20.8136 17.0412 21.0825C17.0412 21.3514 17.1481 21.6092 17.3382 21.7993C17.5283 21.9894 17.7861 22.0962 18.055 22.0962H26.165C26.4339 22.0962 26.6917 21.9894 26.8818 21.7993C27.0719 21.6092 27.1787 21.3514 27.1787 21.0825C27.1787 20.8136 27.0719 20.5558 26.8818 20.3657C26.6917 20.1756 26.4339 20.0687 26.165 20.0687H18.055Z" fill="white"/>
<defs>
<linearGradient id="paint0_linear_2006_2254" x1="22.5" y1="0" x2="22.5" y2="45" gradientUnits="userSpaceOnUse">
<stop stop-color="#B14FFF"/>
<stop offset="1" stop-color="#CA8FF8"/>
</linearGradient>
</defs>
</svg>
