<svg width="48" height="48" viewBox="0 0 48 48" fill="none" xmlns="http://www.w3.org/2000/svg">
<g clip-path="url(#clip0_44_22146)">
<g clip-path="url(#clip1_44_22146)">
<g clip-path="url(#clip2_44_22146)">
<path d="M24.0001 47.2484C34.1833 47.2484 42.4385 38.9932 42.4385 28.81C42.4385 18.6267 34.1833 10.3716 24.0001 10.3716C13.8168 10.3716 5.56165 18.6267 5.56165 28.81C5.56165 38.9932 13.8168 47.2484 24.0001 47.2484Z" fill="#5CBBFF"/>
<path d="M17.5866 24.8016C17.5866 18.964 20.3026 13.7636 24.5365 10.3851C24.3578 10.3799 24.1798 10.3716 23.9999 10.3716C13.8166 10.3716 5.56152 18.6267 5.56152 28.81C5.56152 38.9932 13.8166 47.2484 23.9999 47.2484C28.3455 47.2484 32.3369 45.7414 35.4885 43.2265C25.554 42.942 17.5866 34.805 17.5866 24.8016Z" fill="#0177FF"/>
<path d="M33.2193 3.95813H14.7808L13.8475 11.4245C13.6946 12.6479 14.4917 13.7891 15.6931 14.0662L22.9184 15.7335C23.6301 15.8978 24.3698 15.8978 25.0816 15.7335L32.3068 14.0662C33.5082 13.7889 34.3054 12.6479 34.1525 11.4245L33.2193 3.95813Z" fill="#5B5D6E"/>
<path d="M33.8962 9.37401L33.2193 3.95825H14.7808L13.8475 11.4246C13.6946 12.648 14.4917 13.7892 15.6931 14.0663L22.9185 15.7336C23.2744 15.8157 23.6372 15.8568 24.0001 15.8568V11.1733L33.8962 9.37401Z" fill="#464655"/>
<path d="M24 0.751465L5.20029 4.23288C4.61585 4.34107 4.61585 5.17854 5.20029 5.28682L24 8.76814L42.7997 5.28672C43.3842 5.17854 43.3842 4.34107 42.7997 4.23278L24 0.751465Z" fill="#707487"/>
<path d="M39.2338 15.9832C40.1193 15.9832 40.8371 15.2654 40.8371 14.3799C40.8371 13.4944 40.1193 12.7766 39.2338 12.7766C38.3483 12.7766 37.6305 13.4944 37.6305 14.3799C37.6305 15.2654 38.3483 15.9832 39.2338 15.9832Z" fill="#5B5D6E"/>
<path d="M39.2339 15.9833C38.3484 15.9833 37.6306 16.701 37.6306 17.5866V21.595H40.8373V17.5866C40.8372 16.7011 40.1194 15.9833 39.2339 15.9833Z" fill="#5B5D6E"/>
<path d="M42.9366 6.02582C43.5566 5.91097 43.9896 5.39038 43.9896 4.75991C43.9896 4.12944 43.5566 3.60884 42.9366 3.494L24.1369 0.012586C24.0464 -0.00419532 23.9537 -0.00419532 23.8633 0.012586L5.06344 3.49391C4.44347 3.60875 4.01044 4.12934 4.01044 4.75981C4.01044 5.39028 4.44338 5.91097 5.06344 6.02582L13.5681 7.60082L13.1017 11.3314C13.0334 11.8769 13.108 12.4082 13.2975 12.8871C7.9741 16.4674 4.81003 22.3825 4.81003 28.8101C4.81003 39.3916 13.4186 48.0001 24 48.0001C34.5814 48.0001 43.19 39.3916 43.19 28.8101C43.19 26.1358 42.6498 23.5531 41.5867 21.1272V17.5866C41.5867 16.9676 41.3464 16.4041 40.9544 15.9833C41.3463 15.5626 41.5867 14.9989 41.5867 14.38C41.5867 13.3443 40.9144 12.4633 39.9834 12.1487V6.57266L42.9366 6.02582ZM24 1.51587L41.5177 4.75981L24 8.00395L6.48235 4.75991L24 1.51587ZM38.4138 39.0497C36.9144 38.587 35.3968 38.1977 33.8648 37.8822C34.6522 35.3422 35.0993 32.5097 35.1643 29.5616H41.6699C41.5217 33.0869 40.3379 36.349 38.4138 39.0497ZM6.33019 29.5616H12.8358C12.9009 32.5098 13.3479 35.3422 14.1353 37.8821C12.6032 38.1975 11.0855 38.5869 9.58632 39.0496C7.6621 36.349 6.47841 33.0869 6.33019 29.5616ZM9.57564 18.5672C11.079 19.0314 12.6008 19.4221 14.137 19.7383C13.3523 22.2741 12.9019 25.1119 12.8362 28.0585H6.33085C6.47579 24.5911 7.62029 21.3128 9.57564 18.5672ZM22.7494 16.4661C22.914 16.5041 23.0808 16.5324 23.2484 16.555V19.233C20.8556 19.1953 18.4775 18.9771 16.1294 18.5822C16.5977 17.3896 17.1514 16.2932 17.7828 15.3199L22.7494 16.4661ZM30.2172 15.3199C30.8487 16.2933 31.4026 17.3897 31.8708 18.5822C29.522 18.9772 27.143 19.1957 24.7516 19.2334V16.555C24.9193 16.5322 25.086 16.5041 25.2507 16.4661L30.2172 15.3199ZM24.7515 20.7365C27.3144 20.6973 29.8635 20.4569 32.3784 20.0201C33.1493 22.4502 33.5941 25.1947 33.6603 28.0584H24.7514L24.7515 20.7365ZM23.2484 20.736V28.0584H14.3396C14.406 25.1956 14.8505 22.4514 15.6212 20.0216C18.1354 20.4584 20.6839 20.6969 23.2484 20.736ZM14.3392 29.5616H23.2484V36.8841C20.6835 36.9232 18.1344 37.1617 15.6197 37.5985C14.8455 35.1629 14.4049 32.424 14.3392 29.5616ZM23.2484 38.3872V46.4421C21.0244 46.1222 18.93 44.3886 17.285 41.4781C16.8558 40.7188 16.4705 39.9019 16.1304 39.0377C18.4782 38.6429 20.8559 38.4248 23.2484 38.3872ZM24.7515 46.4421V38.3872C27.144 38.4248 29.5219 38.643 31.8695 39.0378C31.5294 39.902 31.1441 40.7189 30.7149 41.4782C29.07 44.3886 26.9756 46.1222 24.7515 46.4421ZM24.7515 36.8841V29.5616H33.6608C33.5951 32.424 33.1545 35.163 32.3802 37.5986C29.8656 37.1617 27.3166 36.9232 24.7515 36.8841ZM35.1639 28.0584C35.0982 25.1118 34.6479 22.2741 33.8633 19.7386C34.8746 19.5304 35.8796 19.2908 36.8769 19.0186V21.5949C36.8769 22.0099 37.2134 22.3465 37.6285 22.3465H40.4679C41.1863 24.1699 41.5883 26.0847 41.6699 28.0584H35.1639ZM40.0835 17.5866V20.8434H38.38V17.5866C38.38 17.1169 38.7621 16.7348 39.2318 16.7348C39.7015 16.7348 40.0835 17.1169 40.0835 17.5866ZM36.8806 17.4568C35.7211 17.7843 34.5508 18.0681 33.3714 18.3059C32.915 17.0983 32.3775 15.9761 31.7655 14.9626L32.4758 14.7986C32.9936 14.6791 33.453 14.4385 33.8303 14.1133C34.9904 14.8906 36.0544 15.8018 37.0024 16.8293C36.9347 17.0281 36.8926 17.2384 36.8806 17.4568ZM33.4068 11.5179C33.5124 12.3619 32.9669 13.1428 32.1379 13.3341L24.9127 15.0015C24.8594 15.0137 24.8054 15.0237 24.7516 15.0337V9.39332L32.9515 7.87485L33.4068 11.5179ZM23.2484 9.39332V15.0336C23.1946 15.0235 23.1407 15.0136 23.0874 15.0014L15.8621 13.334C15.0332 13.1427 14.4878 12.3619 14.5932 11.5178L15.0486 7.87494L23.2484 9.39332ZM14.169 14.1127C14.5466 14.4383 15.006 14.6791 15.5242 14.7987L16.2345 14.9626C15.6227 15.9758 15.0853 17.0976 14.6291 18.3048C13.2634 18.0296 11.9091 17.6951 10.5696 17.2991C11.6047 16.0959 12.8107 15.022 14.169 14.1127ZM10.5801 40.3179C11.9154 39.9236 13.2655 39.5904 14.6268 39.3158C15.0175 40.3471 15.4684 41.319 15.9764 42.2178C16.7572 43.5991 17.6399 44.7498 18.5975 45.652C15.451 44.6403 12.686 42.7703 10.5801 40.3179ZM29.4026 45.652C30.3601 44.7497 31.2429 43.599 32.0236 42.2177C32.5317 41.3189 32.9826 40.347 33.3733 39.3158C34.7345 39.5903 36.0846 39.9237 37.4198 40.3179C35.3138 42.7704 32.5489 44.6403 29.4026 45.652ZM39.2317 15.2317C38.762 15.2317 38.3799 14.8496 38.3799 14.3799C38.3799 13.9102 38.762 13.5281 39.2317 13.5281C39.7014 13.5281 40.0835 13.9102 40.0835 14.3799C40.0835 14.8496 39.7014 15.2317 39.2317 15.2317ZM38.4802 12.1486C37.5493 12.4631 36.8769 13.3441 36.8769 14.3799C36.8769 14.454 36.8808 14.5271 36.8875 14.5994C36.2015 13.9771 35.4711 13.4056 34.7022 12.8879C34.8918 12.4088 34.9667 11.877 34.8984 11.3312L34.432 7.60054L38.4802 6.85101V12.1486Z" fill="black"/>
</g>
</g>
</g>
<defs>
<clipPath id="clip0_44_22146">
<rect width="48" height="48" fill="white"/>
</clipPath>
<clipPath id="clip1_44_22146">
<rect width="48" height="48" fill="white"/>
</clipPath>
<clipPath id="clip2_44_22146">
<rect width="48" height="48" fill="white"/>
</clipPath>
</defs>
</svg>
