<svg width="16" height="16" viewBox="0 0 16 16" fill="none" xmlns="http://www.w3.org/2000/svg">
<g clip-path="url(#clip0_352_13171)">
<g clip-path="url(#clip1_352_13171)">
<path fill-rule="evenodd" clip-rule="evenodd" d="M5.52 5.80698L8.278 3.05598L7.726 2.50598C7.58036 2.35979 7.49858 2.16184 7.49858 1.95548C7.49858 1.74913 7.58036 1.55118 7.726 1.40498C8.029 1.10198 8.526 1.10198 8.829 1.40498L14.345 6.90798C14.4906 7.05418 14.5724 7.25213 14.5724 7.45848C14.5724 7.66484 14.4906 7.86279 14.345 8.00898C14.042 8.31198 13.545 8.31198 13.242 8.00898L12.69 7.45898L9.932 10.21C9.71461 10.4265 9.54211 10.6838 9.4244 10.9671C9.3067 11.2504 9.24611 11.5542 9.24611 11.861C9.24611 12.1678 9.3067 12.4716 9.4244 12.7549C9.54211 13.0382 9.71461 13.2955 9.932 13.512L8.83 14.611L5.537 11.326L1.676 15.178H0.572998V14.077L4.434 10.225L1.108 6.90698L2.211 5.80598C2.64982 6.24474 3.24496 6.49122 3.8655 6.49122C4.48604 6.49122 5.08117 6.24574 5.52 5.80698Z" fill="#232323"/>
</g>
</g>
<defs>
<clipPath id="clip0_352_13171">
<rect width="15" height="15" fill="white" transform="translate(0.5 0.5)"/>
</clipPath>
<clipPath id="clip1_352_13171">
<rect width="15" height="15" fill="white" transform="translate(0.5 0.5)"/>
</clipPath>
</defs>
</svg>
