<svg width="18" height="14" viewBox="0 0 18 14" fill="none" xmlns="http://www.w3.org/2000/svg">
<path fill-rule="evenodd" clip-rule="evenodd" d="M8.99997 0.541748C12.1416 0.541748 15.0666 2.69175 17.2333 6.59175C17.3822 6.84958 17.3822 7.16725 17.2333 7.42508C15.0666 11.3251 12.1416 13.4751 8.99997 13.4751C5.85831 13.4751 2.94164 11.3251 0.774976 7.42508C0.626115 7.16725 0.626115 6.84958 0.774976 6.59175C2.94164 2.69175 5.85831 0.541748 8.99997 0.541748ZM2.48331 6.97508C2.73899 7.41681 3.01713 7.84515 3.31664 8.25841C3.11671 7.41454 3.11671 6.53562 3.31664 5.69175C3.01713 6.10501 2.73899 6.53335 2.48331 6.97508ZM8.99998 11.1667C6.69879 11.1667 4.83331 9.30127 4.83331 7.00008C4.83331 4.69889 6.69879 2.83341 8.99998 2.83341C11.3012 2.83341 13.1666 4.69889 13.1666 7.00008C13.1666 9.30127 11.3012 11.1667 8.99998 11.1667ZM15.5166 7.00008C15.2628 6.55452 14.9846 6.12331 14.6833 5.70841C14.8834 6.5579 14.8834 7.44226 14.6833 8.29175C14.9846 7.87685 15.2628 7.44564 15.5166 7.00008Z" fill="#A5A5A5"/>
</svg>
