<svg width="16" height="10" viewBox="0 0 16 10" fill="none" xmlns="http://www.w3.org/2000/svg">
<path d="M7.85999 0.192505C7.03967 0.192505 6.25354 0.30481 5.50159 0.529419C4.74963 0.763794 4.05139 1.08606 3.40686 1.49622C2.76233 1.90637 2.18127 2.39954 1.6637 2.97571C1.14612 3.55188 0.711548 4.18665 0.359985 4.88C0.711548 5.57336 1.14612 6.20813 1.6637 6.7843C2.18127 7.36047 2.76233 7.85364 3.40686 8.26379C4.05139 8.67395 4.74963 8.99622 5.50159 9.23059C6.25354 9.4552 7.03967 9.5675 7.85999 9.5675C8.6803 9.5675 9.46643 9.4552 10.2184 9.23059C10.9703 8.99622 11.6686 8.67395 12.3131 8.26379C12.9576 7.85364 13.5387 7.36047 14.0563 6.7843C14.5739 6.20813 15.0084 5.57336 15.36 4.88C15.0084 4.18665 14.5739 3.55188 14.0563 2.97571C13.5387 2.39954 12.9576 1.90637 12.3131 1.49622C11.6686 1.08606 10.9703 0.763794 10.2184 0.529419C9.46643 0.30481 8.6803 0.192505 7.85999 0.192505ZM11.5514 2.68274C12.0006 2.95618 12.4083 3.28088 12.7745 3.65686C13.1407 4.03284 13.4655 4.44055 13.7487 4.88C13.4655 5.31946 13.1407 5.72717 12.7745 6.10315C12.4083 6.47913 12.0006 6.80383 11.5514 7.07727C11.0045 7.42883 10.4161 7.69739 9.78625 7.88293C9.15637 8.06848 8.51428 8.16125 7.85999 8.16125C7.20569 8.16125 6.5636 8.06848 5.93372 7.88293C5.30383 7.69739 4.71545 7.42883 4.16858 7.07727C3.71936 6.80383 3.31165 6.47913 2.94543 6.10315C2.57922 5.72717 2.25452 5.31946 1.97131 4.88C2.25452 4.44055 2.57922 4.03284 2.94543 3.65686C3.31165 3.28088 3.71936 2.95618 4.16858 2.68274C4.18811 2.66321 4.21252 2.64368 4.24182 2.62415C4.27112 2.60461 4.30042 2.58508 4.32971 2.56555C4.26135 2.77063 4.20764 2.98059 4.16858 3.19543C4.12952 3.41028 4.10999 3.63 4.10999 3.85461C4.10999 4.37219 4.20764 4.86047 4.40295 5.31946C4.59827 5.76868 4.86682 6.16418 5.20862 6.50598C5.55042 6.84778 5.94592 7.11633 6.39514 7.31165C6.85413 7.50696 7.34241 7.60461 7.85999 7.60461C8.37756 7.60461 8.86584 7.50696 9.32483 7.31165C9.77405 7.11633 10.1696 6.84778 10.5114 6.50598C10.8531 6.16418 11.1217 5.76868 11.317 5.31946C11.5123 4.86047 11.61 4.37219 11.61 3.85461C11.61 3.63 11.5905 3.41028 11.5514 3.19543C11.5123 2.98059 11.4586 2.77063 11.3903 2.56555C11.4196 2.58508 11.4489 2.60461 11.4781 2.62415C11.5074 2.64368 11.5319 2.66321 11.5514 2.68274ZM7.85999 3.47375C7.85999 3.86438 7.72327 4.19641 7.44983 4.46985C7.17639 4.74329 6.84436 4.88 6.45374 4.88C6.06311 4.88 5.73108 4.74329 5.45764 4.46985C5.1842 4.19641 5.04749 3.86438 5.04749 3.47375C5.04749 3.08313 5.1842 2.7511 5.45764 2.47766C5.73108 2.20422 6.06311 2.0675 6.45374 2.0675C6.84436 2.0675 7.17639 2.20422 7.44983 2.47766C7.72327 2.7511 7.85999 3.08313 7.85999 3.47375Z" fill="white"/>
</svg>
