<svg width="33" height="32" viewBox="0 0 33 32" fill="none" xmlns="http://www.w3.org/2000/svg">
<rect x="0.700012" width="32" height="32" rx="16" fill="#0177FF"/>
<path d="M15.18 12.4801C15.2867 12.3734 15.4111 12.3201 15.5534 12.3201C15.6956 12.3201 15.82 12.3734 15.9267 12.4801L20.2467 16.7467C20.3178 16.8534 20.3534 16.9867 20.3534 17.1467C20.3534 17.3067 20.3178 17.4223 20.2467 17.4934L15.9267 21.8134C15.82 21.9201 15.6956 21.9734 15.5534 21.9734C15.4111 21.9734 15.2867 21.9201 15.18 21.8134C15.0734 21.7067 15.02 21.5823 15.02 21.4401C15.02 21.2978 15.0734 21.1734 15.18 21.0667L19.0734 17.1201L15.18 13.2267C15.0734 13.1201 15.02 12.9956 15.02 12.8534C15.02 12.7112 15.0734 12.5867 15.18 12.4801Z" fill="white"/>
</svg>
