<svg width="16" height="16" viewBox="0 0 16 16" fill="none" xmlns="http://www.w3.org/2000/svg">
<g clip-path="url(#clip0_214_35055)">
<path d="M8 1.33337C9.29343 1.33314 10.559 1.70916 11.6425 2.41561C12.7259 3.12206 13.5805 4.12843 14.102 5.31207C14.6235 6.4957 14.7894 7.80548 14.5795 9.08176C14.3697 10.3581 13.7931 11.5457 12.92 12.5" stroke="white" stroke-width="1.5" stroke-linecap="round" stroke-linejoin="round"/>
<path d="M8 5.33337V10.6667" stroke="white" stroke-width="1.5" stroke-linecap="round" stroke-linejoin="round"/>
<path d="M10.6667 8H5.33337" stroke="white" stroke-width="1.5" stroke-linecap="round" stroke-linejoin="round"/>
<path d="M1.66671 5.91663C1.45427 6.5624 1.34186 7.23686 1.33337 7.91663" stroke="white" stroke-width="1.5" stroke-linecap="round" stroke-linejoin="round"/>
<path d="M1.88672 10.6666C2.26105 11.5278 2.81311 12.3003 3.50672 12.9333" stroke="white" stroke-width="1.5" stroke-linecap="round" stroke-linejoin="round"/>
<path d="M3.0907 3.49003C3.27673 3.28752 3.4751 3.09671 3.6847 2.9187" stroke="white" stroke-width="1.5" stroke-linecap="round" stroke-linejoin="round"/>
<path d="M5.7627 14.2799C7.42516 14.8722 9.25463 14.7811 10.85 14.0266" stroke="white" stroke-width="1.5" stroke-linecap="round" stroke-linejoin="round"/>
</g>
<defs>
<clipPath id="clip0_214_35055">
<rect width="16" height="16" fill="white"/>
</clipPath>
</defs>
</svg>
