<svg width="50" height="50" viewBox="0 0 50 50" fill="none" xmlns="http://www.w3.org/2000/svg">
<rect width="50" height="50" rx="25" fill="#71AAE4"/>
<path d="M20.5469 21.25C20.7812 19.7969 21.7656 18.5781 23.0312 17.9688C22.7031 18.8594 22.4688 19.9844 22.375 21.25H20.5469ZM20.5469 22.75H22.375C22.4688 24.0625 22.7031 25.1875 23.0312 26.0781C21.7656 25.4688 20.7812 24.25 20.5469 22.75ZM25 26.4531C24.625 26.125 24.0156 24.8594 23.875 22.75H26.0781C25.9375 24.8594 25.3281 26.125 25 26.4531ZM23.875 21.25C24.0156 19.1875 24.625 17.9219 25 17.5938C25.3281 17.9219 25.9375 19.1875 26.0781 21.25H23.875ZM26.9219 26.0781C27.25 25.1875 27.4844 24.0625 27.5781 22.75H29.4062C29.1719 24.25 28.1875 25.4688 26.9219 26.0781ZM34 13C34.7969 13 35.5 13.7031 35.5 14.5V35.5C35.5 36.3438 34.7969 37 34 37H17.5C15.8125 37 14.5 35.6875 14.5 34V16C14.5 14.3594 15.8125 13 17.5 13H34ZM30.25 32.5C30.625 32.5 31 32.1719 31 31.75C31 31.375 30.625 31 30.25 31H19.75C19.3281 31 19 31.375 19 31.75C19 32.1719 19.3281 32.5 19.75 32.5H30.25ZM25 28C28.2812 28 31 25.3281 31 22C31 18.7188 28.2812 16 25 16C21.6719 16 19 18.7188 19 22C19 25.3281 21.6719 28 25 28ZM26.9219 17.9688C28.1875 18.5781 29.1719 19.7969 29.4062 21.25H27.5781C27.4844 19.9844 27.25 18.8594 26.9219 17.9688Z" fill="white"/>
</svg>
