<svg width="22" height="24" viewBox="0 0 22 24" fill="none" xmlns="http://www.w3.org/2000/svg">
<path d="M6.54688 8.25C6.78125 6.79688 7.76562 5.57812 9.03125 4.96875C8.70312 5.85938 8.46875 6.98438 8.375 8.25H6.54688ZM6.54688 9.75H8.375C8.46875 11.0625 8.70312 12.1875 9.03125 13.0781C7.76562 12.4688 6.78125 11.25 6.54688 9.75ZM11 13.4531C10.625 13.125 10.0156 11.8594 9.875 9.75H12.0781C11.9375 11.8594 11.3281 13.125 11 13.4531ZM9.875 8.25C10.0156 6.1875 10.625 4.92188 11 4.59375C11.3281 4.92188 11.9375 6.1875 12.0781 8.25H9.875ZM12.9219 13.0781C13.25 12.1875 13.4844 11.0625 13.5781 9.75H15.4062C15.1719 11.25 14.1875 12.4688 12.9219 13.0781ZM20 0C20.7969 0 21.5 0.703125 21.5 1.5V22.5C21.5 23.3438 20.7969 24 20 24H3.5C1.8125 24 0.5 22.6875 0.5 21V3C0.5 1.35938 1.8125 0 3.5 0H20ZM16.25 19.5C16.625 19.5 17 19.1719 17 18.75C17 18.375 16.625 18 16.25 18H5.75C5.32812 18 5 18.375 5 18.75C5 19.1719 5.32812 19.5 5.75 19.5H16.25ZM11 15C14.2812 15 17 12.3281 17 9C17 5.71875 14.2812 3 11 3C7.67188 3 5 5.71875 5 9C5 12.3281 7.67188 15 11 15ZM12.9219 4.96875C14.1875 5.57812 15.1719 6.79688 15.4062 8.25H13.5781C13.4844 6.98438 13.25 5.85938 12.9219 4.96875Z" fill="white"/>
</svg>
