<svg width="50" height="50" viewBox="0 0 50 50" fill="none" xmlns="http://www.w3.org/2000/svg">
<rect width="50" height="50" rx="25" fill="#EAECF0"/>
<path d="M36.25 14.5C37.4688 14.5 38.5 15.5312 38.5 16.75V17.5H11.5V16.75C11.5 15.5312 12.4844 14.5 13.75 14.5H36.25ZM11.5 33.25V19H38.5V33.25C38.5 34.5156 37.4688 35.5 36.25 35.5H13.75C12.4844 35.5 11.5 34.5156 11.5 33.25ZM28 22.375V23.125C28 23.3594 28.1406 23.5 28.375 23.5H35.125C35.3125 23.5 35.5 23.3594 35.5 23.125V22.375C35.5 22.1875 35.3125 22 35.125 22H28.375C28.1406 22 28 22.1875 28 22.375ZM28 25.375V26.125C28 26.3594 28.1406 26.5 28.375 26.5H35.125C35.3125 26.5 35.5 26.3594 35.5 26.125V25.375C35.5 25.1875 35.3125 25 35.125 25H28.375C28.1406 25 28 25.1875 28 25.375ZM28 28.375V29.125C28 29.3594 28.1406 29.5 28.375 29.5H35.125C35.3125 29.5 35.5 29.3594 35.5 29.125V28.375C35.5 28.1875 35.3125 28 35.125 28H28.375C28.1406 28 28 28.1875 28 28.375ZM19.75 22C18.0625 22 16.75 23.3594 16.75 25C16.75 26.6875 18.0625 28 19.75 28C21.3906 28 22.75 26.6875 22.75 25C22.75 23.3594 21.3906 22 19.75 22ZM14.6406 31.6094C14.4531 32.0312 14.875 32.5 15.3438 32.5H24.1094C24.5781 32.5 25 32.0781 24.8125 31.6094C24.4375 30.3906 23.3125 29.5 22 29.5H21.5781C21.0156 29.7812 20.4062 29.875 19.75 29.875C19.0469 29.875 18.4375 29.7812 17.875 29.5H17.5C16.1406 29.5 15.0156 30.3906 14.6406 31.6094Z" fill="#475467"/>
</svg>
