<svg width="28" height="22" viewBox="0 0 28 22" fill="none" xmlns="http://www.w3.org/2000/svg">
<path d="M25.25 0.5C26.4688 0.5 27.5 1.53125 27.5 2.75V3.5H0.5V2.75C0.5 1.53125 1.48438 0.5 2.75 0.5H25.25ZM0.5 19.25V5H27.5V19.25C27.5 20.5156 26.4688 21.5 25.25 21.5H2.75C1.48438 21.5 0.5 20.5156 0.5 19.25ZM17 8.375V9.125C17 9.35938 17.1406 9.5 17.375 9.5H24.125C24.3125 9.5 24.5 9.35938 24.5 9.125V8.375C24.5 8.1875 24.3125 8 24.125 8H17.375C17.1406 8 17 8.1875 17 8.375ZM17 11.375V12.125C17 12.3594 17.1406 12.5 17.375 12.5H24.125C24.3125 12.5 24.5 12.3594 24.5 12.125V11.375C24.5 11.1875 24.3125 11 24.125 11H17.375C17.1406 11 17 11.1875 17 11.375ZM17 14.375V15.125C17 15.3594 17.1406 15.5 17.375 15.5H24.125C24.3125 15.5 24.5 15.3594 24.5 15.125V14.375C24.5 14.1875 24.3125 14 24.125 14H17.375C17.1406 14 17 14.1875 17 14.375ZM8.75 8C7.0625 8 5.75 9.35938 5.75 11C5.75 12.6875 7.0625 14 8.75 14C10.3906 14 11.75 12.6875 11.75 11C11.75 9.35938 10.3906 8 8.75 8ZM3.64062 17.6094C3.45312 18.0312 3.875 18.5 4.34375 18.5H13.1094C13.5781 18.5 14 18.0781 13.8125 17.6094C13.4375 16.3906 12.3125 15.5 11 15.5H10.5781C10.0156 15.7812 9.40625 15.875 8.75 15.875C8.04688 15.875 7.4375 15.7812 6.875 15.5H6.5C5.14062 15.5 4.01562 16.3906 3.64062 17.6094Z" fill="#475467"/>
</svg>
