<svg width="16" height="16" viewBox="0 0 16 16" fill="none" xmlns="http://www.w3.org/2000/svg">
<path fill-rule="evenodd" clip-rule="evenodd" d="M0 8.0999C0 8.0999 2.5 12.7999 8 12.7999C13.5 12.7999 16 8.0999 16 8.0999C16 8.0999 13.5 3.3999 8 3.3999C2.5 3.3999 0 8.0999 0 8.0999ZM1.7495 8.09991C2.02102 8.45918 2.40752 8.9111 2.91132 9.36212C4.03366 10.3669 5.70139 11.3399 8 11.3399C10.2986 11.3399 11.9663 10.3669 13.0887 9.36212C13.5925 8.9111 13.979 8.45918 14.2505 8.09991C13.979 7.74063 13.5925 7.28871 13.0887 6.83769C11.9663 5.83293 10.2986 4.8599 8 4.8599C5.70139 4.8599 4.03366 5.83293 2.91132 6.83769C2.40752 7.28871 2.02102 7.74063 1.7495 8.09991Z" fill="#A3A3A3"/>
<path d="M10 8C10 9.10457 9.10457 10 8 10C6.89543 10 6 9.10457 6 8C6 6.89543 6.89543 6 8 6C9.10457 6 10 6.89543 10 8Z" fill="#A3A3A3"/>
</svg>
