<svg width="16" height="16" viewBox="0 0 16 16" fill="none" xmlns="http://www.w3.org/2000/svg">
<g clip-path="url(#clip0_2_16980)">
<path d="M8.00004 11.992L4.06404 14.6C3.98963 14.6478 3.90252 14.6721 3.81409 14.6697C3.72566 14.6673 3.64001 14.6383 3.56832 14.5865C3.49663 14.5346 3.44222 14.4624 3.4122 14.3792C3.38218 14.296 3.37794 14.2057 3.40004 14.12L4.66404 9.56L0.960038 6.632C0.89018 6.57659 0.838803 6.50127 0.812714 6.41601C0.786625 6.33075 0.787054 6.23957 0.813945 6.15456C0.840837 6.06955 0.892921 5.99472 0.963298 5.93997C1.03368 5.88522 1.11902 5.85315 1.20804 5.848L5.92804 5.648L7.58404 1.224C7.61687 1.14268 7.67325 1.07303 7.74595 1.02398C7.81865 0.974936 7.90434 0.94873 7.99204 0.94873C8.07973 0.94873 8.16543 0.974936 8.23813 1.02398C8.31082 1.07303 8.36721 1.14268 8.40004 1.224L10.056 5.648L14.776 5.848C14.8651 5.85315 14.9504 5.88522 15.0208 5.93997C15.0912 5.99472 15.1432 6.06955 15.1701 6.15456C15.197 6.23957 15.1975 6.33075 15.1714 6.41601C15.1453 6.50127 15.0939 6.57659 15.024 6.632L11.328 9.576L12.592 14.128C12.6141 14.2137 12.6099 14.304 12.5799 14.3872C12.5499 14.4704 12.4954 14.5426 12.4238 14.5945C12.3521 14.6463 12.2664 14.6753 12.178 14.6777C12.0896 14.6801 12.0024 14.6558 11.928 14.608L8.00004 11.992Z" fill="black"/>
</g>
<defs>
<clipPath id="clip0_2_16980">
<rect width="16" height="16" fill="white"/>
</clipPath>
</defs>
</svg>
