<svg width="36" height="36" viewBox="0 0 36 36" fill="none" xmlns="http://www.w3.org/2000/svg">
<g clip-path="url(#clip0_2_17094)">
<path d="M17.004 17.0039V9.9959C17.004 9.73015 17.1096 9.47529 17.2975 9.28738C17.4854 9.09946 17.7403 8.9939 18.006 8.9939C18.2717 8.9939 18.5266 9.09946 18.7145 9.28738C18.9024 9.47529 19.008 9.73015 19.008 9.9959V17.0039H26.004C26.2697 17.0039 26.5246 17.1095 26.7125 17.2974C26.9004 17.4853 27.006 17.7402 27.006 18.0059C27.006 18.2716 26.9004 18.5265 26.7125 18.7144C26.5246 18.9023 26.2697 19.0079 26.004 19.0079H18.996V26.0039C18.996 26.2696 18.8904 26.5245 18.7025 26.7124C18.5146 26.9003 18.2597 27.0059 17.994 27.0059C17.7283 27.0059 17.4734 26.9003 17.2855 26.7124C17.0976 26.5245 16.992 26.2696 16.992 26.0039V18.9959H10.008C9.8762 18.9975 9.74539 18.9729 9.62316 18.9236C9.50093 18.8742 9.38971 18.8011 9.29595 18.7085C9.20219 18.6158 9.12775 18.5055 9.07695 18.3838C9.02614 18.2622 8.99999 18.1317 9 17.9999C9 17.4479 9.444 17.0039 9.996 17.0039H17.004Z" fill="black"/>
</g>
<defs>
<clipPath id="clip0_2_17094">
<rect width="24" height="24" fill="white" transform="translate(6 6)"/>
</clipPath>
</defs>
</svg>
