<svg width="15" height="14" viewBox="0 0 15 14" fill="none" xmlns="http://www.w3.org/2000/svg">
<path fill-rule="evenodd" clip-rule="evenodd" d="M9.40605 3.65488C9.34019 3.59913 9.26398 3.55691 9.18178 3.53064C9.09959 3.50438 9.01301 3.49458 8.92703 3.50181C8.84104 3.50905 8.75732 3.53317 8.68067 3.5728C8.60401 3.61242 8.53592 3.66678 8.4803 3.73276L4.12893 8.87513L2.44543 7.19251C2.32102 7.07659 2.15648 7.01348 1.98647 7.01648C1.81646 7.01948 1.65424 7.08835 1.53401 7.20859C1.41377 7.32882 1.3449 7.49104 1.3419 7.66105C1.3389 7.83106 1.40201 7.9956 1.51793 8.12001L3.70543 10.3075C3.97668 10.5788 4.42293 10.5613 4.67055 10.2681L9.48305 4.58063C9.53886 4.51482 9.58114 4.43866 9.60748 4.35649C9.63381 4.27433 9.64369 4.18777 9.63654 4.10179C9.62938 4.0158 9.60534 3.93207 9.5658 3.85538C9.52625 3.7787 9.47196 3.71056 9.40605 3.65488ZM7.68668 8.05876L6.8353 9.06413L8.08043 10.3075C8.35168 10.5788 8.79793 10.5613 9.04555 10.2681L13.8581 4.58063C13.9706 4.44766 14.0257 4.27542 14.0113 4.10181C13.9968 3.9282 13.914 3.76743 13.7811 3.65488C13.6481 3.54233 13.4758 3.48721 13.3022 3.50165C13.1286 3.51609 12.9679 3.59891 12.8553 3.73188L8.50393 8.87513L7.68668 8.05788V8.05876Z" fill="#00AAFF"/>
</svg>
