<svg width="36" height="36" viewBox="0 0 36 36" fill="none" xmlns="http://www.w3.org/2000/svg">
<g clip-path="url(#clip0_2_17099)">
<path d="M14.2559 18.2999C14.2559 17.3069 14.6503 16.3546 15.3525 15.6525C16.0546 14.9504 17.0069 14.5559 17.9999 14.5559C18.9928 14.5559 19.9451 14.9504 20.6473 15.6525C21.3494 16.3546 21.7439 17.3069 21.7439 18.2999C21.7439 19.2929 21.3494 20.2452 20.6473 20.9473C19.9451 21.6495 18.9928 22.0439 17.9999 22.0439C17.0069 22.0439 16.0546 21.6495 15.3525 20.9473C14.6503 20.2452 14.2559 19.2929 14.2559 18.2999Z" fill="black"/>
<path fill-rule="evenodd" clip-rule="evenodd" d="M15.5522 8.04008C15.0477 8.03932 14.5495 8.15219 14.0945 8.37031C13.6396 8.58844 13.2396 8.90623 12.9242 9.30008L11.7962 10.7281C11.7168 10.8264 11.6162 10.9055 11.5019 10.9595C11.3876 11.0136 11.2626 11.0411 11.1362 11.0401H9.36023C8.53276 11.0401 7.73917 11.3688 7.15406 11.9539C6.56895 12.539 6.24023 13.3326 6.24023 14.1601V24.2401C6.24023 25.0676 6.56895 25.8611 7.15406 26.4463C7.73917 27.0314 8.53276 27.3601 9.36023 27.3601H26.6402C27.05 27.3601 27.4557 27.2794 27.8342 27.1226C28.2127 26.9658 28.5567 26.736 28.8464 26.4463C29.1361 26.1565 29.3659 25.8126 29.5227 25.4341C29.6795 25.0555 29.7602 24.6498 29.7602 24.2401V14.1601C29.7602 13.7504 29.6795 13.3446 29.5227 12.9661C29.3659 12.5876 29.1361 12.2436 28.8464 11.9539C28.5567 11.6642 28.2127 11.4344 27.8342 11.2776C27.4557 11.1208 27.05 11.0401 26.6402 11.0401H24.8642C24.7378 11.0411 24.6128 11.0136 24.4986 10.9595C24.3843 10.9055 24.2837 10.8264 24.2042 10.7281L23.0762 9.30008C22.7596 8.90464 22.3577 8.5859 21.9006 8.3677C21.4434 8.14951 20.9428 8.03751 20.4362 8.04008H15.5522ZM9.00023 15.0001C9.00023 14.4481 9.44423 14.0041 9.99623 14.0041H11.0042C11.2684 14.0041 11.5217 14.109 11.7085 14.2958C11.8953 14.4826 12.0002 14.7359 12.0002 15.0001C12.0002 15.2642 11.8953 15.5176 11.7085 15.7044C11.5217 15.8911 11.2684 15.9961 11.0042 15.9961H9.99623C9.73208 15.9961 9.47874 15.8911 9.29196 15.7044C9.10517 15.5176 9.00023 15.2642 9.00023 15.0001ZM18.0002 12.6361C16.498 12.6361 15.0574 13.2328 13.9952 14.295C12.933 15.3572 12.3362 16.7979 12.3362 18.3001C12.3362 19.8023 12.933 21.2429 13.9952 22.3051C15.0574 23.3673 16.498 23.9641 18.0002 23.9641C19.5024 23.9641 20.9431 23.3673 22.0053 22.3051C23.0675 21.2429 23.6642 19.8023 23.6642 18.3001C23.6642 16.7979 23.0675 15.3572 22.0053 14.295C20.9431 13.2328 19.5024 12.6361 18.0002 12.6361Z" fill="black"/>
</g>
<defs>
<clipPath id="clip0_2_17099">
<rect width="24" height="24" fill="white" transform="translate(6 6)"/>
</clipPath>
</defs>
</svg>
