<svg width="24" height="24" viewBox="0 0 24 24" fill="none" xmlns="http://www.w3.org/2000/svg">
<g clip-path="url(#clip0_2_16989)">
<path d="M20.004 12C19.8722 11.9984 19.7414 12.023 19.6192 12.0724C19.4969 12.1217 19.3857 12.1948 19.292 12.2875C19.1982 12.3801 19.1238 12.4905 19.0729 12.6121C19.0221 12.7337 18.996 12.8642 18.996 12.996V18.996H5.004V5.00403H11.004C11.2697 5.00403 11.5246 4.89846 11.7125 4.71055C11.9004 4.52264 12.006 4.26778 12.006 4.00203C12.006 3.73628 11.9004 3.48142 11.7125 3.29351C11.5246 3.1056 11.2697 3.00003 11.004 3.00003H5.004C3.9 3.00003 3 3.90003 3 5.00403V18.996C3 20.1 3.9 21 5.004 21H18.996C20.1 21 21 20.1 21 18.996V12.996C21 12.7319 20.8951 12.4785 20.7083 12.2917C20.5215 12.105 20.2682 12 20.004 12ZM15.756 3.00003C15.5579 2.99854 15.3639 3.05614 15.1987 3.16548C15.0336 3.27482 14.9047 3.43092 14.8287 3.61384C14.7527 3.79676 14.733 3.99819 14.7721 4.19238C14.8111 4.38658 14.9072 4.56471 15.048 4.70403L16.464 6.12003L11.304 11.292C11.1162 11.4782 11.0101 11.7314 11.009 11.9958C11.0079 12.2602 11.1118 12.5143 11.298 12.702C11.4842 12.8898 11.7373 12.9959 12.0018 12.997C12.2662 12.9982 12.5202 12.8942 12.708 12.708L17.868 7.53603L19.296 8.95203C19.436 9.09362 19.6153 9.18999 19.8106 9.2287C20.006 9.2674 20.2084 9.24666 20.3919 9.16915C20.5753 9.09164 20.7313 8.96093 20.8397 8.79388C20.9481 8.62683 21.0039 8.43113 21 8.23203V4.00803C21 3.74387 20.8951 3.49054 20.7083 3.30375C20.5215 3.11696 20.2682 3.01203 20.004 3.01203L15.756 3.00003Z" fill="black"/>
</g>
<defs>
<clipPath id="clip0_2_16989">
<rect width="24" height="24" fill="white"/>
</clipPath>
</defs>
</svg>
