<svg width="56" height="40" viewBox="0 0 56 40" fill="none" xmlns="http://www.w3.org/2000/svg">
<path d="M6.58789 0.823242H49.4121C52.5956 0.823428 55.1766 3.4044 55.1768 6.58789V32.9414C55.1766 36.1249 52.5956 38.7059 49.4121 38.7061H6.58789C3.40437 38.7059 0.823366 36.1249 0.823242 32.9414V6.58789C0.823427 3.4044 3.4044 0.823428 6.58789 0.823242Z" stroke="#E4E7EC" stroke-width="1.64706"/>
<path fill-rule="evenodd" clip-rule="evenodd" d="M18.0348 25.954H14.6423L12.0983 15.9632C11.9776 15.5036 11.7212 15.0973 11.344 14.9058C10.4029 14.4246 9.36576 14.0416 8.23438 13.8484V13.4638H13.6994C14.4537 13.4638 15.0194 14.0416 15.1137 14.7127L16.4336 21.9194L19.8245 13.4638H23.1227L18.0348 25.954ZM25.0081 25.954H21.8041L24.4424 13.4638H27.6463L25.0081 25.954ZM31.7915 16.924C31.8857 16.2513 32.4514 15.8667 33.1114 15.8667C34.1485 15.7701 35.2783 15.9632 36.2211 16.4428L36.7868 13.7536C35.844 13.3689 34.8069 13.1758 33.8657 13.1758C30.756 13.1758 28.4932 14.9059 28.4932 17.307C28.4932 19.1337 30.096 20.0928 31.2274 20.6706C32.4514 21.2467 32.9229 21.6314 32.8286 22.2075C32.8286 23.0717 31.8857 23.4564 30.9446 23.4564C29.8132 23.4564 28.6818 23.1683 27.6463 22.6871L27.0807 25.3779C28.212 25.8575 29.4361 26.0507 30.5674 26.0507C34.0542 26.1456 36.2211 24.4172 36.2211 21.8229C36.2211 18.5559 31.7915 18.3644 31.7915 16.924V16.924ZM47.4347 25.954L44.8907 13.4638H42.1582C41.5925 13.4638 41.0268 13.8484 40.8382 14.4246L36.1274 25.954H39.4256L40.084 24.129H44.1365L44.5136 25.954H47.4347ZM42.629 16.8275L43.5701 21.5348H40.9319L42.629 16.8275Z" fill="#172B85"/>
</svg>
