<svg width="56" height="40" viewBox="0 0 56 40" fill="none" xmlns="http://www.w3.org/2000/svg">
<path d="M6.58789 0.823242H49.4121C52.5956 0.823428 55.1766 3.4044 55.1768 6.58789V33.4121C55.1766 36.5956 52.5956 39.1766 49.4121 39.1768H6.58789C3.4044 39.1766 0.823428 36.5956 0.823242 33.4121V6.58789C0.823428 3.4044 3.4044 0.823428 6.58789 0.823242Z" fill="white"/>
<path d="M6.58789 0.823242H49.4121C52.5956 0.823428 55.1766 3.4044 55.1768 6.58789V33.4121C55.1766 36.5956 52.5956 39.1766 49.4121 39.1768H6.58789C3.4044 39.1766 0.823428 36.5956 0.823242 33.4121V6.58789C0.823428 3.4044 3.4044 0.823428 6.58789 0.823242Z" stroke="#E4E7EC" stroke-width="1.64706"/>
<g clip-path="url(#clip0_2_16705)">
<path d="M37.9784 12.0506C38.5878 12.849 39.1037 13.7164 39.5156 14.6354L27.8307 23.3649L22.9473 20.2625V16.5302L27.8307 19.6326L37.9784 12.0506Z" fill="#21A038"/>
<path d="M17.9635 19.9996C17.9635 19.8321 17.9676 19.6658 17.9756 19.5004L15.0161 19.3534C15.006 19.5678 15 19.7842 15 20.0027C14.9987 21.7094 15.33 23.3996 15.9748 24.9762C16.6195 26.5529 17.5651 27.9851 18.7573 29.1905L20.8565 27.064C19.9388 26.1378 19.2108 25.0368 18.7144 23.8244C18.2179 22.6121 17.9627 21.3122 17.9635 19.9996Z" fill="url(#paint0_linear_2_16705)"/>
<path d="M27.8282 10.0032C27.9934 10.0032 28.1576 10.0093 28.3207 10.0175L28.4688 7.01715C28.2567 7.00694 28.0431 7.00184 27.8282 7.00184C26.1433 6.99976 24.4747 7.33498 22.9181 7.98827C21.3614 8.64156 19.9474 9.60004 18.7573 10.8087L20.8566 12.9362C21.7706 12.0058 22.8571 11.2678 24.0535 10.7644C25.25 10.2611 26.5327 10.0024 27.8282 10.0032Z" fill="url(#paint1_linear_2_16705)"/>
<path d="M27.8282 29.9969C27.663 29.9969 27.4988 29.9969 27.3346 29.9836L27.1865 32.983C27.3994 32.9938 27.6133 32.9993 27.8282 32.9993C29.5123 33.0011 31.1802 32.6656 32.736 32.0122C34.2918 31.3587 35.7048 30.4001 36.8941 29.1915L34.7988 27.065C33.8847 27.9949 32.7983 28.7325 31.6021 29.2357C30.4059 29.7388 29.1233 29.9976 27.8282 29.9969Z" fill="url(#paint2_linear_2_16705)"/>
<path d="M33.3887 11.7471L35.8828 9.88398C33.6031 8.01319 30.7576 6.99481 27.8242 7.00002V10.0024C29.8105 9.99991 31.7508 10.6083 33.3887 11.7471Z" fill="url(#paint3_linear_2_16705)"/>
<path d="M40.6555 20.0001C40.6571 19.2191 40.5897 18.4394 40.454 17.6705L37.693 19.7326C37.693 19.8215 37.693 19.9103 37.693 20.0001C37.6937 21.3969 37.4048 22.7784 36.845 24.0548C36.2852 25.3312 35.4669 26.4742 34.4434 27.4096L36.4349 29.6402C37.7656 28.4227 38.8289 26.9354 39.556 25.2748C40.2832 23.614 40.6577 21.817 40.6555 20.0001Z" fill="#21A038"/>
<path d="M27.828 29.9972C26.4496 29.9977 25.0865 29.7048 23.8268 29.1375C22.5673 28.5702 21.4392 27.741 20.5159 26.7039L18.3159 28.7211C19.5171 30.0699 20.9846 31.1478 22.6233 31.8849C24.2619 32.6219 26.0352 33.0017 27.828 32.9995V29.9972Z" fill="url(#paint4_linear_2_16705)"/>
<path d="M21.2131 12.59L19.2227 10.3594C17.8916 11.5767 16.8278 13.0639 16.1004 14.7246C15.3729 16.3854 14.998 18.1825 15 19.9995H17.9635C17.9629 18.6027 18.2519 17.2213 18.8117 15.9449C19.3715 14.6685 20.1896 13.5255 21.2131 12.59Z" fill="url(#paint5_linear_2_16705)"/>
</g>
<defs>
<linearGradient id="paint0_linear_2_16705" x1="19.3566" y1="28.8159" x2="16.041" y2="19.3583" gradientUnits="userSpaceOnUse">
<stop offset="0.14" stop-color="#F1E813"/>
<stop offset="0.3" stop-color="#E6E418"/>
<stop offset="0.58" stop-color="#C9DA26"/>
<stop offset="0.89" stop-color="#A2CC39"/>
</linearGradient>
<linearGradient id="paint1_linear_2_16705" x1="19.6035" y1="11.3395" x2="27.971" y2="8.19312" gradientUnits="userSpaceOnUse">
<stop offset="0.06" stop-color="#0FA7DF"/>
<stop offset="0.54" stop-color="#0098F8"/>
<stop offset="0.92" stop-color="#0290EA"/>
</linearGradient>
<linearGradient id="paint2_linear_2_16705" x1="26.9911" y1="31.1872" x2="36.4337" y2="29.0824" gradientUnits="userSpaceOnUse">
<stop offset="0.12" stop-color="#A2CC39"/>
<stop offset="0.28" stop-color="#86C239"/>
<stop offset="0.87" stop-color="#219F38"/>
</linearGradient>
<linearGradient id="paint3_linear_2_16705" x1="27.2078" y1="8.00558" x2="35.2889" y2="10.4663" gradientUnits="userSpaceOnUse">
<stop offset="0.06" stop-color="#0290EA"/>
<stop offset="0.79" stop-color="#0C89CA"/>
</linearGradient>
<linearGradient id="paint4_linear_2_16705" x1="19.0593" y1="28.3556" x2="27.8635" y2="31.6024" gradientUnits="userSpaceOnUse">
<stop offset="0.13" stop-color="#F1E813"/>
<stop offset="0.3" stop-color="#EAE616"/>
<stop offset="0.53" stop-color="#D8DF1F"/>
<stop offset="0.8" stop-color="#BAD52D"/>
<stop offset="0.98" stop-color="#A2CC39"/>
</linearGradient>
<linearGradient id="paint5_linear_2_16705" x1="16.104" y1="20.3629" x2="19.7095" y2="11.1084" gradientUnits="userSpaceOnUse">
<stop offset="0.07" stop-color="#A2CC39"/>
<stop offset="0.26" stop-color="#81C45E"/>
<stop offset="0.92" stop-color="#0FA7DF"/>
</linearGradient>
<clipPath id="clip0_2_16705">
<rect width="26" height="26" fill="white" transform="translate(15 7)"/>
</clipPath>
</defs>
</svg>
