<svg width="56" height="40" viewBox="0 0 56 40" fill="none" xmlns="http://www.w3.org/2000/svg">
<path d="M6.58789 0.823242H49.4121C52.5956 0.823428 55.1766 3.4044 55.1768 6.58789V33.4121C55.1766 36.5956 52.5956 39.1766 49.4121 39.1768H6.58789C3.4044 39.1766 0.823428 36.5956 0.823242 33.4121V6.58789C0.823428 3.4044 3.4044 0.823428 6.58789 0.823242Z" fill="white"/>
<path d="M6.58789 0.823242H49.4121C52.5956 0.823428 55.1766 3.4044 55.1768 6.58789V33.4121C55.1766 36.5956 52.5956 39.1766 49.4121 39.1768H6.58789C3.4044 39.1766 0.823428 36.5956 0.823242 33.4121V6.58789C0.823428 3.4044 3.4044 0.823428 6.58789 0.823242Z" stroke="#E4E7EC" stroke-width="1.64706"/>
<ellipse cx="27.8931" cy="19.8917" rx="13.0694" ry="13.225" fill="#6481E7"/>
<path fill-rule="evenodd" clip-rule="evenodd" d="M22.1836 20.4298L28.0461 23.9367V10.5864L22.1836 20.4298Z" fill="white"/>
<path fill-rule="evenodd" clip-rule="evenodd" d="M28.0464 10.5864V23.9367L33.9089 20.4298L28.0464 10.5864Z" fill="#C1CCF5"/>
<path fill-rule="evenodd" clip-rule="evenodd" d="M28.0464 17.7335L22.1836 20.4296L28.0461 23.9366L33.9089 20.43L28.0464 17.7335Z" fill="#8299EC"/>
<path fill-rule="evenodd" clip-rule="evenodd" d="M28.0464 17.7335L22.1836 20.4296L28.0461 23.9366L28.0464 17.7335Z" fill="#C1CCF5"/>
<path fill-rule="evenodd" clip-rule="evenodd" d="M22.1836 21.5549L28.0461 29.9149V25.0599L22.1836 21.5549Z" fill="white"/>
<path fill-rule="evenodd" clip-rule="evenodd" d="M28.0464 25.0599V29.9153L33.9127 21.5549L28.0464 25.0599Z" fill="#C1CCF5"/>
</svg>
