<svg width="56" height="40" viewBox="0 0 56 40" fill="none" xmlns="http://www.w3.org/2000/svg">
<path d="M6.58789 0.823242H49.4121C52.5956 0.823428 55.1766 3.4044 55.1768 6.58789V32.9414C55.1766 36.1249 52.5956 38.7059 49.4121 38.7061H6.58789C3.40437 38.7059 0.823366 36.1249 0.823242 32.9414V6.58789C0.823427 3.4044 3.4044 0.823428 6.58789 0.823242Z" stroke="#E4E7EC" stroke-width="1.64706"/>
<path d="M35.5386 8.23529C41.7066 8.23529 46.7074 13.1759 46.7075 19.2704C46.7075 25.3651 41.7066 30.3056 35.5386 30.3056C32.7735 30.3055 30.2448 29.3107 28.2944 27.666C26.344 29.3106 23.8154 30.3056 21.0503 30.3056C14.8824 30.3055 9.88232 25.365 9.88232 19.2704C9.8824 13.176 14.8824 8.23541 21.0503 8.23529C23.8153 8.23529 26.344 9.23034 28.2944 10.8749C30.2448 9.23023 32.7735 8.23539 35.5386 8.23529Z" fill="#ED0006"/>
<path d="M35.5391 8.23529C41.707 8.23529 46.707 13.1759 46.707 19.2704C46.707 25.3651 41.7071 30.3056 35.5391 30.3056C32.7737 30.3056 30.2454 29.31 28.2949 27.665C30.6949 25.6409 32.2188 22.6326 32.2188 19.2704C32.2187 15.9081 30.6952 12.899 28.2949 10.8749C30.2453 9.23026 32.774 8.23531 35.5391 8.23529Z" fill="#F9A000"/>
<path d="M28.2949 10.8754C30.6951 12.8995 32.2188 15.9086 32.2188 19.2709C32.2186 22.6328 30.6947 25.6405 28.2949 27.6645C25.8952 25.6405 24.3712 22.6328 24.3711 19.2709C24.3711 15.9087 25.8948 12.8995 28.2949 10.8754Z" fill="#FF5E00"/>
</svg>
