<svg width="56" height="40" viewBox="0 0 56 40" fill="none" xmlns="http://www.w3.org/2000/svg">
<path d="M6.58789 0.823242H49.4121C52.5956 0.823428 55.1766 3.4044 55.1768 6.58789V33.4121C55.1766 36.5956 52.5956 39.1766 49.4121 39.1768H6.58789C3.4044 39.1766 0.823428 36.5956 0.823242 33.4121V6.58789C0.823428 3.4044 3.4044 0.823428 6.58789 0.823242Z" fill="white"/>
<path d="M6.58789 0.823242H49.4121C52.5956 0.823428 55.1766 3.4044 55.1768 6.58789V33.4121C55.1766 36.5956 52.5956 39.1766 49.4121 39.1768H6.58789C3.4044 39.1766 0.823428 36.5956 0.823242 33.4121V6.58789C0.823428 3.4044 3.4044 0.823428 6.58789 0.823242Z" stroke="#E4E7EC" stroke-width="1.64706"/>
<path d="M27.8931 6.66663C35.111 6.66663 40.9622 12.5874 40.9624 19.8912C40.9624 27.1952 35.1111 33.1168 27.8931 33.1168C20.6751 33.1168 14.8237 27.1952 14.8237 19.8912C14.8239 12.5875 20.6752 6.66667 27.8931 6.66663ZM27.0034 13.9645L24.0991 13.2389L23.7153 14.7897C23.7153 14.7897 24.768 15.0324 24.7622 15.0514C25.3452 15.1986 25.4512 15.5878 25.4331 15.8961L23.8169 22.4293C23.7455 22.607 23.564 22.8744 23.1567 22.7731C23.1656 22.7918 22.1349 22.517 22.1099 22.5104L21.394 24.1725L24.2944 24.9098L23.6987 27.3219L25.1362 27.6842L25.7271 25.2975C26.12 25.4041 26.5022 25.5039 26.8755 25.5973L26.2866 27.9723L27.7271 28.3346L28.3228 25.9274C30.7788 26.3953 32.6258 26.207 33.4028 23.9684C33.812 22.4124 33.3717 21.1249 32.0796 20.4469C33.0214 20.2286 33.7299 19.6051 33.9194 18.316C34.1802 16.5557 32.8507 15.6099 31.0327 14.9781L31.6226 12.5924L30.1831 12.2301L29.6089 14.5533C29.2308 14.4583 28.8417 14.3684 28.4546 14.2799L29.0327 11.942L27.5942 11.5797L27.0034 13.9645ZM26.9878 20.3561C27.9646 20.6017 31.0941 21.0877 30.6294 22.9674C30.1837 24.7694 27.1732 23.7952 26.1968 23.5504L26.9878 20.3561ZM28.0659 15.9948C28.8791 16.1998 31.4967 16.5811 31.0747 18.2906C30.6683 19.9287 28.1624 19.0977 27.3491 18.8942L28.0659 15.9948Z" fill="#F7931A"/>
</svg>
