<svg width="56" height="40" viewBox="0 0 56 40" fill="none" xmlns="http://www.w3.org/2000/svg">
<path d="M6.58789 0.823242H49.4121C52.5956 0.823428 55.1766 3.4044 55.1768 6.58789V33.4121C55.1766 36.5956 52.5956 39.1766 49.4121 39.1768H6.58789C3.4044 39.1766 0.823428 36.5956 0.823242 33.4121V6.58789C0.823428 3.4044 3.4044 0.823428 6.58789 0.823242Z" fill="white"/>
<path d="M6.58789 0.823242H49.4121C52.5956 0.823428 55.1766 3.4044 55.1768 6.58789V33.4121C55.1766 36.5956 52.5956 39.1766 49.4121 39.1768H6.58789C3.4044 39.1766 0.823428 36.5956 0.823242 33.4121V6.58789C0.823428 3.4044 3.4044 0.823428 6.58789 0.823242Z" stroke="#E4E7EC" stroke-width="1.64706"/>
<path d="M27.3076 7.5C33.563 7.5 38.6152 12.7633 38.6152 19.2793C38.6152 21.472 38.0141 23.5397 37.0518 25.2939C36.9917 25.3564 36.9318 25.3563 36.9316 25.2314C36.5106 22.3494 34.8258 20.7825 32.4199 20.2812C32.1797 20.2186 32.1799 20.0938 32.4805 20.0938C33.2624 20.0311 34.2852 20.0309 34.8867 20.1562C34.9468 19.8431 34.9463 19.5298 34.9463 19.2793C34.9463 15.0189 31.5783 11.5098 27.4883 11.5098C23.3982 11.5098 20.0303 15.0188 20.0303 19.2793C20.0305 23.5396 23.3984 27.0479 27.4883 27.0479H27.8486C27.7284 26.3588 27.6684 25.6696 27.7285 24.918C27.7285 24.4169 27.8489 24.3539 28.0293 24.7295C29.0518 26.609 30.5555 28.2385 33.4424 28.9277C35.7881 29.4916 38.1344 30.1179 40.7207 33.4385C40.9613 33.7517 40.6 34.0651 40.3594 33.8145C37.7733 31.4339 35.4278 30.6192 33.2627 30.6191C30.5561 30.6818 28.9316 30.9951 27.3076 30.9951C21.0525 30.995 16.0002 25.7324 16 19.2793C16 12.826 21.0523 7.50007 27.3076 7.5ZM33.0215 26.0459C33.2621 26.0459 33.5635 26.1713 33.8643 26.4219C34.3451 26.8603 34.5256 27.3615 34.2852 27.7373C34.1649 27.9253 33.8636 28.0508 33.623 28.0508C33.3224 28.0507 33.0212 27.9252 32.8408 27.7373C32.3598 27.2988 32.2394 26.6718 32.54 26.2959C32.6002 26.1706 32.781 26.046 33.0215 26.0459ZM34.9463 24.2285C35.1266 24.1033 35.307 24.041 35.4873 24.1035C35.9083 24.2915 36.0889 24.9182 36.0889 25.2314C36.1489 25.7324 36.029 25.9824 35.8486 25.9824C35.6682 25.9824 35.4271 25.795 35.1865 25.3564C34.946 24.9179 34.826 24.4791 34.9463 24.2285Z" fill="#F28A1A"/>
</svg>
