<svg width="56" height="40" viewBox="0 0 56 40" fill="none" xmlns="http://www.w3.org/2000/svg">
<path d="M6.58789 0.823242H49.4121C52.5956 0.823428 55.1766 3.4044 55.1768 6.58789V33.4121C55.1766 36.5956 52.5956 39.1766 49.4121 39.1768H6.58789C3.4044 39.1766 0.823428 36.5956 0.823242 33.4121V6.58789C0.823428 3.4044 3.4044 0.823428 6.58789 0.823242Z" fill="white"/>
<path d="M6.58789 0.823242H49.4121C52.5956 0.823428 55.1766 3.4044 55.1768 6.58789V33.4121C55.1766 36.5956 52.5956 39.1766 49.4121 39.1768H6.58789C3.4044 39.1766 0.823428 36.5956 0.823242 33.4121V6.58789C0.823428 3.4044 3.4044 0.823428 6.58789 0.823242Z" stroke="#E4E7EC" stroke-width="1.64706"/>
<path d="M20.8003 8.33331C26.83 8.33331 31.718 13.3368 31.7183 19.5091C31.7183 25.6816 26.8302 30.6859 20.8003 30.6859C14.7705 30.6858 9.88232 25.6816 9.88232 19.5091C9.88258 13.3369 14.7706 8.33335 20.8003 8.33331Z" fill="#ED0006"/>
<path d="M34.9644 8.33331C40.9941 8.33331 45.8821 13.3368 45.8823 19.5091C45.8823 25.6816 40.9942 30.6859 34.9644 30.6859C28.9345 30.6858 24.0464 25.6816 24.0464 19.5091C24.0466 13.3369 28.9347 8.33335 34.9644 8.33331Z" fill="#0099DF"/>
<path d="M27.8823 11.0062C30.229 13.0561 31.7183 16.1046 31.7183 19.5101C31.7181 22.9151 30.2286 25.9622 27.8823 28.012C25.5361 25.9622 24.0465 22.9151 24.0464 19.5101C24.0464 16.1046 25.5357 13.0561 27.8823 11.0062Z" fill="#6C6BBD"/>
</svg>
