<svg width="56" height="40" viewBox="0 0 56 40" fill="none" xmlns="http://www.w3.org/2000/svg">
<path d="M6.58789 0.823242H49.4121C52.5956 0.823428 55.1766 3.4044 55.1768 6.58789V33.4121C55.1766 36.5956 52.5956 39.1766 49.4121 39.1768H6.58789C3.4044 39.1766 0.823428 36.5956 0.823242 33.4121V6.58789C0.823428 3.4044 3.4044 0.823428 6.58789 0.823242Z" fill="white"/>
<path d="M6.58789 0.823242H49.4121C52.5956 0.823428 55.1766 3.4044 55.1768 6.58789V33.4121C55.1766 36.5956 52.5956 39.1766 49.4121 39.1768H6.58789C3.4044 39.1766 0.823428 36.5956 0.823242 33.4121V6.58789C0.823428 3.4044 3.4044 0.823428 6.58789 0.823242Z" stroke="#E4E7EC" stroke-width="1.64706"/>
<path fill-rule="evenodd" clip-rule="evenodd" d="M18.376 8.45616L13.1976 19.463C13.1779 19.504 13.1716 19.5502 13.1797 19.595C13.1879 19.6398 13.2099 19.6808 13.2427 19.712L27.2286 33.2733C27.2683 33.3119 27.3212 33.3334 27.3762 33.3334C27.4313 33.3334 27.4842 33.3119 27.5239 33.2733L41.5097 19.7128C41.5425 19.6816 41.5646 19.6407 41.5727 19.5959C41.5809 19.5511 41.5746 19.5048 41.5549 19.4639L36.3764 8.45701C36.3597 8.42004 36.3329 8.38873 36.299 8.3668C36.2652 8.34488 36.2258 8.33328 36.1857 8.33339H18.5685C18.5281 8.33288 18.4885 8.3442 18.4543 8.36599C18.4202 8.38777 18.393 8.41909 18.376 8.45616Z" fill="#50AF95"/>
<path fill-rule="evenodd" clip-rule="evenodd" d="M29.1741 20.5939C29.0737 20.6015 28.5549 20.6328 27.3977 20.6328C26.4773 20.6328 25.8238 20.6049 25.5946 20.5939C22.0377 20.4356 19.3828 19.809 19.3828 19.0588C19.3828 18.3087 22.0377 17.683 25.5946 17.5221V19.9699C25.8272 19.9868 26.4932 20.0266 27.4136 20.0266C28.5181 20.0266 29.0712 19.98 29.1707 19.9707V17.5238C32.7201 17.6838 35.3692 18.3104 35.3692 19.0588C35.3692 19.8073 32.721 20.4339 29.1707 20.593L29.1741 20.5939ZM29.1741 17.2706V15.0803H34.1275V11.7401H20.6412V15.0803H25.5937V17.2698C21.5683 17.4569 18.541 18.2638 18.541 19.2307C18.541 20.1976 21.5683 21.0037 25.5937 21.1916V28.2106H29.1732V21.1891C33.1895 21.002 36.2118 20.1959 36.2118 19.2299C36.2118 18.2638 33.192 17.4578 29.1732 17.2698L29.1741 17.2706Z" fill="white"/>
</svg>
