<svg width="56" height="40" viewBox="0 0 56 40" fill="none" xmlns="http://www.w3.org/2000/svg">
<path d="M6.58789 0.823242H49.4121C52.5956 0.823428 55.1766 3.4044 55.1768 6.58789V33.4121C55.1766 36.5956 52.5956 39.1766 49.4121 39.1768H6.58789C3.4044 39.1766 0.823428 36.5956 0.823242 33.4121V6.58789C0.823428 3.4044 3.4044 0.823428 6.58789 0.823242Z" fill="white"/>
<path d="M6.58789 0.823242H49.4121C52.5956 0.823428 55.1766 3.4044 55.1768 6.58789V33.4121C55.1766 36.5956 52.5956 39.1766 49.4121 39.1768H6.58789C3.4044 39.1766 0.823428 36.5956 0.823242 33.4121V6.58789C0.823428 3.4044 3.4044 0.823428 6.58789 0.823242Z" stroke="#E4E7EC" stroke-width="1.64706"/>
<g clip-path="url(#clip0_2_16701)">
<path d="M19.7011 15.0028V15.0073C19.6966 15.0073 18.2945 15.0028 17.9205 16.3427C17.5778 17.5713 16.6118 20.9618 16.5851 21.0552H16.318C16.318 21.0552 15.3298 17.5891 14.9826 16.3382C14.6087 14.9984 13.202 15.0028 13.202 15.0028H10V25.1936H13.2035V19.1411H13.4706L15.3402 25.1935H17.5644L19.434 19.1455H19.7011V25.1935H22.9046V15.0028H19.7011ZM31.4038 15.0028C31.4038 15.0028 30.4646 15.0874 30.0239 16.0712L27.7552 21.0552H27.4881V15.0028H24.2846V25.1936H27.31C27.31 25.1936 28.2938 25.1045 28.7345 24.1252L30.9587 19.1411H31.2258V25.1936H34.4294V15.0028H31.4038ZM35.8538 19.6308V25.1936H39.0573V21.9455H42.5279C44.0414 21.9455 45.3219 20.9796 45.7982 19.6323H35.8538V19.6308Z" fill="#4DB45E"/>
<path d="M42.5295 15.0022H35.4043C35.7604 16.943 37.216 18.4995 39.0974 19.007C39.5342 19.1253 39.9848 19.1852 40.4373 19.1851H45.9289C45.9778 18.9536 46.0001 18.7177 46.0001 18.4729C46.0001 16.5557 44.4466 15.0022 42.5295 15.0022Z" fill="url(#paint0_linear_2_16701)"/>
</g>
<defs>
<linearGradient id="paint0_linear_2_16701" x1="35.4043" y1="17.0936" x2="46.0001" y2="17.0936" gradientUnits="userSpaceOnUse">
<stop offset="0.3" stop-color="#00B4E6"/>
<stop offset="1" stop-color="#088CCB"/>
</linearGradient>
<clipPath id="clip0_2_16701">
<rect width="36" height="10.1952" fill="white" transform="translate(10 15)"/>
</clipPath>
</defs>
</svg>
