<svg width="56" height="40" viewBox="0 0 56 40" fill="none" xmlns="http://www.w3.org/2000/svg">
<path d="M6.58789 0.823242H49.4121C52.5956 0.823428 55.1766 3.4044 55.1768 6.58789V33.4121C55.1766 36.5956 52.5956 39.1766 49.4121 39.1768H6.58789C3.4044 39.1766 0.823428 36.5956 0.823242 33.4121V6.58789C0.823428 3.4044 3.4044 0.823428 6.58789 0.823242Z" fill="white"/>
<path d="M6.58789 0.823242H49.4121C52.5956 0.823428 55.1766 3.4044 55.1768 6.58789V33.4121C55.1766 36.5956 52.5956 39.1766 49.4121 39.1768H6.58789C3.4044 39.1766 0.823428 36.5956 0.823242 33.4121V6.58789C0.823428 3.4044 3.4044 0.823428 6.58789 0.823242Z" stroke="#E4E7EC" stroke-width="1.64706"/>
<path d="M17.6001 12.6594L20.7487 18.2873V21.7201L17.6038 27.337L17.6001 12.6594Z" fill="#5B57A2"/>
<path d="M29.6895 16.2394L32.6398 14.4311L38.6779 14.4255L29.6895 19.9318V16.2394Z" fill="#D90751"/>
<path d="M29.6725 12.6262L29.6892 20.0773L26.5332 18.1382V7L29.6727 12.6262H29.6725Z" fill="#FAB718"/>
<path d="M38.6776 14.4254L32.6393 14.431L29.6725 12.6262L26.5332 7L38.6774 14.4254H38.6776Z" fill="#ED6F26"/>
<path d="M29.6892 27.3682V23.7531L26.5332 21.8508L26.5349 33L29.6892 27.3682Z" fill="#63B22F"/>
<path d="M32.6324 25.5764L20.7485 18.2873L17.6001 12.6594L38.6651 25.569L32.6322 25.5764H32.6324Z" fill="#1487C9"/>
<path d="M26.5352 33L29.689 27.3682L32.6319 25.5763L38.6646 25.569L26.5352 33Z" fill="#017F36"/>
<path d="M17.6035 27.3369L26.559 21.8509L23.5482 20.0036L20.7484 21.72L17.6035 27.3369Z" fill="#984995"/>
</svg>
