<svg width="36" height="36" viewBox="0 0 36 36" fill="none" xmlns="http://www.w3.org/2000/svg">
<path d="M18 14C19.6569 14 21 12.6569 21 11C21 9.34315 19.6569 8 18 8C16.3431 8 15 9.34315 15 11C15 12.6569 16.3431 14 18 14Z" fill="black" stroke="black" stroke-width="2" stroke-linecap="round" stroke-linejoin="round"/>
<path d="M18 21C19.6569 21 21 19.6569 21 18C21 16.3431 19.6569 15 18 15C16.3431 15 15 16.3431 15 18C15 19.6569 16.3431 21 18 21Z" fill="black" stroke="black" stroke-width="2" stroke-linecap="round" stroke-linejoin="round"/>
<path d="M15 11H21V18H15V11Z" fill="black" stroke="black" stroke-width="2" stroke-linecap="round" stroke-linejoin="round"/>
<path d="M18 25V28M18 25C18.9193 25 19.8295 24.8189 20.6788 24.4672C21.5281 24.1154 22.2997 23.5998 22.9497 22.9497C23.5998 22.2997 24.1154 21.5281 24.4672 20.6788C24.8189 19.8295 25 18.9193 25 18M18 25C17.0807 25 16.1705 24.8189 15.3212 24.4672C14.4719 24.1154 13.7003 23.5998 13.0503 22.9497C12.4002 22.2997 11.8846 21.5281 11.5328 20.6788C11.1811 19.8295 11 18.9193 11 18" stroke="black" stroke-width="2" stroke-linecap="round" stroke-linejoin="round"/>
</svg>
