<svg width="37" height="15" viewBox="0 0 37 15" fill="none" xmlns="http://www.w3.org/2000/svg">
<rect width="37" height="15" rx="7.5" fill="#FF7C30"/>
<path d="M7.53027 11V3H8.69824V5.97266H8.76855C8.83626 5.84766 8.93392 5.70312 9.06152 5.53906C9.18913 5.375 9.36621 5.23177 9.59277 5.10937C9.81934 4.98438 10.1188 4.92188 10.4912 4.92188C10.9756 4.92188 11.4079 5.04427 11.7881 5.28906C12.1683 5.53385 12.4665 5.88672 12.6826 6.34766C12.9014 6.80859 13.0107 7.36328 13.0107 8.01172C13.0107 8.66016 12.9027 9.21615 12.6865 9.67969C12.4704 10.1406 12.1735 10.4961 11.7959 10.7461C11.4183 10.9935 10.9873 11.1172 10.5029 11.1172C10.1383 11.1172 9.84017 11.056 9.6084 10.9336C9.37923 10.8112 9.19954 10.668 9.06934 10.5039C8.93913 10.3398 8.83887 10.194 8.76855 10.0664H8.6709V11H7.53027ZM8.6748 8C8.6748 8.42187 8.736 8.79167 8.8584 9.10938C8.98079 9.42708 9.15788 9.67578 9.38965 9.85547C9.62142 10.0326 9.90527 10.1211 10.2412 10.1211C10.5902 10.1211 10.8818 10.0286 11.1162 9.84375C11.3506 9.65625 11.5277 9.40234 11.6475 9.08203C11.7699 8.76172 11.8311 8.40104 11.8311 8C11.8311 7.60417 11.7712 7.2487 11.6514 6.93359C11.5342 6.61849 11.3571 6.36979 11.1201 6.1875C10.8857 6.00521 10.5928 5.91406 10.2412 5.91406C9.90267 5.91406 9.61621 6.0013 9.38184 6.17578C9.15007 6.35026 8.97428 6.59375 8.85449 6.90625C8.7347 7.21875 8.6748 7.58333 8.6748 8ZM16.9082 11.1211C16.3171 11.1211 15.8079 10.9948 15.3809 10.7422C14.9564 10.487 14.6283 10.1289 14.3965 9.66797C14.1673 9.20443 14.0527 8.66146 14.0527 8.03906C14.0527 7.42448 14.1673 6.88281 14.3965 6.41406C14.6283 5.94531 14.9512 5.57943 15.3652 5.31641C15.7819 5.05339 16.2689 4.92188 16.8262 4.92188C17.1647 4.92188 17.4928 4.97786 17.8105 5.08984C18.1283 5.20182 18.4134 5.3776 18.666 5.61719C18.9186 5.85677 19.1178 6.16797 19.2637 6.55078C19.4095 6.93099 19.4824 7.39323 19.4824 7.9375V8.35156H14.7129V7.47656H18.3379C18.3379 7.16927 18.2754 6.89714 18.1504 6.66016C18.0254 6.42057 17.8496 6.23177 17.623 6.09375C17.3991 5.95573 17.1361 5.88672 16.834 5.88672C16.5059 5.88672 16.2194 5.96745 15.9746 6.12891C15.7324 6.28776 15.5449 6.49609 15.4121 6.75391C15.2819 7.00911 15.2168 7.28646 15.2168 7.58594V8.26953C15.2168 8.67057 15.2871 9.01172 15.4277 9.29297C15.571 9.57422 15.7702 9.78906 16.0254 9.9375C16.2806 10.0833 16.5788 10.1562 16.9199 10.1562C17.1413 10.1562 17.3431 10.125 17.5254 10.0625C17.7077 9.9974 17.8652 9.90104 17.998 9.77344C18.1309 9.64583 18.2324 9.48828 18.3027 9.30078L19.4082 9.5C19.3197 9.82552 19.1608 10.1107 18.9316 10.3555C18.7051 10.5977 18.4199 10.7865 18.0762 10.9219C17.735 11.0547 17.3457 11.1211 16.9082 11.1211ZM23.5791 5V5.9375H20.3018V5H23.5791ZM21.1807 3.5625H22.3486V9.23828C22.3486 9.46484 22.3825 9.63542 22.4502 9.75C22.5179 9.86198 22.6051 9.9388 22.7119 9.98047C22.8213 10.0195 22.9398 10.0391 23.0674 10.0391C23.1611 10.0391 23.2432 10.0326 23.3135 10.0195C23.3838 10.0065 23.4385 9.99609 23.4775 9.98828L23.6885 10.9531C23.6208 10.9792 23.5244 11.0052 23.3994 11.0313C23.2744 11.0599 23.1182 11.0755 22.9307 11.0781C22.6234 11.0833 22.3369 11.0286 22.0713 10.9141C21.8057 10.7995 21.5908 10.6224 21.4268 10.3828C21.2627 10.1432 21.1807 9.84245 21.1807 9.48047V3.5625ZM26.6172 11.1328C26.237 11.1328 25.8932 11.0625 25.5859 10.9219C25.2786 10.7786 25.0352 10.5716 24.8555 10.3008C24.6784 10.0299 24.5898 9.69792 24.5898 9.30469C24.5898 8.96615 24.6549 8.6875 24.7852 8.46875C24.9154 8.25 25.0911 8.07682 25.3125 7.94922C25.5339 7.82161 25.7813 7.72526 26.0547 7.66016C26.3281 7.59505 26.6068 7.54557 26.8906 7.51172C27.25 7.47005 27.5417 7.4362 27.7656 7.41016C27.9896 7.38151 28.1523 7.33594 28.2539 7.27344C28.3555 7.21094 28.4063 7.10937 28.4063 6.96875V6.94141C28.4063 6.60026 28.3099 6.33594 28.1172 6.14844C27.9271 5.96094 27.6432 5.86719 27.2656 5.86719C26.8724 5.86719 26.5625 5.95443 26.3359 6.12891C26.112 6.30078 25.957 6.49219 25.8711 6.70312L24.7734 6.45312C24.9036 6.08854 25.0938 5.79427 25.3438 5.57031C25.5964 5.34375 25.8867 5.17969 26.2148 5.07812C26.543 4.97396 26.888 4.92188 27.25 4.92188C27.4896 4.92188 27.7435 4.95052 28.0117 5.00781C28.2826 5.0625 28.5352 5.16406 28.7695 5.3125C29.0065 5.46094 29.2005 5.67318 29.3516 5.94922C29.5026 6.22266 29.5781 6.57813 29.5781 7.01563V11H28.4375V10.1797H28.3906C28.3151 10.3307 28.2018 10.4792 28.0508 10.625C27.8997 10.7708 27.7057 10.8919 27.4687 10.9883C27.2318 11.0846 26.9479 11.1328 26.6172 11.1328ZM26.8711 10.1953C27.194 10.1953 27.4701 10.1315 27.6992 10.0039C27.931 9.8763 28.1068 9.70964 28.2266 9.50391C28.349 9.29557 28.4102 9.07292 28.4102 8.83594V8.0625C28.3685 8.10417 28.2878 8.14323 28.168 8.17969C28.0508 8.21354 27.9167 8.24349 27.7656 8.26953C27.6146 8.29297 27.4674 8.3151 27.3242 8.33594C27.181 8.35417 27.0612 8.36979 26.9648 8.38281C26.7383 8.41146 26.5313 8.45964 26.3438 8.52734C26.1589 8.59505 26.0104 8.69271 25.8984 8.82031C25.7891 8.94531 25.7344 9.11198 25.7344 9.32031C25.7344 9.60937 25.8411 9.82812 26.0547 9.97656C26.2682 10.1224 26.5404 10.1953 26.8711 10.1953Z" fill="white"/>
</svg>
