<svg width="77" height="23" viewBox="0 0 77 23" fill="none" xmlns="http://www.w3.org/2000/svg">
<path d="M8.55459 8.99531V11.5439H5.40502V21.1372H2.35146V11.5439H0.5V8.99531H2.35146V7.91333C2.35146 6.98366 2.54381 6.19023 2.9285 5.53305C3.3292 4.85983 3.84992 4.3469 4.49129 3.99427C5.13234 3.64161 5.83772 3.4653 6.60711 3.4653C7.11983 3.4653 7.56885 3.5214 7.95354 3.63361C8.33824 3.74582 8.67493 3.8981 8.96329 4.09045V6.63903C8.43426 6.31848 7.82521 6.1662 7.13615 6.1822C6.65512 6.19823 6.24642 6.35854 5.90974 6.6631C5.57305 6.95159 5.40502 7.43249 5.40502 8.10568V8.99531H8.55459ZM12.6428 2.67188C13.2199 2.67188 13.7169 2.88026 14.1336 3.29699C14.5503 3.69772 14.7586 4.17859 14.7586 4.73963C14.7586 5.2846 14.5503 5.76547 14.1336 6.1822C13.7169 6.59896 13.2199 6.80735 12.6428 6.80735C12.0658 6.80735 11.5691 6.59896 11.1524 6.1822C10.7514 5.76547 10.551 5.2846 10.551 4.73963C10.551 4.17859 10.7514 3.69772 11.1524 3.29699C11.5691 2.88026 12.0658 2.67188 12.6428 2.67188ZM14.4223 8.99531V21.1372H11.3687V11.592H9.42124V8.99531H14.4223ZM34.1627 8.99531L29.955 21.1372H27.7432L24.906 13.275L22.0688 21.1372H19.8329L15.6493 8.99531H18.9672L21.2034 16.1843L23.8242 8.99531H26.0121L28.6086 16.1843L30.8448 8.99531H34.1627ZM40.7034 8.68272C41.8898 8.68272 42.9716 8.97127 43.9493 9.54831C44.9271 10.1093 45.7125 10.8787 46.3058 11.8565C46.9149 12.8182 47.2192 13.9002 47.2192 15.1023C47.2192 16.3045 46.9149 17.3865 46.3058 18.3482C45.7125 19.3099 44.9271 20.0793 43.9493 20.6564C42.9716 21.2174 41.8898 21.4979 40.7034 21.4979C39.5333 21.4979 38.4516 21.2174 37.4578 20.6564C36.4798 20.0793 35.6944 19.3099 35.1013 18.3482C34.5083 17.3865 34.2119 16.3045 34.2119 15.1023C34.2119 13.9002 34.5083 12.8182 35.1013 11.8565C35.6944 10.8787 36.4798 10.1093 37.4578 9.54831C38.4516 8.97127 39.5333 8.68272 40.7034 8.68272ZM40.7034 11.6401C40.1264 11.6401 39.5896 11.7763 39.0926 12.0488C38.5956 12.3213 38.1949 12.714 37.8905 13.2269C37.6019 13.7399 37.4578 14.365 37.4578 15.1023C37.4578 15.8397 37.6019 16.4648 37.8905 16.9777C38.1949 17.4906 38.5956 17.8834 39.0926 18.1558C39.5896 18.4123 40.1264 18.5405 40.7034 18.5405C41.2805 18.5405 41.8175 18.4123 42.3145 18.1558C42.8112 17.8834 43.2119 17.4906 43.5166 16.9777C43.8213 16.4648 43.9733 15.8397 43.9733 15.1023C43.9733 14.365 43.8213 13.7399 43.5166 13.2269C43.2119 12.714 42.8112 12.3213 42.3145 12.0488C41.8175 11.7763 41.2805 11.6401 40.7034 11.6401ZM56.7655 12.4095C56.2525 12.1209 55.7158 11.9767 55.1547 11.9767C54.4493 11.9767 53.8643 12.2091 53.3996 12.6739C52.9346 13.1227 52.5259 13.6838 52.1732 14.357V21.1372H49.1196V8.99531H52.1732V11.2794C52.5899 10.5581 53.0789 9.95704 53.6399 9.47617C54.217 8.99531 54.866 8.75486 55.5874 8.75486C56.0201 8.75486 56.4128 8.82699 56.7655 8.97127V12.4095ZM61.1904 3.82596V14.4051L66.1435 8.99531H69.9664L64.725 14.2608L70.2308 21.1372H66.3838L62.7052 16.3045L61.1904 17.8193V21.1372H58.1369V3.82596H61.1904Z" fill="#7A7D85"/>
<path d="M74.577 17.723C75.1061 17.723 75.5548 17.9154 75.9235 18.3001C76.3082 18.6688 76.5005 19.1176 76.5005 19.6465C76.5005 20.1755 76.3082 20.6323 75.9235 21.017C75.5548 21.3857 75.1061 21.57 74.577 21.57C74.048 21.57 73.5913 21.3857 73.2066 21.017C72.8379 20.6323 72.6536 20.1755 72.6536 19.6465C72.6536 19.1176 72.8379 18.6688 73.2066 18.3001C73.5913 17.9154 74.048 17.723 74.577 17.723Z" fill="#7A7D85"/>
</svg>
