<svg width="132" height="42" viewBox="0 0 132 42" fill="none" xmlns="http://www.w3.org/2000/svg">
<rect x="0.5" y="0.5" width="131" height="41" rx="13.5" fill="white"/>
<rect x="0.5" y="0.5" width="131" height="41" rx="13.5" stroke="#E7E9F3"/>
<g clip-path="url(#clip0_1_914)">
<g clip-path="url(#clip1_1_914)">
<g clip-path="url(#clip2_1_914)">
<path d="M30.1266 20.1425C30.1155 18.403 30.9728 17.0916 32.7026 16.1249C31.7353 14.8489 30.2712 14.1474 28.3411 14.0125C26.5138 13.8797 24.515 14.9916 23.7827 14.9916C23.0091 14.9916 21.2403 14.0583 19.8483 14.0583C16.9755 14.0989 13.923 16.1656 13.923 20.3702C13.923 21.6124 14.1697 22.8962 14.6631 24.2175C15.3234 25.9571 17.7022 30.2206 20.1838 30.1513C21.4815 30.1237 22.3996 29.3044 24.0881 29.3044C25.7268 29.3044 26.5751 30.1519 28.0225 30.1519C30.5263 30.1184 32.6774 26.243 33.3042 24.4983C29.9464 23.041 30.1266 20.2322 30.1266 20.1425ZM27.2132 12.3615C28.6186 10.8261 28.4913 9.42764 28.4494 8.92505C27.207 8.99171 25.7708 9.70316 24.9531 10.5787C24.0517 11.5172 23.522 12.6781 23.6359 13.987C24.9778 14.0812 26.204 13.4453 27.2132 12.3615Z" fill="#1C1C1C"/>
</g>
</g>
</g>
<g clip-path="url(#clip3_1_914)">
<g clip-path="url(#clip4_1_914)">
<g clip-path="url(#clip5_1_914)">
<path d="M45.375 16.9248V14.6873H45.7875C45.9292 14.5582 46.0625 14.3759 46.1875 14.1405C46.3146 13.903 46.4219 13.5863 46.5094 13.1905C46.599 12.7926 46.6583 12.2873 46.6875 11.6748L46.825 8.97485H50.625V14.6873H51.3625V16.9123H50.625V15.3748H46.1125V16.9248H45.375ZM46.7125 14.6873H49.8875V9.66235H47.525L47.425 11.6748C47.4 12.1415 47.3562 12.5644 47.2937 12.9436C47.2312 13.3207 47.151 13.6551 47.0531 13.9467C46.9552 14.2363 46.8417 14.4832 46.7125 14.6873Z" fill="#1C1C1C"/>
<path d="M54.3836 15.475C53.9503 15.475 53.5701 15.3718 53.243 15.1656C52.918 14.9593 52.6638 14.6708 52.4805 14.3C52.2992 13.9291 52.2086 13.4958 52.2086 13C52.2086 12.5 52.2992 12.0635 52.4805 11.6906C52.6638 11.3177 52.918 11.0281 53.243 10.8218C53.5701 10.6156 53.9503 10.5125 54.3836 10.5125C54.817 10.5125 55.1961 10.6156 55.5211 10.8218C55.8482 11.0281 56.1023 11.3177 56.2836 11.6906C56.4669 12.0635 56.5586 12.5 56.5586 13C56.5586 13.4958 56.4669 13.9291 56.2836 14.3C56.1023 14.6708 55.8482 14.9593 55.5211 15.1656C55.1961 15.3718 54.817 15.475 54.3836 15.475ZM54.3836 14.8125C54.7128 14.8125 54.9836 14.7281 55.1961 14.5593C55.4086 14.3906 55.5659 14.1687 55.668 13.8937C55.7701 13.6187 55.8211 13.3208 55.8211 13C55.8211 12.6791 55.7701 12.3802 55.668 12.1031C55.5659 11.826 55.4086 11.602 55.1961 11.4312C54.9836 11.2604 54.7128 11.175 54.3836 11.175C54.0545 11.175 53.7836 11.2604 53.5711 11.4312C53.3586 11.602 53.2013 11.826 53.0992 12.1031C52.9972 12.3802 52.9461 12.6791 52.9461 13C52.9461 13.3208 52.9972 13.6187 53.0992 13.8937C53.2013 14.1687 53.3586 14.3906 53.5711 14.5593C53.7836 14.7281 54.0545 14.8125 54.3836 14.8125Z" fill="#1C1C1C"/>
<path d="M59.6345 15.475C59.1845 15.475 58.797 15.3687 58.472 15.1562C58.147 14.9437 57.897 14.651 57.722 14.2781C57.547 13.9052 57.4595 13.4791 57.4595 13C57.4595 12.5125 57.5491 12.0823 57.7282 11.7093C57.9095 11.3343 58.1616 11.0416 58.4845 10.8312C58.8095 10.6187 59.1886 10.5125 59.622 10.5125C59.9595 10.5125 60.2636 10.575 60.5345 10.7C60.8053 10.825 61.0272 11 61.2001 11.225C61.373 11.45 61.4803 11.7125 61.522 12.0125H60.7845C60.7282 11.7937 60.6032 11.6 60.4095 11.4312C60.2178 11.2604 59.9595 11.175 59.6345 11.175C59.347 11.175 59.0949 11.25 58.8782 11.4C58.6636 11.5479 58.4959 11.7573 58.3751 12.0281C58.2564 12.2968 58.197 12.6125 58.197 12.975C58.197 13.3458 58.2553 13.6687 58.372 13.9437C58.4907 14.2187 58.6574 14.4323 58.872 14.5843C59.0886 14.7364 59.3428 14.8125 59.6345 14.8125C59.8261 14.8125 60.0001 14.7791 60.1564 14.7125C60.3126 14.6458 60.4449 14.55 60.5532 14.425C60.6616 14.3 60.7386 14.15 60.7845 13.975H61.522C61.4803 14.2583 61.3772 14.5135 61.2126 14.7406C61.0501 14.9656 60.8345 15.1448 60.5657 15.2781C60.2991 15.4093 59.9886 15.475 59.6345 15.475Z" fill="#1C1C1C"/>
<path d="M62.2219 11.2625V10.575H66.1219V11.2625H64.5469V15.375H63.8094V11.2625H62.2219Z" fill="#1C1C1C"/>
<path d="M67.6728 17.175C67.5478 17.175 67.4363 17.1645 67.3384 17.1437C67.2405 17.125 67.1728 17.1062 67.1353 17.0875L67.3228 16.4375C67.5019 16.4833 67.6603 16.5 67.7978 16.4875C67.9353 16.475 68.0571 16.4135 68.1634 16.3031C68.2717 16.1948 68.3707 16.0187 68.4603 15.775L68.5978 15.4L66.8228 10.575H67.6228L68.9478 14.4H68.9978L70.3228 10.575H71.1228L69.0853 16.075C68.9936 16.3229 68.88 16.5281 68.7446 16.6906C68.6092 16.8552 68.4519 16.977 68.2728 17.0562C68.0957 17.1354 67.8957 17.175 67.6728 17.175Z" fill="#1C1C1C"/>
<path d="M72.0961 15.375V10.575H75.8711V15.375H75.1336V11.2625H72.8336V15.375H72.0961Z" fill="#1C1C1C"/>
<path d="M80.4305 12.6375V13.325H77.7805V12.6375H80.4305ZM77.9555 10.575V15.375H77.218V10.575H77.9555ZM80.993 10.575V15.375H80.2555V10.575H80.993Z" fill="#1C1C1C"/>
<path d="M84.2899 15.475C83.8566 15.475 83.4764 15.3718 83.1493 15.1656C82.8243 14.9593 82.5702 14.6708 82.3868 14.3C82.2056 13.9291 82.1149 13.4958 82.1149 13C82.1149 12.5 82.2056 12.0635 82.3868 11.6906C82.5702 11.3177 82.8243 11.0281 83.1493 10.8218C83.4764 10.6156 83.8566 10.5125 84.2899 10.5125C84.7233 10.5125 85.1024 10.6156 85.4274 10.8218C85.7545 11.0281 86.0087 11.3177 86.1899 11.6906C86.3733 12.0635 86.4649 12.5 86.4649 13C86.4649 13.4958 86.3733 13.9291 86.1899 14.3C86.0087 14.6708 85.7545 14.9593 85.4274 15.1656C85.1024 15.3718 84.7233 15.475 84.2899 15.475ZM84.2899 14.8125C84.6191 14.8125 84.8899 14.7281 85.1024 14.5593C85.3149 14.3906 85.4722 14.1687 85.5743 13.8937C85.6764 13.6187 85.7274 13.3208 85.7274 13C85.7274 12.6791 85.6764 12.3802 85.5743 12.1031C85.4722 11.826 85.3149 11.602 85.1024 11.4312C84.8899 11.2604 84.6191 11.175 84.2899 11.175C83.9608 11.175 83.6899 11.2604 83.4774 11.4312C83.2649 11.602 83.1077 11.826 83.0056 12.1031C82.9035 12.3802 82.8524 12.6791 82.8524 13C82.8524 13.3208 82.9035 13.6187 83.0056 13.8937C83.1077 14.1687 83.2649 14.3906 83.4774 14.5593C83.6899 14.7281 83.9608 14.8125 84.2899 14.8125Z" fill="#1C1C1C"/>
<path d="M90.0657 15.375V10.575H92.0282C92.5449 10.575 92.9553 10.6916 93.2595 10.925C93.5636 11.1583 93.7157 11.4666 93.7157 11.85C93.7157 12.1416 93.6293 12.3677 93.4564 12.5281C93.2834 12.6864 93.0616 12.7937 92.7907 12.85C92.9678 12.875 93.1397 12.9375 93.3064 13.0375C93.4751 13.1375 93.6147 13.275 93.7251 13.45C93.8355 13.6229 93.8907 13.8354 93.8907 14.0875C93.8907 14.3333 93.8282 14.5531 93.7032 14.7468C93.5782 14.9406 93.3991 15.0937 93.1657 15.2062C92.9324 15.3187 92.6532 15.375 92.3282 15.375H90.0657ZM90.7657 14.7H92.3282C92.5824 14.7 92.7814 14.6395 92.9251 14.5187C93.0689 14.3979 93.1407 14.2333 93.1407 14.025C93.1407 13.777 93.0689 13.5823 92.9251 13.4406C92.7814 13.2968 92.5824 13.225 92.3282 13.225H90.7657V14.7ZM90.7657 12.5875H92.0282C92.2261 12.5875 92.3959 12.5604 92.5376 12.5062C92.6793 12.45 92.7876 12.3708 92.8626 12.2687C92.9397 12.1645 92.9782 12.0416 92.9782 11.9C92.9782 11.6979 92.8939 11.5395 92.7251 11.425C92.5563 11.3083 92.3241 11.25 92.0282 11.25H90.7657V12.5875Z" fill="#1C1C1C"/>
<path d="M54.5728 30.1777H52.6677L51.6246 27.231H47.9982L47.0041 30.1777H45.15L48.7431 20.1468H50.9615L54.5728 30.1777ZM51.31 25.9948L50.3663 23.3753C50.2669 23.1084 50.0796 22.4778 49.8038 21.4859H49.7705C49.6031 22.118 49.4263 22.7481 49.2401 23.3759L48.3134 25.9953L51.31 25.9948ZM63.8125 26.4723C63.8125 27.7024 63.4427 28.6745 62.7027 29.3885C62.0402 30.024 61.2177 30.3412 60.2351 30.3412C59.175 30.3412 58.4137 29.9986 57.9501 29.3144H57.9161V33.1248H56.1281V25.3256C56.1281 24.5524 56.1056 23.7588 56.0614 22.9448H57.6343L57.7343 24.091H57.7676C58.364 23.2272 59.269 22.7962 60.483 22.7962C61.4328 22.7962 62.225 23.1333 62.859 23.8075C63.4955 24.4828 63.8125 25.3714 63.8125 26.4723ZM61.9905 26.5308C61.9905 25.8268 61.8147 25.2465 61.4601 24.7901C61.074 24.3137 60.5546 24.0755 59.9036 24.0755C59.4629 24.0755 59.0617 24.2081 58.7035 24.4695C58.3447 24.7331 58.1095 25.0774 58.0004 25.5046C57.9446 25.7036 57.9173 25.866 57.9173 25.9942V27.2001C57.9173 27.7267 58.0967 28.1705 58.4556 28.533C58.8144 28.8956 59.2805 29.0763 59.8545 29.0763C60.5273 29.0763 61.0522 28.8431 61.4268 28.3772C61.8026 27.9102 61.9905 27.2946 61.9905 26.5308ZM73.0685 26.4723C73.0685 27.7024 72.6988 28.6745 71.9581 29.3885C71.2968 30.024 70.4737 30.3412 69.4918 30.3412C68.4317 30.3412 67.6704 29.9986 67.2067 29.3144H67.174V33.1248H65.386V25.3256C65.385 24.5316 65.3627 23.7378 65.3193 22.9448H66.8922L66.9916 24.091H67.0255C67.6207 23.2272 68.5257 22.7962 69.7409 22.7962C70.6895 22.7962 71.4823 23.1333 72.1175 23.8075C72.7509 24.4828 73.0685 25.3714 73.0685 26.4723ZM71.2471 26.5308C71.2471 25.8268 71.0702 25.2465 70.7162 24.7901C70.3295 24.3137 69.8125 24.0755 69.1603 24.0755C68.7184 24.0755 68.3184 24.2081 67.9602 24.4695C67.6007 24.7331 67.3662 25.0774 67.2571 25.5046C67.2025 25.7036 67.174 25.866 67.174 25.9942V27.2001C67.174 27.7267 67.3534 28.1705 67.7104 28.533C68.0693 28.895 68.536 29.0763 69.1106 29.0763C69.7846 29.0763 70.3089 28.8431 70.6835 28.3772C71.0593 27.9102 71.2471 27.2946 71.2471 26.5308ZM83.4181 27.3648C83.4181 28.218 83.0883 28.9121 82.4271 29.4482C81.6997 30.034 80.6875 30.3263 79.3867 30.3263C78.1854 30.3263 77.2229 30.118 76.4943 29.7018L76.9083 28.3617C77.6891 28.7878 78.5835 29.0095 79.4934 29.0028C80.1668 29.0028 80.6905 28.8657 81.0675 28.5927C81.4421 28.3197 81.6294 27.9533 81.6294 27.4968C81.6294 27.0896 81.4748 26.7469 81.1657 26.4689C80.8578 26.1904 80.3438 25.9318 79.6256 25.6931C77.6714 25.0382 76.6956 24.0783 76.6956 22.8166C76.6956 21.9921 77.0374 21.3157 77.7229 20.7896C78.4054 20.2629 79.3164 19.9998 80.4553 19.9998C81.4706 19.9998 82.3143 20.159 82.9877 20.4762L82.541 21.7859C81.9118 21.4787 81.2009 21.3251 80.405 21.3251C79.7759 21.3251 79.2843 21.4643 78.9322 21.7417C78.6346 21.9899 78.4848 22.2922 78.4848 22.6503C78.4848 23.0465 78.6552 23.3742 78.9976 23.6323C79.2952 23.8699 79.8359 24.128 80.6214 24.406C81.5815 24.7541 82.287 25.1598 82.7404 25.6256C83.1926 26.0898 83.4181 26.6712 83.4181 27.3648ZM89.3296 24.1507H87.3584V27.6626C87.3584 28.5557 87.7058 29.0017 88.4022 29.0017C88.7216 29.0017 88.9865 28.9768 89.1962 28.9271L89.2459 30.1478C88.8938 30.2661 88.4295 30.3258 87.8555 30.3258C87.1493 30.3258 86.5972 30.1323 86.1989 29.7455C85.8019 29.3576 85.6025 28.7082 85.6025 27.7947V24.1501H84.4285V22.9437H85.6025V21.6191L87.3584 21.1427V22.9432H89.3296V24.1507ZM98.222 26.5016C98.222 27.6134 97.868 28.5264 97.1619 29.2398C96.4218 29.9748 95.4386 30.3412 94.2131 30.3412C93.0323 30.3412 92.0922 29.9892 91.391 29.2857C90.6903 28.5811 90.3393 27.6925 90.3393 26.6215C90.3393 25.5007 90.7 24.5823 91.4237 23.8688C92.1462 23.1543 93.1202 22.7967 94.3458 22.7967C95.5265 22.7967 96.4769 23.1487 97.194 23.8539C97.8801 24.5375 98.222 25.4201 98.222 26.5016ZM96.3672 26.5535C96.3672 25.8865 96.2084 25.3145 95.8872 24.8376C95.5126 24.2601 94.9768 23.9722 94.2822 23.9722C93.5633 23.9722 93.0172 24.2606 92.6426 24.8376C92.3214 25.3151 92.1626 25.8964 92.1626 26.5839C92.1626 27.2509 92.3214 27.8229 92.6426 28.2993C93.0293 28.8768 93.5694 29.1647 94.2664 29.1647C94.9489 29.1647 95.4847 28.8707 95.8714 28.2843C96.2012 27.798 96.3672 27.22 96.3672 26.5535ZM104.034 24.3579C103.848 24.3278 103.659 24.313 103.47 24.3137C102.841 24.3137 102.355 24.527 102.013 24.9542C101.715 25.3311 101.566 25.8074 101.566 26.3827V30.1777H99.7785L99.7955 25.2222C99.7955 24.3888 99.7724 23.6301 99.7282 22.9454H101.286L101.351 24.3292H101.401C101.59 23.8539 101.887 23.4709 102.295 23.1836C102.693 22.9249 103.123 22.7962 103.587 22.7962C103.752 22.7962 103.901 22.8072 104.034 22.8254V24.3579ZM112.03 26.2192C112.03 26.5065 112.009 26.7497 111.965 26.9481H106.601C106.622 27.6626 106.881 28.2092 107.379 28.5855C107.831 28.9226 108.416 29.0917 109.133 29.0917C109.928 29.0917 110.652 28.9779 111.304 28.7491L111.584 29.8654C110.823 30.1638 109.924 30.3119 108.886 30.3119C107.638 30.3119 106.659 29.982 105.946 29.3222C105.235 28.6629 104.878 27.777 104.878 26.6662C104.878 25.5753 105.209 24.6668 105.873 23.9429C106.567 23.1692 107.506 22.7823 108.687 22.7823C109.846 22.7823 110.724 23.1692 111.321 23.9429C111.793 24.5568 112.03 25.3167 112.03 26.2192ZM110.325 25.8019C110.337 25.3261 110.221 24.9144 109.978 24.5668C109.669 24.1197 109.193 23.897 108.553 23.897C107.968 23.897 107.493 24.1147 107.13 24.5519C106.833 24.8989 106.656 25.3162 106.601 25.8014L110.325 25.8019Z" fill="#1C1C1C"/>
</g>
</g>
</g>
<defs>
<clipPath id="clip0_1_914">
<rect width="22.15" height="24" fill="white" transform="translate(13 8)"/>
</clipPath>
<clipPath id="clip1_1_914">
<rect width="22.15" height="24" fill="white" transform="translate(13 8)"/>
</clipPath>
<clipPath id="clip2_1_914">
<rect width="22.15" height="23.9958" fill="white" transform="translate(13 8.0022)"/>
</clipPath>
<clipPath id="clip3_1_914">
<rect width="67" height="26" fill="white" transform="translate(45.15 8)"/>
</clipPath>
<clipPath id="clip4_1_914">
<rect width="67" height="26" fill="white" transform="translate(45.15 8)"/>
</clipPath>
<clipPath id="clip5_1_914">
<rect width="67" height="26" fill="white" transform="translate(45.15 8)"/>
</clipPath>
</defs>
</svg>
