<svg width="132" height="42" viewBox="0 0 132 42" fill="none" xmlns="http://www.w3.org/2000/svg">
<rect x="0.5" y="0.5" width="131" height="41" rx="13.5" fill="white"/>
<rect x="0.5" y="0.5" width="131" height="41" rx="13.5" stroke="#E7E9F3"/>
<g clip-path="url(#clip0_1_892)">
<g clip-path="url(#clip1_1_892)">
<g clip-path="url(#clip2_1_892)">
<path d="M22.973 19.5034L14.0077 29.2346C14.008 29.2366 14.0087 29.2383 14.009 29.2403C14.284 30.297 15.2278 31.075 16.3479 31.075C16.7957 31.075 17.2161 30.9513 17.5766 30.7339L17.6053 30.7168L27.6974 24.7616L22.973 19.5034Z" fill="#EB3131"/>
<path d="M32.0427 17.8468L32.0341 17.8408L27.677 15.2578L22.7682 19.7246L27.6941 24.7612L32.0281 22.204C32.7879 21.7844 33.3038 20.9653 33.3038 20.0206C33.3038 19.0828 32.7949 18.2676 32.0427 17.8468Z" fill="#F6B60B"/>
<path d="M14.0052 10.7649C13.9513 10.9681 13.923 11.181 13.923 11.4021V28.5979C13.923 28.8186 13.951 29.0322 14.0055 29.2348L23.2803 19.7523L14.0052 10.7649Z" fill="#5778C5"/>
<path d="M23.0399 20L27.6807 15.2558L17.5999 9.279C17.2335 9.05457 16.8059 8.92505 16.3483 8.92505C15.2281 8.92505 14.283 9.70453 14.008 10.7624L14.0077 10.7651L23.0399 20Z" fill="#3BAD49"/>
</g>
</g>
</g>
<g clip-path="url(#clip3_1_892)">
<g clip-path="url(#clip4_1_892)">
<g clip-path="url(#clip5_1_892)">
<path d="M70.0742 23.1532C67.9178 23.1532 66.1363 24.7334 66.1363 26.899C66.1363 29.0476 67.8991 30.6447 70.0749 30.6447C72.25 30.6447 74.0128 29.0652 74.0128 26.899C74.0128 24.7334 72.25 23.1532 70.0742 23.1532ZM70.0742 29.1545C68.8928 29.1545 67.8618 28.2132 67.8618 26.8826C67.8618 25.5332 68.8934 24.6107 70.0742 24.6107C71.2557 24.6107 72.2873 25.5332 72.2873 26.882C72.2873 28.2132 71.255 29.1545 70.0742 29.1545ZM61.5044 23.1532C59.3293 23.1532 57.5658 24.7334 57.5658 26.899C57.5658 29.0476 59.3293 30.6447 61.5044 30.6447C63.6795 30.6447 65.443 29.0652 65.443 26.899C65.443 24.7334 63.6795 23.1532 61.5044 23.1532ZM61.5044 29.1545C60.3223 29.1545 59.292 28.2132 59.292 26.8826C59.292 25.5332 60.3236 24.6107 61.5044 24.6107C62.6865 24.6107 63.7168 25.5332 63.7168 26.882C63.7168 28.2132 62.7039 29.1545 61.5044 29.1545ZM51.321 24.3077V25.8866H55.2962C55.1836 26.7745 54.8653 27.4316 54.3958 27.8755C53.815 28.4257 52.9147 29.0294 51.321 29.0294C48.8642 29.0294 46.9701 27.148 46.9701 24.8221C46.9701 22.4962 48.8648 20.5796 51.321 20.5796C52.6523 20.5796 53.6092 21.0769 54.3218 21.7158L55.5026 20.5972C54.5084 19.6923 53.1771 19 51.321 19C47.9638 19 45.15 21.6089 45.15 24.7874C45.15 27.9648 47.9631 30.5743 51.321 30.5743C53.1398 30.5743 54.4903 30.0065 55.5785 28.9407C56.6847 27.8931 57.0224 26.4198 57.0224 25.2302C57.0234 24.8967 56.9917 24.5639 56.9278 24.236L51.321 24.3077ZM92.9932 25.532C92.6742 24.6976 91.6619 23.1532 89.636 23.1532C87.6094 23.1532 85.9405 24.6623 85.9405 26.899C85.9405 28.9935 87.6094 30.6447 89.8231 30.6447C91.6239 30.6447 92.6555 29.5972 93.0864 28.9929L91.7551 28.1415C91.3049 28.7634 90.7049 29.1708 89.8231 29.1708C88.942 29.1708 88.3233 28.798 87.9291 28.0346L93.161 25.9577L92.9932 25.532ZM87.6667 26.7933C87.6294 25.3547 88.8488 24.6095 89.7106 24.6095C90.4045 24.6095 90.9673 24.9289 91.1731 25.4087L87.6667 26.7933ZM83.4091 30.3964H85.1353V19.4257H83.4091V30.3964ZM80.5966 23.9877H80.5407C80.1471 23.5437 79.4158 23.1532 78.4775 23.1532C76.5082 23.1532 74.7267 24.8051 74.7267 26.899C74.7267 28.9935 76.5269 30.6277 78.4775 30.6277C79.4146 30.6277 80.1465 30.2366 80.5407 29.7751H80.5966V30.3077C80.5966 31.7458 79.7895 32.5085 78.4962 32.5085C77.4459 32.5085 76.7893 31.781 76.5269 31.1773L75.0271 31.781C75.458 32.7751 76.6021 34 78.4962 34C80.5214 34 82.2283 32.8638 82.2283 30.1121V23.3834H80.5966V23.9877ZM78.6274 29.1545C77.4459 29.1545 76.4523 28.2132 76.4523 26.9002C76.4523 25.5872 77.4466 24.6277 78.6274 24.6277C79.7908 24.6277 80.7285 25.5872 80.7285 26.9002C80.7272 28.1955 79.7895 29.1545 78.6274 29.1545ZM101.039 19.4257H96.9131V30.3958H98.6387V26.2419H101.039C102.952 26.2419 104.827 24.9271 104.827 22.8332C104.827 20.7387 102.952 19.4257 101.039 19.4257ZM101.095 24.7164H98.656V20.9524H101.095C102.37 20.9524 103.12 21.9642 103.12 22.8338C103.102 23.6858 102.371 24.7164 101.095 24.7164ZM111.711 23.1356C110.472 23.1356 109.178 23.6506 108.654 24.8221L110.173 25.4263C110.511 24.8221 111.11 24.6271 111.748 24.6271C112.649 24.6271 113.549 25.1421 113.568 26.047V26.1538C113.248 25.9765 112.593 25.7275 111.767 25.7275C110.117 25.7275 108.447 26.5972 108.447 28.1955C108.447 29.6688 109.798 30.6095 111.298 30.6095C112.461 30.6095 113.098 30.1121 113.492 29.5267H113.548V30.3787H115.217V26.1715C115.198 24.2366 113.68 23.1356 111.711 23.1356ZM111.504 29.1362C110.942 29.1362 110.153 28.8696 110.153 28.2138C110.153 27.3617 111.128 27.0417 111.972 27.0417C112.722 27.0417 113.079 27.202 113.548 27.4146C113.486 27.8868 113.245 28.3218 112.869 28.6385C112.493 28.9553 112.008 29.1321 111.504 29.1362ZM121.237 23.3852L119.268 28.1245H119.212L117.168 23.3846H115.312L118.388 30.0241L116.643 33.7346H118.444L123.15 23.3846L121.237 23.3852ZM105.783 30.3958H107.509V19.4257H105.783V30.3958Z" fill="#1C1C1C"/>
<path d="M90.0652 15.375V10.575H92.0277C92.5444 10.575 92.9548 10.6916 93.259 10.925C93.5632 11.1583 93.7152 11.4666 93.7152 11.85C93.7152 12.1416 93.6288 12.3677 93.4559 12.5281C93.2829 12.6864 93.0611 12.7937 92.7902 12.85C92.9673 12.875 93.1392 12.9375 93.3059 13.0375C93.4746 13.1375 93.6142 13.275 93.7246 13.45C93.835 13.6229 93.8902 13.8354 93.8902 14.0875C93.8902 14.3333 93.8277 14.5531 93.7027 14.7468C93.5777 14.9406 93.3986 15.0937 93.1652 15.2062C92.9319 15.3187 92.6527 15.375 92.3277 15.375H90.0652ZM90.7652 14.7H92.3277C92.5819 14.7 92.7809 14.6395 92.9246 14.5187C93.0684 14.3979 93.1402 14.2333 93.1402 14.025C93.1402 13.777 93.0684 13.5822 92.9246 13.4406C92.7809 13.2968 92.5819 13.225 92.3277 13.225H90.7652V14.7ZM90.7652 12.5875H92.0277C92.2257 12.5875 92.3954 12.5604 92.5371 12.5062C92.6788 12.45 92.7871 12.3708 92.8621 12.2687C92.9392 12.1645 92.9777 12.0416 92.9777 11.9C92.9777 11.6979 92.8934 11.5395 92.7246 11.425C92.5559 11.3083 92.3236 11.25 92.0277 11.25H90.7652V12.5875Z" fill="#1C1C1C"/>
<path d="M84.2895 15.475C83.8561 15.475 83.4759 15.3718 83.1488 15.1656C82.8238 14.9593 82.5697 14.6708 82.3863 14.3C82.2051 13.9291 82.1145 13.4958 82.1145 13C82.1145 12.5 82.2051 12.0635 82.3863 11.6906C82.5697 11.3177 82.8238 11.0281 83.1488 10.8218C83.4759 10.6156 83.8561 10.5125 84.2895 10.5125C84.7228 10.5125 85.102 10.6156 85.427 10.8218C85.754 11.0281 86.0082 11.3177 86.1895 11.6906C86.3728 12.0635 86.4645 12.5 86.4645 13C86.4645 13.4958 86.3728 13.9291 86.1895 14.3C86.0082 14.6708 85.754 14.9593 85.427 15.1656C85.102 15.3718 84.7228 15.475 84.2895 15.475ZM84.2895 14.8125C84.6186 14.8125 84.8895 14.7281 85.102 14.5593C85.3145 14.3906 85.4717 14.1687 85.5738 13.8937C85.6759 13.6187 85.727 13.3208 85.727 13C85.727 12.6791 85.6759 12.3802 85.5738 12.1031C85.4717 11.826 85.3145 11.602 85.102 11.4312C84.8895 11.2604 84.6186 11.175 84.2895 11.175C83.9603 11.175 83.6895 11.2604 83.477 11.4312C83.2645 11.602 83.1072 11.826 83.0051 12.1031C82.903 12.3802 82.852 12.6791 82.852 13C82.852 13.3208 82.903 13.6187 83.0051 13.8937C83.1072 14.1687 83.2645 14.3906 83.477 14.5593C83.6895 14.7281 83.9603 14.8125 84.2895 14.8125Z" fill="#1C1C1C"/>
<path d="M80.4302 12.6375V13.325H77.7802V12.6375H80.4302ZM77.9552 10.575V15.375H77.2177V10.575H77.9552ZM80.9927 10.575V15.375H80.2551V10.575H80.9927Z" fill="#1C1C1C"/>
<path d="M72.0957 15.375V10.575H75.8707V15.375H75.1332V11.2625H72.8332V15.375H72.0957Z" fill="#1C1C1C"/>
<path d="M67.6723 17.175C67.5473 17.175 67.4358 17.1645 67.3379 17.1437C67.24 17.125 67.1723 17.1062 67.1348 17.0875L67.3223 16.4375C67.5014 16.4833 67.6598 16.5 67.7973 16.4875C67.9348 16.475 68.0566 16.4135 68.1629 16.3031C68.2712 16.1947 68.3702 16.0187 68.4598 15.775L68.5973 15.4L66.8223 10.575H67.6223L68.9473 14.4H68.9973L70.3223 10.575H71.1223L69.0848 16.075C68.9931 16.3229 68.8796 16.5281 68.7441 16.6906C68.6087 16.8552 68.4514 16.977 68.2723 17.0562C68.0952 17.1354 67.8952 17.175 67.6723 17.175Z" fill="#1C1C1C"/>
<path d="M62.2216 11.2625V10.575H66.1216V11.2625H64.5466V15.375H63.8091V11.2625H62.2216Z" fill="#1C1C1C"/>
<path d="M59.634 15.475C59.184 15.475 58.7965 15.3687 58.4715 15.1562C58.1465 14.9437 57.8965 14.651 57.7215 14.2781C57.5465 13.9052 57.459 13.4791 57.459 13C57.459 12.5125 57.5486 12.0822 57.7277 11.7093C57.909 11.3343 58.1611 11.0416 58.484 10.8312C58.809 10.6187 59.1882 10.5125 59.6215 10.5125C59.959 10.5125 60.2632 10.575 60.534 10.7C60.8048 10.825 61.0267 11 61.1996 11.225C61.3725 11.45 61.4798 11.7125 61.5215 12.0125H60.784C60.7277 11.7937 60.6027 11.6 60.409 11.4312C60.2173 11.2604 59.959 11.175 59.634 11.175C59.3465 11.175 59.0944 11.25 58.8777 11.4C58.6632 11.5479 58.4954 11.7572 58.3746 12.0281C58.2559 12.2968 58.1965 12.6125 58.1965 12.975C58.1965 13.3458 58.2548 13.6687 58.3715 13.9437C58.4902 14.2187 58.6569 14.4322 58.8715 14.5843C59.0882 14.7364 59.3423 14.8125 59.634 14.8125C59.8257 14.8125 59.9996 14.7791 60.1559 14.7125C60.3121 14.6458 60.4444 14.55 60.5527 14.425C60.6611 14.3 60.7382 14.15 60.784 13.975H61.5215C61.4798 14.2583 61.3767 14.5135 61.2121 14.7406C61.0496 14.9656 60.834 15.1447 60.5652 15.2781C60.2986 15.4093 59.9882 15.475 59.634 15.475Z" fill="#1C1C1C"/>
<path d="M54.3833 15.475C53.9499 15.475 53.5697 15.3718 53.2426 15.1656C52.9176 14.9593 52.6635 14.6708 52.4801 14.3C52.2989 13.9291 52.2083 13.4958 52.2083 13C52.2083 12.5 52.2989 12.0635 52.4801 11.6906C52.6635 11.3177 52.9176 11.0281 53.2426 10.8218C53.5697 10.6156 53.9499 10.5125 54.3833 10.5125C54.8166 10.5125 55.1958 10.6156 55.5208 10.8218C55.8479 11.0281 56.1021 11.3177 56.2833 11.6906C56.4666 12.0635 56.5583 12.5 56.5583 13C56.5583 13.4958 56.4666 13.9291 56.2833 14.3C56.1021 14.6708 55.8479 14.9593 55.5208 15.1656C55.1958 15.3718 54.8166 15.475 54.3833 15.475ZM54.3833 14.8125C54.7124 14.8125 54.9833 14.7281 55.1958 14.5593C55.4083 14.3906 55.5656 14.1687 55.6677 13.8937C55.7698 13.6187 55.8208 13.3208 55.8208 13C55.8208 12.6791 55.7698 12.3802 55.6677 12.1031C55.5656 11.826 55.4083 11.602 55.1958 11.4312C54.9833 11.2604 54.7124 11.175 54.3833 11.175C54.0541 11.175 53.7833 11.2604 53.5708 11.4312C53.3583 11.602 53.201 11.826 53.0989 12.1031C52.9968 12.3802 52.9458 12.6791 52.9458 13C52.9458 13.3208 52.9968 13.6187 53.0989 13.8937C53.201 14.1687 53.3583 14.3906 53.5708 14.5593C53.7833 14.7281 54.0541 14.8125 54.3833 14.8125Z" fill="#1C1C1C"/>
<path d="M45.3746 16.9251V14.6876H45.7871C45.9288 14.5584 46.0621 14.3761 46.1871 14.1407C46.3142 13.9032 46.4215 13.5866 46.509 13.1907C46.5986 12.7928 46.658 12.2876 46.6871 11.6751L46.8246 8.9751H50.6246V14.6876H51.3621V16.9126H50.6246V15.3751H46.1121V16.9251H45.3746ZM46.7121 14.6876H49.8871V9.6626H47.5246L47.4246 11.6751C47.3996 12.1418 47.3559 12.5647 47.2934 12.9439C47.2309 13.3209 47.1507 13.6553 47.0528 13.947C46.9548 14.2366 46.8413 14.4834 46.7121 14.6876Z" fill="#1C1C1C"/>
</g>
</g>
</g>
<defs>
<clipPath id="clip0_1_892">
<rect width="22.15" height="24" fill="white" transform="translate(13 8)"/>
</clipPath>
<clipPath id="clip1_1_892">
<rect width="22.15" height="24" fill="white" transform="translate(13 8)"/>
</clipPath>
<clipPath id="clip2_1_892">
<rect width="22.15" height="23.9958" fill="white" transform="translate(13 8.0022)"/>
</clipPath>
<clipPath id="clip3_1_892">
<rect width="86" height="26" fill="white" transform="translate(45.15 8)"/>
</clipPath>
<clipPath id="clip4_1_892">
<rect width="86" height="26" fill="white" transform="translate(45.15 8)"/>
</clipPath>
<clipPath id="clip5_1_892">
<rect width="86" height="26" fill="white" transform="translate(45.15 8)"/>
</clipPath>
</defs>
</svg>
