<svg width="1916" height="26" viewBox="0 0 1916 26" fill="none" xmlns="http://www.w3.org/2000/svg">
<path d="M8 8C29.703 11.116 42.075 12 64 12" stroke="#AEB7C2"/>
<g opacity="0.8">
<path d="M9.5 17C8.187 17 7.398 16 6.61 14.25C5.865 12.595 5.554 10.466 7.15 9.5C7.863 9.068 8.194 9 9.5 9C10.806 9 11.137 9.068 11.85 9.5C13.446 10.466 13.135 12.595 12.39 14.25C11.602 16 10.813 17 9.5 17Z" fill="#2787F5"/>
</g>
<path d="M9.5 16C8.187 16 7.398 15 6.61 13.25C5.865 11.595 5.554 9.466 7.15 8.5C7.863 8.068 8.194 8 9.5 8C10.806 8 11.137 8.068 11.85 8.5C13.446 9.466 13.135 11.595 12.39 13.25C11.602 15 10.813 16 9.5 16Z" fill="#2787F5"/>
<path d="M122 8C122 8 87.925 12 66 12" stroke="#AEB7C2"/>
<g opacity="0.8">
<path d="M63.3731 18.6878C62.2591 17.9918 62.1211 16.7268 62.3801 14.8248C62.6251 13.0268 63.4891 11.0568 65.3541 11.0828C66.1891 11.0938 66.5051 11.2128 67.6121 11.9038C68.7201 12.5958 68.9641 12.8288 69.3411 13.5738C70.1821 15.2388 68.7901 16.8788 67.2811 17.8878C65.6851 18.9538 64.4871 19.3848 63.3731 18.6878Z" fill="#F679FF"/>
</g>
<path d="M63.9029 17.8401C62.7889 17.1451 62.6509 15.8791 62.9099 13.9771C63.1549 12.1791 64.0189 10.2091 65.8839 10.2351C66.7189 10.2461 67.0349 10.3651 68.1419 11.0561C69.2499 11.7481 69.4939 11.9811 69.8709 12.7261C70.7109 14.3911 69.3199 16.0311 67.8109 17.0401C66.2149 18.1061 65.0169 18.5371 63.9029 17.8401Z" fill="#F679FF"/>
<path d="M125 8C125 8 153.088 10.196 181 11.334" stroke="#AEB7C2"/>
<g opacity="0.8">
<path d="M128.466 14.1439C127.46 14.9889 126.214 14.7289 124.485 13.8949C122.851 13.1059 121.244 11.6749 121.845 9.9099C122.114 9.1199 122.324 8.8549 123.324 8.0159C124.324 7.1759 124.621 7.0159 125.446 6.8879C127.29 6.6029 128.419 8.4339 128.912 10.1799C129.433 12.0269 129.472 13.2999 128.466 14.1439Z" fill="#17D685"/>
</g>
<path d="M127.823 13.3778C126.817 14.2218 125.571 13.9628 123.843 13.1278C122.207 12.3398 120.6 10.9098 121.201 9.14476C121.47 8.35476 121.68 8.08976 122.681 7.25076C123.681 6.41076 123.977 6.25076 124.802 6.12276C126.646 5.83776 127.776 7.66876 128.268 9.41476C128.79 11.2618 128.828 12.5348 127.822 13.3788L127.823 13.3778Z" fill="#17D685"/>
<path d="M183 11.334C192.757 11.732 202.493 12 211 12C221.49 12 230.512 11.91 239 11.687" stroke="#AEB7C2"/>
<g opacity="0.8">
<path d="M188.517 9.48499C189.194 10.611 188.742 11.801 187.648 13.378C186.614 14.869 184.949 16.233 183.298 15.363C182.561 14.973 182.332 14.725 181.66 13.605C180.987 12.486 180.875 12.168 180.878 11.333C180.884 9.46699 182.87 8.63799 184.672 8.42499C186.578 8.19899 187.841 8.35899 188.517 9.48499Z" fill="#FFD91D"/>
</g>
<path d="M187.66 10.0001C188.336 11.1261 187.885 12.3161 186.791 13.8931C185.757 15.3841 184.092 16.7481 182.441 15.8781C181.704 15.4881 181.475 15.2401 180.803 14.1201C180.13 13.0011 180.018 12.6831 180.021 11.8481C180.027 9.98213 182.012 9.15313 183.814 8.94013C185.72 8.71413 186.984 8.87413 187.66 10.0001Z" fill="#FFD91D"/>
<path d="M297.5 8C275.249 10.124 259.588 11.21 241.5 11.687" stroke="#AEB7C2"/>
<g opacity="0.8">
<path d="M237.538 8.48421C238.545 7.63921 239.791 7.89921 241.52 8.73321C243.154 9.52121 244.761 10.9522 244.16 12.7182C243.89 13.5082 243.68 13.7732 242.68 14.6122C241.68 15.4522 241.383 15.6122 240.559 15.7402C238.715 16.0252 237.585 14.1942 237.092 12.4482C236.572 10.6002 236.532 9.32821 237.538 8.48421Z" fill="#AB47E9"/>
</g>
<path d="M238.181 9.24984C239.187 8.40484 240.434 8.66484 242.162 9.49884C243.797 10.2868 245.404 11.7178 244.802 13.4838C244.534 14.2738 244.324 14.5388 243.323 15.3778C242.323 16.2178 242.026 16.3778 241.201 16.5058C239.358 16.7908 238.228 14.9598 237.735 13.2138C237.215 11.3668 237.175 10.0938 238.181 9.24984Z" fill="#AB47E9"/>
<path d="M297 8C318.703 11.116 331.075 12 353 12" stroke="#AEB7C2"/>
<g opacity="0.8">
<path d="M298.5 17C297.187 17 296.398 16 295.61 14.25C294.865 12.595 294.554 10.466 296.15 9.5C296.863 9.068 297.194 9 298.5 9C299.806 9 300.137 9.068 300.85 9.5C302.446 10.466 302.135 12.595 301.39 14.25C300.602 16 299.813 17 298.5 17Z" fill="#2787F5"/>
</g>
<path d="M298.5 16C297.187 16 296.398 15 295.61 13.25C294.865 11.595 294.554 9.466 296.15 8.5C296.863 8.068 297.194 8 298.5 8C299.806 8 300.137 8.068 300.85 8.5C302.446 9.466 302.135 11.595 301.39 13.25C300.602 15 299.813 16 298.5 16Z" fill="#2787F5"/>
<path d="M411 8C411 8 376.925 12 355 12" stroke="#AEB7C2"/>
<g opacity="0.8">
<path d="M352.373 18.6878C351.259 17.9918 351.121 16.7268 351.38 14.8248C351.625 13.0268 352.489 11.0568 354.354 11.0828C355.189 11.0938 355.505 11.2128 356.612 11.9038C357.72 12.5958 357.964 12.8288 358.341 13.5738C359.182 15.2388 357.79 16.8788 356.281 17.8878C354.685 18.9538 353.487 19.3848 352.373 18.6878Z" fill="#F679FF"/>
</g>
<path d="M352.903 17.8401C351.789 17.1451 351.651 15.8791 351.91 13.9771C352.155 12.1791 353.019 10.2091 354.884 10.2351C355.719 10.2461 356.035 10.3651 357.142 11.0561C358.25 11.7481 358.494 11.9811 358.871 12.7261C359.711 14.3911 358.32 16.0311 356.811 17.0401C355.215 18.1061 354.017 18.5371 352.903 17.8401Z" fill="#F679FF"/>
<path d="M414 8C414 8 442.088 10.196 470 11.334" stroke="#AEB7C2"/>
<g opacity="0.8">
<path d="M417.466 14.1439C416.46 14.9889 415.214 14.7289 413.485 13.8949C411.851 13.1059 410.244 11.6749 410.845 9.9099C411.114 9.1199 411.324 8.8549 412.324 8.0159C413.324 7.1759 413.621 7.0159 414.446 6.8879C416.29 6.6029 417.419 8.4339 417.912 10.1799C418.433 12.0269 418.472 13.2999 417.466 14.1439Z" fill="#17D685"/>
</g>
<path d="M416.823 13.3778C415.817 14.2218 414.571 13.9628 412.843 13.1278C411.207 12.3398 409.6 10.9098 410.201 9.14476C410.47 8.35476 410.68 8.08976 411.681 7.25076C412.681 6.41076 412.977 6.25076 413.802 6.12276C415.646 5.83776 416.776 7.66876 417.268 9.41476C417.79 11.2618 417.828 12.5348 416.822 13.3788L416.823 13.3778Z" fill="#17D685"/>
<path d="M472 11.334C481.757 11.732 491.493 12 500 12C510.49 12 519.512 11.91 528 11.687" stroke="#AEB7C2"/>
<g opacity="0.8">
<path d="M477.517 9.48499C478.194 10.611 477.742 11.801 476.648 13.378C475.614 14.869 473.949 16.233 472.298 15.363C471.561 14.973 471.332 14.725 470.66 13.605C469.987 12.486 469.875 12.168 469.878 11.333C469.884 9.46699 471.87 8.63799 473.672 8.42499C475.578 8.19899 476.841 8.35899 477.517 9.48499Z" fill="#FFD91D"/>
</g>
<path d="M476.66 10.0001C477.336 11.1261 476.885 12.3161 475.791 13.8931C474.757 15.3841 473.092 16.7481 471.441 15.8781C470.704 15.4881 470.475 15.2401 469.803 14.1201C469.13 13.0011 469.018 12.6831 469.021 11.8481C469.027 9.98213 471.012 9.15313 472.814 8.94013C474.72 8.71413 475.984 8.87413 476.66 10.0001Z" fill="#FFD91D"/>
<path d="M586.5 8C564.249 10.124 548.588 11.21 530.5 11.687" stroke="#AEB7C2"/>
<g opacity="0.8">
<path d="M526.538 8.48421C527.545 7.63921 528.791 7.89921 530.52 8.73321C532.154 9.52121 533.761 10.9522 533.16 12.7182C532.89 13.5082 532.68 13.7732 531.68 14.6122C530.68 15.4522 530.383 15.6122 529.559 15.7402C527.715 16.0252 526.585 14.1942 526.092 12.4482C525.572 10.6002 525.532 9.32821 526.538 8.48421Z" fill="#AB47E9"/>
</g>
<path d="M527.181 9.24984C528.187 8.40484 529.434 8.66484 531.162 9.49884C532.797 10.2868 534.404 11.7178 533.802 13.4838C533.534 14.2738 533.324 14.5388 532.323 15.3778C531.323 16.2178 531.026 16.3778 530.201 16.5058C528.358 16.7908 527.228 14.9598 526.735 13.2138C526.215 11.3668 526.175 10.0938 527.181 9.24984Z" fill="#AB47E9"/>
<path d="M586 8C607.703 11.116 620.075 12 642 12" stroke="#AEB7C2"/>
<g opacity="0.8">
<path d="M587.5 17C586.187 17 585.398 16 584.61 14.25C583.865 12.595 583.554 10.466 585.15 9.5C585.863 9.068 586.194 9 587.5 9C588.806 9 589.137 9.068 589.85 9.5C591.446 10.466 591.135 12.595 590.39 14.25C589.602 16 588.813 17 587.5 17Z" fill="#2787F5"/>
</g>
<path d="M587.5 16C586.187 16 585.398 15 584.61 13.25C583.865 11.595 583.554 9.466 585.15 8.5C585.863 8.068 586.194 8 587.5 8C588.806 8 589.137 8.068 589.85 8.5C591.446 9.466 591.135 11.595 590.39 13.25C589.602 15 588.813 16 587.5 16Z" fill="#2787F5"/>
<path d="M700 8C700 8 665.925 12 644 12" stroke="#AEB7C2"/>
<g opacity="0.8">
<path d="M641.373 18.6878C640.259 17.9918 640.121 16.7268 640.38 14.8248C640.625 13.0268 641.489 11.0568 643.354 11.0828C644.189 11.0938 644.505 11.2128 645.612 11.9038C646.72 12.5958 646.964 12.8288 647.341 13.5738C648.182 15.2388 646.79 16.8788 645.281 17.8878C643.685 18.9538 642.487 19.3848 641.373 18.6878Z" fill="#F679FF"/>
</g>
<path d="M641.903 17.8401C640.789 17.1451 640.651 15.8791 640.91 13.9771C641.155 12.1791 642.019 10.2091 643.884 10.2351C644.719 10.2461 645.035 10.3651 646.142 11.0561C647.25 11.7481 647.494 11.9811 647.871 12.7261C648.711 14.3911 647.32 16.0311 645.811 17.0401C644.215 18.1061 643.017 18.5371 641.903 17.8401Z" fill="#F679FF"/>
<path d="M703 8C703 8 731.088 10.196 759 11.334" stroke="#AEB7C2"/>
<g opacity="0.8">
<path d="M706.466 14.1439C705.46 14.9889 704.214 14.7289 702.485 13.8949C700.851 13.1059 699.244 11.6749 699.845 9.9099C700.114 9.1199 700.324 8.8549 701.324 8.0159C702.324 7.1759 702.621 7.0159 703.446 6.8879C705.29 6.6029 706.419 8.4339 706.912 10.1799C707.433 12.0269 707.472 13.2999 706.466 14.1439Z" fill="#17D685"/>
</g>
<path d="M705.823 13.3778C704.817 14.2218 703.571 13.9628 701.843 13.1278C700.207 12.3398 698.6 10.9098 699.201 9.14476C699.47 8.35476 699.68 8.08976 700.681 7.25076C701.681 6.41076 701.977 6.25076 702.802 6.12276C704.646 5.83776 705.776 7.66876 706.268 9.41476C706.79 11.2618 706.828 12.5348 705.822 13.3788L705.823 13.3778Z" fill="#17D685"/>
<path d="M761 11.334C770.757 11.732 780.493 12 789 12C799.49 12 808.512 11.91 817 11.687" stroke="#AEB7C2"/>
<g opacity="0.8">
<path d="M766.517 9.48499C767.194 10.611 766.742 11.801 765.648 13.378C764.614 14.869 762.949 16.233 761.298 15.363C760.561 14.973 760.332 14.725 759.66 13.605C758.987 12.486 758.875 12.168 758.878 11.333C758.884 9.46699 760.87 8.63799 762.672 8.42499C764.578 8.19899 765.841 8.35899 766.517 9.48499Z" fill="#FFD91D"/>
</g>
<path d="M765.66 10.0001C766.336 11.1261 765.885 12.3161 764.791 13.8931C763.757 15.3841 762.092 16.7481 760.441 15.8781C759.704 15.4881 759.475 15.2401 758.803 14.1201C758.13 13.0011 758.018 12.6831 758.021 11.8481C758.027 9.98213 760.012 9.15313 761.814 8.94013C763.72 8.71413 764.984 8.87413 765.66 10.0001Z" fill="#FFD91D"/>
<path d="M875.5 8C853.249 10.124 837.588 11.21 819.5 11.687" stroke="#AEB7C2"/>
<g opacity="0.8">
<path d="M815.538 8.48421C816.545 7.63921 817.791 7.89921 819.52 8.73321C821.154 9.52121 822.761 10.9522 822.16 12.7182C821.89 13.5082 821.68 13.7732 820.68 14.6122C819.68 15.4522 819.383 15.6122 818.559 15.7402C816.715 16.0252 815.585 14.1942 815.092 12.4482C814.572 10.6002 814.532 9.32821 815.538 8.48421Z" fill="#AB47E9"/>
</g>
<path d="M816.181 9.24984C817.187 8.40484 818.434 8.66484 820.162 9.49884C821.797 10.2868 823.404 11.7178 822.802 13.4838C822.534 14.2738 822.324 14.5388 821.323 15.3778C820.323 16.2178 820.026 16.3778 819.201 16.5058C817.358 16.7908 816.228 14.9598 815.735 13.2138C815.215 11.3668 815.175 10.0938 816.181 9.24984Z" fill="#AB47E9"/>
<path d="M875 8C896.703 11.116 909.075 12 931 12" stroke="#AEB7C2"/>
<g opacity="0.8">
<path d="M876.5 17C875.187 17 874.398 16 873.61 14.25C872.865 12.595 872.554 10.466 874.15 9.5C874.863 9.068 875.194 9 876.5 9C877.806 9 878.137 9.068 878.85 9.5C880.446 10.466 880.135 12.595 879.39 14.25C878.602 16 877.813 17 876.5 17Z" fill="#2787F5"/>
</g>
<path d="M876.5 16C875.187 16 874.398 15 873.61 13.25C872.865 11.595 872.554 9.466 874.15 8.5C874.863 8.068 875.194 8 876.5 8C877.806 8 878.137 8.068 878.85 8.5C880.446 9.466 880.135 11.595 879.39 13.25C878.602 15 877.813 16 876.5 16Z" fill="#2787F5"/>
<path d="M989 8C989 8 954.925 12 933 12" stroke="#AEB7C2"/>
<g opacity="0.8">
<path d="M930.373 18.6878C929.259 17.9918 929.121 16.7268 929.38 14.8248C929.625 13.0268 930.489 11.0568 932.354 11.0828C933.189 11.0938 933.505 11.2128 934.612 11.9038C935.72 12.5958 935.964 12.8288 936.341 13.5738C937.182 15.2388 935.79 16.8788 934.281 17.8878C932.685 18.9538 931.487 19.3848 930.373 18.6878Z" fill="#F679FF"/>
</g>
<path d="M930.903 17.8401C929.789 17.1451 929.651 15.8791 929.91 13.9771C930.155 12.1791 931.019 10.2091 932.884 10.2351C933.719 10.2461 934.035 10.3651 935.142 11.0561C936.25 11.7481 936.494 11.9811 936.871 12.7261C937.711 14.3911 936.32 16.0311 934.811 17.0401C933.215 18.1061 932.017 18.5371 930.903 17.8401Z" fill="#F679FF"/>
<path d="M992 8C992 8 1020.09 10.196 1048 11.334" stroke="#AEB7C2"/>
<g opacity="0.8">
<path d="M995.466 14.1439C994.46 14.9889 993.214 14.7289 991.485 13.8949C989.851 13.1059 988.244 11.6749 988.845 9.9099C989.114 9.1199 989.324 8.8549 990.324 8.0159C991.324 7.1759 991.621 7.0159 992.446 6.8879C994.29 6.6029 995.419 8.4339 995.912 10.1799C996.433 12.0269 996.472 13.2999 995.466 14.1439Z" fill="#17D685"/>
</g>
<path d="M994.823 13.3778C993.817 14.2218 992.571 13.9628 990.843 13.1278C989.207 12.3398 987.6 10.9098 988.201 9.14476C988.47 8.35476 988.68 8.08976 989.681 7.25076C990.681 6.41076 990.977 6.25076 991.802 6.12276C993.646 5.83776 994.776 7.66876 995.268 9.41476C995.79 11.2618 995.828 12.5348 994.822 13.3788L994.823 13.3778Z" fill="#17D685"/>
<path d="M1050 11.334C1059.76 11.732 1069.49 12 1078 12C1088.49 12 1097.51 11.91 1106 11.687" stroke="#AEB7C2"/>
<g opacity="0.8">
<path d="M1055.52 9.48499C1056.19 10.611 1055.74 11.801 1054.65 13.378C1053.61 14.869 1051.95 16.233 1050.3 15.363C1049.56 14.973 1049.33 14.725 1048.66 13.605C1047.99 12.486 1047.87 12.168 1047.88 11.333C1047.88 9.46699 1049.87 8.63799 1051.67 8.42499C1053.58 8.19899 1054.84 8.35899 1055.52 9.48499Z" fill="#FFD91D"/>
</g>
<path d="M1054.66 10.0001C1055.34 11.1261 1054.89 12.3161 1053.79 13.8931C1052.76 15.3841 1051.09 16.7481 1049.44 15.8781C1048.7 15.4881 1048.48 15.2401 1047.8 14.1201C1047.13 13.0011 1047.02 12.6831 1047.02 11.8481C1047.03 9.98213 1049.01 9.15313 1050.81 8.94013C1052.72 8.71413 1053.98 8.87413 1054.66 10.0001Z" fill="#FFD91D"/>
<path d="M1164.5 8C1142.25 10.124 1126.59 11.21 1108.5 11.687" stroke="#AEB7C2"/>
<g opacity="0.8">
<path d="M1104.54 8.48421C1105.54 7.63921 1106.79 7.89921 1108.52 8.73321C1110.15 9.52121 1111.76 10.9522 1111.16 12.7182C1110.89 13.5082 1110.68 13.7732 1109.68 14.6122C1108.68 15.4522 1108.38 15.6122 1107.56 15.7402C1105.71 16.0252 1104.58 14.1942 1104.09 12.4482C1103.57 10.6002 1103.53 9.32821 1104.54 8.48421Z" fill="#AB47E9"/>
</g>
<path d="M1105.18 9.24984C1106.19 8.40484 1107.43 8.66484 1109.16 9.49884C1110.8 10.2868 1112.4 11.7178 1111.8 13.4838C1111.53 14.2738 1111.32 14.5388 1110.32 15.3778C1109.32 16.2178 1109.03 16.3778 1108.2 16.5058C1106.36 16.7908 1105.23 14.9598 1104.74 13.2138C1104.22 11.3668 1104.18 10.0938 1105.18 9.24984Z" fill="#AB47E9"/>
<path d="M1164 8C1185.7 11.116 1198.08 12 1220 12" stroke="#AEB7C2"/>
<g opacity="0.8">
<path d="M1165.5 17C1164.19 17 1163.4 16 1162.61 14.25C1161.86 12.595 1161.55 10.466 1163.15 9.5C1163.86 9.068 1164.19 9 1165.5 9C1166.81 9 1167.14 9.068 1167.85 9.5C1169.45 10.466 1169.13 12.595 1168.39 14.25C1167.6 16 1166.81 17 1165.5 17Z" fill="#2787F5"/>
</g>
<path d="M1165.5 16C1164.19 16 1163.4 15 1162.61 13.25C1161.86 11.595 1161.55 9.466 1163.15 8.5C1163.86 8.068 1164.19 8 1165.5 8C1166.81 8 1167.14 8.068 1167.85 8.5C1169.45 9.466 1169.13 11.595 1168.39 13.25C1167.6 15 1166.81 16 1165.5 16Z" fill="#2787F5"/>
<path d="M1278 8C1278 8 1243.92 12 1222 12" stroke="#AEB7C2"/>
<g opacity="0.8">
<path d="M1219.37 18.6878C1218.26 17.9918 1218.12 16.7268 1218.38 14.8248C1218.63 13.0268 1219.49 11.0568 1221.35 11.0828C1222.19 11.0938 1222.51 11.2128 1223.61 11.9038C1224.72 12.5958 1224.96 12.8288 1225.34 13.5738C1226.18 15.2388 1224.79 16.8788 1223.28 17.8878C1221.69 18.9538 1220.49 19.3848 1219.37 18.6878Z" fill="#F679FF"/>
</g>
<path d="M1219.9 17.8401C1218.79 17.1451 1218.65 15.8791 1218.91 13.9771C1219.15 12.1791 1220.02 10.2091 1221.88 10.2351C1222.72 10.2461 1223.03 10.3651 1224.14 11.0561C1225.25 11.7481 1225.49 11.9811 1225.87 12.7261C1226.71 14.3911 1225.32 16.0311 1223.81 17.0401C1222.21 18.1061 1221.02 18.5371 1219.9 17.8401Z" fill="#F679FF"/>
<path d="M1281 8C1281 8 1309.09 10.196 1337 11.334" stroke="#AEB7C2"/>
<g opacity="0.8">
<path d="M1284.47 14.1439C1283.46 14.9889 1282.21 14.7289 1280.49 13.8949C1278.85 13.1059 1277.24 11.6749 1277.85 9.9099C1278.11 9.1199 1278.32 8.8549 1279.32 8.0159C1280.32 7.1759 1280.62 7.0159 1281.45 6.8879C1283.29 6.6029 1284.42 8.4339 1284.91 10.1799C1285.43 12.0269 1285.47 13.2999 1284.47 14.1439Z" fill="#17D685"/>
</g>
<path d="M1283.82 13.3778C1282.82 14.2218 1281.57 13.9628 1279.84 13.1278C1278.21 12.3398 1276.6 10.9098 1277.2 9.14476C1277.47 8.35476 1277.68 8.08976 1278.68 7.25076C1279.68 6.41076 1279.98 6.25076 1280.8 6.12276C1282.65 5.83776 1283.78 7.66876 1284.27 9.41476C1284.79 11.2618 1284.83 12.5348 1283.82 13.3788L1283.82 13.3778Z" fill="#17D685"/>
<path d="M1339 11.334C1348.76 11.732 1358.49 12 1367 12C1377.49 12 1386.51 11.91 1395 11.687" stroke="#AEB7C2"/>
<g opacity="0.8">
<path d="M1344.52 9.48499C1345.19 10.611 1344.74 11.801 1343.65 13.378C1342.61 14.869 1340.95 16.233 1339.3 15.363C1338.56 14.973 1338.33 14.725 1337.66 13.605C1336.99 12.486 1336.87 12.168 1336.88 11.333C1336.88 9.46699 1338.87 8.63799 1340.67 8.42499C1342.58 8.19899 1343.84 8.35899 1344.52 9.48499Z" fill="#FFD91D"/>
</g>
<path d="M1343.66 10.0001C1344.34 11.1261 1343.89 12.3161 1342.79 13.8931C1341.76 15.3841 1340.09 16.7481 1338.44 15.8781C1337.7 15.4881 1337.48 15.2401 1336.8 14.1201C1336.13 13.0011 1336.02 12.6831 1336.02 11.8481C1336.03 9.98213 1338.01 9.15313 1339.81 8.94013C1341.72 8.71413 1342.98 8.87413 1343.66 10.0001Z" fill="#FFD91D"/>
<path d="M1453.5 8C1431.25 10.124 1415.59 11.21 1397.5 11.687" stroke="#AEB7C2"/>
<g opacity="0.8">
<path d="M1393.54 8.48421C1394.54 7.63921 1395.79 7.89921 1397.52 8.73321C1399.15 9.52121 1400.76 10.9522 1400.16 12.7182C1399.89 13.5082 1399.68 13.7732 1398.68 14.6122C1397.68 15.4522 1397.38 15.6122 1396.56 15.7402C1394.71 16.0252 1393.58 14.1942 1393.09 12.4482C1392.57 10.6002 1392.53 9.32821 1393.54 8.48421Z" fill="#AB47E9"/>
</g>
<path d="M1394.18 9.24984C1395.19 8.40484 1396.43 8.66484 1398.16 9.49884C1399.8 10.2868 1401.4 11.7178 1400.8 13.4838C1400.53 14.2738 1400.32 14.5388 1399.32 15.3778C1398.32 16.2178 1398.03 16.3778 1397.2 16.5058C1395.36 16.7908 1394.23 14.9598 1393.74 13.2138C1393.22 11.3668 1393.18 10.0938 1394.18 9.24984Z" fill="#AB47E9"/>
<path d="M1453 8C1474.7 11.116 1487.08 12 1509 12" stroke="#AEB7C2"/>
<g opacity="0.8">
<path d="M1454.5 17C1453.19 17 1452.4 16 1451.61 14.25C1450.86 12.595 1450.55 10.466 1452.15 9.5C1452.86 9.068 1453.19 9 1454.5 9C1455.81 9 1456.14 9.068 1456.85 9.5C1458.45 10.466 1458.13 12.595 1457.39 14.25C1456.6 16 1455.81 17 1454.5 17Z" fill="#2787F5"/>
</g>
<path d="M1454.5 16C1453.19 16 1452.4 15 1451.61 13.25C1450.86 11.595 1450.55 9.466 1452.15 8.5C1452.86 8.068 1453.19 8 1454.5 8C1455.81 8 1456.14 8.068 1456.85 8.5C1458.45 9.466 1458.13 11.595 1457.39 13.25C1456.6 15 1455.81 16 1454.5 16Z" fill="#2787F5"/>
<path d="M1567 8C1567 8 1532.92 12 1511 12" stroke="#AEB7C2"/>
<g opacity="0.8">
<path d="M1508.37 18.6878C1507.26 17.9918 1507.12 16.7268 1507.38 14.8248C1507.63 13.0268 1508.49 11.0568 1510.35 11.0828C1511.19 11.0938 1511.51 11.2128 1512.61 11.9038C1513.72 12.5958 1513.96 12.8288 1514.34 13.5738C1515.18 15.2388 1513.79 16.8788 1512.28 17.8878C1510.69 18.9538 1509.49 19.3848 1508.37 18.6878Z" fill="#F679FF"/>
</g>
<path d="M1508.9 17.8401C1507.79 17.1451 1507.65 15.8791 1507.91 13.9771C1508.15 12.1791 1509.02 10.2091 1510.88 10.2351C1511.72 10.2461 1512.03 10.3651 1513.14 11.0561C1514.25 11.7481 1514.49 11.9811 1514.87 12.7261C1515.71 14.3911 1514.32 16.0311 1512.81 17.0401C1511.21 18.1061 1510.02 18.5371 1508.9 17.8401Z" fill="#F679FF"/>
<path d="M1570 8C1570 8 1598.09 10.196 1626 11.334" stroke="#AEB7C2"/>
<g opacity="0.8">
<path d="M1573.47 14.1439C1572.46 14.9889 1571.21 14.7289 1569.49 13.8949C1567.85 13.1059 1566.24 11.6749 1566.85 9.9099C1567.11 9.1199 1567.32 8.8549 1568.32 8.0159C1569.32 7.1759 1569.62 7.0159 1570.45 6.8879C1572.29 6.6029 1573.42 8.4339 1573.91 10.1799C1574.43 12.0269 1574.47 13.2999 1573.47 14.1439Z" fill="#17D685"/>
</g>
<path d="M1572.82 13.3778C1571.82 14.2218 1570.57 13.9628 1568.84 13.1278C1567.21 12.3398 1565.6 10.9098 1566.2 9.14476C1566.47 8.35476 1566.68 8.08976 1567.68 7.25076C1568.68 6.41076 1568.98 6.25076 1569.8 6.12276C1571.65 5.83776 1572.78 7.66876 1573.27 9.41476C1573.79 11.2618 1573.83 12.5348 1572.82 13.3788L1572.82 13.3778Z" fill="#17D685"/>
<path d="M1628 11.334C1637.76 11.732 1647.49 12 1656 12C1666.49 12 1675.51 11.91 1684 11.687" stroke="#AEB7C2"/>
<g opacity="0.8">
<path d="M1633.52 9.48499C1634.19 10.611 1633.74 11.801 1632.65 13.378C1631.61 14.869 1629.95 16.233 1628.3 15.363C1627.56 14.973 1627.33 14.725 1626.66 13.605C1625.99 12.486 1625.87 12.168 1625.88 11.333C1625.88 9.46699 1627.87 8.63799 1629.67 8.42499C1631.58 8.19899 1632.84 8.35899 1633.52 9.48499Z" fill="#FFD91D"/>
</g>
<path d="M1632.66 10.0001C1633.34 11.1261 1632.89 12.3161 1631.79 13.8931C1630.76 15.3841 1629.09 16.7481 1627.44 15.8781C1626.7 15.4881 1626.48 15.2401 1625.8 14.1201C1625.13 13.0011 1625.02 12.6831 1625.02 11.8481C1625.03 9.98213 1627.01 9.15313 1628.81 8.94013C1630.72 8.71413 1631.98 8.87413 1632.66 10.0001Z" fill="#FFD91D"/>
<path d="M1742.5 8C1720.25 10.124 1704.59 11.21 1686.5 11.687" stroke="#AEB7C2"/>
<g opacity="0.8">
<path d="M1682.54 8.48421C1683.54 7.63921 1684.79 7.89921 1686.52 8.73321C1688.15 9.52121 1689.76 10.9522 1689.16 12.7182C1688.89 13.5082 1688.68 13.7732 1687.68 14.6122C1686.68 15.4522 1686.38 15.6122 1685.56 15.7402C1683.71 16.0252 1682.58 14.1942 1682.09 12.4482C1681.57 10.6002 1681.53 9.32821 1682.54 8.48421Z" fill="#AB47E9"/>
</g>
<path d="M1683.18 9.24984C1684.19 8.40484 1685.43 8.66484 1687.16 9.49884C1688.8 10.2868 1690.4 11.7178 1689.8 13.4838C1689.53 14.2738 1689.32 14.5388 1688.32 15.3778C1687.32 16.2178 1687.03 16.3778 1686.2 16.5058C1684.36 16.7908 1683.23 14.9598 1682.74 13.2138C1682.22 11.3668 1682.18 10.0938 1683.18 9.24984Z" fill="#AB47E9"/>
<path d="M1742 8C1763.7 11.116 1776.08 12 1798 12" stroke="#AEB7C2"/>
<g opacity="0.8">
<path d="M1743.5 17C1742.19 17 1741.4 16 1740.61 14.25C1739.86 12.595 1739.55 10.466 1741.15 9.5C1741.86 9.068 1742.19 9 1743.5 9C1744.81 9 1745.14 9.068 1745.85 9.5C1747.45 10.466 1747.13 12.595 1746.39 14.25C1745.6 16 1744.81 17 1743.5 17Z" fill="#2787F5"/>
</g>
<path d="M1743.5 16C1742.19 16 1741.4 15 1740.61 13.25C1739.86 11.595 1739.55 9.466 1741.15 8.5C1741.86 8.068 1742.19 8 1743.5 8C1744.81 8 1745.14 8.068 1745.85 8.5C1747.45 9.466 1747.13 11.595 1746.39 13.25C1745.6 15 1744.81 16 1743.5 16Z" fill="#2787F5"/>
<path d="M1856 8C1856 8 1821.92 12 1800 12" stroke="#AEB7C2"/>
<g opacity="0.8">
<path d="M1797.37 18.6878C1796.26 17.9918 1796.12 16.7268 1796.38 14.8248C1796.63 13.0268 1797.49 11.0568 1799.35 11.0828C1800.19 11.0938 1800.51 11.2128 1801.61 11.9038C1802.72 12.5958 1802.96 12.8288 1803.34 13.5738C1804.18 15.2388 1802.79 16.8788 1801.28 17.8878C1799.69 18.9538 1798.49 19.3848 1797.37 18.6878Z" fill="#F679FF"/>
</g>
<path d="M1797.9 17.8401C1796.79 17.1451 1796.65 15.8791 1796.91 13.9771C1797.15 12.1791 1798.02 10.2091 1799.88 10.2351C1800.72 10.2461 1801.03 10.3651 1802.14 11.0561C1803.25 11.7481 1803.49 11.9811 1803.87 12.7261C1804.71 14.3911 1803.32 16.0311 1801.81 17.0401C1800.21 18.1061 1799.02 18.5371 1797.9 17.8401Z" fill="#F679FF"/>
<path d="M1859 8C1859 8 1887.09 10.196 1915 11.334" stroke="#AEB7C2"/>
<g opacity="0.8">
<path d="M1862.47 14.1439C1861.46 14.9889 1860.21 14.7289 1858.49 13.8949C1856.85 13.1059 1855.24 11.6749 1855.85 9.9099C1856.11 9.1199 1856.32 8.8549 1857.32 8.0159C1858.32 7.1759 1858.62 7.0159 1859.45 6.8879C1861.29 6.6029 1862.42 8.4339 1862.91 10.1799C1863.43 12.0269 1863.47 13.2999 1862.47 14.1439Z" fill="#17D685"/>
</g>
<path d="M1861.82 13.3778C1860.82 14.2218 1859.57 13.9628 1857.84 13.1278C1856.21 12.3398 1854.6 10.9098 1855.2 9.14476C1855.47 8.35476 1855.68 8.08976 1856.68 7.25076C1857.68 6.41076 1857.98 6.25076 1858.8 6.12276C1860.65 5.83776 1861.78 7.66876 1862.27 9.41476C1862.79 11.2618 1862.83 12.5348 1861.82 13.3788L1861.82 13.3778Z" fill="#17D685"/>
</svg>
