<svg width="1920" height="120" viewBox="0 0 1920 120" fill="none" xmlns="http://www.w3.org/2000/svg">
<g clip-path="url(#clip0_139_17426)">
<path d="M-1 0C20.703 3.116 33.075 4 55 4" stroke="#AEB7C2"/>
<g opacity="0.8">
<path d="M0.499997 9C-0.813003 9 -1.602 8 -2.39 6.25C-3.135 4.595 -3.446 2.466 -1.85 1.5C-1.137 1.068 -0.806003 1 0.499997 1C1.806 1 2.137 1.068 2.85 1.5C4.446 2.466 4.135 4.595 3.39 6.25C2.602 8 1.813 9 0.499997 9Z" fill="#2787F5"/>
</g>
<path d="M0.499997 8C-0.813003 8 -1.602 7 -2.39 5.25C-3.135 3.595 -3.446 1.466 -1.85 0.5C-1.137 0.068 -0.806003 0 0.499997 0C1.806 0 2.137 0.068 2.85 0.5C4.446 1.466 4.135 3.595 3.39 5.25C2.602 7 1.813 8 0.499997 8Z" fill="#2787F5"/>
<path d="M113 0C113 0 78.925 4 57 4" stroke="#AEB7C2"/>
<g opacity="0.8">
<path d="M54.3731 10.6878C53.2591 9.99177 53.1211 8.72677 53.3801 6.82477C53.6251 5.02677 54.4891 3.05677 56.3541 3.08277C57.1891 3.09377 57.5051 3.21277 58.6121 3.90377C59.7201 4.59577 59.9641 4.82877 60.3411 5.57377C61.1821 7.23877 59.7901 8.87877 58.2811 9.88777C56.6851 10.9538 55.4871 11.3848 54.3731 10.6878Z" fill="#F679FF"/>
</g>
<path d="M54.9029 9.84012C53.7889 9.14512 53.6509 7.87912 53.9099 5.97712C54.1549 4.17912 55.0189 2.20912 56.8839 2.23512C57.7189 2.24612 58.0349 2.36512 59.1419 3.05612C60.2499 3.74812 60.4939 3.98112 60.8709 4.72612C61.7109 6.39112 60.3199 8.03112 58.8109 9.04012C57.2149 10.1061 56.0169 10.5371 54.9029 9.84012Z" fill="#F679FF"/>
<path d="M116 0C116 0 144.088 2.196 172 3.334" stroke="#AEB7C2"/>
<g opacity="0.8">
<path d="M119.466 6.1439C118.46 6.9889 117.214 6.7289 115.485 5.8949C113.851 5.1059 112.244 3.6749 112.845 1.9099C113.114 1.1199 113.324 0.854898 114.324 0.015898C115.324 -0.824102 115.621 -0.984102 116.446 -1.1121C118.29 -1.3971 119.419 0.433898 119.912 2.1799C120.433 4.0269 120.472 5.2999 119.466 6.1439Z" fill="#17D685"/>
</g>
<path d="M118.823 5.37776C117.817 6.22176 116.571 5.96276 114.843 5.12776C113.207 4.33976 111.6 2.90976 112.201 1.14476C112.47 0.354762 112.68 0.0897613 113.681 -0.749239C114.681 -1.58924 114.977 -1.74924 115.802 -1.87724C117.646 -2.16224 118.776 -0.331239 119.268 1.41476C119.79 3.26176 119.828 4.53476 118.822 5.37876L118.823 5.37776Z" fill="#17D685"/>
<path d="M174 3.33398C183.757 3.73198 193.493 3.99998 202 3.99998C212.49 3.99998 221.512 3.90999 230 3.68699" stroke="#AEB7C2"/>
<g opacity="0.8">
<path d="M179.517 1.48499C180.194 2.61099 179.742 3.80099 178.648 5.37799C177.614 6.86899 175.949 8.23299 174.298 7.36299C173.561 6.97299 173.332 6.72499 172.66 5.60499C171.987 4.48599 171.875 4.16799 171.878 3.33299C171.884 1.46699 173.87 0.637992 175.672 0.424992C177.578 0.198992 178.841 0.358991 179.517 1.48499Z" fill="#FFD91D"/>
</g>
<path d="M178.66 2.00013C179.336 3.12613 178.885 4.31613 177.791 5.89313C176.757 7.38413 175.092 8.74813 173.441 7.87813C172.704 7.48813 172.475 7.24013 171.803 6.12013C171.13 5.00113 171.018 4.68313 171.021 3.84813C171.027 1.98213 173.012 1.15313 174.814 0.940128C176.72 0.714128 177.984 0.874128 178.66 2.00013Z" fill="#FFD91D"/>
<path d="M288.5 0C266.249 2.124 250.588 3.21 232.5 3.687" stroke="#AEB7C2"/>
<g opacity="0.8">
<path d="M228.538 0.484212C229.545 -0.360788 230.791 -0.100788 232.52 0.733212C234.154 1.52121 235.761 2.95221 235.16 4.71821C234.89 5.50821 234.68 5.77321 233.68 6.61221C232.68 7.45221 232.383 7.61221 231.559 7.74021C229.715 8.02521 228.585 6.19421 228.092 4.44821C227.572 2.60021 227.532 1.32821 228.538 0.484212Z" fill="#AB47E9"/>
</g>
<path d="M229.181 1.24984C230.187 0.404837 231.434 0.664837 233.162 1.49884C234.797 2.28684 236.404 3.71784 235.802 5.48384C235.534 6.27384 235.324 6.53884 234.323 7.37784C233.323 8.21784 233.026 8.37784 232.201 8.50584C230.358 8.79084 229.228 6.95984 228.735 5.21384C228.215 3.36684 228.175 2.09384 229.181 1.24984Z" fill="#AB47E9"/>
<path d="M288 0C309.703 3.116 322.075 4 344 4" stroke="#AEB7C2"/>
<g opacity="0.8">
<path d="M289.5 9C288.187 9 287.398 8 286.61 6.25C285.865 4.595 285.554 2.466 287.15 1.5C287.863 1.068 288.194 1 289.5 1C290.806 1 291.137 1.068 291.85 1.5C293.446 2.466 293.135 4.595 292.39 6.25C291.602 8 290.813 9 289.5 9Z" fill="#2787F5"/>
</g>
<path d="M289.5 8C288.187 8 287.398 7 286.61 5.25C285.865 3.595 285.554 1.466 287.15 0.5C287.863 0.068 288.194 0 289.5 0C290.806 0 291.137 0.068 291.85 0.5C293.446 1.466 293.135 3.595 292.39 5.25C291.602 7 290.813 8 289.5 8Z" fill="#2787F5"/>
<path d="M402 0C402 0 367.925 4 346 4" stroke="#AEB7C2"/>
<g opacity="0.8">
<path d="M343.373 10.6878C342.259 9.99177 342.121 8.72677 342.38 6.82477C342.625 5.02677 343.489 3.05677 345.354 3.08277C346.189 3.09377 346.505 3.21277 347.612 3.90377C348.72 4.59577 348.964 4.82877 349.341 5.57377C350.182 7.23877 348.79 8.87877 347.281 9.88777C345.685 10.9538 344.487 11.3848 343.373 10.6878Z" fill="#F679FF"/>
</g>
<path d="M343.903 9.84012C342.789 9.14512 342.651 7.87912 342.91 5.97712C343.155 4.17912 344.019 2.20912 345.884 2.23512C346.719 2.24612 347.035 2.36512 348.142 3.05612C349.25 3.74812 349.494 3.98112 349.871 4.72612C350.711 6.39112 349.32 8.03112 347.811 9.04012C346.215 10.1061 345.017 10.5371 343.903 9.84012Z" fill="#F679FF"/>
<path d="M405 0C405 0 433.088 2.196 461 3.334" stroke="#AEB7C2"/>
<g opacity="0.8">
<path d="M408.466 6.1439C407.46 6.9889 406.214 6.7289 404.485 5.8949C402.851 5.1059 401.244 3.6749 401.845 1.9099C402.114 1.1199 402.324 0.854898 403.324 0.015898C404.324 -0.824102 404.621 -0.984102 405.446 -1.1121C407.29 -1.3971 408.419 0.433898 408.912 2.1799C409.433 4.0269 409.472 5.2999 408.466 6.1439Z" fill="#17D685"/>
</g>
<path d="M407.823 5.37776C406.817 6.22176 405.571 5.96276 403.843 5.12776C402.207 4.33976 400.6 2.90976 401.201 1.14476C401.47 0.354762 401.68 0.0897613 402.681 -0.749239C403.681 -1.58924 403.977 -1.74924 404.802 -1.87724C406.646 -2.16224 407.776 -0.331239 408.268 1.41476C408.79 3.26176 408.828 4.53476 407.822 5.37876L407.823 5.37776Z" fill="#17D685"/>
<path d="M463 3.33398C472.757 3.73198 482.493 3.99998 491 3.99998C501.49 3.99998 510.512 3.90999 519 3.68699" stroke="#AEB7C2"/>
<g opacity="0.8">
<path d="M468.517 1.48499C469.194 2.61099 468.742 3.80099 467.648 5.37799C466.614 6.86899 464.949 8.23299 463.298 7.36299C462.561 6.97299 462.332 6.72499 461.66 5.60499C460.987 4.48599 460.875 4.16799 460.878 3.33299C460.884 1.46699 462.87 0.637992 464.672 0.424992C466.578 0.198992 467.841 0.358991 468.517 1.48499Z" fill="#FFD91D"/>
</g>
<path d="M467.66 2.00013C468.336 3.12613 467.885 4.31613 466.791 5.89313C465.757 7.38413 464.092 8.74813 462.441 7.87813C461.704 7.48813 461.475 7.24013 460.803 6.12013C460.13 5.00113 460.018 4.68313 460.021 3.84813C460.027 1.98213 462.012 1.15313 463.814 0.940128C465.72 0.714128 466.984 0.874128 467.66 2.00013Z" fill="#FFD91D"/>
<path d="M577.5 0C555.249 2.124 539.588 3.21 521.5 3.687" stroke="#AEB7C2"/>
<g opacity="0.8">
<path d="M517.538 0.484212C518.545 -0.360788 519.791 -0.100788 521.52 0.733212C523.154 1.52121 524.761 2.95221 524.16 4.71821C523.89 5.50821 523.68 5.77321 522.68 6.61221C521.68 7.45221 521.383 7.61221 520.559 7.74021C518.715 8.02521 517.585 6.19421 517.092 4.44821C516.572 2.60021 516.532 1.32821 517.538 0.484212Z" fill="#AB47E9"/>
</g>
<path d="M518.181 1.24984C519.187 0.404837 520.434 0.664837 522.162 1.49884C523.797 2.28684 525.404 3.71784 524.802 5.48384C524.534 6.27384 524.324 6.53884 523.323 7.37784C522.323 8.21784 522.026 8.37784 521.201 8.50584C519.358 8.79084 518.228 6.95984 517.735 5.21384C517.215 3.36684 517.175 2.09384 518.181 1.24984Z" fill="#AB47E9"/>
<path d="M577 0C598.703 3.116 611.075 4 633 4" stroke="#AEB7C2"/>
<g opacity="0.8">
<path d="M578.5 9C577.187 9 576.398 8 575.61 6.25C574.865 4.595 574.554 2.466 576.15 1.5C576.863 1.068 577.194 1 578.5 1C579.806 1 580.137 1.068 580.85 1.5C582.446 2.466 582.135 4.595 581.39 6.25C580.602 8 579.813 9 578.5 9Z" fill="#2787F5"/>
</g>
<path d="M578.5 8C577.187 8 576.398 7 575.61 5.25C574.865 3.595 574.554 1.466 576.15 0.5C576.863 0.068 577.194 0 578.5 0C579.806 0 580.137 0.068 580.85 0.5C582.446 1.466 582.135 3.595 581.39 5.25C580.602 7 579.813 8 578.5 8Z" fill="#2787F5"/>
<path d="M691 0C691 0 656.925 4 635 4" stroke="#AEB7C2"/>
<g opacity="0.8">
<path d="M632.373 10.6878C631.259 9.99177 631.121 8.72677 631.38 6.82477C631.625 5.02677 632.489 3.05677 634.354 3.08277C635.189 3.09377 635.505 3.21277 636.612 3.90377C637.72 4.59577 637.964 4.82877 638.341 5.57377C639.182 7.23877 637.79 8.87877 636.281 9.88777C634.685 10.9538 633.487 11.3848 632.373 10.6878Z" fill="#F679FF"/>
</g>
<path d="M632.903 9.84012C631.789 9.14512 631.651 7.87912 631.91 5.97712C632.155 4.17912 633.019 2.20912 634.884 2.23512C635.719 2.24612 636.035 2.36512 637.142 3.05612C638.25 3.74812 638.494 3.98112 638.871 4.72612C639.711 6.39112 638.32 8.03112 636.811 9.04012C635.215 10.1061 634.017 10.5371 632.903 9.84012Z" fill="#F679FF"/>
<path d="M694 0C694 0 722.088 2.196 750 3.334" stroke="#AEB7C2"/>
<g opacity="0.8">
<path d="M697.466 6.1439C696.46 6.9889 695.214 6.7289 693.485 5.8949C691.851 5.1059 690.244 3.6749 690.845 1.9099C691.114 1.1199 691.324 0.854898 692.324 0.015898C693.324 -0.824102 693.621 -0.984102 694.446 -1.1121C696.29 -1.3971 697.419 0.433898 697.912 2.1799C698.433 4.0269 698.472 5.2999 697.466 6.1439Z" fill="#17D685"/>
</g>
<path d="M696.823 5.37776C695.817 6.22176 694.571 5.96276 692.843 5.12776C691.207 4.33976 689.6 2.90976 690.201 1.14476C690.47 0.354762 690.68 0.0897613 691.681 -0.749239C692.681 -1.58924 692.977 -1.74924 693.802 -1.87724C695.646 -2.16224 696.776 -0.331239 697.268 1.41476C697.79 3.26176 697.828 4.53476 696.822 5.37876L696.823 5.37776Z" fill="#17D685"/>
<path d="M752 3.33398C761.757 3.73198 771.493 3.99998 780 3.99998C790.49 3.99998 799.512 3.90999 808 3.68699" stroke="#AEB7C2"/>
<g opacity="0.8">
<path d="M757.517 1.48499C758.194 2.61099 757.742 3.80099 756.648 5.37799C755.614 6.86899 753.949 8.23299 752.298 7.36299C751.561 6.97299 751.332 6.72499 750.66 5.60499C749.987 4.48599 749.875 4.16799 749.878 3.33299C749.884 1.46699 751.87 0.637992 753.672 0.424992C755.578 0.198992 756.841 0.358991 757.517 1.48499Z" fill="#FFD91D"/>
</g>
<path d="M756.66 2.00013C757.336 3.12613 756.885 4.31613 755.791 5.89313C754.757 7.38413 753.092 8.74813 751.441 7.87813C750.704 7.48813 750.475 7.24013 749.803 6.12013C749.13 5.00113 749.018 4.68313 749.021 3.84813C749.027 1.98213 751.012 1.15313 752.814 0.940128C754.72 0.714128 755.984 0.874128 756.66 2.00013Z" fill="#FFD91D"/>
<path d="M866.5 0C844.249 2.124 828.588 3.21 810.5 3.687" stroke="#AEB7C2"/>
<g opacity="0.8">
<path d="M806.538 0.484212C807.545 -0.360788 808.791 -0.100788 810.52 0.733212C812.154 1.52121 813.761 2.95221 813.16 4.71821C812.89 5.50821 812.68 5.77321 811.68 6.61221C810.68 7.45221 810.383 7.61221 809.559 7.74021C807.715 8.02521 806.585 6.19421 806.092 4.44821C805.572 2.60021 805.532 1.32821 806.538 0.484212Z" fill="#AB47E9"/>
</g>
<path d="M807.181 1.24984C808.187 0.404837 809.434 0.664837 811.162 1.49884C812.797 2.28684 814.404 3.71784 813.802 5.48384C813.534 6.27384 813.324 6.53884 812.323 7.37784C811.323 8.21784 811.026 8.37784 810.201 8.50584C808.358 8.79084 807.228 6.95984 806.735 5.21384C806.215 3.36684 806.175 2.09384 807.181 1.24984Z" fill="#AB47E9"/>
<path d="M866 0C887.703 3.116 900.075 4 922 4" stroke="#AEB7C2"/>
<g opacity="0.8">
<path d="M867.5 9C866.187 9 865.398 8 864.61 6.25C863.865 4.595 863.554 2.466 865.15 1.5C865.863 1.068 866.194 1 867.5 1C868.806 1 869.137 1.068 869.85 1.5C871.446 2.466 871.135 4.595 870.39 6.25C869.602 8 868.813 9 867.5 9Z" fill="#2787F5"/>
</g>
<path d="M867.5 8C866.187 8 865.398 7 864.61 5.25C863.865 3.595 863.554 1.466 865.15 0.5C865.863 0.068 866.194 0 867.5 0C868.806 0 869.137 0.068 869.85 0.5C871.446 1.466 871.135 3.595 870.39 5.25C869.602 7 868.813 8 867.5 8Z" fill="#2787F5"/>
<path d="M980 0C980 0 945.925 4 924 4" stroke="#AEB7C2"/>
<g opacity="0.8">
<path d="M921.373 10.6878C920.259 9.99177 920.121 8.72677 920.38 6.82477C920.625 5.02677 921.489 3.05677 923.354 3.08277C924.189 3.09377 924.505 3.21277 925.612 3.90377C926.72 4.59577 926.964 4.82877 927.341 5.57377C928.182 7.23877 926.79 8.87877 925.281 9.88777C923.685 10.9538 922.487 11.3848 921.373 10.6878Z" fill="#F679FF"/>
</g>
<path d="M921.903 9.84012C920.789 9.14512 920.651 7.87912 920.91 5.97712C921.155 4.17912 922.019 2.20912 923.884 2.23512C924.719 2.24612 925.035 2.36512 926.142 3.05612C927.25 3.74812 927.494 3.98112 927.871 4.72612C928.711 6.39112 927.32 8.03112 925.811 9.04012C924.215 10.1061 923.017 10.5371 921.903 9.84012Z" fill="#F679FF"/>
<path d="M983 0C983 0 1011.09 2.196 1039 3.334" stroke="#AEB7C2"/>
<g opacity="0.8">
<path d="M986.466 6.1439C985.46 6.9889 984.214 6.7289 982.485 5.8949C980.851 5.1059 979.244 3.6749 979.845 1.9099C980.114 1.1199 980.324 0.854898 981.324 0.015898C982.324 -0.824102 982.621 -0.984102 983.446 -1.1121C985.29 -1.3971 986.419 0.433898 986.912 2.1799C987.433 4.0269 987.472 5.2999 986.466 6.1439Z" fill="#17D685"/>
</g>
<path d="M985.823 5.37776C984.817 6.22176 983.571 5.96276 981.843 5.12776C980.207 4.33976 978.6 2.90976 979.201 1.14476C979.47 0.354762 979.68 0.0897613 980.681 -0.749239C981.681 -1.58924 981.977 -1.74924 982.802 -1.87724C984.646 -2.16224 985.776 -0.331239 986.268 1.41476C986.79 3.26176 986.828 4.53476 985.822 5.37876L985.823 5.37776Z" fill="#17D685"/>
<path d="M1041 3.33398C1050.76 3.73198 1060.49 3.99998 1069 3.99998C1079.49 3.99998 1088.51 3.90999 1097 3.68699" stroke="#AEB7C2"/>
<g opacity="0.8">
<path d="M1046.52 1.48499C1047.19 2.61099 1046.74 3.80099 1045.65 5.37799C1044.61 6.86899 1042.95 8.23299 1041.3 7.36299C1040.56 6.97299 1040.33 6.72499 1039.66 5.60499C1038.99 4.48599 1038.87 4.16799 1038.88 3.33299C1038.88 1.46699 1040.87 0.637992 1042.67 0.424992C1044.58 0.198992 1045.84 0.358991 1046.52 1.48499Z" fill="#FFD91D"/>
</g>
<path d="M1045.66 2.00013C1046.34 3.12613 1045.89 4.31613 1044.79 5.89313C1043.76 7.38413 1042.09 8.74813 1040.44 7.87813C1039.7 7.48813 1039.48 7.24013 1038.8 6.12013C1038.13 5.00113 1038.02 4.68313 1038.02 3.84813C1038.03 1.98213 1040.01 1.15313 1041.81 0.940128C1043.72 0.714128 1044.98 0.874128 1045.66 2.00013Z" fill="#FFD91D"/>
<path d="M1155.5 0C1133.25 2.124 1117.59 3.21 1099.5 3.687" stroke="#AEB7C2"/>
<g opacity="0.8">
<path d="M1095.54 0.484212C1096.54 -0.360788 1097.79 -0.100788 1099.52 0.733212C1101.15 1.52121 1102.76 2.95221 1102.16 4.71821C1101.89 5.50821 1101.68 5.77321 1100.68 6.61221C1099.68 7.45221 1099.38 7.61221 1098.56 7.74021C1096.71 8.02521 1095.58 6.19421 1095.09 4.44821C1094.57 2.60021 1094.53 1.32821 1095.54 0.484212Z" fill="#AB47E9"/>
</g>
<path d="M1096.18 1.24984C1097.19 0.404837 1098.43 0.664837 1100.16 1.49884C1101.8 2.28684 1103.4 3.71784 1102.8 5.48384C1102.53 6.27384 1102.32 6.53884 1101.32 7.37784C1100.32 8.21784 1100.03 8.37784 1099.2 8.50584C1097.36 8.79084 1096.23 6.95984 1095.74 5.21384C1095.22 3.36684 1095.18 2.09384 1096.18 1.24984Z" fill="#AB47E9"/>
<path d="M1155 0C1176.7 3.116 1189.08 4 1211 4" stroke="#AEB7C2"/>
<g opacity="0.8">
<path d="M1156.5 9C1155.19 9 1154.4 8 1153.61 6.25C1152.86 4.595 1152.55 2.466 1154.15 1.5C1154.86 1.068 1155.19 1 1156.5 1C1157.81 1 1158.14 1.068 1158.85 1.5C1160.45 2.466 1160.13 4.595 1159.39 6.25C1158.6 8 1157.81 9 1156.5 9Z" fill="#2787F5"/>
</g>
<path d="M1156.5 8C1155.19 8 1154.4 7 1153.61 5.25C1152.86 3.595 1152.55 1.466 1154.15 0.5C1154.86 0.068 1155.19 0 1156.5 0C1157.81 0 1158.14 0.068 1158.85 0.5C1160.45 1.466 1160.13 3.595 1159.39 5.25C1158.6 7 1157.81 8 1156.5 8Z" fill="#2787F5"/>
<path d="M1269 0C1269 0 1234.92 4 1213 4" stroke="#AEB7C2"/>
<g opacity="0.8">
<path d="M1210.37 10.6878C1209.26 9.99177 1209.12 8.72677 1209.38 6.82477C1209.63 5.02677 1210.49 3.05677 1212.35 3.08277C1213.19 3.09377 1213.51 3.21277 1214.61 3.90377C1215.72 4.59577 1215.96 4.82877 1216.34 5.57377C1217.18 7.23877 1215.79 8.87877 1214.28 9.88777C1212.69 10.9538 1211.49 11.3848 1210.37 10.6878Z" fill="#F679FF"/>
</g>
<path d="M1210.9 9.84012C1209.79 9.14512 1209.65 7.87912 1209.91 5.97712C1210.15 4.17912 1211.02 2.20912 1212.88 2.23512C1213.72 2.24612 1214.03 2.36512 1215.14 3.05612C1216.25 3.74812 1216.49 3.98112 1216.87 4.72612C1217.71 6.39112 1216.32 8.03112 1214.81 9.04012C1213.21 10.1061 1212.02 10.5371 1210.9 9.84012Z" fill="#F679FF"/>
<path d="M1272 0C1272 0 1300.09 2.196 1328 3.334" stroke="#AEB7C2"/>
<g opacity="0.8">
<path d="M1275.47 6.1439C1274.46 6.9889 1273.21 6.7289 1271.49 5.8949C1269.85 5.1059 1268.24 3.6749 1268.85 1.9099C1269.11 1.1199 1269.32 0.854898 1270.32 0.015898C1271.32 -0.824102 1271.62 -0.984102 1272.45 -1.1121C1274.29 -1.3971 1275.42 0.433898 1275.91 2.1799C1276.43 4.0269 1276.47 5.2999 1275.47 6.1439Z" fill="#17D685"/>
</g>
<path d="M1274.82 5.37776C1273.82 6.22176 1272.57 5.96276 1270.84 5.12776C1269.21 4.33976 1267.6 2.90976 1268.2 1.14476C1268.47 0.354762 1268.68 0.0897613 1269.68 -0.749239C1270.68 -1.58924 1270.98 -1.74924 1271.8 -1.87724C1273.65 -2.16224 1274.78 -0.331239 1275.27 1.41476C1275.79 3.26176 1275.83 4.53476 1274.82 5.37876L1274.82 5.37776Z" fill="#17D685"/>
<path d="M1330 3.33398C1339.76 3.73198 1349.49 3.99998 1358 3.99998C1368.49 3.99998 1377.51 3.90999 1386 3.68699" stroke="#AEB7C2"/>
<g opacity="0.8">
<path d="M1335.52 1.48499C1336.19 2.61099 1335.74 3.80099 1334.65 5.37799C1333.61 6.86899 1331.95 8.23299 1330.3 7.36299C1329.56 6.97299 1329.33 6.72499 1328.66 5.60499C1327.99 4.48599 1327.87 4.16799 1327.88 3.33299C1327.88 1.46699 1329.87 0.637992 1331.67 0.424992C1333.58 0.198992 1334.84 0.358991 1335.52 1.48499Z" fill="#FFD91D"/>
</g>
<path d="M1334.66 2.00013C1335.34 3.12613 1334.89 4.31613 1333.79 5.89313C1332.76 7.38413 1331.09 8.74813 1329.44 7.87813C1328.7 7.48813 1328.48 7.24013 1327.8 6.12013C1327.13 5.00113 1327.02 4.68313 1327.02 3.84813C1327.03 1.98213 1329.01 1.15313 1330.81 0.940128C1332.72 0.714128 1333.98 0.874128 1334.66 2.00013Z" fill="#FFD91D"/>
<path d="M1444.5 0C1422.25 2.124 1406.59 3.21 1388.5 3.687" stroke="#AEB7C2"/>
<g opacity="0.8">
<path d="M1384.54 0.484212C1385.54 -0.360788 1386.79 -0.100788 1388.52 0.733212C1390.15 1.52121 1391.76 2.95221 1391.16 4.71821C1390.89 5.50821 1390.68 5.77321 1389.68 6.61221C1388.68 7.45221 1388.38 7.61221 1387.56 7.74021C1385.71 8.02521 1384.58 6.19421 1384.09 4.44821C1383.57 2.60021 1383.53 1.32821 1384.54 0.484212Z" fill="#AB47E9"/>
</g>
<path d="M1385.18 1.24984C1386.19 0.404837 1387.43 0.664837 1389.16 1.49884C1390.8 2.28684 1392.4 3.71784 1391.8 5.48384C1391.53 6.27384 1391.32 6.53884 1390.32 7.37784C1389.32 8.21784 1389.03 8.37784 1388.2 8.50584C1386.36 8.79084 1385.23 6.95984 1384.74 5.21384C1384.22 3.36684 1384.18 2.09384 1385.18 1.24984Z" fill="#AB47E9"/>
<path d="M1444 0C1465.7 3.116 1478.08 4 1500 4" stroke="#AEB7C2"/>
<g opacity="0.8">
<path d="M1445.5 9C1444.19 9 1443.4 8 1442.61 6.25C1441.86 4.595 1441.55 2.466 1443.15 1.5C1443.86 1.068 1444.19 1 1445.5 1C1446.81 1 1447.14 1.068 1447.85 1.5C1449.45 2.466 1449.13 4.595 1448.39 6.25C1447.6 8 1446.81 9 1445.5 9Z" fill="#2787F5"/>
</g>
<path d="M1445.5 8C1444.19 8 1443.4 7 1442.61 5.25C1441.86 3.595 1441.55 1.466 1443.15 0.5C1443.86 0.068 1444.19 0 1445.5 0C1446.81 0 1447.14 0.068 1447.85 0.5C1449.45 1.466 1449.13 3.595 1448.39 5.25C1447.6 7 1446.81 8 1445.5 8Z" fill="#2787F5"/>
<path d="M1558 0C1558 0 1523.92 4 1502 4" stroke="#AEB7C2"/>
<g opacity="0.8">
<path d="M1499.37 10.6878C1498.26 9.99177 1498.12 8.72677 1498.38 6.82477C1498.63 5.02677 1499.49 3.05677 1501.35 3.08277C1502.19 3.09377 1502.51 3.21277 1503.61 3.90377C1504.72 4.59577 1504.96 4.82877 1505.34 5.57377C1506.18 7.23877 1504.79 8.87877 1503.28 9.88777C1501.69 10.9538 1500.49 11.3848 1499.37 10.6878Z" fill="#F679FF"/>
</g>
<path d="M1499.9 9.84012C1498.79 9.14512 1498.65 7.87912 1498.91 5.97712C1499.15 4.17912 1500.02 2.20912 1501.88 2.23512C1502.72 2.24612 1503.03 2.36512 1504.14 3.05612C1505.25 3.74812 1505.49 3.98112 1505.87 4.72612C1506.71 6.39112 1505.32 8.03112 1503.81 9.04012C1502.21 10.1061 1501.02 10.5371 1499.9 9.84012Z" fill="#F679FF"/>
<path d="M1561 0C1561 0 1589.09 2.196 1617 3.334" stroke="#AEB7C2"/>
<g opacity="0.8">
<path d="M1564.47 6.1439C1563.46 6.9889 1562.21 6.7289 1560.49 5.8949C1558.85 5.1059 1557.24 3.6749 1557.85 1.9099C1558.11 1.1199 1558.32 0.854898 1559.32 0.015898C1560.32 -0.824102 1560.62 -0.984102 1561.45 -1.1121C1563.29 -1.3971 1564.42 0.433898 1564.91 2.1799C1565.43 4.0269 1565.47 5.2999 1564.47 6.1439Z" fill="#17D685"/>
</g>
<path d="M1563.82 5.37776C1562.82 6.22176 1561.57 5.96276 1559.84 5.12776C1558.21 4.33976 1556.6 2.90976 1557.2 1.14476C1557.47 0.354762 1557.68 0.0897613 1558.68 -0.749239C1559.68 -1.58924 1559.98 -1.74924 1560.8 -1.87724C1562.65 -2.16224 1563.78 -0.331239 1564.27 1.41476C1564.79 3.26176 1564.83 4.53476 1563.82 5.37876L1563.82 5.37776Z" fill="#17D685"/>
<path d="M1619 3.33398C1628.76 3.73198 1638.49 3.99998 1647 3.99998C1657.49 3.99998 1666.51 3.90999 1675 3.68699" stroke="#AEB7C2"/>
<g opacity="0.8">
<path d="M1624.52 1.48499C1625.19 2.61099 1624.74 3.80099 1623.65 5.37799C1622.61 6.86899 1620.95 8.23299 1619.3 7.36299C1618.56 6.97299 1618.33 6.72499 1617.66 5.60499C1616.99 4.48599 1616.87 4.16799 1616.88 3.33299C1616.88 1.46699 1618.87 0.637992 1620.67 0.424992C1622.58 0.198992 1623.84 0.358991 1624.52 1.48499Z" fill="#FFD91D"/>
</g>
<path d="M1623.66 2.00013C1624.34 3.12613 1623.89 4.31613 1622.79 5.89313C1621.76 7.38413 1620.09 8.74813 1618.44 7.87813C1617.7 7.48813 1617.48 7.24013 1616.8 6.12013C1616.13 5.00113 1616.02 4.68313 1616.02 3.84813C1616.03 1.98213 1618.01 1.15313 1619.81 0.940128C1621.72 0.714128 1622.98 0.874128 1623.66 2.00013Z" fill="#FFD91D"/>
<path d="M1733.5 0C1711.25 2.124 1695.59 3.21 1677.5 3.687" stroke="#AEB7C2"/>
<g opacity="0.8">
<path d="M1673.54 0.484212C1674.54 -0.360788 1675.79 -0.100788 1677.52 0.733212C1679.15 1.52121 1680.76 2.95221 1680.16 4.71821C1679.89 5.50821 1679.68 5.77321 1678.68 6.61221C1677.68 7.45221 1677.38 7.61221 1676.56 7.74021C1674.71 8.02521 1673.58 6.19421 1673.09 4.44821C1672.57 2.60021 1672.53 1.32821 1673.54 0.484212Z" fill="#AB47E9"/>
</g>
<path d="M1674.18 1.24984C1675.19 0.404837 1676.43 0.664837 1678.16 1.49884C1679.8 2.28684 1681.4 3.71784 1680.8 5.48384C1680.53 6.27384 1680.32 6.53884 1679.32 7.37784C1678.32 8.21784 1678.03 8.37784 1677.2 8.50584C1675.36 8.79084 1674.23 6.95984 1673.74 5.21384C1673.22 3.36684 1673.18 2.09384 1674.18 1.24984Z" fill="#AB47E9"/>
<path d="M1733 0C1754.7 3.116 1767.08 4 1789 4" stroke="#AEB7C2"/>
<g opacity="0.8">
<path d="M1734.5 9C1733.19 9 1732.4 8 1731.61 6.25C1730.86 4.595 1730.55 2.466 1732.15 1.5C1732.86 1.068 1733.19 1 1734.5 1C1735.81 1 1736.14 1.068 1736.85 1.5C1738.45 2.466 1738.13 4.595 1737.39 6.25C1736.6 8 1735.81 9 1734.5 9Z" fill="#2787F5"/>
</g>
<path d="M1734.5 8C1733.19 8 1732.4 7 1731.61 5.25C1730.86 3.595 1730.55 1.466 1732.15 0.5C1732.86 0.068 1733.19 0 1734.5 0C1735.81 0 1736.14 0.068 1736.85 0.5C1738.45 1.466 1738.13 3.595 1737.39 5.25C1736.6 7 1735.81 8 1734.5 8Z" fill="#2787F5"/>
<path d="M1847 0C1847 0 1812.92 4 1791 4" stroke="#AEB7C2"/>
<g opacity="0.8">
<path d="M1788.37 10.6878C1787.26 9.99177 1787.12 8.72677 1787.38 6.82477C1787.63 5.02677 1788.49 3.05677 1790.35 3.08277C1791.19 3.09377 1791.51 3.21277 1792.61 3.90377C1793.72 4.59577 1793.96 4.82877 1794.34 5.57377C1795.18 7.23877 1793.79 8.87877 1792.28 9.88777C1790.69 10.9538 1789.49 11.3848 1788.37 10.6878Z" fill="#F679FF"/>
</g>
<path d="M1788.9 9.84012C1787.79 9.14512 1787.65 7.87912 1787.91 5.97712C1788.15 4.17912 1789.02 2.20912 1790.88 2.23512C1791.72 2.24612 1792.03 2.36512 1793.14 3.05612C1794.25 3.74812 1794.49 3.98112 1794.87 4.72612C1795.71 6.39112 1794.32 8.03112 1792.81 9.04012C1791.21 10.1061 1790.02 10.5371 1788.9 9.84012Z" fill="#F679FF"/>
<path d="M1850 0C1850 0 1878.09 2.196 1906 3.334" stroke="#AEB7C2"/>
<g opacity="0.8">
<path d="M1853.47 6.1439C1852.46 6.9889 1851.21 6.7289 1849.49 5.8949C1847.85 5.1059 1846.24 3.6749 1846.85 1.9099C1847.11 1.1199 1847.32 0.854898 1848.32 0.015898C1849.32 -0.824102 1849.62 -0.984102 1850.45 -1.1121C1852.29 -1.3971 1853.42 0.433898 1853.91 2.1799C1854.43 4.0269 1854.47 5.2999 1853.47 6.1439Z" fill="#17D685"/>
</g>
<path d="M1852.82 5.37776C1851.82 6.22176 1850.57 5.96276 1848.84 5.12776C1847.21 4.33976 1845.6 2.90976 1846.2 1.14476C1846.47 0.354762 1846.68 0.0897613 1847.68 -0.749239C1848.68 -1.58924 1848.98 -1.74924 1849.8 -1.87724C1851.65 -2.16224 1852.78 -0.331239 1853.27 1.41476C1853.79 3.26176 1853.83 4.53476 1852.82 5.37876L1852.82 5.37776Z" fill="#17D685"/>
<path d="M1908 3.33398C1917.76 3.73198 1927.49 3.99998 1936 3.99998C1946.49 3.99998 1955.51 3.90999 1964 3.68699" stroke="#AEB7C2"/>
<g opacity="0.8">
<path d="M1913.52 1.48499C1914.19 2.61099 1913.74 3.80099 1912.65 5.37799C1911.61 6.86899 1909.95 8.23299 1908.3 7.36299C1907.56 6.97299 1907.33 6.72499 1906.66 5.60499C1905.99 4.48599 1905.87 4.16799 1905.88 3.33299C1905.88 1.46699 1907.87 0.637992 1909.67 0.424992C1911.58 0.198992 1912.84 0.358991 1913.52 1.48499Z" fill="#FFD91D"/>
</g>
<path d="M1912.66 2.00013C1913.34 3.12613 1912.89 4.31613 1911.79 5.89313C1910.76 7.38413 1909.09 8.74813 1907.44 7.87813C1906.7 7.48813 1906.48 7.24013 1905.8 6.12013C1905.13 5.00113 1905.02 4.68313 1905.02 3.84813C1905.03 1.98213 1907.01 1.15313 1908.81 0.940128C1910.72 0.714128 1911.98 0.874128 1912.66 2.00013Z" fill="#FFD91D"/>
<path d="M1859.5 -23.5V65.5" stroke="#AEB7C2" stroke-linecap="round" stroke-dasharray="1 2"/>
<path d="M1859.5 72C1858.19 72 1857.4 71 1856.61 69.25C1855.86 67.595 1855.55 65.466 1857.15 64.5C1857.86 64.068 1858.19 64 1859.5 64C1860.81 64 1861.14 64.068 1861.85 64.5C1863.45 65.466 1863.13 67.595 1862.39 69.25C1861.6 71 1860.81 72 1859.5 72Z" fill="#AEB7C2"/>
</g>
<defs>
<clipPath id="clip0_139_17426">
<rect width="1920" height="120" fill="white"/>
</clipPath>
</defs>
</svg>
