<svg width="77" height="20" viewBox="0 0 77 20" fill="none" xmlns="http://www.w3.org/2000/svg">
<path d="M8.55459 6.49531V9.04389H5.40502V18.6372H2.35146V9.04389H0.5V6.49531H2.35146V5.41333C2.35146 4.48366 2.54381 3.69023 2.9285 3.03305C3.3292 2.35983 3.84992 1.8469 4.49129 1.49427C5.13234 1.14161 5.83772 0.965301 6.60711 0.965301C7.11983 0.965301 7.56885 1.0214 7.95354 1.13361C8.33824 1.24582 8.67493 1.3981 8.96329 1.59045V4.13903C8.43426 3.81848 7.82521 3.6662 7.13615 3.6822C6.65512 3.69823 6.24642 3.85854 5.90974 4.1631C5.57305 4.45159 5.40502 4.93249 5.40502 5.60568V6.49531H8.55459ZM12.6428 0.171875C13.2199 0.171875 13.7169 0.380256 14.1336 0.796989C14.5503 1.19772 14.7586 1.67859 14.7586 2.23963C14.7586 2.7846 14.5503 3.26547 14.1336 3.6822C13.7169 4.09896 13.2199 4.30735 12.6428 4.30735C12.0658 4.30735 11.5691 4.09896 11.1524 3.6822C10.7514 3.26547 10.551 2.7846 10.551 2.23963C10.551 1.67859 10.7514 1.19772 11.1524 0.796989C11.5691 0.380256 12.0658 0.171875 12.6428 0.171875ZM14.4223 6.49531V18.6372H11.3687V9.092H9.42124V6.49531H14.4223ZM34.1627 6.49531L29.955 18.6372H27.7432L24.906 10.775L22.0688 18.6372H19.8329L15.6493 6.49531H18.9672L21.2034 13.6843L23.8242 6.49531H26.0121L28.6086 13.6843L30.8448 6.49531H34.1627ZM40.7034 6.18272C41.8898 6.18272 42.9716 6.47127 43.9493 7.04831C44.9271 7.60932 45.7125 8.37871 46.3058 9.35648C46.9149 10.3182 47.2192 11.4002 47.2192 12.6023C47.2192 13.8045 46.9149 14.8865 46.3058 15.8482C45.7125 16.8099 44.9271 17.5793 43.9493 18.1564C42.9716 18.7174 41.8898 18.9979 40.7034 18.9979C39.5333 18.9979 38.4516 18.7174 37.4578 18.1564C36.4798 17.5793 35.6944 16.8099 35.1013 15.8482C34.5083 14.8865 34.2119 13.8045 34.2119 12.6023C34.2119 11.4002 34.5083 10.3182 35.1013 9.35648C35.6944 8.37871 36.4798 7.60932 37.4578 7.04831C38.4516 6.47127 39.5333 6.18272 40.7034 6.18272ZM40.7034 9.14007C40.1264 9.14007 39.5896 9.27631 39.0926 9.54883C38.5956 9.82132 38.1949 10.214 37.8905 10.7269C37.6019 11.2399 37.4578 11.865 37.4578 12.6023C37.4578 13.3397 37.6019 13.9648 37.8905 14.4777C38.1949 14.9906 38.5956 15.3834 39.0926 15.6558C39.5896 15.9123 40.1264 16.0405 40.7034 16.0405C41.2805 16.0405 41.8175 15.9123 42.3145 15.6558C42.8112 15.3834 43.2119 14.9906 43.5166 14.4777C43.8213 13.9648 43.9733 13.3397 43.9733 12.6023C43.9733 11.865 43.8213 11.2399 43.5166 10.7269C43.2119 10.214 42.8112 9.82132 42.3145 9.54883C41.8175 9.27631 41.2805 9.14007 40.7034 9.14007ZM56.7655 9.90946C56.2525 9.62094 55.7158 9.47669 55.1547 9.47669C54.4493 9.47669 53.8643 9.70911 53.3996 10.1739C52.9346 10.6227 52.5259 11.1838 52.1732 11.857V18.6372H49.1196V6.49531H52.1732V8.77944C52.5899 8.05812 53.0789 7.45704 53.6399 6.97617C54.217 6.49531 54.866 6.25486 55.5874 6.25486C56.0201 6.25486 56.4128 6.32699 56.7655 6.47127V9.90946ZM61.1904 1.32596V11.9051L66.1435 6.49531H69.9664L64.725 11.7608L70.2308 18.6372H66.3838L62.7052 13.8045L61.1904 15.3193V18.6372H58.1369V1.32596H61.1904Z" fill="#7A7D85"/>
<path d="M74.577 15.2229C75.1061 15.2229 75.5548 15.4152 75.9235 15.7999C76.3082 16.1686 76.5005 16.6174 76.5005 17.1464C76.5005 17.6753 76.3082 18.1322 75.9235 18.5169C75.5548 18.8855 75.1061 19.0699 74.577 19.0699C74.048 19.0699 73.5913 18.8855 73.2066 18.5169C72.8379 18.1322 72.6536 17.6753 72.6536 17.1464C72.6536 16.6174 72.8379 16.1686 73.2066 15.7999C73.5913 15.4152 74.048 15.2229 74.577 15.2229Z" fill="#7A7D85"/>
</svg>
