<svg width="100" height="25" viewBox="0 0 100 25" fill="none" xmlns="http://www.w3.org/2000/svg">
<path d="M10.5982 8.32034V11.6738H6.454V24.2966H2.43615V11.6738H0V8.32034H2.43615V6.89668C2.43615 5.67342 2.68924 4.62944 3.19542 3.76472C3.72265 2.87891 4.40781 2.20399 5.25172 1.74C6.09522 1.27598 7.02335 1.04399 8.03571 1.04399C8.71035 1.04399 9.30116 1.11781 9.80734 1.26545C10.3135 1.41309 10.7565 1.61346 11.136 1.86655V5.21997C10.4399 4.79818 9.63848 4.59781 8.73181 4.61887C8.09888 4.63997 7.56112 4.8509 7.11811 5.25163C6.6751 5.63123 6.454 6.26399 6.454 7.14977V8.32034H10.5982ZM15.9775 0C16.7367 0 17.3907 0.274187 17.939 0.822522C18.4873 1.3498 18.7615 1.98252 18.7615 2.72074C18.7615 3.43781 18.4873 4.07053 17.939 4.61887C17.3907 5.16724 16.7367 5.44143 15.9775 5.44143C15.2182 5.44143 14.5646 5.16724 14.0163 4.61887C13.4887 4.07053 13.2251 3.43781 13.2251 2.72074C13.2251 1.98252 13.4887 1.3498 14.0163 0.822522C14.5646 0.274187 15.2182 0 15.9775 0ZM18.3189 8.32034V24.2966H14.301V11.7371H11.7385V8.32034H18.3189ZM44.2932 8.32034L38.7568 24.2966H35.8465L32.1133 13.9516L28.3801 24.2966H25.4382L19.9334 8.32034H24.2991L27.2414 17.7795L30.6899 8.32034H33.5687L36.9852 17.7795L39.9275 8.32034H44.2932ZM52.8995 7.90904C54.4605 7.90904 55.8839 8.28871 57.1704 9.04798C58.4569 9.78615 59.4903 10.7985 60.2711 12.0851C61.0725 13.3505 61.4729 14.7741 61.4729 16.3559C61.4729 17.9378 61.0725 19.3614 60.2711 20.6268C59.4903 21.8923 58.4569 22.9046 57.1704 23.6639C55.8839 24.4021 54.4605 24.7712 52.8995 24.7712C51.3599 24.7712 49.9365 24.4021 48.6289 23.6639C47.342 22.9046 46.3086 21.8923 45.5283 20.6268C44.7479 19.3614 44.358 17.9378 44.358 16.3559C44.358 14.7741 44.7479 13.3505 45.5283 12.0851C46.3086 10.7985 47.342 9.78615 48.6289 9.04798C49.9365 8.28871 51.3599 7.90904 52.8995 7.90904ZM52.8995 11.8003C52.1402 11.8003 51.434 11.9796 50.78 12.3381C50.126 12.6967 49.5988 13.2134 49.1983 13.8883C48.8184 14.5632 48.6289 15.3858 48.6289 16.3559C48.6289 17.3261 48.8184 18.1486 49.1983 18.8236C49.5988 19.4984 50.126 20.0152 50.78 20.3737C51.434 20.7112 52.1402 20.8799 52.8995 20.8799C53.6587 20.8799 54.3654 20.7112 55.0194 20.3737C55.6729 20.0152 56.2002 19.4984 56.6011 18.8236C57.002 18.1486 57.202 17.3261 57.202 16.3559C57.202 15.3858 57.002 14.5632 56.6011 13.8883C56.2002 13.2134 55.6729 12.6967 55.0194 12.3381C54.3654 11.9796 53.6587 11.8003 52.8995 11.8003ZM74.0339 12.8127C73.3589 12.433 72.6526 12.2432 71.9144 12.2432C70.9863 12.2432 70.2165 12.549 69.605 13.1607C68.9932 13.7512 68.4554 14.4894 67.9913 15.3752V24.2966H63.9735V8.32034H67.9913V11.3258C68.5396 10.3767 69.1831 9.58579 69.9213 8.95306C70.6806 8.32034 71.5346 8.00396 72.4838 8.00396C73.0531 8.00396 73.5698 8.09887 74.0339 8.28871V12.8127ZM79.8562 1.51854V15.4385L86.3734 8.32034H91.4036L84.507 15.2486L91.7514 24.2966H86.6896L81.8493 17.9378L79.8562 19.9308V24.2966H75.8383V1.51854H79.8562Z" fill="#0177FF"/>
<path d="M97.469 19.804C98.1651 19.804 98.7555 20.0571 99.2407 20.5632C99.7469 21.0484 99.9999 21.6389 99.9999 22.3349C99.9999 23.0309 99.7469 23.632 99.2407 24.1382C98.7555 24.6232 98.1651 24.8658 97.469 24.8658C96.7729 24.8658 96.172 24.6232 95.6658 24.1382C95.1807 23.632 94.9381 23.0309 94.9381 22.3349C94.9381 21.6389 95.1807 21.0484 95.6658 20.5632C96.172 20.0571 96.7729 19.804 97.469 19.804Z" fill="#0177FF"/>
</svg>
