<svg width="16" height="17" viewBox="0 0 16 17" fill="none" xmlns="http://www.w3.org/2000/svg">
<path d="M1.31893 13.5232H3.54593V15.4322C3.54593 15.5252 3.57593 15.6012 3.63593 15.6602C3.66594 15.69 3.70174 15.7134 3.74112 15.7289C3.7805 15.7444 3.82264 15.7516 3.86493 15.7502H5.52493C5.61093 15.7502 5.68593 15.7202 5.74893 15.6602C5.77986 15.631 5.80424 15.5956 5.82044 15.5563C5.83665 15.517 5.84431 15.4747 5.84293 15.4322V13.5232H10.8639C10.906 13.5243 10.9478 13.5168 10.9869 13.5012C11.026 13.4857 11.0615 13.4623 11.0912 13.4325C11.121 13.4028 11.1444 13.3673 11.16 13.3282C11.1756 13.2891 11.183 13.2473 11.1819 13.2052V11.9322C11.1819 11.8402 11.1519 11.7632 11.0929 11.7042C11.0629 11.6744 11.0271 11.651 10.9877 11.6355C10.9484 11.62 10.9062 11.6128 10.8639 11.6142H5.84293V10.4402H9.22393C10.5499 10.4402 11.6319 10.0362 12.4699 9.22721C13.3079 8.41821 13.7279 7.37521 13.7279 6.09521C13.7279 4.81521 13.3089 3.77221 12.4699 2.96321C11.6309 2.15421 10.5489 1.75021 9.22293 1.75021H3.86393C3.82171 1.74866 3.77962 1.75575 3.74024 1.77105C3.70086 1.78636 3.66502 1.80955 3.63493 1.83921C3.60509 1.86922 3.58172 1.90501 3.56624 1.9444C3.55076 1.98378 3.54351 2.02592 3.54493 2.06821V8.32221H1.31893C1.22593 8.32221 1.14993 8.35321 1.08993 8.41621C1.02993 8.47921 0.999931 8.55421 0.999931 8.64121V10.1222C0.998509 10.1645 1.00576 10.2066 1.02124 10.246C1.03672 10.2854 1.06009 10.3212 1.08993 10.3512C1.14993 10.4112 1.22593 10.4402 1.31893 10.4402H3.54593V11.6132H1.31893C1.27664 11.6118 1.2345 11.619 1.19512 11.6345C1.15574 11.65 1.11994 11.6734 1.08993 11.7032C1.06022 11.7331 1.03691 11.7687 1.02144 11.8079C1.00596 11.8471 0.998646 11.8891 0.999931 11.9312V13.2042C0.999931 13.2972 1.02993 13.3732 1.08993 13.4332C1.14993 13.4932 1.22593 13.5232 1.31893 13.5232ZM5.84293 3.86921H9.02493C9.72793 3.86921 10.2939 4.07421 10.7249 4.48521C11.1559 4.89621 11.3709 5.43321 11.3709 6.09621C11.3709 6.75921 11.1549 7.29621 10.7249 7.70721C10.2949 8.11821 9.72693 8.32421 9.02493 8.32421H5.84293V3.86921Z" fill="#CCCCCC"/>
</svg>
